<svg width="891" height="756" viewBox="0 0 891 756" fill="none" xmlns="http://www.w3.org/2000/svg">
<path d="M445 531.232C310.795 531.232 202 523.569 202 514.116C202 504.663 310.795 497 445 497C579.205 497 688 504.663 688 514.116C688 523.569 579.205 531.232 445 531.232Z" fill="#FF9F1C" fill-opacity="0.22"/>
<path d="M245.061 470.867H583.427C584.481 470.874 585.526 470.695 586.495 470.342C587.464 469.988 588.336 469.469 589.056 468.815C589.776 468.162 590.328 467.388 590.678 466.544C591.028 465.7 591.168 464.804 591.089 463.912L577.154 276.288C576.978 274.418 575.988 272.67 574.378 271.385C572.767 270.099 570.651 269.368 568.44 269.333H230.092C229.037 269.326 227.993 269.505 227.024 269.858C226.055 270.211 225.183 270.731 224.463 271.385C223.743 272.038 223.191 272.811 222.841 273.655C222.49 274.499 222.35 275.396 222.429 276.288L236.365 463.912C236.541 465.779 237.528 467.525 239.135 468.81C240.741 470.095 242.853 470.828 245.061 470.867V470.867Z" fill="#263238"/>
<path opacity="0.6" d="M245.061 470.867H583.427C584.481 470.874 585.526 470.695 586.495 470.342C587.464 469.988 588.336 469.469 589.056 468.815C589.776 468.162 590.328 467.388 590.678 466.544C591.028 465.7 591.168 464.804 591.089 463.912L577.154 276.288C576.978 274.418 575.988 272.67 574.378 271.385C572.767 270.099 570.651 269.368 568.44 269.333H230.092C229.037 269.326 227.993 269.505 227.024 269.858C226.055 270.211 225.183 270.731 224.463 271.385C223.743 272.038 223.191 272.811 222.841 273.655C222.49 274.499 222.35 275.396 222.429 276.288L236.365 463.912C236.541 465.779 237.528 467.525 239.135 468.81C240.741 470.095 242.853 470.828 245.061 470.867V470.867Z" fill="black"/>
<path d="M247.591 470.867H585.939C586.995 470.876 588.042 470.698 589.013 470.346C589.984 469.994 590.858 469.474 591.58 468.821C592.302 468.167 592.856 467.393 593.207 466.548C593.558 465.703 593.699 464.805 593.62 463.912L579.685 276.288C579.508 274.418 578.518 272.67 576.908 271.385C575.297 270.099 573.181 269.368 570.971 269.333H232.622C231.567 269.324 230.521 269.501 229.551 269.853C228.581 270.206 227.708 270.726 226.987 271.38C226.267 272.034 225.714 272.808 225.365 273.653C225.016 274.498 224.878 275.395 224.959 276.288L238.895 463.912C239.071 465.779 240.058 467.525 241.665 468.81C243.271 470.095 245.383 470.828 247.591 470.867V470.867Z" fill="#263238"/>
<path d="M248.019 473.256H650.626C652.479 473.242 654.3 473.673 655.876 474.5C657.453 475.327 658.722 476.515 659.536 477.928C659.742 478.295 659.835 478.701 659.805 479.106C659.775 479.512 659.623 479.904 659.364 480.247C659.106 480.589 658.748 480.869 658.326 481.061C657.904 481.254 657.431 481.351 656.952 481.345H241.782C241.303 481.351 240.83 481.254 240.407 481.061C239.985 480.869 239.628 480.589 239.369 480.247C239.11 479.904 238.959 479.512 238.929 479.106C238.899 478.701 238.991 478.295 239.198 477.928C240.002 476.525 241.256 475.342 242.816 474.515C244.376 473.689 246.179 473.252 248.019 473.256V473.256Z" fill="#263238"/>
<path opacity="0.6" d="M248.018 473.256H305.274C307.114 473.251 308.918 473.686 310.478 474.513C312.039 475.34 313.293 476.523 314.095 477.928C314.301 478.294 314.393 478.698 314.364 479.102C314.335 479.507 314.185 479.898 313.928 480.24C313.671 480.582 313.317 480.863 312.897 481.056C312.477 481.249 312.006 481.349 311.529 481.345H241.781C241.302 481.351 240.829 481.254 240.407 481.061C239.985 480.869 239.628 480.589 239.369 480.247C239.11 479.904 238.959 479.512 238.929 479.106C238.899 478.7 238.991 478.295 239.198 477.928C240.002 476.525 241.256 475.342 242.816 474.515C244.376 473.689 246.179 473.252 248.018 473.256V473.256Z" fill="black"/>
<path d="M283.516 479.153H298.306C298.648 479.149 298.975 479.031 299.215 478.824C299.455 478.618 299.589 478.339 299.589 478.049V478.049C299.589 477.759 299.455 477.48 299.215 477.274C298.975 477.067 298.648 476.949 298.306 476.945H283.516C283.345 476.945 283.176 476.974 283.018 477.029C282.86 477.085 282.717 477.166 282.596 477.269C282.475 477.371 282.379 477.493 282.314 477.627C282.248 477.761 282.215 477.904 282.215 478.049V478.049C282.215 478.194 282.248 478.338 282.314 478.471C282.379 478.605 282.475 478.727 282.596 478.83C282.717 478.932 282.86 479.013 283.018 479.069C283.176 479.124 283.345 479.153 283.516 479.153V479.153Z" fill="#FF9F1C"/>
<path opacity="0.7" d="M473.709 479.153H488.481C488.826 479.153 489.157 479.036 489.401 478.83C489.645 478.623 489.782 478.342 489.782 478.049V478.049C489.782 477.904 489.749 477.761 489.683 477.627C489.618 477.493 489.522 477.371 489.401 477.269C489.28 477.166 489.137 477.085 488.979 477.029C488.821 476.974 488.652 476.945 488.481 476.945H473.709C473.538 476.945 473.369 476.974 473.211 477.029C473.053 477.085 472.91 477.166 472.789 477.269C472.668 477.371 472.572 477.493 472.507 477.627C472.441 477.761 472.408 477.904 472.408 478.049C472.408 478.342 472.545 478.623 472.789 478.83C473.033 479.036 473.364 479.153 473.709 479.153V479.153Z" fill="white"/>
<path d="M268.209 476.945H277.885C278.475 476.945 278.954 477.351 278.954 477.853V478.246C278.954 478.747 278.475 479.153 277.885 479.153H268.209C267.618 479.153 267.139 478.747 267.139 478.246V477.853C267.139 477.351 267.618 476.945 268.209 476.945Z" fill="#FF9F1C"/>
<path d="M585.993 457.138L573.055 283.062C572.989 282.335 572.604 281.657 571.978 281.159C571.351 280.661 570.528 280.379 569.669 280.37H235.562C235.153 280.365 234.747 280.432 234.37 280.568C233.993 280.703 233.653 280.904 233.373 281.158C233.093 281.411 232.878 281.711 232.743 282.039C232.607 282.367 232.554 282.715 232.586 283.062L245.506 457.138C245.577 457.866 245.965 458.545 246.594 459.042C247.224 459.54 248.049 459.821 248.909 459.829H582.999C583.408 459.832 583.814 459.763 584.19 459.627C584.567 459.491 584.906 459.29 585.187 459.038C585.468 458.785 585.685 458.486 585.823 458.159C585.962 457.832 586.02 457.485 585.993 457.138V457.138Z" fill="white"/>
<path opacity="0.1" d="M395.925 275.003L507.21 454.477H589.307C589.719 454.482 590.127 454.415 590.507 454.278C590.886 454.142 591.227 453.94 591.509 453.685C591.791 453.43 592.007 453.128 592.143 452.799C592.279 452.469 592.333 452.119 592.301 451.77L579.364 277.709C579.297 276.981 578.914 276.301 578.287 275.8C577.661 275.3 576.838 275.015 575.978 275.003H395.925Z" fill="#FF9F1C"/>
<path opacity="0.1" d="M298.467 275.003L409.753 454.477H435.699L324.413 275.003H298.467Z" fill="#FF9F1C"/>
<path opacity="0.1" d="M238.895 277.709L251.832 451.771C251.894 452.499 252.277 453.182 252.904 453.683C253.531 454.184 254.356 454.468 255.218 454.477H381.74L270.454 275.003H241.942C241.526 274.993 241.113 275.058 240.729 275.192C240.345 275.326 239.998 275.528 239.711 275.783C239.424 276.037 239.203 276.341 239.062 276.672C238.922 277.004 238.865 277.357 238.895 277.709V277.709Z" fill="#FF9F1C"/>
<path opacity="0.4" d="M399.827 275.184C399.876 275.732 400.164 276.246 400.636 276.623C401.107 277.001 401.727 277.216 402.375 277.225C402.685 277.228 402.992 277.176 403.277 277.073C403.561 276.97 403.818 276.817 404.029 276.625C404.24 276.433 404.402 276.206 404.504 275.957C404.606 275.709 404.646 275.446 404.621 275.184C404.576 274.634 404.289 274.119 403.817 273.741C403.345 273.363 402.722 273.149 402.073 273.143C401.763 273.14 401.456 273.192 401.171 273.295C400.887 273.398 400.63 273.551 400.419 273.743C400.208 273.935 400.046 274.163 399.944 274.411C399.842 274.659 399.802 274.922 399.827 275.184V275.184Z" fill="white"/>
<path d="M455.034 233.438C464.781 242.903 470.412 271.918 463.195 286.191C455.978 300.465 539.714 314.753 470.626 337.947C401.538 361.141 346.278 334.243 366.272 310.217C386.266 286.191 364.116 246.184 387.264 236.129C408.185 226.966 435.503 214.462 455.034 233.438Z" fill="#263238"/>
<path d="M475.687 350.27C479.34 360.854 483.225 371.438 487.252 382.022C491.28 392.606 495.467 403.069 499.904 413.577L501.597 417.539L502.453 419.52L502.72 420.109L503.148 421.001C503.415 421.576 503.825 422.196 504.181 422.785C505.923 425.485 508.522 427.717 511.683 429.227C514.553 430.549 517.756 431.265 521.021 431.313C525.6 431.332 530.137 430.576 534.368 429.091C537.832 427.898 541.185 426.488 544.401 424.872C556.085 418.776 566.794 411.428 576.263 403.009L568.583 395.328C565.999 396.734 563.237 398.231 560.564 399.637C557.891 401.043 555.093 402.404 552.384 403.749C547.077 406.385 541.597 408.763 535.972 410.871C533.409 411.83 530.764 412.624 528.06 413.245C526.19 413.771 524.213 413.967 522.251 413.819C521.752 413.819 521.841 413.577 522.251 413.713C522.661 413.85 523.106 414.243 523.124 414.197C523.142 414.152 523.124 414.197 523.124 414.107C523.116 414.077 523.116 414.046 523.124 414.016L522.981 413.638L522.304 411.687L520.932 407.756L510.044 376.004C506.337 365.42 502.524 354.836 498.604 344.252L475.687 350.27Z" fill="#FFBE9D"/>
<path d="M569.135 395.086L589.842 388.584L581.627 407.151C581.627 407.151 567.014 408.936 561.348 402.419L565.963 397.172C566.763 396.233 567.864 395.509 569.135 395.086V395.086Z" fill="#FFBE9D"/>
<path d="M608.107 393.982L600.231 409.208L581.538 407.121L589.771 388.554L608.107 393.982Z" fill="#FFBE9D"/>
<path d="M490.798 322.888C500.279 324.929 506.836 357.996 506.836 357.996L480.73 373.116C480.73 373.116 455.782 339.762 462.999 330.931C470.662 321.663 476.988 319.909 490.798 322.888Z" fill="#FF9F1C"/>
<path opacity="0.5" d="M490.798 322.888C500.279 324.929 506.836 357.996 506.836 357.996L480.73 373.116C480.73 373.116 455.782 339.762 462.999 330.931C470.662 321.663 476.988 319.909 490.798 322.888Z" fill="white"/>
<path opacity="0.2" d="M491.653 334.908L471.392 338.885L469.45 355.713C472.883 361.654 476.671 367.443 480.801 373.056L496.643 363.984C495.948 356.197 494.237 340.2 491.653 334.908Z" fill="black"/>
<path d="M490.799 322.888C490.799 322.888 501.758 326.154 479.821 440.551H386.516C388.084 408.331 388.12 388.448 369.979 322.328C383.039 320.037 396.279 318.556 409.593 317.898C425.292 317.248 438.105 316.825 451.969 317.898C470.163 319.304 490.799 322.888 490.799 322.888Z" fill="#FF9F1C"/>
<path opacity="0.5" d="M490.799 322.888C490.799 322.888 501.758 326.154 479.821 440.551H386.516C388.084 408.331 388.12 388.448 369.979 322.328C383.039 320.037 396.279 318.556 409.593 317.898C425.292 317.248 438.105 316.825 451.969 317.898C470.163 319.304 490.799 322.888 490.799 322.888Z" fill="white"/>
<path opacity="0.2" d="M391.933 353.022L379.887 361.731C382.453 373.298 384.181 382.899 385.233 391.502C387.531 382.914 393.27 359.599 391.933 353.022Z" fill="black"/>
<path d="M413.798 277.407C416.471 288.973 419.144 310.172 409.593 317.898C409.593 317.898 418.503 335.226 442.114 335.226C465.726 335.226 451.969 317.898 451.969 317.898C436.768 314.874 437.16 305.243 439.798 296.261L413.798 277.407Z" fill="#FFBE9D"/>
<path d="M412.622 313.574C414.867 317.429 422.102 326.244 442.31 329.389C442.871 329.477 443.451 329.379 443.931 329.117C447.709 326.879 450.061 322.147 448.404 316.658C448.294 316.321 448.298 315.964 448.414 315.629C448.531 315.293 448.756 314.992 449.063 314.759C449.371 314.526 449.75 314.371 450.156 314.311C450.562 314.251 450.98 314.289 451.362 314.42C452.914 314.972 454.405 315.64 455.817 316.416C456.127 316.591 456.379 316.83 456.548 317.112C458.027 319.47 464.014 331.022 445.945 338.144C445.657 338.248 445.349 338.31 445.036 338.325C434.344 338.507 415.651 336.722 403.836 318.669C403.625 318.343 403.531 317.972 403.566 317.601C403.601 317.23 403.763 316.876 404.032 316.583C405.62 315.108 407.465 313.848 409.503 312.848C409.76 312.708 410.048 312.616 410.35 312.577C410.651 312.537 410.959 312.553 411.253 312.621C411.547 312.69 411.821 312.81 412.057 312.974C412.292 313.138 412.485 313.342 412.622 313.574Z" fill="#FAFAFA"/>
<path d="M407.668 361.171L431.725 360.582C431.976 360.583 432.225 360.539 432.455 360.453C432.685 360.367 432.891 360.24 433.06 360.082C433.228 359.923 433.355 359.736 433.432 359.533C433.509 359.33 433.534 359.116 433.507 358.903L433.275 356.378C433.206 355.954 432.955 355.565 432.571 355.287C432.187 355.008 431.695 354.859 431.19 354.866L407.133 355.456C406.88 355.455 406.629 355.499 406.398 355.586C406.167 355.673 405.96 355.801 405.791 355.961C405.622 356.121 405.496 356.31 405.42 356.515C405.344 356.72 405.321 356.936 405.351 357.15L405.583 359.659C405.652 360.084 405.903 360.473 406.287 360.751C406.671 361.03 407.162 361.179 407.668 361.171V361.171Z" fill="#FAFAFA"/>
<path opacity="0.2" d="M424.401 285.103L439.797 296.246C439.137 298.336 438.696 300.471 438.479 302.627C432.687 301.916 424.704 296.503 424.08 291.347C423.739 289.267 423.848 287.151 424.401 285.103V285.103Z" fill="black"/>
<path d="M395.835 255.528C400.13 274.534 401.466 282.653 414.368 291.226C433.774 304.139 460.344 295.49 462.803 275.789C465.03 258.053 457.635 229.96 434.291 224.759C429.175 223.605 423.797 223.579 418.666 224.682C413.536 225.785 408.821 227.981 404.971 231.063C401.12 234.144 398.259 238.008 396.661 242.289C395.062 246.571 394.778 251.127 395.835 255.528Z" fill="#FFBE9D"/>
<path d="M408.577 241.466C411.357 253.366 412.016 269.136 399.168 269.136C386.32 269.136 376.251 250.584 387.335 236.054C398.419 221.523 406.955 234.451 408.577 241.466Z" fill="#263238"/>
<path d="M386.373 242.933C386.373 255.876 405.583 249.48 414.083 243.901C422.583 238.321 422.993 238.926 438.746 238.911C454.499 238.896 457.653 237.974 462.304 231.593C466.955 225.212 466.527 221.009 456.049 222.355C445.571 223.7 454.374 214.628 446.569 209.593C438.764 204.558 429.515 205.829 418.841 217.32C408.167 228.811 386.373 220.51 386.373 242.933Z" fill="#263238"/>
<path d="M392.013 272.439C389.992 266.589 391.975 260.946 396.442 259.835C400.909 258.724 406.169 262.565 408.19 268.415C410.212 274.264 408.229 279.907 403.762 281.018C399.295 282.13 394.035 278.288 392.013 272.439Z" fill="white"/>
<path d="M427.68 287.068C431.816 287.068 435.908 286.353 439.708 284.967C439.79 284.939 439.864 284.897 439.926 284.844C439.988 284.792 440.037 284.729 440.07 284.66C440.103 284.591 440.12 284.517 440.119 284.442C440.118 284.368 440.1 284.294 440.065 284.226C439.99 284.088 439.856 283.979 439.691 283.923C439.525 283.867 439.34 283.867 439.174 283.923C435.593 285.227 431.74 285.908 427.844 285.927C423.947 285.945 420.086 285.3 416.489 284.029C412.99 282.814 409.813 281.018 407.144 278.746C404.476 276.474 402.369 273.772 400.95 270.799C395.604 257.811 390.151 241.603 396.459 231.487C397.728 229.518 399.484 227.806 401.606 226.467C403.729 225.128 406.167 224.195 408.755 223.731C408.927 223.692 409.073 223.597 409.163 223.467C409.253 223.336 409.28 223.181 409.236 223.035C409.19 222.889 409.078 222.765 408.925 222.689C408.771 222.612 408.589 222.59 408.416 222.627C405.652 223.132 403.048 224.136 400.782 225.571C398.515 227.006 396.64 228.838 395.283 230.943C388.725 241.391 394.196 257.917 399.702 271.147C401.196 274.269 403.411 277.106 406.218 279.49C409.025 281.874 412.365 283.756 416.043 285.027C419.729 286.341 423.682 287.035 427.68 287.068V287.068Z" fill="white"/>
<path opacity="0.6" d="M392.663 272.493C394.249 277.029 397.885 280.219 400.789 279.508C403.694 278.798 404.763 274.473 403.177 269.877C401.591 265.28 397.956 262.135 395.051 262.861C392.147 263.587 391.077 267.896 392.663 272.493Z" fill="#FF9F1C"/>
<path d="M437.858 282.465L444.84 281.322C446.067 281.121 447.254 281.802 447.491 282.844L447.568 283.185C447.805 284.227 447.002 285.234 445.775 285.434L438.794 286.577C437.566 286.778 436.379 286.097 436.143 285.056L436.065 284.714C435.828 283.673 436.631 282.666 437.858 282.465Z" fill="white"/>
<path d="M446.979 257.116C446.979 257.116 451.113 263.481 455.033 266.339C452.913 268.531 448.636 268.108 448.636 268.108L446.979 257.116Z" fill="#FFD5BF"/>
<path d="M443.041 276.242H442.881C438.841 276.513 434.83 275.476 431.654 273.339C431.589 273.283 431.552 273.207 431.552 273.128C431.552 273.049 431.589 272.973 431.654 272.916C431.685 272.889 431.723 272.868 431.764 272.853C431.806 272.838 431.85 272.831 431.895 272.831C431.939 272.831 431.984 272.838 432.025 272.853C432.066 272.868 432.104 272.889 432.135 272.916C435.167 274.938 438.981 275.925 442.827 275.683C442.873 275.677 442.92 275.678 442.965 275.688C443.01 275.698 443.052 275.715 443.089 275.739C443.126 275.763 443.156 275.794 443.179 275.828C443.201 275.863 443.215 275.901 443.219 275.94C443.228 276 443.216 276.06 443.185 276.114C443.153 276.168 443.103 276.213 443.041 276.242V276.242Z" fill="#263238"/>
<path d="M422.654 249.631C422.554 249.679 422.44 249.704 422.325 249.704C422.209 249.704 422.096 249.679 421.995 249.631C421.842 249.545 421.735 249.412 421.695 249.259C421.655 249.107 421.686 248.948 421.781 248.815C422.633 247.604 423.813 246.583 425.223 245.836C426.633 245.089 428.233 244.638 429.889 244.521C430.075 244.521 430.254 244.582 430.387 244.692C430.52 244.803 430.597 244.953 430.602 245.11C430.602 245.264 430.531 245.412 430.405 245.522C430.278 245.632 430.106 245.696 429.925 245.7C428.498 245.816 427.123 246.215 425.912 246.867C424.701 247.519 423.689 248.403 422.957 249.45C422.878 249.532 422.773 249.595 422.654 249.631Z" fill="#263238"/>
<path d="M432.865 257.373C433.168 258.885 434.398 260.049 435.61 259.883C436.821 259.716 437.516 258.371 437.213 256.738C436.91 255.105 435.663 254.061 434.469 254.228C433.275 254.394 432.545 255.815 432.865 257.373Z" fill="#263238"/>
<path d="M453.644 254.379C453.947 255.891 455.176 257.055 456.388 256.889C457.6 256.722 458.295 255.301 457.992 253.744C457.689 252.186 456.441 251.052 455.247 251.234C454.054 251.415 453.323 252.806 453.644 254.379Z" fill="#263238"/>
<path d="M454.73 251.4L458.936 249.677C458.936 249.677 457.261 252.927 454.73 251.4Z" fill="#263238"/>
<path d="M433.953 254.394L438.158 252.685C438.158 252.685 436.483 255.936 433.953 254.394Z" fill="#263238"/>
<path d="M460.7 243.84C460.593 243.895 460.469 243.924 460.344 243.924C460.218 243.924 460.095 243.895 459.988 243.84C458.888 243.056 457.581 242.509 456.179 242.246C454.776 241.982 453.32 242.011 451.933 242.328C451.758 242.38 451.566 242.371 451.399 242.303C451.232 242.235 451.103 242.114 451.042 241.965C450.98 241.817 450.991 241.654 451.071 241.512C451.151 241.37 451.295 241.262 451.47 241.209C453.069 240.823 454.754 240.77 456.383 241.054C458.012 241.338 459.535 241.952 460.825 242.842C460.9 242.887 460.962 242.944 461.009 243.011C461.056 243.077 461.087 243.151 461.099 243.227C461.11 243.304 461.103 243.382 461.077 243.456C461.052 243.531 461.008 243.6 460.95 243.659C460.89 243.739 460.803 243.803 460.7 243.84V243.84Z" fill="#263238"/>
<path d="M483.367 459.829C483.367 459.829 483.617 449.004 479.803 440.551H386.516C386.516 440.551 378.122 452.043 375.948 459.829H483.367Z" fill="#FF9F1C"/>
<path d="M385.108 435.91L384.377 442.986C384.039 443.545 384.805 444.105 385.892 444.105H480.338C481.176 444.105 481.87 443.757 481.924 443.303L482.779 436.212C482.779 435.728 482.102 435.305 481.176 435.305H386.729C386.421 435.277 386.108 435.318 385.824 435.424C385.539 435.53 385.293 435.698 385.108 435.91V435.91Z" fill="#FF9F1C"/>
<path opacity="0.3" d="M385.108 435.91L384.377 442.986C384.039 443.545 384.805 444.105 385.892 444.105H480.338C481.176 444.105 481.87 443.757 481.924 443.303L482.779 436.212C482.779 435.728 482.102 435.305 481.176 435.305H386.729C386.421 435.277 386.108 435.318 385.824 435.424C385.539 435.53 385.293 435.698 385.108 435.91V435.91Z" fill="#FAFAFA"/>
<path d="M397.813 444.861H395.283C394.766 444.861 394.392 444.649 394.428 444.377L395.604 435.169C395.604 434.897 396.085 434.685 396.584 434.685H399.168C399.684 434.685 400.059 434.897 400.023 435.169L398.847 444.377C398.758 444.649 398.312 444.861 397.813 444.861Z" fill="#FF9F1C"/>
<path d="M473.174 444.861H470.644C470.145 444.861 469.753 444.649 469.788 444.377L470.982 435.169C470.982 434.897 471.446 434.685 471.963 434.685H474.493C474.992 434.685 475.384 434.897 475.348 435.169L474.154 444.377C474.119 444.649 473.673 444.861 473.174 444.861Z" fill="#FF9F1C"/>
<path d="M435.485 444.861H433.026C432.527 444.861 432.135 444.649 432.17 444.377L433.364 435.169C433.364 434.897 433.845 434.685 434.344 434.685H436.875C437.374 434.685 437.766 434.897 437.73 435.169L436.536 444.377C436.429 444.649 436.002 444.861 435.485 444.861Z" fill="#FF9F1C"/>
<path d="M361.995 344.736C357.897 356.026 353.959 367.376 350.181 378.786L344.496 395.811L341.663 404.279L340.95 406.365L340.594 407.408L340.504 407.65L340.79 407.272C341.24 406.725 341.794 406.245 342.429 405.851C343.824 404.99 345.483 404.491 347.205 404.415C348.506 404.362 349.803 404.58 350.983 405.05C352.266 405.639 352.141 405.775 352.034 405.67C351.732 405.447 351.457 405.199 351.214 404.929C350.374 404.038 349.601 403.104 348.898 402.132C347.33 399.954 345.779 397.505 344.318 394.995C341.289 389.975 338.562 384.653 335.8 379.3C333.038 373.948 330.454 368.535 327.781 363.077C325.108 357.618 322.56 352.13 319.922 346.717L308.535 349.59C311.494 361.383 314.951 372.965 319.227 384.502C321.33 390.293 323.665 396.023 326.355 401.829C327.745 404.732 329.224 407.635 331.06 410.644C332.039 412.272 333.134 413.847 334.339 415.362C335.088 416.312 335.922 417.211 336.834 418.053C338.28 419.445 340.036 420.581 342.001 421.394C343.963 422.204 346.13 422.588 348.31 422.513C350.894 422.391 353.376 421.617 355.438 420.291C356.752 419.45 357.89 418.428 358.806 417.267C359.385 416.522 359.891 415.738 360.32 414.923C360.481 414.59 360.659 414.243 360.784 413.94L361.122 413.199L361.586 412.126L362.512 409.994C363.724 407.167 364.954 404.339 366.076 401.512C368.357 395.857 370.638 390.217 372.776 384.547C377.148 373.217 381.223 361.832 385.001 350.391L361.995 344.736Z" fill="#FFBE9D"/>
<path d="M369.979 322.328C360.623 324.732 346.314 355.864 346.314 355.864L382.577 377.864C382.577 377.864 398.883 351.253 394.962 341.001C390.864 330.327 380.635 319.576 369.979 322.328Z" fill="#FF9F1C"/>
<path opacity="0.5" d="M369.979 322.328C360.623 324.732 346.314 355.864 346.314 355.864L382.577 377.864C382.577 377.864 398.883 351.253 394.962 341.001C390.864 330.327 380.635 319.576 369.979 322.328Z" fill="white"/>
<path d="M319.513 350.86L324.484 332.262L303.813 341.515C303.813 341.515 303.564 354.035 311.903 357.981L319.513 350.86Z" fill="#FFBE9D"/>
<path d="M315.824 317.505L302.637 325.443L303.813 341.515L324.484 332.262L315.824 317.505Z" fill="#FFBE9D"/>
<path d="M686.07 223.912H541.728C538.972 223.889 536.241 224.351 533.706 225.27C531.172 226.189 528.889 227.543 527.003 229.249C525.118 230.954 523.669 232.972 522.75 235.177C521.831 237.382 521.46 239.724 521.663 242.056L525.69 297.486C526.133 302.366 528.705 306.929 532.904 310.285C537.103 313.641 542.626 315.547 548.393 315.63H565.108L558.283 334.666L590.929 315.63H692.681C695.437 315.653 698.169 315.191 700.703 314.272C703.238 313.354 705.52 311.999 707.406 310.294C709.292 308.588 710.74 306.57 711.659 304.365C712.579 302.161 712.949 299.818 712.747 297.486L708.755 242.056C708.312 237.179 705.743 232.617 701.548 229.262C697.353 225.907 691.834 223.999 686.07 223.912V223.912Z" fill="#1E2959"/>
<path d="M554.95 252.942H677.017C677.536 252.94 678.048 252.846 678.521 252.667C678.994 252.488 679.419 252.228 679.767 251.902C680.116 251.577 680.381 251.193 680.545 250.776C680.71 250.359 680.771 249.918 680.724 249.48V249.48C680.644 248.562 680.163 247.703 679.375 247.071C678.587 246.439 677.549 246.079 676.465 246.063H554.38C553.865 246.064 553.355 246.155 552.882 246.33C552.41 246.505 551.985 246.761 551.634 247.082C551.283 247.402 551.013 247.78 550.842 248.193C550.671 248.606 550.601 249.044 550.638 249.48V249.48C550.701 250.415 551.183 251.294 551.985 251.937C552.786 252.581 553.847 252.94 554.95 252.942V252.942Z" fill="white"/>
<path d="M627.264 273.188H678.479C678.997 273.191 679.511 273.103 679.988 272.93C680.464 272.757 680.894 272.502 681.248 272.181C681.603 271.86 681.876 271.48 682.049 271.065C682.223 270.651 682.293 270.21 682.257 269.771C682.176 268.851 681.693 267.99 680.901 267.357C680.109 266.724 679.067 266.367 677.98 266.354H626.712C626.192 266.349 625.676 266.435 625.197 266.607C624.718 266.78 624.287 267.035 623.93 267.356C623.574 267.677 623.299 268.057 623.125 268.473C622.95 268.889 622.879 269.331 622.916 269.771C623.001 270.7 623.496 271.568 624.302 272.202C625.108 272.835 626.166 273.187 627.264 273.188V273.188Z" fill="white"/>
<path d="M583.373 293.434H679.94C680.458 293.437 680.972 293.349 681.449 293.176C681.925 293.002 682.355 292.747 682.709 292.426C683.064 292.105 683.337 291.726 683.51 291.311C683.684 290.896 683.754 290.456 683.718 290.017V290.017C683.641 289.095 683.159 288.232 682.366 287.599C681.574 286.965 680.529 286.609 679.441 286.6H582.874C582.355 286.594 581.84 286.68 581.362 286.853C580.884 287.026 580.454 287.281 580.098 287.602C579.743 287.924 579.47 288.304 579.298 288.72C579.125 289.136 579.057 289.577 579.096 290.017V290.017C579.176 290.937 579.66 291.798 580.452 292.431C581.243 293.063 582.286 293.421 583.373 293.434V293.434Z" fill="white"/>
<path d="M589.646 273.188H609.836C610.355 273.191 610.869 273.103 611.345 272.93C611.822 272.757 612.251 272.501 612.606 272.181C612.961 271.86 613.233 271.48 613.407 271.065C613.58 270.651 613.651 270.21 613.614 269.771V269.771C613.53 268.852 613.045 267.993 612.254 267.361C611.463 266.729 610.423 266.37 609.337 266.354H589.165C588.646 266.348 588.131 266.435 587.653 266.607C587.175 266.78 586.744 267.035 586.389 267.356C586.034 267.678 585.761 268.059 585.589 268.474C585.416 268.89 585.348 269.332 585.387 269.771V269.771C585.467 270.689 585.948 271.548 586.736 272.18C587.524 272.812 588.562 273.172 589.646 273.188Z" fill="white"/>
<path d="M485.078 124.271H563.772C568.259 124.328 572.559 125.807 575.827 128.418C579.095 131.028 581.094 134.581 581.431 138.378L584.496 181.531C584.649 183.345 584.357 185.167 583.639 186.88C582.921 188.594 581.792 190.163 580.324 191.489C578.855 192.814 577.08 193.867 575.108 194.581C573.136 195.295 571.012 195.655 568.868 195.638H555.984L563.433 210.455L535.883 195.638H490.228C485.741 195.581 481.441 194.101 478.173 191.491C474.905 188.881 472.906 185.328 472.569 181.531L469.45 138.378C469.298 136.564 469.589 134.742 470.308 133.029C471.026 131.315 472.154 129.746 473.623 128.42C475.091 127.095 476.867 126.042 478.839 125.328C480.81 124.614 482.935 124.254 485.078 124.271V124.271Z" fill="#BB2828"/>
<g opacity="0.5">
<path opacity="0.5" d="M485.078 124.271H563.772C568.259 124.328 572.559 125.807 575.827 128.418C579.095 131.028 581.094 134.581 581.431 138.378L584.496 181.531C584.649 183.345 584.357 185.167 583.639 186.88C582.921 188.594 581.792 190.163 580.324 191.489C578.855 192.814 577.08 193.867 575.108 194.581C573.136 195.295 571.012 195.655 568.868 195.638H555.984L563.433 210.455L535.883 195.638H490.228C485.741 195.581 481.441 194.101 478.173 191.491C474.905 188.881 472.906 185.328 472.569 181.531L469.45 138.378C469.298 136.564 469.589 134.742 470.308 133.029C471.026 131.315 472.154 129.746 473.623 128.42C475.091 127.095 476.867 126.042 478.839 125.328C480.81 124.614 482.935 124.254 485.078 124.271Z" fill="#FAFAFA"/>
</g>
<path d="M529.769 166.188C529.525 167.132 528.948 167.971 528.132 168.572C527.317 169.173 526.308 169.502 525.269 169.505H521.074C521.074 168.394 521.171 167.719 521.187 167.479C521.247 165.316 521.841 163.196 522.922 161.282C524.441 159.149 526.37 157.297 528.612 155.82C530.4 154.611 532.087 153.276 533.659 151.829C534.492 150.908 534.988 149.761 535.073 148.558C535.136 147.76 535.002 146.96 534.682 146.219C534.361 145.477 533.863 144.815 533.225 144.281C531.665 143.034 529.649 142.4 527.599 142.511C525.444 142.456 523.337 143.115 521.653 144.371C520.652 145.143 519.831 146.098 519.242 147.177C518.808 147.966 518.134 148.618 517.305 149.05C516.475 149.482 515.528 149.677 514.581 149.608V149.608C513.899 149.529 513.25 149.292 512.694 148.916C512.137 148.541 511.69 148.041 511.396 147.462C511.101 146.883 510.967 146.244 511.007 145.605C511.047 144.965 511.259 144.344 511.624 143.801C512.593 142.282 513.839 140.931 515.304 139.81C518.787 137.196 523.166 135.848 527.632 136.014C532.887 136.014 536.97 137.289 539.911 139.855C541.288 140.96 542.371 142.348 543.077 143.91C543.782 145.472 544.091 147.166 543.977 148.858C543.829 150.781 543.118 152.629 541.92 154.2C539.662 156.795 537.053 159.105 534.157 161.072C532.657 162.05 531.36 163.275 530.332 164.688C530.07 165.161 529.881 165.666 529.769 166.188V166.188ZM520.592 176.962V176.482C520.676 175.397 521.194 174.382 522.043 173.638C522.891 172.893 524.008 172.473 525.172 172.461H525.751C526.308 172.453 526.861 172.554 527.374 172.756C527.887 172.958 528.349 173.258 528.732 173.636C529.114 174.014 529.408 174.463 529.595 174.952C529.782 175.442 529.858 175.963 529.817 176.482V176.962C529.733 178.048 529.216 179.065 528.368 179.812C527.52 180.559 526.403 180.982 525.237 180.998H524.722C524.159 181.015 523.598 180.92 523.076 180.72C522.554 180.521 522.083 180.221 521.693 179.84C521.303 179.459 521.004 179.006 520.814 178.51C520.625 178.015 520.549 177.487 520.592 176.962V176.962Z" fill="white"/>
</svg>
