<svg width="17" height="23" viewBox="0 0 17 23" fill="none" xmlns="http://www.w3.org/2000/svg">
<g clip-path="url(#clip0_175_669)">
<path fill-rule="evenodd" clip-rule="evenodd" d="M8.50223 0.00262816C8.90168 -0.0142175 9.21646 0.126163 9.53493 0.332055C9.93807 0.592228 10.3928 1.10696 10.9542 1.43264C11.7439 1.89122 13.2055 1.25857 13.9529 2.3891C14.3892 3.04796 14.4094 3.56456 14.4426 4.07555C14.4775 4.62584 14.5733 5.13308 15.1273 5.87804C16.0459 7.11339 16.2374 7.93508 15.7643 8.79047C15.4421 9.37446 14.7629 9.69827 14.6064 10.0689C14.2714 10.855 14.6414 11.4483 14.1848 12.3655C13.8664 13.0019 13.3767 13.4212 12.7232 13.6345C12.1728 13.8142 11.6206 13.5541 11.1788 13.7431C10.4038 14.0744 9.83314 14.8437 9.21646 15.0384C8.979 15.1132 8.74153 15.1507 8.50407 15.1488C8.2666 15.1507 8.02913 15.1132 7.79167 15.0384C7.17499 14.8437 6.60434 14.0744 5.82935 13.7431C5.38755 13.5541 4.83531 13.8161 4.2849 13.6345C3.63141 13.4212 3.14175 13.0019 2.82329 12.3655C2.36492 11.4483 2.73493 10.855 2.40174 10.0689C2.24527 9.69827 1.56601 9.37446 1.24386 8.79047C0.767088 7.93508 0.958533 7.11339 1.8771 5.87991C2.43119 5.13495 2.52691 4.62771 2.56189 4.07742C2.59502 3.56643 2.61527 3.04983 3.05155 2.39097C3.80076 1.26044 5.26238 1.89309 6.05025 1.43451C6.6117 1.10883 7.06638 0.5941 7.46952 0.333927C7.78615 0.126163 8.10277 -0.0160893 8.50223 0.00262816ZM8.50223 4.86168L9.32323 6.90188L11.4862 7.06472L9.8313 8.48912L10.3467 10.6304L8.50223 9.46991L6.65772 10.6304L7.17315 8.48912L5.51825 7.06472L7.68122 6.90188L8.50223 4.86168ZM16.3773 21.1646L14.2511 20.7771L13.1963 22.6975C12.4305 23.6615 11.9446 22.0761 11.731 21.524L9.67851 17.5877C10.1516 17.4211 10.7223 16.94 11.3076 16.3991C12.4766 16.4234 13.5663 16.2176 14.3671 15.1806L16.7252 19.8132L16.9295 20.2587C17.0915 20.837 17.0068 21.2189 16.3773 21.1646ZM0.625345 21.1646L2.75334 20.7771L3.80813 22.6975C4.57391 23.6615 5.05989 22.0761 5.27342 21.524L7.32594 17.5877C6.85285 17.4211 6.28219 16.94 5.69681 16.3991C4.52789 16.4234 3.43812 16.2176 2.63736 15.1806L0.277429 19.8132L0.0730978 20.2587C-0.0888946 20.837 -0.00421673 21.2189 0.625345 21.1646ZM8.48014 3.01427C11.0205 3.01427 13.0804 5.10875 13.0804 7.69176C13.0804 10.2748 11.0205 12.3692 8.48014 12.3692C5.9398 12.3692 3.87992 10.2748 3.87992 7.69176C3.88176 5.10875 5.9398 3.01427 8.48014 3.01427Z" fill="white"/>
</g>
<defs>
<clipPath id="clip0_175_669">
<rect width="17" height="23" fill="white"/>
</clipPath>
</defs>
</svg>
