<svg width="36" height="42" viewBox="0 0 36 42" fill="none" xmlns="http://www.w3.org/2000/svg">
<path d="M12.8155 41.9916L9.29983 36.471L4.13806 40.6214L9.44873 9.48145L18.1261 10.8516L12.8155 41.9916Z" fill="#B75742"/>
<path d="M28.852 40.6061L23.6819 36.4717L20.1828 42.0002L14.7977 10.8682L23.4668 9.47412L28.852 40.6061Z" fill="#B75742"/>
<path d="M36 16.6527C36 18.453 34.3539 19.9746 33.8079 21.5997C33.2371 23.2806 33.6259 25.4474 32.5671 26.8494C31.5 28.2674 29.2335 28.5781 27.7693 29.6057C26.3134 30.6254 25.3125 32.609 23.5671 33.1507C21.8796 33.6765 19.8695 32.6648 18 32.6648C16.1305 32.6648 14.1204 33.6844 12.4329 33.1507C10.6875 32.601 9.67831 30.6254 8.2307 29.6057C6.75827 28.5781 4.5 28.2594 3.4329 26.8494C2.37408 25.4474 2.7546 23.2885 2.1921 21.5997C1.64614 19.9746 0 18.453 0 16.6527C0 14.8523 1.64614 13.3307 2.1921 11.7056C2.76287 10.0247 2.37408 7.85794 3.4329 6.45588C4.5 5.03789 6.76654 4.7272 8.2307 3.69956C9.68658 2.67988 10.6875 0.69629 12.4329 0.154586C14.1204 -0.371185 16.1305 0.640534 18 0.640534C19.8695 0.640534 21.8796 -0.379151 23.5671 0.154586C25.3125 0.704256 26.3217 2.67988 27.7693 3.69956C29.2417 4.7272 31.5 5.04586 32.5671 6.45588C33.6259 7.85794 33.2454 10.0168 33.8079 11.7056C34.3539 13.3228 36 14.8523 36 16.6527Z" fill="#B1B1B1"/>
<path d="M22.4776 32.0434C21.9151 32.0434 21.2533 31.9 20.5585 31.7566C19.7313 31.5814 18.8875 31.4061 17.9941 31.4061C17.1007 31.4061 16.2487 31.5893 15.4298 31.7566C14.7349 31.908 14.0732 32.0434 13.5107 32.0434C13.2542 32.0434 13.0309 32.0115 12.8324 31.9558C12.1127 31.7327 11.4675 31.0237 10.7809 30.2749C10.2432 29.6854 9.68072 29.072 8.99414 28.5861C8.29929 28.1001 7.51343 27.7655 6.7524 27.4549C5.80939 27.0565 4.91601 26.6901 4.47759 26.1086C4.04744 25.543 3.95645 24.6109 3.85718 23.6311C3.77446 22.8344 3.69175 22.0139 3.42704 21.2173C3.17061 20.4525 2.74046 19.7595 2.32685 19.0903C1.79744 18.23 1.29285 17.4094 1.29285 16.6606C1.29285 15.9118 1.79744 15.0913 2.32685 14.2309C2.74046 13.5618 3.16234 12.8687 3.42704 12.1039C3.70002 11.3073 3.78274 10.4868 3.85718 9.69017C3.95645 8.71032 4.05571 7.77827 4.47759 7.21267C4.91601 6.63114 5.80939 6.26469 6.7524 5.86638C7.51343 5.54773 8.29929 5.22111 8.99414 4.73517C9.68072 4.24923 10.2432 3.6438 10.7809 3.04633C11.4675 2.29751 12.1127 1.58851 12.8324 1.36546C13.0226 1.30173 13.246 1.27783 13.5107 1.27783C14.0732 1.27783 14.7349 1.41326 15.4298 1.56461C16.257 1.73987 17.1007 1.91513 17.9941 1.91513C18.8875 1.91513 19.7395 1.73191 20.5585 1.56461C21.2533 1.41326 21.9151 1.27783 22.4776 1.27783C22.734 1.27783 22.9574 1.3097 23.1559 1.36546C23.8756 1.58851 24.5208 2.29751 25.2074 3.04633C25.7451 3.63583 26.3076 4.24923 26.9941 4.73517C27.689 5.22111 28.4748 5.5557 29.2359 5.86638C30.1789 6.26469 31.0723 6.63114 31.5107 7.21267C31.9408 7.77827 32.0318 8.71032 32.1311 9.69017C32.2138 10.4868 32.2965 11.3073 32.5612 12.1039C32.8177 12.8687 33.2478 13.5618 33.6614 14.2309C34.1908 15.0913 34.6954 15.9118 34.6954 16.6606C34.6954 17.4174 34.1908 18.23 33.6614 19.0903C33.2478 19.7595 32.8259 20.4525 32.5612 21.2173C32.2965 22.0139 32.2055 22.8344 32.1311 23.6311C32.0318 24.6109 31.9326 25.543 31.5107 26.1086C31.0723 26.6901 30.1789 27.0565 29.2359 27.4549C28.4748 27.7735 27.689 28.1001 26.9941 28.5861C26.3076 29.072 25.7451 29.6774 25.2074 30.2749C24.5208 31.0237 23.8756 31.7327 23.1559 31.9558C22.9574 32.0115 22.7423 32.0434 22.4776 32.0434Z" fill="#F0F0F0"/>
<path d="M30.9944 18.3948C31.998 11.484 26.9941 5.09821 19.8179 4.13178C12.6418 3.16536 6.01088 7.98424 5.00736 14.8951C4.00383 21.8059 9.00772 28.1916 16.1839 29.1581C23.36 30.1245 29.9909 25.3056 30.9944 18.3948Z" fill="#B1B1B1"/>
<path d="M17.9952 28.6567C24.8799 28.6567 30.4612 23.2818 30.4612 16.6516C30.4612 10.0214 24.8799 4.64648 17.9952 4.64648C11.1104 4.64648 5.52917 10.0214 5.52917 16.6516C5.52917 23.2818 11.1104 28.6567 17.9952 28.6567Z" fill="white"/>
<path d="M29.2325 17.7253C29.8467 11.7449 25.3105 6.41721 19.1005 5.82565C12.8904 5.23409 7.35822 9.60263 6.74395 15.5831C6.12968 21.5635 10.6659 26.8912 16.876 27.4827C23.086 28.0743 28.6182 23.7058 29.2325 17.7253Z" fill="#F0F0F0"/>
</svg>
