<svg width="45" height="39" viewBox="0 0 45 39" fill="none" xmlns="http://www.w3.org/2000/svg">
<g clip-path="url(#clip0_175_879)">
<path d="M9.89168 36.1244L12.6095 34.2106L15.7032 35.5701L14.5466 32.6293L16.9242 30.3732L13.4939 30.471L11.8682 27.716L10.905 30.7188L7.52124 31.273L10.3608 33.0336L9.89168 36.1244ZM22.4958 39L23.7957 36.1048L27.2188 35.8733L24.6013 33.8519L25.4213 30.8133L22.4994 32.4598L19.5776 30.8133L20.3975 33.8519L17.7729 35.8733L21.196 36.1048L22.4958 39ZM12.3731 17.1069C13.963 16.5657 15.9932 15.8745 17.4542 15.0497C19.13 16.4646 20.2185 18.0752 20.3044 20.0314H24.7016C24.7875 18.0752 25.8761 16.4646 27.5518 15.0497C29.0128 15.8745 31.0431 16.5624 32.6329 17.1069C37.3165 18.7012 35.0284 21.6127 32.2963 24.0645C29.7898 26.3108 26.3272 27.6997 22.4994 27.6997C18.6716 27.6997 15.2126 26.3141 12.7026 24.0645C10.0098 21.6486 7.65731 18.711 12.3731 17.1069ZM19.0512 13.0609C19.1228 12.5262 17.3897 10.5015 17.0746 9.52667C16.3943 8.54857 16.1544 6.98362 16.8956 5.94683C17.1928 5.53603 17.0639 4.7992 17.0639 4.23516C17.0639 -1.40846 27.9242 -1.41498 27.9242 4.23516C27.9242 4.94917 27.7452 5.49365 28.1713 6.05442C28.8839 6.9934 28.5151 8.65942 27.9135 9.53319C27.5304 10.5537 25.7113 12.487 25.8403 13.0674C25.9477 15.9593 19.0261 15.8647 19.0512 13.0609ZM44.4958 27.566L42.394 25.0947L43.8871 22.2778L40.6537 23.3341L38.1759 21.1693L38.2833 24.2927L35.2576 25.7729L38.5554 26.6466L39.1641 29.7276L41.0942 27.1422L44.4958 27.566ZM35.1 36.1244L34.6381 33.0238L37.4776 31.2633L34.0974 30.7057L33.1378 27.703L31.5121 30.4579L28.0782 30.3601L30.4558 32.6163L29.2885 35.5636L32.3822 34.2041L35.1 36.1244ZM0.49585 27.5628L3.90112 27.1422L5.83472 29.7276L6.44702 26.6499L9.74487 25.7761L6.71916 24.2959L6.82658 21.1725L4.34513 23.3374L1.10457 22.2778L2.59774 25.0947L0.49585 27.5628Z" fill="#FF9F1C" fill-opacity="0.7"/>
</g>
<defs>
<clipPath id="clip0_175_879">
<rect width="44" height="39" fill="white" transform="translate(0.49585)"/>
</clipPath>
</defs>
</svg>
