<svg width="280" height="280" viewBox="0 0 280 280" fill="none" xmlns="http://www.w3.org/2000/svg">
<circle cx="140" cy="140" r="140" fill="#FF9F1C" fill-opacity="0.29"/>
<g clip-path="url(#clip0_300_6)">
<path d="M72.1454 197.059C73.8623 197.059 75.2542 195.667 75.2542 193.95C75.2542 192.233 73.8623 190.841 72.1454 190.841C70.4285 190.841 69.0366 192.233 69.0366 193.95C69.0366 195.667 70.4285 197.059 72.1454 197.059Z" fill="#097ACE"/>
<path d="M72.1447 190.846C73.8622 190.845 75.2534 192.235 75.2515 193.954C75.2534 195.668 73.8621 197.059 72.1447 197.061" fill="#097ACE"/>
<path d="M70.352 192.472C70.9192 192.474 70.6763 193.193 70.6763 194.081C70.6763 194.968 70.9182 195.688 70.352 195.689C69.7857 195.689 69.3245 194.97 69.3264 194.082C69.3264 193.192 69.7848 192.472 70.352 192.472Z" fill="#097ACE"/>
<path d="M70.6802 192.185C70.7879 192.185 70.8751 192.098 70.8751 191.99C70.8751 191.883 70.7879 191.795 70.6802 191.795C70.5725 191.795 70.4852 191.883 70.4852 191.99C70.4852 192.098 70.5725 192.185 70.6802 192.185Z" fill="#097ACE"/>
<path d="M91.4167 194.795C91.1729 195.039 90.8383 195.188 90.468 195.188L73.8311 195.189C73.0895 195.188 72.4905 194.589 72.4905 193.848C72.4905 193.109 73.0895 192.508 73.8311 192.508H90.468C91.2077 192.506 91.8086 193.109 91.8086 193.847C91.8085 194.219 91.6585 194.553 91.4167 194.795Z" fill="#CCC2B2"/>
<path d="M86.089 180.25C88.2476 180.25 89.9974 178.501 89.9974 176.342C89.9974 174.183 88.2476 172.434 86.089 172.434C83.9304 172.434 82.1805 174.183 82.1805 176.342C82.1805 178.501 83.9304 180.25 86.089 180.25Z" fill="#097ACE"/>
<path d="M86.088 172.433C88.2489 172.433 89.9974 174.182 89.9974 176.341C89.9974 178.502 88.2471 180.25 86.088 180.25" fill="#097ACE"/>
<path d="M83.8343 174.48C84.5487 174.482 84.243 175.387 84.243 176.503C84.243 177.62 84.5487 178.524 83.8343 178.524C83.12 178.524 82.5433 177.619 82.5433 176.502C82.5433 175.385 83.1219 174.482 83.8343 174.48Z" fill="#097ACE"/>
<path d="M84.2458 174.122C84.3804 174.122 84.4896 174.013 84.4896 173.878C84.4896 173.743 84.3804 173.634 84.2458 173.634C84.1112 173.634 84.0021 173.743 84.0021 173.878C84.0021 174.013 84.1112 174.122 84.2458 174.122Z" fill="#097ACE"/>
<path d="M87.2561 196.876C87.0124 197.119 86.6777 197.268 86.3074 197.268C85.5677 197.268 84.9668 196.669 84.9668 195.929V179.29C84.9668 178.551 85.5658 177.95 86.3093 177.95C87.0471 177.95 87.648 178.551 87.648 179.29V195.929C87.6479 196.297 87.498 196.634 87.2561 196.876Z" fill="#CCC2B2"/>
<path d="M86.0093 199.087C89.0625 199.087 91.5377 196.611 91.5377 193.558C91.5377 190.505 89.0625 188.03 86.0093 188.03C82.956 188.03 80.4808 190.505 80.4808 193.558C80.4808 196.611 82.956 199.087 86.0093 199.087Z" fill="#EA5807"/>
<path d="M86.0092 188.03C89.0635 188.032 91.5385 190.505 91.5385 193.559C91.5366 196.612 89.0607 199.087 86.0111 199.087" fill="#EA5807"/>
<path d="M82.8218 190.925C83.8306 190.925 83.3965 192.205 83.3965 193.786C83.3984 195.365 83.8287 196.645 82.82 196.647C81.815 196.645 80.9965 195.365 80.9948 193.786C80.9946 192.206 81.813 190.925 82.8218 190.925Z" fill="#EA5807"/>
<path d="M83.4048 190.415C83.5959 190.415 83.7508 190.26 83.7508 190.069C83.7508 189.878 83.5959 189.723 83.4048 189.723C83.2137 189.723 83.0588 189.878 83.0588 190.069C83.0588 190.26 83.2137 190.415 83.4048 190.415Z" fill="#EA5807"/>
<path d="M108.711 194.795C108.467 195.039 108.132 195.187 107.762 195.188L91.1252 195.189C90.3855 195.189 89.7845 194.589 89.7845 193.848C89.7845 193.109 90.3855 192.508 91.1252 192.508H107.762C108.504 192.508 109.103 193.107 109.103 193.848C109.103 194.219 108.953 194.554 108.711 194.795Z" fill="#CCC2B2"/>
<path d="M110.413 202.493C115.348 202.493 119.348 198.493 119.348 193.558C119.348 188.624 115.348 184.624 110.413 184.624C105.479 184.624 101.479 188.624 101.479 193.558C101.479 198.493 105.479 202.493 110.413 202.493Z" fill="#097ACE"/>
<path d="M110.412 184.624C115.349 184.625 119.348 188.625 119.348 193.558C119.348 198.491 115.346 202.492 110.412 202.493" fill="#097ACE"/>
<path d="M105.261 189.304C106.89 189.305 106.189 191.374 106.189 193.927C106.189 196.479 106.888 198.549 105.259 198.548C103.629 198.55 102.307 196.479 102.307 193.927C102.307 191.374 103.629 189.304 105.261 189.304Z" fill="#097ACE"/>
<path d="M106.596 187.53C106.813 187.747 106.813 188.1 106.594 188.319C106.378 188.536 106.025 188.537 105.806 188.319C105.587 188.1 105.589 187.748 105.806 187.53C106.024 187.312 106.376 187.312 106.596 187.53Z" fill="#097ACE"/>
<path d="M77.3692 226.932C78.457 226.932 79.3388 226.05 79.3388 224.962C79.3388 223.875 78.457 222.993 77.3692 222.993C76.2814 222.993 75.3995 223.875 75.3995 224.962C75.3995 226.05 76.2814 226.932 77.3692 226.932Z" fill="#097ACE"/>
<path d="M75.9752 223.566C76.744 222.796 77.9908 222.796 78.7605 223.566C79.5292 224.333 79.5292 225.58 78.7605 226.352" fill="#097ACE"/>
<path d="M75.902 225.098C76.1551 224.844 76.3689 225.274 76.7664 225.673C77.1639 226.071 77.5961 226.284 77.3429 226.538C77.0888 226.792 76.5592 226.676 76.1617 226.278C75.7633 225.879 75.648 225.353 75.902 225.098Z" fill="#097ACE"/>
<path d="M75.8327 224.86C75.9005 224.86 75.9555 224.805 75.9555 224.738C75.9555 224.67 75.9005 224.615 75.8327 224.615C75.7648 224.615 75.7098 224.67 75.7098 224.738C75.7098 224.805 75.7648 224.86 75.8327 224.86Z" fill="#097ACE"/>
<path d="M86.3796 216.701C86.3796 216.918 86.2952 217.136 86.1302 217.302L78.678 224.757C78.3433 225.088 77.808 225.088 77.4771 224.757C77.1443 224.425 77.1443 223.886 77.4771 223.555L84.9294 216.101C85.2612 215.769 85.7994 215.769 86.1302 216.101C86.2952 216.266 86.3796 216.483 86.3796 216.701Z" fill="#CCC2B2"/>
<path d="M75.7249 213.293C77.0929 213.293 78.2018 212.184 78.2018 210.816C78.2018 209.448 77.0929 208.339 75.7249 208.339C74.357 208.339 73.248 209.448 73.248 210.816C73.248 212.184 74.357 213.293 75.7249 213.293Z" fill="#097ACE"/>
<path d="M73.9735 209.069C74.9382 208.102 76.5075 208.102 77.476 209.069C78.4425 210.036 78.4425 211.604 77.476 212.572" fill="#097ACE"/>
<path d="M73.8808 210.996C74.2015 210.676 74.4687 211.219 74.9702 211.719C75.4681 212.219 76.0117 212.488 75.693 212.807C75.3724 213.127 74.7076 212.98 74.208 212.48C73.7082 211.98 73.5602 211.315 73.8808 210.996Z" fill="#097ACE"/>
<path d="M73.7964 210.696C73.8819 210.696 73.9512 210.626 73.9512 210.541C73.9512 210.456 73.8819 210.386 73.7964 210.386C73.711 210.386 73.6417 210.456 73.6417 210.541C73.6417 210.626 73.711 210.696 73.7964 210.696Z" fill="#097ACE"/>
<path d="M85.4476 219.497C85.4476 219.713 85.3651 219.932 85.1982 220.099C84.8664 220.43 84.3282 220.43 83.9973 220.099L76.5451 212.644C76.2123 212.312 76.2123 211.775 76.5451 211.444C76.8752 211.112 77.4132 211.112 77.7442 211.444L85.1982 218.899C85.3651 219.063 85.4476 219.279 85.4476 219.497Z" fill="#CCC2B2"/>
<path d="M83.402 222.071C85.3364 222.071 86.9045 220.503 86.9045 218.569C86.9045 216.635 85.3364 215.066 83.402 215.066C81.4676 215.066 79.8995 216.635 79.8995 218.569C79.8995 220.503 81.4676 222.071 83.402 222.071Z" fill="#EA5807"/>
<path d="M80.926 216.092C82.2938 214.724 84.511 214.724 85.8789 216.092C87.2466 217.46 87.2485 219.678 85.8789 221.046" fill="#EA5807"/>
<path d="M80.795 218.818C81.2469 218.366 81.6266 219.133 82.3353 219.842C83.0422 220.549 83.8091 220.928 83.3591 221.381C82.9072 221.832 81.9679 221.626 81.2592 220.918C80.5513 220.209 80.3421 219.27 80.795 218.818Z" fill="#EA5807"/>
<path d="M80.6777 218.394C80.7989 218.394 80.8971 218.296 80.8971 218.175C80.8971 218.054 80.7989 217.956 80.6777 217.956C80.5566 217.956 80.4584 218.054 80.4584 218.175C80.4584 218.296 80.5566 218.394 80.6777 218.394Z" fill="#EA5807"/>
<path d="M94.127 208.953C94.127 209.169 94.0446 209.387 93.8796 209.554L86.4256 217.009C86.0938 217.341 85.5556 217.341 85.2247 217.009C84.8929 216.677 84.8929 216.139 85.2247 215.808L92.6787 208.354C93.0115 208.022 93.5487 208.022 93.8796 208.354C94.0446 208.519 94.127 208.735 94.127 208.953Z" fill="#CCC2B2"/>
<path d="M94.337 213.298C97.4643 213.298 99.9995 210.763 99.9995 207.636C99.9995 204.508 97.4643 201.973 94.337 201.973C91.2096 201.973 88.6744 204.508 88.6744 207.636C88.6744 210.763 91.2096 213.298 94.337 213.298Z" fill="#097ACE"/>
<path d="M90.333 203.632C92.5446 201.423 96.1286 201.423 98.3402 203.632C100.548 205.843 100.55 209.428 98.3402 211.639" fill="#097ACE"/>
<path d="M90.1221 208.037C90.8524 207.309 91.4665 208.549 92.6084 209.693C93.7502 210.836 94.9924 211.45 94.2621 212.18C93.5337 212.91 92.014 212.575 90.8693 211.432C89.7264 210.288 89.39 208.769 90.1221 208.037Z" fill="#097ACE"/>
<path d="M89.9243 207.353C90.1195 207.353 90.2778 207.195 90.2778 207C90.2778 206.805 90.1195 206.646 89.9243 206.646C89.7291 206.646 89.5708 206.805 89.5708 207C89.5708 207.195 89.7291 207.353 89.9243 207.353Z" fill="#097ACE"/>
<path d="M123.07 223.34C123.07 225.914 120.983 228 118.412 228H116.954C114.38 228 112.294 225.914 112.294 223.34V170.621C112.294 168.049 114.38 168 116.954 168H118.412C120.983 168 123.07 168.049 123.07 170.621V223.34Z" fill="#ABD3DD"/>
<path d="M116.954 168H118.412C120.983 168 123.07 168.049 123.07 170.621V223.34C123.07 225.914 120.983 228 118.412 228H116.954" fill="#8DC6D3"/>
<path d="M112.294 193.624V223.34C112.294 225.914 114.38 228 116.954 228H118.412C120.983 228 123.07 225.914 123.07 223.34V193.624H112.294Z" fill="#097ACE"/>
<path d="M112.294 223.34C112.294 225.914 114.38 228 116.954 228H118.412C120.983 228 123.07 225.914 123.07 223.34V195.733H112.294V223.34Z" fill="#097ACE"/>
<path d="M116.954 228H118.412C120.983 228 123.07 225.914 123.07 223.34V195.733H116.955V228H116.954Z" fill="#097ACE"/>
<path d="M122.576 180.729L123.07 180.235V170.621C123.07 168.049 120.982 168 118.411 168H116.953C114.437 168 112.403 168.063 112.31 170.467L122.576 180.729Z" fill="#8DC6D3"/>
<path d="M124.963 169.164C124.963 169.808 124.443 170.33 123.799 170.33H111.565C110.922 170.33 110.401 169.808 110.401 169.164C110.401 168.522 110.923 168 111.565 168H123.799C124.443 168 124.963 168.523 124.963 169.164Z" fill="#C4E3E8"/>
<path d="M124.963 169.164C124.963 169.808 124.443 170.329 123.799 170.329H111.565C110.922 170.329 110.401 169.807 110.401 169.164" fill="#ABD3DD"/>
<path d="M118.166 175.403C118.166 175.566 118.038 175.696 117.877 175.696H113.994C113.831 175.696 113.702 175.566 113.702 175.403C113.702 175.242 113.832 175.113 113.994 175.113H117.877C118.038 175.114 118.166 175.243 118.166 175.403Z" fill="#C4E3E8"/>
<path d="M115.838 177.635C115.838 177.798 115.708 177.927 115.549 177.927H113.996C113.833 177.927 113.704 177.798 113.704 177.635C113.704 177.474 113.834 177.345 113.996 177.345H115.549C115.708 177.346 115.838 177.474 115.838 177.635Z" fill="#C4E3E8"/>
<path d="M118.166 179.773C118.166 179.935 118.038 180.065 117.877 180.065H113.994C113.831 180.065 113.702 179.935 113.702 179.773C113.702 179.611 113.832 179.481 113.994 179.481H117.877C118.038 179.482 118.166 179.611 118.166 179.773Z" fill="#C4E3E8"/>
<path d="M115.838 182.005C115.838 182.167 115.708 182.297 115.549 182.297H113.996C113.833 182.297 113.704 182.166 113.704 182.005C113.704 181.843 113.834 181.714 113.996 181.714H115.549C115.708 181.715 115.838 181.844 115.838 182.005Z" fill="#C4E3E8"/>
<path d="M118.166 184.142C118.166 184.303 118.038 184.435 117.877 184.435H113.994C113.831 184.435 113.702 184.302 113.702 184.142C113.702 183.981 113.832 183.851 113.994 183.851H117.877C118.038 183.851 118.166 183.981 118.166 184.142Z" fill="#C4E3E8"/>
<path d="M115.838 186.374C115.838 186.538 115.708 186.666 115.549 186.666H113.996C113.833 186.666 113.704 186.538 113.704 186.374C113.704 186.213 113.834 186.085 113.996 186.085H115.549C115.708 186.085 115.838 186.213 115.838 186.374Z" fill="#C4E3E8"/>
<path d="M118.166 188.51C118.166 188.674 118.038 188.802 117.877 188.802H113.994C113.831 188.802 113.702 188.674 113.702 188.51C113.702 188.349 113.832 188.22 113.994 188.22H117.877C118.038 188.22 118.166 188.349 118.166 188.51Z" fill="#C4E3E8"/>
<path d="M115.838 190.743C115.838 190.904 115.708 191.035 115.549 191.035H113.996C113.833 191.035 113.704 190.903 113.704 190.743C113.704 190.581 113.834 190.451 113.996 190.451H115.549C115.708 190.451 115.838 190.581 115.838 190.743Z" fill="#C4E3E8"/>
<path d="M118.166 192.879C118.166 193.042 118.038 193.172 117.877 193.172H113.994C113.831 193.172 113.702 193.041 113.702 192.879C113.702 192.718 113.832 192.588 113.994 192.588H117.877C118.038 192.589 118.166 192.718 118.166 192.879Z" fill="#C4E3E8"/>
<path d="M115.838 195.111C115.838 195.273 115.708 195.404 115.549 195.404H113.996C113.833 195.404 113.704 195.272 113.704 195.111C113.704 194.953 113.834 194.821 113.996 194.821H115.549C115.708 194.821 115.838 194.953 115.838 195.111Z" fill="#C4E3E8"/>
<path d="M118.166 197.25C118.166 197.41 118.038 197.542 117.877 197.542H113.994C113.831 197.542 113.702 197.41 113.702 197.25C113.702 197.088 113.832 196.958 113.994 196.958H117.877C118.038 196.958 118.166 197.088 118.166 197.25Z" fill="#C4E3E8"/>
<path d="M115.838 199.48C115.838 199.642 115.708 199.773 115.549 199.773H113.996C113.833 199.773 113.704 199.641 113.704 199.48C113.704 199.319 113.834 199.189 113.996 199.189H115.549C115.708 199.19 115.838 199.319 115.838 199.48Z" fill="#C4E3E8"/>
<path d="M118.166 201.617C118.166 201.779 118.038 201.909 117.877 201.909H113.994C113.831 201.909 113.702 201.779 113.702 201.617C113.702 201.455 113.832 201.325 113.994 201.325H117.877C118.038 201.326 118.166 201.456 118.166 201.617Z" fill="#C4E3E8"/>
<path d="M115.838 203.851C115.838 204.012 115.708 204.143 115.549 204.143H113.996C113.833 204.143 113.704 204.012 113.704 203.851C113.704 203.689 113.834 203.559 113.996 203.559H115.549C115.708 203.56 115.838 203.689 115.838 203.851Z" fill="#C4E3E8"/>
<path d="M118.166 205.987C118.166 206.15 118.038 206.279 117.877 206.279H113.994C113.831 206.279 113.702 206.15 113.702 205.987C113.702 205.826 113.832 205.696 113.994 205.696H117.877C118.038 205.696 118.166 205.826 118.166 205.987Z" fill="#C4E3E8"/>
<path d="M115.838 208.218C115.838 208.38 115.708 208.51 115.549 208.51H113.996C113.833 208.51 113.704 208.38 113.704 208.218C113.704 208.056 113.834 207.926 113.996 207.926H115.549C115.708 207.927 115.838 208.057 115.838 208.218Z" fill="#C4E3E8"/>
<path d="M118.166 210.356C118.166 210.517 118.038 210.648 117.877 210.648H113.994C113.831 210.648 113.702 210.517 113.702 210.356C113.702 210.195 113.832 210.064 113.994 210.064H117.877C118.038 210.064 118.166 210.195 118.166 210.356Z" fill="#C4E3E8"/>
<path d="M115.838 212.588C115.838 212.751 115.708 212.88 115.549 212.88H113.996C113.833 212.88 113.704 212.751 113.704 212.588C113.704 212.427 113.834 212.297 113.996 212.297H115.549C115.708 212.297 115.838 212.427 115.838 212.588Z" fill="#C4E3E8"/>
<path d="M118.166 214.725C118.166 214.886 118.038 215.018 117.877 215.018H113.994C113.831 215.018 113.702 214.886 113.702 214.725C113.702 214.564 113.832 214.433 113.994 214.433H117.877C118.038 214.433 118.166 214.564 118.166 214.725Z" fill="#C4E3E8"/>
<path d="M115.838 216.957C115.838 217.119 115.708 217.249 115.549 217.249H113.996C113.833 217.249 113.704 217.119 113.704 216.957C113.704 216.796 113.834 216.666 113.996 216.666H115.549C115.708 216.666 115.838 216.796 115.838 216.957Z" fill="#C4E3E8"/>
<path d="M118.166 219.094C118.166 219.255 118.038 219.384 117.877 219.384H113.994C113.831 219.384 113.702 219.255 113.702 219.094C113.702 218.932 113.832 218.802 113.994 218.802H117.877C118.038 218.802 118.166 218.932 118.166 219.094Z" fill="#C4E3E8"/>
<path d="M115.838 221.326C115.838 221.487 115.708 221.618 115.549 221.618H113.996C113.833 221.618 113.704 221.487 113.704 221.326C113.704 221.164 113.834 221.033 113.996 221.033H115.549C115.708 221.033 115.838 221.164 115.838 221.326Z" fill="#C4E3E8"/>
</g>
<defs>
<clipPath id="clip0_300_6">
<rect width="60" height="60" fill="white" transform="translate(67 168)"/>
</clipPath>
</defs>
</svg>
