<svg width="230" height="280" viewBox="0 0 230 280" fill="none" xmlns="http://www.w3.org/2000/svg">
<circle cx="140" cy="140" r="140" fill="#FF9F1C" fill-opacity="0.29"/>
<path d="M76.4177 207.713C76.0001 207.389 75.3986 207.464 75.0742 207.881L73.8086 209.508V182.904H71.8937V209.508L70.628 207.881C70.3034 207.464 69.7019 207.389 69.2846 207.713C68.8671 208.038 68.792 208.639 69.1167 209.057L72.0958 212.887C72.0975 212.889 72.0997 212.891 72.1015 212.893C72.1203 212.917 72.1402 212.94 72.1611 212.961C72.164 212.964 72.1667 212.968 72.1698 212.971C72.1943 212.996 72.2202 213.019 72.2474 213.042C72.2506 213.044 72.2539 213.046 72.2571 213.049C72.2806 213.067 72.305 213.085 72.3303 213.102C72.3375 213.106 72.3449 213.11 72.3523 213.115C72.3743 213.128 72.3968 213.141 72.4199 213.153C72.4283 213.157 72.4367 213.161 72.4453 213.165C72.4681 213.176 72.4915 213.186 72.5154 213.195C72.5242 213.198 72.533 213.201 72.5418 213.204C72.5661 213.213 72.5908 213.22 72.6158 213.226C72.6246 213.228 72.6333 213.231 72.6423 213.233C72.6684 213.239 72.6951 213.243 72.722 213.247C72.7301 213.248 72.7379 213.249 72.7459 213.25C72.7805 213.254 72.8156 213.256 72.8512 213.256C72.8881 213.256 72.9223 213.254 72.9563 213.25C72.9658 213.249 72.9751 213.247 72.9845 213.246C73.0098 213.243 73.0347 213.239 73.0593 213.233C73.0698 213.231 73.0801 213.228 73.0905 213.225C73.1136 213.219 73.1366 213.212 73.1589 213.205C73.1696 213.201 73.1801 213.197 73.1907 213.193C73.2123 213.185 73.2335 213.176 73.2544 213.167C73.265 213.162 73.2755 213.157 73.2859 213.151C73.3062 213.141 73.3259 213.13 73.3453 213.118C73.3552 213.112 73.3653 213.106 73.3752 213.1C73.3956 213.086 73.4151 213.072 73.4344 213.057C73.4421 213.051 73.4502 213.046 73.4578 213.04C73.4833 213.019 73.5077 212.997 73.5309 212.973C73.5387 212.965 73.5457 212.957 73.5534 212.949C73.5689 212.932 73.5843 212.915 73.5986 212.897C73.6014 212.893 73.6047 212.89 73.6075 212.887L76.5861 209.057C76.9103 208.639 76.8351 208.038 76.4177 207.713Z" fill="#FF9356"/>
<path d="M110.192 169.5V202.724C110.192 203.253 110.62 203.682 111.149 203.682C111.678 203.682 112.106 203.253 112.106 202.724V169.5H110.192Z" fill="#FF9356"/>
<path d="M92.9574 182.904H91.0425V202.724H92.9574V182.904Z" fill="#FF9356"/>
<path d="M82.4255 193.436C88.2421 193.436 92.9574 188.721 92.9574 182.904C92.9574 177.088 88.2421 172.373 82.4255 172.373C76.6089 172.373 71.8936 177.088 71.8936 182.904C71.8936 188.721 76.6089 193.436 82.4255 193.436Z" fill="#097ACE"/>
<path d="M83.3829 169.5H81.468V178.436H83.3829V169.5Z" fill="#FF9356"/>
<path d="M101.574 213.256C107.391 213.256 112.106 208.541 112.106 202.724C112.106 196.908 107.391 192.192 101.574 192.192C95.7578 192.192 91.0425 196.908 91.0425 202.724C91.0425 208.541 95.7578 213.256 101.574 213.256Z" fill="#097ACE"/>
<path d="M121.043 170.33H62.9574C62.4286 170.33 62 169.901 62 169.372C62 168.844 62.4286 168.415 62.9574 168.415H121.043C121.571 168.415 122 168.844 122 169.372C122 169.901 121.571 170.33 121.043 170.33Z" fill="#EA5807"/>
<path d="M107.957 227.585H95.1915L96.4681 216.129H106.681L107.957 227.585Z" fill="#FF9356"/>
<path d="M82.4256 188.649C79.258 188.649 76.6809 186.072 76.6809 182.904C76.6809 179.737 79.258 177.16 82.4256 177.16C85.5932 177.16 88.1703 179.737 88.1703 182.904C88.1703 186.072 85.5932 188.649 82.4256 188.649Z" fill="#8DC6D3"/>
<path d="M100.617 207.192V217.405C100.617 217.934 101.046 218.363 101.575 218.363C102.103 218.363 102.532 217.934 102.532 217.405V207.192H100.617Z" fill="#FF9356"/>
<path d="M101.574 208.469C98.4068 208.469 95.8297 205.892 95.8297 202.724C95.8297 199.557 98.4068 196.979 101.574 196.979C104.742 196.979 107.319 199.557 107.319 202.724C107.319 205.892 104.742 208.469 101.574 208.469Z" fill="#8DC6D3"/>
</svg>
