<svg width="45" height="34" viewBox="0 0 45 34" fill="none" xmlns="http://www.w3.org/2000/svg">
<g clip-path="url(#clip0_175_869)">
<path fill-rule="evenodd" clip-rule="evenodd" d="M37.8321 27.3222L37.6387 18.0461L25.876 22.4498C24.8161 22.7514 23.7705 22.8953 22.7464 22.8999C21.6472 22.9045 20.5658 22.7514 19.5023 22.4498L8.26597 17.9997V27.4057C8.58823 32.292 19.4056 33.7862 22.725 33.9904C25.3854 34.1574 35.8949 32.357 37.277 29.5495C37.5742 28.937 37.7604 28.1946 37.8321 27.3222ZM42.598 11.3686V22.705H42.8737C43.0635 22.705 43.2175 22.9045 43.2175 23.1505V26.1992C43.2175 26.4405 43.0635 26.6447 42.8737 26.6447H42.598V27.712C42.9489 27.7955 43.2175 28.1992 43.2175 28.6772C43.2175 29.2154 42.8737 29.6609 42.4584 29.6609H41.1013C40.6859 29.6609 40.3421 29.2201 40.3421 28.6772C40.3421 28.1992 40.6107 27.7955 40.9616 27.712V26.6447H40.6859C40.4997 26.6447 40.3421 26.4451 40.3421 26.1992V23.1505C40.3421 22.9045 40.4961 22.705 40.6859 22.705H40.9616V12.0321L26.6459 17.7955C24.0534 18.5936 21.461 18.6493 18.8685 17.7955L3.06675 11.6841L1.63804 11.1319C-0.141587 10.1899 0.302424 7.97646 1.9603 7.46601L19.8317 0.55186C21.6758 -0.130275 23.5163 -0.237003 25.3604 0.55186L42.9095 7.38249C44.8181 7.98574 45.194 10.2734 42.974 11.2154L42.598 11.3686Z" fill="#FF9F1C" fill-opacity="0.7"/>
</g>
<defs>
<clipPath id="clip0_175_869">
<rect width="44" height="34" fill="white" transform="translate(0.49585)"/>
</clipPath>
</defs>
</svg>
