<svg width="280" height="280" viewBox="0 0 280 280" fill="none" xmlns="http://www.w3.org/2000/svg">
<circle cx="140" cy="140" r="140" fill="#FF9F1C" fill-opacity="0.29"/>
<g clip-path="url(#clip0_300_5)">
<path d="M71.7207 178.698C58.7598 191.659 58.7598 212.673 71.7207 225.634L118.657 178.698C105.696 165.737 84.6818 165.737 71.7207 178.698ZM78.3939 185.371C85.2845 178.481 95.3905 176.717 103.927 180.081L73.1036 210.904C69.7399 202.368 71.5033 192.262 78.3939 185.371Z" fill="#FF9356"/>
<path d="M69.7809 215.113C69.4326 214.43 68.5964 214.158 67.9128 214.506L65.0065 215.987C65.3903 216.826 65.8107 217.651 66.2681 218.462L69.1739 216.981C69.8574 216.633 70.1292 215.797 69.7809 215.113Z" fill="#EA5807"/>
<path d="M67.0238 206.628C66.9038 205.871 66.1922 205.354 65.4347 205.474L62.2205 205.983C62.3263 206.902 62.4708 207.817 62.6533 208.727L65.8693 208.217C66.6269 208.097 67.1438 207.386 67.0238 206.628Z" fill="#EA5807"/>
<path d="M65.6533 198.878C66.3245 198.878 66.9149 198.39 67.0234 197.706C67.1434 196.949 66.6265 196.237 65.8689 196.117L62.6528 195.608C62.4703 196.517 62.3259 197.433 62.2202 198.352L65.4344 198.861C65.5081 198.873 65.5811 198.878 65.6533 198.878Z" fill="#EA5807"/>
<path d="M68.5415 189.98C69.0472 189.98 69.5347 189.703 69.7801 189.221C70.1282 188.538 69.8566 187.702 69.1732 187.353L66.2674 185.873C65.81 186.683 65.3896 187.509 65.0059 188.347L67.9121 189.828C68.114 189.931 68.3293 189.98 68.5415 189.98Z" fill="#EA5807"/>
<path d="M74.0419 182.41C74.3973 182.41 74.7529 182.274 75.0239 182.003C75.5663 181.46 75.5663 180.581 75.0239 180.038L72.7241 177.739C72.3851 178.051 72.0497 178.369 71.7208 178.698C71.3915 179.028 71.0726 179.363 70.7601 179.703L73.0599 182.003C73.331 182.274 73.6865 182.41 74.0419 182.41Z" fill="#EA5807"/>
<path d="M81.6123 176.91C81.8244 176.91 82.0398 176.861 82.2418 176.758C82.9252 176.41 83.1969 175.574 82.8487 174.89L81.3676 171.984C80.5292 172.368 79.7035 172.788 78.8929 173.246L80.3735 176.151C80.6192 176.633 81.1067 176.91 81.6123 176.91Z" fill="#EA5807"/>
<path d="M90.5079 174.018C90.5801 174.018 90.6534 174.013 90.727 174.001C91.4846 173.881 92.0014 173.17 91.8815 172.412L91.3724 169.198C90.4532 169.304 89.538 169.448 88.6285 169.631L89.1378 172.847C89.2461 173.531 89.8364 174.018 90.5079 174.018Z" fill="#EA5807"/>
<path d="M99.6486 174.001C99.7222 174.013 99.7954 174.018 99.8676 174.018C100.539 174.018 101.129 173.53 101.238 172.846L101.747 169.63C100.838 169.448 99.9224 169.303 99.0031 169.198L98.4941 172.412C98.3742 173.169 98.891 173.881 99.6486 174.001Z" fill="#EA5807"/>
<path d="M108.134 176.758C108.336 176.861 108.551 176.909 108.763 176.909C109.269 176.909 109.757 176.632 110.002 176.151L111.483 173.245C110.672 172.788 109.846 172.367 109.008 171.983L107.527 174.89C107.179 175.573 107.451 176.409 108.134 176.758Z" fill="#EA5807"/>
<path d="M92.8342 197.848C92.2918 197.305 91.4124 197.305 90.8699 197.848C90.3275 198.39 90.3275 199.269 90.8699 199.812L94.2066 203.149L96.1709 201.184L92.8342 197.848Z" fill="#EA5807"/>
<path d="M120.611 227.023H81.8051C81.2434 227.023 80.737 226.684 80.5219 226.165C80.3069 225.646 80.4258 225.049 80.8229 224.652L119.629 185.846C120.171 185.303 121.051 185.303 121.593 185.846C122.135 186.388 122.135 187.267 121.593 187.81L85.1582 224.245H120.611C121.378 224.245 122 224.867 122 225.634C122 226.401 121.378 227.023 120.611 227.023Z" fill="#097ACE"/>
<path d="M95.111 212.326L93.1469 214.29C96.1768 217.32 97.8456 221.349 97.8456 225.634H100.623C100.624 220.607 98.6659 215.881 95.111 212.326Z" fill="#097ACE"/>
</g>
<defs>
<clipPath id="clip0_300_5">
<rect width="60" height="60" fill="white" transform="translate(62 168)"/>
</clipPath>
</defs>
</svg>
