<svg width="36" height="42" viewBox="0 0 36 42" fill="none" xmlns="http://www.w3.org/2000/svg">
<path d="M12.8153 41.991L9.29971 36.4704L4.13794 40.6208L9.44861 9.48096L18.126 10.8511L12.8153 41.991Z" fill="#B75742"/>
<path d="M28.8521 40.606L23.682 36.4715L20.183 42.0001L14.7979 10.8682L23.467 9.47412L28.8521 40.606Z" fill="#B75742"/>
<path d="M36 16.6526C36 18.4529 34.3539 19.9745 33.8079 21.5996C33.2371 23.2804 33.6259 25.4472 32.5671 26.8493C31.5 28.2673 29.2335 28.578 27.7693 29.6056C26.3134 30.6253 25.3125 32.6088 23.5671 33.1505C21.8796 33.6763 19.8695 32.6646 18 32.6646C16.1305 32.6646 14.1204 33.6843 12.4329 33.1505C10.6875 32.6009 9.67831 30.6253 8.2307 29.6056C6.75827 28.578 4.5 28.2593 3.4329 26.8493C2.37408 25.4472 2.7546 23.2884 2.1921 21.5996C1.64614 19.9745 0 18.4529 0 16.6526C0 14.8522 1.64614 13.3307 2.1921 11.7056C2.76287 10.0247 2.37408 7.8579 3.4329 6.45585C4.5 5.03787 6.76654 4.72718 8.2307 3.69954C9.68658 2.67987 10.6875 0.696286 12.4329 0.154586C14.1204 -0.371183 16.1305 0.640531 18 0.640531C19.8695 0.640531 21.8796 -0.379149 23.5671 0.154586C25.3125 0.704253 26.3217 2.67987 27.7693 3.69954C29.2417 4.72718 31.5 5.04583 32.5671 6.45585C33.6259 7.8579 33.2454 10.0167 33.8079 11.7056C34.3539 13.3227 36 14.8522 36 16.6526Z" fill="#B36A0C"/>
<path d="M22.4775 32.0432C21.915 32.0432 21.2532 31.8999 20.5583 31.7565C19.7311 31.5812 18.8874 31.406 17.994 31.406C17.1006 31.406 16.2486 31.5892 15.4297 31.7565C14.7348 31.9078 14.0731 32.0432 13.5106 32.0432C13.2541 32.0432 13.0308 32.0114 12.8322 31.9556C12.1126 31.7326 11.4674 31.0236 10.7808 30.2748C10.2431 29.6853 9.6806 29.0719 8.99402 28.5859C8.29917 28.1 7.51331 27.7654 6.75228 27.4547C5.80927 27.0564 4.91589 26.69 4.47747 26.1084C4.04732 25.5428 3.95633 24.6108 3.85706 23.631C3.77434 22.8343 3.69163 22.0138 3.42692 21.2172C3.17049 20.4524 2.74033 19.7594 2.32673 19.0902C1.79732 18.2299 1.29272 17.4094 1.29272 16.6605C1.29272 15.9117 1.79732 15.0912 2.32673 14.2309C2.74033 13.5617 3.16221 12.8686 3.42692 12.1039C3.6999 11.3073 3.78261 10.4867 3.85706 9.69012C3.95633 8.71028 4.05559 7.77824 4.47747 7.21264C4.91589 6.63111 5.80927 6.26466 6.75228 5.86635C7.51331 5.54771 8.29917 5.22109 8.99402 4.73515C9.6806 4.24921 10.2431 3.64379 10.7808 3.04632C11.4674 2.2975 12.1126 1.58851 12.8322 1.36546C13.0225 1.30173 13.2459 1.27783 13.5106 1.27783C14.0731 1.27783 14.7348 1.41326 15.4297 1.56461C16.2569 1.73987 17.1006 1.91513 17.994 1.91513C18.8874 1.91513 19.7394 1.7319 20.5583 1.56461C21.2532 1.41326 21.915 1.27783 22.4775 1.27783C22.7339 1.27783 22.9572 1.30969 23.1558 1.36546C23.8754 1.58851 24.5207 2.2975 25.2072 3.04632C25.7449 3.63582 26.3074 4.24921 26.994 4.73515C27.6889 5.22109 28.4747 5.55567 29.2357 5.86635C30.1788 6.26466 31.0721 6.63111 31.5106 7.21264C31.9407 7.77824 32.0317 8.71028 32.131 9.69012C32.2137 10.4867 32.2964 11.3073 32.5611 12.1039C32.8175 12.8686 33.2477 13.5617 33.6613 14.2309C34.1907 15.0912 34.6953 15.9117 34.6953 16.6605C34.6953 17.4173 34.1907 18.2299 33.6613 19.0902C33.2477 19.7594 32.8258 20.4524 32.5611 21.2172C32.2964 22.0138 32.2054 22.8343 32.131 23.631C32.0317 24.6108 31.9324 25.5428 31.5106 26.1084C31.0721 26.69 30.1788 27.0564 29.2357 27.4547C28.4747 27.7734 27.6889 28.1 26.994 28.5859C26.3074 29.0719 25.7449 29.6773 25.2072 30.2748C24.5207 31.0236 23.8754 31.7326 23.1558 31.9556C22.9572 32.0114 22.7422 32.0432 22.4775 32.0432Z" fill="#FFD7A6"/>
<path d="M30.9946 18.3948C31.9981 11.4841 26.9942 5.09832 19.8181 4.1319C12.6419 3.16548 6.01101 7.98434 5.00748 14.8951C4.00395 21.8059 9.00784 28.1916 16.184 29.1581C23.3601 30.1245 29.991 25.3056 30.9946 18.3948Z" fill="#B36A0C"/>
<path d="M17.9953 28.6566C24.8801 28.6566 30.4613 23.2817 30.4613 16.6515C30.4613 10.0213 24.8801 4.64648 17.9953 4.64648C11.1105 4.64648 5.5293 10.0213 5.5293 16.6515C5.5293 23.2817 11.1105 28.6566 17.9953 28.6566Z" fill="white"/>
<path d="M29.2326 17.7254C29.8469 11.7449 25.3106 6.41731 19.1006 5.82575C12.8905 5.23419 7.35834 9.60272 6.74407 15.5831C6.1298 21.5635 10.6661 26.8912 16.8761 27.4827C23.0861 28.0743 28.6183 23.7058 29.2326 17.7254Z" fill="#FFD7A6"/>
</svg>
