<svg width="64" height="89" viewBox="0 0 64 89" fill="none" xmlns="http://www.w3.org/2000/svg">
<path d="M63.6814 3.36523H0.29126V87.9296H63.6814V3.36523Z" fill="#215B74"/>
<path opacity="0.2" d="M59.786 9.06372H4.16064V84.8033H59.786V9.06372Z" fill="#1E2959"/>
<path d="M59.786 7.76514H4.16064V83.5047H59.786V7.76514Z" fill="white"/>
<path d="M0.000244141 8.63976V3.10107H5.53893L0.000244141 8.63976Z" fill="#DC894E"/>
<path d="M63.9469 8.63927V3.10059H58.4082L63.9469 8.63927Z" fill="#DC894E"/>
<path d="M0 82.8684V88.4071H5.53869L0 82.8684Z" fill="#DC894E"/>
<path d="M63.9469 82.8684V88.4071H58.4082L63.9469 82.8684Z" fill="#DC894E"/>
<path d="M31.9862 5.45918C29.7867 5.45918 28.0376 6.46622 28.0376 4.29314V3.94863C28.0376 1.74906 29.8132 0 31.9862 0C34.1858 0 35.9349 1.77556 35.9349 3.94863V4.29314C35.9349 6.46622 34.1593 5.45918 31.9862 5.45918Z" fill="#FFCC00"/>
<path opacity="0.2" d="M42.2955 8.63916H21.6248V10.4942H42.2955V8.63916Z" fill="#1E2959"/>
<path d="M42.8788 2.38525H21.0686V9.726H42.8788V2.38525Z" fill="#FFCC00"/>
<path opacity="0.2" d="M45.6347 6.41309H18.8953V10.6267H45.6347V6.41309Z" fill="#CC2A3A"/>
<path d="M17.3318 21.8101H9.72607V29.4158H17.3318V21.8101Z" fill="#FF9F1C" fill-opacity="0.4"/>
<path d="M18.1525 30.2099H8.93018V20.9875H18.1525V30.2099ZM9.19518 29.9448H17.861V21.2791H9.19518V29.9448Z" fill="#FF9F1C" fill-opacity="0.4"/>
<path d="M17.3321 33.4707H9.72632V41.0765H17.3321V33.4707Z" fill="#FF9F1C" fill-opacity="0.4"/>
<path d="M18.1532 41.8712H8.93091V32.6489H18.1532V41.8712ZM9.19592 41.6062H17.8617V32.9404H9.19592V41.6062Z" fill="#FF9F1C" fill-opacity="0.4"/>
<path d="M17.3321 45.1309H9.72632V52.7366H17.3321V45.1309Z" fill="#FF9F1C" fill-opacity="0.4"/>
<path d="M18.1532 53.5316H8.93091V44.3093H18.1532V53.5316ZM9.19592 53.2666H17.8617V44.6008H9.19592V53.2666Z" fill="#FF9F1C" fill-opacity="0.4"/>
<path d="M12.8534 28.2764L8.45426 23.9302C8.16275 23.6387 8.13625 23.1352 8.45426 22.8437C8.74577 22.5522 9.24929 22.5257 9.5408 22.8437L12.7739 26.0503L17.9151 20.3791C18.2066 20.0611 18.6836 20.0346 19.0016 20.3261C19.3196 20.6176 19.3461 21.0946 19.0546 21.4126L12.8534 28.2764Z" fill="#FF9F1C"/>
<path d="M12.8532 40.0166L8.45402 35.6704C8.16251 35.3789 8.13601 34.8754 8.45402 34.5839C8.74553 34.2924 9.24905 34.2659 9.54056 34.5839L12.7737 37.7905L17.9148 32.1193C18.2064 31.8013 18.6834 31.7748 19.0014 32.0663C19.3194 32.3578 19.3459 32.8348 19.0544 33.1529L12.8532 40.0166Z" fill="#FF9F1C"/>
<path d="M12.8532 51.4912L8.45402 47.1451C8.16251 46.8535 8.13601 46.35 8.45402 46.0585C8.74553 45.767 9.24905 45.7405 9.54056 46.0585L12.7737 49.2651L17.9148 43.5939C18.2064 43.2759 18.6834 43.2494 19.0014 43.5409C19.3194 43.8324 19.3459 44.3095 19.0544 44.6275L12.8532 51.4912Z" fill="#FF9F1C"/>
<path d="M17.3321 56.7913H9.72632V64.397H17.3321V56.7913Z" fill="#FF9F1C" fill-opacity="0.4"/>
<path d="M18.1532 65.192H8.93091V55.9697H18.1532V65.192ZM9.19592 64.927H17.8617V56.2612H9.19592V64.927Z" fill="#FF9F1C" fill-opacity="0.4"/>
<path d="M17.3321 68.4519H9.72632V76.0577H17.3321V68.4519Z" fill="#FF9F1C" fill-opacity="0.4"/>
<path d="M18.1532 76.8524H8.93091V67.6301H18.1532V76.8524ZM9.19592 76.5874H17.8617V67.9216H9.19592V76.5874Z" fill="#FF9F1C" fill-opacity="0.4"/>
<path d="M54.5925 22.9497H20.9099V23.8772H54.5925V22.9497Z" fill="#FF9F1C"/>
<path d="M54.5921 25.1497H20.9094V26.0772H54.5921V25.1497Z" fill="#FF9F1C"/>
<path d="M31.3243 27.3496H20.9094V28.2771H31.3243V27.3496Z" fill="#FF9F1C"/>
<path d="M54.5925 34.4509H20.9099V35.3785H54.5925V34.4509Z" fill="#FF9F1C"/>
<path d="M54.5921 36.6768H20.9094V37.6043H54.5921V36.6768Z" fill="#FF9F1C"/>
<path d="M42.9052 38.8762H20.9094V39.8038H42.9052V38.8762Z" fill="#FF9F1C"/>
<path d="M54.5925 45.979H20.9099V46.9065H54.5925V45.979Z" fill="#FF9F1C"/>
<path d="M49.7159 48.1785H20.9094V49.106H49.7159V48.1785Z" fill="#FF9F1C"/>
<path d="M31.3243 50.3782H20.9094V51.3057H31.3243V50.3782Z" fill="#FF9F1C"/>
<path d="M54.5925 57.4802H20.9099V58.4078H54.5925V57.4802Z" fill="#FF9F1C"/>
<path d="M37.87 59.6799H20.9094V60.6075H37.87V59.6799Z" fill="#FF9F1C"/>
<path d="M54.5925 69.0081H20.9099V69.9356H54.5925V69.0081Z" fill="#FF9F1C"/>
<path d="M54.5921 71.2078H20.9094V72.1353H54.5921V71.2078Z" fill="#FF9F1C"/>
<path d="M45.4758 73.4075H20.9094V74.335H45.4758V73.4075Z" fill="#FF9F1C"/>
<path d="M48.0199 13.5686H16.0068V15.8477H48.0199V13.5686Z" fill="#FF9F1C"/>
<path d="M32.8873 1.74938C32.8873 2.25289 32.4898 2.65041 31.9862 2.65041C31.4827 2.65041 31.0852 2.25289 31.0852 1.74938C31.0852 1.24586 31.4827 0.848347 31.9862 0.848347C32.4898 0.821846 32.8873 1.24586 32.8873 1.74938Z" fill="white"/>
</svg>
