<svg width="11" height="11" viewBox="0 0 11 11" fill="none" xmlns="http://www.w3.org/2000/svg">
<g clip-path="url(#clip0_26_1663)">
<path fill-rule="evenodd" clip-rule="evenodd" d="M11.0002 2.00115C10.596 2.18523 10.1608 2.30966 9.70432 2.36527C10.1704 2.07927 10.5282 1.62569 10.6967 1.08548C10.2603 1.35034 9.77797 1.54302 9.26269 1.64631C8.85208 1.19677 8.26512 0.916016 7.61561 0.916016C6.37012 0.916016 5.35966 1.95216 5.35966 3.23005C5.35966 3.41147 5.379 3.58755 5.41776 3.75711C3.54226 3.66034 1.87971 2.74004 0.765875 1.3384C0.57157 1.68137 0.460453 2.07927 0.460453 2.50302C0.460453 3.30551 0.858859 4.01389 1.46446 4.42905C1.09519 4.4178 0.746453 4.31252 0.441719 4.14039V4.16884C0.441719 5.29041 1.21971 6.22592 2.25277 6.43784C2.06362 6.49216 1.86407 6.51931 1.65808 6.51931C1.51284 6.51931 1.37079 6.50539 1.2332 6.47823C1.52049 7.39725 2.3534 8.06662 3.34125 8.08449C2.56902 8.70556 1.59543 9.07561 0.538484 9.07561C0.356383 9.07561 0.176258 9.06504 0 9.04381C0.998852 9.69926 2.18556 10.0826 3.45941 10.0826C7.61097 10.0826 9.88041 6.55695 9.88041 3.49878C9.88041 3.39815 9.87843 3.29752 9.87456 3.19886C10.3158 2.87247 10.6986 2.4653 11.0002 2.00115Z" fill="#00AAEC"/>
</g>
<defs>
<clipPath id="clip0_26_1663">
<rect width="11" height="11" fill="white"/>
</clipPath>
</defs>
</svg>
