<svg width="63" height="148" viewBox="0 0 63 148" fill="none" xmlns="http://www.w3.org/2000/svg">
<path d="M20.1421 26.3984C20.4348 27.6744 20.9616 29.7034 20.9616 29.7034C20.9226 30.2682 20.7665 32.5901 20.5909 35.414L24.4935 33.7406C24.4935 33.7406 24.4545 29.1177 24.6301 28.8249C24.7862 28.5948 25.0203 28.8876 26.2107 27.0469C26.5619 26.5239 26.6204 25.5826 26.6204 25.5826C26.6204 25.5826 26.6985 24.4113 26.4448 24.3067C26.2107 24.2021 25.918 24.3694 25.8399 24.5786C25.7424 24.7878 25.7814 25.248 25.6838 25.4571C25.5862 25.6663 25.0399 25.8964 24.7862 25.8964C24.552 25.8755 24.8252 22.4659 24.8252 22.4659C24.8252 22.4659 24.9618 21.5037 25.0204 21.169C25.0789 20.8971 25.313 20.1022 25.313 20.1022C25.313 20.1022 25.5862 18.9517 25.2545 18.868C25.0594 18.8262 24.552 19.7466 24.2203 20.7506C23.8496 21.8174 23.6349 22.9679 23.5374 22.947C23.2837 22.9052 23.4203 21.0226 23.4203 21.0226C23.4203 21.0226 23.6739 20.1649 23.6544 19.7466C23.8886 19.2446 24.0447 18.3242 23.6349 18.2405C23.5569 18.2196 23.0105 19.391 23.0105 19.391C23.0105 19.391 22.7958 20.2068 22.6788 20.6042C22.4641 21.2945 22.4251 22.3613 22.308 22.8424C22.2105 23.2399 22.1324 23.0725 22.0934 23.0934C22.0543 23.1144 22.1129 22.5705 22.1714 21.8174C22.2105 21.4409 22.1519 21.0017 22.269 20.5833C22.3666 20.1859 22.4056 19.6211 22.4446 19.2655C22.5032 18.3033 21.9373 18.3869 21.7421 19.2864C21.6641 19.6211 21.586 19.9976 21.508 20.3741C21.1958 21.8384 21.2153 23.2399 21.0592 23.2399C20.864 23.2608 21.0006 20.7088 21.0006 20.7088C21.0006 20.7088 20.7079 19.2864 20.4152 20.6042C20.0835 22.1312 20.1225 23.3654 20.1225 23.4281C20.103 23.7837 19.8494 25.1015 20.1421 26.3984Z" fill="#F8A492"/>
<path d="M61.5092 23.0098C61.2165 24.2858 60.6897 26.3148 60.6897 26.3148C60.7287 26.8796 60.8848 29.1805 61.0604 32.0253L57.1578 30.3519C57.1578 30.3519 57.1968 25.7291 57.0212 25.4362C56.8651 25.2061 56.6309 25.499 55.4406 23.6582C55.0894 23.1353 55.0309 22.194 55.0309 22.194C55.0309 22.194 54.9528 21.0226 55.2065 20.918C55.4406 20.8134 55.7333 20.9807 55.8114 21.1899C55.909 21.3991 55.8699 21.8593 55.9675 22.0685C56.065 22.2776 56.6114 22.5077 56.8651 22.5077C57.0993 22.4868 56.8261 19.0772 56.8261 19.0772C56.8261 19.0772 56.6895 18.115 56.6309 17.7803C56.5724 17.5084 56.3382 16.7135 56.3382 16.7135C56.3382 16.7135 56.0651 15.563 56.3968 15.4794C56.5919 15.4375 57.0992 16.3579 57.431 17.362C57.8017 18.4288 58.0164 19.5793 58.1139 19.5583C58.3676 19.5165 58.231 17.6339 58.231 17.6339C58.231 17.6339 57.9773 16.7763 57.9969 16.3579C57.7627 15.8559 57.6066 14.9355 58.0164 14.8518C58.0944 14.8309 58.6408 16.0023 58.6408 16.0023C58.6408 16.0023 58.8554 16.8181 58.9725 17.2155C59.1872 17.9058 59.2262 18.9726 59.3433 19.4537C59.4408 19.8512 59.5189 19.6838 59.5579 19.7048C59.5969 19.7257 59.5384 19.1818 59.4799 18.4288C59.4408 18.0523 59.4994 17.613 59.3823 17.1946C59.2847 16.7972 59.2457 16.2324 59.2067 15.8768C59.1481 14.9146 59.714 14.9983 59.9092 15.8977C59.9872 16.2324 60.0653 16.6089 60.1433 16.9855C60.4555 18.4497 60.436 19.8512 60.5921 19.8512C60.7872 19.8721 60.6506 17.3201 60.6506 17.3201C60.6506 17.3201 60.9433 15.8977 61.236 17.2155C61.5678 18.7425 61.5287 19.9767 61.5287 20.0394C61.5482 20.395 61.8019 21.7338 61.5092 23.0098Z" fill="#F8A492"/>
<path d="M37.1966 38.0713C37.1966 38.0713 39.187 35.8331 40.7676 38.5524C40.7676 38.5524 41.9969 37.8203 42.8555 39.1381C42.8555 39.1381 45.08 38.4269 45.6068 41.9829C45.6068 41.9829 46.7581 41.7528 46.8947 43.217C47.0508 44.6813 46.3483 45.6435 46.3483 45.6435C46.3483 45.6435 46.9923 46.1664 46.6996 47.5052C46.4459 48.6347 45.5678 48.823 45.5678 48.823C45.5678 48.823 45.3336 50.7474 44.5531 51.3122C43.7726 51.8979 42.7189 51.6051 42.7189 51.6051C42.7189 51.6051 42.4457 52.6509 41.5286 52.5464C40.6114 52.4418 39.4992 51.5214 38.4845 51.9397C37.4698 52.3581 34.8356 51.9188 34.8356 51.9188C34.8356 51.9188 31.8891 50.5173 32.7672 47.2751C32.7672 47.2751 31.2061 45.769 32.572 43.9701C32.572 43.9701 31.5769 41.1462 33.5477 39.4937C35.5575 37.8202 37.1966 38.0713 37.1966 38.0713Z" fill="#07345A"/>
<path d="M50.8545 131.971C50.8545 131.971 53.0205 134.836 53.5473 135.192C54.0937 135.548 53.3132 139.71 51.8497 139.982C51.0301 140.129 50.5618 139.166 50.5618 139.166L50.796 137.974L47.7129 134.565L50.8545 131.971Z" fill="#F7A491"/>
<path d="M39.7136 132.682C39.7136 132.682 41.5088 135.819 42.0162 136.259C42.504 136.677 41.2357 140.714 39.7527 140.777C38.9136 140.819 38.5819 139.794 38.5819 139.794L38.9526 138.643L36.2988 134.836L39.7136 132.682Z" fill="#F7A491"/>
<path d="M41.898 136.133C41.898 136.133 40.8638 137.555 40.2979 138.12C39.5759 138.852 38.6393 139.563 38.6393 139.563C38.6393 139.563 37.5856 141.613 37.2929 142.345C36.649 143.935 35.927 145.713 36.0245 146.613C36.0636 146.905 36.6685 147.198 37.1563 147.031C39.2442 146.341 44.5713 141.111 45.2543 139.71C46.0348 138.078 41.898 136.133 41.898 136.133Z" fill="#07345A"/>
<path d="M26.6592 88.2527C26.8543 87.667 27.0299 87.1231 27.2251 86.6211C29.4496 87.144 31.9473 87.7088 34.523 88.2945L34.8352 98.4396C34.8352 97.6657 32.9034 114.609 32.9034 114.609C32.9034 114.609 37.9183 126.511 41.3526 133.435C39.9477 135.318 39.2842 135.924 37.2548 137.2C31.9277 130.36 24.9615 117.851 24.6883 115.76C24.4932 114.567 24.3566 95.2183 26.6592 88.2527Z" fill="#B75742"/>
<path d="M46.485 91.1816C45.8021 99.0885 44.2996 114.17 44.4166 115.383C44.7874 116.89 51.4999 130.863 52.7097 132.913C51.7536 134.46 50.2706 136.134 48.6705 136.594C48.3583 136.678 37.2943 119.797 36.6894 118.458C36.0065 116.952 34.8747 108.669 34.8552 98.44L34.543 88.2949C38.8359 89.2781 42.7775 90.2403 46.485 91.1816Z" fill="#F47458"/>
<path d="M32.3781 55.1816L37.432 55.9347C37.432 55.9347 41.4907 56.0393 41.9981 56.0393C42.5054 56.0393 45.6861 75.8275 46.6032 83.2742C47.5203 90.7209 46.8179 92.0388 46.8179 92.0388C46.8179 92.0388 40.398 93.5867 35.6563 93.1265C30.7195 92.6663 25.1777 89.8005 25.1777 89.8005C25.1777 89.8005 29.3926 75.4928 30.2317 71.0373C31.0317 66.54 32.3781 55.1816 32.3781 55.1816Z" fill="#96D9C9"/>
<path d="M20.1031 31.2098C20.1031 31.2098 19.7713 45.9569 20.2982 47.0864C21.0592 48.718 29.5474 60.3692 29.5474 60.3692C29.5474 60.3692 25.4887 78.5677 23.7911 84.8639C23.6154 85.4914 22.8544 89.5913 22.8544 89.9888C22.8544 90.8673 26.4448 91.9969 26.8741 91.9341C27.2644 91.8714 30.3865 74.5515 32.3964 66.0798C33.0793 63.214 34.2306 60.4947 35.8307 58.0683L37.2161 55.9556L26.5424 44.4926C26.5424 44.4926 25.235 31.7328 25.235 30.666C25.2155 30.3731 20.6104 30.164 20.1031 31.2098Z" fill="#13375B"/>
<path d="M41.8011 55.9977L55.1091 41.4598C55.1091 41.4598 56.9628 27.7168 57.0994 27.1939C57.236 26.6919 60.5337 26.42 61.8606 26.2735C62.2899 26.2317 61.646 40.916 61.0021 43.3843C60.241 46.2918 50.1917 59.5328 50.1917 59.5328C50.1917 59.5328 48.3965 66.7076 48.8258 71.9788C49.5478 80.7225 51.4991 92.7502 51.1479 93.1267C48.9819 94.5909 40.6888 94.7374 40.162 93.8379C34.347 83.8183 41.8011 55.9977 41.8011 55.9977Z" fill="#13375B"/>
<path d="M37.5273 53.2772L37.176 56.1429C37.176 56.1429 36.376 60.2637 37.4102 61.0586C38.4444 61.8535 41.8202 56.0383 41.8202 56.0383L41.4689 48.8008L37.5273 53.2772Z" fill="#F7A491"/>
<path d="M41.5487 51.124C40.6902 53.5923 38.6608 55.1193 37.2168 55.705L37.529 53.2786L41.4512 48.7812L41.5487 51.124Z" fill="#F47458"/>
<path d="M46.9527 43.8641C46.9527 44.9728 46.3673 45.8513 45.6453 45.8513C44.9233 45.8513 44.3379 44.9519 44.3379 43.8641C44.3379 42.7555 44.9233 41.877 45.6453 41.877C46.3673 41.877 46.9527 42.7764 46.9527 43.8641Z" fill="#07345A"/>
<path d="M41.4497 40.7267C42.3227 40.7267 43.0303 40.2116 43.0303 39.5763C43.0303 38.9409 42.3227 38.4258 41.4497 38.4258C40.5768 38.4258 39.8691 38.9409 39.8691 39.5763C39.8691 40.2116 40.5768 40.7267 41.4497 40.7267Z" fill="#07345A"/>
<path d="M39.0516 41.1871C36.9442 40.4132 34.7197 41.8983 34.388 44.2202C34.2514 45.2243 34.1148 46.5002 34.0953 47.8808C34.0368 51.2067 35.6564 54.4699 37.0613 54.4699C38.4663 54.4699 42.3689 52.3154 42.525 47.567C42.6226 44.6595 41.2566 42.0029 39.0516 41.1871Z" fill="#F7A491"/>
<path d="M41.4902 47.9442C41.4902 48.6763 41.939 49.283 42.5049 49.283C43.0708 49.283 43.5196 48.6763 43.5196 47.9442C43.5196 47.2121 43.0708 46.6055 42.5049 46.6055C41.939 46.6055 41.4902 47.2121 41.4902 47.9442Z" fill="#F7A491"/>
<path d="M32.9235 39.5345C31.46 40.7686 30.9526 42.6512 31.7722 43.7389C32.5918 44.8267 34.465 44.7012 35.909 43.467C37.3725 42.2329 37.8798 40.3503 37.0603 39.2625C36.2407 38.1539 34.387 38.2794 32.9235 39.5345Z" fill="#07345A"/>
<path d="M38.0945 41.5229C38.8381 41.5229 39.4409 41.0827 39.4409 40.5398C39.4409 39.9968 38.8381 39.5566 38.0945 39.5566C37.3509 39.5566 36.748 39.9968 36.748 40.5398C36.748 41.0827 37.3509 41.5229 38.0945 41.5229Z" fill="#07345A"/>
<path d="M32.709 44.6808C32.709 45.3711 33.2358 45.9359 33.8603 45.9359C34.5042 45.9359 35.0116 45.3711 35.0116 44.6808C35.0116 43.9906 34.4847 43.4258 33.8603 43.4258C33.2358 43.4258 32.709 43.9906 32.709 44.6808Z" fill="#07345A"/>
<path d="M53.4313 135.088C53.4313 135.088 52.5728 136.636 52.0849 137.263C51.441 138.079 50.6019 138.916 50.6019 138.916C50.6019 138.916 49.8019 141.091 49.6067 141.844C49.1579 143.518 48.6506 145.526 48.8652 146.404C48.9238 146.676 49.5092 147.22 49.9775 146.886C51.8117 145.61 56.69 139.627 57.1974 138.142C57.7633 136.448 53.4313 135.088 53.4313 135.088Z" fill="#07345A"/>
<path d="M36.1439 37.2044L32.9995 32.3135L28.3828 35.9905L33.1327 8.40234L40.8938 9.61625L36.1439 37.2044Z" fill="#B75742"/>
<path d="M50.4882 35.9757L45.8641 32.3128L42.7345 37.2107L37.918 9.62961L45.6717 8.39453L50.4882 35.9757Z" fill="#B75742"/>
<path d="M56.8804 14.7533C56.8804 16.3483 55.408 17.6963 54.9197 19.136C54.4092 20.6252 54.757 22.5449 53.8099 23.787C52.8555 25.0432 50.8283 25.3185 49.5187 26.2289C48.2166 27.1323 47.3214 28.8896 45.7603 29.3696C44.2509 29.8354 42.4531 28.939 40.781 28.939C39.1089 28.939 37.3111 29.8424 35.8017 29.3696C34.2406 28.8826 33.338 27.1323 32.0432 26.2289C30.7263 25.3185 28.7065 25.0362 27.7521 23.787C26.805 22.5449 27.1454 20.6322 26.6423 19.136C26.154 17.6963 24.6816 16.3483 24.6816 14.7533C24.6816 13.1582 26.154 11.8102 26.6423 10.3705C27.1528 8.88132 26.805 6.96166 27.7521 5.71953C28.7065 4.46327 30.7337 4.18802 32.0432 3.27759C33.3454 2.37421 34.2406 0.616871 35.8017 0.136954C37.3111 -0.328847 39.1089 0.567475 40.781 0.567475C42.4531 0.567475 44.2509 -0.335905 45.7603 0.136954C47.3214 0.623929 48.224 2.37421 49.5187 3.27759C50.8357 4.18802 52.8555 4.47033 53.8099 5.71953C54.757 6.96166 54.4166 8.87427 54.9197 10.3705C55.408 11.8032 56.8804 13.1582 56.8804 14.7533Z" fill="#FEB346"/>
<path d="M44.7857 28.3893C44.2826 28.3893 43.6907 28.2622 43.0692 28.1352C42.3294 27.9799 41.5747 27.8247 40.7757 27.8247C39.9766 27.8247 39.2146 27.987 38.4821 28.1352C37.8606 28.2693 37.2687 28.3893 36.7656 28.3893C36.5363 28.3893 36.3365 28.361 36.1589 28.3116C35.5153 28.114 34.9382 27.4859 34.3241 26.8225C33.8432 26.3002 33.3401 25.7568 32.726 25.3263C32.1045 24.8958 31.4016 24.5993 30.721 24.3241C29.8775 23.9712 29.0785 23.6466 28.6864 23.1314C28.3016 22.6303 28.2202 21.8045 28.1315 20.9364C28.0575 20.2307 27.9835 19.5037 27.7467 18.798C27.5174 18.1205 27.1326 17.5065 26.7627 16.9136C26.2892 16.1514 25.8379 15.4245 25.8379 14.761C25.8379 14.0976 26.2892 13.3707 26.7627 12.6085C27.1326 12.0156 27.51 11.4016 27.7467 10.7241C27.9909 10.0183 28.0649 9.2914 28.1315 8.58564C28.2202 7.71755 28.309 6.89182 28.6864 6.39073C29.0785 5.87552 29.8775 5.55087 30.721 5.19799C31.4016 4.91569 32.1045 4.62632 32.726 4.19581C33.3401 3.76529 33.8432 3.22892 34.3241 2.6996C34.9382 2.03618 35.5153 1.40806 36.1589 1.21044C36.3291 1.15398 36.5289 1.13281 36.7656 1.13281C37.2687 1.13281 37.8606 1.25279 38.4821 1.38688C39.222 1.54215 39.9766 1.69742 40.7757 1.69742C41.5747 1.69742 42.3368 1.53509 43.0692 1.38688C43.6907 1.25279 44.2826 1.13281 44.7857 1.13281C45.0151 1.13281 45.2148 1.16104 45.3924 1.21044C46.0361 1.40806 46.6132 2.03618 47.2273 2.6996C47.7082 3.22186 48.2113 3.76529 48.8253 4.19581C49.4468 4.62632 50.1497 4.92274 50.8304 5.19799C51.6738 5.55087 52.4729 5.87552 52.865 6.39073C53.2497 6.89182 53.3311 7.71755 53.4199 8.58564C53.4939 9.2914 53.5678 10.0183 53.8046 10.7241C54.034 11.4016 54.4187 12.0156 54.7886 12.6085C55.2621 13.3707 55.7134 14.0976 55.7134 14.761C55.7134 15.4315 55.2621 16.1514 54.7886 16.9136C54.4187 17.5065 54.0414 18.1205 53.8046 18.798C53.5678 19.5037 53.4865 20.2307 53.4199 20.9364C53.3311 21.8045 53.2423 22.6303 52.865 23.1314C52.4729 23.6466 51.6738 23.9712 50.8304 24.3241C50.1497 24.6064 49.4468 24.8958 48.8253 25.3263C48.2113 25.7568 47.7082 26.2932 47.2273 26.8225C46.6132 27.4859 46.0361 28.114 45.3924 28.3116C45.2148 28.361 45.0225 28.3893 44.7857 28.3893Z" fill="#F7CC7F"/>
<path d="M52.4034 16.2979C53.301 10.1753 48.8255 4.51788 42.4071 3.66168C35.9887 2.80549 30.0579 7.07473 29.1603 13.1973C28.2628 19.3199 32.7383 24.9773 39.1567 25.8335C45.5751 26.6897 51.5058 22.4204 52.4034 16.2979Z" fill="#FEB346"/>
<path d="M40.7766 25.3888C46.9344 25.3888 51.9263 20.627 51.9263 14.753C51.9263 8.87901 46.9344 4.11719 40.7766 4.11719C34.6188 4.11719 29.627 8.87901 29.627 14.753C29.627 20.627 34.6188 25.3888 40.7766 25.3888Z" fill="white"/>
<path d="M50.8275 15.7029C51.3769 10.4046 47.3196 5.68458 41.7653 5.16049C36.211 4.6364 31.263 8.50668 30.7135 13.805C30.1641 19.1033 34.2214 23.8233 39.7757 24.3474C45.33 24.8715 50.2781 21.0012 50.8275 15.7029Z" fill="#F7CC7F"/>
<path d="M35.3143 18.8179L35.6916 16.1148H34.5078V15.3032H35.8248L36.0985 13.2988H34.8481V12.4872H36.2243L36.6016 9.84766H37.4377L37.0751 12.4872H38.577L38.9544 9.84766H39.8052L39.4427 12.4872H40.6265V13.2988H39.3095L39.0506 15.3032H40.2935V16.1148H38.9174L38.54 18.8179H37.6744L38.0517 16.1148H36.5498L36.1725 18.8179H35.3143ZM38.1923 15.3032L38.4661 13.2988H36.9641L36.6904 15.3032H38.1923Z" fill="white"/>
<path d="M44.5788 10.9839H44.5492L42.9141 11.8238L42.6699 10.8992L44.7267 9.84766H45.8143V18.8179H44.5862V10.9839H44.5788Z" fill="white"/>
<path d="M1.56469 66.8723L5.14446 67.0539L6.54371 70.4762L10.5822 70.4041L10.9691 74.5033L15.5378 74.6233L16.3496 78.3606L20.73 79.1922L21.0249 77.5235L17.7431 76.8981L16.8917 72.9665L12.5006 72.8508L12.1147 68.68L7.65678 68.7561L6.29889 65.4208L2.9678 65.2454L2.51982 62.8636L0.873347 63.1667L1.56469 66.8723Z" fill="#F7CC7F"/>
<path d="M62.0967 72.7724L63 77.0206L58.8777 78.0865L59.5839 82.2884L55.7573 83.7714L55.7409 87H54L54.0164 82.6746L57.646 81.2688L56.9069 76.8816L60.9799 75.8466L60.1423 72L62.0967 72.7724Z" fill="#F48C7F"/>
<path d="M17.9665 121.027L15.1326 120.766L14.1601 124.913L9.93445 125.005L8.66007 128L7 127.401L8.71037 123.392L12.718 123.316L13.7241 119L18 119.399L17.9665 121.027Z" fill="#50BFA5"/>
</svg>
