<svg width="24" height="24" viewBox="0 0 24 24" fill="none" xmlns="http://www.w3.org/2000/svg">
<rect width="24" height="24" rx="3" fill="#0A1D47"/>
<g clip-path="url(#clip0_344_12)">
<path d="M16.2296 17.1039C16.1909 17.1039 16.1538 17.0886 16.1264 17.0612C16.0991 17.0339 16.0837 16.9968 16.0837 16.9581V15.7915C16.0837 15.6368 16.1452 15.4884 16.2546 15.379C16.364 15.2696 16.5123 15.2081 16.667 15.2081H17.8337C17.9884 15.2081 18.1368 15.2696 18.2461 15.379C18.3555 15.4884 18.417 15.6368 18.417 15.7915V16.9581C18.417 16.9968 18.4016 17.0339 18.3743 17.0612C18.3469 17.0886 18.3098 17.1039 18.2712 17.1039H16.2296ZM12.7297 17.1039C12.691 17.1039 12.6539 17.0886 12.6266 17.0612C12.5992 17.0339 12.5838 16.9968 12.5838 16.9581V12.8749C12.5838 12.7983 12.5989 12.7224 12.6283 12.6517C12.6576 12.5809 12.7005 12.5166 12.7547 12.4624C12.8089 12.4083 12.8732 12.3653 12.9439 12.336C13.0147 12.3067 13.0906 12.2916 13.1672 12.2916H14.3338C14.4104 12.2916 14.4862 12.3067 14.557 12.336C14.6278 12.3653 14.6921 12.4083 14.7463 12.4624C14.8004 12.5166 14.8434 12.5809 14.8727 12.6517C14.902 12.7224 14.9171 12.7983 14.9171 12.8749V16.9581C14.9171 16.9968 14.9017 17.0339 14.8744 17.0612C14.847 17.0886 14.81 17.1039 14.7713 17.1039H12.7297ZM9.22979 17.1039C9.19112 17.1039 9.15402 17.0886 9.12668 17.0612C9.09933 17.0339 9.08396 16.9968 9.08396 16.9581V14.0415C9.08396 13.8868 9.14542 13.7384 9.25481 13.629C9.3642 13.5197 9.51257 13.4582 9.66728 13.4582H10.8339C10.9886 13.4582 11.137 13.5197 11.2464 13.629C11.3558 13.7384 11.4172 13.8868 11.4172 14.0415V16.9581C11.4172 16.9968 11.4019 17.0339 11.3745 17.0612C11.3472 17.0886 11.3101 17.1039 11.2714 17.1039H9.22979ZM5.72991 17.1039C5.69123 17.1039 5.65414 17.0886 5.62679 17.0612C5.59944 17.0339 5.58408 16.9968 5.58408 16.9581V9.95831C5.58408 9.88171 5.59917 9.80586 5.62848 9.73509C5.65779 9.66432 5.70076 9.60001 5.75493 9.54585C5.80909 9.49168 5.8734 9.44872 5.94417 9.4194C6.01494 9.39009 6.09079 9.375 6.16739 9.375H7.33402C7.48872 9.375 7.63709 9.43646 7.74649 9.54585C7.85588 9.65524 7.91733 9.80361 7.91733 9.95831V16.9581C7.91733 16.9968 7.90197 17.0339 7.87462 17.0612C7.84727 17.0886 7.81018 17.1039 7.77151 17.1039H5.72991Z" fill="white"/>
<path d="M16.9584 12.8751C16.8052 12.8751 16.6535 12.8449 16.512 12.7863C16.3704 12.7277 16.2418 12.6417 16.1335 12.5334C16.0251 12.4251 15.9392 12.2965 15.8806 12.1549C15.8219 12.0134 15.7918 11.8617 15.7918 11.7085C15.7931 11.5895 15.8128 11.4715 15.8501 11.3585L14.0027 9.81854C13.7709 9.9462 13.5019 9.98924 13.2418 9.94028C12.9817 9.89132 12.7467 9.75342 12.5771 9.55021L11.1188 10.0367C11.0894 10.3313 10.949 10.6036 10.7262 10.7986C10.5033 10.9935 10.2147 11.0964 9.91884 11.0865C9.62295 11.0766 9.3419 10.9545 9.13266 10.7451C8.92342 10.5356 8.80164 10.2544 8.792 9.95853C8.79315 9.77291 8.83939 9.59034 8.92674 9.42655L7.00939 7.18954C6.78479 7.30927 6.52711 7.35202 6.27587 7.31123C6.02464 7.27045 5.79371 7.14838 5.61852 6.96375C5.44332 6.77912 5.33352 6.54211 5.30596 6.28909C5.2784 6.03606 5.33459 5.78097 5.46593 5.56295C5.59726 5.34493 5.79649 5.176 6.03305 5.08208C6.26961 4.98816 6.53045 4.97443 6.77557 5.043C7.02068 5.11156 7.23654 5.25863 7.39004 5.46166C7.54355 5.66469 7.62621 5.91246 7.62537 6.16698C7.62385 6.28008 7.60556 6.39232 7.57112 6.50006L9.59114 8.85723C9.8096 8.77938 10.0468 8.77082 10.2703 8.83273C10.4938 8.89463 10.6927 9.02399 10.84 9.20314L12.2983 8.71724C12.3075 8.55197 12.3518 8.39057 12.4283 8.2438C12.5048 8.09703 12.6118 7.96827 12.742 7.86612C12.8723 7.76396 13.0228 7.69077 13.1836 7.65142C13.3443 7.61207 13.5117 7.60747 13.6743 7.63792C13.837 7.66838 13.9914 7.73319 14.127 7.82803C14.2627 7.92287 14.3765 8.04556 14.461 8.1879C14.5455 8.33024 14.5986 8.48897 14.6168 8.65348C14.6351 8.81799 14.618 8.9845 14.5668 9.14189L16.4124 10.6842C16.5798 10.5922 16.7674 10.5433 16.9584 10.5418C17.2678 10.5418 17.5645 10.6648 17.7833 10.8835C18.0021 11.1023 18.125 11.3991 18.125 11.7085C18.125 12.0179 18.0021 12.3146 17.7833 12.5334C17.5645 12.7522 17.2678 12.8751 16.9584 12.8751ZM5.58377 17.8333H18.4167C18.5706 17.8357 18.7176 17.8979 18.8265 18.0068C18.9354 18.1157 18.9976 18.2627 19 18.4166C19 18.5713 18.9385 18.7197 18.8292 18.8291C18.7198 18.9385 18.5714 18.9999 18.4167 18.9999H5.58377C5.42907 18.9999 5.2807 18.9385 5.1713 18.8291C5.06191 18.7197 5.00046 18.5713 5.00046 18.4166C5.00272 18.2626 5.0649 18.1155 5.1738 18.0066C5.28271 17.8977 5.42977 17.8356 5.58377 17.8333Z" fill="white"/>
</g>
<defs>
<clipPath id="clip0_344_12">
<rect width="14" height="14" fill="white" transform="matrix(-1 0 0 1 19 5)"/>
</clipPath>
</defs>
</svg>
