<svg width="162" height="120" viewBox="0 0 162 120" fill="none" xmlns="http://www.w3.org/2000/svg">
<path d="M59.5543 119.019C77.897 119.019 92.7668 117.26 92.7668 115.091C92.7668 112.922 77.897 111.163 59.5543 111.163C41.2115 111.163 26.3418 112.922 26.3418 115.091C26.3418 117.26 41.2115 119.019 59.5543 119.019Z" fill="#E6E6E6"/>
<path d="M106.3 60.3382C105.764 61.9486 105.227 63.6375 105.145 65.2872C105.145 65.68 104.897 66.9369 105.227 67.2511C105.557 67.6046 106.63 67.0547 107.084 66.9369C108.363 66.5834 109.683 66.4655 111.003 66.112C112.654 65.68 114.428 65.3658 116.078 65.2086C116.243 65.2086 116.408 65.1694 116.573 65.1694C117.192 65.1301 117.811 65.1694 118.389 65.3658C119.131 65.6014 119.709 66.0728 119.874 66.9761C120.204 68.4294 118.636 70.4719 117.852 71.6109C117.77 71.6895 117.728 71.8073 117.646 71.8859C116.656 73.3391 115.583 74.8317 115.253 76.5206C115.088 77.3454 115.212 78.2096 115.624 78.9951C115.831 79.4272 116.119 79.82 116.449 80.1342C116.779 80.4484 117.11 80.7233 117.481 80.9197C118.265 81.3518 119.131 81.5089 120.039 81.4696C120.534 81.4696 121.029 81.3911 121.524 81.3125C121.772 81.2732 122.019 81.2339 122.267 81.1554C123.298 80.8804 124.206 80.4484 125.114 79.9378C125.444 79.7807 125.732 79.5843 126.021 79.3879C126.681 78.9558 127.341 78.4845 128.002 78.0132C128.497 77.6597 128.992 77.3062 129.446 76.9134C130.147 76.3635 130.807 75.7743 131.467 75.1852C132.21 74.5175 132.911 73.8105 133.613 73.1427C134.727 72.0037 135.799 70.7861 136.831 69.5292C137.12 69.215 137.367 68.8615 137.656 68.5473C136.212 68.4294 134.768 68.2723 133.324 67.9581C131.632 67.6046 129.611 66.819 131.343 65.0515C132.334 64.0696 134.025 63.7554 135.428 63.5197C137.45 63.1662 139.471 62.852 141.534 62.852C141.782 62.852 141.988 62.852 142.236 62.852C142.483 62.4985 142.689 62.1843 142.937 61.8308C143.886 60.3775 144.711 58.8457 145.495 57.3531C144.257 57.196 142.937 57.2353 142.153 57.4317C140.998 57.7459 139.059 58.5707 138.027 57.7852C136.542 56.6461 138.11 55.5856 139.182 54.9965C140.668 54.1716 142.318 54.1716 143.968 53.8574C144.546 53.7396 145.124 53.661 145.66 53.6217C146.733 53.5039 147.64 52.9147 148.053 51.9721C149.002 49.9689 150.24 47.3766 152.344 46.1982C152.55 46.0804 152.797 45.9626 153.045 45.8447C153.953 45.4912 154.86 45.3734 155.851 45.2949C155.397 45.1377 154.943 44.9806 154.489 44.8628C150.487 43.763 146.031 43.4881 141.947 43.6845H141.905C140.833 43.7238 139.884 44.3915 139.471 45.3341C139.347 45.6091 139.224 45.884 139.1 46.159C138.522 47.3373 137.78 49.4583 136.418 49.9296C134.809 50.4795 134.727 47.9657 134.85 46.9445C134.933 46.0804 135.428 45.3734 135.841 44.6271C133.984 44.9806 132.086 45.1378 130.23 45.5698C128.29 46.0019 126.351 46.5125 124.412 47.0231C124 48.5156 123.876 50.126 123.628 51.6186C123.216 54.0931 123.463 57.0782 121.442 59.0028C120.369 60.024 119.379 60.3775 118.265 59.317C117.192 58.3351 117.068 57.0782 117.192 55.7427C117.398 53.7788 118.223 52.1685 119.007 50.401C119.296 49.7725 119.585 49.1834 119.915 48.5942C119.131 48.712 118.347 48.9084 117.563 49.0655C115.831 49.4583 113.685 49.3797 112.117 50.2438C111.003 50.8723 110.054 52.2863 109.394 53.3075C107.909 55.6249 107.125 57.903 106.3 60.3382Z" fill="#99ACE3"/>
<path d="M103.7 80.2517C103.329 81.0372 104.526 81.5478 104.938 80.8408L104.979 80.8015C105.722 79.309 106.671 77.8557 107.744 76.481C108.858 75.0277 110.137 73.653 111.416 72.3176C112.983 70.6679 114.592 69.1361 116.119 67.6042C116.862 66.858 117.604 66.151 118.347 65.444C121.482 62.4981 124.824 59.788 128.414 57.3528C132.828 54.2891 137.449 51.304 142.441 49.2223C144.339 48.4367 146.361 47.9261 148.341 47.2977C149.662 46.8656 150.941 46.4336 152.302 46.2765C152.508 46.1586 152.756 46.0408 153.003 45.923C153.911 45.5695 154.819 45.4516 155.809 45.3731C155.355 45.216 154.901 45.0589 154.447 44.941C153.003 44.8625 151.601 44.9803 150.899 45.1374C145.164 46.355 139.718 48.6724 134.726 51.6182C128.62 55.2318 122.844 59.3559 117.687 64.1478C117.315 64.5013 116.903 64.8548 116.532 65.2083C114.469 67.1329 112.323 69.1361 110.26 71.2963C109.6 72.0033 108.94 72.7103 108.321 73.4566C106.506 75.6169 104.856 77.895 103.7 80.2517Z" fill="#99ACE3"/>
<path d="M109.228 71.5718C111.25 70.3542 112.158 73.575 112.034 74.9497C111.828 77.6599 109.435 82.8838 108.486 84.1799C109.022 83.9443 109.558 83.7479 110.136 83.5515C111.167 83.198 112.199 82.8445 113.189 82.491C112.942 80.9199 112.199 77.542 114.798 73.3393C115.252 72.6323 115.871 71.7289 116.861 71.6897C118.181 71.6504 117.81 72.9465 117.562 73.7714C117.109 75.1461 115.293 79.8201 114.551 82.0197C116.614 81.3127 118.635 80.5664 120.698 79.8594C120.822 76.7565 120.946 72.9858 123.297 70.5506C124.824 68.9402 125.814 71.0219 125.731 72.3574C125.566 74.7926 124.164 77.2278 122.513 79.231C123.462 78.9167 124.452 78.5632 125.401 78.249C125.566 78.2097 125.731 78.1312 125.938 78.0919C125.855 76.5601 125.608 75.1068 126.103 73.575C126.598 72.0824 127.753 70.9434 129.156 70.1578C129.775 69.8043 130.476 69.333 131.219 69.4901C132.291 69.7258 131.466 70.6291 131.054 71.2183C130.146 72.4359 129.28 73.7714 128.537 75.0675C128.124 75.7745 127.712 76.4422 127.217 77.11C127.093 77.2671 126.969 77.542 126.845 77.7777C128.248 77.3456 129.61 76.9136 131.054 76.5208C131.879 74.007 132.91 70.9826 135.386 69.4901C137.036 68.5082 137.325 70.4328 136.954 71.4933C136.335 73.1822 134.973 74.6748 133.447 75.8531C134.066 75.696 134.684 75.5389 135.303 75.3818C137.16 72.868 139.429 69.7258 142.771 68.9402C144.875 68.4296 144.504 70.6292 143.679 71.6897C142.853 72.7109 141.739 73.575 140.502 74.2427C140.791 74.2034 141.079 74.1249 141.368 74.0856C142.028 73.9678 142.73 73.8499 143.39 73.7714C144.669 71.4147 146.237 68.5867 148.96 67.5655C150.734 66.8978 150.692 68.8224 150.115 69.8043C149.166 71.3754 147.516 72.6716 145.741 73.575C146.773 73.4964 147.804 73.4964 148.836 73.4571C150.156 71.7289 151.806 69.6472 154.158 69.1366C155.685 68.7831 155.396 70.3542 154.818 71.1005C153.911 72.161 152.59 72.9465 151.146 73.4964C152.26 73.4964 153.415 73.4964 154.571 73.4964C155.437 72.9465 156.345 72.4359 157.17 72.0431C158.16 71.5325 159.315 71.1398 160.388 71.6111C161.832 72.2003 161.749 73.3 160.512 74.1249C159.934 74.5176 159.315 74.6747 158.655 74.714C159.191 74.989 159.645 75.3818 159.893 75.8138C160.14 76.2459 160.14 76.5994 159.975 76.8743C159.687 77.3064 158.944 77.5027 158.243 77.3849C157.005 77.2278 155.932 76.403 154.859 75.8138C154.529 75.6174 154.158 75.4996 153.828 75.3425C153.333 75.1461 152.838 74.989 152.343 74.7926C151.6 74.7926 150.857 74.7926 150.115 74.7926C151.889 75.2639 153.745 76.0888 154.901 77.3849C155.52 78.0919 155.891 79.6237 154.323 79.3488C151.848 78.8775 150.074 76.6779 148.63 74.9104V74.7926C148.299 74.7926 147.928 74.7926 147.598 74.7926H147.557C145.783 74.8319 144.05 74.9497 142.276 75.2246C142.895 75.421 143.472 75.6567 143.967 76.0102C144.916 76.5994 145.783 78.1705 144.009 78.3276C141.698 78.524 139.553 77.3849 137.655 76.1673C135.386 76.6779 133.117 77.2671 130.889 77.8955C133.075 77.8955 135.468 78.249 137.201 79.3488C138.191 79.9772 139.181 81.6662 137.242 81.8233C134.189 82.0982 131.301 80.0951 128.991 78.524V78.4454C127.959 78.7596 126.887 79.0738 125.855 79.4273C125.36 79.5845 124.824 79.7809 124.329 79.938C127.382 79.8594 130.641 80.2522 133.034 81.6269C134.396 82.4125 135.675 84.5335 133.034 84.8477C128.826 85.319 124.948 82.8052 121.812 80.8413C120.368 81.352 118.965 81.8626 117.521 82.3732C120.203 83.1587 125.896 84.4549 127.712 85.0048C128.537 85.2797 130.435 86.1046 129.527 87.2436C128.991 87.8721 127.258 87.9899 126.474 87.9113C124.7 87.7542 118.924 85.2797 115.334 83.1587C114.303 83.5122 113.313 83.8657 112.281 84.1799C111.91 84.2978 111.539 84.4156 111.167 84.5727C115.252 85.3976 123.132 87.5186 124.783 88.6969C125.608 89.286 126.845 90.5037 126.185 91.5642C125.525 92.6639 123.627 91.9962 122.555 91.8391C120.12 91.5249 113.395 88.0684 112.24 87.2436C111.332 86.6152 110.549 85.7903 109.723 85.1226C109.723 85.1226 109.682 85.1226 109.682 85.1619C108.857 85.5154 108.073 85.8689 107.289 86.2224C107.33 86.2617 107.413 86.3009 107.454 86.3402C110.425 87.9899 116.944 91.0928 118.924 92.2712C119.873 92.821 121.895 94.3136 120.409 95.4134C119.625 96.0418 117.48 95.6883 116.572 95.3741C114.633 94.7456 109.146 90.7786 105.391 87.4007C105.309 87.3222 105.268 87.2829 105.185 87.2043C102.668 88.5005 100.234 89.9145 97.5937 91.2499C96.8098 91.6427 96.0671 90.5037 96.851 90.1109C100.605 88.1863 104.071 85.9475 107.908 84.2978C106.67 79.7809 108.279 72.1217 109.228 71.5718Z" fill="#D69C25"/>
<path d="M82.865 90.6609C82.9476 91.1715 84.2678 91.3286 84.7629 91.4857C86.1656 91.9178 87.4859 92.5855 88.8887 93.0176C90.6627 93.5675 92.5193 94.353 94.1696 95.1778C94.3347 95.2564 94.4997 95.335 94.6647 95.4528C95.2424 95.8063 95.82 96.1991 96.1913 96.7097C96.6864 97.3774 96.9339 98.1629 96.5213 99.0663C95.8612 100.598 93.097 101.541 91.6529 102.13C89.6726 102.916 87.5684 103.701 86.0831 105.154C85.0104 106.215 84.5566 107.707 84.8454 109.2C85.2992 111.4 86.7433 112.421 88.7649 113.285C91.3229 114.385 94.1697 114.188 96.8927 114.07C99.6157 113.953 102.586 113.442 105.227 112.892C107.455 112.421 109.724 111.714 111.952 111.046C110.673 110.103 109.476 109.082 108.321 107.943C107.001 106.647 105.639 104.683 108.362 104.094C109.889 103.74 111.704 104.487 113.107 105.076C115.17 105.94 117.274 106.843 119.131 108.061C119.337 108.218 119.543 108.336 119.791 108.454C120.245 108.297 120.657 108.1 121.111 107.904C122.926 107.118 124.7 106.215 126.392 105.272C125.361 104.369 124.123 103.662 123.256 103.387C122.019 102.994 119.667 102.641 119.213 101.305C118.594 99.3806 120.698 99.3413 122.101 99.4198C123.999 99.5377 125.526 100.52 127.217 101.187C127.836 101.423 128.414 101.698 128.95 101.973C129.981 102.483 131.26 102.483 132.251 101.894C134.437 100.598 137.243 98.9485 139.966 99.1056C140.255 99.1056 140.543 99.1449 140.832 99.2234C141.905 99.4591 142.813 99.8519 143.761 100.362C143.431 99.9697 143.101 99.5377 142.771 99.1449C139.801 95.767 135.881 92.8997 131.962 90.6609C131.962 90.6609 131.92 90.6609 131.92 90.6216C130.889 90.0325 129.61 90.111 128.579 90.7002C128.29 90.8966 128.001 91.0537 127.671 91.2501C126.392 91.9963 124.329 93.4889 122.761 93.1354C121.977 92.939 121.812 92.4284 121.936 91.8392C122.101 90.9751 122.803 89.9932 123.256 89.4826C123.586 89.1291 123.999 88.8541 124.412 88.5792C124.824 88.3435 125.278 88.1471 125.691 87.9115C125.443 87.8329 125.195 87.7151 124.948 87.5972C123.256 86.8903 121.606 86.0654 119.873 85.4763C119.584 85.3584 119.296 85.2799 118.966 85.162C117.357 84.6121 115.747 84.0623 114.138 83.5516C113.932 83.4731 113.767 83.4338 113.561 83.3553C113.355 83.5516 113.107 83.748 112.901 83.9444C112.612 84.2194 112.323 84.4943 112.034 84.8085C111.622 85.2406 111.209 85.7119 110.797 86.144C110.466 86.4975 110.178 86.8117 109.889 87.1259C109.765 87.2437 109.683 87.3616 109.559 87.4794C108.981 88.1079 108.404 88.8149 107.785 89.5219C106.506 90.9751 105.062 92.3106 103.04 92.7033C101.39 93.0176 100.235 92.7426 99.9045 91.1322C99.822 90.7787 99.822 90.4645 99.822 90.1503C99.8632 89.4433 100.111 88.8149 100.482 88.2257C100.688 87.8722 100.936 87.558 101.225 87.2438C102.669 85.5548 104.525 84.5729 106.382 83.3945C106.753 83.1589 107.166 82.9232 107.537 82.7268C107.826 82.5697 108.115 82.4126 108.404 82.2948C108.115 82.1769 107.785 82.0591 107.455 81.9413C106.96 81.7449 106.423 81.5485 105.928 81.3521C105.598 81.2343 105.227 81.0772 104.855 80.92C104.443 80.7237 104.03 80.5273 103.618 80.3309C102.504 79.781 101.307 79.3097 100.152 79.2704C98.708 79.1918 96.9339 79.9381 95.6549 80.488C92.8907 81.627 90.6627 83.2767 88.311 85.0442C86.7845 86.2225 85.1755 87.4401 84.0203 88.9327C83.814 89.1684 82.7825 90.1896 82.865 90.6609Z" fill="#95455C"/>
<path d="M73.8706 102.995C79.3578 99.8524 86.5779 98.7133 92.7254 97.3779C93.8806 97.1422 95.0358 96.9065 96.191 96.7101C100.977 95.846 105.845 95.3354 110.714 95.1783C112.364 95.139 114.014 95.0998 115.706 95.0605C117.356 95.0605 119.007 95.0605 120.657 95.139C123.462 95.2569 126.227 95.4925 128.95 95.9639C131.219 96.3566 133.405 97.1029 135.633 97.6921C137.119 98.0849 138.604 98.4384 139.965 99.1061C140.254 99.1061 140.543 99.1454 140.832 99.2239C141.905 99.4596 142.812 99.8524 143.761 100.363C143.431 99.9702 143.101 99.5381 142.771 99.1454C141.492 98.242 140.131 97.535 139.388 97.26C133.364 95.0212 126.928 93.9214 120.492 93.6858C120.409 93.6858 120.327 93.6858 120.244 93.6858C117.893 93.6072 115.582 93.5679 113.23 93.6072C107.578 93.725 101.967 94.1964 96.3973 95.1783C95.8197 95.2961 95.2421 95.3747 94.6232 95.4925C87.4031 96.7494 79.1928 98.242 72.9629 101.777C72.179 102.248 73.0041 103.466 73.8706 102.995Z" fill="#95455C"/>
<path d="M73.581 118.39L31.7456 102.954C28.3212 101.697 26.8772 98.1227 28.4862 94.9805L74.6949 5.15247C76.304 2.01026 80.3885 0.478427 83.8129 1.73531L125.648 17.1714C129.073 18.4283 130.517 22.0026 128.908 25.1448L82.6989 114.973C81.0899 118.115 77.0054 119.647 73.581 118.39Z" fill="#60AECF"/>
<path d="M70.1154 117.094L28.2388 101.658C24.8144 100.401 23.3704 96.8269 24.9794 93.6846L71.1881 3.85657C72.7971 0.71436 76.8817 -0.817472 80.3061 0.439414L122.141 15.8755C125.566 17.1324 127.01 20.7067 125.401 23.8489L79.1921 113.677C77.583 116.819 73.4985 118.351 70.1154 117.094Z" fill="url(#paint0_linear_347_15)"/>
<path d="M122.884 24.2027L111.002 47.3373L96.8503 74.871L88.5987 90.8962L86.1646 95.6096L80.471 106.647C80.3059 106.961 79.8521 107.157 79.522 107L77.0466 106.097L76.8403 106.018L62.8126 100.833L62.6476 100.755L30.6729 88.9716C30.3015 88.8538 30.1365 88.461 30.3428 88.1075L45.7319 58.1779L59.3883 31.6262L70.7341 9.59145L72.7558 5.66368C72.9208 5.34946 73.3746 5.15307 73.7047 5.31018L97.0153 13.912L122.595 23.3386C122.884 23.4957 123.049 23.8492 122.884 24.2027Z" fill="#96BDFF"/>
<path d="M110.96 47.2968L96.809 74.8305L70.6104 9.62954L72.632 5.70176C72.797 5.38754 73.2509 5.19115 73.5809 5.34826L96.8915 13.9501L110.96 47.2968Z" fill="#96BDFF"/>
<path d="M86.1233 95.57L80.4297 106.607C80.2647 106.921 79.8108 107.118 79.4808 106.961L77.0053 106.057L76.799 105.979L62.7714 100.794L45.6494 58.1777L59.3057 31.626L86.1233 95.57Z" fill="#96BDFF"/>
<path d="M110.259 14.972L89.2173 7.23426C88.9285 7.11643 88.846 6.84149 88.9698 6.60582C89.0935 6.37015 89.4236 6.25232 89.7124 6.33088L110.754 14.0686C111.043 14.1864 111.125 14.4614 111.001 14.697C110.878 14.9327 110.548 15.0505 110.259 14.972Z" fill="#F9FAFF"/>
<path d="M54.0232 106.815C56.4808 105.949 57.7937 103.499 56.9556 101.342C56.1175 99.1858 53.4458 98.1393 50.9881 99.0049C48.5304 99.8705 47.2175 102.321 48.0556 104.477C48.8937 106.634 51.5655 107.68 54.0232 106.815Z" fill="#99ACE3"/>
<path d="M87.7326 61.2019C87.2375 59.8272 86.7012 58.4918 86.0411 57.1956C85.2159 55.546 84.5145 53.8177 83.6894 52.1681C82.823 50.4791 82.0391 48.8295 81.4202 47.0227C80.8839 45.4909 80.0999 43.9198 79.7286 42.3094C79.4398 40.9347 78.9447 39.6385 78.5734 38.2638C78.3671 37.3997 78.1196 36.5356 77.7895 35.75L66.3611 39.9527C65.4947 42.3879 65.4947 45.2552 65.701 47.8475C65.9898 51.4611 66.2374 55.1925 65.4535 58.7667C64.9171 61.2805 63.308 63.5586 62.0703 65.6403C62.5241 65.9545 63.2255 65.9545 63.7206 66.0724C64.422 66.2295 65.1234 66.4259 65.8248 66.6223C67.6401 67.1329 69.4142 67.3293 71.2708 67.6435C74.3651 68.1934 77.4595 68.7825 80.5538 69.3324C82.3279 69.6466 84.1432 69.8823 85.876 70.3536C86.7012 70.5893 87.4438 71.0214 88.3102 70.9821C88.3515 69.5288 88.269 68.0755 88.3515 66.6615C88.5165 64.7369 88.3515 63.0087 87.7326 61.2019Z" fill="#E26B6D"/>
<path d="M67.8052 41.4448C67.8052 41.327 67.5989 41.327 67.5989 41.4448C67.4339 44.9013 68.6716 48.2006 68.8779 51.657C69.1254 55.467 68.3828 59.2376 67.3101 62.8904C67.2689 63.0083 67.4751 63.0475 67.5164 62.9297C68.5478 59.4733 69.2492 55.9776 69.1255 52.364C69.0429 48.7112 67.5989 45.1369 67.8052 41.4448Z" fill="#341D3F"/>
<path d="M70.3631 42.7808C70.3218 42.6629 70.1155 42.6629 70.1568 42.7808C71.3533 49.7722 71.5183 56.8422 70.7344 63.8729C70.7344 63.9907 70.9407 64.03 70.9407 63.9121C71.7659 56.8814 71.5596 49.8115 70.3631 42.7808Z" fill="#341D3F"/>
<path d="M72.343 40.3459C72.3017 40.228 72.1367 40.2673 72.1367 40.4244C73.9521 49.1833 77.0464 57.7459 77.0051 66.7405C77.0051 66.8583 77.2114 66.8583 77.2114 66.7405C77.2939 57.6673 74.1996 49.1048 72.343 40.3459Z" fill="#341D3F"/>
<path d="M78.9857 55.8212C77.748 51.8149 77.2529 47.6122 76.0564 43.5666C76.0152 43.4487 75.8089 43.488 75.8502 43.6451C76.9641 47.455 77.5005 51.3828 78.5732 55.1928C79.6871 59.1598 81.915 62.8519 81.7913 67.0546C81.7913 67.1724 81.9975 67.1724 81.9975 67.0546C82.1213 63.0483 80.0997 59.5526 78.9857 55.8212Z" fill="#341D3F"/>
<path d="M81.4207 53.4645C81.3794 53.3467 81.1732 53.4253 81.2144 53.5431C83.2773 57.7851 84.5975 62.2235 85.1339 66.8582C85.1339 66.9761 85.3402 66.9761 85.3402 66.8582C84.8038 62.1842 83.4836 57.7065 81.4207 53.4645Z" fill="#341D3F"/>
<path d="M76.758 38.6955C76.7168 38.5776 76.5518 38.6169 76.5518 38.774C77.2531 42.0341 78.1608 45.2156 79.2335 48.3578C79.2748 48.4756 79.4811 48.4363 79.4398 48.2792C78.3258 45.137 77.4594 41.9555 76.758 38.6955Z" fill="#341D3F"/>
<path d="M74.9009 52.7963C75.6848 54.1318 75.4373 55.8207 74.3233 56.8812L62.276 68.2325C60.997 69.4501 58.8104 69.2144 57.8615 67.7219L50.5176 55.9778L54.1483 54.9566L59.9243 61.7516L69.1661 52.1286C70.8164 50.4397 73.7457 50.7539 74.9009 52.7963Z" fill="#60AECF"/>
<path d="M51.7554 56.724C51.7554 56.6847 51.7554 56.6455 51.7554 56.6062C51.7554 56.5276 51.7554 56.4491 51.7554 56.3705C51.7554 56.3312 51.7141 56.292 51.7141 56.2134C51.6729 54.2103 51.8792 52.2856 52.333 50.361C52.4155 49.7719 52.498 49.222 52.7456 48.7899C52.7868 48.6721 52.9106 48.6328 53.0344 48.6328C53.2819 48.6328 53.447 48.7114 53.7358 48.7506C53.8183 48.7899 53.9008 48.8292 53.9421 48.9078C54.0246 48.947 54.0658 49.0256 54.0658 49.1041C54.3546 51.0288 56.1287 56.6455 53.9008 58.2558C53.6533 58.5308 53.3232 58.6879 52.8281 58.6486C51.8792 58.5701 51.6729 57.5488 51.7554 56.724Z" fill="#595CFF"/>
<path d="M52.9524 50.9116C52.9524 50.7938 53.1587 50.7938 53.1587 50.9116C53.365 52.9541 53.365 54.9965 53.1174 57.0389C53.1174 57.1568 52.9111 57.1568 52.9111 57.0389C53.1174 54.9965 53.1174 52.9541 52.9524 50.9116Z" fill="#341D3F"/>
<path d="M51.88 56.0963L50.7248 56.2534L49.2808 53.9361C49.2808 53.9361 48.2906 52.4042 50.2709 51.1866C51.4262 50.4796 52.9114 50.3225 54.2317 50.7153L55.3044 51.0295C55.3044 51.0295 56.047 52.0507 52.8289 51.7365C52.8289 51.7365 55.3456 51.658 55.3869 52.6006C55.3869 52.6006 55.7995 53.6611 52.045 52.6792C52.045 52.6792 55.1394 52.9149 55.3456 54.0932C55.3456 54.0932 55.3869 55.1144 51.7562 53.8575C51.8387 53.8968 51.8387 54.3288 51.88 56.0963Z" fill="#EBADAB"/>
<path d="M53.0755 44.9806C52.8279 44.9413 38.8416 38.1855 38.8416 38.1855L38.7178 54.5251L52.9104 49.9296C55.0971 50.126 55.3859 45.177 53.0755 44.9806Z" fill="#8D90FF"/>
<path d="M36.3665 46.3158C36.3253 50.872 37.2742 54.5641 38.5119 54.6034C39.4609 54.6034 40.3273 52.286 40.6161 49.0652C40.6986 48.2404 40.7398 47.337 40.7398 46.3943C40.7398 45.1767 40.6986 44.0377 40.5748 42.9772C40.2448 40.1099 39.5021 38.146 38.5944 38.1068C37.398 38.0675 36.4078 41.7596 36.3665 46.3158Z" fill="#595CFF"/>
<path d="M38.1816 45.9619C38.1816 47.4937 39.2131 48.7899 40.5746 49.0255C40.6571 48.2007 40.6984 47.2973 40.6984 46.3547C40.6984 45.1371 40.6571 43.998 40.5333 42.9375C39.2543 43.1732 38.2229 44.4301 38.1816 45.9619Z" fill="#8D90FF"/>
<path d="M52.7041 50.0862H54.1481C55.6747 50.0862 56.9124 48.9472 56.9124 47.4939C56.9124 46.0406 55.7159 44.8623 54.1894 44.8623H52.7454C54.3957 46.7084 54.2306 48.4366 52.7041 50.0862Z" fill="#595CFF"/>
<path d="M41.8118 40.1883C45.2774 41.7987 48.7018 43.4091 52.1262 45.0587C52.25 45.098 52.1262 45.2944 52.0024 45.2158C48.578 43.5662 45.1536 41.9558 41.688 40.3454C41.5642 40.3061 41.688 40.1097 41.8118 40.1883Z" fill="#341D3F"/>
<path d="M39.3785 53.4249C41.3176 49.0651 40.905 44.0375 39.7911 39.5206C39.7498 39.4027 39.9561 39.3635 39.9974 39.4813C41.1113 44.0375 41.5239 49.0651 39.5848 53.5034C39.5023 53.582 39.296 53.5427 39.3785 53.4249Z" fill="#341D3F"/>
<path d="M38.4294 39.2851C38.4707 39.1673 38.677 39.2851 38.5944 39.403C38.1406 40.3064 37.8931 41.249 37.8518 42.2702C37.8518 42.3881 37.6455 42.3881 37.6455 42.2702C37.6868 41.2097 37.9756 40.2278 38.4294 39.2851Z" fill="#341D3F"/>
<path d="M37.5215 40.5809C37.5627 40.4631 37.769 40.5024 37.7278 40.6202C37.3977 41.8378 37.2327 43.0554 37.2327 44.3123C37.2327 44.4301 37.0264 44.4301 37.0264 44.3123C37.0264 43.0554 37.1914 41.7985 37.5215 40.5809Z" fill="#341D3F"/>
<path d="M39.6256 44.2344C39.7081 44.1559 39.8731 44.2737 39.7906 44.3915C39.048 45.02 39.048 46.6304 39.5018 47.3766C39.5843 47.4945 39.378 47.573 39.3368 47.4552C38.8004 46.6304 38.8004 44.9414 39.6256 44.2344Z" fill="#341D3F"/>
<path d="M52.5808 50.0864C54.1486 48.9866 54.4374 47.062 53.2821 45.5695C53.1996 45.4516 53.3647 45.3731 53.4472 45.4909C54.6436 47.062 54.3136 49.1045 52.6633 50.2828C52.5395 50.3613 52.457 50.165 52.5808 50.0864Z" fill="#341D3F"/>
<path d="M51.4671 51.2256C52.3748 51.2649 53.2 51.5005 54.0664 51.7362C54.1902 51.7755 54.1489 51.9719 54.0251 51.9326C53.2 51.6969 52.3748 51.4613 51.5084 51.422C51.3434 51.422 51.3434 51.2256 51.4671 51.2256Z" fill="#341D3F"/>
<path d="M51.6317 52.3255C52.4569 52.4826 53.282 52.7183 54.1072 52.9932C54.231 53.0325 54.1897 53.2289 54.0659 53.1896C53.2408 52.9146 52.4156 52.679 51.5905 52.5219C51.4254 52.4826 51.508 52.2862 51.6317 52.3255Z" fill="#341D3F"/>
<path d="M50.1054 52.9538C50.6418 53.268 51.2194 53.5429 51.797 53.8179C51.8795 53.8179 51.9208 53.8179 51.9208 53.8964C51.8795 54.1321 51.8795 54.3678 51.8383 54.6034C51.8383 54.7998 51.8383 54.9962 51.8383 55.1926C51.8383 55.3104 51.6732 55.3104 51.632 55.2319C51.632 55.1926 51.5907 55.114 51.5907 55.0748C51.4257 54.7213 51.3019 54.3285 51.2194 53.9357C51.2194 53.8964 51.2194 53.8572 51.2607 53.8179C50.8068 53.6215 50.3943 53.3858 49.9404 53.1502C49.8992 53.0323 49.9817 52.8752 50.1054 52.9538Z" fill="#341D3F"/>
<path d="M88.5586 90.857L80.472 106.607C80.307 106.922 79.8532 107.118 79.5231 106.961L77.0476 106.057L76.8413 105.979L62.6074 100.755C63.185 98.0841 64.8766 90.8178 67.9297 84.4548L85.423 83.3157C85.423 83.2764 87.4033 87.2435 88.5586 90.857Z" fill="#4E3058"/>
<path d="M67.8876 84.4542C67.8876 84.4542 69.7029 76.7558 68.589 74.5563L65.2059 67.8398C64.0506 65.5617 63.8444 62.9301 64.5457 60.5341C64.7933 59.7093 65.1233 58.9238 65.5772 58.1775L68.6303 53.1892C69.4554 51.8145 70.6932 50.8718 72.1372 50.4398C72.6735 50.2827 73.2511 50.2041 73.8287 50.2041H75.1902C75.9329 50.2041 76.6755 50.3612 77.3769 50.6362C77.707 50.754 78.037 50.9504 78.3258 51.1468C79.5636 51.9323 80.595 52.9535 81.4202 54.1711C82.1216 55.2316 82.4929 56.8813 82.6166 58.4917C82.8229 60.6127 82.6579 62.7337 82.2041 64.7761C81.6264 67.447 81.6264 70.1964 81.9978 72.9066C82.2866 75.0669 82.7404 77.1879 83.4831 79.2303C83.8544 80.2908 84.3082 81.312 84.8446 82.294C85.0508 82.6475 85.5047 83.0795 85.2571 83.433C85.0508 83.7865 84.1019 83.9044 83.7306 84.0222C83.3593 84.1007 83.153 84.1793 82.7404 84.2579C78.9859 84.8863 75.149 85.2005 71.3533 85.2005C70.8582 85.2005 70.3631 85.1612 69.8267 85.122C69.3316 85.0827 68.424 85.0827 68.0526 84.7292C68.0114 84.6506 67.8876 84.5721 67.8876 84.4542Z" fill="#60AECF"/>
<path d="M74.4898 54.604C73.9122 55.1932 73.3346 55.8216 72.6332 56.293C72.0556 56.6857 70.5703 57.5499 69.9102 56.9607C69.8277 56.8821 69.6626 57 69.7451 57.1178C70.2815 57.5891 71.2717 57.1964 71.808 56.9607C72.922 56.4894 73.7884 55.586 74.6136 54.7219C74.7373 54.6433 74.5723 54.5255 74.4898 54.604Z" fill="#341D3F"/>
<path d="M70.364 52.7579C69.7863 53.897 69.25 55.0753 69.25 56.3715C69.25 56.4893 69.4563 56.4893 69.4563 56.3715C69.4563 55.1146 69.9926 53.9755 70.529 52.8757C70.6115 52.7186 70.4465 52.6401 70.364 52.7579Z" fill="#341D3F"/>
<path d="M77.2129 51.3045C77.1717 51.1867 76.9654 51.226 77.0067 51.3438C77.1717 52.0508 76.7179 52.6007 76.264 53.1113C76.1815 53.1899 76.3053 53.347 76.429 53.2684C76.9241 52.7185 77.378 52.0901 77.2129 51.3045Z" fill="#341D3F"/>
<path d="M71.9724 67.7615C70.9822 67.8794 70.0746 67.683 69.2081 67.2509C68.5893 66.9367 67.3103 66.2297 67.3103 65.4442C67.3103 65.2478 67.0215 65.2478 67.0215 65.4442C67.0215 66.3083 68.218 67.0153 68.9193 67.4081C69.8683 67.9579 70.941 68.1936 72.0549 68.0365C72.22 67.9972 72.1374 67.7223 71.9724 67.7615Z" fill="#341D3F"/>
<path d="M61.9882 78.7594L57.326 76.3242L54.1492 78.7594C53.5303 79.1915 52.8702 79.7021 52.2513 80.1734L51.6325 80.0556C50.7248 79.8592 49.7759 79.8592 48.8269 80.0163L46.6403 80.4091C46.269 80.5269 46.1864 80.9983 46.6815 81.0375L48.4144 80.9197L47.1766 81.4696C46.4752 81.7838 45.8151 82.1766 45.1963 82.5694L44.2061 83.2371C43.9585 83.4728 44.1648 83.9441 44.5774 83.787L47.3829 82.4123L45.7326 83.3942L44.041 84.5333C43.6697 84.8475 44.0823 85.2795 44.3711 85.0831L45.8976 84.1798L47.8368 83.2371L46.599 84.2976C46.3515 84.5333 46.1039 84.7689 45.8976 85.0831L45.2375 86.0651C45.1137 86.615 45.4025 86.615 45.8151 86.4971L46.434 85.6723C46.6815 85.3581 46.9703 85.0831 47.3004 84.8475L48.6206 83.9834L46.9703 86.4579C46.8053 86.8506 47.4242 87.1256 47.5892 86.7328C48.1668 85.7116 49.4871 84.4547 49.4871 84.4547C50.7661 84.3369 52.0038 83.8655 53.0765 83.1193L54.4793 82.0588L61.9882 78.7594Z" fill="#EBADAB"/>
<path d="M73.664 56.7635L68.383 66.8578L53.2002 79.6623L53.7778 83.0402L65.8251 76.8344C70.2397 74.5562 74.0354 71.2569 76.8822 67.2113L80.8016 61.6339C82.1632 59.7093 82.617 57.2348 81.9156 55.0352C81.0079 52.2465 79.1101 51.6966 75.9332 54.0533C74.9843 54.7996 74.2004 55.703 73.664 56.7635Z" fill="#60AECF"/>
<path d="M47.3002 85.8688L20.4414 85.6724C19.8638 85.6724 19.3275 85.2796 19.2449 84.7297L16.0268 69.5292C15.8618 68.783 16.4807 68.1152 17.2646 68.1152L44.1234 68.3116C44.701 68.3116 45.2373 68.7044 45.3198 69.2543L48.5379 84.4548C48.6617 85.1618 48.0841 85.8688 47.3002 85.8688Z" fill="#D2E0E6"/>
<path d="M29.3125 77.3454C29.3125 78.4844 30.3852 79.4664 31.7054 79.4664C33.0257 79.4664 34.0984 78.563 34.1397 77.3847C34.1397 76.2456 33.067 75.2637 31.7467 75.2637C30.3852 75.2637 29.3125 76.1671 29.3125 77.3454Z" fill="#B2DEE8"/>
<path d="M47.6413 85.8832L22.2266 85.7041L22.2147 87.2359L47.6294 87.415L47.6413 85.8832Z" fill="#B2DEE8"/>
<path d="M60.8853 85.9585L47.6416 85.8652L47.6297 87.3971L60.8734 87.4904L60.8853 85.9585Z" fill="#D2E0E6"/>
<path d="M43.1332 69.1368C38.6361 69.0582 34.0977 69.0582 29.6006 69.1761C29.4769 69.1761 29.4769 69.3724 29.6006 69.3724C34.0977 69.2546 38.6361 69.2546 43.1332 69.3332C43.2982 69.3332 43.257 69.1368 43.1332 69.1368Z" fill="#341D3F"/>
<path d="M44.3293 69.4513C44.2881 69.3335 44.123 69.3728 44.123 69.5299C45.1132 74.7145 46.0622 79.8992 46.9698 85.0838C47.0111 85.2017 47.2174 85.2017 47.1761 85.0838C46.2684 79.8599 45.3195 74.6753 44.3293 69.4513Z" fill="#341D3F"/>
<path d="M31.4567 75.1459C31.333 75.1852 31.3742 75.3423 31.5393 75.3423C34.5511 74.6746 34.7986 79.7414 31.663 79.3879C31.5392 79.3879 31.498 79.5843 31.6218 79.5843C33.0245 79.7414 34.2623 78.6809 34.1797 77.3062C34.0972 75.8529 32.942 74.8317 31.4567 75.1459Z" fill="#341D3F"/>
<path d="M60.1318 86.9291C56.2536 86.8899 52.3754 86.8899 48.4971 86.8506C48.3734 86.8506 48.3734 87.047 48.4971 87.047C52.3754 87.0863 56.2536 87.0862 60.1318 87.1255C60.2556 87.1255 60.2556 86.9291 60.1318 86.9291Z" fill="#341D3F"/>
<path d="M76.5928 51.6579C76.7166 52.2471 73.8698 54.6037 72.3845 55.8214C72.0132 56.0963 71.6006 56.332 71.1468 56.4105C68.5063 56.8033 71.3944 53.1505 71.1468 51.815L71.023 51.0295L70.7755 49.694L70.0328 47.1803L74.3237 44.313L75.0663 43.3311L75.1488 43.8024L75.4789 45.6092L76.139 49.0656L76.5928 51.6579Z" fill="#EBADAB"/>
<path d="M75.4382 45.6094C75.0256 48.2017 73.2515 50.2441 70.9824 50.9904L70.7348 49.655L69.9922 47.1412L74.283 44.2739L75.0256 43.292L75.1081 43.7633L75.4382 45.6094Z" fill="#E79092"/>
<path d="M78.7382 42.4669C79.027 41.3278 78.6557 39.8353 77.6655 39.796C77.3767 39.7567 77.0054 39.8746 76.6753 40.071C75.8914 36.8895 73.3334 33.3152 70.8167 33.1581C67.5161 32.9224 64.6693 34.4542 64.2155 42.4276C64.0504 45.5698 66.3196 48.8692 69.579 49.3798C72.0132 49.7333 74.86 47.298 76.1802 44.7057C77.2117 44.3915 78.3669 43.9202 78.7382 42.4669Z" fill="#EBADAB"/>
<path d="M68.1767 46.1202C67.9704 46.1202 67.8467 46.1202 67.8467 46.1202C67.7229 46.1202 67.6404 46.0024 67.6816 45.9238C67.6816 45.806 67.8054 45.7274 67.9292 45.7667C68.0117 45.7667 70.4872 46.0024 71.0648 43.7636C71.106 43.6457 71.1885 43.6064 71.3123 43.6064C71.4361 43.6457 71.4773 43.7243 71.4773 43.8421C70.8997 45.8845 68.9606 46.1202 68.1767 46.1202Z" fill="#341D3F"/>
<path d="M70.8589 41.4456C70.9001 41.7991 70.6113 42.0741 70.2813 42.1133C69.9512 42.1526 69.6624 41.8777 69.6211 41.5242C69.5799 41.1707 69.8687 40.8957 70.1987 40.8564C70.5701 40.8564 70.8589 41.0921 70.8589 41.4456Z" fill="#341D3F"/>
<path d="M66.8569 41.6028C66.8982 41.9563 66.6094 42.2313 66.2793 42.2706C65.9492 42.3098 65.6604 42.0349 65.6192 41.6814C65.5779 41.3279 65.8667 41.0529 66.1968 41.0137C66.5681 41.0137 66.8157 41.2493 66.8569 41.6028Z" fill="#341D3F"/>
<path d="M71.8486 40.3068C71.7661 40.3068 71.6836 40.2676 71.6423 40.2283C70.9822 39.2071 69.9507 39.6784 69.9095 39.7177C69.827 39.757 69.7032 39.7177 69.6207 39.6391C69.5794 39.5606 69.6207 39.4427 69.7032 39.3642C70.1983 39.1285 71.3122 38.9321 72.0136 40.0319C72.0549 40.1105 72.0549 40.2283 71.9311 40.3068C71.9311 40.3068 71.8899 40.3068 71.8486 40.3068Z" fill="#341D3F"/>
<path d="M66.9802 39.8356C66.9389 39.8749 66.8564 39.9142 66.8152 39.8749C65.7837 39.5607 65.4124 40.4248 65.4124 40.4641C65.3712 40.5426 65.2886 40.5819 65.2061 40.5426C65.1236 40.5034 65.0823 40.4248 65.1236 40.3463C65.2886 39.9535 65.9075 39.2465 66.9802 39.6C67.0627 39.6393 67.104 39.7178 67.104 39.7964C67.0215 39.8356 66.9802 39.8356 66.9802 39.8356Z" fill="#341D3F"/>
<path d="M68.0112 44.4702C68.0938 44.4702 68.1763 44.3524 68.1763 44.2739C68.1763 44.1953 68.0525 44.1167 67.97 44.1167C67.97 44.1167 67.5987 44.156 67.4749 43.9989C67.4336 43.9204 67.3511 43.6847 67.7637 43.017C67.805 42.9384 67.805 42.8206 67.6812 42.7813C67.5987 42.742 67.4749 42.742 67.4336 42.8599C67.0211 43.4883 66.9385 43.9596 67.1448 44.2346C67.3924 44.5488 67.97 44.4702 68.0112 44.4702Z" fill="#341D3F"/>
<path d="M77.0471 106.057L76.8408 105.978C75.9744 102.286 73.8703 98.9871 72.3025 95.4913C72.2612 95.3735 72.4262 95.2949 72.4675 95.4128C74.0353 98.9478 76.1807 102.286 77.0471 106.057Z" fill="#341D3F"/>
<path d="M81.998 83.512C78.2436 84.0619 74.4891 84.2583 70.6934 84.1012C70.5696 84.1012 70.5696 84.2976 70.6934 84.2976C74.4891 84.4547 78.2848 84.2583 82.0393 83.7084C82.1631 83.6691 82.1218 83.4727 81.998 83.512Z" fill="#341D3F"/>
<path d="M82.5751 82.2161C80.0584 82.8838 77.5417 83.198 74.9424 83.198C74.8187 83.198 74.8187 83.3944 74.9424 83.3944C77.5417 83.3944 80.0996 83.0802 82.6164 82.4125C82.7401 82.3732 82.6989 82.1768 82.5751 82.2161Z" fill="#341D3F"/>
<path d="M54.4797 79.7417C54.4797 79.6239 54.2734 79.6239 54.2734 79.7417C54.3147 80.488 54.4385 81.2342 54.6448 81.9805C54.686 82.0983 54.8923 82.0591 54.851 81.9412C54.6448 81.195 54.521 80.488 54.4797 79.7417Z" fill="#341D3F"/>
<path d="M55.0977 79.2311V81.3128C55.0977 81.4307 55.3039 81.4307 55.3039 81.3128V79.2311C55.3039 79.074 55.0977 79.074 55.0977 79.2311Z" fill="#341D3F"/>
<path d="M65.9073 59.7886C64.3808 61.7918 63.8857 64.227 64.5871 66.5836C64.6283 66.7015 64.8346 66.6622 64.7934 66.5051C64.092 64.1877 64.5458 61.831 66.0724 59.9064C66.1136 59.8279 65.9898 59.71 65.9073 59.7886Z" fill="#341D3F"/>
<path d="M77.4181 62.6162C76.2216 67.3688 72.5497 71.1002 69.4141 74.8709C69.3316 74.9887 69.4966 75.1065 69.5791 74.9887C72.7147 71.218 76.3867 67.4474 77.6244 62.6555C77.6657 62.4984 77.4594 62.4984 77.4181 62.6162Z" fill="#341D3F"/>
<path d="M74.4893 56.4891C72.1376 60.5347 69.6621 64.541 67.0629 68.4688C67.0216 68.5474 67.1454 68.6259 67.2279 68.5474C69.8272 64.6196 72.3026 60.6133 74.6543 56.5677C74.6956 56.4498 74.5305 56.4106 74.4893 56.4891Z" fill="#341D3F"/>
<path d="M77.8314 35.4754C77.8314 35.4754 77.8314 35.4361 77.7901 35.4361C76.5524 33.0009 72.9217 31.7833 70.24 32.0975C65.289 32.726 62.9786 37.6357 63.1024 41.9169C63.1436 42.8203 63.3087 43.7237 63.3087 44.6271C63.3087 42.8989 64.0513 41.2099 65.3303 39.9923C66.1142 39.246 67.1044 38.6962 68.1771 38.4212C69.126 38.1463 73.4993 37.7142 73.4993 37.7142C73.4993 37.7142 73.2518 38.5783 73.0868 38.9318C72.5917 39.953 73.128 41.0135 73.5819 41.9562C73.7881 42.3883 74.4895 43.9987 73.6643 44.195C77.5013 43.2524 79.4817 38.8533 77.8314 35.4754Z" fill="#E26B6D"/>
<path d="M73.6228 35.1224C69.9096 36.1829 65.3712 37.3612 63.4734 40.8962C63.4321 41.014 63.5971 41.0926 63.6384 40.9748C65.495 37.479 70.0333 36.34 73.664 35.2795C73.7878 35.2795 73.7465 35.0831 73.6228 35.1224Z" fill="#341D3F"/>
<path d="M75.0672 36.7321C74.2008 38.7746 74.3245 40.5028 75.0672 42.5845C75.1084 42.7023 75.3147 42.663 75.2735 42.5059C74.5308 40.5028 74.4071 38.8138 75.2322 36.8107C75.3147 36.6928 75.1497 36.6143 75.0672 36.7321Z" fill="#341D3F"/>
<path d="M75.8924 37.3218C75.9336 38.5001 75.8099 39.6392 75.521 40.7782C75.4798 40.896 75.6861 40.9353 75.7273 40.8175C76.0161 39.6784 76.1399 38.5001 76.0987 37.3218C76.0987 37.2039 75.8924 37.2039 75.8924 37.3218Z" fill="#341D3F"/>
<path d="M76.511 35.2394C76.4697 35.1216 76.2634 35.1609 76.3047 35.318C76.841 37.2426 77.3361 39.2065 76.2634 41.0918C76.1809 41.2096 76.3872 41.2882 76.4285 41.1703C77.5424 39.2457 77.0886 37.2033 76.511 35.2394Z" fill="#341D3F"/>
<path d="M72.7981 36.261C71.6429 36.4967 70.4877 36.8502 69.3737 37.2822C69.25 37.3215 69.3325 37.5179 69.4562 37.4786C70.5702 37.0466 71.6842 36.7324 72.8806 36.4574C73.0044 36.4181 72.9219 36.2217 72.7981 36.261Z" fill="#341D3F"/>
<path d="M72.6742 32.8043C70.7763 32.7257 68.961 33.197 67.4344 34.3361C65.7841 35.5537 65.124 37.2427 64.0925 38.8923C64.01 39.0101 64.2163 39.0887 64.2576 38.9709C65.2065 37.439 65.8666 35.8287 67.3519 34.6503C68.8784 33.472 70.735 32.9221 72.6742 33.0007C72.7979 33.0007 72.7979 32.8043 72.6742 32.8043Z" fill="#341D3F"/>
<path d="M75.2738 34.6108C72.9634 33.0397 68.7551 34.2966 67.1873 36.3783C67.1047 36.4961 67.311 36.5747 67.3523 36.4569C68.7551 34.5322 72.9221 33.2361 75.1087 34.7286C75.2738 34.8072 75.3976 34.6894 75.2738 34.6108Z" fill="#341D3F"/>
<path d="M71.0647 75.2637L70.8584 75.4208C70.8584 75.4208 70.8584 75.4208 70.8997 75.4208C70.9409 75.3815 70.9822 75.3422 71.0647 75.2637Z" fill="url(#paint1_linear_347_15)"/>
<path d="M21.2801 49.6152C22.1675 49.3183 22.6885 48.2733 22.2697 47.3687C21.9034 46.6206 21.0327 46.2734 20.2497 46.5354L14.438 48.4218C14.4364 47.0293 14.1564 45.6719 13.6676 44.3843C12.8823 42.5575 11.9763 41.7579 10.8102 41.9158C10.1489 42.021 9.74932 42.7351 9.9589 43.3615C10.5702 45.1885 10.6942 47.1205 10.4004 49.0181L10.0375 51.4032C9.91658 52.2562 9.44756 53.1097 8.76935 53.6848L11.267 61.3235C12.7292 61.3567 14.1737 61.1636 15.5831 60.6921L21.8645 58.6485C22.6997 58.3691 23.2035 57.446 22.9066 56.5586C22.7669 56.141 22.488 55.828 22.1397 55.6543C22.9749 55.3748 23.4264 54.4692 23.147 53.634C23.0073 53.2164 22.711 52.8512 22.3105 52.695C23.1457 52.4156 23.6494 51.4925 23.3525 50.6051C23.0384 49.8395 22.1153 49.3358 21.2801 49.6152Z" fill="#EFECF4"/>
<path d="M10.6242 62.6991L7.49217 63.747C6.81357 63.974 6.04728 63.5919 5.82024 62.9133L3.42739 55.5879C3.20035 54.9093 3.58245 54.143 4.26105 53.9159L7.39305 52.8681C8.07164 52.641 8.83794 53.0231 9.06498 53.7017L11.4578 61.0272C11.6849 61.7058 11.3028 62.4721 10.6242 62.6991Z" fill="#D69C25"/>
<path d="M8.14194 53.1984C7.35875 53.2863 6.62794 53.5308 5.94954 53.9319C5.56687 54.176 5.98525 54.7326 6.36792 54.4885C6.80279 54.2269 7.27259 54.0697 7.81205 53.9473C8.30106 55.4088 8.79006 56.8704 9.27907 58.332C9.41879 58.7496 10.0974 58.5226 9.9402 58.0528C9.45119 56.5912 8.96218 55.1296 8.47318 53.668C8.59485 53.5112 8.4726 53.1458 8.14194 53.1984Z" fill="#341D3F"/>
<path d="M11.6457 42.5066C11.2624 42.2285 10.8627 42.7686 11.1937 43.0641C13.1102 44.6286 13.5307 47.0998 13.3941 49.4672C13.3772 49.9372 14.0562 50.0583 14.1253 49.5709C14.2964 46.9597 13.7886 44.2275 11.6457 42.5066Z" fill="#341D3F"/>
<path d="M21.0528 48.7627C19.887 49.0947 18.7386 49.4789 17.5902 49.8631C17.1726 50.0028 17.3996 50.6814 17.8694 50.5242C19.0178 50.14 20.1662 49.7558 21.3321 49.4238C21.7497 49.2841 21.4704 48.6229 21.0528 48.7627Z" fill="#341D3F"/>
<path d="M21.4562 52.2257L19.1074 53.1857C18.7073 53.3776 18.9343 54.0562 19.3866 53.8468L21.7354 52.8868C22.1877 52.6775 21.9085 52.0163 21.4562 52.2257Z" fill="#341D3F"/>
<path d="M22.1041 55.3757L20.8341 55.9167C20.4339 56.1086 20.661 56.7872 21.1133 56.5778L22.3834 56.0368C22.7835 55.8449 22.5043 55.1837 22.1041 55.3757Z" fill="#341D3F"/>
<defs>
<linearGradient id="paint0_linear_347_15" x1="101.333" y1="31.7445" x2="17.088" y2="127.945" gradientUnits="userSpaceOnUse">
<stop offset="0.00388622" stop-color="#B2DEE8"/>
<stop offset="0.00883389" stop-color="#B3DEE8"/>
<stop offset="0.2452" stop-color="#CDE4ED"/>
<stop offset="0.4865" stop-color="#E0E9F1"/>
<stop offset="0.7349" stop-color="#EBEBF3"/>
<stop offset="1" stop-color="#EFECF4"/>
</linearGradient>
<linearGradient id="paint1_linear_347_15" x1="70.8444" y1="75.3613" x2="71.0524" y2="75.3522" gradientUnits="userSpaceOnUse">
<stop stop-color="#EFECF4"/>
<stop offset="1" stop-color="#E38C89"/>
</linearGradient>
</defs>
</svg>
