<svg width="73" height="79" viewBox="0 0 73 79" fill="none" xmlns="http://www.w3.org/2000/svg">
<path d="M16.0321 37.5412L2.83565 64.6796L5.85715 74.0601L22.2559 41.5081C20.0285 40.7944 18.04 39.56 16.4259 37.9527C16.2968 37.8176 16.1612 37.6826 16.0321 37.5412ZM21.0421 14.2925V5.67715C21.0421 4.11481 21.6813 2.69391 22.7143 1.66521C23.7537 0.636509 25.1805 0 26.7494 0C28.3182 0 29.745 0.636509 30.778 1.66521C31.811 2.69391 32.4502 4.11481 32.4502 5.67715V14.2861C34.1869 15.019 35.7493 16.0799 37.0664 17.3915C39.7069 20.0211 41.3404 23.6537 41.3404 27.6656C41.3404 30.3788 40.5914 32.9249 39.2873 35.098L40.2686 37.1168L50.0627 9.23903C50.1983 8.85326 50.4759 8.56394 50.818 8.39678C51.1602 8.22961 51.5605 8.19747 51.9543 8.33248L72.0073 15.3212C72.3946 15.4562 72.6852 15.7327 72.853 16.0735C73.0144 16.4078 73.0532 16.8128 72.9176 17.1986L54.2915 70.2217C54.1559 70.6075 53.8718 70.9032 53.5361 71.064C53.1939 71.2311 52.7936 71.2633 52.3998 71.1283L51.5282 70.8004L49.1911 78.0463C48.9587 78.76 48.1904 79.1522 47.4737 78.9271C47.0864 78.805 46.7958 78.5221 46.6409 78.1813L41.1015 67.1871L32.3469 64.1524V64.146H32.3404C31.9595 64.0109 31.6625 63.7409 31.5011 63.4002C31.3333 63.0594 31.301 62.6543 31.4366 62.2686L34.387 53.8718L28.4603 42.106C27.8986 42.1703 27.3304 42.2025 26.7494 42.2025C26.1619 42.2025 25.5808 42.1703 25.0127 42.0996L6.82557 78.1877C6.67063 78.5285 6.3801 78.805 5.99273 78.9335C5.27609 79.165 4.50135 78.7728 4.27538 78.0527L0.0788571 65.0268C-0.0373543 64.6925 -0.0308981 64.3196 0.136963 63.9788L14.1921 35.0787C12.8944 32.9056 12.1519 30.3724 12.1519 27.6656C12.1519 23.6537 13.7853 20.0211 16.4259 17.3915C17.743 16.0863 19.3054 15.0255 21.0421 14.2925ZM29.7128 13.4374V5.67715C29.7128 4.86704 29.377 4.12766 28.8412 3.59403C28.3053 3.06039 27.5629 2.72606 26.7494 2.72606C25.9359 2.72606 25.1934 3.06039 24.6576 3.59403C24.1217 4.12766 23.786 4.86704 23.786 5.67715V13.4374C24.7415 13.2381 25.7357 13.1352 26.7494 13.1352C27.763 13.1352 28.7508 13.2445 29.7128 13.4374ZM37.4473 37.5605C37.3246 37.6955 37.1955 37.8241 37.0664 37.9527C35.4459 39.5664 33.4509 40.8009 31.2171 41.5145L35.646 50.3035L35.6525 50.2842L38.4932 55.9099L38.4674 55.9035L43.0577 65.0139L43.0964 65.0268L44.859 68.5179L44.8138 68.4987L47.6158 74.0601L50.6373 64.6796L47.4221 58.0702L47.4027 58.0959L46.4924 56.225L46.5247 56.2378L41.7148 46.3494L41.7019 46.343L38.9903 40.7559V40.7494L37.4473 37.5605ZM26.7494 21.9178C28.344 21.9178 29.7902 22.5607 30.8361 23.6023C31.882 24.6438 32.5277 26.084 32.5277 27.6721C32.5277 29.2601 31.882 30.7003 30.8361 31.7419C29.7902 32.7834 28.344 33.4264 26.7494 33.4264C25.1547 33.4264 23.7085 32.7834 22.6626 31.7419C21.6167 30.7003 20.9711 29.2601 20.9711 27.6721C20.9711 26.084 21.6167 24.6438 22.6626 23.6023C23.7085 22.5607 25.1547 21.9178 26.7494 21.9178ZM28.8928 25.5311C28.344 24.9846 27.5822 24.6438 26.7429 24.6438C25.9036 24.6438 25.1418 24.9846 24.593 25.5311C24.0442 26.0776 23.702 26.8363 23.702 27.6721C23.702 28.5079 24.0442 29.2666 24.593 29.8131C25.1418 30.3596 25.9036 30.7003 26.7429 30.7003C27.5822 30.7003 28.344 30.3596 28.8928 29.8131C29.4416 29.2666 29.7838 28.5079 29.7838 27.6721C29.7838 26.8363 29.4416 26.0776 28.8928 25.5311ZM35.1295 19.3267C32.986 17.1922 30.0227 15.8677 26.7494 15.8677C23.4761 15.8677 20.5127 17.1857 18.3692 19.3267C16.2258 21.4613 14.8958 24.4124 14.8958 27.6721C14.8958 30.9318 16.2258 33.8829 18.3692 36.0174C20.5127 38.152 23.4761 39.4764 26.7494 39.4764C30.0227 39.4764 32.986 38.152 35.1295 36.0174C35.6266 35.5223 36.085 34.9823 36.4853 34.4036C36.5434 34.2879 36.6144 34.1786 36.7048 34.0822C37.9057 32.2369 38.6029 30.0381 38.6029 27.6721C38.6029 24.4124 37.273 21.4613 35.1295 19.3267ZM41.9472 40.563L43.9293 44.6392L45.1947 45.0828C45.9049 45.3272 46.3116 46.028 46.0986 46.6323C45.9694 46.9988 45.6402 47.256 45.2464 47.3396L53.3424 63.9788C53.407 64.1138 53.4457 64.2488 53.4651 64.3839L69.9477 17.4751L52.2255 11.3157L50.4952 16.2406L59.5985 19.4103C60.3086 19.6611 60.7089 20.349 60.4959 20.9598C60.2828 21.5642 59.5339 21.8599 58.8237 21.6092L49.7205 18.4395L47.2671 25.4025L51.5799 26.907C52.2901 27.1513 52.6968 27.8521 52.4837 28.4565C52.2707 29.0608 51.5153 29.3566 50.8051 29.1123L46.4924 27.6142L44.0132 34.6737L53.1164 37.8434C53.8266 38.0941 54.2334 38.7885 54.0203 39.3928C53.8073 39.9972 53.0519 40.293 52.3417 40.0486L43.2385 36.8789L41.9472 40.563ZM39.3454 63.7152L36.085 57.2472C34.4774 61.825 37.0341 54.534 34.4193 61.9986L39.3454 63.7152Z" fill="white"/>
</svg>
