<svg width="26" height="24" viewBox="0 0 26 24" fill="none" xmlns="http://www.w3.org/2000/svg">
<path d="M0 11.7342C0 21.5869 0.0111111 23.4664 0.0777778 23.4605C0.116667 23.4566 0.261111 23.4232 0.394444 23.382C0.527778 23.3428 0.777778 23.2702 0.944444 23.2211C1.40556 23.0858 2.8 22.6836 3.19444 22.5717C3.38889 22.5168 3.69444 22.4285 3.87778 22.3755C4.06111 22.3206 5 22.0479 5.97222 21.7674C6.93889 21.4868 7.97222 21.1866 8.27222 21.1003C8.57222 21.014 9.31111 20.8001 9.92222 20.6236C10.5278 20.447 11.1667 20.2645 11.3333 20.2155C12.2444 19.9467 12.5167 19.8702 12.5722 19.8623C12.6611 19.8506 13.1167 19.9722 14.9778 20.498C18.7389 21.5594 19.6333 21.8105 19.9222 21.8851C20.0889 21.9282 20.9111 22.1578 21.7556 22.3952C22.6 22.6326 23.8778 22.9916 24.5944 23.1937C25.3111 23.3977 25.9222 23.5625 25.95 23.5625C25.9778 23.5625 26 18.6008 26 11.8009C26 5.33246 26 0.0333538 26 0.0235443C26 0.0156956 20.15 0.00784874 13 0.00392532L0 0V11.7342Z" fill="#FF9F1C"/>
</svg>
