<svg width="67" height="148" viewBox="0 0 67 148" fill="none" xmlns="http://www.w3.org/2000/svg">
<path d="M5.56469 33.8723L9.14446 34.0539L10.5437 37.4762L14.5822 37.4041L14.9691 41.5033L19.5378 41.6233L20.3496 45.3606L24.73 46.1922L25.0249 44.5235L21.7431 43.8981L20.8917 39.9665L16.5006 39.8508L16.1147 35.68L11.6568 35.7561L10.2989 32.4208L6.9678 32.2454L6.51982 29.8636L4.87335 30.1667L5.56469 33.8723Z" fill="#F7CC7F"/>
<path d="M66.0967 39.7724L67 44.0206L62.8777 45.0865L63.5839 49.2884L59.7573 50.7714L59.7409 54H58L58.0164 49.6746L61.646 48.2688L60.9069 43.8816L64.9799 42.8466L64.1423 39L66.0967 39.7724Z" fill="#F48C7F"/>
<path d="M10.9665 88.0273L8.13262 87.7662L7.16007 91.913L2.93445 92.0051L1.66007 95L0 94.401L1.71037 90.3925L5.71799 90.3157L6.72408 86L11 86.3993L10.9665 88.0273Z" fill="#50BFA5"/>
<path d="M33.6889 86.3066C33.8086 86.3465 32.0926 88.5614 30.4364 90.1179C29.0995 91.794 27.8424 93.7894 27.4034 95.9644C26.7449 99.2568 27.2836 115.579 26.7249 116.737C21.7963 121.546 18.2445 133.618 17.2468 137.289C17.0472 138.008 16.6481 138.646 16.1094 139.165L16.3289 143.335L18.7633 145.59C18.7633 145.59 18.2245 142.198 19.302 139.684C19.302 139.684 31.6935 120.927 32.4318 119.49C33.8286 115.4 38.9568 94.4878 38.9568 94.4878L40.154 89.6789C40.154 89.6589 33.7089 86.3066 33.6889 86.3066Z" fill="#F7A491"/>
<path d="M13.4355 140.481C13.4355 140.481 14.992 142.856 15.1117 143.794C15.2514 144.731 16.0695 146.827 16.9874 146.966C17.1869 147.006 20.7387 147.266 20.7188 146.807C20.6988 146.467 19.4218 145.989 18.8231 145.569C17.7855 144.851 16.1892 139.064 16.1892 139.064C16.1892 139.064 13.4954 139.743 13.4355 140.481Z" fill="#FF9F1C"/>
<path d="M44.2844 93.532C44.2844 93.532 52.266 110.593 52.3059 113.586C52.3458 116.16 50.9091 130.587 51.3082 142.599C51.3282 143.038 51.8669 143.617 52.6651 143.976C53.124 144.175 55.2791 145.153 55.2791 145.153L55.5784 145.931L48.0956 145.393L47.9959 143.357C47.9959 143.357 45.0227 125.399 45.322 120.31C45.3619 119.512 45.761 114.723 45.761 114.723L36.7617 97.3432L42.4287 89.9004L44.2844 93.532Z" fill="#F7A491"/>
<path d="M45.0228 55.2387C43.8056 52.0261 40.6529 50.0706 37.3605 50.6692C36.3428 49.0329 34.6667 47.8357 32.8309 47.4366C29.2192 46.6584 24.3305 48.0951 24.4701 51.9063C23.0734 54.4804 23.0135 58.152 25.1685 60.1075C24.4302 63.5595 27.6628 66.8918 31.8531 66.7721C33.3098 69.1866 36.1034 70.743 38.877 70.4037C39.5355 70.3239 40.5531 70.1643 40.7327 70.2042C40.5132 70.1643 45.1825 73.7361 49.1533 68.2487C53.204 62.6416 50.3705 55.8373 45.0228 55.2387Z" fill="#1E2959"/>
<path d="M44.5641 35.9235C44.7637 35.4646 45.0031 35.0256 45.2825 34.6065L45.6017 34.1476C45.6417 34.0678 45.6616 34.0079 45.6816 33.948C45.8212 33.549 45.7215 32.252 45.7215 32.252L42.9878 32.9104L42.3891 34.4868C41.7905 34.2074 40.7529 32.0923 40.3738 32.6111C39.9348 33.2097 41.6109 35.8038 41.7506 36.5022C41.8903 37.2005 40.294 48.1154 39.835 50.2904C39.3761 52.4654 36.2832 58.5115 36.2832 58.5115L39.1167 62.1032C39.1167 62.1032 43.6462 52.8844 43.9456 50.0709C43.9855 49.7716 44.0054 49.3326 44.0453 48.7739L44.5641 35.9235Z" fill="#F7A491"/>
<path d="M25.7469 70.1041L22.3946 67.2706C22.3946 67.2706 19.6809 71.8002 17.5059 75.4917C15.3508 74.7135 9.7637 71.0818 9.50429 70.9022C9.22494 70.7426 8.62632 66.6321 8.14742 66.8516C7.66852 67.0711 8.50659 69.0266 7.92792 69.1662C7.34926 69.3059 3.05913 66.4525 2.97932 66.8316C2.81968 67.5499 5.53344 68.6873 5.41371 69.0066C5.27403 69.3259 2.68001 67.55 2.26097 67.9889C1.84194 68.4279 4.87495 69.4456 4.89491 69.7249C4.91486 70.0242 1.92175 69.1662 2.00157 69.8048C2.04148 70.144 4.67541 70.4832 4.51578 70.8424C4.35615 71.2016 2.30088 71.2614 2.38069 71.6605C2.46051 72.0396 4.09674 71.3811 5.07449 71.8002C6.07219 72.2392 6.99008 72.0197 8.38687 73.1969C9.7637 74.3543 16.568 81.0189 18.6832 80.4602C20.5189 79.9215 25.7469 70.1041 25.7469 70.1041Z" fill="#F7A491"/>
<path d="M37.4012 65.8743C37.6207 64.5573 39.636 61.2849 39.9752 60.4668C39.9752 60.4668 37.6207 57.4737 35.7051 57.6931C35.7051 57.6931 33.131 61.9434 31.6743 62.083C30.2177 62.2227 25.0895 62.4422 24.1916 63.0009C23.2936 63.5397 19.4824 69.4062 19.4824 69.4062C19.4824 69.4062 22.9145 72.9181 24.2913 72.8981C24.2913 72.8981 25.0297 71.4615 25.309 71.1422C25.5085 71.8206 28.7212 82.1768 28.7012 84.5114L28.7211 84.5314C31.7143 86.9458 36.0642 86.3871 38.3789 83.2942C38.3789 83.2942 38.0995 80.0616 38.2592 77.0885C38.5186 72.4392 39.4564 69.9649 37.4012 65.8743Z" fill="#FF9F1C"/>
<path d="M54.0432 105.942L38.3793 83.3145C37.4215 83.7135 36.5036 84.0527 35.466 84.2523C33.2112 84.6913 30.9763 84.6115 28.7016 84.5516C28.7016 84.6314 28.7016 84.7112 28.6816 84.7711C28.4222 86.6268 25.9479 89.5202 25.4291 95.1871C24.8504 101.612 25.2096 112.767 25.3892 113.505C35.8252 112.228 51.09 109.035 54.0432 105.942Z" fill="#466EB6"/>
<path d="M44.9236 34.2283C44.9236 34.2283 43.9459 34.8867 43.1078 34.6672C42.2698 34.4477 41.8906 34.1484 41.8906 34.1484C41.8906 34.1484 42.3496 34.9865 43.028 35.3656C44.2053 35.9842 44.9236 34.2283 44.9236 34.2283Z" fill="#FFBA5B"/>
<path d="M25.5081 29.558L34.6071 27.6823C35.066 27.5825 35.5449 27.7421 35.8842 28.0814L42.5488 34.8458C43.4068 35.7238 44.8435 35.185 44.9832 33.9479L46.0607 24.33C46.1206 23.8311 46.3999 23.4121 46.819 23.1727L55.0201 18.6631C56.0777 18.0844 56.0378 16.4881 54.9602 15.9693L46.5197 11.9186C46.0807 11.719 45.7814 11.3 45.7016 10.8012L44.1252 1.24316C43.9256 0.0259593 42.469 -0.432994 41.6509 0.484893L35.3454 7.58856C35.0261 7.94773 34.5472 8.1273 34.0883 8.04748L24.9094 6.6507C23.7321 6.47111 22.8741 7.78808 23.4528 8.8656L28.0023 17.3261C28.2418 17.7651 28.2418 18.2839 28.0422 18.7229L23.9516 27.4029C23.4129 28.5403 24.3308 29.7974 25.5081 29.558Z" fill="#FFBA5B"/>
<path d="M29.0391 58.3318C29.0391 58.3318 29.5978 61.305 29.478 62.4623C29.3583 63.6396 29.8971 67.4109 32.2716 67.4109C34.6461 67.4308 32.7306 62.6219 32.4911 61.4646C32.2716 60.3272 32.2117 56.7754 32.2117 56.7754L29.0391 58.3318Z" fill="#F7A491"/>
<path d="M32.2716 58.5708C32.2317 57.5931 32.2317 56.7949 32.2317 56.7949L29.0391 58.3513C29.0391 58.3513 29.1588 58.95 29.2586 59.7282C30.6553 60.0075 31.673 59.4688 32.2716 58.5708Z" fill="#FF9F1C"/>
<path d="M27.8813 50.1506C27.8813 50.1506 26.6442 50.869 26.2052 52.4054C25.7462 53.9419 26.265 57.9127 29.4377 58.8705C32.6104 59.8283 33.9873 56.6756 33.3288 54.2212C32.6703 51.7669 31.2535 48.6541 27.8813 50.1506Z" fill="#F7A491"/>
<path d="M33.7289 53.2632C33.669 53.9217 33.3098 54.4206 32.9507 54.3807C32.5715 54.3408 32.3321 53.782 32.392 53.1236C32.4518 52.4651 32.811 51.9662 33.1702 52.0061C33.5493 52.0461 33.7887 52.6048 33.7289 53.2632Z" fill="#F7A491"/>
<path d="M27.1041 55.816C27.4832 56.3947 27.4832 57.0731 27.1041 57.3325C26.725 57.5919 26.1264 57.3325 25.7472 56.7539C25.3681 56.1752 25.3681 55.4968 25.7472 55.2374C26.1264 54.978 26.7449 55.2374 27.1041 55.816Z" fill="#F7A491"/>
<path d="M45.3819 30.5968C44.7633 30.4771 42.1693 32.5324 42.1892 32.8317C42.2092 33.151 44.7633 31.834 44.8232 32.0535C44.883 32.2131 41.9697 32.9714 42.1294 33.2707C42.2291 33.4702 44.8431 32.9115 44.903 33.0512C45.0028 33.2507 42.728 33.3305 42.8876 33.55C43.0672 33.8094 45.2223 33.7097 45.2223 33.7097C45.2223 33.7097 45.6612 33.0113 45.7012 32.7519C45.7211 32.6321 45.7211 32.4725 45.7211 32.2929C45.7211 32.1532 45.781 32.0136 45.761 31.8539C45.6612 31.1955 45.7211 30.6766 45.3819 30.5968Z" fill="#F7A491"/>
<path d="M41.9093 32.1731L40.9316 33.3703L40.293 32.8914C40.293 32.8914 40.2332 32.7917 40.313 32.632C40.3928 32.4525 41.8894 31.7341 41.9093 32.1731Z" fill="#F7A491"/>
<path d="M48.0956 146.807H57.5539C57.913 146.767 57.9929 146.488 57.8731 146.328C57.6137 145.969 56.5163 145.71 55.2791 145.131C53.1041 145.35 48.375 143.874 48.0358 143.375C47.8163 144.373 47.8961 146.767 48.0956 146.807Z" fill="#FF9F1C"/>
<path d="M41.0119 33.2891C41.0119 33.2891 42.2889 34.0673 42.8277 34.9852C43.3665 35.903 43.1071 36.6613 43.1071 36.6613L40.9121 33.9476L41.0119 33.2891Z" fill="#F7A491"/>
</svg>
