<svg width="24" height="24" viewBox="0 0 24 24" fill="none" xmlns="http://www.w3.org/2000/svg">
<path d="M12 24C18.6274 24 24 18.6274 24 12C24 5.37258 18.6274 0 12 0C5.37258 0 0 5.37258 0 12C0 18.6274 5.37258 24 12 24Z" fill="url(#paint0_linear_36_2535)"/>
<path d="M12 22C6.48602 22 2 17.514 2 12C2 6.48605 6.48602 2 12 2C17.5142 2 22 6.48605 22 12C22 17.514 17.5142 22 12 22Z" fill="url(#paint1_linear_36_2535)"/>
<path opacity="0.3" d="M13.1016 17.2734L18 12.3751L13.1016 7.47665V10.0745L6.75 10.0745V14.6756L13.1016 14.6756V17.2734Z" fill="black"/>
<path d="M12.7266 16.8984L17.625 12.0001L12.7266 7.10165V9.69948L6.375 9.69948V14.3006L12.7266 14.3006V16.8984Z" fill="white"/>
<defs>
<linearGradient id="paint0_linear_36_2535" x1="-1.26563e-07" y1="12" x2="24" y2="12" gradientUnits="userSpaceOnUse">
<stop stop-color="#33B49D"/>
<stop offset="1" stop-color="#00A185"/>
</linearGradient>
<linearGradient id="paint1_linear_36_2535" x1="2" y1="12" x2="22" y2="12" gradientUnits="userSpaceOnUse">
<stop stop-color="#00A185"/>
<stop offset="1" stop-color="#33B49D"/>
</linearGradient>
</defs>
</svg>
