<svg width="34" height="44" viewBox="0 0 34 44" fill="none" xmlns="http://www.w3.org/2000/svg">
<path d="M21.968 11.4192V0H0V44H33.3871V11.4192H21.968Z" fill="url(#paint0_linear_972_3296)"/>
<path d="M24.5469 0.755859V8.8418H32.6329L24.5469 0.755859Z" fill="url(#paint1_linear_972_3296)"/>
<path d="M17 31C12.0372 31 8 26.9628 8 22C8 17.0372 12.0372 13 17 13C21.9628 13 26 17.0372 26 22C26 26.9628 21.9628 31 17 31ZM19.0302 18.7802C19.3235 18.487 19.3235 18.013 19.0302 17.7198C18.884 17.5735 18.692 17.5 18.5 17.5C18.308 17.5 18.116 17.5735 17.9697 17.7198L14.2197 21.4697C13.9265 21.763 13.9265 22.237 14.2197 22.5302L17.9698 26.2802C18.263 26.5735 18.737 26.5735 19.0302 26.2802C19.3235 25.987 19.3235 25.513 19.0302 25.2197L15.8105 22L19.0302 18.7802Z" fill="white"/>
<defs>
<linearGradient id="paint0_linear_972_3296" x1="16.6936" y1="0" x2="16.6936" y2="44" gradientUnits="userSpaceOnUse">
<stop stop-color="#FFCC00"/>
<stop offset="1" stop-color="#FF9F1C"/>
</linearGradient>
<linearGradient id="paint1_linear_972_3296" x1="28.5899" y1="0.755859" x2="28.5899" y2="8.8418" gradientUnits="userSpaceOnUse">
<stop stop-color="#FFCC00"/>
<stop offset="1" stop-color="#FF9F1C"/>
</linearGradient>
</defs>
</svg>
