<svg width="11" height="11" viewBox="0 0 11 11" fill="none" xmlns="http://www.w3.org/2000/svg">
<path d="M0.178103 3.6525H2.45952V11H0.178103V3.6525ZM1.32305 0C2.05243 0 2.64611 0.594593 2.64611 1.32509C2.64611 2.05559 2.05243 2.65018 1.32305 2.65018C0.589437 2.65018 0 2.05559 0 1.32509C0 0.594593 0.589437 0 1.32305 0Z" fill="#007BB6"/>
<path d="M3.89258 3.65299H6.07646V4.65955H6.10615C6.41147 4.08194 7.15357 3.47461 8.26459 3.47461C10.5715 3.47461 10.9997 4.99507 10.9997 6.97421V11.0005H8.72257V7.42865C8.72257 6.57499 8.70985 5.47924 7.53946 5.47924C6.3521 5.47924 6.174 6.40935 6.174 7.36494V11.0005H3.89682V3.65299H3.89258Z" fill="#007BB6"/>
</svg>
