<svg width="56" height="56" viewBox="0 0 56 56" fill="none" xmlns="http://www.w3.org/2000/svg">
<circle cx="27.6361" cy="27.6354" r="26" transform="rotate(86.2721 27.6361 27.6354)" fill="#FFCA05" fill-opacity="0.22"/>
<path d="M26.3124 38.4243C24.5291 38.0357 22.9355 37.0429 21.7001 35.6411C20.4646 34.2373 19.5927 32.4266 19.2507 30.3982H20.3626C20.6885 32.0828 21.4351 33.5883 22.4718 34.7663C23.5067 35.9422 24.8317 36.7906 26.3142 37.1629V38.4243H26.3124ZM34.2444 29.1185C33.9436 29.1185 33.7001 28.8418 33.7001 28.5C33.7001 28.1582 33.9436 27.8815 34.2444 27.8815H38.4557C38.7565 27.8815 39 28.1582 39 28.5C39 28.8418 38.7565 29.1185 38.4557 29.1185H34.2444ZM28.5452 21.4057C28.5452 21.7475 28.3017 22.0242 28.0009 22.0242C27.7001 22.0242 27.4566 21.7475 27.4566 21.4057V16.6185C27.4566 16.2767 27.7001 16 28.0009 16C28.3017 16 28.5452 16.2767 28.5452 16.6185V21.4057ZM28.5452 40.3815C28.5452 40.7233 28.3017 41 28.0009 41C27.7001 41 27.4566 40.7233 27.4566 40.3815V35.5943C27.4566 34.7805 28.5452 34.7805 28.5452 35.5943V40.3815ZM17.5443 29.1185C17.2435 29.1185 17 28.8418 17 28.5C17 28.1582 17.2435 27.8815 17.5443 27.8815H21.7556C22.0564 27.8815 22.2999 28.1582 22.2999 28.5C22.2999 28.8418 22.0564 29.1185 21.7556 29.1185H17.5443ZM27.9991 25.55C29.4333 25.55 30.5953 26.8704 30.5953 28.5C30.5953 30.1296 29.4333 31.45 27.9991 31.45C26.5649 31.45 25.4029 30.1296 25.4029 28.5C25.4047 26.8704 26.5667 25.55 27.9991 25.55ZM19.2489 26.5632C19.5909 24.5368 20.4646 22.7261 21.6983 21.3223C22.9338 19.9185 24.5273 18.9256 26.3124 18.537V19.8025C24.8299 20.1728 23.5049 21.0212 22.4682 22.1991C21.4333 23.3751 20.6849 24.8786 20.3608 26.5632H19.2489ZM29.6876 18.535C31.4727 18.9236 33.0662 19.9164 34.3017 21.3202C35.5372 22.722 36.4109 24.5368 36.7511 26.5632H35.6392C35.3133 24.8786 34.5667 23.371 33.53 22.1951C32.4951 21.0171 31.1701 20.1687 29.6876 19.7984V18.535ZM36.7529 30.3982C36.4109 32.4246 35.5372 34.2373 34.3017 35.6411C33.0662 37.0449 31.4727 38.0378 29.6876 38.4264V37.1629C32.6509 36.4224 34.991 33.7673 35.641 30.3982H36.7529Z" fill="#FFCA05"/>
</svg>
