<svg width="25" height="18" viewBox="0 0 25 18" fill="none" xmlns="http://www.w3.org/2000/svg">
<path d="M22.7131 7.53299C22.618 7.51906 22.5219 7.51263 22.4257 7.51376H6.04442L6.40161 7.3637C6.75076 7.21443 7.0684 7.01129 7.34029 6.76345L11.934 2.61423C12.539 2.09258 12.6407 1.25341 12.1749 0.625912C11.6328 -0.0427548 10.5933 -0.18794 9.85293 0.301685C9.79312 0.341263 9.73627 0.384406 9.68284 0.430832L1.37594 7.93393C0.726752 8.51964 0.726181 9.46977 1.37464 10.0561C1.37505 10.0565 1.37552 10.0569 1.37594 10.0573L9.68284 17.5604C10.3325 18.1456 11.3845 18.1443 12.0324 17.5575C12.0834 17.5113 12.131 17.4621 12.1749 17.4104C12.6407 16.7829 12.539 15.9437 11.934 15.422L7.3486 11.2653C7.10485 11.0449 6.82459 10.8601 6.51791 10.7176L6.0195 10.515H22.3343C23.183 10.5435 23.9276 10.008 24.087 9.25448C24.2339 8.43641 23.6188 7.6657 22.7131 7.53299Z" fill="#0A1D47"/>
</svg>
