<svg width="88" height="77" viewBox="0 0 88 77" fill="none" xmlns="http://www.w3.org/2000/svg">
<path d="M45.7426 70.7595C29.0221 70.7595 15.416 57.07 15.416 40.2469C15.416 23.4239 29.0221 9.73438 45.7426 9.73438C62.4631 9.73438 76.0692 23.4239 76.0692 40.2469C76.0692 57.07 62.4631 70.7595 45.7426 70.7595ZM45.7426 15.551C32.2144 15.551 21.1971 26.6358 21.1971 40.2469C21.1971 53.8581 32.2144 64.9429 45.7426 64.9429C59.2708 64.9429 70.288 53.8581 70.288 40.2469C70.288 26.6358 59.2708 15.551 45.7426 15.551Z" fill="#1E2959" fill-opacity="0.71"/>
<path d="M45.7438 76.7511C25.7337 76.7511 9.46094 60.3785 9.46094 40.2457C9.46094 20.1128 25.7337 3.74023 45.7438 3.74023V4.40611C26.1036 4.40611 10.1033 20.4849 10.1033 40.2457C10.1033 60.0064 26.1036 76.1048 45.7438 76.1048C51.7391 76.1048 57.6564 74.5772 62.8731 71.6983L63.1845 72.2662C57.8706 75.2039 51.8364 76.7511 45.7438 76.7511Z" fill="#1E2959" fill-opacity="0.71"/>
<path d="M77.8414 57.3044L77.2769 57.0106C79.9631 51.8991 81.384 46.1021 81.384 40.2659C81.384 24.8138 71.5931 11.1439 57.0332 6.24774L57.2279 5.64062C72.0602 10.6151 82.0069 24.5396 82.0069 40.2659C82.0264 46.2 80.5665 52.0754 77.8414 57.3044Z" fill="#1E2959" fill-opacity="0.71"/>
<path d="M74.8633 58.1854H16.1177C14.6189 58.1854 13.3926 56.9516 13.3926 55.4436V21.4449C13.3926 19.9369 14.6189 18.7031 16.1177 18.7031H74.8827C76.3815 18.7031 77.6078 19.9369 77.6078 21.4449V55.4631C77.5884 56.9516 76.3621 58.1854 74.8633 58.1854Z" fill="#1E2959" fill-opacity="0.71"/>
<path d="M74.7464 56.2464H16.2345C15.923 56.2464 15.6895 55.9918 15.6895 55.698V21.4644C15.6895 21.151 15.9425 20.916 16.2345 20.916H74.727C75.0384 20.916 75.272 21.1706 75.272 21.4644V55.698C75.2915 55.9918 75.0384 56.2464 74.7464 56.2464Z" fill="#F5F5FB"/>
<path d="M50.9008 57.1484H40.0977V62.2012H50.9008V57.1484Z" fill="#2C3E52"/>
<path d="M70.6975 61.6719H20.7891V62.7099H70.6975V61.6719Z" fill="#2C3E52"/>
<path d="M52.8677 56.2475H38.0938V46.749C38.0938 42.9692 41.1303 39.9141 44.8871 39.9141H46.0939C49.8507 39.9141 52.8872 42.9692 52.8872 46.749V56.2475H52.8677Z" fill="#FFCC00"/>
<path d="M45.6657 41.9891C44.673 41.9891 43.8555 41.1666 43.8555 40.1677V35.2129H47.476V40.1677C47.476 41.1666 46.6584 41.9891 45.6657 41.9891Z" fill="#FCC082"/>
<path d="M46.1912 38.601H45.1206C44.4199 38.601 43.8359 38.0331 43.8359 37.3084V35.2129H47.4564V37.3084C47.4759 38.0135 46.9114 38.601 46.1912 38.601Z" fill="#F2A966"/>
<path d="M49.5972 24.6777H41.7139C41.2273 24.6777 40.8185 25.0694 40.8185 25.559C40.7601 27.1845 40.6628 30.7097 40.7601 32.7269C40.8769 33.4516 41.2273 34.8812 42.3952 36.115C42.9207 36.6634 43.894 37.6818 45.2371 37.6426C45.3928 37.6426 45.529 37.6231 45.6848 37.5839C45.821 37.6035 45.9767 37.6231 46.1325 37.6426C47.4756 37.6818 48.4488 36.6634 48.9744 36.115C50.1423 34.8812 50.4926 33.4516 50.6094 32.7269C50.7068 30.7685 50.7068 29.1038 50.6873 27.4C50.6289 26.832 50.1617 24.6777 49.5972 24.6777Z" fill="#FCC082"/>
<path d="M49.5976 24.6765C49.5976 24.6765 46.9504 27.3204 43.8554 27.1441C40.7605 26.9874 39.2422 23.6189 39.2422 23.6189C39.7093 23.6777 40.4296 23.6972 41.2471 23.521C42.415 23.2664 42.7459 22.8551 43.9138 22.4438C44.8676 22.1109 46.0744 21.6996 47.2423 22.0913C48.7217 22.6201 49.3835 24.1477 49.5976 24.6765Z" fill="#1E2959"/>
<path d="M49.0324 23.5215C49.0324 23.5215 50.8621 23.7173 50.6286 29.3381C50.6286 29.3381 49.8499 26.0283 47.4752 25.4603C45.1005 24.8728 49.0324 23.5215 49.0324 23.5215Z" fill="#1E2959"/>
<path d="M42.2593 23.5215C42.2593 23.5215 40.4296 23.7173 40.6632 29.3381C40.6632 29.3381 41.4418 26.0283 43.8165 25.4603C46.2107 24.8728 42.2593 23.5215 42.2593 23.5215Z" fill="#1E2959"/>
<path d="M16.3716 10.3793C14.5614 10.3793 13.082 8.89089 13.082 7.06954C13.082 5.24818 14.5614 3.75977 16.3716 3.75977C18.1819 3.75977 19.6612 5.24818 19.6612 7.06954C19.6612 8.89089 18.1819 10.3793 16.3716 10.3793ZM16.3716 4.40605C14.9117 4.40605 13.7244 5.6007 13.7244 7.06954C13.7244 8.53837 14.9117 9.73302 16.3716 9.73302C17.8315 9.73302 19.0189 8.53837 19.0189 7.06954C19.0189 5.6007 17.8315 4.40605 16.3716 4.40605Z" fill="#1E2959" fill-opacity="0.71"/>
<path d="M16.3703 9.02822C17.4454 9.02822 18.3168 8.15139 18.3168 7.06977C18.3168 5.98815 17.4454 5.11133 16.3703 5.11133C15.2953 5.11133 14.4238 5.98815 14.4238 7.06977C14.4238 8.15139 15.2953 9.02822 16.3703 9.02822Z" fill="#1E2959" fill-opacity="0.71"/>
<path d="M81.696 66.5095C80.5281 66.5095 79.5938 65.5499 79.5938 64.3944C79.5938 63.2193 80.5475 62.2793 81.696 62.2793C82.8639 62.2793 83.7982 63.2389 83.7982 64.3944C83.7982 65.5499 82.8639 66.5095 81.696 66.5095ZM81.696 62.5926C80.7033 62.5926 79.9052 63.3956 79.9052 64.3944C79.9052 65.3932 80.7033 66.1962 81.696 66.1962C82.6887 66.1962 83.4868 65.3932 83.4868 64.3944C83.4868 63.3956 82.6887 62.5926 81.696 62.5926Z" fill="#FFCA05"/>
<path d="M82.9797 64.3941C82.9797 65.0991 82.4152 65.6671 81.7145 65.6671C81.0137 65.6671 80.4492 65.0991 80.4492 64.3941C80.4492 63.689 81.0137 63.1211 81.7145 63.1211C82.4152 63.1211 82.9797 63.689 82.9797 64.3941Z" fill="#FFCA05"/>
<path d="M62.0163 17.2947C60.8484 17.2947 59.9141 16.3351 59.9141 15.1796C59.9141 14.0241 60.8678 13.0645 62.0163 13.0645C63.1842 13.0645 64.1185 14.0241 64.1185 15.1796C64.1185 16.3351 63.1842 17.2947 62.0163 17.2947ZM62.0163 13.3974C61.0236 13.3974 60.2255 14.2004 60.2255 15.1992C60.2255 16.198 61.0236 17.0009 62.0163 17.0009C63.009 17.0009 63.8071 16.198 63.8071 15.1992C63.8071 14.2004 63.009 13.3974 62.0163 13.3974Z" fill="#FFCA05"/>
<path d="M62.9099 15.1782C62.9099 15.6874 62.5012 16.0791 62.0145 16.0791C61.5279 16.0791 61.1191 15.6678 61.1191 15.1782C61.1191 14.6886 61.5279 14.2773 62.0145 14.2773C62.5012 14.2773 62.9099 14.6886 62.9099 15.1782Z" fill="#FFCA05"/>
<path d="M26.103 2.13471C26.0057 2.13471 25.9473 2.05637 25.9473 1.97803V0.156676C25.9473 0.0587532 26.0251 0 26.103 0C26.2003 0 26.2587 0.0783377 26.2587 0.156676V1.97803C26.2587 2.05637 26.1808 2.13471 26.103 2.13471Z" fill="#1E2959" fill-opacity="0.71"/>
<path d="M26.103 5.42377C26.0057 5.42377 25.9473 5.34543 25.9473 5.26709V3.44574C25.9473 3.34781 26.0251 3.28906 26.103 3.28906C26.2003 3.28906 26.2587 3.3674 26.2587 3.44574V5.26709C26.2587 5.36501 26.1808 5.42377 26.103 5.42377Z" fill="#1E2959" fill-opacity="0.71"/>
<path d="M28.6925 2.82116H26.8823C26.785 2.82116 26.7266 2.74283 26.7266 2.66449C26.7266 2.56656 26.8044 2.50781 26.8823 2.50781H28.6925C28.7899 2.50781 28.8483 2.58615 28.8483 2.66449C28.8677 2.74283 28.7899 2.82116 28.6925 2.82116Z" fill="#1E2959" fill-opacity="0.71"/>
<path d="M25.3039 2.82116H23.4936C23.3963 2.82116 23.3379 2.74283 23.3379 2.66449C23.3379 2.56656 23.4158 2.50781 23.4936 2.50781H25.3039C25.4012 2.50781 25.4596 2.58615 25.4596 2.66449C25.4596 2.74283 25.4012 2.82116 25.3039 2.82116Z" fill="#1E2959" fill-opacity="0.71"/>
<path d="M26.725 2.17528C26.6861 2.17528 26.6472 2.15569 26.6082 2.13611C26.5499 2.07735 26.5499 1.97943 26.6082 1.90109L27.8929 0.608518C27.9513 0.549765 28.0487 0.549765 28.1265 0.608518C28.1849 0.667272 28.1849 0.765194 28.1265 0.843532L26.8418 2.13611C26.8029 2.17528 26.764 2.17528 26.725 2.17528Z" fill="#1E2959" fill-opacity="0.71"/>
<path d="M24.1957 4.73973C24.1568 4.73973 24.1179 4.72014 24.079 4.70056C24.0206 4.64181 24.0206 4.54389 24.079 4.46555L25.3636 3.17297C25.422 3.11422 25.5194 3.11422 25.5972 3.17297C25.6556 3.23172 25.6556 3.32965 25.5972 3.40799L24.3125 4.70056C24.2736 4.72014 24.2347 4.73973 24.1957 4.73973Z" fill="#1E2959" fill-opacity="0.71"/>
<path d="M28.0097 4.73973C27.9708 4.73973 27.9319 4.72014 27.8929 4.70056L26.6082 3.40799C26.5499 3.34923 26.5499 3.25131 26.6082 3.17297C26.6666 3.11422 26.764 3.11422 26.8418 3.17297L28.1265 4.46555C28.1849 4.5243 28.1849 4.62222 28.1265 4.70056C28.0876 4.72014 28.0487 4.73973 28.0097 4.73973Z" fill="#1E2959" fill-opacity="0.71"/>
<path d="M25.4609 2.17528C25.422 2.17528 25.383 2.15569 25.3441 2.13611L24.0594 0.843532C24.001 0.784779 24.001 0.686856 24.0594 0.608518C24.1178 0.549765 24.2151 0.549765 24.293 0.608518L25.5777 1.90109C25.6361 1.95985 25.6361 2.05777 25.5777 2.13611C25.5582 2.17528 25.5193 2.17528 25.4609 2.17528Z" fill="#1E2959" fill-opacity="0.71"/>
<path d="M84.2641 57.6577C84.2252 57.6577 84.1862 57.6381 84.1473 57.6185C84.0889 57.5598 84.0889 57.4619 84.1473 57.3835L85.432 56.0909C85.4904 56.0322 85.5877 56.0322 85.6656 56.0909C85.724 56.1497 85.724 56.2476 85.6656 56.326L84.3809 57.6185C84.3614 57.6381 84.303 57.6577 84.2641 57.6577Z" fill="#1E2959" fill-opacity="0.71"/>
<path d="M81.7348 60.2026C81.6959 60.2026 81.6569 60.183 81.618 60.1634C81.5596 60.1047 81.5596 60.0068 81.618 59.9284L82.9027 58.6359C82.9611 58.5771 83.0584 58.5771 83.1363 58.6359C83.1947 58.6946 83.1947 58.7925 83.1363 58.8709L81.8516 60.1634C81.8127 60.183 81.7737 60.2026 81.7348 60.2026Z" fill="#1E2959" fill-opacity="0.71"/>
<path d="M85.5488 60.2026C85.5099 60.2026 85.4709 60.183 85.432 60.1634L84.1473 58.8709C84.0889 58.8121 84.0889 58.7142 84.1473 58.6359C84.2057 58.5771 84.303 58.5771 84.3809 58.6359L85.6656 59.9284C85.724 59.9872 85.724 60.0851 85.6656 60.1634C85.6266 60.183 85.5877 60.2026 85.5488 60.2026Z" fill="#1E2959" fill-opacity="0.71"/>
<path d="M83.0195 57.6577C82.9806 57.6577 82.9416 57.6381 82.9027 57.6185L81.618 56.326C81.5596 56.2672 81.5596 56.1693 81.618 56.0909C81.6764 56.0322 81.7737 56.0322 81.8516 56.0909L83.1363 57.3835C83.1947 57.4423 83.1947 57.5402 83.1363 57.6185C83.0974 57.6381 83.0584 57.6577 83.0195 57.6577Z" fill="#1E2959" fill-opacity="0.71"/>
<path d="M84.0305 16.6662C83.9137 16.6662 83.8164 16.5683 83.8164 16.4508V13.9244C83.8164 13.8069 83.9137 13.709 84.0305 13.709C84.1473 13.709 84.2447 13.8069 84.2447 13.9244V16.4508C84.2447 16.5683 84.1473 16.6662 84.0305 16.6662Z" fill="#1E2959" fill-opacity="0.71"/>
<path d="M84.0305 21.2287C83.9137 21.2287 83.8164 21.1308 83.8164 21.0133V18.4869C83.8164 18.3694 83.9137 18.2715 84.0305 18.2715C84.1473 18.2715 84.2447 18.3694 84.2447 18.4869V21.0133C84.2447 21.1308 84.1473 21.2287 84.0305 21.2287Z" fill="#1E2959" fill-opacity="0.71"/>
<path d="M87.6314 17.6086H85.1204C85.0036 17.6086 84.9062 17.5107 84.9062 17.3932C84.9062 17.2757 85.0036 17.1777 85.1204 17.1777H87.6314C87.7482 17.1777 87.8455 17.2757 87.8455 17.3932C87.8455 17.5107 87.7482 17.6086 87.6314 17.6086Z" fill="#1E2959" fill-opacity="0.71"/>
<path d="M82.94 17.6086H80.429C80.3122 17.6086 80.2148 17.5107 80.2148 17.3932C80.2148 17.2757 80.3122 17.1777 80.429 17.1777H82.94C83.0567 17.1777 83.1541 17.2757 83.1541 17.3932C83.1541 17.5107 83.0567 17.6086 82.94 17.6086Z" fill="#1E2959" fill-opacity="0.71"/>
<path d="M84.8879 16.7462C84.8295 16.7462 84.7712 16.7267 84.7322 16.6875C84.6544 16.6092 84.6544 16.4525 84.7322 16.3741L86.5036 14.592C86.5814 14.5136 86.7371 14.5136 86.815 14.592C86.8929 14.6703 86.8929 14.827 86.815 14.9053L85.0437 16.6875C85.0047 16.7267 84.9463 16.7462 84.8879 16.7462Z" fill="#1E2959" fill-opacity="0.71"/>
<path d="M81.384 20.2697C81.3256 20.2697 81.2672 20.2501 81.2283 20.2109C81.1505 20.1326 81.1505 19.9759 81.2283 19.8976L82.9996 18.1154C83.0775 18.0371 83.2332 18.0371 83.3111 18.1154C83.3889 18.1937 83.3889 18.3504 83.3111 18.4287L81.5398 20.2109C81.5008 20.2501 81.4424 20.2697 81.384 20.2697Z" fill="#1E2959" fill-opacity="0.71"/>
<path d="M86.6593 20.2697C86.6009 20.2697 86.5425 20.2501 86.5036 20.2109L84.7322 18.4287C84.6544 18.3504 84.6544 18.1937 84.7322 18.1154C84.8101 18.0371 84.9658 18.0371 85.0437 18.1154L86.815 19.8976C86.8929 19.9759 86.8929 20.1326 86.815 20.2109C86.7761 20.2501 86.7177 20.2697 86.6593 20.2697Z" fill="#1E2959" fill-opacity="0.71"/>
<path d="M83.1554 16.7462C83.097 16.7462 83.0386 16.7267 82.9996 16.6875L81.2283 14.9053C81.1505 14.827 81.1505 14.6703 81.2283 14.592C81.3062 14.5136 81.4619 14.5136 81.5398 14.592L83.3111 16.3741C83.3889 16.4525 83.3889 16.6092 83.3111 16.6875C83.2722 16.7267 83.2138 16.7462 83.1554 16.7462Z" fill="#1E2959" fill-opacity="0.71"/>
<path d="M13.3918 73.1295C13.2555 73.1295 13.1582 73.0316 13.1582 72.8945V70.2702C13.1582 70.1331 13.2555 70.0352 13.3918 70.0352C13.528 70.0352 13.6254 70.1331 13.6254 70.2702V72.8945C13.6254 73.0316 13.528 73.1295 13.3918 73.1295Z" fill="#1E2959" fill-opacity="0.71"/>
<path d="M14.6974 71.8157H12.089C11.9528 71.8157 11.8555 71.7178 11.8555 71.5807C11.8555 71.4436 11.9528 71.3457 12.089 71.3457H14.6974C14.8336 71.3457 14.931 71.4436 14.931 71.5807C14.931 71.7178 14.8336 71.8157 14.6974 71.8157Z" fill="#1E2959" fill-opacity="0.71"/>
<path d="M2.62758 36.4284C2.41347 36.4284 2.23828 36.2522 2.23828 36.0367V31.5323C2.23828 31.3169 2.41347 31.1406 2.62758 31.1406C2.8417 31.1406 3.01688 31.3169 3.01688 31.5323V36.0367C3.03635 36.2522 2.8417 36.4284 2.62758 36.4284Z" fill="#1E2959" fill-opacity="0.71"/>
<path d="M4.86627 34.1955H0.389301C0.175186 34.1955 0 34.0192 0 33.8038C0 33.5884 0.175186 33.4121 0.389301 33.4121H4.86627C5.08038 33.4121 5.25557 33.5884 5.25557 33.8038C5.25557 33.9996 5.08038 34.1955 4.86627 34.1955Z" fill="#1E2959" fill-opacity="0.71"/>
<path d="M53.2764 69.1523C53.1207 69.1523 53.0039 69.0348 53.0039 68.8781V65.8425C53.0039 65.6859 53.1207 65.5684 53.2764 65.5684C53.4321 65.5684 53.5489 65.6859 53.5489 65.8425V68.8781C53.5295 69.0348 53.4127 69.1523 53.2764 69.1523Z" fill="#FFCA05"/>
<path d="M54.774 67.646H51.7569C51.6012 67.646 51.4844 67.5285 51.4844 67.3718C51.4844 67.2152 51.6012 67.0977 51.7569 67.0977H54.774C54.9297 67.0977 55.0465 67.2152 55.0465 67.3718C55.0465 67.5285 54.9297 67.646 54.774 67.646Z" fill="#FFCA05"/>
<path d="M5.72173 49.1191C5.56601 49.1191 5.44922 49.0016 5.44922 48.8449V45.8093C5.44922 45.6527 5.56601 45.5352 5.72173 45.5352C5.87745 45.5352 5.99424 45.6527 5.99424 45.8093V48.8449C5.99424 48.982 5.85799 49.1191 5.72173 49.1191Z" fill="#FFCA05"/>
<path d="M7.22124 47.5913H4.20415C4.04843 47.5913 3.93164 47.4738 3.93164 47.3171C3.93164 47.1605 4.04843 47.043 4.20415 47.043H7.22124C7.37696 47.043 7.49375 47.1605 7.49375 47.3171C7.49375 47.4738 7.37696 47.5913 7.22124 47.5913Z" fill="#FFCA05"/>
<path d="M82.9406 28.4362C82.8044 28.4362 82.707 28.3383 82.707 28.2012V25.5573C82.707 25.4202 82.8044 25.3223 82.9406 25.3223C83.0769 25.3223 83.1742 25.4202 83.1742 25.5573V28.1816C83.1547 28.3187 83.0574 28.4362 82.9406 28.4362Z" fill="#FFCA05"/>
<path d="M84.2442 27.1048H81.6359C81.4997 27.1048 81.4023 27.0069 81.4023 26.8698C81.4023 26.7327 81.4997 26.6348 81.6359 26.6348H84.2442C84.3805 26.6348 84.4778 26.7327 84.4778 26.8698C84.4778 27.0069 84.361 27.1048 84.2442 27.1048Z" fill="#FFCA05"/>
<path d="M9.44158 26.8118C9.24693 26.8118 9.07174 26.7922 8.87709 26.7335C7.88437 26.4201 7.33935 25.3625 7.63133 24.3637C7.94277 23.3649 8.99388 22.8166 9.9866 23.1103C10.4732 23.267 10.8625 23.5804 11.0961 24.0308C11.3297 24.4812 11.3686 24.9904 11.2324 25.48C11.0766 25.9697 10.7652 26.3613 10.3175 26.5964C10.045 26.7335 9.73356 26.8118 9.44158 26.8118ZM9.44158 23.3649C8.77977 23.3649 8.15688 23.7958 7.96223 24.4617C7.70919 25.2842 8.17635 26.1655 8.99388 26.4201C9.38318 26.5376 9.81141 26.4984 10.1813 26.3026C10.5511 26.1068 10.8236 25.7738 10.9404 25.3821C11.0572 24.9904 11.0182 24.5596 10.8236 24.1875C10.6289 23.8154 10.298 23.5412 9.90874 23.4237C9.75302 23.3845 9.5973 23.3649 9.44158 23.3649Z" fill="#FFCA05"/>
<path d="M8.93591 26.5765C8.83858 26.5373 8.74126 26.4982 8.64393 26.459C8.64393 26.459 8.64393 26.4786 8.62447 26.4786L7.49549 30.1605C7.4371 30.3367 7.53442 30.513 7.70961 30.5717C7.88479 30.6305 8.05998 30.5326 8.11837 30.3563L9.24735 26.6744C9.24735 26.6548 9.24735 26.6548 9.24735 26.6352C9.13056 26.6352 9.03324 26.6157 8.93591 26.5765Z" fill="#FFCA05"/>
<path d="M10.5123 24.9907C10.4344 25.2649 10.1425 25.4216 9.85049 25.3432C9.55851 25.2649 9.42225 24.9711 9.50011 24.6774C9.57798 24.4032 9.86995 24.2465 10.1619 24.3249C10.4344 24.4228 10.5902 24.7165 10.5123 24.9907Z" fill="#FFCA05"/>
<path d="M70.7556 72.1488H66.5317C66.2786 72.1488 66.084 71.9529 66.084 71.6983V68.8782C66.084 68.6236 66.2786 68.4277 66.5317 68.4277H70.7556C71.0086 68.4277 71.2033 68.6236 71.2033 68.8782V71.6983C71.2033 71.9334 71.0086 72.1488 70.7556 72.1488ZM66.5511 68.7411C66.4733 68.7411 66.4344 68.7998 66.4344 68.8586V71.6788C66.4344 71.7375 66.4927 71.7963 66.5511 71.7963H70.7751C70.8529 71.7963 70.8919 71.7375 70.8919 71.6788V68.8586C70.8919 68.7803 70.8335 68.7411 70.7751 68.7411H66.5511Z" fill="#FFCA05"/>
<path d="M68.6533 70.582C68.6143 70.582 68.5754 70.5624 68.5559 70.5429L66.4537 68.7019C66.3953 68.6627 66.3759 68.5844 66.4148 68.5257C66.4343 68.4669 66.4926 68.4277 66.5705 68.4277H70.7944C70.8528 68.4277 70.9307 68.4669 70.9502 68.5257C70.9696 68.5844 70.9502 68.6627 70.9112 68.7019L68.809 70.5429C68.7311 70.582 68.6922 70.582 68.6533 70.582ZM66.9793 68.7411L68.6533 70.2099L70.3273 68.7411H66.9793Z" fill="#FFCA05"/>
<path d="M81.5143 11.7183C82.4234 7.77783 79.9854 3.84198 76.0689 2.92734C72.1525 2.01271 68.2406 4.46565 67.3315 8.40614C66.4225 12.3466 68.8605 16.2825 72.7769 17.1971C76.6934 18.1117 80.6052 15.6588 81.5143 11.7183Z" fill="#F2F9FC"/>
<path d="M67.1543 10.0664V17.391L75.096 17.3518L67.1543 10.0664Z" fill="#F2F9FC"/>
<path d="M78.7355 9.9096C79.0858 10.125 79.0858 10.6342 78.7355 10.8496L75.5627 12.6906L72.3899 14.5315C72.0395 14.747 71.5918 14.4728 71.5918 14.0615V10.3796V6.69775C71.5918 6.28647 72.0395 6.01229 72.3899 6.22772L75.5627 8.06866L78.7355 9.9096Z" fill="#FAAC18"/>
<path d="M74.454 53.6229H17.0321C16.8569 53.6229 16.7012 53.4662 16.7012 53.29C16.7012 53.1137 16.8569 52.957 17.0321 52.957H74.4345C74.6097 52.957 74.7654 53.1137 74.7654 53.29C74.7654 53.4858 74.6292 53.6229 74.454 53.6229Z" fill="#DBDBDB"/>
<path d="M35.3877 52.9766H17.0516C16.8764 52.9766 16.7207 53.1332 16.7207 53.3095C16.7207 53.4858 16.8764 53.6424 17.0516 53.6424H35.3877V52.9766Z" fill="#B6B7B6"/>
<path d="M18.3942 55.0529C19.394 55.0529 20.2045 54.2374 20.2045 53.2315C20.2045 52.2256 19.394 51.4102 18.3942 51.4102C17.3945 51.4102 16.584 52.2256 16.584 53.2315C16.584 54.2374 17.3945 55.0529 18.3942 55.0529Z" fill="#E53C3C"/>
<path d="M19.641 53.0936C19.7578 53.1523 19.7578 53.309 19.641 53.3873L18.6677 53.9553L17.6945 54.5232C17.5777 54.582 17.4414 54.5037 17.4414 54.3862V53.2698V52.1535C17.4414 52.036 17.5777 51.9381 17.6945 52.0164L18.6677 52.5844L19.641 53.0936Z" fill="#F5F5FB"/>
</svg>
