<svg width="191" height="168" viewBox="0 0 191 168" fill="none" xmlns="http://www.w3.org/2000/svg">
<mask id="mask0_512_15" style="mask-type:alpha" maskUnits="userSpaceOnUse" x="0" y="0" width="152" height="124">
<rect width="152" height="124" rx="16" fill="#FF9F1C"/>
</mask>
<g mask="url(#mask0_512_15)">
<circle cx="147" cy="124" r="44" fill="white"/>
</g>
<path d="M138.553 97.002H125.446C124.533 97.0029 123.657 97.3664 123.01 98.0124C122.364 98.6585 122.001 99.5345 122 100.448V113.556C122.001 114.469 122.364 115.345 123.01 115.991C123.657 116.638 124.533 117.001 125.446 117.002H128.875C129.041 117.002 129.2 116.936 129.317 116.819C129.434 116.702 129.5 116.543 129.5 116.377C129.5 116.211 129.434 116.052 129.317 115.935C129.2 115.818 129.041 115.752 128.875 115.752H125.446C124.864 115.751 124.306 115.52 123.894 115.108C123.482 114.696 123.251 114.138 123.25 113.556V100.448C123.25 99.237 124.235 98.252 125.446 98.252H138.553C139.765 98.252 140.75 99.237 140.75 100.448V108.929C140.75 109.095 140.816 109.254 140.933 109.371C141.05 109.489 141.209 109.554 141.375 109.554C141.541 109.554 141.7 109.489 141.817 109.371C141.934 109.254 142 109.095 142 108.929V100.448C141.999 99.5343 141.635 98.6581 140.989 98.012C140.343 97.3659 139.466 97.0026 138.553 97.002Z" fill="#FF9F1C"/>
<path d="M132.124 99.9573L128.214 103.732L126.749 102.214C126.634 102.094 126.476 102.025 126.31 102.023C126.144 102.02 125.984 102.083 125.865 102.198C125.746 102.313 125.677 102.471 125.674 102.637C125.671 102.803 125.734 102.963 125.849 103.082L127.749 105.05C127.806 105.109 127.874 105.157 127.949 105.19C128.025 105.223 128.106 105.24 128.188 105.242C128.27 105.243 128.352 105.228 128.428 105.198C128.505 105.168 128.574 105.122 128.633 105.065L132.993 100.857C133.052 100.8 133.1 100.732 133.133 100.657C133.166 100.581 133.184 100.5 133.185 100.418C133.187 100.336 133.172 100.254 133.142 100.177C133.112 100.101 133.067 100.031 133.01 99.9719C132.953 99.9127 132.884 99.8654 132.809 99.8327C132.733 99.8 132.652 99.7826 132.57 99.7813C132.488 99.7801 132.406 99.7951 132.329 99.8255C132.253 99.8559 132.183 99.8998 132.124 99.9573ZM137.624 103.302C137.79 103.302 137.949 103.236 138.066 103.119C138.183 103.002 138.249 102.843 138.249 102.677C138.249 102.511 138.183 102.353 138.066 102.235C137.949 102.118 137.79 102.052 137.624 102.052H133.926C133.76 102.052 133.601 102.118 133.484 102.235C133.366 102.353 133.301 102.511 133.301 102.677C133.301 102.843 133.366 103.002 133.484 103.119C133.601 103.236 133.76 103.302 133.926 103.302H137.624ZM126.426 113.197H131.426C131.591 113.197 131.75 113.131 131.867 113.014C131.985 112.897 132.051 112.738 132.051 112.572C132.051 112.406 131.985 112.248 131.867 112.13C131.75 112.013 131.591 111.947 131.426 111.947H126.426C126.26 111.947 126.101 112.013 125.984 112.13C125.866 112.248 125.801 112.406 125.801 112.572C125.801 112.738 125.866 112.897 125.984 113.014C126.101 113.131 126.26 113.197 126.426 113.197ZM125.801 107.677C125.801 107.759 125.817 107.841 125.848 107.916C125.88 107.992 125.926 108.061 125.984 108.119C126.042 108.177 126.111 108.223 126.186 108.255C126.262 108.286 126.343 108.302 126.426 108.302H137.624C137.79 108.302 137.949 108.236 138.066 108.119C138.183 108.002 138.249 107.843 138.249 107.677C138.249 107.511 138.183 107.353 138.066 107.235C137.949 107.118 137.79 107.052 137.624 107.052H126.426C126.26 107.052 126.101 107.118 125.984 107.235C125.866 107.353 125.801 107.511 125.801 107.677ZM141.752 111.291C141.702 111.25 141.648 111.227 141.593 111.204C141.502 111.148 141.398 111.118 141.292 111.115H139.384C139.219 111.115 139.06 111.181 138.942 111.298C138.825 111.415 138.759 111.574 138.759 111.74C138.759 111.906 138.825 112.064 138.942 112.182C139.06 112.299 139.219 112.365 139.384 112.365H140.017L137.948 114.797L134.994 112.44C134.871 112.341 134.714 112.293 134.556 112.305C134.399 112.317 134.251 112.388 134.144 112.505L130.966 115.959C130.884 116.048 130.831 116.16 130.811 116.279C130.792 116.398 130.807 116.521 130.856 116.632C130.905 116.743 130.984 116.837 131.085 116.904C131.186 116.97 131.304 117.006 131.426 117.007C131.594 117.007 131.763 116.94 131.886 116.806L134.671 113.78L137.642 116.152C137.907 116.362 138.289 116.327 138.507 116.069L140.749 113.434V113.73C140.749 113.896 140.815 114.054 140.932 114.172C141.05 114.289 141.209 114.355 141.374 114.355C141.54 114.355 141.699 114.289 141.816 114.172C141.933 114.054 141.999 113.896 141.999 113.73V111.824C141.997 111.721 141.969 111.62 141.918 111.531C141.883 111.439 141.826 111.357 141.752 111.291Z" fill="#FF9F1C"/>
</svg>
