<svg width="71" height="59" viewBox="0 0 71 59" fill="none" xmlns="http://www.w3.org/2000/svg">
<path d="M25.8744 10.5108L25.2343 10.7074L24.8 9.71067L23.8307 9.87983L23.3872 9.18945L23.0352 9.41348L23.6295 10.3416L24.5485 10.177L24.9966 11.2149L25.9613 10.9177L25.8744 10.5108Z" fill="#50BFA5"/>
<path d="M66.9721 46.3409L66.332 46.5374L65.8976 45.5407L64.9284 45.7145L64.4849 45.0195L64.1328 45.2436L64.7272 46.1717L65.6462 46.0071L66.0942 47.0449L67.0589 46.7478L66.9721 46.3409Z" fill="#50BFA5"/>
<path d="M34.1135 3.50443C32.367 3.79247 31.8458 6.08763 33.2997 7.11177C33.5603 7.29466 33.7432 7.57355 33.8164 7.88445L34.0815 8.94974C34.1547 9.24235 34.4427 9.43437 34.7399 9.38408L35.4029 9.27435C35.7 9.22406 35.9149 8.95431 35.8875 8.65255C35.7961 7.55069 35.6818 7.15292 36.0384 6.65914C37.0854 5.22352 35.8601 3.21639 34.1135 3.50443Z" fill="#F7CC7F"/>
<path d="M34.2909 8.16824C34.1766 7.2264 34.0166 6.22969 33.9618 5.94622C32.9605 6.00109 33.34 4.94494 33.8017 5.37472C33.9343 5.49816 33.9938 5.66276 34.0349 5.84564C34.3687 5.81363 34.6933 5.72219 34.9905 5.56674C34.9768 5.33357 34.9493 5.15983 35.0179 5.00895C35.1139 4.78492 35.402 4.72091 35.5163 4.94037C35.562 5.02267 35.5665 5.12783 35.5345 5.21469C35.466 5.40215 35.2648 5.5256 35.0911 5.62161C35.1459 6.37142 35.2145 7.12581 35.3105 7.87106L35.2145 7.88477C35.1231 7.15325 35.0499 6.408 34.9996 5.6719C34.707 5.81821 34.387 5.90965 34.0578 5.94165C34.1263 6.30284 34.2772 7.27212 34.3824 8.1591L34.2909 8.16824ZM33.4863 5.72219C33.5731 5.81821 33.724 5.85935 33.9435 5.85021C33.9069 5.69019 33.852 5.54388 33.7377 5.4433C33.4908 5.21469 33.3354 5.56217 33.4863 5.72219ZM35.1048 5.04553C35.0499 5.16897 35.0728 5.329 35.0819 5.51645C35.2236 5.43415 35.3928 5.33357 35.4431 5.18269C35.4797 5.07753 35.4385 4.93123 35.3334 4.9038C35.3242 4.89922 35.1459 4.95866 35.1048 5.04553Z" fill="#FAE0B2"/>
<path d="M33.8105 7.85848C33.8151 7.86763 33.8151 7.87677 33.8197 7.88592L34.0849 8.9512C34.158 9.24381 34.4461 9.43584 34.7432 9.38555L35.4062 9.27582C35.7034 9.22553 35.9183 8.95578 35.8908 8.65402C35.8497 8.16481 35.804 7.81276 35.7994 7.5293L33.8105 7.85848Z" fill="#96D9C9"/>
<path d="M32.8202 2.70852L32.299 1.75296C32.2487 1.66152 32.2807 1.54264 32.3767 1.49235C32.4682 1.44206 32.587 1.47406 32.6373 1.57008L33.1585 2.52563C33.2088 2.61708 33.1768 2.73595 33.0808 2.78624C32.9848 2.83196 32.8705 2.79996 32.8202 2.70852Z" fill="#FAE0B2"/>
<path d="M31.6762 5.01205L30.5377 4.91146C30.4326 4.90232 30.3549 4.81088 30.364 4.70572C30.3732 4.60056 30.4646 4.52284 30.5698 4.53198L31.7082 4.63256C31.8133 4.64171 31.8911 4.73315 31.8819 4.83831C31.8728 4.94804 31.7813 5.02119 31.6762 5.01205Z" fill="#FAE0B2"/>
<path d="M30.5471 8.50685C30.4739 8.4337 30.4739 8.31026 30.5471 8.2371C30.8259 7.95821 31.1368 7.71131 31.4615 7.49186C31.5483 7.43242 31.6672 7.45528 31.7266 7.54672C31.7861 7.63359 31.7632 7.75246 31.6718 7.8119C31.3654 8.01764 31.0774 8.25082 30.8122 8.51143C30.7391 8.58458 30.6202 8.58458 30.5471 8.50685Z" fill="#FAE0B2"/>
<path d="M35.6303 2.65915C35.5297 2.63172 35.4703 2.52656 35.4932 2.42597C35.6212 1.94134 35.7035 1.44298 35.7263 0.944629C35.7309 0.839472 35.8223 0.757176 35.9275 0.76632C36.0327 0.770892 36.115 0.862332 36.1058 0.96749C36.0784 1.49328 35.9961 2.01906 35.8589 2.52656C35.8361 2.62257 35.7309 2.68201 35.6303 2.65915Z" fill="#FAE0B2"/>
<path d="M36.8056 4.12064C36.7736 4.02005 36.833 3.91489 36.9336 3.88289L38.1177 3.52627C38.2183 3.49427 38.3235 3.5537 38.3555 3.65429C38.3875 3.75487 38.3281 3.86003 38.2275 3.89203L37.0433 4.24865C36.9427 4.27609 36.833 4.22122 36.8056 4.12064Z" fill="#FAE0B2"/>
<path d="M38.7489 7.27272C38.7306 7.27272 38.7123 7.26815 38.6986 7.26358C38.2871 7.14927 37.8894 6.98925 37.5145 6.78808C37.423 6.73779 37.3865 6.62349 37.4367 6.53205C37.487 6.44061 37.6013 6.40403 37.6928 6.45432C38.0448 6.64178 38.4197 6.79265 38.8038 6.89781C38.9044 6.92524 38.9638 7.0304 38.9364 7.13099C38.9089 7.21786 38.8312 7.27272 38.7489 7.27272Z" fill="#FAE0B2"/>
<path d="M13.9318 26.173L13.3329 24.7602L11.8287 24.4493C11.6595 24.4127 11.6001 24.1978 11.7326 24.0835L12.8939 23.0777L12.7248 21.5552C12.7065 21.3814 12.8939 21.2626 13.0448 21.3494L14.357 22.1404L15.7561 21.5049C15.9161 21.4317 16.0898 21.5735 16.0487 21.7426L15.7012 23.2377L16.7345 24.3716C16.8533 24.4996 16.771 24.7099 16.5973 24.7236L15.0702 24.8562L14.3113 26.1912C14.2244 26.3467 14.0004 26.333 13.9318 26.173Z" fill="#F7CC7F"/>
<path d="M65.6043 10.8535L65.362 11.8411L63.7252 11.6216L63.1857 13.0252L61.9375 13.0572L61.9558 13.6928L63.6292 13.6425L64.1367 12.3166L65.8375 12.5452L66.2078 11.0547L65.6043 10.8535Z" fill="#F48C7F"/>
<path d="M51.038 58.2653H22.2935C21.1962 58.2653 20.3047 57.3418 20.3047 56.2033V54.978C20.3047 53.8396 21.1962 52.916 22.2935 52.916H51.038C49.7213 54.4065 49.6984 56.6834 50.9831 58.2013L51.038 58.2653Z" fill="#B75742"/>
<path d="M50.5956 53.5293H34.6529C33.5556 53.5293 32.6641 54.4529 32.6641 55.5913C32.6641 56.7297 33.5556 57.6533 34.6529 57.6533H50.5956C49.8504 56.3868 49.855 54.7912 50.5956 53.5293Z" fill="#FAE0B2"/>
<path d="M40.9425 49.2004C40.9837 49.1227 40.9196 49.0312 40.8236 49.0312H25.617C24.4237 49.0312 23.459 49.8999 23.459 50.9744C23.459 52.0488 24.4237 52.9175 25.617 52.9175H40.8282C40.9242 52.9175 40.9882 52.8261 40.9471 52.7483C40.3436 51.6236 40.3436 50.3206 40.9425 49.2004Z" fill="#86B1F2"/>
<path d="M40.8457 49.3906H33.3063C31.9073 49.3906 30.7734 50.1176 30.7734 51.0183C30.7734 51.919 31.9073 52.6459 33.3063 52.6459H40.8914C40.3747 51.6126 40.361 50.4331 40.8457 49.3906Z" fill="#F7CC7F"/>
<path d="M38.8983 50.1641H37.9153C37.705 50.1641 37.5312 50.2372 37.5312 50.3241V50.3378H38.8937V50.1641H38.8983Z" fill="#B75742"/>
<path d="M39.7357 50.5618C39.7357 50.3424 39.4797 50.1641 39.1642 50.1641H37.9023C38.1401 50.1641 38.3367 50.2967 38.3367 50.4658L38.3321 54.7224L39.0271 54.1737L39.7357 54.7224V50.5618Z" fill="#F47458"/>
<path d="M38.1458 48.8917H29.2989C28.5125 48.8917 27.877 48.1374 27.877 47.2047C27.877 46.272 28.5125 45.5176 29.2989 45.5176H38.1458C37.4691 46.4503 37.4417 47.8219 38.0818 48.7957L38.1458 48.8917Z" fill="#FAE0B2"/>
<path d="M27.8769 47.2046C27.8769 46.2719 28.5261 45.5175 29.3308 45.5175H38.3149C38.356 45.5175 38.3926 45.4763 38.388 45.4306C38.388 45.3849 38.356 45.3438 38.3149 45.3438H24.0638C23.1768 45.3438 22.459 46.1759 22.459 47.2046C22.459 48.2333 23.1768 49.0654 24.0638 49.0654H38.3149C38.356 49.0654 38.388 49.0288 38.388 48.9785C38.388 48.9282 38.356 48.8917 38.3149 48.8917H29.3308C28.5261 48.8917 27.8769 48.1373 27.8769 47.2046Z" fill="#466EB6"/>
<path d="M36.5995 46.3418H35.6165C35.4062 46.3418 35.2324 46.4104 35.2324 46.4972V46.511H36.5949V46.3418H36.5995Z" fill="#184655"/>
<path d="M37.4369 46.7304C37.4369 46.5155 37.1809 46.3418 36.8654 46.3418H35.6035C35.8413 46.3418 36.0379 46.4744 36.0379 46.639L36.0333 50.8133L36.7282 50.2783L37.4369 50.8133V46.7304Z" fill="#3C8F7C"/>
<path d="M52.2413 20.5617L53.5489 20.2188L52.662 32.0284L51.0938 32.0787L51.8847 20.9914C51.8984 20.7903 52.0402 20.6165 52.2413 20.5617Z" fill="#184655"/>
<path d="M52.7828 32.368C52.7554 32.3725 52.7234 32.3725 52.6914 32.368C52.4308 32.3359 52.2388 32.0799 52.2616 31.7919L53.1303 20.6864C53.1532 20.3983 53.3818 20.188 53.6424 20.22C53.903 20.252 54.095 20.5081 54.0721 20.7961L53.2034 31.9016C53.1806 32.1531 53.0023 32.3451 52.7828 32.368Z" fill="#F7CC7F"/>
<path d="M40.7578 32.9581C40.7578 32.9673 40.7578 32.9764 40.7578 32.981C40.799 33.4336 41.151 33.772 41.5396 33.7354L52.572 32.7478C52.9606 32.7112 53.2487 32.318 53.2075 31.8654C53.2075 31.8471 53.2029 31.8288 53.1984 31.8105L40.7578 32.9581Z" fill="#F7CC7F"/>
<path d="M48.4413 44.8872C47.7189 45.2896 45.5106 44.5855 45.5106 44.5215C45.4786 45.125 43.0371 51.0321 43.0371 51.0321V52.8518C43.0371 52.8518 48.0664 53.0895 47.9932 52.646C47.9201 52.2025 47.6503 52.4906 46.649 51.6493C46.5622 51.5762 45.1494 51.247 45.5334 50.4149C46.3016 48.7369 47.9338 45.9342 48.4413 44.8872Z" fill="#F7A491"/>
<path d="M42.8762 52.9176H48.3809C48.5775 52.8993 48.6278 52.7347 48.5547 52.6387C48.4084 52.4375 47.3568 51.9574 46.6436 51.6419C45.4091 51.7883 43.2374 51.3128 43.0362 51.0293C42.515 51.7288 42.7619 52.8947 42.8762 52.9176Z" fill="#3C8F7C"/>
<path d="M41.6654 40.6458C41.5923 40.4217 46.4067 38.378 46.6215 38.6112C47.001 39.0227 44.0155 46.7769 44.0155 46.7769L47.4445 47.8239C47.4445 47.8239 51.0107 38.8672 50.8644 37.2304C50.7135 35.5936 48.9304 33.7328 45.0579 34.9216C41.1854 36.1103 41.6654 40.6458 41.6654 40.6458Z" fill="#355389"/>
<path d="M51.6352 45.9069C50.8214 45.7606 49.7698 45.7149 48.924 45.7012C49.0246 46.451 49.5047 50.3007 49.4178 50.5384C49.0612 51.4985 48.2656 51.9466 48.2656 51.9466C48.2656 51.9466 52.0056 55.3208 52.2296 54.9321C52.4536 54.5435 52.065 54.5938 51.8181 53.3091C51.7953 53.1948 51.2558 51.4025 51.2238 50.4332C51.1643 48.5861 51.6078 46.9311 51.6352 45.9069Z" fill="#F7A491"/>
<path d="M50.4331 33.3116C49.9118 33.0327 48.5585 33.0236 47.068 33.1196C44.1648 33.307 41.2981 33.8785 38.5411 34.793L36.694 35.4056L36.6986 33.5128C36.6986 33.5128 30.819 32.5298 30.6178 33.9883C30.3115 36.1829 30.6909 40.636 32.6523 41.6282C38.7332 44.7143 47.26 36.7086 47.2921 37.7556C47.3332 39.1638 48.5174 44.3988 48.8237 46.6894C49.6649 46.7032 51.1143 46.7031 51.7452 46.5614C51.8641 42.0671 51.919 34.1026 50.4331 33.3116Z" fill="#466EB6"/>
<path d="M48.1566 52.0244L52.3583 55.3802C52.5229 55.49 52.6646 55.394 52.6692 55.2751C52.6875 55.0282 52.1708 53.9903 51.8233 53.2954C50.7763 52.6233 49.3956 50.8722 49.4185 50.5293C48.9795 50.9042 48.0834 51.9375 48.1566 52.0244Z" fill="#3C8F7C"/>
<path d="M38.643 15.001C38.5013 13.7117 38.355 12.4132 37.2851 11.4714C36.421 10.7078 35.3191 10.5752 34.231 10.9867C31.1449 12.148 32.7359 14.8867 28.804 17.6482C27.5832 18.5077 26.2345 19.093 25.3155 20.2497C24.0262 21.8682 24.5154 23.8113 25.6858 25.1098C31.3003 31.3232 37.5686 22.9335 38.0212 20.9172C38.355 19.413 38.7345 15.8331 38.643 15.001Z" fill="#13375B"/>
<path d="M37.5038 22.2545C37.0466 21.4086 36.5712 20.7365 36.5712 20.7365C36.0957 19.8907 34.8658 19.4609 34.8658 19.4609C34.8658 19.4609 34.4543 19.4701 33.9834 19.4929C33.9559 19.5707 33.9239 19.6255 33.8965 19.6484C33.7182 19.781 32.7032 19.6118 32.0448 20.0553C29.8457 21.9436 30.4537 31.0877 30.6275 33.9772L37.3301 34.0412C37.3301 34.0412 36.4843 27.8232 37.8468 26.2276C38.7932 25.1211 38.1805 23.5118 37.5038 22.2545Z" fill="#50BFA5"/>
<path d="M34.4807 16.3715C34.4807 16.3715 34.1103 19.005 33.8543 19.6451C33.5983 20.2852 35.2716 21.6522 36.6615 22.0683C38.0514 22.4843 36.2363 20.6555 36.2958 19.9697C36.3552 19.2839 36.6067 16.0469 36.6067 16.0469L34.4807 16.3715Z" fill="#F7A491"/>
<path d="M36.535 16.9809C36.5762 16.4459 36.6036 16.0527 36.6036 16.0527L34.4776 16.3774C34.4776 16.3774 34.4227 16.6883 34.3633 17.1226C35.2274 17.6209 36.0046 17.4609 36.535 16.9809Z" fill="#F47458"/>
<path d="M35.1437 11.5669C35.1437 11.5669 34.307 11.7543 33.7903 12.5453C33.2737 13.3362 32.9171 15.6543 34.6224 16.7424C36.3232 17.826 37.6491 16.2944 37.672 14.7993C37.6949 13.2997 37.3702 11.3017 35.1437 11.5669Z" fill="#F7A491"/>
<path d="M38.0605 14.3234C37.9142 14.6846 37.6262 14.9086 37.4159 14.8217C37.2056 14.7349 37.1507 14.3737 37.297 14.0171C37.4433 13.6559 37.7313 13.4318 37.9417 13.5187C38.152 13.601 38.2068 13.9622 38.0605 14.3234Z" fill="#F7A491"/>
<path d="M35.3955 11.5159C35.3955 11.5159 34.3302 13.9116 33.3884 14.122C32.4511 14.3368 32.4649 15.5393 32.4649 15.5393C32.4649 15.5393 32.4877 12.7595 33.3655 12.1194C34.248 11.4839 35.3955 11.5159 35.3955 11.5159Z" fill="#13375B"/>
<path d="M33.7645 14.6198C33.8879 15.0084 33.7736 15.3925 33.513 15.4748C33.2524 15.5571 32.9369 15.3102 32.8135 14.9216C32.69 14.5329 32.8043 14.1489 33.0649 14.0666C33.3301 13.9843 33.641 14.2312 33.7645 14.6198Z" fill="#F7A491"/>
<path d="M45.7573 31.9028C45.355 31.7565 44.756 31.7382 44.7652 31.6879C44.8063 31.473 46.5803 32.1634 46.3425 31.8479C46.2099 31.6742 44.8795 31.0569 44.5549 31.1575C44.2394 31.2581 42.182 31.8342 42.182 31.8342L36.5538 30.5129C36.5538 30.5129 35.1319 27.285 34.9947 24.5098C33.8197 24.6698 33.0196 24.9578 32 25.5248C32.4938 28.1766 33.6871 32.4788 35.013 33.2835C35.5708 33.6219 42.214 32.8766 42.214 32.8766C42.214 32.8766 43.677 32.7715 43.9193 32.68C44.1022 32.6114 44.5686 32.3463 44.82 32.2731C45.3961 32.1085 46.4248 32.52 46.4294 32.4057C46.4294 32.3325 46.1688 32.0536 45.7573 31.9028Z" fill="#F7A491"/>
<path d="M35.03 21.5515C34.9751 20.6965 34.6505 19.8735 33.7452 19.6084C33.1829 19.4438 32.5519 19.5992 32.0993 19.9696C31.5644 20.4085 31.4135 21.108 31.4181 21.7709C31.4226 23.2797 31.5278 24.8388 31.8021 26.3247C32.8217 25.7578 34.015 25.4194 35.19 25.2594C35.1854 25.2457 35.0986 22.6762 35.03 21.5515Z" fill="#96D9C9"/>
<path d="M58.0104 3.71119L56.5199 4.1181L56.1953 2.30757L56.6845 2.2207L56.9131 3.49631L57.8824 3.23113L58.0104 3.71119Z" fill="#50BFA5"/>
<path d="M43.4431 41.7285H20.8023C20.0982 41.7285 19.5312 42.3 19.5312 42.9995V44.0694C19.5312 44.7735 20.1028 45.3404 20.8023 45.3404H43.4431L43.4294 45.3267C42.4601 44.3254 42.4692 42.7298 43.4431 41.7285Z" fill="#F47458"/>
<path d="M43.0412 42.2637H30.939C30.2349 42.2637 29.668 42.8352 29.668 43.5347C29.668 44.2388 30.2395 44.8057 30.939 44.8057H43.0412C42.5977 44.0193 42.5977 43.0501 43.0412 42.2637Z" fill="#FAE0B2"/>
<path d="M60.745 31.3457L59.0304 27.0389C58.9436 26.824 59.0487 26.5771 59.2682 26.4902L65.445 24.0304C65.6599 23.9436 65.9068 24.0487 65.9937 24.2682L67.7082 28.5751C67.7951 28.7899 67.6899 29.0368 67.4705 29.1237L61.2936 31.5835C61.0787 31.6658 60.8318 31.5606 60.745 31.3457Z" fill="#FAE0B2"/>
<path d="M66.5702 28.8536L65.0294 24.9857C65.0066 24.9217 65.034 24.8531 65.098 24.8302C65.162 24.8074 65.2306 24.8348 65.2535 24.8988L66.7943 28.7668C66.8171 28.8308 66.7897 28.8994 66.7257 28.9222C66.6662 28.9451 66.5977 28.9176 66.5702 28.8536Z" fill="#466EB6"/>
<path d="M65.8389 28.341L64.5724 25.1634C64.5496 25.0994 64.577 25.0308 64.641 25.008C64.705 24.9851 64.7736 25.0125 64.7965 25.0765L66.0629 28.2541C66.0858 28.3181 66.0583 28.3867 65.9943 28.4096C65.9349 28.437 65.8617 28.405 65.8389 28.341Z" fill="#466EB6"/>
<path d="M65.6562 29.2189L64.1154 25.3509C64.0925 25.2869 64.12 25.2183 64.184 25.1955C64.248 25.1726 64.3166 25.2 64.3394 25.264L65.8802 29.132C65.9031 29.196 65.8756 29.2646 65.8116 29.2874C65.7522 29.3103 65.679 29.2829 65.6562 29.2189Z" fill="#466EB6"/>
<path d="M64.8412 28.5201L63.6525 25.5345C63.6296 25.4705 63.6571 25.4019 63.7211 25.3791C63.7851 25.3562 63.8537 25.3836 63.8765 25.4476L65.0653 28.4332C65.0881 28.4972 65.0607 28.5658 64.9967 28.5886C64.9372 28.6115 64.8687 28.5795 64.8412 28.5201Z" fill="#466EB6"/>
<path d="M66.5292 24.5696L66.4972 24.4919C66.4834 24.4644 66.456 24.4507 66.4286 24.4599L65.8434 24.693C65.8159 24.7022 65.8022 24.7342 65.8159 24.7662L65.8479 24.8439C65.8571 24.8713 65.8891 24.8851 65.9165 24.8759L66.5017 24.6427C66.5292 24.6336 66.5429 24.6016 66.5292 24.5696Z" fill="#355389"/>
<path d="M66.662 24.9036L66.63 24.8258C66.6208 24.7984 66.5888 24.7847 66.5614 24.7938L65.9762 25.027C65.9487 25.0362 65.935 25.0682 65.9487 25.1002L65.9807 25.1779C65.9899 25.2053 66.0219 25.219 66.0493 25.2099L66.6345 24.9767C66.662 24.9676 66.6757 24.9356 66.662 24.9036Z" fill="#355389"/>
<path d="M66.7987 25.2356L66.7667 25.1579C66.7575 25.1304 66.7255 25.1167 66.6981 25.1259L66.1129 25.359C66.0855 25.3682 66.0717 25.4002 66.0855 25.4322L66.1175 25.5099C66.1266 25.5374 66.1586 25.5511 66.186 25.5419L66.7713 25.3087C66.7941 25.295 66.8078 25.263 66.7987 25.2356Z" fill="#355389"/>
<path d="M66.9315 25.5696L66.8995 25.4919C66.8858 25.4644 66.8584 25.4507 66.8309 25.4599L66.2457 25.693C66.2183 25.7022 66.2046 25.7342 66.2183 25.7662L66.2503 25.8439C66.264 25.8713 66.2914 25.8851 66.3189 25.8759L66.9041 25.6427C66.9269 25.629 66.9407 25.597 66.9315 25.5696Z" fill="#355389"/>
<path d="M67.0643 25.9055L67.0323 25.8278C67.0232 25.8004 66.9912 25.7866 66.9637 25.7958L66.3785 26.029C66.3511 26.0381 66.3374 26.0701 66.3511 26.1021L66.3831 26.1798C66.3922 26.2073 66.4242 26.221 66.4517 26.2118L67.0369 25.9787C67.0598 25.965 67.0735 25.9329 67.0643 25.9055Z" fill="#355389"/>
<path d="M67.1971 26.2376L67.1651 26.1598C67.1514 26.1324 67.124 26.1187 67.0966 26.1278L66.5113 26.361C66.4839 26.3701 66.4702 26.4021 66.4839 26.4342L66.5159 26.5119C66.525 26.5393 66.557 26.553 66.5845 26.5439L67.1697 26.3107C67.1926 26.297 67.2063 26.265 67.1971 26.2376Z" fill="#355389"/>
<path d="M67.328 26.5715L67.296 26.4938C67.2868 26.4664 67.2548 26.4527 67.2274 26.4618L66.6422 26.695C66.6148 26.7041 66.601 26.7361 66.6148 26.7681L66.6468 26.8459C66.6559 26.8733 66.6879 26.887 66.7153 26.8779L67.3006 26.6447C67.3234 26.631 67.3371 26.599 67.328 26.5715Z" fill="#355389"/>
<path d="M67.4628 26.9055L67.4308 26.8278C67.4216 26.8004 67.3896 26.7866 67.3622 26.7958L66.777 27.029C66.7495 27.0381 66.7358 27.0701 66.7495 27.1021L66.7815 27.1798C66.7907 27.2073 66.8227 27.221 66.8501 27.2119L67.4353 26.9787C67.4628 26.965 67.4719 26.933 67.4628 26.9055Z" fill="#355389"/>
<path d="M67.5936 27.2356L67.5616 27.1579C67.5525 27.1304 67.5205 27.1167 67.493 27.1259L66.9078 27.359C66.8804 27.3682 66.8667 27.4002 66.8804 27.4322L66.9124 27.5099C66.9261 27.5374 66.9535 27.5511 66.981 27.5419L67.5662 27.3088C67.5936 27.2996 67.6028 27.2676 67.5936 27.2356Z" fill="#355389"/>
<path d="M67.7264 27.5676L67.6944 27.4899C67.6807 27.4625 67.6533 27.4488 67.6258 27.4579L67.0406 27.6911C67.0132 27.7002 66.9995 27.7322 67.0132 27.7642L67.0452 27.842C67.0543 27.8694 67.0863 27.8831 67.1138 27.874L67.699 27.6408C67.7264 27.6316 67.7356 27.5996 67.7264 27.5676Z" fill="#355389"/>
<path d="M67.8592 27.9016L67.8272 27.8239C67.8181 27.7965 67.7861 27.7827 67.7587 27.7919L67.1734 28.0251C67.146 28.0342 67.1323 28.0662 67.146 28.0982L67.178 28.1759C67.1917 28.2034 67.2192 28.2171 67.2466 28.2079L67.8318 27.9748C67.8592 27.9656 67.8684 27.9336 67.8592 27.9016Z" fill="#355389"/>
<path d="M67.9921 28.2356L67.9601 28.1579C67.9509 28.1304 67.9189 28.1167 67.8915 28.1259L67.3062 28.359C67.2788 28.3682 67.2651 28.4002 67.2788 28.4322L67.3108 28.5099C67.32 28.5373 67.352 28.5511 67.3794 28.5419L67.9646 28.3088C67.9921 28.295 68.0058 28.263 67.9921 28.2356Z" fill="#355389"/>
<path d="M69.611 27.8933L67.1604 31.3817C67.1558 31.3909 67.1513 31.4 67.1467 31.4092L66.8952 32.1773C66.8678 32.2687 66.9684 32.3419 67.0461 32.2824L67.6999 31.7887C67.7091 31.7841 67.7136 31.7749 67.7228 31.7658L70.1826 28.2682C70.2146 28.2225 70.2008 28.163 70.1551 28.131L69.7436 27.8658C69.6979 27.8384 69.643 27.8521 69.611 27.8933Z" fill="#B75742"/>
<path d="M67.7233 31.7687L67.7187 31.7779L67.0878 32.2534L66.9141 32.1391L67.1518 31.4121C67.3347 31.5127 67.5541 31.6179 67.7233 31.7687Z" fill="#F7CC7F"/>
<path d="M46.008 0.59375C46.3601 0.877217 46.9727 1.78248 47.7591 2.418C48.2163 2.78833 48.5684 2.69689 49.1536 2.76547C51.9288 3.09923 51.1744 3.66617 51.5082 3.7256C51.4122 3.94506 50.5481 5.77845 50.388 6.15336C50.2372 6.49627 49.9811 6.64714 49.6062 6.59685C49.0347 6.51913 48.4541 6.45969 47.8871 6.33624C46.4378 6.02077 45.6331 5.29839 44.5952 4.42056C44.3209 4.18738 44.2523 3.89477 44.3941 3.56558C45.0616 2.02937 45.9349 0.735484 46.008 0.59375Z" fill="#466EB6"/>
<path d="M51.8096 5.93814C51.7959 6.54165 51.8416 6.6651 51.5856 6.57366C51.4302 6.51879 51.2793 6.44564 51.1284 6.37249C51.0233 6.31762 51.0187 6.24904 51.1055 6.16217C51.229 6.03873 51.357 5.91986 51.4805 5.79641C51.389 5.55866 51.4942 5.28434 51.7136 5.15175C51.7594 5.12432 51.7273 5.17918 52.1114 4.2922C50.8358 4.13675 49.9305 4.02703 48.3715 3.835C47.9554 3.78471 47.5851 3.62011 47.2604 3.35036C46.1449 2.41767 45.0339 1.48497 43.9229 0.55684C43.772 0.428823 43.7537 0.245941 43.8726 0.104207C43.964 -0.00552182 44.0875 -0.0100941 44.2155 0.00819406C44.5721 0.0539146 48.0606 0.488259 48.4126 0.529408C48.879 0.584272 49.2859 0.75801 49.6471 1.05977C50.7398 1.97418 51.8371 2.88859 52.9344 3.803C53.0852 3.92644 53.1264 4.04532 53.0715 4.18248C53.0121 4.33793 52.8886 4.41108 52.6966 4.36536C52.5595 4.33335 52.4954 4.37907 52.4497 4.50709C52.2348 5.08317 52.084 5.21119 52.1388 5.42608C52.1754 5.58153 51.9834 5.86499 51.8096 5.93814Z" fill="#86B1F2"/>
<path d="M57.5938 47.011L58.2293 47.6191C59.7335 49.0547 60.9588 50.751 61.8458 52.6301L61.9418 52.8358C61.9418 52.8358 63.606 52.9821 63.8392 51.4779C62.3807 49.8274 61.1782 48.0672 60.1861 46.1103L59.8844 45.4062L57.5938 47.011Z" fill="#466EB6"/>
<path d="M59.8843 45.3999C59.9666 45.5188 59.5186 45.9714 58.8876 46.4104C58.2567 46.8493 57.6715 47.119 57.5937 47.0001C57.5114 46.8813 57.9595 46.4241 58.595 45.9851C59.226 45.5462 59.802 45.2856 59.8843 45.3999Z" fill="#86B1F2"/>
<path d="M59.888 45.4062C59.888 45.4062 58.6169 46.4761 58.0957 46.5858L58.2557 46.8053C58.4478 46.7001 58.6626 46.5676 58.8867 46.4121C59.513 45.9778 59.9565 45.5297 59.888 45.4062Z" fill="#355389"/>
<path d="M61.58 48.5195C61.58 48.7024 61.5114 49.5025 60.1855 49.8363C60.2724 49.9552 60.3593 50.074 60.4416 50.1975C61.2828 49.9506 61.6577 49.5162 61.8315 49.187C61.8589 49.1368 61.8909 49.0636 61.9138 49.0133C61.7995 48.8533 61.6898 48.6887 61.58 48.5195Z" fill="#B75742"/>
<path d="M60.3045 49.6044L58.3477 49.5312L58.814 49.9244L58.5351 50.4274L60.3868 49.9565L60.3045 49.6044Z" fill="#B75742"/>
<path d="M60.484 50.0547L59.7891 51.2663L60.2783 51.0788L60.4657 51.4629L60.7903 50.1918L60.484 50.0547Z" fill="#B75742"/>
<path d="M60.7471 50.3851C60.4042 50.4079 60.107 50.1427 60.0795 49.7907C60.0567 49.4386 60.3127 49.1323 60.6556 49.1049C60.9985 49.082 61.2957 49.3472 61.3231 49.6993C61.346 50.0559 61.09 50.3622 60.7471 50.3851Z" fill="#F47458"/>
<path d="M10.9627 7.09961L11.3925 7.94087L12.3526 7.90886L12.7595 8.88728L13.7745 8.53981L14.2866 9.62338L15.2604 9.41764L15.9234 10.3778L15.5576 10.6292L15.0638 9.91142L14.0351 10.1263L13.5459 9.08388L12.5126 9.4405L12.06 8.36149L11.1227 8.3935L10.7295 7.61168L10.1169 7.76256L10.0117 7.33278L10.9627 7.09961Z" fill="#F7CC7F"/>
<path d="M0.566941 33.094L1.4402 33.446L2.1443 32.7922L3.09528 33.2586L3.63021 32.3304L4.72751 32.8105L5.32644 32.0195L6.46031 32.3076L6.35058 32.7373L5.50476 32.5179L4.87381 33.3591L3.81766 32.8974L3.27359 33.8392L2.22202 33.3226L1.53621 33.9627L0.726963 33.6335L0.361199 34.1501L0 33.8941L0.566941 33.094Z" fill="#50BFA5"/>
</svg>
