<svg width="191" height="168" viewBox="0 0 191 168" fill="none" xmlns="http://www.w3.org/2000/svg">
<mask id="mask0_512_17" style="mask-type:alpha" maskUnits="userSpaceOnUse" x="0" y="0" width="152" height="124">
<rect width="152" height="124" rx="16" fill="#FF9F1C"/>
</mask>
<g mask="url(#mask0_512_17)">
<circle cx="147" cy="124" r="44" fill="white"/>
</g>
<rect x="115.555" y="98.666" width="9.33333" height="1.66667" rx="0.5" fill="#29AB87"/>
<rect x="114" y="107" width="9.33333" height="1.66667" rx="0.5" fill="#29AB87"/>
<rect x="115.555" y="113.666" width="9.33333" height="1.66667" rx="0.5" fill="#29AB87"/>
<g clip-path="url(#clip0_512_17)">
<path d="M138.337 110.101L135.214 106.764V101.139C135.213 100.984 135.156 100.835 135.053 100.725C134.951 100.615 134.812 100.553 134.667 100.553C134.522 100.553 134.383 100.615 134.28 100.725C134.178 100.835 134.12 100.984 134.119 101.139V107.009C134.119 107.086 134.133 107.163 134.16 107.235C134.186 107.308 134.227 107.37 134.276 107.428L137.556 110.937C137.664 111.053 137.803 111.11 137.942 111.11C138.081 111.11 138.22 111.053 138.328 110.937C138.548 110.702 138.548 110.332 138.337 110.101Z" fill="#29AB87"/>
<path d="M134.667 116.962C129.538 116.962 125.369 112.491 125.369 107.001C125.369 101.51 129.538 97.0391 134.667 97.0391C139.795 97.0391 143.964 101.51 143.964 107.001C143.964 112.491 139.795 116.962 134.667 116.962ZM134.667 98.2073C130.143 98.2073 126.46 102.15 126.46 107.001C126.46 111.852 130.139 115.794 134.667 115.794C139.194 115.794 142.874 111.852 142.874 107.001C142.874 102.15 139.19 98.2073 134.667 98.2073Z" fill="#29AB87"/>
</g>
<defs>
<clipPath id="clip0_512_17">
<rect width="18.6667" height="20" fill="white" transform="translate(125.332 97)"/>
</clipPath>
</defs>
</svg>
