<svg width="110" height="110" viewBox="0 0 110 110" fill="none" xmlns="http://www.w3.org/2000/svg">
<g filter="url(#filter0_d_566_7)">
<circle cx="55" cy="39" r="15" fill="white"/>
<circle cx="55" cy="39" r="14.5" stroke="white"/>
</g>
<path d="M54.6211 30.75C54.1019 30.75 53.5944 30.596 53.1627 30.3076C52.731 30.0192 52.3946 29.6092 52.1959 29.1295C51.9972 28.6499 51.9452 28.1221 52.0465 27.6129C52.1478 27.1037 52.3978 26.636 52.7649 26.2688C53.1321 25.9017 53.5998 25.6517 54.109 25.5504C54.6182 25.4492 55.146 25.5011 55.6256 25.6998C56.1053 25.8985 56.5153 26.235 56.8037 26.6666C57.0921 27.0983 57.2461 27.6058 57.2461 28.125C57.2461 28.8212 56.9695 29.4889 56.4773 29.9812C55.985 30.4734 55.3173 30.75 54.6211 30.75ZM54.6211 27.25C54.448 27.25 54.2789 27.3013 54.135 27.3975C53.9911 27.4936 53.8789 27.6303 53.8127 27.7902C53.7465 27.95 53.7291 28.126 53.7629 28.2957C53.7967 28.4654 53.88 28.6213 54.0024 28.7437C54.1247 28.8661 54.2807 28.9494 54.4504 28.9832C54.6201 29.017 54.7961 28.9996 54.9559 28.9334C55.1158 28.8672 55.2525 28.755 55.3486 28.6111C55.4448 28.4672 55.4961 28.2981 55.4961 28.125C55.4961 27.8929 55.4039 27.6704 55.2398 27.5063C55.0757 27.3422 54.8532 27.25 54.6211 27.25Z" fill="#0A1D47"/>
<path d="M57.2461 44.75H51.9961C51.764 44.75 51.5415 44.8422 51.3774 45.0063C51.2133 45.1704 51.1211 45.3929 51.1211 45.625V46.5C51.1211 47.4283 51.4898 48.3185 52.1462 48.9749C52.8026 49.6313 53.6928 50 54.6211 50C55.5494 50 56.4396 49.6313 57.096 48.9749C57.7523 48.3185 58.1211 47.4283 58.1211 46.5V45.625C58.1211 45.3929 58.0289 45.1704 57.8648 45.0063C57.7007 44.8422 57.4782 44.75 57.2461 44.75Z" fill="#0A1D47"/>
<path d="M65.5136 44.8463C64.6048 44.3954 63.8403 43.6991 63.3068 42.8362C62.7733 41.9733 62.492 40.9783 62.4948 39.9638V36.875C62.4948 34.7864 61.6651 32.7834 60.1883 31.3065C58.7114 29.8297 56.7084 29 54.6198 29C52.5312 29 50.5282 29.8297 49.0513 31.3065C47.5745 32.7834 46.7448 34.7864 46.7448 36.875V39.9638C46.7476 40.9783 46.4663 41.9733 45.9328 42.8362C45.3993 43.6991 44.6349 44.3954 43.7261 44.8463C43.5517 44.9356 43.4123 45.0809 43.3303 45.2588C43.2483 45.4368 43.2284 45.6371 43.2738 45.8277C43.3192 46.0183 43.4272 46.1881 43.5806 46.31C43.734 46.432 43.9239 46.4988 44.1198 46.5H65.1198C65.3157 46.4988 65.5056 46.432 65.659 46.31C65.8124 46.1881 65.9205 46.0183 65.9658 45.8277C66.0112 45.6371 65.9913 45.4368 65.9093 45.2588C65.8273 45.0809 65.688 44.9356 65.5136 44.8463V44.8463Z" fill="#22345C"/>
<defs>
<filter id="filter0_d_566_7" x="0" y="0" width="110" height="110" filterUnits="userSpaceOnUse" color-interpolation-filters="sRGB">
<feFlood flood-opacity="0" result="BackgroundImageFix"/>
<feColorMatrix in="SourceAlpha" type="matrix" values="0 0 0 0 0 0 0 0 0 0 0 0 0 0 0 0 0 0 127 0" result="hardAlpha"/>
<feOffset dy="16"/>
<feGaussianBlur stdDeviation="20"/>
<feComposite in2="hardAlpha" operator="out"/>
<feColorMatrix type="matrix" values="0 0 0 0 0.117647 0 0 0 0 0.160784 0 0 0 0 0.34902 0 0 0 0.2 0"/>
<feBlend mode="normal" in2="BackgroundImageFix" result="effect1_dropShadow_566_7"/>
<feBlend mode="normal" in="SourceGraphic" in2="effect1_dropShadow_566_7" result="shape"/>
</filter>
</defs>
</svg>
