<svg width="48" height="48" viewBox="0 0 48 48" fill="none" xmlns="http://www.w3.org/2000/svg">
<path d="M20.068 21.96C20.002 21.684 19.882 21.477 19.708 21.339C19.534 21.201 19.291 21.132 18.979 21.132C18.505 21.132 18.151 21.315 17.917 21.681C17.683 22.041 17.56 22.641 17.548 23.481C17.704 23.217 17.932 23.013 18.232 22.869C18.532 22.725 18.856 22.653 19.204 22.653C19.6 22.653 19.948 22.74 20.248 22.914C20.554 23.082 20.791 23.328 20.959 23.652C21.133 23.976 21.22 24.363 21.22 24.813C21.22 25.233 21.136 25.608 20.968 25.938C20.806 26.268 20.563 26.529 20.239 26.721C19.915 26.907 19.525 27 19.069 27C18.451 27 17.965 26.865 17.611 26.595C17.263 26.319 17.017 25.932 16.873 25.434C16.735 24.936 16.666 24.315 16.666 23.571C16.666 21.375 17.44 20.277 18.988 20.277C19.588 20.277 20.059 20.439 20.401 20.763C20.749 21.087 20.953 21.486 21.013 21.96H20.068ZM18.979 23.517C18.613 23.517 18.301 23.628 18.043 23.85C17.791 24.066 17.665 24.381 17.665 24.795C17.665 25.209 17.782 25.539 18.016 25.785C18.256 26.025 18.589 26.145 19.015 26.145C19.393 26.145 19.69 26.028 19.906 25.794C20.128 25.56 20.239 25.248 20.239 24.858C20.239 24.45 20.131 24.126 19.915 23.886C19.705 23.64 19.393 23.517 18.979 23.517ZM22.3144 23.634C22.3144 22.596 22.4884 21.786 22.8364 21.204C23.1904 20.616 23.7964 20.322 24.6544 20.322C25.5124 20.322 26.1154 20.616 26.4634 21.204C26.8174 21.786 26.9944 22.596 26.9944 23.634C26.9944 24.684 26.8174 25.506 26.4634 26.1C26.1154 26.688 25.5124 26.982 24.6544 26.982C23.7964 26.982 23.1904 26.688 22.8364 26.1C22.4884 25.506 22.3144 24.684 22.3144 23.634ZM25.9864 23.634C25.9864 23.148 25.9534 22.737 25.8874 22.401C25.8274 22.065 25.7014 21.792 25.5094 21.582C25.3174 21.366 25.0324 21.258 24.6544 21.258C24.2764 21.258 23.9914 21.366 23.7994 21.582C23.6074 21.792 23.4784 22.065 23.4124 22.401C23.3524 22.737 23.3224 23.148 23.3224 23.634C23.3224 24.138 23.3524 24.561 23.4124 24.903C23.4724 25.245 23.5984 25.521 23.7904 25.731C23.9884 25.941 24.2764 26.046 24.6544 26.046C25.0324 26.046 25.3174 25.941 25.5094 25.731C25.7074 25.521 25.8364 25.245 25.8964 24.903C25.9564 24.561 25.9864 24.138 25.9864 23.634Z" fill="#1E2959"/>
<path d="M28.252 23.682C28.252 23.39 28.336 23.162 28.504 22.998C28.676 22.83 28.896 22.746 29.164 22.746C29.432 22.746 29.65 22.83 29.818 22.998C29.99 23.162 30.076 23.39 30.076 23.682C30.076 23.974 29.99 24.204 29.818 24.372C29.65 24.54 29.432 24.624 29.164 24.624C28.896 24.624 28.676 24.54 28.504 24.372C28.336 24.204 28.252 23.974 28.252 23.682ZM31.912 22.824L29.518 27H28.846L31.24 22.824H31.912ZM29.164 23.16C28.912 23.16 28.786 23.334 28.786 23.682C28.786 24.034 28.912 24.21 29.164 24.21C29.284 24.21 29.376 24.168 29.44 24.084C29.508 23.996 29.542 23.862 29.542 23.682C29.542 23.334 29.416 23.16 29.164 23.16ZM30.694 26.136C30.694 25.844 30.778 25.616 30.946 25.452C31.118 25.284 31.338 25.2 31.606 25.2C31.87 25.2 32.086 25.284 32.254 25.452C32.426 25.616 32.512 25.844 32.512 26.136C32.512 26.428 32.426 26.658 32.254 26.826C32.086 26.994 31.87 27.078 31.606 27.078C31.338 27.078 31.118 26.994 30.946 26.826C30.778 26.658 30.694 26.428 30.694 26.136ZM31.6 25.614C31.348 25.614 31.222 25.788 31.222 26.136C31.222 26.484 31.348 26.658 31.6 26.658C31.852 26.658 31.978 26.484 31.978 26.136C31.978 25.788 31.852 25.614 31.6 25.614Z" fill="#1E2959" fill-opacity="0.68"/>
<mask id="path-3-inside-1_616_15" fill="white">
<path d="M11.2852 35.2852C5.0524 28.2636 5.69179 17.5188 12.7133 11.286C19.7349 5.05315 30.4797 5.69254 36.7125 12.7141C42.9453 19.7356 42.306 30.4804 35.2844 36.7133C28.2628 42.9461 17.5181 42.3067 11.2852 35.2852ZM33.872 15.2356C29.0317 9.78281 20.6876 9.28628 15.2348 14.1265C9.78206 18.9668 9.28553 27.3109 14.1258 32.7637C18.966 38.2164 27.3102 38.713 32.7629 33.8727C38.2157 29.0325 38.7122 20.6883 33.872 15.2356Z"/>
</mask>
<path d="M11.2852 35.2852C5.0524 28.2636 5.69179 17.5188 12.7133 11.286C19.7349 5.05315 30.4797 5.69254 36.7125 12.7141C42.9453 19.7356 42.306 30.4804 35.2844 36.7133C28.2628 42.9461 17.5181 42.3067 11.2852 35.2852ZM33.872 15.2356C29.0317 9.78281 20.6876 9.28628 15.2348 14.1265C9.78206 18.9668 9.28553 27.3109 14.1258 32.7637C18.966 38.2164 27.3102 38.713 32.7629 33.8727C38.2157 29.0325 38.7122 20.6883 33.872 15.2356Z" stroke="#D7D7D7" stroke-opacity="0.57" stroke-width="14" stroke-linecap="round" stroke-linejoin="round" mask="url(#path-3-inside-1_616_15)"/>
<mask id="path-4-inside-2_616_15" fill="white">
<path d="M15.0297 36.1483C14.4068 36.9921 14.5814 38.1916 15.4894 38.7166C17.2534 39.7365 19.1911 40.4337 21.2113 40.7695C23.8578 41.2094 26.5708 41.0167 29.1285 40.2072C31.6862 39.3977 34.0161 37.9944 35.9275 36.1119C37.839 34.2294 39.2777 31.9213 40.1262 29.3763C40.9747 26.8312 41.2088 24.1214 40.8094 21.4686C40.41 18.8157 39.3884 16.295 37.8281 14.1126C36.2678 11.9302 34.2132 10.1481 31.8322 8.91191C30.0146 7.96824 28.0462 7.36318 26.0231 7.12056C24.9817 6.99567 24.1222 7.85036 24.1142 8.89918C24.1062 9.94801 24.9544 10.7908 25.9912 10.9491C27.4144 11.1663 28.7968 11.6156 30.082 12.2829C31.931 13.2429 33.5266 14.6268 34.7383 16.3216C35.9499 18.0164 36.7433 19.9739 37.0535 22.0341C37.3637 24.0942 37.1819 26.1985 36.523 28.175C35.864 30.1514 34.7467 31.9438 33.2623 33.4057C31.778 34.8676 29.9687 35.9574 27.9824 36.586C25.9961 37.2147 23.8893 37.3643 21.8341 37.0227C20.4055 36.7852 19.0301 36.3151 17.7613 35.6349C16.8369 35.1393 15.6527 35.3045 15.0297 36.1483Z"/>
</mask>
<path d="M15.0297 36.1483C14.4068 36.9921 14.5814 38.1916 15.4894 38.7166C17.2534 39.7365 19.1911 40.4337 21.2113 40.7695C23.8578 41.2094 26.5708 41.0167 29.1285 40.2072C31.6862 39.3977 34.0161 37.9944 35.9275 36.1119C37.839 34.2294 39.2777 31.9213 40.1262 29.3763C40.9747 26.8312 41.2088 24.1214 40.8094 21.4686C40.41 18.8157 39.3884 16.295 37.8281 14.1126C36.2678 11.9302 34.2132 10.1481 31.8322 8.91191C30.0146 7.96824 28.0462 7.36318 26.0231 7.12056C24.9817 6.99567 24.1222 7.85036 24.1142 8.89918C24.1062 9.94801 24.9544 10.7908 25.9912 10.9491C27.4144 11.1663 28.7968 11.6156 30.082 12.2829C31.931 13.2429 33.5266 14.6268 34.7383 16.3216C35.9499 18.0164 36.7433 19.9739 37.0535 22.0341C37.3637 24.0942 37.1819 26.1985 36.523 28.175C35.864 30.1514 34.7467 31.9438 33.2623 33.4057C31.778 34.8676 29.9687 35.9574 27.9824 36.586C25.9961 37.2147 23.8893 37.3643 21.8341 37.0227C20.4055 36.7852 19.0301 36.3151 17.7613 35.6349C16.8369 35.1393 15.6527 35.3045 15.0297 36.1483Z" stroke="url(#paint0_linear_616_15)" stroke-width="14" stroke-linecap="round" stroke-linejoin="round" mask="url(#path-4-inside-2_616_15)"/>
<defs>
<linearGradient id="paint0_linear_616_15" x1="27.5" y1="57" x2="11.5" y2="-91" gradientUnits="userSpaceOnUse">
<stop stop-color="#FF9F1C"/>
<stop offset="0.328125" stop-color="#FFDD00"/>
</linearGradient>
</defs>
</svg>
