<svg width="17" height="18" viewBox="0 0 17 18" fill="none" xmlns="http://www.w3.org/2000/svg">
<path d="M10.3723 9L16.7284 2.26932C16.9033 2.08404 16.9997 1.83685 17 1.57327C17 1.30955 16.9035 1.06207 16.7284 0.877081L16.1714 0.287433C15.9963 0.101714 15.7629 0 15.5137 0C15.2649 0 15.0315 0.101714 14.8563 0.287433L8.50028 7.01768L2.14393 0.287433C1.9691 0.101714 1.73552 0 1.48646 0C1.23768 0 1.00411 0.101714 0.829268 0.287433L0.272 0.877081C-0.0906667 1.26111 -0.0906667 1.88573 0.272 2.26932L6.6282 9L0.272 15.7304C0.0970244 15.916 0.000691057 16.1631 0.000691057 16.4267C0.000691057 16.6903 0.0970244 16.9375 0.272 17.1229L0.82913 17.7126C1.00397 17.8981 1.23768 18 1.48633 18C1.73538 18 1.96896 17.8981 2.1438 17.7126L8.50014 10.9822L14.8562 17.7126C15.0313 17.8981 15.2648 18 15.5135 18H15.5138C15.7627 18 15.9962 17.8981 16.1713 17.7126L16.7283 17.1229C16.9031 16.9376 16.9996 16.6903 16.9996 16.4267C16.9996 16.1631 16.9031 15.916 16.7283 15.7305L10.3723 9Z" fill="#1E2959"/>
</svg>
