<svg width="24" height="24" viewBox="0 0 24 24" fill="none" xmlns="http://www.w3.org/2000/svg">
<rect width="24" height="24" rx="3" fill="#FFCC00"/>
<path d="M17.8933 5.65L16.1867 9C15.12 8.15 13.7333 7.6 12.3467 7.5L13.4667 5.3C13.52 5.1 13.68 5 13.8933 5H17.5733C17.68 5 17.7867 5.05 17.8933 5.1C17.9467 5.2 18 5.3 18 5.4C18 5.5 17.9467 5.6 17.8933 5.65ZM18 14.4C18 17.5 15.3333 20 12.0267 20C8.72 20 6.05333 17.5 6.05333 14.4C6.05333 11.3 8.72 8.8 12.0267 8.8C15.3333 8.75 18 11.3 18 14.4ZM14.8 12.85L13.2 12.6L12.5067 11.15C12.24 10.65 11.8667 10.65 11.6533 11.15L10.96 12.6L9.36 12.85C8.82667 12.95 8.72 13.3 9.09333 13.7L10.2667 14.8L10 16.4C9.89333 16.95 10.2133 17.15 10.6933 16.9L12.1333 16.15L13.5733 16.9C14.0533 17.15 14.3733 16.9 14.2667 16.4L14 14.8L15.2267 13.7C15.4933 13.3 15.3333 12.9 14.8 12.85ZM6.10667 5.65C6.05333 5.6 6 5.5 6 5.4C6 5.3 6.05333 5.2 6.10667 5.1C6.16 5 6.32 5 6.42667 5H10.1067C10.32 5 10.48 5.15 10.5333 5.3L11.6533 7.5C10.2133 7.6 8.88 8.15 7.81333 9L6.10667 5.65Z" fill="white"/>
</svg>
