<svg width="321" height="239" viewBox="0 0 321 239" fill="none" xmlns="http://www.w3.org/2000/svg">
<path d="M259.012 172.309C254.65 162.39 246.27 154.1 236.206 150.028C225.726 145.774 213.69 147.331 202.649 145.901C193.056 144.67 186.141 140.38 180.422 132.778C174.937 125.484 170.014 117.411 161.055 114.045C153.959 111.384 145.905 112.126 138.864 114.896C125.886 120.018 116.076 130.896 107.822 141.738C100.293 151.639 94.1387 162.481 80.1836 162.825C66.2284 163.187 52.943 155.222 38.8973 157.322C20.3266 160.11 4.86916 175.567 1.62924 193.975C-1.41157 211.224 6.20856 227.949 19.313 237.777H244.333C260.804 220.274 269.474 196.092 259.012 172.309Z" fill="#F7F0E3"/>
<path d="M55.5867 237.76H56.2021C60.5099 233.036 63.8765 227.298 66.0123 220.945C69.4694 210.646 69.3246 199.84 65.596 190.501C63.7136 185.795 60.9805 181.396 58.356 177.143C55.6772 172.835 52.926 168.382 51.0436 163.604C50.2652 161.631 49.7041 159.513 49.3602 157.341C49.1973 157.323 49.0525 157.305 48.8896 157.287C49.2335 159.532 49.8308 161.722 50.6273 163.767C52.5097 168.582 55.279 173.052 57.9759 177.378C60.6004 181.614 63.3154 185.994 65.1797 190.664C68.8721 199.895 69.0169 210.592 65.5779 220.8C63.424 227.244 59.985 233.036 55.5867 237.76Z" fill="white"/>
<path d="M243.23 218.139C247.864 219.135 252.335 220.021 256.661 220.564C256.733 220.42 256.805 220.275 256.878 220.13C252.516 219.569 248.009 218.682 243.321 217.687C236.189 216.166 228.479 214.519 220.822 214.519C216.08 214.519 211.374 215.153 206.831 216.836C205.112 217.469 203.464 218.284 201.872 219.243C197.781 217.506 193.654 215.587 189.582 213.505C192.55 211.279 195.537 209.089 198.559 206.989C221.003 191.315 241.71 182.428 261.71 179.912C261.674 179.767 261.62 179.622 261.584 179.477C241.529 182.011 220.768 190.916 198.288 206.627C195.193 208.781 192.152 211.008 189.129 213.288C184.55 210.917 180.007 208.311 175.627 205.433C167.662 200.22 158.214 192.781 149.943 182.898C181.962 179.296 214.578 174.771 241.203 156.979C242.217 156.309 243.339 155.513 244.497 154.608C244.371 154.517 244.244 154.427 244.117 154.336C243.013 155.205 241.927 155.965 240.968 156.599C214.343 174.391 181.672 178.88 149.617 182.482C143.77 175.423 138.558 167.115 134.938 157.522C129.29 142.553 129.58 127.874 135.752 117.231C136.024 116.76 136.295 116.308 136.603 115.855C136.349 115.982 136.096 116.091 135.843 116.217C135.68 116.471 135.535 116.724 135.372 116.996C129.127 127.747 128.82 142.571 134.521 157.667C138.123 167.223 143.3 175.477 149.092 182.536C147.228 182.735 145.381 182.952 143.535 183.152C136.856 183.894 129.96 184.654 123.245 185.523C120.801 185.83 118.304 186.21 115.824 186.663C110.521 175.459 104.674 164.527 97.1446 155.151C97.036 155.259 96.9274 155.368 96.8188 155.477C104.294 164.78 110.086 175.622 115.371 186.753C104.566 188.817 94.0857 192.69 88.4746 201.704C83.2437 210.121 83.2437 221.759 88.4927 236.293C88.6737 236.8 88.8547 237.289 89.0538 237.778H89.5425C89.3434 237.235 89.1262 236.692 88.9271 236.13C83.7324 221.741 83.7143 210.229 88.8728 201.939C94.4115 193.034 104.837 189.215 115.589 187.17C117.471 191.134 119.281 195.134 121.073 199.098L121.272 199.532C127.517 213.324 133.978 226.646 142.449 237.759H143.01C134.467 226.61 127.969 213.216 121.688 199.333L121.489 198.899C119.697 194.953 117.905 190.989 116.059 187.061C118.485 186.609 120.928 186.247 123.335 185.939C130.032 185.07 136.947 184.31 143.607 183.586C145.562 183.369 147.517 183.152 149.472 182.934C157.816 192.98 167.391 200.528 175.446 205.795C179.79 208.636 184.26 211.225 188.803 213.56C181.111 219.388 173.617 225.506 166.305 231.497C163.771 233.56 161.219 235.66 158.631 237.759H159.355C161.78 235.787 164.205 233.814 166.595 231.859C173.961 225.832 181.491 219.659 189.256 213.813C193.31 215.895 197.401 217.795 201.473 219.551C195.899 223.098 191.355 228.583 188.604 235.244C188.26 236.076 187.953 236.927 187.681 237.759H188.152C188.423 236.963 188.695 236.185 189.021 235.406C191.772 228.728 196.351 223.243 201.962 219.75C213.347 224.583 224.551 228.185 234.162 231.026L234.524 231.135C238.579 232.329 242.724 233.56 246.38 235.533C246.488 235.425 246.579 235.298 246.687 235.189C242.959 233.162 238.76 231.931 234.651 230.7L234.289 230.592C224.768 227.768 213.709 224.221 202.433 219.46C203.899 218.592 205.437 217.849 207.03 217.252C218.723 212.926 231.737 215.695 243.23 218.139Z" fill="white"/>
<path d="M20.4183 188.835C22.4093 197.016 21.5224 205.849 17.9748 213.071C15.6399 217.795 12.2914 222.085 8.14648 225.759C8.23698 225.886 8.30939 226.013 8.39989 226.139C12.5991 222.411 16.02 218.067 18.3911 213.27C21.993 205.958 22.8981 196.998 20.8708 188.726C19.2961 182.247 16.1105 176.78 11.7122 172.816C11.6217 172.925 11.5131 173.052 11.4226 173.16C15.7485 177.052 18.8617 182.464 20.4183 188.835Z" fill="white"/>
<path d="M122.846 85.194C126.791 89.2304 128.547 95.9998 126.375 102.262C124.275 108.326 119.66 113.34 114.121 116.561C109.669 119.15 103.84 120.598 99.4602 117.865C96.1841 115.837 94.4827 111.855 94.3922 108C94.3017 104.145 95.5868 100.38 97.1977 96.8867C99.4602 91.9454 102.501 87.1488 107.026 84.1442C113.252 79.9993 119.045 81.3206 122.846 85.194Z" fill="#F7F0E3"/>
<path d="M70.59 14.5706H37.9375V0H70.5719V14.5706H70.59ZM38.6253 13.9009H69.9022V0.669705H38.6253V13.9009Z" fill="#E9DDCA"/>
<path d="M49.3405 28.5262H16.7061V13.9375H49.3405V28.5262ZM17.3939 27.8384H48.6708V14.6072H17.3939V27.8384Z" fill="#E9DDCA"/>
<path d="M320.884 137.571H288.231V123H320.866V137.571H320.884ZM288.919 136.901H320.196V123.67H288.919V136.901Z" fill="#E9DDCA"/>
<path d="M299.634 151.526H267V136.938H299.634V151.526ZM267.688 150.838H298.965V137.607H267.688V150.838Z" fill="#E9DDCA"/>
<path d="M256.315 44.0535C254.197 37.0307 250.487 30.5689 245.165 24.6683C239.826 18.7677 232.568 13.8988 223.355 10.0435C214.142 6.18814 202.431 4.26953 188.241 4.26953C176.91 4.26953 165.38 5.78994 153.615 8.84885C141.85 11.9078 131.642 16.2699 122.972 21.9352L134.248 52.8863L128.203 57.7734L136.963 60.3436C145.615 55.8186 153.488 52.5243 160.602 50.479C167.697 48.4337 175.245 47.4201 183.245 47.4201C191.227 47.4201 197.273 49.3387 201.381 53.194C205.49 57.0494 207.535 61.7011 207.535 67.1311C207.535 73.7014 205.418 79.5296 201.218 84.6339C196.983 89.7381 192.331 94.8966 187.227 100.109C183.679 103.729 180.24 107.476 176.91 111.313C173.579 115.169 170.629 119.296 168.095 123.73C165.543 128.146 163.498 132.907 161.941 138.011C160.385 143.115 159.606 148.835 159.606 155.17C159.606 157.215 159.642 159.659 159.769 162.482C159.787 163.007 159.823 163.514 159.842 164.021H151.552L160.584 170.139H204.531C204.295 168.781 204.187 167.188 204.187 165.378C204.187 163.568 204.187 162.211 204.187 161.288C204.187 157.432 204.965 153.631 206.522 149.903C208.078 146.156 210.015 142.59 212.35 139.188C214.685 135.785 217.273 132.563 220.169 129.504C223.047 126.445 225.834 123.549 228.495 120.834C232.043 117.214 235.699 113.359 239.482 109.286C243.247 105.196 246.595 100.906 249.473 96.3627C252.351 91.8196 254.74 86.8964 256.623 81.5569C258.505 76.2354 259.464 70.4072 259.464 64.0541C259.482 57.7734 258.415 51.0763 256.315 44.0535Z" fill="#E49B31"/>
<path d="M173.924 45.3028C166.014 45.3028 158.557 46.2802 151.552 48.2532C144.529 50.2261 136.746 53.4117 128.185 57.7919L114.356 20.6143C122.918 15.13 133 10.9127 144.638 7.94428C156.258 4.99397 167.661 3.50977 178.865 3.50977C192.893 3.50977 204.459 5.37407 213.563 9.10269C222.667 12.8313 229.853 17.5373 235.12 23.257C240.387 28.9585 244.062 35.203 246.143 42.0086C248.225 48.8143 249.274 55.276 249.274 61.4119C249.274 67.5659 248.333 73.2132 246.469 78.3536C244.605 83.5121 242.252 88.2905 239.392 92.6707C236.532 97.051 233.238 101.214 229.509 105.178C225.781 109.124 222.161 112.852 218.667 116.364C216.025 119.006 213.291 121.794 210.45 124.762C207.59 127.712 205.02 130.844 202.721 134.138C200.422 137.432 198.486 140.889 196.965 144.509C195.427 148.129 194.667 151.804 194.667 155.532C194.667 156.419 194.667 157.722 194.667 159.478C194.667 161.234 194.775 162.772 194.992 164.076H151.552C151.1 161.885 150.828 159.424 150.72 156.673C150.593 153.939 150.557 151.568 150.557 149.595C150.557 143.46 151.317 137.921 152.855 132.98C154.394 128.038 156.403 123.441 158.937 119.169C161.453 114.88 164.367 110.898 167.661 107.151C170.955 103.422 174.358 99.8022 177.852 96.3089C182.901 91.2589 187.499 86.2814 191.68 81.3401C195.843 76.3988 197.925 70.7515 197.925 64.3984C197.925 59.1313 195.897 54.6425 191.843 50.8958C187.788 47.1491 181.815 45.3028 173.924 45.3028Z" fill="#FBC343"/>
<path d="M207.535 212.855C207.535 220.783 204.965 226.9 199.843 231.208C194.72 235.534 188.91 237.688 182.449 237.688C175.969 237.688 170.159 235.534 165.036 231.208C159.914 226.9 157.344 220.783 157.344 212.855C157.344 204.945 159.914 198.827 165.036 194.501C172.928 187.841 184.621 186.356 193.87 191.026C202.069 195.189 207.535 203.606 207.535 212.855Z" fill="#E49B31"/>
<path d="M198.938 212.855C198.938 220.783 196.367 226.9 191.245 231.208C186.123 235.534 180.313 237.688 173.851 237.688C167.371 237.688 161.561 235.534 156.439 231.208C151.316 226.9 148.746 220.783 148.746 212.855C148.746 204.945 151.316 198.827 156.439 194.501C161.561 190.193 167.371 188.021 173.851 188.021C180.331 188.021 186.123 190.175 191.245 194.501C196.386 198.827 198.938 204.945 198.938 212.855Z" fill="#FBC343"/>
<path d="M68.8287 100.513C69.3093 97.9486 67.62 95.4801 65.0556 94.9995C62.4911 94.5189 60.0226 96.2082 59.5421 98.7727C59.0615 101.337 60.7508 103.806 63.3152 104.286C65.8797 104.767 68.3481 103.077 68.8287 100.513Z" fill="#FFCC00" fill-opacity="0.23"/>
<path d="M71.0969 109.419C71.3676 107.974 70.4082 106.582 68.954 106.31C67.4999 106.037 66.1016 106.987 65.8309 108.432C65.5602 109.876 66.5197 111.268 67.9738 111.54C69.428 111.813 70.8263 110.863 71.0969 109.419Z" fill="#FFCC00" fill-opacity="0.23"/>
<path d="M65.6853 88.997C72.9658 81.7165 72.9658 69.9124 65.6853 62.6319C58.4048 55.3514 46.6007 55.3514 39.3202 62.6319C32.0397 69.9124 32.0397 81.7165 39.3202 88.997C46.6007 96.2775 58.4048 96.2775 65.6853 88.997Z" fill="#FFCC00" fill-opacity="0.23"/>
<path d="M45.3393 78.1748C46.6389 78.1748 47.6923 77.1213 47.6923 75.8218C47.6923 74.5222 46.6389 73.4688 45.3393 73.4688C44.0398 73.4688 42.9863 74.5222 42.9863 75.8218C42.9863 77.1213 44.0398 78.1748 45.3393 78.1748Z" fill="white"/>
<path d="M52.5073 78.1748C53.8068 78.1748 54.8603 77.1213 54.8603 75.8218C54.8603 74.5222 53.8068 73.4688 52.5073 73.4688C51.2078 73.4688 50.1543 74.5222 50.1543 75.8218C50.1543 77.1213 51.2078 78.1748 52.5073 78.1748Z" fill="white"/>
<path d="M59.6567 78.1748C60.9563 78.1748 62.0097 77.1213 62.0097 75.8218C62.0097 74.5222 60.9563 73.4688 59.6567 73.4688C58.3572 73.4688 57.3037 74.5222 57.3037 75.8218C57.3037 77.1213 58.3572 78.1748 59.6567 78.1748Z" fill="white"/>
<path d="M39.1498 228.35L40.8874 235.065C41.3399 236.82 43.0413 237.997 44.9056 237.87C50.6071 237.49 62.4808 236.078 69.2864 231.065L67.3497 221.381C57.992 220.856 49.2315 221.381 41.6476 223.933C39.7652 224.567 38.6611 226.485 39.1498 228.35Z" fill="#102048"/>
<path d="M50.0644 233.689C49.9739 233.689 49.8834 233.616 49.8472 233.526L47.5122 225.164C47.476 225.037 47.5485 224.91 47.6752 224.892C47.8019 224.856 47.9286 224.928 47.9467 225.055L50.2816 233.417C50.3178 233.544 50.2454 233.671 50.1187 233.689C50.1006 233.689 50.0825 233.689 50.0644 233.689Z" fill="white"/>
<path d="M55.1142 232.568C55.0237 232.568 54.9332 232.495 54.897 232.405L52.5621 224.043C52.5259 223.916 52.5982 223.789 52.7249 223.771C52.8516 223.735 52.9783 223.807 52.9964 223.934L55.3314 232.296C55.3676 232.423 55.2952 232.55 55.1685 232.568C55.1504 232.568 55.1323 232.568 55.1142 232.568Z" fill="white"/>
<path d="M60.978 192.059L39.2217 198.521L55.385 220.657L78.5713 222.504L110.572 208.983L98.4089 190.684L60.978 192.059Z" fill="#FBC343"/>
<path d="M87.8014 195.136C135.586 181 143.26 223.228 68.7058 230.902C66.0813 227.934 63.0042 222.793 61.7734 218.504L101.141 200.313L87.8014 195.136Z" fill="#FBC343"/>
<path d="M89.8291 225.399C87.6028 224.675 85.4489 223.264 85.4489 223.264L77.7744 225.671L79.5301 234.033L87.5123 235.662C89.9377 231.21 90.0825 227.571 89.8291 225.399Z" fill="#F9B384"/>
<path d="M61.9552 218.811L61.6113 218.232C69.8288 213.453 90.861 201.996 108.78 198.611L108.907 199.281C91.0964 202.63 70.1365 214.051 61.9552 218.811Z" fill="#E49B31"/>
<path d="M60.9779 192.058C16.506 183.606 4.99431 226.34 79.5304 234.032C82.1549 231.064 84.2365 227.571 85.4492 223.263C73.9918 215.607 61.1951 208.312 47.1675 201.38L60.9779 192.058Z" fill="#FBC343"/>
<path d="M85.2683 223.572C83.1506 222.232 80.9424 220.802 78.6075 219.3C66.8968 211.734 53.6113 203.155 42.335 198.268L42.6065 197.652C53.9371 202.557 67.2407 211.155 78.9876 218.739C81.3225 220.241 83.5307 221.671 85.6303 223.011L85.2683 223.572Z" fill="#E49B31"/>
<path d="M28.3434 213.255L27.7461 212.929C29.4113 209.906 32.0901 207.861 35.692 206.865L35.873 207.517C32.4159 208.494 29.9543 210.359 28.3434 213.255Z" fill="#E49B31"/>
<path d="M121.178 210.684C119.585 207.788 117.106 205.906 113.648 204.947L113.829 204.295C117.431 205.29 120.11 207.336 121.775 210.358L121.178 210.684Z" fill="#E49B31"/>
<path d="M75.3666 233.671L74.8779 233.2C78.4436 229.381 80.6157 225.363 81.5569 220.91L82.2266 221.055C81.2492 225.634 79.0229 229.761 75.3666 233.671Z" fill="#E49B31"/>
<path d="M112.02 222.918C106.318 219.407 95.2771 225.489 92.5078 225.796C91.6933 225.887 90.7702 225.706 89.8471 225.416C90.1005 227.57 89.9557 231.226 87.5303 235.661L88.8878 235.932C88.8878 235.932 98.2636 239.371 108.201 237.362C117.341 235.516 116.49 225.688 112.02 222.918Z" fill="#102048"/>
<path d="M104.255 234.43C104.237 234.43 104.201 234.43 104.183 234.412C104.056 234.376 104.002 234.249 104.038 234.122C104.708 231.986 105.015 227.769 103.042 224.927C102.97 224.819 102.988 224.692 103.097 224.62C103.205 224.547 103.332 224.565 103.404 224.674C105.45 227.642 105.16 232.041 104.454 234.267C104.436 234.376 104.346 234.43 104.255 234.43Z" fill="white"/>
<path d="M99.7845 235.281C99.7664 235.281 99.7302 235.281 99.7121 235.263C99.5854 235.227 99.5311 235.1 99.5673 234.974C100.237 232.838 100.545 228.621 98.5718 225.779C98.4994 225.67 98.5175 225.544 98.6261 225.471C98.7347 225.399 98.8614 225.417 98.9338 225.525C100.979 228.494 100.689 232.892 99.9836 235.119C99.9655 235.227 99.875 235.281 99.7845 235.281Z" fill="white"/>
<path d="M53.1042 136.965C53.1042 136.965 64.3081 127.444 63.8918 125.634C63.6022 124.349 60.4166 126.231 60.4166 126.231C60.4166 126.231 64.8693 120.946 64.634 120.313C64.2358 119.172 61.1587 121.308 61.1587 121.308C61.1587 121.308 63.2402 118.322 62.2447 117.833C61.2492 117.344 59.0772 119.19 59.0772 119.19C59.0772 119.19 60.3442 117.525 59.7469 117.091C59.1496 116.656 56.5794 118.448 56.5794 118.448C56.5794 118.448 57.5025 116.349 55.5477 117.145C53.5929 117.942 39.873 130.539 39.873 130.539L53.1042 136.965Z" fill="#F9B384"/>
<path d="M57.7013 125.67C57.647 125.67 57.5927 125.651 57.5565 125.615C55.6379 123.86 54.7872 123.425 52.6695 122.774C52.5428 122.737 52.4885 122.611 52.5247 122.484C52.5609 122.357 52.6876 122.303 52.8143 122.339C55.0044 123.009 55.8913 123.461 57.8823 125.271C57.9728 125.362 57.9728 125.507 57.9004 125.597C57.8099 125.633 57.7556 125.67 57.7013 125.67Z" fill="#E28B6D"/>
<path d="M54.3167 130.829C54.2986 130.829 54.2986 130.829 54.2805 130.829C54.1538 130.811 54.0633 130.702 54.0814 130.575C54.2986 129.001 54.8054 128.023 55.6018 127.571C56.2896 127.191 57.1765 127.227 58.2444 127.679C58.353 127.734 58.4073 127.86 58.3711 127.969C58.3168 128.078 58.1901 128.132 58.0815 128.096C57.1403 127.698 56.3982 127.643 55.8371 127.951C55.1855 128.313 54.7511 129.218 54.552 130.63C54.5339 130.756 54.4253 130.829 54.3167 130.829Z" fill="#E28B6D"/>
<path d="M53.7921 121.308C53.7378 121.308 53.6654 121.29 53.6292 121.235C53.5387 121.145 53.5387 121 53.6473 120.91L56.4529 118.267C56.5434 118.176 56.6882 118.176 56.7787 118.285C56.8692 118.376 56.8692 118.52 56.7606 118.611L53.9551 121.253C53.9008 121.29 53.8464 121.308 53.7921 121.308Z" fill="#E28B6D"/>
<path d="M56.3978 122.212C56.3435 122.212 56.2892 122.194 56.2349 122.158C56.1444 122.068 56.1444 121.923 56.2349 121.832L58.9318 119.027C59.0223 118.936 59.1671 118.936 59.2576 119.027C59.3481 119.117 59.3481 119.262 59.2576 119.353L56.5607 122.158C56.5064 122.194 56.4521 122.212 56.3978 122.212Z" fill="#E28B6D"/>
<path d="M59.0584 123.805C59.0041 123.805 58.9498 123.787 58.8955 123.751C58.805 123.66 58.805 123.516 58.8774 123.425L60.9951 121.145C61.0856 121.054 61.2304 121.054 61.3209 121.126C61.4114 121.217 61.4114 121.362 61.339 121.452L59.2213 123.733C59.167 123.769 59.1127 123.805 59.0584 123.805Z" fill="#E28B6D"/>
<path d="M95.4215 200.658L54.4791 202.251L49.9541 164.928C49.9541 164.928 63.6559 151.933 68.9411 147.136L77.8463 146.684C105.467 159.227 100.942 174.902 95.4215 200.658Z" fill="#BB2828"/>
<path d="M77.8291 146.664C77.8291 146.664 109.432 149.361 119.405 171.027C129.161 192.222 89.0874 199.77 89.0874 199.77L77.8291 146.664Z" fill="#BB2828"/>
<path d="M41.7011 151.316L54.7693 135.424L42.5518 128.021C37.4656 131.569 27.6011 139.587 19.257 148.674C17.4107 150.683 15.9808 153.018 15.2568 155.606C14.6414 157.814 14.5328 159.986 14.8767 162.104C15.7817 167.661 20.1439 171.932 25.9721 172.62C30.9496 173.199 49.9547 171.715 65.3398 167.19L69.8648 149.723C67.5299 148.402 50.2443 148.167 41.7011 151.316Z" fill="#BB2828"/>
<g opacity="0.8">
<path opacity="0.8" d="M104.219 155.264C104.291 155.246 104.363 155.228 104.418 155.21C104.273 155.119 104.128 155.047 103.983 154.956C101.666 155.481 99.2773 156.042 96.9243 156.314C95.5125 156.477 90.7702 156.803 89.3946 153.653C88.7068 152.078 89.2317 150.341 90.01 149.11C89.9014 149.074 89.7928 149.038 89.6661 149.02C88.8697 150.323 88.3629 152.133 89.0869 153.78C90.5711 157.146 95.4944 156.821 96.9605 156.658C99.3859 156.368 101.847 155.807 104.219 155.264Z" fill="white"/>
<path opacity="0.8" d="M118.953 179.681C117.45 179.102 115.876 178.487 114.247 178.65C111.369 178.921 108.907 181.763 108.762 184.985C108.654 187.175 109.504 189.492 111.097 191.519C111.188 191.464 111.296 191.392 111.387 191.338C109.83 189.365 108.997 187.139 109.106 185.003C109.251 181.944 111.568 179.247 114.283 178.975C115.839 178.831 117.305 179.392 118.844 179.989C119.387 180.206 119.948 180.423 120.527 180.604C120.563 180.496 120.582 180.387 120.618 180.279C120.039 180.098 119.496 179.899 118.953 179.681Z" fill="white"/>
<path opacity="0.8" d="M39.1851 168.891C37.2122 167.262 34.1533 166.828 30.7685 167.696C27.7639 168.475 25.1937 170.013 23.4199 172.058C23.5285 172.095 23.6552 172.131 23.7638 172.167C25.4833 170.23 27.963 168.782 30.859 168.022C34.1171 167.171 37.0855 167.588 38.9679 169.144C39.8729 169.886 40.5064 170.846 40.9589 171.896C41.0675 171.877 41.1942 171.877 41.3028 171.859C40.8322 170.737 40.1625 169.687 39.1851 168.891Z" fill="white"/>
<path opacity="0.8" d="M21.3389 146.448C25.0313 145.525 28.6513 144.24 31.9636 142.322C33.2125 141.598 34.6424 140.674 35.6379 139.317C36.7058 137.869 37.0497 136.149 36.5791 134.719C36.3981 134.158 36.0723 133.67 35.656 133.271C35.5655 133.344 35.475 133.416 35.4026 133.489C35.7827 133.851 36.0904 134.303 36.2533 134.828C36.6877 136.149 36.3619 137.76 35.3664 139.118C34.4071 140.421 33.0134 141.326 31.8007 142.032C28.6694 143.842 25.2666 145.091 21.7733 145.996C21.6466 146.141 21.5018 146.285 21.3389 146.448Z" fill="white"/>
</g>
<path d="M80.7249 138.377V138.956L80.6344 147.952L80.6163 148.929C80.5982 150.449 79.9828 151.843 78.9691 152.839C77.9736 153.834 76.5799 154.468 75.0595 154.468C71.9644 154.486 69.4485 152.006 69.4123 148.911L69.3037 137.779L80.7249 138.377Z" fill="#F9B384"/>
<path d="M80.7247 138.955L80.6342 147.951C75.6386 145.906 73.5752 140.494 73.5752 140.494L80.7247 138.955Z" fill="#102048"/>
<path d="M82.698 123.245C84.4899 125.399 89.7208 137.58 84.4175 141.743C78.4445 146.431 69.3582 138.739 69.3582 138.739L68.1455 124.548L76.0371 122.467L82.698 123.245Z" fill="#F9B384"/>
<path d="M64.1271 122.467C64.1271 122.467 46.6243 131.589 60.9053 157.889C62.7334 161.273 66.7878 162.739 70.263 161.092C73.9917 159.319 75.4035 154.775 73.3763 151.174C71.0414 147.029 68.7969 141.689 69.7562 137.725L64.1271 122.467Z" fill="#102048"/>
<path d="M69.1101 130.118C70.955 128.273 70.955 125.282 69.1101 123.437C67.2653 121.592 64.2742 121.592 62.4293 123.437C60.5844 125.282 60.5844 128.273 62.4293 130.118C64.2742 131.963 67.2653 131.963 69.1101 130.118Z" fill="#FBC343"/>
<path d="M71.6026 132.458C71.0958 129.508 70.7881 127.481 73.7565 125.96C73.7565 125.96 84.2726 127.879 86.2817 123.897C88.2908 119.933 85.2319 113.67 78.8245 118.014C62.4258 114.811 60.2357 130.159 65.1951 135.282L70.1003 134.522C71.0958 134.377 71.7655 133.454 71.6026 132.458Z" fill="#102048"/>
<path d="M79.7469 133.181C80.1368 133.181 80.4528 132.865 80.4528 132.475C80.4528 132.086 80.1368 131.77 79.7469 131.77C79.3571 131.77 79.041 132.086 79.041 132.475C79.041 132.865 79.3571 133.181 79.7469 133.181Z" fill="#102048"/>
<path d="M84.4715 130.845C84.8614 130.845 85.1774 130.529 85.1774 130.14C85.1774 129.75 84.8614 129.434 84.4715 129.434C84.0817 129.434 83.7656 129.75 83.7656 130.14C83.7656 130.529 84.0817 130.845 84.4715 130.845Z" fill="#102048"/>
<path d="M83.9828 134.63C83.9285 134.63 83.8923 134.611 83.838 134.575C83.7656 134.503 83.7475 134.376 83.838 134.304C84.1095 134.014 84.4172 133.598 84.2905 133.29C84.1638 132.982 83.5846 132.838 83.3312 132.838C82.7701 132.838 82.4986 131.842 82.4624 131.643C82.4443 131.534 82.4986 131.426 82.6072 131.408C82.7158 131.39 82.8244 131.444 82.8425 131.553C82.9511 131.969 83.1683 132.439 83.3312 132.439C83.6027 132.439 84.4172 132.566 84.6525 133.127C84.8335 133.525 84.6525 134.014 84.1095 134.575C84.0914 134.611 84.0371 134.63 83.9828 134.63Z" fill="#102048"/>
<path d="M84.0185 137.272C83.9823 137.272 83.9461 137.253 83.9099 137.235C82.5886 136.348 81.2673 137.091 81.2492 137.091C81.1587 137.145 81.032 137.109 80.9777 137.018C80.9234 136.928 80.9596 136.801 81.0501 136.747C81.1044 136.71 82.6067 135.878 84.1271 136.891C84.2176 136.946 84.2357 137.072 84.1814 137.163C84.1452 137.253 84.0909 137.272 84.0185 137.272Z" fill="#102048"/>
<path d="M79.4395 129.453C79.8377 130.195 79.1499 130.358 78.3354 130.793C77.5209 131.227 76.6883 131.39 76.5073 131.028C76.3263 130.666 76.815 130.032 77.6295 129.598C78.444 129.164 79.1318 128.874 79.4395 129.453Z" fill="#102048"/>
<path d="M82.3896 128.095C82.5706 128.765 83.0593 128.475 83.7833 128.276C84.5073 128.077 85.0865 127.715 85.0141 127.407C84.9236 127.081 84.272 126.991 83.548 127.172C82.8421 127.371 82.2629 127.57 82.3896 128.095Z" fill="#102048"/>
<path opacity="0.4" d="M77.9134 137.256C78.7511 136.483 78.8039 135.178 78.0313 134.34C77.2586 133.502 75.9532 133.449 75.1154 134.222C74.2777 134.995 74.225 136.3 74.9976 137.138C75.7703 137.976 77.0757 138.028 77.9134 137.256Z" fill="#BB2828"/>
<path d="M71.2007 137.671C72.1411 136.452 71.7808 134.598 70.3958 133.529C69.0108 132.461 67.1257 132.582 66.1852 133.801C65.2448 135.02 65.6052 136.874 66.9901 137.943C68.3751 139.012 70.2602 138.89 71.2007 137.671Z" fill="#F9B384"/>
<path d="M69.9191 136.785C69.8105 136.785 69.72 136.694 69.72 136.586C69.72 136.007 69.4304 135.464 68.9598 135.138C68.5435 134.866 68.0729 134.794 67.6566 134.957C67.548 134.993 67.4394 134.957 67.4032 134.848C67.367 134.74 67.4032 134.631 67.5118 134.595C68.0367 134.378 68.6702 134.45 69.177 134.812C69.7562 135.21 70.1182 135.862 70.1182 136.586C70.1182 136.694 70.0277 136.785 69.9191 136.785Z" fill="#102048"/>
<path d="M41.5231 151.149L34.3848 158.871L34.717 159.178L41.8554 151.456L41.5231 151.149Z" fill="#102048"/>
<path d="M91.8738 184.368L91.7471 183.933C96.9418 182.34 101.992 180.458 106.571 174.738L106.933 175.028C102.263 180.838 97.1409 182.757 91.8738 184.368Z" fill="#102048"/>
<path d="M95.0247 166.848H50.7881C49.1953 166.848 47.9102 168.241 47.9102 169.961V201.545C47.9102 203.265 49.1953 204.659 50.7881 204.659H95.0247C96.6175 204.659 97.9026 203.265 97.9026 201.545V169.961C97.9026 168.241 96.6175 166.848 95.0247 166.848Z" fill="white"/>
<path d="M75.2409 183.755C75.4038 183.755 75.5486 183.899 75.5486 184.08V187.411C75.5486 187.592 75.4038 187.737 75.2409 187.737H70.5711C70.4082 187.737 70.2634 187.592 70.2634 187.411V184.08C70.2634 183.899 70.4082 183.755 70.5711 183.755H75.2409ZM75.2409 182.85H70.5711C69.9014 182.85 69.3584 183.411 69.3584 184.08V187.411C69.3584 188.099 69.9014 188.642 70.5711 188.642H75.2409C75.9106 188.642 76.4536 188.081 76.4536 187.411V184.08C76.4536 183.411 75.9106 182.85 75.2409 182.85Z" fill="#1F3C88"/>
<path d="M266.741 237.309H0V238.214H266.741V237.309Z" fill="#102048"/>
</svg>
