<svg width="24" height="24" viewBox="0 0 24 24" fill="none" xmlns="http://www.w3.org/2000/svg">
<rect width="24" height="24" rx="3" fill="#FFCC00"/>
<g clip-path="url(#clip0_344_10)">
<path fill-rule="evenodd" clip-rule="evenodd" d="M5.77778 12.7778H10.4444C10.8722 12.7778 11.2222 12.4278 11.2222 12V5.77778C11.2222 5.35 10.8722 5 10.4444 5H5.77778C5.35 5 5 5.35 5 5.77778V12C5 12.4278 5.35 12.7778 5.77778 12.7778ZM5.77778 19H10.4444C10.8722 19 11.2222 18.65 11.2222 18.2222V15.1111C11.2222 14.6833 10.8722 14.3333 10.4444 14.3333H5.77778C5.35 14.3333 5 14.6833 5 15.1111V18.2222C5 18.65 5.35 19 5.77778 19ZM13.5556 19H18.2222C18.65 19 19 18.65 19 18.2222V12C19 11.5722 18.65 11.2222 18.2222 11.2222H13.5556C13.1278 11.2222 12.7778 11.5722 12.7778 12V18.2222C12.7778 18.65 13.1278 19 13.5556 19ZM12.7778 5.77778V8.88889C12.7778 9.31667 13.1278 9.66667 13.5556 9.66667H18.2222C18.65 9.66667 19 9.31667 19 8.88889V5.77778C19 5.35 18.65 5 18.2222 5H13.5556C13.1278 5 12.7778 5.35 12.7778 5.77778Z" fill="white"/>
</g>
<defs>
<clipPath id="clip0_344_10">
<rect width="14" height="14" fill="white" transform="translate(5 5)"/>
</clipPath>
</defs>
</svg>
