<svg width="82" height="79" viewBox="0 0 82 79" fill="none" xmlns="http://www.w3.org/2000/svg">
<path d="M48.9317 41.8703H30.2315C29.257 41.8703 28.403 41.2185 28.146 40.2784C27.8891 39.3384 28.2928 38.3427 29.1317 37.8468C37.2793 33.0324 41.5115 27.4164 42.0697 20.6779C42.2643 18.3394 44.3472 16.4714 46.7117 16.5023C49.1244 16.5409 51.3847 17.508 53.0775 19.2257C54.7717 20.9451 55.7054 23.2219 55.7063 25.6366C55.7063 25.6369 55.7063 25.6372 55.7063 25.6375V26.3639C55.7063 32.2624 53.9592 36.0234 50.7355 40.9002C50.3349 41.5061 49.6577 41.8703 48.9317 41.8703Z" fill="#F7A491"/>
<path d="M71.8493 44.3203C71.8493 40.585 68.8104 37.5459 65.0749 37.5459H30.2315C29.8443 37.5459 29.4642 37.6498 29.1312 37.8469C26.6853 39.293 24.2157 40.4835 22.2313 41.4404C21.5391 41.774 20.8854 42.0892 20.2908 42.3865C19.5584 42.7528 19.0957 43.5013 19.0957 44.3203V71.9945C19.0957 72.8136 19.5584 73.5621 20.2908 73.9284C29.0269 78.2958 36.2887 78.8239 44.7569 78.8239C46.0683 78.8239 47.4094 78.8113 48.7885 78.7983C50.3138 78.7839 51.8907 78.769 53.544 78.769H60.379C64.1144 78.769 67.1535 75.73 67.1535 71.9945C67.1535 70.7386 66.8101 69.5614 66.2119 68.5519C68.1582 67.3604 69.4597 65.2143 69.4597 62.7698C69.4597 61.5138 69.1163 60.3367 68.5181 59.3271C70.4644 58.1356 71.7659 55.9896 71.7659 53.545C71.7659 51.7881 71.0936 50.1852 69.9928 48.9803C71.1915 47.717 71.8493 46.0693 71.8493 44.3203Z" fill="#F9B384"/>
<path d="M14.1659 67.4091V78.7959H9.8418V67.4091C9.8418 66.2157 10.8105 65.2471 12.0038 65.2471C13.1972 65.2471 14.1659 66.2157 14.1659 67.4091Z" fill="#1E2959"/>
<path d="M14.1659 67.4101V78.7969H9.8418V67.4101C9.8418 66.2167 10.8105 65.248 12.0038 65.248C13.1972 65.248 14.1659 66.2167 14.1659 67.4101Z" fill="#1E2959"/>
<path d="M21.2286 37.5459H2.77923C1.58585 37.5459 0.617188 38.5146 0.617188 39.7079V76.6068C0.617188 77.8016 1.58585 78.7688 2.77923 78.7962H16.6163C19.2669 78.7688 21.5659 77.2395 22.6772 75.0169C23.1342 74.1074 23.3907 73.0797 23.3907 71.9944V39.7079C23.3907 38.5144 22.422 37.5459 21.2286 37.5459Z" fill="#0A1D47"/>
<path d="M14.1659 67.2665V78.7975H9.8418V67.2665C9.8418 66.0731 10.8105 65.1045 12.0038 65.1045C13.1972 65.1045 14.1659 66.0731 14.1659 67.2665Z" fill="#1E2959"/>
<mask id="path-7-inside-1_1072_328" fill="white">
<path d="M24.2683 30.9623C24.2683 30.9623 23.8204 31.264 23.4365 31.1634C23.0526 31.0629 22.8789 30.9258 22.8789 30.9258C22.8789 30.9258 23.0891 31.3097 23.3999 31.4834C23.9392 31.7667 24.2683 30.9623 24.2683 30.9623Z"/>
</mask>
<path d="M24.2683 30.9623L25.1939 31.341L26.4404 28.2939L23.7097 30.1329L24.2683 30.9623ZM22.8789 30.9258L23.4985 30.1409L22.0018 31.4061L22.8789 30.9258ZM23.3999 31.4834L22.9121 32.3563L22.9234 32.3626L22.9348 32.3686L23.3999 31.4834ZM24.2683 30.9623C23.7097 30.1329 23.7099 30.1328 23.7102 30.1326C23.7102 30.1326 23.7105 30.1324 23.7106 30.1323C23.7109 30.1321 23.7112 30.1319 23.7114 30.1318C23.712 30.1314 23.7125 30.131 23.713 30.1307C23.714 30.13 23.7149 30.1294 23.7158 30.1289C23.7174 30.1278 23.7187 30.1269 23.7197 30.1263C23.7216 30.1251 23.7223 30.1247 23.7217 30.125C23.7205 30.1258 23.715 30.1291 23.706 30.1341C23.6868 30.1448 23.6597 30.1585 23.6307 30.1698C23.5392 30.2058 23.5745 30.1659 23.6899 30.1961L23.1831 32.1308C23.6824 32.2616 24.1337 32.1211 24.362 32.0314C24.493 31.9799 24.6019 31.9244 24.6786 31.8817C24.7177 31.86 24.7502 31.8406 24.775 31.8252C24.7874 31.8175 24.798 31.8107 24.8067 31.8051C24.811 31.8023 24.8149 31.7998 24.8183 31.7975C24.82 31.7964 24.8215 31.7954 24.823 31.7944C24.8237 31.794 24.8244 31.7935 24.825 31.7931C24.8254 31.7928 24.8257 31.7926 24.826 31.7924C24.8262 31.7923 24.8264 31.7921 24.8265 31.7921C24.8267 31.7919 24.8269 31.7918 24.2683 30.9623ZM23.6899 30.1961C23.5705 30.1648 23.4989 30.1319 23.4698 30.117C23.4551 30.1094 23.4505 30.1061 23.4555 30.1093C23.458 30.111 23.4629 30.1142 23.4701 30.1194C23.4737 30.122 23.4779 30.125 23.4826 30.1286C23.485 30.1304 23.4875 30.1323 23.4901 30.1343C23.4915 30.1354 23.4928 30.1364 23.4942 30.1375C23.4949 30.1381 23.4956 30.1386 23.4964 30.1392C23.4967 30.1395 23.4971 30.1397 23.4974 30.14C23.4976 30.1402 23.4979 30.1404 23.498 30.1405C23.4983 30.1407 23.4985 30.1409 22.8789 30.9258C22.2593 31.7107 22.2596 31.7109 22.2598 31.7111C22.2599 31.7112 22.2602 31.7114 22.2604 31.7116C22.2608 31.7118 22.2611 31.7121 22.2615 31.7124C22.2623 31.713 22.263 31.7136 22.2638 31.7142C22.2654 31.7155 22.267 31.7167 22.2687 31.718C22.272 31.7206 22.2756 31.7233 22.2793 31.7261C22.2868 31.7317 22.2951 31.7378 22.3041 31.7444C22.3223 31.7574 22.3438 31.7722 22.3686 31.7882C22.4182 31.8203 22.481 31.8576 22.5577 31.8968C22.7114 31.9756 22.9186 32.0615 23.1831 32.1308L23.6899 30.1961ZM22.8789 30.9258C22.0018 31.4061 22.0019 31.4063 22.002 31.4065C22.0021 31.4065 22.0022 31.4067 22.0022 31.4069C22.0024 31.4071 22.0025 31.4074 22.0027 31.4077C22.003 31.4082 22.0033 31.4088 22.0036 31.4094C22.0043 31.4106 22.005 31.4119 22.0058 31.4132C22.0073 31.416 22.0091 31.4192 22.0111 31.4228C22.0151 31.4299 22.0201 31.4385 22.026 31.4485C22.0377 31.4685 22.0532 31.4942 22.0723 31.5244C22.1101 31.5839 22.1642 31.6641 22.2331 31.7529C22.3587 31.9145 22.5866 32.1744 22.9121 32.3563L23.8878 30.6104C23.9025 30.6187 23.8699 30.5997 23.8126 30.526C23.7901 30.4971 23.7722 30.4704 23.7609 30.4526C23.7555 30.444 23.7521 30.4384 23.7511 30.4367C23.7507 30.4359 23.7508 30.4361 23.7516 30.4375C23.752 30.4382 23.7525 30.4392 23.7533 30.4405C23.7536 30.4412 23.7541 30.4419 23.7545 30.4428C23.7547 30.4432 23.755 30.4436 23.7552 30.444C23.7553 30.4443 23.7555 30.4445 23.7556 30.4447C23.7557 30.4449 23.7558 30.445 23.7558 30.4451C23.7559 30.4453 23.756 30.4455 22.8789 30.9258ZM22.9348 32.3686C23.3063 32.5638 23.7099 32.5933 24.0794 32.4702C24.4105 32.3598 24.6404 32.1523 24.7784 31.9995C24.9219 31.8406 25.0222 31.6784 25.0835 31.5678C25.1155 31.5098 25.1406 31.4592 25.1586 31.4208C25.1676 31.4015 25.1751 31.3848 25.181 31.3714C25.1839 31.3647 25.1864 31.3588 25.1886 31.3537C25.1897 31.3511 25.1906 31.3488 25.1915 31.3467C25.192 31.3456 25.1924 31.3446 25.1928 31.3437C25.193 31.3432 25.1931 31.3427 25.1933 31.3423C25.1934 31.3421 25.1936 31.3417 25.1936 31.3416C25.1937 31.3413 25.1939 31.341 24.2683 30.9623C23.3428 30.5837 23.3429 30.5834 23.343 30.5831C23.3431 30.583 23.3432 30.5827 23.3433 30.5825C23.3434 30.5821 23.3436 30.5817 23.3438 30.5813C23.3441 30.5806 23.3444 30.5798 23.3446 30.5792C23.3452 30.5778 23.3457 30.5766 23.3461 30.5756C23.347 30.5735 23.3476 30.5721 23.348 30.5712C23.3488 30.5695 23.3487 30.5698 23.3477 30.5719C23.3456 30.5764 23.3407 30.5864 23.3335 30.5995C23.3162 30.6308 23.3005 30.6519 23.2944 30.6587C23.2827 30.6716 23.3292 30.6121 23.4469 30.5728C23.5122 30.5511 23.5912 30.5387 23.6763 30.5459C23.761 30.5531 23.8256 30.5774 23.8651 30.5981L22.9348 32.3686Z" fill="#FF9F1C" mask="url(#path-7-inside-1_1072_328)"/>
<path d="M20.4834 27.7953L20.4834 27.7953L20.4808 27.7926C20.2181 27.5299 19.8307 27.3901 19.439 27.4742L15.2744 28.3327C15.2742 28.3327 15.2741 28.3327 15.274 28.3327C15.2161 28.3444 15.1662 28.3253 15.1275 28.272C15.0876 28.2171 15.0716 28.1367 15.1129 28.0495L15.1133 28.0486L16.9872 24.0723L16.9872 24.0723L16.9901 24.066C17.1414 23.733 17.146 23.33 16.9564 22.9813L14.873 19.107C14.8345 19.0353 14.8418 18.9568 14.8827 18.8943C14.9224 18.8338 14.9729 18.8153 15.0244 18.8232L15.0246 18.8232L19.2249 19.4624C19.6159 19.5281 20.0026 19.3737 20.2542 19.0907L20.2544 19.0904L23.1422 15.837C23.1423 15.837 23.1424 15.8369 23.1425 15.8368C23.1714 15.8044 23.198 15.7918 23.2186 15.7864C23.2412 15.7804 23.2673 15.7806 23.2941 15.7889C23.3453 15.8047 23.3952 15.8481 23.409 15.9326L23.4091 15.9331L24.1309 20.3092C24.1309 20.3097 24.131 20.3102 24.1311 20.3106C24.1915 20.6851 24.4217 21.0264 24.7871 21.1948L28.649 23.0482C28.6491 23.0482 28.6492 23.0483 28.6493 23.0483C28.704 23.0748 28.7446 23.1318 28.7466 23.216C28.7485 23.3001 28.7106 23.3618 28.6534 23.3931L28.6525 23.3936L24.8956 25.4594L24.8955 25.4594L24.8884 25.4634C24.5569 25.6529 24.3387 25.985 24.2927 26.3681L24.2927 26.3681L24.2922 26.372L23.7987 30.7775C23.7886 30.867 23.7383 30.915 23.6873 30.9339C23.6607 30.9438 23.6351 30.9451 23.6133 30.9406C23.5936 30.9365 23.5675 30.9257 23.5379 30.8955L23.5365 30.894L20.4834 27.7953Z" stroke="#FF9F1C"/>
<mask id="path-10-inside-2_1072_328" fill="white">
<path d="M44.0273 11.2295C44.0273 11.2295 43.7034 11.2273 43.5473 11.0476C43.3912 10.8679 43.3516 10.7412 43.3516 10.7412C43.3516 10.7412 43.3258 11.0025 43.421 11.1937C43.5922 11.5165 44.0273 11.2295 44.0273 11.2295Z"/>
</mask>
<path d="M44.0273 11.2295L44.578 12.0642L47.3261 10.2514L44.034 10.2295L44.0273 11.2295ZM43.3516 10.7412L44.306 10.4427L42.3564 10.643L43.3516 10.7412ZM43.421 11.1937L42.5257 11.6393L42.5315 11.6508L42.5375 11.6622L43.421 11.1937ZM44.0273 11.2295C44.034 10.2295 44.0343 10.2295 44.0345 10.2295C44.0346 10.2295 44.0349 10.2295 44.0351 10.2295C44.0354 10.2295 44.0358 10.2295 44.0361 10.2295C44.0368 10.2295 44.0375 10.2295 44.0381 10.2295C44.0394 10.2295 44.0407 10.2295 44.0419 10.2296C44.0443 10.2296 44.0465 10.2296 44.0484 10.2297C44.0523 10.2298 44.0554 10.2299 44.0578 10.23C44.0625 10.2302 44.0649 10.2304 44.0657 10.2305C44.0657 10.2305 44.0659 10.2304 44.069 10.2311C44.0703 10.2314 44.0917 10.2361 44.1259 10.2527C44.1596 10.2691 44.2306 10.3093 44.3022 10.3918L42.7924 11.7034C43.0788 12.0331 43.4506 12.1413 43.6228 12.1807C43.7264 12.2044 43.8173 12.2161 43.8829 12.2221C43.9165 12.2252 43.9454 12.227 43.9684 12.228C43.98 12.2285 43.9902 12.2289 43.9989 12.2291C44.0033 12.2292 44.0073 12.2293 44.0109 12.2293C44.0127 12.2294 44.0145 12.2294 44.0161 12.2294C44.0169 12.2294 44.0177 12.2294 44.0185 12.2294C44.0188 12.2294 44.0192 12.2294 44.0196 12.2294C44.0198 12.2294 44.0201 12.2294 44.0201 12.2294C44.0204 12.2294 44.0207 12.2294 44.0273 11.2295ZM44.3022 10.3918C44.2734 10.3586 44.2655 10.3421 44.2695 10.3495C44.2714 10.3529 44.276 10.3619 44.2825 10.3773C44.2857 10.3849 44.2893 10.3941 44.2933 10.405C44.2952 10.4104 44.2973 10.4163 44.2994 10.4225C44.3005 10.4257 44.3016 10.4289 44.3026 10.4323C44.3032 10.4339 44.3037 10.4357 44.3043 10.4374C44.3046 10.4382 44.3048 10.4391 44.3051 10.44C44.3053 10.4404 44.3054 10.4409 44.3055 10.4413C44.3056 10.4415 44.3057 10.4419 44.3057 10.442C44.3059 10.4423 44.306 10.4427 43.3516 10.7412C42.3972 11.0398 42.3973 11.0401 42.3974 11.0404C42.3974 11.0405 42.3975 11.0409 42.3976 11.0411C42.3977 11.0416 42.3979 11.042 42.398 11.0425C42.3983 11.0434 42.3986 11.0443 42.3989 11.0452C42.3995 11.0471 42.4001 11.049 42.4007 11.0509C42.402 11.0547 42.4033 11.0587 42.4047 11.0628C42.4075 11.071 42.4105 11.0798 42.4139 11.089C42.4206 11.1075 42.4286 11.128 42.4379 11.1504C42.4567 11.1951 42.481 11.2469 42.5123 11.3046C42.5751 11.4202 42.6651 11.5569 42.7924 11.7034L44.3022 10.3918ZM43.3516 10.7412C42.3564 10.643 42.3564 10.6433 42.3564 10.6435C42.3563 10.6435 42.3563 10.6438 42.3563 10.6439C42.3563 10.6442 42.3563 10.6445 42.3562 10.6448C42.3562 10.6454 42.3561 10.646 42.356 10.6466C42.3559 10.6479 42.3558 10.6492 42.3557 10.6507C42.3554 10.6535 42.3551 10.6566 42.3548 10.66C42.3543 10.6669 42.3536 10.6749 42.353 10.684C42.3518 10.702 42.3505 10.7247 42.3496 10.7512C42.3478 10.8034 42.3474 10.8744 42.3524 10.9567C42.3613 11.1016 42.3913 11.3692 42.5257 11.6393L44.3162 10.7481C44.3554 10.8269 44.3508 10.8684 44.3487 10.8348C44.3483 10.8279 44.3484 10.8216 44.3485 10.8188C44.3485 10.8178 44.3485 10.8186 44.3483 10.8217C44.3482 10.8232 44.348 10.8254 44.3477 10.8283C44.3476 10.8298 44.3475 10.8314 44.3473 10.8333C44.3472 10.8342 44.3471 10.8352 44.347 10.8362C44.347 10.8367 44.3469 10.8372 44.3469 10.8377C44.3469 10.838 44.3468 10.8383 44.3468 10.8386C44.3468 10.8387 44.3468 10.8389 44.3468 10.839C44.3468 10.8392 44.3467 10.8394 43.3516 10.7412ZM42.5375 11.6622C42.7056 11.9792 42.9826 12.2028 43.3139 12.2972C43.6063 12.3805 43.8661 12.3426 44.0229 12.3047C44.1876 12.265 44.3221 12.2048 44.406 12.1626C44.4507 12.1401 44.4881 12.1191 44.5165 12.1024C44.5308 12.0939 44.5432 12.0864 44.5535 12.0799C44.5586 12.0767 44.5632 12.0738 44.5673 12.0712C44.5693 12.0698 44.5713 12.0686 44.573 12.0674C44.5739 12.0669 44.5748 12.0663 44.5756 12.0658C44.576 12.0655 44.5764 12.0652 44.5768 12.065C44.577 12.0648 44.5773 12.0646 44.5774 12.0646C44.5777 12.0644 44.578 12.0642 44.0273 11.2295C43.4767 10.3947 43.477 10.3945 43.4773 10.3943C43.4774 10.3943 43.4776 10.3941 43.4778 10.394C43.4782 10.3937 43.4786 10.3935 43.4789 10.3933C43.4796 10.3928 43.4803 10.3923 43.481 10.3919C43.4824 10.391 43.4837 10.3902 43.4849 10.3894C43.4873 10.3878 43.4895 10.3864 43.4914 10.3852C43.4952 10.3829 43.498 10.3812 43.5001 10.3799C43.504 10.3776 43.5061 10.3765 43.5073 10.3759C43.5083 10.3754 43.5112 10.374 43.5165 10.3719C43.5215 10.37 43.534 10.3653 43.5538 10.3605C43.5804 10.3541 43.6994 10.3274 43.862 10.3737C43.9498 10.3988 44.0428 10.4433 44.1278 10.5127C44.2126 10.5817 44.2692 10.6588 44.3044 10.7251L42.5375 11.6622Z" fill="#FF9F1C" mask="url(#path-10-inside-2_1072_328)"/>
<path d="M43.4218 8.34457L43.4218 8.34457L43.4211 8.34092C43.3686 8.06219 43.1837 7.80207 42.8928 7.6828L40.7249 6.77632L42.8543 5.52568L42.8543 5.52572L42.8602 5.52215C43.0974 5.37841 43.2748 5.12677 43.3059 4.82317L43.5666 2.37175L45.2836 3.97247C45.5081 4.18755 45.8234 4.25581 46.1052 4.18541L46.1055 4.18533L48.4149 3.60668L47.3835 5.8212C47.3833 5.82163 47.3831 5.82206 47.3829 5.82249C47.261 6.08191 47.2566 6.39913 47.4173 6.66857L48.6198 8.74953L46.2198 8.51697L46.2198 8.5169L46.2116 8.51624C45.9192 8.49274 45.6373 8.60936 45.4438 8.83045L45.4438 8.83044L45.4413 8.83342L43.8448 10.6874L43.4218 8.34457ZM43.4205 2.2355L43.4206 2.23563L43.4205 2.2355ZM48.5063 3.41043C48.5064 3.41032 48.5064 3.41021 48.5065 3.4101L48.5063 3.41043Z" stroke="#FF9F1C"/>
<mask id="path-13-inside-3_1072_328" fill="white">
<path d="M77.0222 30.9623C77.0222 30.9623 76.5743 31.264 76.1904 31.1634C75.8065 31.0629 75.6328 30.9258 75.6328 30.9258C75.6328 30.9258 75.8431 31.3097 76.1538 31.4834C76.6932 31.7667 77.0222 30.9623 77.0222 30.9623Z"/>
</mask>
<path d="M77.0222 30.9623L77.9478 31.341L79.1943 28.2939L76.4636 30.1329L77.0222 30.9623ZM75.6328 30.9258L76.2524 30.1409L74.7557 31.4061L75.6328 30.9258ZM76.1538 31.4834L75.666 32.3563L75.6773 32.3626L75.6887 32.3686L76.1538 31.4834ZM77.0222 30.9623C76.4636 30.1329 76.4639 30.1328 76.4641 30.1326C76.4641 30.1326 76.4644 30.1324 76.4645 30.1323C76.4648 30.1321 76.4651 30.1319 76.4653 30.1318C76.4659 30.1314 76.4664 30.131 76.4669 30.1307C76.4679 30.13 76.4689 30.1294 76.4697 30.1289C76.4713 30.1278 76.4726 30.1269 76.4736 30.1263C76.4755 30.1251 76.4762 30.1247 76.4756 30.125C76.4744 30.1258 76.4689 30.1291 76.4599 30.1341C76.4407 30.1448 76.4136 30.1585 76.3846 30.1698C76.2931 30.2058 76.3284 30.1659 76.4438 30.1961L75.9371 32.1308C76.4363 32.2616 76.8876 32.1211 77.1159 32.0314C77.2469 31.9799 77.3558 31.9244 77.4325 31.8817C77.4716 31.86 77.5041 31.8406 77.5289 31.8252C77.5413 31.8175 77.5519 31.8107 77.5606 31.8051C77.5649 31.8023 77.5688 31.7998 77.5722 31.7975C77.5739 31.7964 77.5754 31.7954 77.5769 31.7944C77.5776 31.794 77.5783 31.7935 77.5789 31.7931C77.5793 31.7928 77.5796 31.7926 77.5799 31.7924C77.5801 31.7923 77.5803 31.7921 77.5804 31.7921C77.5806 31.7919 77.5808 31.7918 77.0222 30.9623ZM76.4438 30.1961C76.3244 30.1648 76.2528 30.1319 76.2237 30.117C76.209 30.1094 76.2044 30.1061 76.2094 30.1093C76.2119 30.111 76.2168 30.1142 76.224 30.1194C76.2276 30.122 76.2318 30.125 76.2365 30.1286C76.2389 30.1304 76.2414 30.1323 76.2441 30.1343C76.2454 30.1354 76.2467 30.1364 76.2481 30.1375C76.2488 30.1381 76.2496 30.1386 76.2503 30.1392C76.2506 30.1395 76.251 30.1397 76.2513 30.14C76.2515 30.1402 76.2518 30.1404 76.2519 30.1405C76.2522 30.1407 76.2524 30.1409 75.6328 30.9258C75.0132 31.7107 75.0135 31.7109 75.0137 31.7111C75.0138 31.7112 75.0141 31.7114 75.0143 31.7116C75.0147 31.7118 75.015 31.7121 75.0154 31.7124C75.0162 31.713 75.017 31.7136 75.0177 31.7142C75.0193 31.7155 75.0209 31.7167 75.0226 31.718C75.0259 31.7206 75.0295 31.7233 75.0332 31.7261C75.0407 31.7317 75.049 31.7378 75.0581 31.7444C75.0762 31.7574 75.0977 31.7722 75.1225 31.7882C75.1721 31.8203 75.2349 31.8576 75.3116 31.8968C75.4653 31.9756 75.6725 32.0615 75.9371 32.1308L76.4438 30.1961ZM75.6328 30.9258C74.7557 31.4061 74.7558 31.4063 74.7559 31.4065C74.756 31.4065 74.7561 31.4067 74.7561 31.4069C74.7563 31.4071 74.7564 31.4074 74.7566 31.4077C74.7569 31.4082 74.7572 31.4088 74.7575 31.4094C74.7582 31.4106 74.7589 31.4119 74.7597 31.4132C74.7612 31.416 74.763 31.4192 74.765 31.4228C74.769 31.4299 74.774 31.4385 74.7799 31.4485C74.7916 31.4685 74.8071 31.4942 74.8262 31.5244C74.864 31.5839 74.9181 31.6641 74.987 31.7529C75.1126 31.9145 75.3405 32.1744 75.666 32.3563L76.6417 30.6104C76.6564 30.6187 76.6238 30.5997 76.5665 30.526C76.544 30.4971 76.5261 30.4704 76.5148 30.4526C76.5094 30.444 76.506 30.4384 76.505 30.4367C76.5046 30.4359 76.5047 30.4361 76.5055 30.4375C76.5059 30.4382 76.5065 30.4392 76.5072 30.4405C76.5076 30.4412 76.508 30.4419 76.5084 30.4428C76.5086 30.4432 76.5089 30.4436 76.5091 30.444C76.5093 30.4443 76.5094 30.4445 76.5095 30.4447C76.5096 30.4449 76.5097 30.445 76.5097 30.4451C76.5098 30.4453 76.5099 30.4455 75.6328 30.9258ZM75.6887 32.3686C76.0602 32.5638 76.4638 32.5933 76.8333 32.4702C77.1644 32.3598 77.3943 32.1523 77.5323 31.9995C77.6758 31.8406 77.7761 31.6784 77.8374 31.5678C77.8694 31.5098 77.8945 31.4592 77.9125 31.4208C77.9216 31.4015 77.929 31.3848 77.9349 31.3714C77.9378 31.3647 77.9403 31.3588 77.9425 31.3537C77.9436 31.3511 77.9445 31.3488 77.9454 31.3467C77.9459 31.3456 77.9463 31.3446 77.9467 31.3437C77.9469 31.3432 77.9471 31.3427 77.9472 31.3423C77.9473 31.3421 77.9475 31.3417 77.9475 31.3416C77.9476 31.3413 77.9478 31.341 77.0222 30.9623C76.0967 30.5837 76.0968 30.5834 76.0969 30.5831C76.097 30.583 76.0971 30.5827 76.0972 30.5825C76.0973 30.5821 76.0975 30.5817 76.0977 30.5813C76.098 30.5806 76.0983 30.5798 76.0986 30.5792C76.0991 30.5778 76.0996 30.5766 76.1 30.5756C76.1009 30.5735 76.1015 30.5721 76.1019 30.5712C76.1027 30.5695 76.1026 30.5698 76.1016 30.5719C76.0995 30.5764 76.0946 30.5864 76.0874 30.5995C76.0701 30.6308 76.0544 30.6519 76.0483 30.6587C76.0366 30.6716 76.0831 30.6121 76.2008 30.5728C76.2661 30.5511 76.3452 30.5387 76.4302 30.5459C76.515 30.5531 76.5795 30.5774 76.619 30.5981L75.6887 32.3686Z" fill="#FF9F1C" mask="url(#path-13-inside-3_1072_328)"/>
<path d="M73.2373 27.7953L73.2374 27.7953L73.2347 27.7926C72.972 27.5299 72.5846 27.3901 72.1929 27.4742L68.0283 28.3327C68.0281 28.3327 68.028 28.3327 68.0279 28.3327C67.97 28.3444 67.9201 28.3253 67.8814 28.272C67.8416 28.2171 67.8255 28.1367 67.8668 28.0495L67.8672 28.0486L69.7411 24.0723L69.7411 24.0723L69.744 24.066C69.8954 23.733 69.8999 23.33 69.7103 22.9813L67.6269 19.107C67.5884 19.0353 67.5957 18.9568 67.6366 18.8943C67.6763 18.8338 67.7268 18.8153 67.7783 18.8232L67.7785 18.8232L71.9788 19.4624C72.3698 19.5281 72.7566 19.3737 73.0081 19.0907L73.0083 19.0904L75.8961 15.837C75.8962 15.837 75.8963 15.8369 75.8964 15.8368C75.9253 15.8044 75.9519 15.7918 75.9725 15.7864C75.9951 15.7804 76.0212 15.7806 76.048 15.7889C76.0992 15.8047 76.1491 15.8481 76.1629 15.9326L76.163 15.9331L76.8848 20.3092C76.8848 20.3097 76.8849 20.3102 76.885 20.3106C76.9454 20.6851 77.1756 21.0264 77.541 21.1948L81.4029 23.0482C81.403 23.0482 81.4031 23.0483 81.4032 23.0483C81.4579 23.0748 81.4985 23.1318 81.5005 23.216C81.5024 23.3001 81.4645 23.3618 81.4073 23.3931L81.4064 23.3936L77.6495 25.4594L77.6494 25.4594L77.6423 25.4634C77.3108 25.6529 77.0926 25.985 77.0466 26.3681L77.0466 26.3681L77.0461 26.372L76.5526 30.7775C76.5425 30.867 76.4922 30.915 76.4413 30.9339C76.4146 30.9438 76.3891 30.9451 76.3672 30.9406C76.3475 30.9365 76.3214 30.9257 76.2918 30.8955L76.2904 30.894L73.2373 27.7953Z" stroke="#FF9F1C"/>
</svg>
