<svg width="56" height="56" viewBox="0 0 56 56" fill="none" xmlns="http://www.w3.org/2000/svg">
<circle cx="27.6361" cy="27.6354" r="26" transform="rotate(86.2721 27.6361 27.6354)" fill="#9441FF" fill-opacity="0.22"/>
<path d="M38.625 28.5C38.625 34.0989 33.896 38.6875 28 38.6875C22.104 38.6875 17.375 34.0989 17.375 28.5C17.375 22.9011 22.104 18.3125 28 18.3125C33.896 18.3125 38.625 22.9011 38.625 28.5Z" stroke="#9441FF" stroke-width="1.5"/>
<path d="M28.8125 33.9688H27.1875V32.4062H28.8125V33.9688ZM30.4944 27.9141L29.7631 28.6328C29.1781 29.2031 28.8125 29.6719 28.8125 30.8438H27.1875V30.4531C27.1875 29.5938 27.5531 28.8125 28.1381 28.2422L29.1456 27.2578C29.4462 26.9766 29.625 26.5859 29.625 26.1562C29.625 25.2969 28.8938 24.5938 28 24.5938C27.1063 24.5938 26.375 25.2969 26.375 26.1562H24.75C24.75 24.4297 26.2044 23.0312 28 23.0312C29.7956 23.0312 31.25 24.4297 31.25 26.1562C31.25 26.8438 30.9575 27.4688 30.4944 27.9141Z" fill="#9441FF"/>
</svg>
