<svg width="56" height="56" viewBox="0 0 56 56" fill="none" xmlns="http://www.w3.org/2000/svg">
<circle cx="27.6361" cy="27.6354" r="26" transform="rotate(86.2721 27.6361 27.6354)" fill="#00D59A" fill-opacity="0.22"/>
<g clip-path="url(#clip0_610_7)">
<path d="M23.1107 20.4768H32.987V17.5895C32.987 17.573 32.9837 17.5564 32.9805 17.544C32.9756 17.5295 32.9674 17.515 32.9593 17.5047L32.9577 17.5026C32.9495 17.4902 32.9382 17.4819 32.9268 17.4757C32.9154 17.4695 32.9023 17.4674 32.8893 17.4674H19.25C19.237 17.4674 19.224 17.4716 19.2142 17.4757C19.2028 17.4798 19.1914 17.4902 19.18 17.5026L19.1768 17.5067C19.1702 17.5171 19.1637 17.5295 19.1589 17.544C19.154 17.5585 19.1523 17.573 19.1523 17.5895V34.9337C19.1523 34.9502 19.1556 34.9668 19.1605 34.9792L19.1621 34.9854C19.167 34.9978 19.1735 35.0123 19.1816 35.0227C19.1914 35.0351 19.2028 35.0434 19.2142 35.0496L19.2174 35.0517C19.2272 35.0558 19.2386 35.0599 19.25 35.0599H21.8607V22.0663C21.8607 21.8531 21.8949 21.6462 21.9551 21.4599C22.0186 21.2653 22.1113 21.0894 22.2269 20.9425L22.2334 20.9342C22.3473 20.7914 22.484 20.6755 22.6338 20.5968C22.7819 20.5202 22.943 20.4768 23.1107 20.4768ZM26.4619 31.7194C26.3073 31.5414 26.2227 31.2993 26.2129 31.0509C26.2031 30.8046 26.2682 30.5542 26.4082 30.3576C26.5482 30.1609 26.7402 30.0533 26.9339 30.0409C27.126 30.0285 27.3245 30.1113 27.4792 30.2893L28.9587 31.9968L32.3408 27.4682C32.4857 27.2758 32.6777 27.1743 32.873 27.1681C33.0667 27.1619 33.2637 27.2509 33.415 27.4331C33.5664 27.6173 33.6462 27.8615 33.651 28.1099C33.6559 28.3562 33.5859 28.6066 33.4427 28.7991L29.3672 34.2527L29.3265 34.2134C29.2321 34.2714 29.1296 34.3024 29.0254 34.3086C28.835 34.3169 28.6413 34.2362 28.4899 34.0603L26.4619 31.7194ZM34.1377 20.4768H36.7484C36.916 20.4768 37.0788 20.5202 37.2253 20.5989C37.3783 20.6796 37.5166 20.7976 37.6322 20.9445L37.6387 20.9528C37.751 21.0977 37.8421 21.2695 37.904 21.4599C37.9658 21.6482 37.9984 21.8531 37.9984 22.0684V39.4125C37.9984 39.6278 37.9642 39.8327 37.904 40.019C37.8405 40.2135 37.7477 40.3894 37.6322 40.5364C37.5166 40.6833 37.3799 40.8013 37.2253 40.882C37.0772 40.9607 36.916 41.0041 36.7484 41.0041H23.1107C22.943 41.0041 22.7819 40.9607 22.6338 40.8841C22.4808 40.8034 22.3424 40.6854 22.2269 40.5384C22.1113 40.3915 22.0186 40.2156 21.9551 40.021C21.8932 39.8327 21.8607 39.6278 21.8607 39.4146V36.5232H19.25C19.0824 36.5232 18.9196 36.4798 18.7731 36.4011C18.6201 36.3204 18.4818 36.2024 18.3662 36.0555C18.2507 35.9085 18.1579 35.7326 18.0944 35.538C18.0342 35.3518 18 35.1469 18 34.9337V17.5895C18 17.3743 18.0342 17.1694 18.0944 16.9831C18.1579 16.7886 18.2507 16.6126 18.3662 16.4657C18.4818 16.3187 18.6185 16.2008 18.7731 16.12C18.9212 16.0435 19.0824 16 19.25 16H32.8877C33.057 16 33.2181 16.0435 33.3646 16.12C33.5176 16.2008 33.6559 16.3187 33.7715 16.4657C33.9993 16.7554 34.1393 17.1508 34.1393 17.5895V20.4768H34.1377ZM36.75 21.9401H23.1107C23.0977 21.9401 23.0863 21.9442 23.0749 21.9483C23.0618 21.9545 23.0505 21.9649 23.0423 21.9773L23.0407 21.9794C23.0309 21.9897 23.0244 22.0042 23.0195 22.0187C23.0146 22.0332 23.013 22.0477 23.013 22.0642V39.4084C23.013 39.4249 23.0163 39.4415 23.0195 39.4539C23.0244 39.4684 23.0326 39.4829 23.0423 39.4953L23.0456 39.4995C23.0537 39.5098 23.0651 39.5181 23.0749 39.5222C23.0863 39.5284 23.0977 39.5305 23.1107 39.5305H36.7484C36.7614 39.5305 36.7744 39.5264 36.7842 39.5222L36.7874 39.5202C36.7988 39.5139 36.8086 39.5057 36.8167 39.4932C36.8249 39.4808 36.833 39.4684 36.8379 39.4539L36.8395 39.4498C36.8428 39.4374 36.8444 39.4229 36.8444 39.4063V22.0622C36.8444 22.0456 36.8411 22.0311 36.8379 22.0166L36.8363 22.0125C36.8314 22.0001 36.8249 21.9877 36.8167 21.9773C36.807 21.9649 36.7956 21.9545 36.7842 21.9483C36.7744 21.9442 36.763 21.9401 36.75 21.9401Z" fill="#00D49A"/>
</g>
<defs>
<clipPath id="clip0_610_7">
<rect width="20" height="25" fill="white" transform="translate(18 16)"/>
</clipPath>
</defs>
</svg>
