<svg width="11" height="11" viewBox="0 0 11 11" fill="none" xmlns="http://www.w3.org/2000/svg">
<path fill-rule="evenodd" clip-rule="evenodd" d="M9.09588 2.56412C9.09588 2.92866 8.80034 3.22412 8.43588 3.22412C8.07142 3.22412 7.77588 2.92866 7.77588 2.56412C7.77588 2.19957 8.07142 1.90412 8.43588 1.90412C8.80043 1.90412 9.09588 2.19957 9.09588 2.56412ZM5.5 7.3333C4.48748 7.3333 3.6667 6.51252 3.6667 5.5C3.6667 4.48748 4.48748 3.6667 5.5 3.6667C6.51252 3.6667 7.3333 4.48748 7.3333 5.5C7.3333 6.51252 6.51252 7.3333 5.5 7.3333ZM5.5 2.67566C3.94015 2.67566 2.67566 3.94015 2.67566 5.5C2.67566 7.05985 3.94015 8.32434 5.5 8.32434C7.05985 8.32434 8.32434 7.05985 8.32434 5.5C8.32434 3.94015 7.05985 2.67566 5.5 2.67566ZM5.5 0.991031C6.96859 0.991031 7.14252 0.996617 7.72243 1.02309C8.25868 1.04758 8.54992 1.13713 8.74371 1.21249C9.00041 1.31227 9.18362 1.43146 9.37612 1.62396C9.56862 1.81637 9.68782 1.99959 9.78759 2.25638C9.86287 2.45016 9.95251 2.74141 9.977 3.27766C10.0035 3.85765 10.0091 4.03159 10.0091 5.50017C10.0091 6.96876 10.0035 7.1427 9.977 7.7226C9.95251 8.25885 9.86296 8.55009 9.78759 8.74388C9.68782 9.00058 9.56862 9.1838 9.37612 9.3763C9.18371 9.5688 9.00049 9.68799 8.74371 9.78777C8.54992 9.86305 8.25868 9.95268 7.72243 9.97717C7.14252 10.0036 6.96859 10.0092 5.5 10.0092C4.03133 10.0092 3.85739 10.0036 3.27748 9.97717C2.74123 9.95268 2.44999 9.86313 2.2562 9.78777C1.99951 9.68799 1.81629 9.5688 1.62379 9.3763C1.43138 9.18388 1.31209 9.00066 1.21232 8.74388C1.13704 8.55009 1.04741 8.25885 1.02291 7.7226C0.996445 7.14261 0.990859 6.96867 0.990859 5.50017C0.990859 4.03159 0.996445 3.85765 1.02291 3.27766C1.04741 2.74141 1.13695 2.45016 1.21232 2.25638C1.31209 1.99968 1.43129 1.81646 1.62379 1.62396C1.8162 1.43146 1.99942 1.31227 2.2562 1.21249C2.44999 1.13721 2.74123 1.04758 3.27748 1.02309C3.85748 0.996617 4.03141 0.991031 5.5 0.991031ZM5.5 0C4.00632 0 3.81898 0.00635938 3.23237 0.0330859C2.64696 0.0598125 2.24709 0.152797 1.89733 0.28875C1.53562 0.429258 1.22891 0.617375 0.923141 0.923141C0.617375 1.22891 0.429258 1.53562 0.28875 1.89733C0.152797 2.24718 0.0598125 2.64696 0.0330859 3.23237C0.00635938 3.81898 0 4.00632 0 5.5C0 6.99368 0.00635938 7.18102 0.0330859 7.76763C0.0598125 8.35304 0.152797 8.75282 0.28875 9.10267C0.429258 9.46438 0.617375 9.77109 0.923141 10.0769C1.22891 10.3826 1.53562 10.5707 1.89733 10.7112C2.24718 10.8472 2.64696 10.9402 3.23237 10.9669C3.81898 10.9936 4.00632 11 5.5 11C6.99368 11 7.18102 10.9936 7.76763 10.9669C8.35304 10.9402 8.75282 10.8472 9.10267 10.7112C9.46438 10.5707 9.77109 10.3826 10.0769 10.0769C10.3826 9.77109 10.5707 9.46438 10.7112 9.10267C10.8472 8.75282 10.9402 8.35304 10.9669 7.76763C10.9936 7.18102 11 6.99368 11 5.5C11 4.00632 10.9936 3.81898 10.9669 3.23237C10.9402 2.64696 10.8472 2.24718 10.7112 1.89733C10.5707 1.53562 10.3826 1.22891 10.0769 0.923141C9.77109 0.617375 9.46438 0.429344 9.10267 0.28875C8.75282 0.152797 8.35304 0.0598125 7.76763 0.0330859C7.18102 0.00635938 6.99368 0 5.5 0Z" fill="url(#paint0_radial_26_1668)"/>
<defs>
<radialGradient id="paint0_radial_26_1668" cx="0" cy="0" r="1" gradientUnits="userSpaceOnUse" gradientTransform="translate(1.64236 11.0382) scale(14.0552)">
<stop stop-color="#FFB140"/>
<stop offset="0.2559" stop-color="#FF5445"/>
<stop offset="0.599" stop-color="#FC2B82"/>
<stop offset="1" stop-color="#8E40B7"/>
</radialGradient>
</defs>
</svg>
