<svg width="24" height="24" viewBox="0 0 24 24" fill="none" xmlns="http://www.w3.org/2000/svg">
<rect width="24" height="24" rx="3" fill="#FFCC00"/>
<rect x="5" y="5" width="14" height="14" rx="1" fill="white"/>
<path d="M11.9948 11.6621C10.3996 11.6652 9.08006 12.9783 9.00037 14.6376C8.99824 14.6847 9.00536 14.7318 9.02128 14.7759C9.03721 14.82 9.0616 14.8603 9.09299 14.8944C9.12437 14.9284 9.16208 14.9554 9.20383 14.9738C9.24558 14.9922 9.29049 15.0016 9.33583 15.0013H14.6668C14.7119 15.0012 14.7565 14.9916 14.798 14.973C14.8394 14.9544 14.8768 14.9274 14.9079 14.8934C14.939 14.8594 14.9632 14.8192 14.9789 14.7753C14.9947 14.7313 15.0017 14.6845 14.9996 14.6376C14.9198 12.9762 13.5972 11.6623 12 11.6621H11.9948Z" fill="#FFCC00"/>
<path d="M11.9998 8C11.1542 8 10.4648 8.72009 10.4648 9.6002C10.4648 10.4803 11.1542 11.2029 11.9998 11.2029C12.8454 11.2029 13.5371 10.4803 13.5371 9.6002C13.5371 8.72009 12.8454 8 11.9998 8Z" fill="#FFCC00"/>
</svg>
