<svg width="34" height="44" viewBox="0 0 34 44" fill="none" xmlns="http://www.w3.org/2000/svg">
<path d="M26.1534 7.73438H7.8457V2.57812H13.2999C13.8403 1.07758 15.2948 0 16.9995 0C18.7043 0 20.1588 1.07758 20.6992 2.57812H26.1534V7.73438Z" fill="url(#paint0_linear_972_3304)"/>
<path d="M9.68044 31.3445L8.75586 34.0787L11.5296 33.1673L21.3717 23.4667L19.5212 21.6426L9.68044 31.3445Z" fill="url(#paint1_linear_972_3304)"/>
<path d="M21.3711 19.8195L23.2216 21.6436L25.6122 19.2857L23.7631 17.4629L21.3711 19.8195Z" fill="url(#paint2_linear_972_3304)"/>
<path d="M28.7692 2.57812V10.3125H5.23077V2.57812H0V44H34V2.57812H28.7692ZM12.9427 35.421L4.62153 38.1552L7.39527 29.9526L23.7632 13.8178L29.3107 19.2863L12.9427 35.421Z" fill="url(#paint3_linear_972_3304)"/>
<defs>
<linearGradient id="paint0_linear_972_3304" x1="16.9995" y1="0" x2="16.9995" y2="7.73437" gradientUnits="userSpaceOnUse">
<stop stop-color="#FFCC00"/>
<stop offset="1" stop-color="#FF9F1C"/>
</linearGradient>
<linearGradient id="paint1_linear_972_3304" x1="15.0638" y1="21.6426" x2="15.0638" y2="34.0787" gradientUnits="userSpaceOnUse">
<stop stop-color="#FFCC00"/>
<stop offset="1" stop-color="#FF9F1C"/>
</linearGradient>
<linearGradient id="paint2_linear_972_3304" x1="23.4917" y1="17.4629" x2="23.4917" y2="21.6436" gradientUnits="userSpaceOnUse">
<stop stop-color="#FFCC00"/>
<stop offset="1" stop-color="#FF9F1C"/>
</linearGradient>
<linearGradient id="paint3_linear_972_3304" x1="17" y1="2.57812" x2="17" y2="44" gradientUnits="userSpaceOnUse">
<stop stop-color="#FFCC00"/>
<stop offset="1" stop-color="#FF9F1C"/>
</linearGradient>
</defs>
</svg>
