<svg width="18" height="17" viewBox="0 0 18 17" fill="none" xmlns="http://www.w3.org/2000/svg">
<path d="M9 1.41602L11.625 6.02018L16.875 6.72852L13.125 10.2702L13.875 15.5827L9 13.1035L4.125 15.5827L4.875 10.2702L1.125 6.72852L6.375 6.02018L9 1.41602Z" fill="#FEE8AF"/>
<path d="M9 8.85352L11.625 6.02018L9 1.41602V8.85352Z" fill="#FEB346"/>
<path d="M16.875 6.72852L9 8.85352L13.125 10.2702L16.875 6.72852Z" fill="#FEB346"/>
<path d="M13.875 15.5827L9 8.85352V13.1035L13.875 15.5827Z" fill="#FEB346"/>
<path d="M4.875 10.2702L4.125 15.5827L9 8.85352L4.875 10.2702Z" fill="#FEB346"/>
<path d="M1.125 6.72786L9 8.85287L6.375 6.01953L1.125 6.72786Z" fill="#FEB346"/>
</svg>
