<svg width="191" height="168" viewBox="0 0 191 168" fill="none" xmlns="http://www.w3.org/2000/svg">
<mask id="mask0_512_16" style="mask-type:alpha" maskUnits="userSpaceOnUse" x="0" y="0" width="152" height="124">
<rect width="152" height="124" rx="16" fill="#FF9F1C"/>
</mask>
<g mask="url(#mask0_512_16)">
<circle cx="147" cy="124" r="44" fill="white"/>
</g>
<path d="M135.444 107.168L143.444 99.1229C143.889 98.676 143.889 98.0056 143.444 97.5587C143 97.1117 142.333 97.1117 141.889 97.5587L133.889 105.603L125.889 97.3352C125.444 96.8883 124.778 96.8883 124.333 97.3352C123.889 97.7821 123.889 98.4525 124.333 98.8994L132.333 107.168L124.333 115.212C123.889 115.659 123.889 116.33 124.333 116.777C124.556 117 124.778 117 125.222 117C125.667 117 125.889 117 126.111 116.777L133.889 108.732L141.889 116.777C142.111 117 142.333 117 142.778 117C143.222 117 143.444 117 143.667 116.777C144.111 116.33 144.111 115.659 143.667 115.212L135.444 107.168Z" fill="#FF5139"/>
</svg>
