<svg width="74" height="79" viewBox="0 0 74 79" fill="none" xmlns="http://www.w3.org/2000/svg">
<path d="M36.4992 0C40.3104 0 43.5483 4.68677 45.7069 12.2602C46.4556 14.8896 47.0964 17.892 47.6023 21.1772C50.8402 19.9557 53.8892 18.9849 56.6481 18.2842C64.6011 16.2783 70.4764 16.6126 72.3854 19.7564C74.2876 22.9002 71.6501 27.9149 65.849 33.476C63.8388 35.4047 61.4307 37.4363 58.692 39.5C59.7848 40.3229 60.8303 41.1458 61.8152 41.9559C60.918 42.5538 60.1827 43.3446 59.6701 44.2703C58.5368 43.3381 57.3226 42.3931 56.041 41.4351C53.7812 43.036 51.3461 44.6432 48.7558 46.2312C48.6074 49.1693 48.3646 51.9852 48.0408 54.6532C51.4338 55.9648 54.6177 56.9934 57.4778 57.7135C63.9602 59.3464 68.5 59.4686 69.5792 57.6942C70.1526 56.7491 69.7479 55.264 68.5404 53.3996C69.5185 52.9945 70.382 52.3774 71.07 51.6123C73.0195 54.6532 73.5658 57.2956 72.3921 59.2307C70.4831 62.3745 64.6145 62.7088 56.6548 60.703C53.8959 60.0086 50.8469 59.0314 47.6023 57.8099C47.0964 61.0951 46.4556 64.0975 45.7069 66.727C43.5483 74.3004 40.3104 78.9871 36.4992 78.9871C32.688 78.9871 29.4502 74.3004 27.2916 66.727C26.5428 64.0975 25.902 61.0951 25.3961 57.8099C24.2224 58.2535 23.0756 58.665 21.9626 59.0378C21.8749 57.9642 21.5174 56.9677 20.9575 56.0998C22.2527 55.6626 23.5883 55.1804 24.9644 54.6468C24.6406 51.9788 24.391 49.1564 24.2494 46.2183C21.6591 44.6304 19.2239 43.0231 16.9642 41.4223C14.0704 43.5696 11.5408 45.6847 9.45643 47.6842C4.72108 52.2359 2.33991 55.9262 3.41919 57.707C4.01954 58.6971 5.69243 59.0957 8.17478 58.9736C8.15455 59.1664 8.1478 59.3657 8.1478 59.565C8.1478 60.4072 8.31644 61.2109 8.61324 61.9502C4.65362 62.1109 1.82725 61.2494 0.613057 59.2436C-1.28918 56.0998 1.34832 51.0851 7.14947 45.524C9.16638 43.5953 11.5678 41.5637 14.3065 39.5C11.5745 37.4363 9.16638 35.4047 7.14947 33.476C1.34832 27.9149 -1.28918 22.9002 0.613057 19.7564C2.52204 16.6126 8.39064 16.2783 16.3504 18.2842C19.1093 18.9785 22.1582 19.9493 25.4028 21.1772C25.585 19.9879 25.7873 18.8371 26.0032 17.7313C26.9408 18.1813 27.9931 18.432 29.1129 18.432H29.1736C28.924 19.6986 28.7014 21.0294 28.499 22.4052C31.0826 23.466 33.7673 24.6746 36.4992 26.0183C39.2379 24.6746 41.9159 23.466 44.4994 22.4052C43.9935 18.9399 43.3392 15.7961 42.5634 13.0767C40.8096 6.91764 38.651 3.10522 36.4992 3.10522C35.3053 3.10522 34.1046 4.28174 32.9781 6.3776C32.1079 5.81828 31.1028 5.43897 30.01 5.30396C31.8516 1.92228 34.0573 0 36.4992 0ZM65.2891 42.9074C67.7647 42.9074 69.7749 44.8232 69.7749 47.1827C69.7749 49.5422 67.7647 51.458 65.2891 51.458C62.8135 51.458 60.8033 49.5422 60.8033 47.1827C60.8033 44.8232 62.8067 42.9074 65.2891 42.9074ZM15.0755 55.1547C17.5511 55.1547 19.5612 57.0706 19.5612 59.43C19.5612 61.7895 17.5511 63.7053 15.0755 63.7053C12.5998 63.7053 10.5897 61.7895 10.5897 59.43C10.5897 57.0706 12.5998 55.1547 15.0755 55.1547ZM29.1061 7.56055C31.5817 7.56055 33.5919 9.4764 33.5919 11.8359C33.5919 14.1953 31.5817 16.1112 29.1061 16.1112C26.6305 16.1112 24.6204 14.1953 24.6204 11.8359C24.6204 9.4764 26.6305 7.56055 29.1061 7.56055ZM36.4992 33.8167C39.791 33.8167 42.4623 36.3626 42.4623 39.5C42.4623 42.6374 39.791 45.1833 36.4992 45.1833C33.2074 45.1833 30.5362 42.6374 30.5362 39.5C30.5362 36.3626 33.2074 33.8167 36.4992 33.8167ZM16.9574 37.5584C19.2172 35.9576 21.6523 34.3503 24.2426 32.7624C24.391 29.8307 24.6339 27.0084 24.9576 24.3403C21.5579 23.0288 18.3808 22.0002 15.5207 21.2737C9.03821 19.6407 4.49848 19.5186 3.41919 21.293C2.33991 23.0738 4.72108 26.7641 9.44969 31.2966C11.5341 33.296 14.0636 35.4111 16.9574 37.5584ZM44.4994 56.6012C41.9159 55.5405 39.2312 54.3254 36.4992 52.9817C33.7605 54.3254 31.0826 55.534 28.499 56.6012C29.0049 60.0665 29.6593 63.2103 30.435 65.9298C32.1888 72.0888 34.3474 75.9012 36.506 75.9012C38.6578 75.9012 40.8231 72.0888 42.5702 65.9298C43.3392 63.2103 43.9935 60.0601 44.4994 56.6012ZM32.9983 51.2073C32.1079 50.738 31.2107 50.2558 30.3136 49.7607C30.2866 49.7479 30.2529 49.7286 30.2259 49.7093C29.3422 49.2207 28.4721 48.7321 27.6154 48.2371C27.7368 50.0115 27.8919 51.7345 28.0808 53.3932C29.6862 52.7245 31.3321 51.9916 32.9983 51.2073ZM40.0001 27.7927C40.8973 28.262 41.8012 28.7507 42.7118 29.2457C43.6157 29.7407 44.5061 30.2422 45.3831 30.7501C45.2616 28.9821 45.1065 27.2591 44.9176 25.6004C43.3122 26.2755 41.673 27.0084 40.0001 27.7927ZM48.7558 32.7624C51.3461 34.3503 53.7812 35.9576 56.041 37.5584C58.9348 35.4111 61.4644 33.296 63.5487 31.2966C68.2706 26.7641 70.6518 23.0738 69.5792 21.293C68.5 19.5186 63.9602 19.6407 57.4778 21.2737C54.6177 21.9937 51.4338 23.0224 48.0408 24.3403C48.3646 27.0084 48.6074 29.8243 48.7558 32.7624ZM53.3428 39.5C51.9262 38.5164 50.4422 37.5263 48.8907 36.5426C48.911 37.5199 48.9245 38.5035 48.9245 39.5C48.9245 40.4965 48.911 41.4866 48.8907 42.4638C50.4422 41.4801 51.9262 40.4901 53.3428 39.5ZM45.5787 34.4982C44.1284 33.6303 42.6241 32.7688 41.0862 31.9266C39.5482 31.078 38.017 30.2743 36.4992 29.5028C34.9815 30.2679 33.4502 31.078 31.9123 31.9266H31.9055C30.3675 32.7752 28.87 33.6303 27.4198 34.4982C27.359 36.1376 27.3253 37.8027 27.3253 39.5C27.3253 41.1973 27.359 42.8688 27.4198 44.5018C28.8565 45.3569 30.3338 46.2055 31.8516 47.0413C31.8583 47.0413 31.892 47.0605 31.892 47.0605L31.9123 47.0734C33.457 47.922 34.9882 48.7321 36.506 49.4972C38.0102 48.7385 39.5212 47.9413 41.0457 47.0991C41.0727 47.0863 41.0997 47.067 41.1266 47.0541C42.6511 46.2119 44.1419 45.3633 45.5787 44.5018C45.6394 42.8688 45.6731 41.1973 45.6731 39.5C45.6731 37.8027 45.6394 36.1376 45.5787 34.4982ZM32.9915 27.7927C31.3254 27.0084 29.6795 26.2755 28.0808 25.6004C27.8919 27.2655 27.7368 28.9821 27.6154 30.7565C28.4923 30.2486 29.3827 29.7472 30.2866 29.2521C31.1905 28.7507 32.0944 28.262 32.9915 27.7927ZM19.6557 39.5C21.0722 40.4901 22.5562 41.4801 24.1077 42.4638C24.0875 41.4866 24.074 40.4965 24.074 39.5C24.074 38.5035 24.0875 37.5134 24.1077 36.5362C22.5562 37.5199 21.0655 38.5099 19.6557 39.5ZM39.9934 51.2073C41.6663 51.9916 43.3054 52.7245 44.9109 53.3996C45.0998 51.7345 45.2549 50.0179 45.3763 48.2435C44.4994 48.7514 43.609 49.2529 42.6984 49.7543L42.6511 49.78C41.7675 50.2686 40.8771 50.7444 39.9934 51.2073Z" fill="white"/>
</svg>
