<svg width="56" height="56" viewBox="0 0 56 56" fill="none" xmlns="http://www.w3.org/2000/svg">
<circle cx="27.6361" cy="27.6354" r="26" transform="rotate(86.2721 27.6361 27.6354)" fill="#F23E6E" fill-opacity="0.22"/>
<path d="M24.6667 27.4577C25.2435 27.4577 25.8074 27.2439 26.2871 26.8433C26.7667 26.4426 27.1406 25.8732 27.3613 25.207C27.5821 24.5409 27.6398 23.8078 27.5273 23.1006C27.4148 22.3934 27.137 21.7437 26.7291 21.2339C26.3212 20.724 25.8015 20.3767 25.2357 20.2361C24.6699 20.0954 24.0835 20.1676 23.5505 20.4435C23.0176 20.7195 22.562 21.1868 22.2415 21.7863C21.9211 22.3859 21.75 23.0908 21.75 23.8119C21.75 24.7788 22.0573 25.7061 22.6043 26.3898C23.1513 27.0736 23.8931 27.4577 24.6667 27.4577ZM24.6667 22.2494C24.9139 22.2494 25.1556 22.341 25.3611 22.5127C25.5667 22.6844 25.7269 22.9284 25.8215 23.2139C25.9161 23.4994 25.9409 23.8136 25.8926 24.1167C25.8444 24.4198 25.7254 24.6982 25.5506 24.9167C25.3757 25.1352 25.153 25.284 24.9105 25.3443C24.6681 25.4046 24.4167 25.3737 24.1883 25.2554C23.9599 25.1372 23.7647 24.9369 23.6273 24.6799C23.49 24.423 23.4167 24.1209 23.4167 23.8119C23.4167 23.3974 23.5484 23 23.7828 22.707C24.0172 22.414 24.3351 22.2494 24.6667 22.2494Z" fill="#F23E6E"/>
<path d="M31.3327 30.584C30.7558 30.584 30.1919 30.7978 29.7123 31.1984C29.2326 31.599 28.8588 32.1684 28.638 32.8346C28.4173 33.5008 28.3595 34.2339 28.4721 34.9411C28.5846 35.6483 28.8624 36.2979 29.2703 36.8078C29.6782 37.3177 30.1979 37.6649 30.7637 37.8056C31.3294 37.9463 31.9159 37.8741 32.4488 37.5981C32.9818 37.3222 33.4373 36.8549 33.7578 36.2553C34.0783 35.6558 34.2494 34.9509 34.2494 34.2298C34.2494 33.2629 33.9421 32.3356 33.3951 31.6518C32.8481 30.9681 32.1062 30.584 31.3327 30.584ZM31.3327 35.7923C31.0855 35.7923 30.8438 35.7007 30.6382 35.529C30.4327 35.3573 30.2724 35.1133 30.1778 34.8278C30.0832 34.5423 30.0585 34.2281 30.1067 33.925C30.1549 33.6219 30.274 33.3435 30.4488 33.125C30.6236 32.9064 30.8463 32.7576 31.0888 32.6973C31.3313 32.6371 31.5826 32.668 31.811 32.7863C32.0394 32.9045 32.2347 33.1048 32.372 33.3617C32.5094 33.6187 32.5827 33.9208 32.5827 34.2298C32.5827 34.6442 32.451 35.0416 32.2166 35.3347C31.9821 35.6277 31.6642 35.7923 31.3327 35.7923Z" fill="#F23E6E"/>
<path d="M34.4507 20.4383C34.3818 20.352 34.2999 20.2835 34.2098 20.2368C34.1198 20.1901 34.0232 20.166 33.9257 20.166C33.8281 20.166 33.7315 20.1901 33.6415 20.2368C33.5514 20.2835 33.4695 20.352 33.4007 20.4383L21.5507 35.2508C21.4131 35.4262 21.3355 35.6614 21.334 35.907C21.3338 36.0906 21.3771 36.2701 21.4586 36.4228C21.5401 36.5755 21.656 36.6946 21.7917 36.7648C21.9273 36.8351 22.0766 36.8535 22.2207 36.8176C22.3647 36.7817 22.4969 36.6932 22.6007 36.5633L34.4507 21.7508C34.5197 21.6646 34.5745 21.5624 34.6118 21.4497C34.6492 21.3371 34.6684 21.2164 34.6684 21.0945C34.6684 20.9726 34.6492 20.8519 34.6118 20.7393C34.5745 20.6267 34.5197 20.5244 34.4507 20.4383Z" fill="#F23E6E"/>
</svg>
