<svg width="74" height="79" viewBox="0 0 74 79" fill="none" xmlns="http://www.w3.org/2000/svg">
<path d="M48.857 38.0792L64.9903 54.6854C67.3475 57.1284 70.5418 61.063 72.407 64.9976C73.5232 67.357 74.1841 69.7422 73.9491 71.8895C73.6995 74.2747 72.4217 76.3062 69.6313 77.6306C68.2434 78.2928 66.4883 78.7621 64.3074 78.9871C64.2339 78.9936 64.1678 79 64.1017 79H37.5189H10.9361C10.8259 79 10.7231 78.9936 10.613 78.9743C8.46137 78.7428 6.73569 78.28 5.36983 77.6306C2.53531 76.2869 1.26491 74.2425 1.02992 71.8316C0.824311 69.6779 1.52193 67.267 2.68217 64.8818C4.67956 60.8058 8.07952 56.7041 10.4734 54.2225L26.0486 38.0728V18.4192C25.9972 18.2006 25.9311 17.982 25.865 17.7699C25.7769 17.4934 25.6815 17.2234 25.5713 16.9469C25.0132 15.539 24.1541 14.1375 22.9865 12.7938C22.3696 12.0802 22.5385 11.0644 23.3463 10.5308C23.6841 10.3122 24.0733 10.2029 24.4625 10.2029H30.6235C29.1549 9.40568 28.1782 7.98486 28.1782 6.35832C28.1782 3.86385 30.4913 1.8387 33.3406 1.8387C36.1898 1.8387 38.5029 3.86385 38.5029 6.35832C38.5029 7.98486 37.5262 9.40568 36.0576 10.2029H50.568C51.5887 10.2029 52.4185 10.9294 52.4185 11.823C52.4185 12.2602 52.2202 12.6588 51.8971 12.9481C51.1555 13.6874 50.546 14.5232 50.054 15.4425C49.5546 16.3619 49.1654 17.3713 48.857 18.4642V38.0792ZM41.9396 47.9606H54.0854L45.7214 39.8279C45.3689 39.5321 45.156 39.1207 45.156 38.6642V18.2842C45.156 18.162 45.1707 18.0334 45.2074 17.9113C45.5745 16.5548 46.0665 15.269 46.7127 14.0732C46.8302 13.861 46.9477 13.6553 47.0726 13.4495H27.8331C28.3177 14.2532 28.7289 15.0761 29.0594 15.9119C29.1916 16.2526 29.3164 16.5933 29.4192 16.9341C29.5147 17.2362 29.5955 17.532 29.6689 17.8213C29.7203 17.9692 29.7423 18.1235 29.7423 18.2842V38.6707C29.7423 39.0371 29.5955 39.41 29.3017 39.7122C22.6707 46.6877 10.2531 58.0671 6.30977 66.1548C3.54134 70.6808 5.59747 76.4927 11.2445 76.287H37.5189H64.0136C65.6512 76.1069 66.9216 75.7791 67.8762 75.3226C70.9237 74.2232 70.6961 67.3892 69.4624 66.2319C69.2274 65.7369 68.9704 65.2483 68.6987 64.7533C68.5959 64.7725 68.4784 64.7854 68.3756 64.7854H50.4946C49.562 64.7854 48.7909 64.0268 48.7909 63.101C48.7909 62.1752 49.5546 61.4166 50.4946 61.4166H66.5324C65.6365 60.1822 64.6892 59.0314 63.808 58.0349C63.7272 58.0478 63.6391 58.0542 63.5583 58.0542H50.1935C45.0018 58.0542 45.6847 54.6854 48.7468 54.6854H60.621L57.199 51.1687C56.9861 51.2651 56.7437 51.323 56.4941 51.323H41.9396C39.6925 51.3294 39.6925 47.9606 41.9396 47.9606ZM20.1152 16.5291C22.0759 16.5291 23.6621 17.9242 23.6621 19.6343C23.6621 21.3508 22.0686 22.7395 20.1152 22.7395C18.1546 22.7395 16.5684 21.3508 16.5684 19.6343C16.5611 17.9242 18.1546 16.5291 20.1152 16.5291ZM17.3688 0C20.8422 0 23.6621 2.46875 23.6621 5.50968C23.6621 8.55062 20.8422 11.0194 17.3688 11.0194C13.8954 11.0194 11.0756 8.55062 11.0756 5.50968C11.0756 2.46875 13.8954 0 17.3688 0Z" fill="white"/>
</svg>
