<svg width="34" height="44" viewBox="0 0 34 44" fill="none" xmlns="http://www.w3.org/2000/svg">
<path d="M22.2747 11.4192V0H0.306641V44H33.6938V11.4192H22.2747ZM12.5429 33.2123L10.7199 35.0353L9.01847 33.3338L7.31699 35.0353L5.494 33.2123L7.19548 31.5108L5.494 29.8093L7.31699 27.9863L9.01847 29.6878L10.7199 27.9863L12.5429 29.8093L10.8415 31.5108L12.5429 33.2123ZM8.59179 26.6028L5.13934 23.5307L6.8531 21.6047L8.47096 23.0443L12.0369 19.4092L13.8774 21.2145L8.59179 26.6028ZM8.59179 19.5253L5.13934 16.4532L6.8531 14.5272L8.47096 15.9668L12.0369 12.3317L13.8774 14.1371L8.59179 19.5253ZM27.9843 32.7998H15.1916V30.2216H27.9843V32.7998ZM27.9843 25.9156H15.1916V23.3374H27.9843V25.9156ZM27.9843 18.8382H15.1916V16.2601H27.9843V18.8382Z" fill="url(#paint0_linear_972_3234)"/>
<path d="M24.8535 0.755859V8.8418H32.9395L24.8535 0.755859Z" fill="url(#paint1_linear_972_3234)"/>
<defs>
<linearGradient id="paint0_linear_972_3234" x1="17.0002" y1="0" x2="17.0002" y2="44" gradientUnits="userSpaceOnUse">
<stop stop-color="#FFCC00"/>
<stop offset="1" stop-color="#FF9F1C"/>
</linearGradient>
<linearGradient id="paint1_linear_972_3234" x1="28.8965" y1="0.755859" x2="28.8965" y2="8.8418" gradientUnits="userSpaceOnUse">
<stop stop-color="#FFCC00"/>
<stop offset="1" stop-color="#FF9F1C"/>
</linearGradient>
</defs>
</svg>
