<svg width="20" height="22" viewBox="0 0 20 22" fill="none" xmlns="http://www.w3.org/2000/svg">
<path d="M9.99715 4.71429C9.54073 4.71429 9.09456 4.57604 8.71506 4.31704C8.33556 4.05803 8.03978 3.6899 7.86512 3.25918C7.69045 2.82847 7.64475 2.35453 7.7338 1.89729C7.82284 1.44005 8.04262 1.02004 8.36536 0.690392C8.6881 0.36074 9.09929 0.136244 9.54694 0.0452929C9.99459 -0.045658 10.4586 0.00102132 10.8803 0.179428C11.3019 0.357834 11.6624 0.659956 11.9159 1.04759C12.1695 1.43522 12.3048 1.89095 12.3048 2.35714C12.3048 2.9823 12.0617 3.58185 11.6289 4.0239C11.1962 4.46595 10.6092 4.71429 9.99715 4.71429ZM9.99715 1.57143C9.84501 1.57143 9.69628 1.61751 9.56978 1.70385C9.44329 1.79018 9.34469 1.91289 9.28647 2.05646C9.22825 2.20004 9.21302 2.35802 9.2427 2.51043C9.27238 2.66284 9.34564 2.80284 9.45322 2.91273C9.5608 3.02261 9.69786 3.09744 9.84708 3.12776C9.99629 3.15808 10.151 3.14252 10.2915 3.08305C10.4321 3.02358 10.5522 2.92287 10.6367 2.79366C10.7213 2.66445 10.7664 2.51254 10.7664 2.35714C10.7664 2.14876 10.6853 1.94891 10.5411 1.80156C10.3968 1.65421 10.2012 1.57143 9.99715 1.57143Z" fill="#0A1D47"/>
<path d="M12.3045 17.2852H7.68915C7.48514 17.2852 7.28948 17.3679 7.14522 17.5153C7.00097 17.6626 6.91992 17.8625 6.91992 18.0709V18.8566C6.91992 19.6901 7.2441 20.4895 7.82113 21.0789C8.39817 21.6683 9.18079 21.9994 9.99685 21.9994C10.8129 21.9994 11.5955 21.6683 12.1726 21.0789C12.7496 20.4895 13.0738 19.6901 13.0738 18.8566V18.0709C13.0738 17.8625 12.9927 17.6626 12.8485 17.5153C12.7042 17.3679 12.5086 17.2852 12.3045 17.2852Z" fill="#0A1D47"/>
<path d="M19.5724 17.3719C18.7734 16.967 18.1014 16.3417 17.6324 15.5669C17.1634 14.792 16.9161 13.8986 16.9185 12.9876V10.214C16.9185 8.33855 16.1891 6.5399 14.8908 5.21375C13.5925 3.8876 11.8316 3.14258 9.99544 3.14258C8.15933 3.14258 6.39842 3.8876 5.10009 5.21375C3.80176 6.5399 3.07237 8.33855 3.07237 10.214V12.9876C3.07481 13.8986 2.82753 14.792 2.35851 15.5669C1.88949 16.3417 1.21747 16.967 0.418519 17.3719C0.265213 17.4521 0.142703 17.5825 0.0706119 17.7423C-0.00147892 17.9021 -0.0189777 18.082 0.0209189 18.2532C0.0608155 18.4243 0.155799 18.5768 0.290652 18.6863C0.425506 18.7958 0.592426 18.8558 0.764673 18.8569H19.2262C19.3985 18.8558 19.5654 18.7958 19.7002 18.6863C19.8351 18.5768 19.9301 18.4243 19.97 18.2532C20.0099 18.082 19.9924 17.9021 19.9203 17.7423C19.8482 17.5825 19.7257 17.4521 19.5724 17.3719Z" fill="#22345C"/>
<ellipse cx="16.9226" cy="7.18387" rx="3.07692" ry="3.14286" fill="#FFCC00"/>
</svg>
