<svg width="14" height="22" viewBox="0 0 14 22" fill="none" xmlns="http://www.w3.org/2000/svg">
<path fill-rule="evenodd" clip-rule="evenodd" d="M12.6 0H1.4C0.378 0 0 0.37125 0 1.375V22L7 17.7512L14 22V1.375C14 0.37125 13.622 0 12.6 0ZM11.508 5.84375L8.904 7.71375L9.912 10.6838C9.996 10.9862 9.884 11.0688 9.632 10.9175L7 9.075L4.368 10.9175C4.102 11.0688 4.018 10.9862 4.088 10.6838L5.096 7.71375L2.492 5.84375C2.254 5.62375 2.296 5.5275 2.618 5.5275L5.838 5.48625L6.818 2.51625H7.168L8.148 5.48625L11.368 5.5275C11.69 5.5275 11.746 5.6375 11.494 5.84375H11.508Z" fill="#22345C"/>
</svg>
