<svg width="313" height="480" viewBox="0 0 313 480" fill="none" xmlns="http://www.w3.org/2000/svg">
<g clip-path="url(#clip0_495_786)">
<rect width="1440" height="1024" transform="translate(-1069 -206)" fill="#EFF2F7"/>
<g filter="url(#filter0_d_495_786)">
<rect y="35" width="312" height="445" rx="16" fill="white"/>
</g>
<g filter="url(#filter1_d_495_786)">
<rect x="-681" y="-2" width="666" height="480" rx="16" fill="white"/>
</g>
<g filter="url(#filter2_d_495_786)">
<path d="M-683 422H-15V464C-15 472.837 -22.1634 480 -31 480H-667C-675.837 480 -683 472.837 -683 464V422Z" fill="url(#paint0_linear_495_786)" shape-rendering="crispEdges"/>
</g>
<path d="M21.402 16.344H25.632V18H19.35V5.49H21.402V16.344ZM28.392 6.768C28.02 6.768 27.708 6.642 27.456 6.39C27.204 6.138 27.078 5.826 27.078 5.454C27.078 5.082 27.204 4.77 27.456 4.518C27.708 4.266 28.02 4.14 28.392 4.14C28.752 4.14 29.058 4.266 29.31 4.518C29.562 4.77 29.688 5.082 29.688 5.454C29.688 5.826 29.562 6.138 29.31 6.39C29.058 6.642 28.752 6.768 28.392 6.768ZM29.4 8.082V18H27.348V8.082H29.4ZM35.9281 16.164L38.7361 8.082H40.9141L37.1341 18H34.6861L30.9241 8.082H33.1201L35.9281 16.164ZM51.5552 12.798C51.5552 13.17 51.5312 13.506 51.4832 13.806H43.9052C43.9652 14.598 44.2592 15.234 44.7872 15.714C45.3152 16.194 45.9632 16.434 46.7312 16.434C47.8352 16.434 48.6152 15.972 49.0712 15.048H51.2852C50.9852 15.96 50.4392 16.71 49.6472 17.298C48.8672 17.874 47.8952 18.162 46.7312 18.162C45.7832 18.162 44.9312 17.952 44.1752 17.532C43.4312 17.1 42.8432 16.5 42.4112 15.732C41.9912 14.952 41.7812 14.052 41.7812 13.032C41.7812 12.012 41.9852 11.118 42.3932 10.35C42.8132 9.57 43.3952 8.97 44.1392 8.55C44.8952 8.13 45.7592 7.92 46.7312 7.92C47.6672 7.92 48.5012 8.124 49.2332 8.532C49.9652 8.94 50.5352 9.516 50.9432 10.26C51.3512 10.992 51.5552 11.838 51.5552 12.798ZM49.4132 12.15C49.4012 11.394 49.1312 10.788 48.6032 10.332C48.0752 9.876 47.4212 9.648 46.6412 9.648C45.9332 9.648 45.3272 9.876 44.8232 10.332C44.3192 10.776 44.0192 11.382 43.9232 12.15H49.4132ZM57.5664 11.718C57.5664 10.494 57.8484 9.396 58.4124 8.424C58.9884 7.452 59.7624 6.696 60.7344 6.156C61.7184 5.604 62.7924 5.328 63.9564 5.328C65.2884 5.328 66.4704 5.658 67.5024 6.318C68.5464 6.966 69.3024 7.89 69.7704 9.09H67.3044C66.9804 8.43 66.5304 7.938 65.9544 7.614C65.3784 7.29 64.7124 7.128 63.9564 7.128C63.1284 7.128 62.3904 7.314 61.7424 7.686C61.0944 8.058 60.5844 8.592 60.2124 9.288C59.8524 9.984 59.6724 10.794 59.6724 11.718C59.6724 12.642 59.8524 13.452 60.2124 14.148C60.5844 14.844 61.0944 15.384 61.7424 15.768C62.3904 16.14 63.1284 16.326 63.9564 16.326C64.7124 16.326 65.3784 16.164 65.9544 15.84C66.5304 15.516 66.9804 15.024 67.3044 14.364H69.7704C69.3024 15.564 68.5464 16.488 67.5024 17.136C66.4704 17.784 65.2884 18.108 63.9564 18.108C62.7804 18.108 61.7064 17.838 60.7344 17.298C59.7624 16.746 58.9884 15.984 58.4124 15.012C57.8484 14.04 57.5664 12.942 57.5664 11.718ZM76.4743 18.162C75.5383 18.162 74.6923 17.952 73.9363 17.532C73.1803 17.1 72.5863 16.5 72.1543 15.732C71.7223 14.952 71.5063 14.052 71.5063 13.032C71.5063 12.024 71.7283 11.13 72.1723 10.35C72.6163 9.57 73.2223 8.97 73.9903 8.55C74.7583 8.13 75.6163 7.92 76.5643 7.92C77.5123 7.92 78.3703 8.13 79.1383 8.55C79.9063 8.97 80.5123 9.57 80.9563 10.35C81.4003 11.13 81.6223 12.024 81.6223 13.032C81.6223 14.04 81.3943 14.934 80.9383 15.714C80.4823 16.494 79.8583 17.1 79.0663 17.532C78.2863 17.952 77.4223 18.162 76.4743 18.162ZM76.4743 16.38C77.0023 16.38 77.4943 16.254 77.9503 16.002C78.4183 15.75 78.7963 15.372 79.0843 14.868C79.3723 14.364 79.5163 13.752 79.5163 13.032C79.5163 12.312 79.3783 11.706 79.1023 11.214C78.8263 10.71 78.4603 10.332 78.0043 10.08C77.5483 9.828 77.0563 9.702 76.5283 9.702C76.0003 9.702 75.5083 9.828 75.0523 10.08C74.6083 10.332 74.2543 10.71 73.9903 11.214C73.7263 11.706 73.5943 12.312 73.5943 13.032C73.5943 14.1 73.8643 14.928 74.4043 15.516C74.9563 16.092 75.6463 16.38 76.4743 16.38ZM95.6568 7.92C96.4368 7.92 97.1328 8.082 97.7448 8.406C98.3688 8.73 98.8548 9.21 99.2028 9.846C99.5628 10.482 99.7428 11.25 99.7428 12.15V18H97.7088V12.456C97.7088 11.568 97.4868 10.89 97.0428 10.422C96.5988 9.942 95.9928 9.702 95.2248 9.702C94.4568 9.702 93.8448 9.942 93.3888 10.422C92.9448 10.89 92.7228 11.568 92.7228 12.456V18H90.6888V12.456C90.6888 11.568 90.4668 10.89 90.0228 10.422C89.5788 9.942 88.9728 9.702 88.2048 9.702C87.4368 9.702 86.8248 9.942 86.3688 10.422C85.9248 10.89 85.7028 11.568 85.7028 12.456V18H83.6508V8.082H85.7028V9.216C86.0388 8.808 86.4648 8.49 86.9808 8.262C87.4968 8.034 88.0488 7.92 88.6368 7.92C89.4288 7.92 90.1368 8.088 90.7608 8.424C91.3848 8.76 91.8648 9.246 92.2008 9.882C92.5008 9.282 92.9688 8.808 93.6048 8.46C94.2408 8.1 94.9248 7.92 95.6568 7.92ZM114.36 7.92C115.14 7.92 115.836 8.082 116.448 8.406C117.072 8.73 117.558 9.21 117.906 9.846C118.266 10.482 118.446 11.25 118.446 12.15V18H116.412V12.456C116.412 11.568 116.19 10.89 115.746 10.422C115.302 9.942 114.696 9.702 113.928 9.702C113.16 9.702 112.548 9.942 112.092 10.422C111.648 10.89 111.426 11.568 111.426 12.456V18H109.392V12.456C109.392 11.568 109.17 10.89 108.726 10.422C108.282 9.942 107.676 9.702 106.908 9.702C106.14 9.702 105.528 9.942 105.072 10.422C104.628 10.89 104.406 11.568 104.406 12.456V18H102.354V8.082H104.406V9.216C104.742 8.808 105.168 8.49 105.684 8.262C106.2 8.034 106.752 7.92 107.34 7.92C108.132 7.92 108.84 8.088 109.464 8.424C110.088 8.76 110.568 9.246 110.904 9.882C111.204 9.282 111.672 8.808 112.308 8.46C112.944 8.1 113.628 7.92 114.36 7.92ZM130.147 12.798C130.147 13.17 130.123 13.506 130.075 13.806H122.497C122.557 14.598 122.851 15.234 123.379 15.714C123.907 16.194 124.555 16.434 125.323 16.434C126.427 16.434 127.207 15.972 127.663 15.048H129.877C129.577 15.96 129.031 16.71 128.239 17.298C127.459 17.874 126.487 18.162 125.323 18.162C124.375 18.162 123.523 17.952 122.767 17.532C122.023 17.1 121.435 16.5 121.003 15.732C120.583 14.952 120.373 14.052 120.373 13.032C120.373 12.012 120.577 11.118 120.985 10.35C121.405 9.57 121.987 8.97 122.731 8.55C123.487 8.13 124.351 7.92 125.323 7.92C126.259 7.92 127.093 8.124 127.825 8.532C128.557 8.94 129.127 9.516 129.535 10.26C129.943 10.992 130.147 11.838 130.147 12.798ZM128.005 12.15C127.993 11.394 127.723 10.788 127.195 10.332C126.667 9.876 126.013 9.648 125.233 9.648C124.525 9.648 123.919 9.876 123.415 10.332C122.911 10.776 122.611 11.382 122.515 12.15H128.005ZM137.17 7.92C137.95 7.92 138.646 8.082 139.258 8.406C139.882 8.73 140.368 9.21 140.716 9.846C141.064 10.482 141.238 11.25 141.238 12.15V18H139.204V12.456C139.204 11.568 138.982 10.89 138.538 10.422C138.094 9.942 137.488 9.702 136.72 9.702C135.952 9.702 135.34 9.942 134.884 10.422C134.44 10.89 134.218 11.568 134.218 12.456V18H132.166V8.082H134.218V9.216C134.554 8.808 134.98 8.49 135.496 8.262C136.024 8.034 136.582 7.92 137.17 7.92ZM146.25 9.756V15.246C146.25 15.618 146.334 15.888 146.502 16.056C146.682 16.212 146.982 16.29 147.402 16.29H148.662V18H147.042C146.118 18 145.41 17.784 144.918 17.352C144.426 16.92 144.18 16.218 144.18 15.246V9.756H143.01V8.082H144.18V5.616H146.25V8.082H148.662V9.756H146.25ZM154.153 18.162C153.373 18.162 152.671 18.024 152.047 17.748C151.435 17.46 150.949 17.076 150.589 16.596C150.229 16.104 150.037 15.558 150.013 14.958H152.137C152.173 15.378 152.371 15.732 152.731 16.02C153.103 16.296 153.565 16.434 154.117 16.434C154.693 16.434 155.137 16.326 155.449 16.11C155.773 15.882 155.935 15.594 155.935 15.246C155.935 14.874 155.755 14.598 155.395 14.418C155.047 14.238 154.489 14.04 153.721 13.824C152.977 13.62 152.371 13.422 151.903 13.23C151.435 13.038 151.027 12.744 150.679 12.348C150.343 11.952 150.175 11.43 150.175 10.782C150.175 10.254 150.331 9.774 150.643 9.342C150.955 8.898 151.399 8.55 151.975 8.298C152.563 8.046 153.235 7.92 153.991 7.92C155.119 7.92 156.025 8.208 156.709 8.784C157.405 9.348 157.777 10.122 157.825 11.106H155.773C155.737 10.662 155.557 10.308 155.233 10.044C154.909 9.78 154.471 9.648 153.919 9.648C153.379 9.648 152.965 9.75 152.677 9.954C152.389 10.158 152.245 10.428 152.245 10.764C152.245 11.028 152.341 11.25 152.533 11.43C152.725 11.61 152.959 11.754 153.235 11.862C153.511 11.958 153.919 12.084 154.459 12.24C155.179 12.432 155.767 12.63 156.223 12.834C156.691 13.026 157.093 13.314 157.429 13.698C157.765 14.082 157.939 14.592 157.951 15.228C157.951 15.792 157.795 16.296 157.483 16.74C157.171 17.184 156.727 17.532 156.151 17.784C155.587 18.036 154.921 18.162 154.153 18.162Z" fill="#0A1D47"/>
<path d="M50.518 238.114C50.518 237.162 50.7373 236.308 51.176 235.552C51.624 234.796 52.226 234.208 52.982 233.788C53.7473 233.359 54.5827 233.144 55.488 233.144C56.524 233.144 57.4433 233.401 58.246 233.914C59.058 234.418 59.646 235.137 60.01 236.07H58.092C57.84 235.557 57.49 235.174 57.042 234.922C56.594 234.67 56.076 234.544 55.488 234.544C54.844 234.544 54.27 234.689 53.766 234.978C53.262 235.267 52.8653 235.683 52.576 236.224C52.296 236.765 52.156 237.395 52.156 238.114C52.156 238.833 52.296 239.463 52.576 240.004C52.8653 240.545 53.262 240.965 53.766 241.264C54.27 241.553 54.844 241.698 55.488 241.698C56.076 241.698 56.594 241.572 57.042 241.32C57.49 241.068 57.84 240.685 58.092 240.172H60.01C59.646 241.105 59.058 241.824 58.246 242.328C57.4433 242.832 56.524 243.084 55.488 243.084C54.5733 243.084 53.738 242.874 52.982 242.454C52.226 242.025 51.624 241.432 51.176 240.676C50.7373 239.92 50.518 239.066 50.518 238.114ZM65.2241 243.126C64.4961 243.126 63.8381 242.963 63.2501 242.636C62.6621 242.3 62.2001 241.833 61.8641 241.236C61.5281 240.629 61.3601 239.929 61.3601 239.136C61.3601 238.352 61.5328 237.657 61.8781 237.05C62.2235 236.443 62.6948 235.977 63.2921 235.65C63.8895 235.323 64.5568 235.16 65.2941 235.16C66.0315 235.16 66.6988 235.323 67.2961 235.65C67.8935 235.977 68.3648 236.443 68.7101 237.05C69.0555 237.657 69.2281 238.352 69.2281 239.136C69.2281 239.92 69.0508 240.615 68.6961 241.222C68.3415 241.829 67.8561 242.3 67.2401 242.636C66.6335 242.963 65.9615 243.126 65.2241 243.126ZM65.2241 241.74C65.6348 241.74 66.0175 241.642 66.3721 241.446C66.7361 241.25 67.0301 240.956 67.2541 240.564C67.4781 240.172 67.5901 239.696 67.5901 239.136C67.5901 238.576 67.4828 238.105 67.2681 237.722C67.0535 237.33 66.7688 237.036 66.4141 236.84C66.0595 236.644 65.6768 236.546 65.2661 236.546C64.8555 236.546 64.4728 236.644 64.1181 236.84C63.7728 237.036 63.4975 237.33 63.2921 237.722C63.0868 238.105 62.9841 238.576 62.9841 239.136C62.9841 239.967 63.1941 240.611 63.6141 241.068C64.0435 241.516 64.5801 241.74 65.2241 241.74ZM80.1439 235.16C80.7505 235.16 81.2919 235.286 81.7679 235.538C82.2532 235.79 82.6312 236.163 82.9019 236.658C83.1819 237.153 83.3219 237.75 83.3219 238.45V243H81.7399V238.688C81.7399 237.997 81.5672 237.47 81.2219 237.106C80.8765 236.733 80.4052 236.546 79.8079 236.546C79.2105 236.546 78.7345 236.733 78.3799 237.106C78.0345 237.47 77.8619 237.997 77.8619 238.688V243H76.2799V238.688C76.2799 237.997 76.1072 237.47 75.7619 237.106C75.4165 236.733 74.9452 236.546 74.3479 236.546C73.7505 236.546 73.2745 236.733 72.9199 237.106C72.5745 237.47 72.4019 237.997 72.4019 238.688V243H70.8059V235.286H72.4019V236.168C72.6632 235.851 72.9945 235.603 73.3959 235.426C73.7972 235.249 74.2265 235.16 74.6839 235.16C75.2999 235.16 75.8505 235.291 76.3359 235.552C76.8212 235.813 77.1945 236.191 77.4559 236.686C77.6892 236.219 78.0532 235.851 78.5479 235.58C79.0425 235.3 79.5745 235.16 80.1439 235.16ZM94.6907 235.16C95.2974 235.16 95.8387 235.286 96.3147 235.538C96.8001 235.79 97.1781 236.163 97.4487 236.658C97.7287 237.153 97.8687 237.75 97.8687 238.45V243H96.2867V238.688C96.2867 237.997 96.1141 237.47 95.7687 237.106C95.4234 236.733 94.9521 236.546 94.3547 236.546C93.7574 236.546 93.2814 236.733 92.9267 237.106C92.5814 237.47 92.4087 237.997 92.4087 238.688V243H90.8267V238.688C90.8267 237.997 90.6541 237.47 90.3087 237.106C89.9634 236.733 89.4921 236.546 88.8947 236.546C88.2974 236.546 87.8214 236.733 87.4667 237.106C87.1214 237.47 86.9487 237.997 86.9487 238.688V243H85.3527V235.286H86.9487V236.168C87.2101 235.851 87.5414 235.603 87.9427 235.426C88.3441 235.249 88.7734 235.16 89.2307 235.16C89.8467 235.16 90.3974 235.291 90.8827 235.552C91.3681 235.813 91.7414 236.191 92.0027 236.686C92.2361 236.219 92.6001 235.851 93.0947 235.58C93.5894 235.3 94.1214 235.16 94.6907 235.16ZM106.97 238.954C106.97 239.243 106.951 239.505 106.914 239.738H101.02C101.066 240.354 101.295 240.849 101.706 241.222C102.116 241.595 102.62 241.782 103.218 241.782C104.076 241.782 104.683 241.423 105.038 240.704H106.76C106.526 241.413 106.102 241.997 105.486 242.454C104.879 242.902 104.123 243.126 103.218 243.126C102.48 243.126 101.818 242.963 101.23 242.636C100.651 242.3 100.194 241.833 99.8576 241.236C99.5309 240.629 99.3676 239.929 99.3676 239.136C99.3676 238.343 99.5263 237.647 99.8436 237.05C100.17 236.443 100.623 235.977 101.202 235.65C101.79 235.323 102.462 235.16 103.218 235.16C103.946 235.16 104.594 235.319 105.164 235.636C105.733 235.953 106.176 236.401 106.494 236.98C106.811 237.549 106.97 238.207 106.97 238.954ZM105.304 238.45C105.294 237.862 105.084 237.391 104.674 237.036C104.263 236.681 103.754 236.504 103.148 236.504C102.597 236.504 102.126 236.681 101.734 237.036C101.342 237.381 101.108 237.853 101.034 238.45H105.304ZM112.432 235.16C113.039 235.16 113.58 235.286 114.056 235.538C114.542 235.79 114.92 236.163 115.19 236.658C115.461 237.153 115.596 237.75 115.596 238.45V243H114.014V238.688C114.014 237.997 113.842 237.47 113.496 237.106C113.151 236.733 112.68 236.546 112.082 236.546C111.485 236.546 111.009 236.733 110.654 237.106C110.309 237.47 110.136 237.997 110.136 238.688V243H108.54V235.286H110.136V236.168C110.398 235.851 110.729 235.603 111.13 235.426C111.541 235.249 111.975 235.16 112.432 235.16ZM119.494 236.588V240.858C119.494 241.147 119.559 241.357 119.69 241.488C119.83 241.609 120.063 241.67 120.39 241.67H121.37V243H120.11C119.391 243 118.841 242.832 118.458 242.496C118.075 242.16 117.884 241.614 117.884 240.858V236.588H116.974V235.286H117.884V233.368H119.494V235.286H121.37V236.588H119.494ZM125.641 243.126C125.034 243.126 124.488 243.019 124.003 242.804C123.527 242.58 123.149 242.281 122.869 241.908C122.589 241.525 122.44 241.101 122.421 240.634H124.073C124.101 240.961 124.255 241.236 124.535 241.46C124.824 241.675 125.184 241.782 125.613 241.782C126.061 241.782 126.406 241.698 126.649 241.53C126.901 241.353 127.027 241.129 127.027 240.858C127.027 240.569 126.887 240.354 126.607 240.214C126.336 240.074 125.902 239.92 125.305 239.752C124.726 239.593 124.255 239.439 123.891 239.29C123.527 239.141 123.21 238.912 122.939 238.604C122.678 238.296 122.547 237.89 122.547 237.386C122.547 236.975 122.668 236.602 122.911 236.266C123.154 235.921 123.499 235.65 123.947 235.454C124.404 235.258 124.927 235.16 125.515 235.16C126.392 235.16 127.097 235.384 127.629 235.832C128.17 236.271 128.46 236.873 128.497 237.638H126.901C126.873 237.293 126.733 237.017 126.481 236.812C126.229 236.607 125.888 236.504 125.459 236.504C125.039 236.504 124.717 236.583 124.493 236.742C124.269 236.901 124.157 237.111 124.157 237.372C124.157 237.577 124.232 237.75 124.381 237.89C124.53 238.03 124.712 238.142 124.927 238.226C125.142 238.301 125.459 238.399 125.879 238.52C126.439 238.669 126.896 238.823 127.251 238.982C127.615 239.131 127.928 239.355 128.189 239.654C128.45 239.953 128.586 240.349 128.595 240.844C128.595 241.283 128.474 241.675 128.231 242.02C127.988 242.365 127.643 242.636 127.195 242.832C126.756 243.028 126.238 243.126 125.641 243.126ZM144.316 235.286L141.922 243H140.242L138.688 237.302L137.134 243H135.454L133.046 235.286H134.67L136.28 241.488L137.918 235.286H139.584L141.152 241.46L142.748 235.286H144.316ZM146.321 234.264C146.032 234.264 145.789 234.166 145.593 233.97C145.397 233.774 145.299 233.531 145.299 233.242C145.299 232.953 145.397 232.71 145.593 232.514C145.789 232.318 146.032 232.22 146.321 232.22C146.601 232.22 146.839 232.318 147.035 232.514C147.231 232.71 147.329 232.953 147.329 233.242C147.329 233.531 147.231 233.774 147.035 233.97C146.839 234.166 146.601 234.264 146.321 234.264ZM147.105 235.286V243H145.509V235.286H147.105ZM150.796 232.64V243H149.2V232.64H150.796ZM154.488 232.64V243H152.892V232.64H154.488ZM161.816 236.434C162.087 236.061 162.455 235.757 162.922 235.524C163.398 235.281 163.925 235.16 164.504 235.16C165.185 235.16 165.801 235.323 166.352 235.65C166.903 235.977 167.337 236.443 167.654 237.05C167.971 237.647 168.13 238.333 168.13 239.108C168.13 239.883 167.971 240.578 167.654 241.194C167.337 241.801 166.898 242.277 166.338 242.622C165.787 242.958 165.176 243.126 164.504 243.126C163.907 243.126 163.375 243.009 162.908 242.776C162.451 242.543 162.087 242.244 161.816 241.88V243H160.22V232.64H161.816V236.434ZM166.506 239.108C166.506 238.576 166.394 238.119 166.17 237.736C165.955 237.344 165.666 237.05 165.302 236.854C164.947 236.649 164.565 236.546 164.154 236.546C163.753 236.546 163.37 236.649 163.006 236.854C162.651 237.059 162.362 237.358 162.138 237.75C161.923 238.142 161.816 238.604 161.816 239.136C161.816 239.668 161.923 240.135 162.138 240.536C162.362 240.928 162.651 241.227 163.006 241.432C163.37 241.637 163.753 241.74 164.154 241.74C164.565 241.74 164.947 241.637 165.302 241.432C165.666 241.217 165.955 240.909 166.17 240.508C166.394 240.107 166.506 239.64 166.506 239.108ZM176.778 238.954C176.778 239.243 176.76 239.505 176.722 239.738H170.828C170.875 240.354 171.104 240.849 171.514 241.222C171.925 241.595 172.429 241.782 173.026 241.782C173.885 241.782 174.492 241.423 174.846 240.704H176.568C176.335 241.413 175.91 241.997 175.294 242.454C174.688 242.902 173.932 243.126 173.026 243.126C172.289 243.126 171.626 242.963 171.038 242.636C170.46 242.3 170.002 241.833 169.666 241.236C169.34 240.629 169.176 239.929 169.176 239.136C169.176 238.343 169.335 237.647 169.652 237.05C169.979 236.443 170.432 235.977 171.01 235.65C171.598 235.323 172.27 235.16 173.026 235.16C173.754 235.16 174.403 235.319 174.972 235.636C175.542 235.953 175.985 236.401 176.302 236.98C176.62 237.549 176.778 238.207 176.778 238.954ZM175.112 238.45C175.103 237.862 174.893 237.391 174.482 237.036C174.072 236.681 173.563 236.504 172.956 236.504C172.406 236.504 171.934 236.681 171.542 237.036C171.15 237.381 170.917 237.853 170.842 238.45H175.112ZM184.786 243.126C184.179 243.126 183.633 243.019 183.148 242.804C182.672 242.58 182.294 242.281 182.014 241.908C181.734 241.525 181.584 241.101 181.566 240.634H183.218C183.246 240.961 183.4 241.236 183.68 241.46C183.969 241.675 184.328 241.782 184.758 241.782C185.206 241.782 185.551 241.698 185.794 241.53C186.046 241.353 186.172 241.129 186.172 240.858C186.172 240.569 186.032 240.354 185.752 240.214C185.481 240.074 185.047 239.92 184.45 239.752C183.871 239.593 183.4 239.439 183.036 239.29C182.672 239.141 182.354 238.912 182.084 238.604C181.822 238.296 181.692 237.89 181.692 237.386C181.692 236.975 181.813 236.602 182.056 236.266C182.298 235.921 182.644 235.65 183.092 235.454C183.549 235.258 184.072 235.16 184.66 235.16C185.537 235.16 186.242 235.384 186.774 235.832C187.315 236.271 187.604 236.873 187.642 237.638H186.046C186.018 237.293 185.878 237.017 185.626 236.812C185.374 236.607 185.033 236.504 184.604 236.504C184.184 236.504 183.862 236.583 183.638 236.742C183.414 236.901 183.302 237.111 183.302 237.372C183.302 237.577 183.376 237.75 183.526 237.89C183.675 238.03 183.857 238.142 184.072 238.226C184.286 238.301 184.604 238.399 185.024 238.52C185.584 238.669 186.041 238.823 186.396 238.982C186.76 239.131 187.072 239.355 187.334 239.654C187.595 239.953 187.73 240.349 187.74 240.844C187.74 241.283 187.618 241.675 187.376 242.02C187.133 242.365 186.788 242.636 186.34 242.832C185.901 243.028 185.383 243.126 184.786 243.126ZM193.454 235.16C194.042 235.16 194.565 235.286 195.022 235.538C195.489 235.79 195.853 236.163 196.114 236.658C196.385 237.153 196.52 237.75 196.52 238.45V243H194.938V238.688C194.938 237.997 194.765 237.47 194.42 237.106C194.075 236.733 193.603 236.546 193.006 236.546C192.409 236.546 191.933 236.733 191.578 237.106C191.233 237.47 191.06 237.997 191.06 238.688V243H189.464V232.64H191.06V236.182C191.331 235.855 191.671 235.603 192.082 235.426C192.502 235.249 192.959 235.16 193.454 235.16ZM201.902 243.126C201.174 243.126 200.516 242.963 199.928 242.636C199.34 242.3 198.878 241.833 198.542 241.236C198.206 240.629 198.038 239.929 198.038 239.136C198.038 238.352 198.211 237.657 198.556 237.05C198.901 236.443 199.373 235.977 199.97 235.65C200.567 235.323 201.235 235.16 201.972 235.16C202.709 235.16 203.377 235.323 203.974 235.65C204.571 235.977 205.043 236.443 205.388 237.05C205.733 237.657 205.906 238.352 205.906 239.136C205.906 239.92 205.729 240.615 205.374 241.222C205.019 241.829 204.534 242.3 203.918 242.636C203.311 242.963 202.639 243.126 201.902 243.126ZM201.902 241.74C202.313 241.74 202.695 241.642 203.05 241.446C203.414 241.25 203.708 240.956 203.932 240.564C204.156 240.172 204.268 239.696 204.268 239.136C204.268 238.576 204.161 238.105 203.946 237.722C203.731 237.33 203.447 237.036 203.092 236.84C202.737 236.644 202.355 236.546 201.944 236.546C201.533 236.546 201.151 236.644 200.796 236.84C200.451 237.036 200.175 237.33 199.97 237.722C199.765 238.105 199.662 238.576 199.662 239.136C199.662 239.967 199.872 240.611 200.292 241.068C200.721 241.516 201.258 241.74 201.902 241.74ZM217.844 235.286L215.45 243H213.77L212.216 237.302L210.662 243H208.982L206.574 235.286H208.198L209.808 241.488L211.446 235.286H213.112L214.68 241.46L216.276 235.286H217.844ZM222.928 235.16C223.535 235.16 224.076 235.286 224.552 235.538C225.038 235.79 225.416 236.163 225.686 236.658C225.957 237.153 226.092 237.75 226.092 238.45V243H224.51V238.688C224.51 237.997 224.338 237.47 223.992 237.106C223.647 236.733 223.176 236.546 222.578 236.546C221.981 236.546 221.505 236.733 221.15 237.106C220.805 237.47 220.632 237.997 220.632 238.688V243H219.036V235.286H220.632V236.168C220.894 235.851 221.225 235.603 221.626 235.426C222.037 235.249 222.471 235.16 222.928 235.16ZM235.755 235.16C236.343 235.16 236.866 235.286 237.323 235.538C237.79 235.79 238.154 236.163 238.415 236.658C238.686 237.153 238.821 237.75 238.821 238.45V243H237.239V238.688C237.239 237.997 237.066 237.47 236.721 237.106C236.376 236.733 235.904 236.546 235.307 236.546C234.71 236.546 234.234 236.733 233.879 237.106C233.534 237.47 233.361 237.997 233.361 238.688V243H231.765V232.64H233.361V236.182C233.632 235.855 233.972 235.603 234.383 235.426C234.803 235.249 235.26 235.16 235.755 235.16ZM247.927 238.954C247.927 239.243 247.908 239.505 247.871 239.738H241.977C242.023 240.354 242.252 240.849 242.663 241.222C243.073 241.595 243.577 241.782 244.175 241.782C245.033 241.782 245.64 241.423 245.995 240.704H247.717C247.483 241.413 247.059 241.997 246.443 242.454C245.836 242.902 245.08 243.126 244.175 243.126C243.437 243.126 242.775 242.963 242.187 242.636C241.608 242.3 241.151 241.833 240.815 241.236C240.488 240.629 240.325 239.929 240.325 239.136C240.325 238.343 240.483 237.647 240.801 237.05C241.127 236.443 241.58 235.977 242.159 235.65C242.747 235.323 243.419 235.16 244.175 235.16C244.903 235.16 245.551 235.319 246.121 235.636C246.69 235.953 247.133 236.401 247.451 236.98C247.768 237.549 247.927 238.207 247.927 238.954ZM246.261 238.45C246.251 237.862 246.041 237.391 245.631 237.036C245.22 236.681 244.711 236.504 244.105 236.504C243.554 236.504 243.083 236.681 242.691 237.036C242.299 237.381 242.065 237.853 241.991 238.45H246.261ZM251.093 236.406C251.327 236.014 251.635 235.711 252.017 235.496C252.409 235.272 252.871 235.16 253.403 235.16V236.812H252.997C252.372 236.812 251.896 236.971 251.569 237.288C251.252 237.605 251.093 238.156 251.093 238.94V243H249.497V235.286H251.093V236.406ZM261.94 238.954C261.94 239.243 261.922 239.505 261.884 239.738H255.99C256.037 240.354 256.266 240.849 256.676 241.222C257.087 241.595 257.591 241.782 258.188 241.782C259.047 241.782 259.654 241.423 260.008 240.704H261.73C261.497 241.413 261.072 241.997 260.456 242.454C259.85 242.902 259.094 243.126 258.188 243.126C257.451 243.126 256.788 242.963 256.2 242.636C255.622 242.3 255.164 241.833 254.828 241.236C254.502 240.629 254.338 239.929 254.338 239.136C254.338 238.343 254.497 237.647 254.814 237.05C255.141 236.443 255.594 235.977 256.172 235.65C256.76 235.323 257.432 235.16 258.188 235.16C258.916 235.16 259.565 235.319 260.134 235.636C260.704 235.953 261.147 236.401 261.464 236.98C261.782 237.549 261.94 238.207 261.94 238.954ZM260.274 238.45C260.265 237.862 260.055 237.391 259.644 237.036C259.234 236.681 258.725 236.504 258.118 236.504C257.568 236.504 257.096 236.681 256.704 237.036C256.312 237.381 256.079 237.853 256.004 238.45H260.274Z" fill="#1E2959" fill-opacity="0.22"/>
<rect x="4" y="417" width="305" height="59" rx="16" fill="#1E2959" fill-opacity="0.08"/>
<path d="M43.518 445.114C43.518 444.162 43.7373 443.308 44.176 442.552C44.624 441.796 45.226 441.208 45.982 440.788C46.7473 440.359 47.5827 440.144 48.488 440.144C49.524 440.144 50.4433 440.401 51.246 440.914C52.058 441.418 52.646 442.137 53.01 443.07H51.092C50.84 442.557 50.49 442.174 50.042 441.922C49.594 441.67 49.076 441.544 48.488 441.544C47.844 441.544 47.27 441.689 46.766 441.978C46.262 442.267 45.8653 442.683 45.576 443.224C45.296 443.765 45.156 444.395 45.156 445.114C45.156 445.833 45.296 446.463 45.576 447.004C45.8653 447.545 46.262 447.965 46.766 448.264C47.27 448.553 47.844 448.698 48.488 448.698C49.076 448.698 49.594 448.572 50.042 448.32C50.49 448.068 50.84 447.685 51.092 447.172H53.01C52.646 448.105 52.058 448.824 51.246 449.328C50.4433 449.832 49.524 450.084 48.488 450.084C47.5733 450.084 46.738 449.874 45.982 449.454C45.226 449.025 44.624 448.432 44.176 447.676C43.7373 446.92 43.518 446.066 43.518 445.114ZM58.2241 450.126C57.4961 450.126 56.8381 449.963 56.2501 449.636C55.6621 449.3 55.2001 448.833 54.8641 448.236C54.5281 447.629 54.3601 446.929 54.3601 446.136C54.3601 445.352 54.5328 444.657 54.8781 444.05C55.2235 443.443 55.6948 442.977 56.2921 442.65C56.8895 442.323 57.5568 442.16 58.2941 442.16C59.0315 442.16 59.6988 442.323 60.2961 442.65C60.8935 442.977 61.3648 443.443 61.7101 444.05C62.0555 444.657 62.2281 445.352 62.2281 446.136C62.2281 446.92 62.0508 447.615 61.6961 448.222C61.3415 448.829 60.8561 449.3 60.2401 449.636C59.6335 449.963 58.9615 450.126 58.2241 450.126ZM58.2241 448.74C58.6348 448.74 59.0175 448.642 59.3721 448.446C59.7361 448.25 60.0301 447.956 60.2541 447.564C60.4781 447.172 60.5901 446.696 60.5901 446.136C60.5901 445.576 60.4828 445.105 60.2681 444.722C60.0535 444.33 59.7688 444.036 59.4141 443.84C59.0595 443.644 58.6768 443.546 58.2661 443.546C57.8555 443.546 57.4728 443.644 57.1181 443.84C56.7728 444.036 56.4975 444.33 56.2921 444.722C56.0868 445.105 55.9841 445.576 55.9841 446.136C55.9841 446.967 56.1941 447.611 56.6141 448.068C57.0435 448.516 57.5801 448.74 58.2241 448.74ZM73.1439 442.16C73.7505 442.16 74.2919 442.286 74.7679 442.538C75.2532 442.79 75.6312 443.163 75.9019 443.658C76.1819 444.153 76.3219 444.75 76.3219 445.45V450H74.7399V445.688C74.7399 444.997 74.5672 444.47 74.2219 444.106C73.8765 443.733 73.4052 443.546 72.8079 443.546C72.2105 443.546 71.7345 443.733 71.3799 444.106C71.0345 444.47 70.8619 444.997 70.8619 445.688V450H69.2799V445.688C69.2799 444.997 69.1072 444.47 68.7619 444.106C68.4165 443.733 67.9452 443.546 67.3479 443.546C66.7505 443.546 66.2745 443.733 65.9199 444.106C65.5745 444.47 65.4019 444.997 65.4019 445.688V450H63.8059V442.286H65.4019V443.168C65.6632 442.851 65.9945 442.603 66.3959 442.426C66.7972 442.249 67.2265 442.16 67.6839 442.16C68.2999 442.16 68.8505 442.291 69.3359 442.552C69.8212 442.813 70.1945 443.191 70.4559 443.686C70.6892 443.219 71.0532 442.851 71.5479 442.58C72.0425 442.3 72.5745 442.16 73.1439 442.16ZM87.6907 442.16C88.2974 442.16 88.8387 442.286 89.3147 442.538C89.8001 442.79 90.1781 443.163 90.4487 443.658C90.7287 444.153 90.8687 444.75 90.8687 445.45V450H89.2867V445.688C89.2867 444.997 89.1141 444.47 88.7687 444.106C88.4234 443.733 87.9521 443.546 87.3547 443.546C86.7574 443.546 86.2814 443.733 85.9267 444.106C85.5814 444.47 85.4087 444.997 85.4087 445.688V450H83.8267V445.688C83.8267 444.997 83.6541 444.47 83.3087 444.106C82.9634 443.733 82.4921 443.546 81.8947 443.546C81.2974 443.546 80.8214 443.733 80.4667 444.106C80.1214 444.47 79.9487 444.997 79.9487 445.688V450H78.3527V442.286H79.9487V443.168C80.2101 442.851 80.5414 442.603 80.9427 442.426C81.3441 442.249 81.7734 442.16 82.2307 442.16C82.8467 442.16 83.3974 442.291 83.8827 442.552C84.3681 442.813 84.7414 443.191 85.0027 443.686C85.2361 443.219 85.6001 442.851 86.0947 442.58C86.5894 442.3 87.1214 442.16 87.6907 442.16ZM99.9696 445.954C99.9696 446.243 99.9509 446.505 99.9136 446.738H94.0196C94.0663 447.354 94.2949 447.849 94.7056 448.222C95.1163 448.595 95.6203 448.782 96.2176 448.782C97.0763 448.782 97.6829 448.423 98.0376 447.704H99.7596C99.5263 448.413 99.1016 448.997 98.4856 449.454C97.8789 449.902 97.1229 450.126 96.2176 450.126C95.4803 450.126 94.8176 449.963 94.2296 449.636C93.6509 449.3 93.1936 448.833 92.8576 448.236C92.5309 447.629 92.3676 446.929 92.3676 446.136C92.3676 445.343 92.5263 444.647 92.8436 444.05C93.1703 443.443 93.6229 442.977 94.2016 442.65C94.7896 442.323 95.4616 442.16 96.2176 442.16C96.9456 442.16 97.5943 442.319 98.1636 442.636C98.7329 442.953 99.1763 443.401 99.4936 443.98C99.8109 444.549 99.9696 445.207 99.9696 445.954ZM98.3036 445.45C98.2943 444.862 98.0843 444.391 97.6736 444.036C97.2629 443.681 96.7543 443.504 96.1476 443.504C95.5969 443.504 95.1256 443.681 94.7336 444.036C94.3416 444.381 94.1083 444.853 94.0336 445.45H98.3036ZM105.432 442.16C106.039 442.16 106.58 442.286 107.056 442.538C107.542 442.79 107.92 443.163 108.19 443.658C108.461 444.153 108.596 444.75 108.596 445.45V450H107.014V445.688C107.014 444.997 106.842 444.47 106.496 444.106C106.151 443.733 105.68 443.546 105.082 443.546C104.485 443.546 104.009 443.733 103.654 444.106C103.309 444.47 103.136 444.997 103.136 445.688V450H101.54V442.286H103.136V443.168C103.398 442.851 103.729 442.603 104.13 442.426C104.541 442.249 104.975 442.16 105.432 442.16ZM112.494 443.588V447.858C112.494 448.147 112.559 448.357 112.69 448.488C112.83 448.609 113.063 448.67 113.39 448.67H114.37V450H113.11C112.391 450 111.841 449.832 111.458 449.496C111.075 449.16 110.884 448.614 110.884 447.858V443.588H109.974V442.286H110.884V440.368H112.494V442.286H114.37V443.588H112.494ZM123.468 442.16C124.056 442.16 124.578 442.286 125.036 442.538C125.502 442.79 125.866 443.163 126.128 443.658C126.398 444.153 126.534 444.75 126.534 445.45V450H124.952V445.688C124.952 444.997 124.779 444.47 124.434 444.106C124.088 443.733 123.617 443.546 123.02 443.546C122.422 443.546 121.946 443.733 121.592 444.106C121.246 444.47 121.074 444.997 121.074 445.688V450H119.478V439.64H121.074V443.182C121.344 442.855 121.685 442.603 122.096 442.426C122.516 442.249 122.973 442.16 123.468 442.16ZM135.64 445.954C135.64 446.243 135.621 446.505 135.584 446.738H129.69C129.736 447.354 129.965 447.849 130.376 448.222C130.786 448.595 131.29 448.782 131.888 448.782C132.746 448.782 133.353 448.423 133.708 447.704H135.43C135.196 448.413 134.772 448.997 134.156 449.454C133.549 449.902 132.793 450.126 131.888 450.126C131.15 450.126 130.488 449.963 129.9 449.636C129.321 449.3 128.864 448.833 128.528 448.236C128.201 447.629 128.038 446.929 128.038 446.136C128.038 445.343 128.196 444.647 128.514 444.05C128.84 443.443 129.293 442.977 129.872 442.65C130.46 442.323 131.132 442.16 131.888 442.16C132.616 442.16 133.264 442.319 133.834 442.636C134.403 442.953 134.846 443.401 135.164 443.98C135.481 444.549 135.64 445.207 135.64 445.954ZM133.974 445.45C133.964 444.862 133.754 444.391 133.344 444.036C132.933 443.681 132.424 443.504 131.818 443.504C131.267 443.504 130.796 443.681 130.404 444.036C130.012 444.381 129.778 444.853 129.704 445.45H133.974ZM138.806 443.406C139.039 443.014 139.347 442.711 139.73 442.496C140.122 442.272 140.584 442.16 141.116 442.16V443.812H140.71C140.085 443.812 139.609 443.971 139.282 444.288C138.965 444.605 138.806 445.156 138.806 445.94V450H137.21V442.286H138.806V443.406ZM149.653 445.954C149.653 446.243 149.635 446.505 149.597 446.738H143.703C143.75 447.354 143.979 447.849 144.389 448.222C144.8 448.595 145.304 448.782 145.901 448.782C146.76 448.782 147.367 448.423 147.721 447.704H149.443C149.21 448.413 148.785 448.997 148.169 449.454C147.563 449.902 146.807 450.126 145.901 450.126C145.164 450.126 144.501 449.963 143.913 449.636C143.335 449.3 142.877 448.833 142.541 448.236C142.215 447.629 142.051 446.929 142.051 446.136C142.051 445.343 142.21 444.647 142.527 444.05C142.854 443.443 143.307 442.977 143.885 442.65C144.473 442.323 145.145 442.16 145.901 442.16C146.629 442.16 147.278 442.319 147.847 442.636C148.417 442.953 148.86 443.401 149.177 443.98C149.495 444.549 149.653 445.207 149.653 445.954ZM147.987 445.45C147.978 444.862 147.768 444.391 147.357 444.036C146.947 443.681 146.438 443.504 145.831 443.504C145.281 443.504 144.809 443.681 144.417 444.036C144.025 444.381 143.792 444.853 143.717 445.45H147.987ZM151.868 450.098C151.578 450.098 151.336 450 151.14 449.804C150.944 449.608 150.846 449.365 150.846 449.076C150.846 448.787 150.944 448.544 151.14 448.348C151.336 448.152 151.578 448.054 151.868 448.054C152.148 448.054 152.386 448.152 152.582 448.348C152.778 448.544 152.876 448.787 152.876 449.076C152.876 449.365 152.778 449.608 152.582 449.804C152.386 450 152.148 450.098 151.868 450.098ZM155.245 450.098C154.955 450.098 154.713 450 154.517 449.804C154.321 449.608 154.223 449.365 154.223 449.076C154.223 448.787 154.321 448.544 154.517 448.348C154.713 448.152 154.955 448.054 155.245 448.054C155.525 448.054 155.763 448.152 155.959 448.348C156.155 448.544 156.253 448.787 156.253 449.076C156.253 449.365 156.155 449.608 155.959 449.804C155.763 450 155.525 450.098 155.245 450.098ZM158.622 450.098C158.332 450.098 158.09 450 157.894 449.804C157.698 449.608 157.6 449.365 157.6 449.076C157.6 448.787 157.698 448.544 157.894 448.348C158.09 448.152 158.332 448.054 158.622 448.054C158.902 448.054 159.14 448.152 159.336 448.348C159.532 448.544 159.63 448.787 159.63 449.076C159.63 449.365 159.532 449.608 159.336 449.804C159.14 450 158.902 450.098 158.622 450.098Z" fill="#1E2959" fill-opacity="0.2"/>
<path fill-rule="evenodd" clip-rule="evenodd" d="M24 455C28.9706 455 33 450.971 33 446C33 441.029 28.9706 437 24 437C19.0294 437 15 441.029 15 446C15 450.971 19.0294 455 24 455ZM24 454C28.4183 454 32 450.418 32 446C32 441.582 28.4183 438 24 438C19.5817 438 16 441.582 16 446C16 450.418 19.5817 454 24 454ZM21 445C21.5523 445 22 444.552 22 444C22 443.448 21.5523 443 21 443C20.4477 443 20 443.448 20 444C20 444.552 20.4477 445 21 445ZM27 445C27.5523 445 28 444.552 28 444C28 443.448 27.5523 443 27 443C26.4477 443 26 443.448 26 444C26 444.552 26.4477 445 27 445ZM24 451C26.2091 451 28 449.209 28 447H20C20 449.209 21.7909 451 24 451Z" fill="#1E2959" fill-opacity="0.2"/>
</g>
<defs>
<filter id="filter0_d_495_786" x="-40" y="11" width="392" height="525" filterUnits="userSpaceOnUse" color-interpolation-filters="sRGB">
<feFlood flood-opacity="0" result="BackgroundImageFix"/>
<feColorMatrix in="SourceAlpha" type="matrix" values="0 0 0 0 0 0 0 0 0 0 0 0 0 0 0 0 0 0 127 0" result="hardAlpha"/>
<feOffset dy="16"/>
<feGaussianBlur stdDeviation="20"/>
<feComposite in2="hardAlpha" operator="out"/>
<feColorMatrix type="matrix" values="0 0 0 0 0.0392157 0 0 0 0 0.113725 0 0 0 0 0.278431 0 0 0 0.04 0"/>
<feBlend mode="normal" in2="BackgroundImageFix" result="effect1_dropShadow_495_786"/>
<feBlend mode="normal" in="SourceGraphic" in2="effect1_dropShadow_495_786" result="shape"/>
</filter>
<filter id="filter1_d_495_786" x="-721" y="-26" width="746" height="560" filterUnits="userSpaceOnUse" color-interpolation-filters="sRGB">
<feFlood flood-opacity="0" result="BackgroundImageFix"/>
<feColorMatrix in="SourceAlpha" type="matrix" values="0 0 0 0 0 0 0 0 0 0 0 0 0 0 0 0 0 0 127 0" result="hardAlpha"/>
<feOffset dy="16"/>
<feGaussianBlur stdDeviation="20"/>
<feComposite in2="hardAlpha" operator="out"/>
<feColorMatrix type="matrix" values="0 0 0 0 0.0392157 0 0 0 0 0.113725 0 0 0 0 0.278431 0 0 0 0.04 0"/>
<feBlend mode="normal" in2="BackgroundImageFix" result="effect1_dropShadow_495_786"/>
<feBlend mode="normal" in="SourceGraphic" in2="effect1_dropShadow_495_786" result="shape"/>
</filter>
<filter id="filter2_d_495_786" x="-723" y="398" width="748" height="138" filterUnits="userSpaceOnUse" color-interpolation-filters="sRGB">
<feFlood flood-opacity="0" result="BackgroundImageFix"/>
<feColorMatrix in="SourceAlpha" type="matrix" values="0 0 0 0 0 0 0 0 0 0 0 0 0 0 0 0 0 0 127 0" result="hardAlpha"/>
<feOffset dy="16"/>
<feGaussianBlur stdDeviation="20"/>
<feComposite in2="hardAlpha" operator="out"/>
<feColorMatrix type="matrix" values="0 0 0 0 0.0392157 0 0 0 0 0.113725 0 0 0 0 0.278431 0 0 0 0.04 0"/>
<feBlend mode="normal" in2="BackgroundImageFix" result="effect1_dropShadow_495_786"/>
<feBlend mode="normal" in="SourceGraphic" in2="effect1_dropShadow_495_786" result="shape"/>
</filter>
<linearGradient id="paint0_linear_495_786" x1="-349" y1="408.5" x2="-349.502" y2="521" gradientUnits="userSpaceOnUse">
<stop stop-color="#B9B8BE" stop-opacity="0"/>
<stop offset="1" stop-color="#0A1D47"/>
</linearGradient>
<clipPath id="clip0_495_786">
<rect width="1440" height="1024" fill="white" transform="translate(-1069 -206)"/>
</clipPath>
</defs>
</svg>
