<svg width="48" height="36" viewBox="0 0 48 36" fill="none" xmlns="http://www.w3.org/2000/svg">
<path fill-rule="evenodd" clip-rule="evenodd" d="M33.6 2H14.4C12.648 2 12 2.55687 12 4.0625V35L24 28.6269L36 35V4.0625C36 2.55687 35.352 2 33.6 2ZM31.728 10.7656L27.264 13.5706L28.992 18.0256C29.136 18.4794 28.944 18.6031 28.512 18.3762L24 15.6125L19.488 18.3762C19.032 18.6031 18.888 18.4794 19.008 18.0256L20.736 13.5706L16.272 10.7656C15.864 10.4356 15.936 10.2913 16.488 10.2913L22.008 10.2294L23.688 5.77438H24.288L25.968 10.2294L31.488 10.2913C32.04 10.2913 32.136 10.4563 31.704 10.7656H31.728Z" fill="#FF9F1C"/>
<path d="M43.9691 29.6582C43.9691 29.6582 44.3528 32.5752 47.3425 32.7721C44.3528 32.9691 43.9691 35.8861 43.9691 35.8861C43.9691 35.8861 43.5854 32.9691 40.5957 32.7721C43.5854 32.5752 43.9691 29.6582 43.9691 29.6582Z" fill="#F7A491"/>
<path d="M3.37341 0C3.37341 0 3.75712 2.917 6.74684 3.11392C3.75712 3.31085 3.37341 6.22785 3.37341 6.22785C3.37341 6.22785 2.98971 3.31085 0 3.11392C2.98971 2.917 3.37341 0 3.37341 0Z" fill="#466EB6"/>
<path d="M5.29747 30C5.29747 30 5.44505 30.9723 6.59494 31.038C5.44505 31.1036 5.29747 32.0759 5.29747 32.0759C5.29747 32.0759 5.14989 31.1036 4 31.038C5.14989 30.9723 5.29747 30 5.29747 30Z" fill="#BB2828"/>
<path d="M42.4122 4.22852C42.4122 4.22852 42.6188 5.68701 44.2286 5.78548C42.6188 5.88394 42.4122 7.34244 42.4122 7.34244C42.4122 7.34244 42.2055 5.88394 40.5957 5.78548C42.2055 5.68701 42.4122 4.22852 42.4122 4.22852Z" fill="#50BFA5"/>
</svg>
