<svg width="24" height="24" viewBox="0 0 24 24" fill="none" xmlns="http://www.w3.org/2000/svg">
<rect width="24" height="24" rx="3" fill="#0A1D47"/>
<rect x="5" y="5" width="14" height="14" rx="1" fill="white"/>
<path d="M10.3468 10.0321L14.1701 12.2947C14.3242 12.386 14.3242 12.614 14.1701 12.7053L10.3468 14.9679C10.1927 15.0591 10 14.9451 10 14.7626V10.2374C10 10.0549 10.1926 9.94088 10.3468 10.0321Z" fill="#0A1D47"/>
<path d="M14.169 12.2948L10.3457 10.0321C10.3226 10.0185 10.2988 10.0108 10.2748 10.0059L13.971 12.1933C14.1251 12.2845 14.1251 12.5126 13.971 12.6038L10.1477 14.8665C10.1132 14.8869 10.0768 14.8957 10.041 14.897C10.1059 14.9922 10.2351 15.0333 10.3457 14.9679L14.169 12.7053C14.3231 12.6141 14.3231 12.386 14.169 12.2948Z" fill="#0A1D47"/>
</svg>
