<svg width="22" height="22" viewBox="0 0 22 22" fill="none" xmlns="http://www.w3.org/2000/svg">
<path d="M21.5 11.0002C21.5 16.7994 16.7984 21.5 10.9998 21.5C5.20119 21.5 0.5 16.7994 0.5 11.0002C0.5 5.2018 5.20124 0.5 10.9998 0.5C16.7984 0.5 21.5 5.20182 21.5 11.0002Z" fill="#FF9F1C" stroke="white"/>
<path d="M14.869 7.26172H7.12868C5.96759 7.26172 5.01758 8.21165 5.01758 9.37292V13.5599C5.01758 14.7209 5.96759 15.6711 7.12868 15.6711H14.869C16.0302 15.6711 16.9801 14.7209 16.9801 13.5599V9.37292C16.9801 8.21165 16.0302 7.26172 14.869 7.26172ZM7.87179 13.63C7.87179 13.8044 7.7294 13.9467 7.5552 13.9467H6.34129C6.1671 13.9467 6.02457 13.8044 6.02457 13.63V9.51362C6.02457 9.33942 6.1671 9.1969 6.34129 9.1969H7.5552C7.7294 9.1969 7.87179 9.33942 7.87179 9.51362V13.63ZM12.6702 14.8263C10.8723 14.8263 9.41578 13.3698 9.41539 11.5717C9.41578 9.77402 10.8723 8.31758 12.6702 8.31705C14.4674 8.31758 15.924 9.77402 15.9246 11.5717C15.924 13.3698 14.4674 14.8263 12.6702 14.8263Z" fill="white"/>
<path d="M12.67 9.05469C11.2806 9.05703 10.1568 10.1809 10.1543 11.5702C10.1568 12.9592 11.2806 14.0833 12.67 14.0859C14.0589 14.0833 15.183 12.9592 15.1855 11.5702C15.183 10.1809 14.0589 9.05703 12.67 9.05469Z" fill="white"/>
<path d="M14.2544 6.33008H13.0106C12.3889 6.33008 12.3097 6.7356 12.2871 7.11594H14.9777C14.9553 6.7356 14.8593 6.33008 14.2544 6.33008Z" fill="white"/>
</svg>
