<svg width="31" height="30" viewBox="0 0 31 30" fill="none" xmlns="http://www.w3.org/2000/svg">
<path d="M15.2112 0.984375C15.9141 1.17989 16.63 1.32512 17.3535 1.41895C19.1316 1.75559 20.9096 2.0708 22.6908 2.3952C22.7364 2.41034 22.7804 2.42981 22.8224 2.45335L22.5163 3.78767L25.1084 4.35077C24.7779 5.82281 24.4566 7.2673 24.1322 8.71485C23.6303 10.9642 23.1223 13.2105 22.6296 15.4477C22.607 15.5879 22.5514 15.7207 22.4673 15.8351C22.3832 15.9495 22.2731 16.0423 22.146 16.1056C19.9181 17.3706 17.6983 18.6376 15.4867 19.9066C15.3895 19.9752 15.2735 20.0121 15.1546 20.0121C15.0357 20.0121 14.9197 19.9752 14.8226 19.9066C12.613 18.6274 10.3983 17.3583 8.17852 16.0995C8.05128 16.036 7.94053 15.9437 7.85503 15.8301C7.76952 15.7164 7.71159 15.5845 7.6858 15.4446C6.85644 11.7446 6.01178 8.05075 5.16406 4.31099L7.74701 3.84581L7.48688 2.43805L9.36594 2.08917L15.0246 1.05782C15.0735 1.05782 15.1194 1.03946 15.1378 0.984375H15.2112ZM6.24437 4.96285C7.01864 8.39045 7.77455 11.766 8.54882 15.1386C8.5639 15.2155 8.59626 15.2879 8.64344 15.3505C8.69062 15.413 8.75141 15.4641 8.8212 15.4997C10.8614 16.6565 12.8956 17.8205 14.9236 18.9916C14.9909 19.0386 15.071 19.0638 15.1531 19.0638C15.2352 19.0638 15.3153 19.0386 15.3826 18.9916C17.3963 17.8409 19.4131 16.6963 21.433 15.5578C21.5251 15.5088 21.6039 15.438 21.6626 15.3516C21.7213 15.2652 21.758 15.1658 21.7696 15.062C22.3674 12.3587 22.9703 9.66051 23.5783 6.96739C23.7252 6.30635 23.8843 5.64531 24.019 4.97815L21.4819 4.42422L21.788 3.14193C21.6778 3.10827 21.586 3.07154 21.4819 3.05318C19.7314 2.74714 17.9809 2.40438 16.2273 2.10141C15.7107 1.95827 15.1709 1.91875 14.6389 1.98511C13.2526 2.27279 11.854 2.49619 10.4646 2.75327C9.80969 2.87262 9.15784 3.00115 8.49068 3.12663L8.75081 4.49767L6.24437 4.96285Z" fill="#282F48"/>
<path d="M26.7773 29.9239V26.2331C27.5376 26.2099 28.2986 26.2253 29.0573 26.279C29.2287 26.297 29.3911 26.3644 29.5248 26.4731C29.6585 26.5818 29.7576 26.727 29.8102 26.8911C29.9326 27.24 29.8102 27.5399 29.3909 27.9653C29.547 28.0161 29.6874 28.1061 29.7989 28.2267C29.9103 28.3472 29.989 28.4943 30.0274 28.6539C30.0755 28.9087 30.0252 29.1722 29.8867 29.3914C29.7894 29.5471 29.6541 29.6755 29.4934 29.7644C29.3328 29.8533 29.1522 29.8998 28.9686 29.8994C28.687 29.9178 28.4055 29.8994 28.1239 29.8994L26.7773 29.9239ZM27.5761 28.3295V29.2813C27.9739 29.2813 28.3504 29.2813 28.7268 29.2813C29.0328 29.2813 29.2195 29.1374 29.2256 28.8222C29.2301 28.7574 29.2207 28.6924 29.198 28.6315C29.1754 28.5707 29.14 28.5154 29.0942 28.4693C29.0484 28.4232 28.9933 28.3874 28.9326 28.3644C28.8719 28.3413 28.8069 28.3315 28.7421 28.3356C28.3565 28.3111 27.9709 28.3295 27.5761 28.3295ZM27.5761 27.6929C27.967 27.7187 28.3594 27.7074 28.7482 27.6593C28.8476 27.6484 28.9388 27.5991 29.0023 27.5219C29.0658 27.4447 29.0965 27.3457 29.0879 27.2461C29.0929 27.1524 29.0607 27.0606 28.9982 26.9906C28.9356 26.9207 28.848 26.8783 28.7543 26.8727C28.3596 26.8513 27.9617 26.8727 27.5761 26.8727V27.6929Z" fill="#282F48"/>
<path d="M6.56498 26.2484C7.17705 26.2484 7.74016 26.23 8.31244 26.2484C8.68964 26.2441 9.0536 26.3873 9.32683 26.6474C9.60006 26.9074 9.76097 27.2639 9.7753 27.6409C9.79674 27.8832 9.79674 28.1269 9.7753 28.3692C9.77813 28.5765 9.73832 28.782 9.65835 28.9732C9.57838 29.1644 9.45995 29.3371 9.31043 29.4806C9.1609 29.6241 8.98347 29.7354 8.78915 29.8074C8.59483 29.8794 8.38778 29.9108 8.18085 29.8994C7.64528 29.8994 7.10972 29.8994 6.55273 29.8994L6.56498 26.2484ZM7.34843 29.3088C7.88399 29.2108 8.51137 29.5199 8.8174 28.9262C8.97003 28.6592 9.04671 28.3555 9.03916 28.048C9.03161 27.7406 8.94011 27.441 8.77456 27.1818C8.43792 26.6768 7.85645 26.8758 7.34843 26.839V29.3088Z" fill="#282F48"/>
<path d="M19.681 26.2347V27.6609H21.2112V26.2715C21.4679 26.2273 21.7294 26.218 21.9886 26.2439V29.9164H21.2204V28.328H19.6902V29.898H18.8945V26.2776C19.1363 26.1735 19.3934 26.2592 19.681 26.2347Z" fill="#282F48"/>
<path d="M13.2207 29.9227C13.7165 28.723 14.2 27.5601 14.6744 26.388C14.7692 26.1523 14.9559 26.2319 15.1059 26.2411C15.2558 26.2502 15.5313 26.1095 15.6476 26.391C16.1393 27.554 16.6299 28.7128 17.1196 29.8676C17.0431 29.9502 16.9666 29.9196 16.8993 29.9227C16.2872 29.9227 16.2872 29.9227 16.0821 29.3779C16.0735 29.327 16.0545 29.2784 16.0263 29.2351C15.9982 29.1918 15.9615 29.1546 15.9186 29.126C15.8756 29.0973 15.8272 29.0778 15.7764 29.0685C15.7256 29.0592 15.6734 29.0603 15.6231 29.0719C15.4902 29.0918 15.3551 29.0918 15.2222 29.0719C14.6591 28.9862 14.2123 29.0719 14.1174 29.7513C14.099 29.889 14.0042 29.9166 13.8787 29.9135C13.6736 29.9196 13.4686 29.9227 13.2207 29.9227ZM14.6346 28.4445H15.6904L15.1518 27.098L14.6346 28.4445Z" fill="#282F48"/>
<path d="M22.8612 26.2486H23.6263C23.6263 26.6311 23.6263 27.0136 23.6263 27.3993C23.6263 27.7849 23.6263 28.2531 23.6477 28.6815C23.6784 29.1651 23.9324 29.3609 24.4649 29.3456C24.9239 29.3456 25.129 29.1375 25.1351 28.6632C25.1351 27.8705 25.1351 27.0779 25.1351 26.2792C25.4006 26.2317 25.6708 26.2163 25.94 26.2333C25.94 27.1514 25.992 28.0389 25.9032 28.9233C25.842 29.5354 25.5238 29.8231 24.9239 29.9455C24.5395 30.0262 24.1417 30.0178 23.761 29.921C23.5271 29.8858 23.3124 29.7715 23.1526 29.5972C22.9928 29.4229 22.8975 29.1991 22.8827 28.9631C22.8337 28.0664 22.8612 27.1636 22.8612 26.2486Z" fill="#282F48"/>
<path d="M0.978516 26.2314C1.25089 26.2314 1.46511 26.2314 1.6824 26.2314C1.89969 26.2314 1.88438 26.3722 1.92723 26.4916C2.17206 27.1649 2.41383 27.8412 2.66478 28.5145C2.71068 28.6369 2.71986 28.7807 2.85146 28.8817L3.76957 26.2529H4.60505L3.23706 29.9039H2.37098L0.978516 26.2314Z" fill="#282F48"/>
<path d="M10.0762 26.2325C10.3822 26.2325 10.6179 26.2325 10.8443 26.2325C11.0218 26.2325 11.0708 26.3519 11.1504 26.462C11.4044 26.8599 11.6584 27.2577 11.9308 27.6862C12.1603 27.3189 12.3898 27.0037 12.5612 26.6579C12.615 26.5038 12.7237 26.375 12.8666 26.2959C13.0094 26.2169 13.1763 26.1932 13.3355 26.2294C13.4669 26.2391 13.5988 26.2391 13.7302 26.2294C13.4823 26.6519 13.2116 27.0606 12.9192 27.4536C12.6731 27.7302 12.4906 28.0574 12.3849 28.4123C12.2791 28.7671 12.2526 29.1409 12.3072 29.5071C12.3165 29.6426 12.3165 29.7786 12.3072 29.9141H11.5054C11.5054 29.4826 11.5054 29.0572 11.5054 28.6349C11.5096 28.464 11.458 28.2964 11.3585 28.1575C10.9423 27.5393 10.5322 26.9211 10.0762 26.2325Z" fill="#282F48"/>
<path d="M17.7832 22.3721C17.5099 22.4139 17.2501 22.5187 17.0243 22.6781C16.4482 22.9243 15.8872 23.2043 15.3441 23.5167C15.9562 23.9727 16.7611 24.1624 17.1803 24.9765C16.6417 24.6337 16.149 24.3644 15.7114 24.0278C15.6344 23.9491 15.5425 23.8866 15.4411 23.8439C15.3397 23.8013 15.2307 23.7793 15.1207 23.7793C15.0107 23.7793 14.9017 23.8013 14.8003 23.8439C14.6989 23.8866 14.607 23.9491 14.5301 24.0278C14.0527 24.3698 13.5583 24.6875 13.0488 24.9795C13.2144 24.6096 13.5047 24.3095 13.869 24.1318L14.8912 23.5381C14.1383 23.0668 13.3518 22.7638 12.6082 22.4058C12.5255 22.3629 12.4123 22.3292 12.4643 22.5129C12.4056 22.5513 12.3417 22.5812 12.2746 22.6016C11.511 22.8154 10.6985 22.7735 9.96094 22.4823C10.2543 22.2932 10.5854 22.1706 10.9312 22.123C11.2769 22.0754 11.6289 22.104 11.9624 22.2068V22.1089L11.4513 21.8396C11.6441 21.7508 11.7757 21.858 11.9073 21.9222C12.8928 22.3813 13.8751 22.8403 14.8514 23.3147C14.9238 23.3554 15.0055 23.3768 15.0886 23.3768C15.1717 23.3768 15.2533 23.3554 15.3258 23.3147C16.301 22.8434 17.2813 22.3792 18.2668 21.9222C18.3802 21.8486 18.5112 21.8064 18.6462 21.7998C18.5544 22.0202 18.2759 21.962 18.2025 22.164C18.1229 22.1303 18.0587 22.1303 18.0495 22.2405C17.9668 22.2068 17.8995 22.2038 17.8934 22.317C17.8077 22.2711 17.7465 22.2803 17.7373 22.3935L17.7832 22.3721Z" fill="#282F48"/>
<path d="M4.99609 26.251H5.78567V29.9051H4.99609V26.251Z" fill="#282F48"/>
<path d="M18.2178 22.1587C18.3861 22.275 18.5238 22.1404 18.6891 22.1189C19.2379 22.0381 19.7979 22.146 20.2774 22.425C19.5472 22.7567 18.7207 22.809 17.9546 22.5719C17.9072 22.5585 17.8652 22.5307 17.8345 22.4923C17.8038 22.4539 17.7858 22.4068 17.7832 22.3576C17.8781 22.4189 17.927 22.3821 17.9393 22.2811C18.028 22.327 18.0862 22.3148 18.0954 22.2046C18.1811 22.2475 18.2545 22.2628 18.2484 22.1281L18.2178 22.1587Z" fill="#282F48"/>
<path d="M13.9512 23.298C13.1322 23.564 12.2436 23.5171 11.457 23.1664C11.8343 22.9248 12.2779 22.8075 12.7253 22.8311C13.1727 22.8547 13.6015 23.018 13.9512 23.298Z" fill="#282F48"/>
<path d="M18.8041 23.1617C18.011 23.524 17.1123 23.5818 16.2793 23.3239C16.7139 22.822 17.9441 22.6384 18.8041 23.1617Z" fill="#282F48"/>
<path d="M11.0293 21.8158C10.2187 22.122 9.32426 22.122 8.51367 21.8158C8.89042 21.5788 9.32642 21.4531 9.77148 21.4531C10.2165 21.4531 10.6525 21.5788 11.0293 21.8158Z" fill="#282F48"/>
<path d="M21.7255 21.7951C20.9276 22.1101 20.0426 22.1253 19.2344 21.8379C19.7577 21.2993 20.988 21.3544 21.7255 21.7951Z" fill="#282F48"/>
<path d="M15.9238 22.7946C16.0044 22.4129 16.1682 22.0537 16.4037 21.7427C16.6391 21.4316 16.9402 21.1763 17.2857 20.9951C17.4754 21.6959 16.9184 22.4518 15.9238 22.7946Z" fill="#282F48"/>
<path d="M14.2485 22.7465C13.309 22.4068 12.8347 21.7947 12.8867 20.999C13.5263 21.1643 14.1935 22.0181 14.2485 22.7465Z" fill="#282F48"/>
<path d="M23.2595 20.9442C22.4471 21.3297 21.5215 21.4037 20.6582 21.1523C21.5212 20.5708 22.3414 20.6106 23.2595 20.9442Z" fill="#282F48"/>
<path d="M7.03125 20.9498C7.71677 20.558 8.98988 20.6009 9.47954 21.1181C8.9348 21.4058 7.91876 21.3415 7.03125 20.9498Z" fill="#282F48"/>
<path d="M18.9258 21.4431C19.1468 20.7038 19.6505 20.0814 20.3274 19.7109C20.355 20.5893 19.8867 21.183 18.9258 21.4431Z" fill="#282F48"/>
<path d="M11.3157 21.4187C10.3578 21.1586 9.92018 20.6169 9.91406 19.6865C10.5902 20.058 11.0935 20.68 11.3157 21.4187Z" fill="#282F48"/>
<path d="M11.3652 20.2988C12.0288 20.6884 12.5322 21.3013 12.7852 22.0279C12.3911 21.9364 12.0382 21.7173 11.7815 21.4046C11.5247 21.092 11.3784 20.7032 11.3652 20.2988Z" fill="#282F48"/>
<path d="M24.6279 19.7996C23.9111 20.3065 23.0271 20.519 22.1582 20.3933C22.5097 20.1351 22.9092 19.9497 23.3333 19.8477C23.7573 19.7458 24.1975 19.7294 24.6279 19.7996Z" fill="#282F48"/>
<path d="M17.4434 22.0524C17.6881 21.3176 18.1888 20.6952 18.8542 20.2988C18.8469 20.7062 18.7044 21.0996 18.4489 21.4171C18.1935 21.7346 17.8398 21.9581 17.4434 22.0524Z" fill="#282F48"/>
<path d="M8.09984 20.3968C7.28038 20.5097 6.44807 20.3168 5.76172 19.8551C6.33707 19.6042 7.50307 19.8704 8.09984 20.3968Z" fill="#282F48"/>
<path d="M4.76953 18.5266C5.15421 18.5103 5.53731 18.5849 5.88774 18.7444C6.23816 18.904 6.54602 19.1439 6.78631 19.4447C6.40571 19.435 6.03097 19.3487 5.68446 19.191C5.33796 19.0332 5.02679 18.8073 4.76953 18.5266Z" fill="#282F48"/>
<path d="M25.496 18.5176C25.2499 18.7983 24.9482 19.0248 24.61 19.1829C24.2718 19.3409 23.9045 19.427 23.5312 19.4357C23.7485 18.9246 24.5718 18.5329 25.496 18.5176Z" fill="#282F48"/>
<path d="M8.6543 19.1143C9.17845 19.5262 9.55789 20.0943 9.73766 20.7363C8.87158 20.4363 8.54106 19.9589 8.6543 19.1143Z" fill="#282F48"/>
<path d="M20.5 20.7118C20.6791 20.0856 21.0441 19.5285 21.5466 19.1143C21.7884 19.7967 21.4304 20.3506 20.5 20.7118Z" fill="#282F48"/>
<path d="M3.76367 15.5635C4.49204 15.7655 4.95109 16.2429 5.01842 16.8794C4.70455 16.8046 4.41904 16.6406 4.19638 16.4071C3.97372 16.1735 3.82344 15.8806 3.76367 15.5635Z" fill="#282F48"/>
<path d="M7.61954 18.3857C8.02986 18.828 8.25542 19.4106 8.24997 20.0139C7.53079 19.7629 7.28596 19.1539 7.61954 18.3857Z" fill="#282F48"/>
<path d="M26.2355 17.0459C26.0662 17.3541 25.8303 17.6206 25.5449 17.8261C25.2595 18.0315 24.9319 18.1706 24.5859 18.2333C24.7512 17.6488 25.3847 17.1867 26.2355 17.0459Z" fill="#282F48"/>
<path d="M3.96484 17.0049C4.78502 17.2069 5.38791 17.5129 5.73373 18.2627C4.92886 18.1372 4.45144 17.6476 3.96484 17.0049Z" fill="#282F48"/>
<path d="M21.9648 20.0377C21.9965 19.4281 22.2096 18.842 22.5769 18.3545C23.0145 18.9696 22.7605 19.6521 21.9648 20.0377Z" fill="#282F48"/>
<path d="M25.8256 15.6091C25.7338 15.0736 26.1316 14.4768 26.8263 14.1738C26.8375 14.4892 26.7459 14.7996 26.5654 15.0585C26.385 15.3173 26.1253 15.5106 25.8256 15.6091Z" fill="#282F48"/>
<path d="M25.5176 16.9958C25.6308 16.2399 26.1572 15.9002 26.7937 15.6309C26.7378 15.9582 26.587 16.262 26.3602 16.5046C26.1334 16.7472 25.8404 16.918 25.5176 16.9958Z" fill="#282F48"/>
<path d="M3.73242 14.0547C4.03245 14.1518 4.29394 14.3416 4.47927 14.5968C4.66459 14.852 4.7642 15.1593 4.76376 15.4747C4.21902 15.4196 3.73242 14.7555 3.73242 14.0547Z" fill="#282F48"/>
<path d="M23.1818 19.2155C23.0729 18.6461 23.1717 18.0565 23.4603 17.5537C23.9714 18.2209 23.9132 18.5881 23.1818 19.2155Z" fill="#282F48"/>
<path d="M25.7065 12.9901C25.1648 12.7758 24.9935 12.2556 25.2322 11.5762C25.8381 11.974 26.0248 12.5279 25.7065 12.9901Z" fill="#282F48"/>
<path d="M4.88453 12.9204C4.5785 12.4063 4.73764 11.9288 5.33135 11.4912C5.40292 11.6128 5.44822 11.748 5.46434 11.8881C5.48047 12.0283 5.46705 12.1703 5.42495 12.3049C5.38286 12.4396 5.31302 12.5639 5.21994 12.6699C5.12686 12.7759 5.0126 12.8612 4.88453 12.9204Z" fill="#282F48"/>
<path d="M7.04527 19.1476C6.33526 18.6885 6.24651 18.1499 6.7729 17.5439C7.1126 18.0397 7.09729 18.5814 7.04527 19.1476Z" fill="#282F48"/>
<path d="M5.99407 18.0589C5.52277 17.4468 5.5901 17 6.20524 16.4736C6.41028 16.899 6.33377 17.4774 5.99407 18.0589Z" fill="#282F48"/>
<path d="M23.9773 16.4814C24.6322 16.9313 24.721 17.4485 24.2588 18.0943C23.961 17.6129 23.8602 17.0353 23.9773 16.4814Z" fill="#282F48"/>
<path d="M5.87379 15.3379C5.90315 15.6072 5.86573 15.8795 5.76485 16.1309C5.66397 16.3823 5.50274 16.605 5.29538 16.7793C5.13319 16.204 5.29845 15.7755 5.87379 15.3379Z" fill="#282F48"/>
<path d="M24.347 15.3984C24.9163 15.7045 25.0876 16.1329 24.9591 16.8154C24.7528 16.644 24.5899 16.4264 24.4835 16.1802C24.3772 15.9339 24.3304 15.6661 24.347 15.3984Z" fill="#282F48"/>
<path d="M25.8746 14.1957C25.8242 13.9042 25.8647 13.6042 25.9906 13.3365C26.1165 13.0688 26.3218 12.8463 26.5785 12.6992C26.5961 12.9877 26.5409 13.2759 26.4178 13.5374C26.2948 13.799 26.108 14.0253 25.8746 14.1957Z" fill="#282F48"/>
<path d="M4.69589 14.0985C4.45836 13.9235 4.26841 13.6917 4.14333 13.4245C4.01826 13.1572 3.96202 12.8629 3.97976 12.5684C4.23616 12.7249 4.4408 12.9535 4.56814 13.2257C4.69549 13.4978 4.73992 13.8013 4.69589 14.0985Z" fill="#282F48"/>
<path d="M24.4648 14.1807C25.1657 14.5418 25.383 14.8539 25.2881 15.4507C25.0593 15.3203 24.8651 15.1369 24.7219 14.9159C24.5786 14.6949 24.4905 14.4428 24.4648 14.1807Z" fill="#282F48"/>
<path d="M25.3121 14.0482C25.07 13.9437 24.8546 13.786 24.6818 13.5868C24.5091 13.3875 24.3835 13.1519 24.3145 12.8975C24.9143 13.0811 25.3978 13.4667 25.3121 14.0482Z" fill="#282F48"/>
<path d="M4.95805 15.4445C4.88154 14.7406 5.31305 14.456 5.83943 14.1592C5.80433 14.4278 5.70618 14.6842 5.55299 14.9076C5.39981 15.131 5.19594 15.315 4.95805 15.4445Z" fill="#282F48"/>
<path d="M4.92188 14.0603C4.96166 13.4268 5.22791 13.1422 5.92567 12.9219C5.85534 13.1752 5.72846 13.4093 5.55459 13.6064C5.38072 13.8036 5.16439 13.9588 4.92188 14.0603Z" fill="#282F48"/>
<path d="M13.0248 25.0272V24.9629H13.0493L13.0156 25.0394L13.0248 25.0272Z" fill="#282F48"/>
<path d="M13.015 25.0326L13.0059 25.0234L13.0242 25.0265L13.015 25.0326Z" fill="#282F48"/>
<path d="M6.24414 4.9631L8.74752 4.51017L8.48739 3.12688C9.15455 3.00141 9.8064 2.87287 10.4613 2.75352C11.8538 2.49645 13.2524 2.27304 14.6357 1.98537C15.1676 1.919 15.7074 1.95853 16.224 2.10166C17.9776 2.4077 19.7281 2.7321 21.4786 3.05343C21.5704 3.0718 21.6623 3.10852 21.7847 3.14218L21.4786 4.42448L24.0279 4.98452C23.881 5.65168 23.7219 6.31272 23.5872 6.97376C22.9751 9.66892 22.3723 12.3671 21.7785 15.0684C21.7632 15.1678 21.7248 15.2623 21.6663 15.3441C21.6079 15.426 21.531 15.493 21.4419 15.5397C19.418 16.6782 17.4012 17.8227 15.3916 18.9734C15.3243 19.0204 15.2441 19.0457 15.162 19.0457C15.0799 19.0457 14.9998 19.0204 14.9325 18.9734C12.8923 17.8023 10.8581 16.6384 8.83015 15.4816C8.76036 15.4459 8.69958 15.3949 8.65239 15.3324C8.60521 15.2698 8.57285 15.1973 8.55778 15.1204C7.7835 11.754 7.01841 8.37847 6.24414 4.9631ZM21.1206 3.49107L16.9524 2.7321C15.9945 2.55459 15.0488 2.2914 14.0634 2.59438C13.6843 2.69134 13.3002 2.76695 12.9127 2.82085L9.13618 3.51249L9.39632 4.89577L6.91742 5.33952C6.91742 5.41909 6.93272 5.46806 6.9419 5.51397C7.64375 8.60493 8.34457 11.6949 9.04437 14.7838C9.06379 14.8775 9.10492 14.9654 9.16444 15.0403C9.22397 15.1153 9.30024 15.1752 9.38713 15.2153C11.2111 16.2558 13.033 17.3004 14.8529 18.3491C14.9434 18.41 15.0499 18.4426 15.159 18.4426C15.268 18.4426 15.3746 18.41 15.465 18.3491C17.2339 17.329 19.0069 16.3232 20.7839 15.3316C20.918 15.2677 21.0345 15.1722 21.1235 15.0533C21.2125 14.9344 21.2714 14.7958 21.295 14.6492C21.8642 12.054 22.4488 9.44653 23.0272 6.87277C23.1404 6.36781 23.2475 5.86285 23.3577 5.34259L20.7992 4.78254L21.1206 3.49107Z" fill="#FDFDFD"/>
<path d="M18.2233 22.1564C18.2233 22.2911 18.156 22.2758 18.0703 22.2329C18.0795 22.1228 18.1438 22.1228 18.2233 22.1564Z" fill="#282F48"/>
<path d="M17.9315 22.3022C17.9315 22.4032 17.8703 22.44 17.7754 22.3788C17.7846 22.2655 17.8458 22.2563 17.9315 22.3022Z" fill="#282F48"/>
<path d="M18.0799 22.2294C18.0799 22.3396 18.0126 22.3519 17.9238 22.306C17.9299 22.1927 17.9973 22.1958 18.0799 22.2294Z" fill="#282F48"/>
<path d="M21.1231 3.49029L20.817 4.78177L23.3755 5.34181C23.2653 5.85595 23.1582 6.36091 23.045 6.87199C22.4666 9.46106 21.882 12.0532 21.3128 14.6484C21.2892 14.795 21.2303 14.9337 21.1413 15.0525C21.0523 15.1714 20.9358 15.2669 20.8017 15.3308C19.0124 16.3183 17.2395 17.3221 15.4828 18.3422C15.3924 18.4032 15.2858 18.4357 15.1768 18.4357C15.0677 18.4357 14.9612 18.4032 14.8707 18.3422C13.0427 17.2936 11.2157 16.251 9.38964 15.2145C9.30274 15.1744 9.22647 15.1145 9.16694 15.0395C9.10742 14.9646 9.06629 14.8767 9.04688 14.783C8.36135 11.6921 7.66053 8.60212 6.9444 5.51319C6.9444 5.46729 6.9444 5.41832 6.91992 5.33875L9.39882 4.895L9.13869 3.51171L12.9152 2.82007C13.3026 2.76819 13.6867 2.69463 14.0659 2.59973C15.0513 2.29369 15.997 2.55994 16.9549 2.73744L21.1231 3.49029ZM21.2638 8.71127C21.2424 8.61028 21.1873 8.61946 21.1445 8.6011C19.2287 7.86967 17.3129 7.14131 15.4002 6.4007C15.3234 6.36743 15.2406 6.35026 15.1569 6.35026C15.0732 6.35026 14.9904 6.36743 14.9136 6.4007C13.0468 7.11682 11.1799 7.83091 9.31313 8.54295C9.23356 8.5705 9.10808 8.55825 9.08666 8.70821C11.0616 9.40801 13.0366 10.1109 15.0115 10.8168C15.1225 10.8612 15.2464 10.8612 15.3573 10.8168C17.3221 10.1068 19.2899 9.4121 21.2638 8.71127ZM11.639 11.9553C12.8108 12.2711 13.9409 12.7251 15.0054 13.3079C15.1615 13.3967 15.2564 13.3263 15.3726 13.2651C15.9358 12.9529 16.5232 12.6868 17.1293 12.4694C17.6312 12.2919 18.1331 12.1205 18.6595 11.94C18.5948 11.3499 18.3845 10.7851 18.0474 10.2965C17.1874 10.5842 16.3489 10.8627 15.5134 11.1534C15.2984 11.2345 15.0613 11.2345 14.8463 11.1534C14.0965 10.8933 13.3375 10.6638 12.5969 10.3945C12.5512 10.3671 12.4997 10.3507 12.4466 10.3467C12.3934 10.3427 12.3401 10.3511 12.2908 10.3713C12.2415 10.3915 12.1975 10.4229 12.1625 10.4631C12.1274 10.5032 12.1022 10.551 12.0889 10.6026C11.8648 11.0253 11.7128 11.4825 11.639 11.9553ZM9.7783 14.2444C9.7936 14.3026 9.80584 14.3485 9.82115 14.3913C9.85481 14.4923 9.7477 14.6759 9.9405 14.679C10.1333 14.682 10.0537 14.4984 10.0599 14.3974C10.0599 14.1434 10.0599 13.8894 10.0599 13.6354C10.1976 13.972 10.0813 14.3332 10.2251 14.6637C10.3475 14.073 10.1976 13.4885 10.1823 12.9009C10.1517 11.8512 9.78442 10.826 9.90378 9.75486C9.90378 9.66917 9.96804 9.54063 9.80585 9.53451C9.64365 9.52839 9.69261 9.66917 9.68649 9.75486C9.62302 10.2025 9.64273 10.6579 9.74464 11.0984C9.94516 11.9083 9.94516 12.755 9.74464 13.565C9.67731 13.9292 9.62222 14.2934 9.55183 14.7157C9.74158 14.5688 9.64977 14.3699 9.7783 14.2444Z" fill="#282F48"/>
<path d="M21.2629 8.71186C19.2889 9.41268 17.3211 10.1074 15.3625 10.8113C15.2515 10.8557 15.1277 10.8557 15.0167 10.8113C13.0417 10.1053 11.0668 9.40248 9.0918 8.70267C9.11322 8.55272 9.23869 8.56496 9.31826 8.53741C11.183 7.81721 13.0499 7.10312 14.9187 6.39516C14.9955 6.36189 15.0783 6.34473 15.162 6.34473C15.2457 6.34473 15.3285 6.36189 15.4053 6.39516C17.3181 7.13577 19.2338 7.86414 21.1496 8.59556C21.1772 8.63535 21.2414 8.61086 21.2629 8.71186Z" fill="#FDFDFD"/>
<path d="M11.6367 11.9553C11.7092 11.485 11.8592 11.03 12.0805 10.6088C12.0938 10.5572 12.119 10.5094 12.1541 10.4693C12.1891 10.4291 12.233 10.3977 12.2824 10.3775C12.3317 10.3573 12.385 10.3489 12.4382 10.3529C12.4913 10.3569 12.5428 10.3733 12.5885 10.4007C13.3291 10.67 14.0881 10.8995 14.8379 11.1596C15.0529 11.2407 15.29 11.2407 15.505 11.1596C16.3405 10.8689 17.179 10.5904 18.039 10.3027C18.3761 10.7913 18.5864 11.3561 18.6511 11.9461C18.1277 12.1267 17.6258 12.2981 17.1209 12.4756C16.5148 12.693 15.9274 12.9591 15.3642 13.2713C15.2479 13.3325 15.1531 13.4029 14.997 13.3141C13.9347 12.7297 12.8067 12.2735 11.6367 11.9553Z" fill="#FDFDFD"/>
<path d="M9.77777 14.2441C9.64924 14.3696 9.74105 14.5685 9.53906 14.7154C9.60945 14.2931 9.66454 13.9289 9.73187 13.5647C9.93239 12.7547 9.93239 11.9081 9.73187 11.0981C9.62996 10.6576 9.61024 10.2022 9.67372 9.75458C9.67372 9.66889 9.64005 9.53117 9.79307 9.53423C9.94609 9.53729 9.90019 9.66889 9.891 9.75458C9.77165 10.8257 10.1389 11.8509 10.1695 12.9006C10.1848 13.4882 10.3348 14.0727 10.2123 14.6634C10.0685 14.3329 10.1848 13.9718 10.0471 13.6351C10.0471 13.8891 10.0471 14.1431 10.0471 14.3971C10.0471 14.4981 10.1267 14.6818 9.92773 14.6787C9.72881 14.6756 9.84204 14.492 9.80837 14.391C9.80531 14.3482 9.79307 14.3023 9.77777 14.2441Z" fill="#FDFDFD"/>
</svg>
