<svg width="24" height="24" viewBox="0 0 24 24" fill="none" xmlns="http://www.w3.org/2000/svg">
<rect width="24" height="24" rx="3" fill="#0A1D47"/>
<path d="M10.9076 13.1429C10.8957 13.1429 10.8841 13.1422 10.8725 13.1411C10.8697 13.1408 10.8668 13.1403 10.864 13.1399C10.8551 13.1388 10.8463 13.1375 10.8376 13.1358C10.8344 13.1352 10.8312 13.1344 10.828 13.1336C10.8196 13.1317 10.8114 13.1296 10.8034 13.1271C10.8001 13.1261 10.7969 13.1251 10.7937 13.124C10.7856 13.1212 10.7776 13.1182 10.7698 13.1149C10.768 13.1141 10.766 13.1135 10.7641 13.1127L8.83752 12.2556C8.72873 12.2072 8.66001 12.1082 8.66001 12C8.66001 11.8918 8.72873 11.7929 8.83752 11.7445L10.7641 10.8873C10.7658 10.8866 10.7675 10.8861 10.7692 10.8854C10.7783 10.8815 10.7876 10.878 10.7972 10.8749C10.7999 10.874 10.8027 10.8731 10.8054 10.8722C10.817 10.8688 10.8288 10.8657 10.8409 10.8635C10.8412 10.8634 10.8415 10.8633 10.8417 10.8633C10.8538 10.861 10.8663 10.8595 10.8789 10.8585C10.8826 10.8582 10.8862 10.8582 10.8899 10.858C10.8958 10.8577 10.9017 10.8572 10.9077 10.8572H18.293V8H17.9719H15.5637H15.2426H14.8572V5H7.0545C6.87716 5 6.7334 5.12791 6.7334 5.28571V18.7143C6.7334 18.8721 6.87716 19 7.0545 19H17.972C18.1493 19 18.2931 18.8721 18.2931 18.7143V13.1429H10.9077C10.9077 13.1429 10.9076 13.1429 10.9076 13.1429ZM8.33891 6.57143H10.2655V7.14286H8.33891V6.57143ZM8.33891 7.71429H12.5132V8.28571H8.33891V7.71429Z" fill="white"/>
<path d="M15.5645 5.16797V7.37205H18.0415L15.5645 5.16797Z" fill="white"/>
<path d="M18.7917 11.4297H17.876V12.577H18.7917C18.9067 12.577 18.9998 12.4941 18.9998 12.3918V11.6149C18.9998 11.5126 18.9067 11.4297 18.7917 11.4297Z" fill="white"/>
<path d="M10.9203 11.432C10.9129 11.4341 10.9057 11.4367 10.8987 11.4395C10.898 11.4398 10.8972 11.44 10.8965 11.4403L9.95488 11.8313C9.88112 11.8619 9.83398 11.9278 9.83398 12.0002C9.83398 12.0726 9.88112 12.1384 9.95488 12.1691L10.8965 12.56C10.8973 12.5603 10.8981 12.5606 10.899 12.5609C10.9039 12.5629 10.9089 12.5646 10.9139 12.5663C10.9158 12.5668 10.9177 12.5675 10.9196 12.5681C10.9242 12.5694 10.9289 12.5705 10.9336 12.5716V11.4287C10.9295 11.4296 10.9254 11.4305 10.9215 11.4316C10.9211 11.4317 10.9207 11.4319 10.9203 11.432Z" fill="white"/>
<path d="M17.2353 11.4287H11.5537V12.5716H17.2353V11.4287Z" fill="white"/>
</svg>
