<svg width="25" height="25" viewBox="0 0 25 25" fill="none" xmlns="http://www.w3.org/2000/svg">
<circle cx="12.5" cy="12.5" r="12.5" fill="#FFCA05"/>
<path d="M13 8C12.2654 8 11.5494 8.26415 10.9535 8.75503C10.3576 9.24591 9.91191 9.93864 9.67961 10.7351C9.44731 11.5315 9.44017 12.3913 9.6592 13.1927C9.87823 13.994 10.3123 14.6963 10.9 15.2V18.4C10.9 18.6101 10.9362 18.8182 11.0066 19.0123C11.0769 19.2064 11.18 19.3828 11.3101 19.5314C11.4401 19.6799 11.5944 19.7978 11.7642 19.8782C11.9341 19.9586 12.1161 20 12.3 20H13.7C13.8839 20 14.0659 19.9586 14.2358 19.8782C14.4056 19.7978 14.5599 19.6799 14.6899 19.5314C14.82 19.3828 14.9231 19.2064 14.9934 19.0123C15.0638 18.8182 15.1 18.6101 15.1 18.4V15.2C15.6877 14.6963 16.1218 13.994 16.3408 13.1927C16.5598 12.3913 16.5527 11.5315 16.3204 10.7351C16.0881 9.93864 15.6424 9.24591 15.0465 8.75503C14.4506 8.26415 13.7346 8 13 8ZM13 7.2C13.1857 7.2 13.3637 7.11571 13.495 6.96569C13.6262 6.81566 13.7 6.61217 13.7 6.4V4.8C13.7 4.58783 13.6262 4.38434 13.495 4.23431C13.3637 4.08429 13.1857 4 13 4C12.8143 4 12.6363 4.08429 12.505 4.23431C12.3737 4.38434 12.3 4.58783 12.3 4.8V6.4C12.3 6.61217 12.3737 6.81566 12.505 6.96569C12.6363 7.11571 12.8143 7.2 13 7.2ZM19.3 11.2H17.9C17.7143 11.2 17.5363 11.2843 17.405 11.4343C17.2737 11.5843 17.2 11.7878 17.2 12C17.2 12.2122 17.2737 12.4157 17.405 12.5657C17.5363 12.7157 17.7143 12.8 17.9 12.8H19.3C19.4857 12.8 19.6637 12.7157 19.795 12.5657C19.9262 12.4157 20 12.2122 20 12C20 11.7878 19.9262 11.5843 19.795 11.4343C19.6637 11.2843 19.4857 11.2 19.3 11.2ZM8.1 11.2H6.7C6.51435 11.2 6.3363 11.2843 6.20503 11.4343C6.07375 11.5843 6 11.7878 6 12C6 12.2122 6.07375 12.4157 6.20503 12.5657C6.3363 12.7157 6.51435 12.8 6.7 12.8H8.1C8.28565 12.8 8.4637 12.7157 8.59497 12.5657C8.72625 12.4157 8.8 12.2122 8.8 12C8.8 11.7878 8.72625 11.5843 8.59497 11.4343C8.4637 11.2843 8.28565 11.2 8.1 11.2ZM9.962 7.536L8.954 6.4C8.81755 6.25254 8.63542 6.17307 8.4477 6.17907C8.25998 6.18507 8.08203 6.27605 7.953 6.432C7.82397 6.58795 7.75443 6.79609 7.75969 7.01063C7.76494 7.22517 7.84455 7.42854 7.981 7.576L8.989 8.688C9.05664 8.76265 9.13675 8.82095 9.22455 8.85944C9.31235 8.89793 9.40603 8.9158 9.5 8.912C9.59429 8.91159 9.68754 8.88941 9.77415 8.84679C9.86076 8.80418 9.93894 8.742 10.004 8.664C10.129 8.50785 10.1947 8.30149 10.1868 8.09009C10.1789 7.87868 10.0981 7.67945 9.962 7.536ZM18.033 6.44C17.9018 6.291 17.7244 6.20737 17.5395 6.20737C17.3546 6.20737 17.1772 6.291 17.046 6.44L16.038 7.536C15.9076 7.68589 15.8344 7.88865 15.8344 8.1C15.8344 8.31135 15.9076 8.51411 16.038 8.664C16.1031 8.742 16.1812 8.80418 16.2679 8.84679C16.3545 8.88941 16.4477 8.91159 16.542 8.912C16.7222 8.91118 16.8952 8.83094 17.025 8.688L18.033 7.576C18.0986 7.50163 18.1507 7.41315 18.1862 7.31566C18.2218 7.21817 18.2401 7.11361 18.2401 7.008C18.2401 6.90239 18.2218 6.79783 18.1862 6.70034C18.1507 6.60285 18.0986 6.51437 18.033 6.44Z" fill="white"/>
</svg>
