<svg width="25" height="25" viewBox="0 0 25 25" fill="none" xmlns="http://www.w3.org/2000/svg">
<circle cx="12.5" cy="12.5" r="12.5" fill="#FFCA05"/>
<path d="M6.81193 6C6.42453 6 6 6.33839 6 6.75718V19.243C6 19.6599 6.41505 20 6.80173 20C7.18817 20 7.61367 19.6599 7.61367 19.2428V6.75728C7.61367 6.33851 7.19851 6.00011 6.81193 6.00011V6ZM15.1449 7.03916C12.8681 7.03916 12.8681 6.03255 10.5914 6.03255C9.2772 6.03255 8.26236 6.6939 8.26236 6.6939L8.25287 14.2296C8.25287 14.2296 9.2772 13.5692 10.5915 13.5692C12.8681 13.5692 12.8681 14.5758 15.1449 14.5758C16.5693 14.5758 18 13.7691 18 13.7691V6.23414C18 6.23414 16.5693 7.03915 15.1449 7.03915L15.1449 7.03916Z" fill="white"/>
</svg>
