<svg width="24" height="24" viewBox="0 0 24 24" fill="none" xmlns="http://www.w3.org/2000/svg">
<path d="M12 24C18.6274 24 24 18.6274 24 12C24 5.37258 18.6274 0 12 0C5.37258 0 0 5.37258 0 12C0 18.6274 5.37258 24 12 24Z" fill="url(#paint0_linear_36_2524)"/>
<path d="M12 22C6.48602 22 2 17.514 2 12C2 6.48605 6.48602 2 12 2C17.5142 2 22 6.48605 22 12C22 17.514 17.5142 22 12 22Z" fill="url(#paint1_linear_36_2524)"/>
<path opacity="0.3" d="M17.1397 9.20795C16.6646 9.20795 16.2794 9.5931 16.2794 10.0683C16.2794 10.301 16.3727 10.5113 16.5228 10.6662L14.7568 12.3784L12.9246 9.4727C13.2151 9.28955 13.4096 8.96803 13.4096 8.59913C13.4096 8.02773 12.9464 7.56445 12.375 7.56445C11.8036 7.56445 11.3404 8.02773 11.3404 8.59913C11.3404 8.96733 11.5341 9.28853 11.8238 9.47193L9.9924 12.3784L8.22702 10.6663C8.37725 10.5115 8.4706 10.3011 8.4706 10.0683C8.4706 9.5931 8.08542 9.20795 7.6103 9.20795C7.13517 9.20795 6.75 9.5931 6.75 10.0683C6.75 10.5434 7.13517 10.9285 7.6103 10.9285C7.66255 10.9285 7.71317 10.9221 7.7629 10.9131L8.57862 14.8758H16.1713L16.9871 10.9131C17.0368 10.9221 17.0874 10.9285 17.1397 10.9285C17.6148 10.9285 18 10.5434 18 10.0683C18 9.5931 17.6148 9.20795 17.1397 9.20795Z" fill="black"/>
<path opacity="0.3" d="M8.67527 15.3457L8.22852 17.1866H16.5211L16.0744 15.3457H8.67527Z" fill="black"/>
<path d="M16.7647 8.83295C16.2896 8.83295 15.9044 9.2181 15.9044 9.69326C15.9044 9.92598 15.9977 10.1363 16.1478 10.2912L14.3818 12.0034L12.5496 9.0977C12.8401 8.91455 13.0346 8.59303 13.0346 8.22413C13.0346 7.65273 12.5714 7.18945 12 7.18945C11.4286 7.18945 10.9654 7.65273 10.9654 8.22413C10.9654 8.59233 11.1591 8.91353 11.4488 9.09693L9.6174 12.0034L7.85202 10.2913C8.00225 10.1365 8.0956 9.92606 8.0956 9.69326C8.0956 9.2181 7.71042 8.83295 7.2353 8.83295C6.76017 8.83295 6.375 9.2181 6.375 9.69326C6.375 10.1684 6.76017 10.5535 7.2353 10.5535C7.28755 10.5535 7.33817 10.5471 7.3879 10.5381L8.20362 14.5008H15.7963L16.6121 10.5381C16.6618 10.5471 16.7124 10.5535 16.7647 10.5535C17.2398 10.5535 17.625 10.1684 17.625 9.69326C17.625 9.2181 17.2398 8.83295 16.7647 8.83295Z" fill="white"/>
<path d="M8.30027 14.9707L7.85352 16.8116H16.1461L15.6994 14.9707H8.30027Z" fill="white"/>
<defs>
<linearGradient id="paint0_linear_36_2524" x1="-1.26563e-07" y1="12" x2="24" y2="12" gradientUnits="userSpaceOnUse">
<stop stop-color="#FFCA05"/>
<stop offset="1" stop-color="#FAAC18"/>
</linearGradient>
<linearGradient id="paint1_linear_36_2524" x1="2" y1="12" x2="22" y2="12" gradientUnits="userSpaceOnUse">
<stop stop-color="#FAAC18"/>
<stop offset="1" stop-color="#FFCA05"/>
</linearGradient>
</defs>
</svg>
