<svg width="56" height="56" viewBox="0 0 56 56" fill="none" xmlns="http://www.w3.org/2000/svg">
<circle cx="27.6361" cy="27.6354" r="26" transform="rotate(86.2721 27.6361 27.6354)" fill="#FF5139" fill-opacity="0.22"/>
<g clip-path="url(#clip0_610_8)">
<path d="M23.1107 20.4768H32.987V17.5895C32.9894 17.5745 32.9894 17.559 32.987 17.544C32.9819 17.5294 32.9747 17.5161 32.9658 17.5047V17.5047C32.9569 17.4934 32.9464 17.4843 32.9349 17.4778C32.9225 17.4746 32.9098 17.4746 32.8975 17.4778H19.25C19.2382 17.4745 19.226 17.4745 19.2142 17.4778C19.2017 17.4852 19.1902 17.495 19.18 17.5067V17.5067C19.1727 17.5181 19.1667 17.5306 19.1621 17.544C19.1597 17.559 19.1597 17.5745 19.1621 17.5895V34.9337C19.1597 34.9487 19.1597 34.9642 19.1621 34.9792V34.9792C19.1675 34.9926 19.174 35.0051 19.1816 35.0165C19.1918 35.0278 19.2033 35.0369 19.2158 35.0434V35.0434C19.2266 35.0455 19.2376 35.0455 19.2484 35.0434H21.8623V22.0663C21.8626 21.8573 21.8954 21.6503 21.9588 21.4575C22.0222 21.2646 22.115 21.0896 22.2318 20.9425V20.9425C22.3466 20.7978 22.4826 20.6832 22.6322 20.6051C22.7829 20.526 22.9444 20.4853 23.1074 20.4851L23.1107 20.4768ZM31.6833 26.9839C31.761 26.8851 31.8532 26.8068 31.9547 26.7533C32.0562 26.6998 32.165 26.6723 32.2749 26.6723C32.3848 26.6723 32.4936 26.6998 32.5951 26.7533C32.6966 26.8068 32.7888 26.8851 32.8665 26.9839C32.9442 27.0827 33.0059 27.2 33.0479 27.3291C33.09 27.4582 33.1116 27.5966 33.1116 27.7363C33.1116 27.876 33.09 28.0144 33.0479 28.1434C33.0059 28.2725 32.9442 28.3898 32.8665 28.4886L31.1087 30.7239L32.8665 32.9571C33.0237 33.1566 33.112 33.4274 33.1122 33.7098C33.1123 33.9921 33.0243 34.263 32.8674 34.4628C32.7104 34.6626 32.4975 34.775 32.2755 34.7752C32.0534 34.7754 31.8404 34.6634 31.6833 34.4639L29.9255 32.2286L28.1693 34.4639C28.0121 34.6634 27.7991 34.7754 27.5771 34.7752C27.355 34.775 27.1421 34.6626 26.9852 34.4628C26.8283 34.263 26.7402 33.9921 26.7404 33.7098C26.7405 33.4274 26.8289 33.1566 26.986 32.9571L28.7422 30.7239L26.986 28.4886C26.9083 28.3898 26.8467 28.2725 26.8046 28.1434C26.7626 28.0144 26.7409 27.876 26.7409 27.7363C26.7409 27.5966 26.7626 27.4582 26.8046 27.3291C26.8467 27.2 26.9083 27.0827 26.986 26.9839C27.0637 26.8851 27.1559 26.8068 27.2574 26.7533C27.359 26.6998 27.4678 26.6723 27.5776 26.6723C27.6875 26.6723 27.7963 26.6998 27.8978 26.7533C27.9993 26.8068 28.0916 26.8851 28.1693 26.9839L29.9255 29.2192L31.6833 26.9839V26.9839ZM34.1377 20.4768H36.7419C36.9054 20.4772 37.0674 20.518 37.2188 20.5968C37.3706 20.6778 37.5087 20.7951 37.6257 20.9425V20.9425C37.8567 21.2395 37.9865 21.6402 37.987 22.058V39.4022C37.9865 39.7165 37.9128 40.0236 37.7752 40.2848C37.6376 40.5459 37.4423 40.7494 37.2139 40.8696C37.0628 40.9501 36.9007 40.9916 36.737 40.9917H23.1107C22.9474 40.9918 22.7858 40.9503 22.6354 40.8696C22.3284 40.7083 22.0843 40.3987 21.9567 40.0086C21.8938 39.8172 21.8617 39.6117 21.8623 39.4043V36.5067H19.2581C19.0944 36.5066 18.9323 36.465 18.7813 36.3846C18.553 36.2677 18.357 36.0677 18.218 35.8095C18.0789 35.5513 18.0031 35.2466 18 34.9337V17.5895C18.0003 17.3815 18.0324 17.1756 18.0944 16.9831C18.1581 16.7901 18.2504 16.6144 18.3662 16.4657C18.4832 16.319 18.6214 16.2023 18.7731 16.1221C18.9241 16.0416 19.0862 16.0001 19.25 16H32.8877C33.0513 16 33.2133 16.0408 33.3646 16.12C33.5161 16.2018 33.6541 16.319 33.7715 16.4657C34.0058 16.7639 34.1375 17.168 34.1377 17.5895V20.4871V20.4768ZM36.7419 21.9401H23.1107C23.0988 21.9403 23.0872 21.9438 23.0765 21.9504C23.0636 21.9569 23.052 21.9668 23.0423 21.9794V21.9794C23.0338 21.9919 23.0267 22.0058 23.0212 22.0208C23.0186 22.0358 23.0186 22.0513 23.0212 22.0663V39.4105C23.0187 39.4255 23.0187 39.441 23.0212 39.456C23.0267 39.4715 23.0344 39.4855 23.0439 39.4974V39.4974C23.0527 39.5075 23.0625 39.5159 23.0732 39.5222C23.0851 39.5242 23.0972 39.5242 23.109 39.5222H36.7484C36.7602 39.5244 36.7723 39.5244 36.7842 39.5222V39.5222C36.7949 39.5152 36.8048 39.5061 36.8135 39.4953C36.822 39.4836 36.8291 39.4703 36.8346 39.456V39.456C36.8363 39.4423 36.8363 39.4283 36.8346 39.4146V22.0663C36.8371 22.0513 36.8371 22.0358 36.8346 22.0208C36.8296 22.0078 36.823 21.9959 36.8151 21.9856C36.8049 21.9738 36.7934 21.9641 36.7809 21.9566C36.7697 21.95 36.7575 21.9465 36.7451 21.9463L36.7419 21.9401Z" fill="#FF5139"/>
</g>
<defs>
<clipPath id="clip0_610_8">
<rect width="20" height="25" fill="white" transform="translate(18 16)"/>
</clipPath>
</defs>
</svg>
