<svg width="15" height="17" viewBox="0 0 15 17" fill="none" xmlns="http://www.w3.org/2000/svg">
<path d="M5.17172 16.7864L3.75297 14.5796L1.66992 16.2387L3.81306 3.79102L7.31485 4.33872L5.17172 16.7864Z" fill="#B75742"/>
<path d="M11.6423 16.2316L9.55595 14.5789L8.14388 16.7889L5.9707 4.34437L9.46916 3.78711L11.6423 16.2316Z" fill="#B75742"/>
<path d="M14.5279 6.65662C14.5279 7.37628 13.8636 7.9845 13.6433 8.63411C13.413 9.30601 13.5699 10.1722 13.1426 10.7326C12.7119 11.2994 11.7973 11.4236 11.2064 11.8344C10.6189 12.242 10.215 13.0349 9.51059 13.2514C8.8296 13.4616 8.01841 13.0572 7.26397 13.0572C6.50953 13.0572 5.69835 13.4648 5.01735 13.2514C4.31298 13.0317 3.90572 12.242 3.32153 11.8344C2.72733 11.4236 1.81599 11.2962 1.38536 10.7326C0.95807 10.1722 1.11163 9.30919 0.884629 8.63411C0.664306 7.9845 0 7.37628 0 6.65662C0 5.93695 0.664306 5.32873 0.884629 4.67912C1.11497 4.00722 0.95807 3.14108 1.38536 2.58063C1.81599 2.01381 2.73067 1.88962 3.32153 1.47884C3.90906 1.07124 4.31298 0.27833 5.01735 0.0617933C5.69835 -0.148375 6.50953 0.256043 7.26397 0.256043C8.01841 0.256043 8.8296 -0.151559 9.51059 0.0617933C10.215 0.281515 10.6222 1.07124 11.2064 1.47884C11.8006 1.88962 12.7119 2.017 13.1426 2.58063C13.5699 3.14108 13.4163 4.00404 13.6433 4.67912C13.8636 5.32555 14.5279 5.93695 14.5279 6.65662Z" fill="#B36A0C"/>
<path d="M9.07067 12.8097C8.84367 12.8097 8.57661 12.7524 8.2962 12.6951C7.96238 12.625 7.62188 12.555 7.26135 12.555C6.90083 12.555 6.55699 12.6282 6.22651 12.6951C5.94609 12.7556 5.67904 12.8097 5.45204 12.8097C5.34856 12.8097 5.25842 12.797 5.1783 12.7747C4.88788 12.6855 4.6275 12.4021 4.35043 12.1028C4.13344 11.8672 3.90644 11.622 3.62937 11.4277C3.34896 11.2335 3.03183 11.0997 2.72471 10.9755C2.34415 10.8163 1.98363 10.6698 1.8067 10.4374C1.63311 10.2113 1.59639 9.83872 1.55633 9.44705C1.52295 9.12861 1.48957 8.80062 1.38275 8.48218C1.27926 8.17648 1.10567 7.89944 0.938762 7.63196C0.725116 7.28805 0.521484 6.96006 0.521484 6.66073C0.521484 6.3614 0.725116 6.03341 0.938762 5.6895C1.10567 5.42201 1.27592 5.14497 1.38275 4.83927C1.49291 4.52083 1.52629 4.19284 1.55633 3.87441C1.59639 3.48273 1.63645 3.11016 1.8067 2.88407C1.98363 2.65161 2.34415 2.50513 2.72471 2.34591C3.03183 2.21854 3.34896 2.08798 3.62937 1.89373C3.90644 1.69948 4.13344 1.45747 4.35043 1.21865C4.6275 0.919316 4.88788 0.635908 5.1783 0.546746C5.25508 0.521271 5.34522 0.511719 5.45204 0.511719C5.67904 0.511719 5.94609 0.565852 6.22651 0.626355C6.56033 0.696411 6.90083 0.766468 7.26135 0.766468C7.62188 0.766468 7.96572 0.693227 8.2962 0.626355C8.57661 0.565852 8.84367 0.511719 9.07067 0.511719C9.17416 0.511719 9.26429 0.524455 9.34441 0.546746C9.63483 0.635908 9.89521 0.919316 10.1723 1.21865C10.3893 1.45429 10.6163 1.69948 10.8933 1.89373C11.1738 2.08798 11.4909 2.22172 11.798 2.34591C12.1786 2.50513 12.5391 2.65161 12.716 2.88407C12.8896 3.11016 12.9263 3.48273 12.9664 3.87441C12.9998 4.19284 13.0331 4.52083 13.14 4.83927C13.2434 5.14497 13.417 5.42201 13.5839 5.6895C13.7976 6.03341 14.0012 6.3614 14.0012 6.66073C14.0012 6.96324 13.7976 7.28805 13.5839 7.63196C13.417 7.89944 13.2468 8.17648 13.14 8.48218C13.0331 8.80062 12.9964 9.12861 12.9664 9.44705C12.9263 9.83872 12.8863 10.2113 12.716 10.4374C12.5391 10.6698 12.1786 10.8163 11.798 10.9755C11.4909 11.1029 11.1738 11.2335 10.8933 11.4277C10.6163 11.622 10.3893 11.864 10.1723 12.1028C9.89521 12.4021 9.63483 12.6855 9.34441 12.7747C9.26429 12.797 9.1775 12.8097 9.07067 12.8097Z" fill="#FFD7A6"/>
<path d="M12.5076 7.35407C12.9126 4.59159 10.8932 2.03899 7.99726 1.65268C5.1013 1.26636 2.42536 3.19263 2.02039 5.95511C1.61541 8.7176 3.63475 11.2702 6.53071 11.6565C9.42666 12.0428 12.1026 10.1166 12.5076 7.35407Z" fill="#B36A0C"/>
<path d="M7.26117 11.4551C10.0395 11.4551 12.2919 9.30659 12.2919 6.65626C12.2919 4.00594 10.0395 1.85742 7.26117 1.85742C4.48279 1.85742 2.23047 4.00594 2.23047 6.65626C2.23047 9.30659 4.48279 11.4551 7.26117 11.4551Z" fill="white"/>
<path d="M11.7976 7.08443C12.0455 4.69385 10.2149 2.56421 7.7088 2.32775C5.20272 2.09128 2.97018 3.83753 2.72229 6.22811C2.47439 8.61869 4.30502 10.7483 6.81111 10.9848C9.31719 11.2213 11.5497 9.47501 11.7976 7.08443Z" fill="#FFD7A6"/>
<path d="M6.887 6.62L6.773 7.16H7.187V7.4H6.722L6.593 8H6.332L6.461 7.4H5.831L5.702 8H5.441L5.57 7.4H5.099V7.16H5.621L5.735 6.62H5.27V6.38H5.786L5.915 5.78H6.176L6.047 6.38H6.677L6.806 5.78H7.067L6.938 6.38H7.355V6.62H6.887ZM6.626 6.62H5.996L5.882 7.16H6.512L6.626 6.62ZM8.49934 6.377C8.51334 6.193 8.58434 6.049 8.71234 5.945C8.84034 5.841 9.00634 5.789 9.21034 5.789C9.34634 5.789 9.46334 5.814 9.56134 5.864C9.66134 5.912 9.73634 5.978 9.78634 6.062C9.83834 6.146 9.86434 6.241 9.86434 6.347C9.86434 6.471 9.82834 6.578 9.75634 6.668C9.68634 6.758 9.59434 6.816 9.48034 6.842V6.857C9.61034 6.889 9.71334 6.952 9.78934 7.046C9.86534 7.14 9.90334 7.263 9.90334 7.415C9.90334 7.529 9.87734 7.632 9.82534 7.724C9.77334 7.814 9.69534 7.885 9.59134 7.937C9.48734 7.989 9.36234 8.015 9.21634 8.015C9.00434 8.015 8.83034 7.96 8.69434 7.85C8.55834 7.738 8.48234 7.58 8.46634 7.376H8.73034C8.74434 7.496 8.79334 7.594 8.87734 7.67C8.96134 7.746 9.07334 7.784 9.21334 7.784C9.35334 7.784 9.45934 7.748 9.53134 7.676C9.60534 7.602 9.64234 7.507 9.64234 7.391C9.64234 7.241 9.59234 7.133 9.49234 7.067C9.39234 7.001 9.24134 6.968 9.03934 6.968H8.97034V6.74H9.04234C9.22634 6.738 9.36534 6.708 9.45934 6.65C9.55334 6.59 9.60034 6.498 9.60034 6.374C9.60034 6.268 9.56534 6.183 9.49534 6.119C9.42734 6.055 9.32934 6.023 9.20134 6.023C9.07734 6.023 8.97734 6.055 8.90134 6.119C8.82534 6.183 8.78034 6.269 8.76634 6.377H8.49934Z" fill="#B36A0C"/>
</svg>
