<svg width="238" height="170" viewBox="0 0 238 170" fill="none" xmlns="http://www.w3.org/2000/svg">
<path d="M222.133 159.191C222.133 159.239 175.961 159.28 119.019 159.28C62.0768 159.28 15.8857 159.239 15.8857 159.191C15.8857 159.144 62.0482 159.1 119.019 159.1C175.99 159.1 222.133 159.14 222.133 159.191Z" fill="#37474F"/>
<path d="M36.7439 46.8384L36.7439 155.264C36.7439 157.433 38.3849 159.191 40.4091 159.191H188.829C190.853 159.191 192.494 157.433 192.494 155.264L192.494 46.8384C192.494 44.6696 190.853 42.9114 188.829 42.9114H40.4091C38.3849 42.9114 36.7439 44.6696 36.7439 46.8384Z" fill="#1E2959"/>
<path d="M47.3999 46.5768L47.3999 155.526H177.468V46.5768L47.3999 46.5768Z" fill="#EBEBEB"/>
<path d="M184.666 96.5874C185.49 96.5867 186.296 96.8481 186.982 97.3383C187.667 97.8286 188.202 98.5258 188.518 99.3417C188.833 100.158 188.916 101.055 188.755 101.922C188.595 102.788 188.198 103.584 187.615 104.208C187.032 104.833 186.289 105.258 185.481 105.43C184.672 105.602 183.834 105.514 183.073 105.175C182.311 104.837 181.661 104.264 181.203 103.53C180.745 102.795 180.502 101.931 180.502 101.048C180.503 99.8654 180.942 98.7313 181.723 97.8949C182.503 97.0586 183.562 96.5883 184.666 96.5874Z" fill="#1E2959"/>
<path d="M41.228 83.9529V118.147C41.228 118.376 41.4014 118.562 41.6152 118.562H42.5608C42.7746 118.562 42.948 118.376 42.948 118.147V83.9529C42.948 83.7238 42.7746 83.5381 42.5608 83.5381H41.6152C41.4014 83.5381 41.228 83.7238 41.228 83.9529Z" fill="#1E2959"/>
<path d="M92.9218 68.2446C92.4267 72.0424 92.8043 75.2282 90.7004 78.2202C89.8722 79.3932 88.7298 80.3962 88.3553 81.814C88.0919 82.8034 88.2443 83.8778 87.9967 84.874C87.4097 87.2268 84.9408 88.274 83.1479 89.7904C80.8758 91.6978 79.5208 94.6422 78.8797 97.6614C78.2387 100.681 78.2451 103.805 78.2641 106.899C78.2641 108.218 78.372 109.745 79.3748 110.51C80.0666 111.037 80.9773 111.027 81.8246 110.996L98.1229 110.418C98.6115 110.401 99.1478 110.36 99.4906 109.993C99.747 109.651 99.8959 109.231 99.9158 108.793C101.329 99.0464 102.739 89.2997 104.146 79.553L92.9218 68.2446Z" fill="#37474F"/>
<path d="M137.425 78.3767C135.305 69.0301 139.198 70.2167 138.059 60.6763C137.774 58.2963 136.031 47.2803 135.203 45.0363C133.03 39.2189 124.001 27.5297 113.117 35.6795C112.565 37.2299 113.859 42.5101 114.989 43.6457C116.119 44.7813 121.222 41.0617 122.174 42.3673C122.922 43.3873 123.345 44.6385 123.979 45.7469C124.563 46.7669 125.325 47.6645 125.829 48.7287C126.413 49.9663 126.619 51.3671 126.781 52.7441C127.298 57.1403 127.451 61.6521 126.486 65.9599C125.382 70.8933 122.862 75.3405 121.536 80.2093C120.285 84.8198 120.128 89.692 121.079 94.3839C121.223 95.3408 121.555 96.254 122.053 97.0631C123.221 98.7631 125.521 99.1643 127.406 98.5659C129.291 97.9675 130.859 96.5599 132.328 95.1999C133.62 93.9827 134.908 92.7179 135.784 91.1369C136.736 89.4097 137.155 87.3969 137.555 85.4487C137.809 84.3804 137.957 83.2864 137.996 82.1847C137.949 80.8954 137.757 79.6168 137.425 78.3767Z" fill="#37474F"/>
<path d="M122.808 86.2376C122.84 82.6472 122.808 81.8176 122.808 81.8482C122.808 81.8788 129.878 80.5732 131.322 70.686C132.039 65.7662 131.795 57.7082 131.392 51.119C131.03 45.1894 127.349 37.9236 121.837 38.5628L104.625 43.265C103.817 43.3593 103.071 43.7747 102.535 44.4293C101.998 45.0839 101.71 45.9302 101.728 46.801L103.657 86.4382C103.775 86.7853 103.954 87.105 104.184 87.3801C108.147 92.9663 114.831 95.9855 120.184 91.9429C121.658 90.4311 122.587 88.4109 122.808 86.2376Z" fill="#FFBE9D"/>
<path d="M127.851 57.8341C127.854 58.1647 127.737 58.4837 127.524 58.7232C127.311 58.9626 127.02 59.1035 126.711 59.1159C126.561 59.1293 126.409 59.1103 126.266 59.06C126.123 59.0096 125.99 58.929 125.876 58.8228C125.762 58.7166 125.669 58.5871 125.603 58.4418C125.537 58.2965 125.498 58.1384 125.49 57.9769C125.485 57.6466 125.602 57.3276 125.814 57.0881C126.026 56.8485 126.318 56.7075 126.626 56.6951C126.776 56.6817 126.928 56.7007 127.072 56.751C127.215 56.8013 127.348 56.8819 127.462 56.988C127.576 57.0942 127.669 57.2237 127.736 57.369C127.803 57.5143 127.842 57.6724 127.851 57.8341Z" fill="#37474F"/>
<path d="M115.782 58.1163C115.786 58.4469 115.669 58.7659 115.456 59.0053C115.243 59.2448 114.952 59.3857 114.643 59.3981C114.493 59.4106 114.341 59.3908 114.198 59.3399C114.055 59.2889 113.922 59.2079 113.809 59.1016C113.695 58.9952 113.602 58.8656 113.536 58.7204C113.469 58.5751 113.43 58.4172 113.421 58.2557C113.419 57.9253 113.536 57.6068 113.749 57.3676C113.961 57.1283 114.253 56.9871 114.561 56.9739C114.711 56.9605 114.863 56.9796 115.007 57.0301C115.15 57.0807 115.283 57.1616 115.397 57.2682C115.511 57.3747 115.604 57.5047 115.67 57.6504C115.736 57.796 115.774 57.9545 115.782 58.1163Z" fill="#37474F"/>
<path d="M116.928 56.2767C116.732 56.3379 115.891 55.5559 114.488 55.1241C113.085 54.6923 111.908 54.8283 111.791 54.6719C111.734 54.5971 111.959 54.4509 112.476 54.3761C113.217 54.2955 113.966 54.373 114.678 54.6039C115.375 54.8071 116.024 55.1664 116.582 55.6579C116.938 56.0081 117.023 56.2529 116.928 56.2767Z" fill="#37474F"/>
<path d="M129.691 54.5733C129.561 54.7433 128.453 54.6073 127.07 55.1037C125.686 55.6001 124.788 56.4229 124.607 56.3617C124.518 56.3379 124.626 56.0795 125.017 55.7055C125.584 55.1894 126.241 54.7989 126.949 54.5563C127.63 54.302 128.354 54.2069 129.072 54.2775C129.558 54.3455 129.754 54.4951 129.691 54.5733Z" fill="#37474F"/>
<path d="M121.901 65.7084C121.901 65.6302 122.685 65.4806 123.967 65.3038C124.284 65.2664 124.601 65.195 124.655 64.9638C124.709 64.7326 124.592 64.3382 124.436 63.9438L123.468 61.2918C122.126 57.5178 121.152 54.417 121.295 54.3592C121.437 54.3014 122.64 57.3138 123.982 61.0878C124.3 62.0194 124.617 62.9068 124.909 63.7534C125.033 64.1512 125.245 64.6 125.08 65.1134C125.034 65.237 124.962 65.3475 124.87 65.4365C124.777 65.5255 124.667 65.5906 124.547 65.6268C124.367 65.6792 124.182 65.7066 123.995 65.7084C122.707 65.7764 121.904 65.7832 121.901 65.7084Z" fill="#37474F"/>
<path d="M122.808 81.8482C118.46 81.9313 114.175 80.7189 110.432 78.3462C110.432 78.3462 113.555 85.1802 122.786 84.235L122.808 81.8482Z" fill="#EB996E"/>
<path d="M117.274 52.36C117.15 52.7306 115.878 52.5572 114.383 52.7544C112.889 52.9516 111.683 53.3902 111.486 53.057C111.397 52.9006 111.607 52.5504 112.092 52.19C112.737 51.7382 113.474 51.4584 114.24 51.374C115.005 51.2747 115.78 51.3703 116.503 51.6528C117.052 51.8908 117.328 52.1798 117.274 52.36Z" fill="#37474F"/>
<path d="M130.459 52.2104C130.189 52.5198 129.123 52.2104 127.844 52.19C126.565 52.1696 125.483 52.4042 125.233 52.0812C125.125 51.9214 125.293 51.612 125.766 51.3162C126.42 50.9489 127.154 50.773 127.892 50.8062C128.626 50.8077 129.346 51.0203 129.977 51.4216C130.424 51.7412 130.58 52.0574 130.459 52.2104Z" fill="#37474F"/>
<path d="M117.245 38.3484C117.142 38.1454 117 37.9672 116.83 37.8248C114.097 35.2544 110.023 34.6186 106.573 35.8494C103.124 37.0802 100.715 41.7552 99.0844 45.2368C97.7643 48.052 96.3268 52.149 96.2633 55.3076C95.8317 58.1568 95.7429 58.2894 94.8956 61.0264C93.9214 64.1782 92.5219 67.3402 92.8107 70.645C92.9979 72.8312 93.9245 74.9562 93.6707 77.1322C93.4168 79.3082 91.9793 81.2122 91.5414 83.4018C91.2558 84.8094 91.3986 86.2782 91.5192 87.696C91.6621 89.5511 91.9336 91.3921 92.3315 93.204C92.3742 93.4728 92.4838 93.7241 92.6489 93.9316C92.861 94.1302 93.1146 94.2713 93.3883 94.343C97.8119 95.9104 102.442 97.4982 107.034 96.7468C107.365 96.7233 107.682 96.5969 107.948 96.383C107.986 96.3432 108.017 96.2959 108.04 96.2436C109.328 93.221 104.482 89.2974 104.339 85.9416C104.203 82.6436 103.943 78.9988 105.999 76.5406C107.763 74.436 108.176 72.0118 106.316 66.3644C105.928 65.2041 105.71 63.9858 105.672 62.7536C105.672 62.5972 105.672 62.4408 105.672 62.2844C105.799 58.5444 108.972 55.9298 111.349 53.1928C114.654 49.3621 116.74 44.508 117.309 39.3276C117.371 39.0011 117.349 38.6626 117.245 38.3484Z" fill="#37474F"/>
<path d="M117.068 39.0014C117.909 40.8102 119.889 41.5616 121.64 42.3062C123.537 43.1097 125.366 44.0845 127.108 45.22C127.886 45.6863 128.592 46.278 129.202 46.9744C130.062 48.0284 130.497 49.3986 130.884 50.7382C131.39 52.4903 131.849 54.2549 132.262 56.032C133.474 52.5946 133.813 48.7424 132.845 45.2166C131.878 41.6908 129.513 38.5492 126.343 37.145C123.173 35.7408 119.238 36.2712 116.719 38.7634" fill="#37474F"/>
<path d="M93.5279 70.3797C93.4539 69.8281 93.421 69.271 93.4296 68.7138C93.4505 66.8165 93.8367 64.9443 94.564 63.2144C95.2914 61.4844 96.3441 59.9339 97.6564 58.66C99.4208 56.926 101.763 55.6204 104.105 54.1312C106.335 52.7686 108.334 51.0108 110.017 48.9326C110.74 48.018 111.404 47.0513 112.003 46.0392C112.518 45.1526 112.979 44.2316 113.383 43.2818C113.976 41.9076 114.439 40.4736 114.767 39.0012C114.897 38.481 114.957 38.0696 115.015 37.7942L115.075 37.478C115.08 37.4417 115.09 37.4063 115.103 37.3726C115.106 37.4088 115.106 37.4452 115.103 37.4814C115.103 37.563 115.078 37.6684 115.059 37.801C115.015 38.0764 114.964 38.481 114.843 39.0148C114.536 40.4995 114.088 41.9465 113.504 43.3328C113.103 44.2911 112.645 45.2212 112.133 46.1174C111.534 47.1394 110.869 48.1153 110.143 49.038C109.336 50.052 108.449 50.9894 107.491 51.8396C106.458 52.7475 105.358 53.565 104.203 54.2842C101.852 55.7768 99.5224 57.0722 97.7707 58.779C96.2071 60.2719 95.0105 62.1542 94.2864 64.2598C93.8022 65.6779 93.5343 67.1703 93.493 68.6797C93.493 69.2169 93.493 69.6317 93.5121 69.9139L93.5279 70.2336C93.5351 70.282 93.5351 70.3313 93.5279 70.3797Z" fill="#1E2959"/>
<path d="M93.6992 75.8946C93.6885 75.8559 93.6821 75.816 93.6802 75.7756C93.6802 75.6906 93.6548 75.575 93.6357 75.4356C93.5945 75.1296 93.5532 74.674 93.5183 74.0756C93.4157 72.4111 93.5364 70.7394 93.8769 69.1116C94.1207 67.9882 94.505 66.9051 95.0193 65.8918C95.6208 64.732 96.3984 63.6875 97.32 62.8012C98.3311 61.8248 99.4053 60.9261 100.535 60.1118C101.69 59.2448 102.911 58.3812 104.073 57.3748C106.25 55.464 108.171 53.2424 109.785 50.772C111.107 48.7609 112.306 46.6598 113.374 44.482C114.297 42.629 114.992 41.082 115.471 40.0416C115.709 39.5214 115.893 39.1134 116.024 38.8244L116.17 38.5082C116.185 38.4711 116.204 38.4358 116.227 38.4028C116.217 38.4417 116.203 38.4793 116.185 38.515L116.055 38.838L115.51 40.0756C115.049 41.1398 114.37 42.68 113.46 44.5432C112.403 46.7353 111.21 48.8492 109.89 50.8706C108.28 53.3572 106.358 55.594 104.178 57.5176C103.01 58.5376 101.785 59.3944 100.63 60.258C99.5056 61.0667 98.4347 61.9574 97.4247 62.9236C96.512 63.802 95.7411 64.8359 95.1431 65.9836C94.6273 66.9826 94.2408 68.052 93.9943 69.1626C93.6447 70.7776 93.507 72.4369 93.585 74.0926C93.6103 74.6774 93.6421 75.133 93.6706 75.4526C93.6706 75.5988 93.6929 75.7144 93.6992 75.7926C93.7028 75.8265 93.7028 75.8607 93.6992 75.8946Z" fill="#1E2959"/>
<path d="M133.328 57.0895C133.328 57.0895 133.328 57.0623 133.36 57.0113C133.391 56.9603 133.42 56.8787 133.461 56.7869C133.502 56.6951 133.566 56.5727 133.623 56.4231C133.68 56.2735 133.734 56.1001 133.801 55.9063C134.119 54.7848 134.167 53.5952 133.94 52.4485C133.609 50.7457 132.867 49.1656 131.789 47.8653C130.583 46.3931 128.869 45.1929 126.978 44.1933C125.087 43.1937 123.186 42.4355 121.51 41.6195C120.013 40.923 118.588 40.0579 117.261 39.0389C116.371 38.3414 115.577 37.5127 114.903 36.5773C114.792 36.4073 114.691 36.2577 114.602 36.1251C114.513 35.9925 114.459 35.8735 114.405 35.7851L114.285 35.5709C114.27 35.5479 114.258 35.5227 114.25 35.4961C114.25 35.4961 114.269 35.5165 114.301 35.5607C114.332 35.6049 114.38 35.6831 114.431 35.7681C114.481 35.8531 114.554 35.9721 114.643 36.1081L114.961 36.5467C115.648 37.4595 116.447 38.2681 117.337 38.9505C118.664 39.9488 120.084 40.7965 121.574 41.4801C123.246 42.2859 125.144 43.0407 127.051 44.0437C128.958 45.0467 130.684 46.2673 131.903 47.7837C132.992 49.1093 133.736 50.7197 134.058 52.4519C134.276 53.6189 134.208 54.8267 133.861 55.9573L133.667 56.4707C133.607 56.6203 133.537 56.7325 133.49 56.8311L133.372 57.0487C133.347 57.0691 133.331 57.0929 133.328 57.0895Z" fill="#1E2959"/>
<path d="M121.129 68.3703L119.197 67.6903C119.075 67.6318 118.939 67.6175 118.81 67.6495C118.681 67.7211 118.582 67.8427 118.534 67.9895C118.283 68.4795 118.114 69.012 118.032 69.5637C117.994 69.8363 118.011 70.1146 118.083 70.3793C118.155 70.644 118.279 70.8889 118.448 71.0971C118.636 71.3083 118.879 71.4551 119.144 71.5192C119.41 71.5833 119.688 71.5619 119.943 71.4575C120.171 71.326 120.37 71.1424 120.525 70.9198C120.68 70.6972 120.788 70.4409 120.841 70.1689C120.965 69.645 121.127 69.1323 121.326 68.6355L121.129 68.3703Z" fill="#EB996E"/>
<path d="M119.984 71.4542C119.984 71.4712 119.911 71.5664 119.705 71.648C119.407 71.7505 119.085 71.7433 118.791 71.6276C118.575 71.5369 118.38 71.3994 118.216 71.2239C118.052 71.0484 117.924 70.8386 117.839 70.6076C117.629 70.0393 117.619 69.4086 117.81 68.8328C117.901 68.54 118.027 68.2611 118.185 68.0032C118.333 67.7256 118.579 67.5226 118.867 67.4388C119.125 67.4057 119.387 67.4542 119.619 67.5782L120.171 67.8366C120.841 68.1766 121.247 68.384 121.231 68.4282C121.215 68.4724 120.777 68.333 120.086 68.0712L119.521 67.8502C119.336 67.7625 119.131 67.7308 118.931 67.7584C118.726 67.834 118.556 67.9895 118.455 68.1936C118.322 68.4288 118.215 68.6799 118.137 68.9416C117.97 69.4406 117.97 69.9862 118.137 70.4852C118.273 70.8876 118.551 71.2163 118.912 71.3998C119.16 71.5188 119.436 71.5589 119.705 71.5154C119.867 71.4814 119.971 71.427 119.984 71.4542Z" fill="#37474F"/>
<path d="M123.608 56.1442C123.428 56.0862 123.253 56.0134 123.084 55.9266C122.67 55.7624 122.226 55.702 121.786 55.7498C121.349 55.8106 120.935 55.9988 120.59 56.2938C120.327 56.525 120.197 56.712 120.171 56.6916C120.247 56.5011 120.364 56.3331 120.514 56.202C120.863 55.8526 121.308 55.6333 121.783 55.5764C122.248 55.5212 122.719 55.6023 123.145 55.811C123.319 55.8861 123.477 55.9996 123.608 56.1442Z" fill="#1E2959"/>
<path d="M120.269 57.9054C120.264 57.8716 120.264 57.8371 120.269 57.8034L120.244 57.5042C120.24 57.3409 120.223 57.1782 120.193 57.018C120.163 56.7989 120.121 56.5821 120.066 56.3686C119.729 54.994 118.97 53.7809 117.912 52.9244C117.134 52.2916 116.221 51.8786 115.255 51.7235C114.29 51.5684 113.303 51.6762 112.387 52.037C111.857 52.2366 111.359 52.5233 110.911 52.887C110.679 53.0716 110.458 53.2727 110.251 53.4888C110.046 53.7167 109.856 53.9586 109.68 54.213C108.944 55.282 108.547 56.5754 108.547 57.9037C108.547 59.2319 108.944 60.5253 109.68 61.5944C109.854 61.8501 110.045 62.0921 110.251 62.3186C110.458 62.5358 110.679 62.738 110.911 62.9238C111.36 63.2862 111.857 63.5729 112.387 63.7738C113.664 64.2695 115.061 64.275 116.341 63.7895C117.622 63.304 118.705 62.3575 119.406 61.1116C119.702 60.5931 119.924 60.0305 120.066 59.4422C120.121 59.2286 120.163 59.0117 120.193 58.7928C120.223 58.6325 120.24 58.4699 120.244 58.3066L120.269 58.0074C120.264 57.9736 120.264 57.9391 120.269 57.9054C120.273 57.9393 120.273 57.9735 120.269 58.0074C120.269 58.0856 120.269 58.1842 120.269 58.31C120.27 58.4741 120.258 58.6379 120.231 58.7996C120.209 59.0222 120.171 59.2427 120.117 59.4592C119.988 60.0575 119.774 60.6309 119.482 61.1592C119.098 61.8661 118.588 62.4853 117.981 62.9816C117.245 63.5911 116.385 64.0059 115.471 64.192C114.422 64.4026 113.34 64.3087 112.336 63.92C111.792 63.7155 111.281 63.4232 110.819 63.053C110.581 62.8618 110.354 62.6551 110.14 62.4342C109.928 62.2009 109.732 61.9521 109.553 61.6896C108.795 60.592 108.385 59.2625 108.385 57.8969C108.385 56.5313 108.795 55.2018 109.553 54.1042C109.904 53.58 110.333 53.1207 110.822 52.7442C111.283 52.3767 111.794 52.0866 112.336 51.884C113.342 51.4934 114.427 51.4006 115.478 51.6154C116.309 51.786 117.097 52.1449 117.789 52.6679C118.48 53.1909 119.06 53.866 119.489 54.6482C119.781 55.1762 119.995 55.7497 120.123 56.3482C120.177 56.5645 120.216 56.7851 120.238 57.0078C120.264 57.1694 120.277 57.3333 120.276 57.4974C120.276 57.6232 120.276 57.7218 120.276 57.8C120.277 57.8353 120.275 57.8706 120.269 57.9054Z" fill="#1E2959"/>
<path d="M112.139 62.74C112.043 62.733 111.95 62.7064 111.863 62.6618C111.622 62.5724 111.389 62.4585 111.168 62.3218C110.427 61.8498 109.819 61.1709 109.41 60.3577C109.001 59.5445 108.806 58.6275 108.845 57.7046C108.856 57.4288 108.89 57.1545 108.947 56.8852C108.962 56.7844 108.992 56.6868 109.036 56.5962C109.067 56.5962 108.963 57.0212 108.963 57.708C108.957 58.6012 109.163 59.4813 109.56 60.2666C109.957 61.0518 110.533 61.7167 111.235 62.1994C111.765 62.5598 112.149 62.7128 112.139 62.74Z" fill="white"/>
<path d="M113.472 63.24C113.472 63.2876 113.38 63.3148 113.279 63.3012C113.177 63.2876 113.101 63.24 113.107 63.189C113.114 63.138 113.199 63.1142 113.298 63.1278C113.396 63.1414 113.475 63.2026 113.472 63.24Z" fill="white"/>
<path d="M135.184 57.9054C135.179 57.8716 135.179 57.8372 135.184 57.8034C135.184 57.7252 135.184 57.6266 135.162 57.5042C135.158 57.3407 135.14 57.1779 135.108 57.018C135.081 56.7987 135.039 56.5817 134.984 56.3686C134.647 54.994 133.888 53.7809 132.83 52.9244C132.052 52.2916 131.139 51.8786 130.173 51.7235C129.208 51.5684 128.221 51.6762 127.305 52.037C126.775 52.2366 126.277 52.5233 125.829 52.887C125.597 53.0716 125.376 53.2727 125.169 53.4888C124.964 53.7167 124.774 53.9586 124.598 54.213C123.862 55.282 123.465 56.5754 123.465 57.9037C123.465 59.2319 123.862 60.5253 124.598 61.5944C124.772 61.8501 124.963 62.0921 125.169 62.3186C125.376 62.5358 125.597 62.738 125.829 62.9238C126.278 63.2862 126.775 63.5729 127.305 63.7738C128.582 64.2695 129.979 64.275 131.259 63.7895C132.54 63.304 133.623 62.3575 134.324 61.1116C134.62 60.5931 134.842 60.0305 134.984 59.4422C135.039 59.2289 135.08 59.012 135.108 58.7928C135.14 58.6329 135.158 58.4701 135.162 58.3066C135.162 58.1842 135.181 58.0856 135.184 58.0074C135.179 57.9736 135.179 57.9392 135.184 57.9054C135.188 57.9393 135.188 57.9735 135.184 58.0074C135.184 58.0856 135.184 58.1842 135.184 58.31C135.183 58.474 135.171 58.6377 135.146 58.7996C135.124 59.0222 135.085 59.2427 135.032 59.4592C134.903 60.0575 134.689 60.6309 134.397 61.1592C134.013 61.867 133.502 62.4863 132.893 62.9816C132.158 63.5918 131.299 64.0066 130.386 64.192C129.337 64.4026 128.255 64.3087 127.251 63.92C126.707 63.7155 126.195 63.4232 125.734 63.053C125.495 62.8627 125.269 62.656 125.055 62.4342C124.843 62.2009 124.647 61.9521 124.468 61.6896C123.71 60.592 123.3 59.2625 123.3 57.8969C123.3 56.5313 123.71 55.2018 124.468 54.1042C124.819 53.58 125.248 53.1207 125.737 52.7442C126.198 52.3767 126.708 52.0866 127.251 51.884C128.256 51.4934 129.342 51.4006 130.392 51.6154C131.224 51.786 132.012 52.1449 132.704 52.6679C133.395 53.1909 133.975 53.866 134.404 54.6482C134.696 55.1762 134.91 55.7497 135.038 56.3482C135.092 56.5645 135.13 56.7851 135.152 57.0078C135.177 57.1696 135.19 57.3334 135.191 57.4974C135.191 57.6232 135.191 57.7218 135.191 57.8C135.192 57.8353 135.19 57.8706 135.184 57.9054Z" fill="#1E2959"/>
<path d="M124.998 61.3802C124.998 61.3802 124.922 61.302 124.814 61.1354C124.667 60.8978 124.539 60.6476 124.43 60.3874C124.062 59.5239 123.885 58.5808 123.913 57.6318C123.941 56.6829 124.173 55.7537 124.592 54.9168C124.72 54.6646 124.866 54.4235 125.03 54.196C125.085 54.1097 125.151 54.0319 125.227 53.9648C125.252 53.9852 124.995 54.3354 124.706 54.9848C124.329 55.8164 124.118 56.7232 124.087 57.647C124.064 58.571 124.22 59.4901 124.544 60.3466C124.785 60.996 125.03 61.3632 124.998 61.3802Z" fill="white"/>
<path d="M125.686 62.2199C125.651 62.2539 125.553 62.1927 125.464 62.0839C125.375 61.9751 125.331 61.8629 125.366 61.8289C125.401 61.7949 125.499 61.8595 125.588 61.9683C125.677 62.0771 125.721 62.1927 125.686 62.2199Z" fill="white"/>
<path d="M95.6254 86.724L104.289 84.208C104.289 84.208 107.678 92.9052 115.297 92.8236C123.646 92.7352 122.824 84.6942 122.824 84.6942L138.221 87.3598L140.398 115.6C140.398 115.6 139.106 140.736 136.78 146.38L140.398 155.52H89.358L88.5361 90.6034L95.6254 86.724Z" fill="#1E2959"/>
<path d="M126.14 124.627C126.601 124.327 127.092 124.225 127.47 124.004C127.848 123.783 128.422 123.872 128.527 124.307C128.66 124.797 128.143 125.184 127.708 125.395C128.708 125.908 130.072 124.776 130.932 125.524C131.497 126.014 131.364 127.041 130.843 127.581C130.323 128.122 129.574 128.288 128.841 128.377C128.108 128.465 127.372 128.516 126.737 128.894C126.42 129.091 126.102 129.475 126.207 129.863C126.404 130.519 127.546 130.379 127.686 131.053C127.781 131.508 127.308 131.845 126.912 132.039L122.58 134.13C122.214 134.354 121.799 134.472 121.377 134.47C121.168 134.459 120.97 134.365 120.822 134.205C120.675 134.044 120.59 133.831 120.584 133.606C120.628 133.167 121.066 132.895 121.476 132.831C121.887 132.821 122.296 132.777 122.701 132.698C123.094 132.569 123.453 132.13 123.31 131.716C123.129 131.202 122.444 131.246 121.948 131.376L117.35 132.685C117.02 132.812 116.664 132.842 116.319 132.773C116.15 132.726 116.005 132.611 115.913 132.452C115.821 132.293 115.79 132.102 115.827 131.92C115.904 131.743 116.026 131.593 116.179 131.488C117.279 130.604 118.548 129.995 119.895 129.703C120.411 129.637 120.913 129.483 121.384 129.247C121.834 128.972 122.186 128.418 122.063 127.887C121.114 128.255 120.129 128.506 119.127 128.635C118.772 128.683 118.302 128.635 118.201 128.268C118.099 127.901 118.486 127.588 118.82 127.401L124.173 124.576C124.627 124.338 125.147 124.093 125.623 124.276L126.14 124.627Z" fill="white"/>
<path d="M105.333 142.875C105.796 142.576 106.285 142.474 106.662 142.253C107.04 142.032 107.614 142.12 107.722 142.552C107.855 143.045 107.338 143.432 106.9 143.643C107.9 144.157 109.264 143.024 110.128 143.772C110.689 144.262 110.556 145.289 110.035 145.829C109.515 146.37 108.766 146.537 108.036 146.625C107.306 146.713 106.564 146.764 105.929 147.142C105.612 147.339 105.295 147.723 105.399 148.111C105.596 148.767 106.738 148.628 106.878 149.301C106.973 149.756 106.504 150.093 106.107 150.283L101.772 152.378C101.406 152.601 100.991 152.718 100.569 152.718C100.154 152.674 99.7349 152.3 99.7793 151.854C99.8237 151.409 100.262 151.144 100.668 151.079C101.079 151.07 101.488 151.025 101.893 150.946C102.286 150.817 102.648 150.379 102.502 149.964C102.324 149.45 101.639 149.495 101.144 149.624L96.5425 150.933C96.2132 151.06 95.8583 151.09 95.5143 151.021C95.3445 150.978 95.1967 150.866 95.1021 150.709C95.0074 150.552 94.9732 150.362 95.0066 150.178C95.0827 150 95.2064 149.849 95.362 149.746C96.4607 148.864 97.729 148.254 99.0748 147.961C99.5904 147.895 100.093 147.742 100.563 147.506C101.014 147.23 101.369 146.676 101.245 146.146C100.296 146.513 99.3117 146.764 98.31 146.894C97.9515 146.941 97.485 146.894 97.3803 146.526C97.2755 146.159 97.669 145.846 97.9991 145.659L103.352 142.834C103.806 142.596 104.327 142.348 104.803 142.535L105.333 142.875Z" fill="white"/>
<path d="M129.269 145.36C129.732 145.061 130.221 144.959 130.599 144.735C130.976 144.51 131.551 144.605 131.659 145.037C131.792 145.53 131.275 145.918 130.84 146.129C131.84 146.642 133.204 145.51 134.064 146.258C134.626 146.747 134.496 147.774 133.972 148.315C133.448 148.855 132.703 149.019 131.973 149.11C131.243 149.202 130.504 149.25 129.869 149.627C129.536 149.824 129.234 150.209 129.339 150.596C129.536 151.252 130.675 151.11 130.818 151.783C130.913 152.238 130.44 152.578 130.043 152.769L125.712 154.863C125.344 155.087 124.929 155.204 124.506 155.203C124.297 155.192 124.099 155.097 123.952 154.936C123.806 154.775 123.721 154.561 123.716 154.336C123.757 153.898 124.198 153.629 124.608 153.564C125.018 153.555 125.428 153.51 125.832 153.432C126.226 153.303 126.585 152.861 126.442 152.449C126.261 151.936 125.575 151.98 125.08 152.109L120.482 153.418C120.152 153.546 119.796 153.575 119.451 153.503C119.281 153.461 119.133 153.349 119.039 153.192C118.944 153.034 118.911 152.843 118.946 152.66C119.023 152.483 119.145 152.333 119.299 152.228C120.399 151.347 121.668 150.739 123.015 150.447C123.53 150.379 124.032 150.225 124.503 149.991C124.95 149.716 125.306 149.161 125.182 148.631C124.234 149.001 123.249 149.254 122.247 149.382C121.888 149.427 121.422 149.382 121.32 149.015C121.218 148.648 121.606 148.335 121.939 148.148L127.289 145.323C127.746 145.081 128.263 144.837 128.742 145.024L129.269 145.36Z" fill="white"/>
<path d="M108.601 113.023C109.065 112.724 109.553 112.622 109.931 112.401C110.309 112.18 110.883 112.271 110.991 112.703C111.124 113.193 110.604 113.58 110.169 113.791C111.169 114.308 112.533 113.176 113.393 113.92C113.958 114.41 113.825 115.44 113.304 115.977C112.784 116.515 112.035 116.685 111.302 116.776C110.569 116.868 109.833 116.916 109.198 117.29C108.881 117.487 108.563 117.871 108.668 118.259C108.865 118.918 110.007 118.776 110.147 119.449C110.242 119.904 109.772 120.241 109.373 120.435L105.038 122.526C104.671 122.749 104.257 122.866 103.835 122.866C103.625 122.854 103.428 122.758 103.281 122.598C103.134 122.437 103.049 122.224 103.042 121.999C103.086 121.56 103.527 121.292 103.933 121.227C104.344 121.216 104.754 121.171 105.158 121.094C105.552 120.962 105.91 120.523 105.768 120.108C105.587 119.595 104.904 119.639 104.409 119.768L99.8081 121.074C99.4777 121.201 99.1218 121.231 98.7767 121.162C98.607 121.119 98.4596 121.007 98.3654 120.85C98.2713 120.693 98.2379 120.502 98.2722 120.319C98.3482 120.141 98.4719 119.991 98.6276 119.887C99.727 119.006 100.995 118.396 102.34 118.102C102.857 118.033 103.361 117.877 103.832 117.64C104.063 117.517 104.253 117.32 104.376 117.077C104.498 116.833 104.546 116.555 104.514 116.28C103.564 116.648 102.578 116.899 101.576 117.028C101.22 117.076 100.751 117.028 100.649 116.664C100.547 116.3 100.935 115.984 101.268 115.797L106.624 112.975C107.078 112.734 107.599 112.489 108.075 112.673L108.601 113.023Z" fill="white"/>
<g opacity="0.2">
<path opacity="0.2" d="M137.472 142.892C137.307 142.076 136.885 141.355 136.52 140.61C135.651 138.757 135.206 136.707 134.375 134.83C132.858 131.407 130.135 128.778 127.314 126.487C124.493 124.195 121.488 122.121 119.064 119.364L118.962 119.428C121.596 123.995 124.338 128.802 127.08 133.297L133.084 143.157C133.471 143.895 133.993 144.541 134.619 145.058C135.276 145.523 136.206 145.666 136.841 145.17C137.475 144.673 137.637 143.708 137.472 142.892Z" fill="#0A1D47"/>
</g>
<path d="M161.469 133.178C159.673 126.378 155.525 115.631 153.853 111.52C152.181 107.41 146.193 94.9248 146.193 94.9248C146.193 94.9248 143.168 88.3526 137.625 87.2612L135.594 112.445L129.799 106.577C129.799 106.577 118.486 115.321 118.677 118.844L132.414 134.365C132.414 134.365 135.178 140.883 140.709 145.326C146.24 149.77 146.653 152.732 151.353 152.432C156.052 152.133 155.084 153.915 157.988 149.032C160.892 144.15 163.265 139.992 161.469 133.178Z" fill="#1E2959"/>
<path d="M126.499 125.871C126.473 125.888 126.213 125.426 125.69 124.766C124.995 123.919 124.259 123.112 123.484 122.349C122.706 121.576 121.986 120.739 121.329 119.846C121.082 119.506 120.892 119.214 120.768 119.01C120.695 118.905 120.634 118.791 120.587 118.67C120.675 118.755 120.753 118.85 120.819 118.956C120.958 119.146 121.161 119.421 121.422 119.755C122.1 120.618 122.827 121.437 123.598 122.206C124.378 122.974 125.107 123.799 125.782 124.674C125.98 124.946 126.164 125.228 126.334 125.521C126.402 125.63 126.457 125.748 126.499 125.871Z" fill="#37474F"/>
<path d="M129.345 125.304C129.229 125.229 129.123 125.139 129.028 125.035C128.837 124.855 128.565 124.586 128.238 124.243C127.581 123.563 126.699 122.591 125.778 121.469C124.858 120.347 124.077 119.276 123.535 118.487C123.262 118.092 123.046 117.769 122.9 117.542C122.819 117.428 122.748 117.307 122.691 117.178C122.788 117.275 122.875 117.383 122.951 117.501L123.62 118.412C124.185 119.18 124.979 120.228 125.896 121.35C126.813 122.472 127.679 123.454 128.314 124.155L129.066 124.988C129.167 125.084 129.261 125.19 129.345 125.304Z" fill="#37474F"/>
<path d="M132.052 123.76C131.938 123.68 131.832 123.589 131.735 123.488C131.535 123.304 131.249 123.032 130.897 122.692C130.199 122.012 129.247 121.053 128.225 119.972C127.203 118.891 126.299 117.874 125.661 117.13C125.344 116.756 125.084 116.45 124.912 116.236C124.818 116.13 124.732 116.016 124.655 115.896C124.771 115.983 124.877 116.083 124.973 116.195L125.756 117.045C126.42 117.769 127.343 118.765 128.355 119.85C129.368 120.934 130.313 121.91 130.989 122.611L131.792 123.447C131.889 123.541 131.976 123.646 132.052 123.76Z" fill="#37474F"/>
<path d="M133.261 120.54C133.261 120.54 133.159 120.462 132.998 120.292L132.328 119.578L130.107 117.198L127.866 114.838L127.194 114.118C127.105 114.034 127.026 113.939 126.959 113.835C127.06 113.901 127.154 113.978 127.238 114.067C127.409 114.223 127.651 114.458 127.949 114.747C128.542 115.328 129.351 116.147 130.224 117.072C131.097 117.997 131.868 118.857 132.417 119.486C132.693 119.802 132.912 120.061 133.052 120.241C133.131 120.333 133.201 120.433 133.261 120.54Z" fill="#37474F"/>
<path d="M133.915 117.456C133.952 117.543 133.978 117.634 133.991 117.728L134.02 117.851L133.944 117.752C133.572 117.279 132.592 115.933 131.364 114.423C130.586 113.465 129.856 112.618 129.323 112.009L128.689 111.289C128.605 111.205 128.533 111.11 128.473 111.006C128.567 111.074 128.654 111.151 128.733 111.238C128.895 111.394 129.127 111.629 129.403 111.918C129.958 112.506 130.704 113.342 131.484 114.298C132.375 115.38 133.209 116.515 133.982 117.698L133.931 117.718C133.914 117.632 133.909 117.544 133.915 117.456Z" fill="#37474F"/>
<path d="M136.155 116.362C136.067 116.257 135.988 116.143 135.921 116.022C135.781 115.797 135.572 115.474 135.311 115.083C133.948 113.038 132.349 111.186 130.551 109.572C130.205 109.262 129.917 109.018 129.726 108.851C129.618 108.771 129.519 108.678 129.431 108.572C129.55 108.632 129.661 108.706 129.764 108.793C129.974 108.946 130.269 109.177 130.624 109.473C131.551 110.255 132.419 111.113 133.22 112.04C134.022 112.968 134.756 113.96 135.416 115.008C135.667 115.413 135.86 115.743 135.984 115.981C136.056 116.099 136.114 116.227 136.155 116.362Z" fill="#37474F"/>
<path d="M151.724 125.263C152.187 124.96 152.676 124.858 153.053 124.637C153.431 124.416 154.005 124.508 154.113 124.94C154.247 125.429 153.729 125.82 153.295 126.031C154.291 126.544 155.656 125.412 156.519 126.16C157.08 126.646 156.947 127.677 156.427 128.217C155.906 128.758 155.157 128.921 154.427 129.013C153.698 129.105 152.955 129.152 152.32 129.54C151.987 129.737 151.686 130.121 151.787 130.509C151.987 131.165 153.126 131.022 153.269 131.695C153.361 132.151 152.892 132.491 152.495 132.681L148.163 134.772C147.796 134.997 147.38 135.114 146.957 135.112C146.542 135.065 146.123 134.694 146.167 134.245C146.212 133.797 146.65 133.538 147.056 133.474C147.468 133.462 147.878 133.418 148.284 133.341C148.677 133.212 149.036 132.77 148.89 132.358C148.712 131.842 148.027 131.886 147.532 132.018L142.934 133.324C142.604 133.452 142.247 133.483 141.902 133.412C141.732 133.37 141.584 133.258 141.49 133.101C141.396 132.943 141.363 132.752 141.398 132.569C141.472 132.391 141.595 132.241 141.75 132.137C142.85 131.257 144.118 130.649 145.463 130.356C145.978 130.289 146.48 130.135 146.951 129.9C147.402 129.625 147.757 129.071 147.633 128.54C146.685 128.909 145.7 129.161 144.698 129.292C144.339 129.336 143.873 129.292 143.768 128.924C143.663 128.557 144.057 128.244 144.403 128.057L149.753 125.232C150.21 124.991 150.727 124.746 151.203 124.933L151.724 125.263Z" fill="white"/>
<path d="M147.684 151.718C147.684 151.718 147.573 151.63 147.367 151.446C147.161 151.263 146.846 150.987 146.45 150.63L142.975 147.512L140.49 145.279C139.493 144.418 138.54 143.501 137.634 142.531C136.626 141.407 135.701 140.201 134.867 138.924C133.925 137.51 133.094 136.014 132.382 134.453V134.473L118.229 118.803L118.198 118.769V118.725C118.391 117.762 118.934 116.936 119.489 116.147C120.08 115.362 120.716 114.616 121.393 113.914C122.726 112.506 124.132 111.217 125.537 110C126.943 108.783 128.359 107.62 129.767 106.559L129.821 106.519L129.869 106.57C131.814 108.555 133.677 110.497 135.492 112.326C135.946 112.785 136.397 113.237 136.854 113.662C137.315 114.082 137.74 114.547 138.123 115.049C138.221 115.165 138.323 115.277 138.44 115.389C138.548 115.494 138.661 115.591 138.78 115.682C139.012 115.877 139.233 116.088 139.44 116.314C139.849 116.763 140.214 117.242 140.57 117.711C140.925 118.181 141.277 118.64 141.661 119.071C142.034 119.482 142.454 119.841 142.911 120.139C143.362 120.435 143.832 120.686 144.273 120.975C144.708 121.26 145.114 121.593 145.485 121.968C145.853 122.332 146.189 122.709 146.526 123.073C146.862 123.437 147.183 123.808 147.478 124.178C148.07 124.881 148.548 125.686 148.893 126.558C149.422 128.069 149.674 129.675 149.636 131.288C149.636 132.699 149.531 133.902 149.487 134.885C149.442 135.867 149.426 136.622 149.433 137.136C149.433 137.387 149.433 137.581 149.448 137.717C149.464 137.853 149.448 137.918 149.448 137.918C149.448 137.918 149.42 137.649 149.401 137.136C149.382 136.622 149.401 135.864 149.429 134.881C149.458 133.899 149.553 132.695 149.55 131.288C149.582 129.687 149.325 128.095 148.795 126.599C148.179 124.926 146.799 123.539 145.396 122.063C145.03 121.695 144.629 121.368 144.2 121.088C143.765 120.805 143.295 120.554 142.838 120.255C142.375 119.951 141.948 119.587 141.569 119.17C141.182 118.748 140.823 118.283 140.468 117.81C140.113 117.337 139.748 116.868 139.345 116.43C139.145 116.21 138.933 116.003 138.71 115.811C138.599 115.719 138.472 115.624 138.361 115.512C138.25 115.399 138.145 115.284 138.044 115.172C137.66 114.678 137.235 114.222 136.774 113.812C136.314 113.38 135.863 112.931 135.406 112.472C133.588 110.646 131.722 108.705 129.78 106.723H129.882C128.476 107.794 127.064 108.943 125.661 110.157C124.259 111.37 122.856 112.656 121.536 114.06C120.866 114.757 120.238 115.499 119.654 116.28C119.102 117.055 118.572 117.875 118.385 118.776L118.363 118.701L132.497 134.388C133.201 135.943 134.023 137.433 134.956 138.842C135.79 140.123 136.715 141.332 137.723 142.46C138.619 143.43 139.563 144.349 140.55 145.211L143.022 147.461L146.472 150.61L147.376 151.443C147.583 151.616 147.684 151.718 147.684 151.718Z" fill="#37474F"/>
<path d="M155.842 138.479C155.799 138.293 155.769 138.105 155.754 137.914C155.706 137.52 155.646 136.996 155.57 136.367C155.493 135.738 155.411 134.929 155.319 134.072C155.271 133.641 155.233 133.185 155.154 132.712C155.081 132.241 154.92 131.79 154.681 131.386C154.164 130.57 153.374 130.074 152.698 129.605C152.022 129.136 151.387 128.741 150.857 128.411L149.588 127.64C149.428 127.554 149.275 127.456 149.128 127.347C149.297 127.41 149.46 127.488 149.616 127.582C149.934 127.742 150.368 127.986 150.908 128.303C151.447 128.619 152.082 129.01 152.774 129.469C153.466 129.928 154.262 130.424 154.811 131.288C155.065 131.711 155.233 132.185 155.306 132.682C155.386 133.154 155.42 133.61 155.465 134.042C155.544 134.899 155.617 135.677 155.681 136.34C155.744 137.003 155.776 137.496 155.811 137.894C155.838 138.087 155.849 138.283 155.842 138.479Z" fill="#37474F"/>
<path d="M149.743 113.618C149.683 113.732 149.609 113.837 149.524 113.93C149.372 114.124 149.15 114.4 148.864 114.729C148.121 115.591 147.337 116.411 146.516 117.188C145.696 117.965 144.839 118.697 143.949 119.381C143.677 119.596 143.367 119.75 143.038 119.833C142.947 119.851 142.854 119.858 142.762 119.857C142.73 119.861 142.698 119.861 142.667 119.857C142.667 119.84 142.8 119.857 143.022 119.782C143.333 119.677 143.624 119.513 143.879 119.296C144.545 118.755 145.466 117.976 146.418 117.072C147.37 116.168 148.204 115.297 148.791 114.661L149.464 113.9C149.546 113.794 149.64 113.699 149.743 113.618Z" fill="#37474F"/>
<path d="M143.793 101.918C143.788 101.977 143.778 102.035 143.762 102.092C143.736 102.204 143.698 102.367 143.644 102.578C143.536 102.996 143.368 103.598 143.152 104.343C142.73 105.832 142.067 107.865 141.566 110.17C141.158 112.145 140.987 114.167 141.055 116.188C141.075 116.799 141.126 117.409 141.207 118.014C141.267 118.446 141.309 118.694 141.296 118.694C141.273 118.641 141.256 118.585 141.245 118.527C141.223 118.415 141.179 118.252 141.144 118.038C141.037 117.431 140.969 116.818 140.937 116.202C140.834 114.169 140.991 112.13 141.404 110.143C141.908 107.821 142.587 105.794 143.038 104.315C143.26 103.598 143.444 103.006 143.578 102.568L143.727 102.092C143.74 102.031 143.763 101.972 143.793 101.918Z" fill="#37474F"/>
<path d="M95.6255 86.7236C95.6255 86.7236 87.6224 89.3042 84.357 93.2346C81.8945 96.1994 78.4895 110.286 78.4895 110.286C78.4895 110.286 69.8993 145.085 70.1087 147.777C70.3182 150.47 74.7164 155.03 77.8612 156.757C81.006 158.484 86.242 160.347 92.3157 152.265C95.6953 147.774 98.9797 143.527 100.566 139.624C101.348 137.581 101.748 135.393 101.744 133.185L112.019 120.54L101.328 108.266L91.8969 121.288L95.6255 86.7236Z" fill="#1E2959"/>
<path d="M102.289 111.52C102.212 111.642 102.124 111.756 102.026 111.86C101.845 112.081 101.591 112.401 101.28 112.802C100.645 113.601 99.833 114.74 98.9096 115.988C98.1308 117.065 97.2937 118.092 96.4027 119.065C96.0568 119.432 95.768 119.721 95.5554 119.908C95.4528 120.013 95.34 120.107 95.219 120.187C95.306 120.064 95.4037 119.95 95.5109 119.847C95.7077 119.646 95.9838 119.343 96.3201 118.966C96.9897 118.215 97.8592 117.116 98.7795 115.869C99.6997 114.621 100.544 113.489 101.191 112.71C101.509 112.319 101.785 112.01 101.978 111.806C102.073 111.7 102.177 111.604 102.289 111.52Z" fill="#37474F"/>
<path d="M103.102 113.777C103.049 113.899 102.983 114.013 102.905 114.117C102.772 114.332 102.569 114.638 102.312 115.008C101.798 115.749 101.043 116.752 100.214 117.834C99.3861 118.915 98.5864 119.874 98.0152 120.554C97.7423 120.873 97.5138 121.145 97.3298 121.366C97.2489 121.469 97.1597 121.563 97.0632 121.648C97.1218 121.525 97.1955 121.411 97.2822 121.308C97.4313 121.104 97.6503 120.815 97.9169 120.458L100.078 117.694C100.922 116.613 101.665 115.627 102.21 114.903L102.845 114.049C102.923 113.951 103.009 113.86 103.102 113.777Z" fill="#37474F"/>
<path d="M104.72 116.182C104.662 116.291 104.593 116.392 104.514 116.484L103.921 117.273C103.419 117.953 102.743 118.871 101.994 119.905C101.246 120.938 100.554 121.86 100.03 122.506C99.7668 122.829 99.551 123.087 99.3955 123.26C99.3218 123.356 99.2376 123.442 99.1448 123.515C99.2001 123.406 99.2683 123.304 99.3479 123.213C99.5129 122.999 99.7096 122.733 99.9413 122.427C100.443 121.747 101.122 120.826 101.868 119.796C102.613 118.766 103.308 117.841 103.835 117.191C104.095 116.868 104.314 116.61 104.47 116.44C104.543 116.344 104.628 116.257 104.72 116.182Z" fill="#37474F"/>
<path d="M106.78 118.844C106.733 118.943 106.673 119.035 106.602 119.116C106.482 119.279 106.301 119.514 106.072 119.796C105.619 120.367 104.968 121.139 104.244 121.982L102.385 124.141C102.142 124.453 101.879 124.746 101.598 125.018C101.644 124.92 101.703 124.83 101.772 124.75C101.893 124.583 102.071 124.345 102.299 124.07C102.75 123.495 103.397 122.71 104.121 121.873L105.987 119.721C106.233 119.41 106.498 119.117 106.78 118.844Z" fill="#37474F"/>
<path d="M108.252 120.136C108.074 120.463 107.87 120.774 107.643 121.064C107.246 121.622 106.691 122.376 106.056 123.199C105.421 124.022 104.853 124.777 104.447 125.324C104.238 125.63 104.011 125.922 103.768 126.198C103.936 125.864 104.132 125.547 104.352 125.249C104.736 124.682 105.304 123.917 105.939 123.087L107.573 120.986C107.78 120.685 108.007 120.401 108.252 120.136Z" fill="#37474F"/>
<path d="M91.9632 119.806C91.9474 119.806 91.9093 119.588 91.7951 119.207C91.6208 118.675 91.375 118.174 91.0652 117.718C90.6005 117.044 90.0613 116.434 89.4595 115.899C88.719 115.244 87.9269 114.66 87.0922 114.151C85.5636 113.238 83.9724 112.45 82.3322 111.795C81.6975 111.54 81.1898 111.353 80.8344 111.224C80.6469 111.167 80.4634 111.095 80.2854 111.01C80.3362 111.01 80.3865 111.019 80.4345 111.037C80.5329 111.064 80.6725 111.102 80.8534 111.159C81.2152 111.268 81.7388 111.438 82.3734 111.68C84.0299 112.303 85.6331 113.079 87.1652 113.998C88.0082 114.511 88.8059 115.105 89.5483 115.773C90.1497 116.322 90.683 116.952 91.135 117.647C91.4421 118.117 91.6778 118.637 91.8331 119.187C91.8746 119.337 91.9043 119.49 91.922 119.646C91.9437 119.696 91.9576 119.75 91.9632 119.806Z" fill="#37474F"/>
<path d="M92.6964 97.8075C93.1597 97.5049 93.6484 97.4028 94.0261 97.1819C94.4037 96.9609 94.9781 97.0527 95.086 97.4845C95.2192 97.9741 94.6988 98.3651 94.2641 98.5759C95.2637 99.0893 96.6282 97.9571 97.4913 98.7051C98.053 99.1913 97.9197 100.221 97.3993 100.762C96.8789 101.303 96.13 101.466 95.3969 101.558C94.6639 101.649 93.9277 101.697 93.293 102.074C92.9757 102.272 92.6584 102.656 92.7631 103.043C92.9598 103.7 94.1022 103.557 94.2419 104.23C94.3371 104.686 93.8674 105.026 93.4707 105.216L89.136 107.307C88.7693 107.53 88.3549 107.647 87.9333 107.647C87.5176 107.599 87.0987 107.225 87.1431 106.78C87.1875 106.335 87.6255 106.073 88.0316 106.008C88.4425 105.997 88.8519 105.952 89.2566 105.876C89.65 105.746 90.0118 105.304 89.8658 104.893C89.6881 104.376 89.0027 104.42 88.5076 104.553L83.9063 105.859C83.5773 105.987 83.222 106.018 82.8782 105.947C82.7079 105.905 82.5596 105.793 82.4649 105.636C82.3701 105.478 82.3362 105.288 82.3704 105.104C82.4465 104.925 82.5702 104.775 82.7258 104.672C83.826 103.792 85.0937 103.183 86.4386 102.887C86.9541 102.822 87.4565 102.67 87.9269 102.435C88.3775 102.159 88.733 101.605 88.6092 101.075C87.6603 101.442 86.6755 101.693 85.6739 101.823C85.3153 101.87 84.8456 101.823 84.7441 101.459C84.6425 101.095 85.0297 100.779 85.3629 100.592L90.7163 97.7667C91.1701 97.5253 91.6905 97.2805 92.1665 97.4641L92.6964 97.8075Z" fill="white"/>
<path d="M84.2618 132.627C84.7219 132.328 85.2138 132.226 85.5914 132.002C85.969 131.777 86.5434 131.873 86.6513 132.304C86.7846 132.797 86.2641 133.185 85.8294 133.396C86.829 133.909 88.1935 132.777 89.0535 133.525C89.6183 134.015 89.4851 135.041 88.9646 135.565C88.4442 136.089 87.6953 136.269 86.9623 136.361C86.2292 136.452 85.493 136.5 84.8584 136.877C84.541 137.075 84.2237 137.459 84.3284 137.846C84.5252 138.503 85.6676 138.36 85.8072 139.036C85.9024 139.492 85.4327 139.829 85.0329 140.019L80.7013 142.12C80.3347 142.343 79.9202 142.46 79.4986 142.46C79.2886 142.45 79.0899 142.355 78.9427 142.194C78.7955 142.033 78.7107 141.818 78.7053 141.593C78.7497 141.155 79.1908 140.886 79.597 140.821C80.0079 140.812 80.4174 140.767 80.8219 140.689C81.2154 140.56 81.574 140.118 81.4312 139.706C81.2503 139.193 80.568 139.237 80.0698 139.366L75.4716 140.675C75.1413 140.803 74.785 140.832 74.4403 140.76C74.2706 140.717 74.1231 140.605 74.029 140.448C73.9349 140.29 73.9014 140.1 73.9358 139.917C74.0119 139.739 74.1356 139.59 74.2912 139.489C75.3895 138.605 76.6579 137.995 78.004 137.704C78.5193 137.636 79.0215 137.482 79.4923 137.248C79.7237 137.125 79.9137 136.928 80.0359 136.685C80.1582 136.441 80.2066 136.162 80.1745 135.888C79.2246 136.256 78.2388 136.507 77.236 136.636C76.8806 136.68 76.411 136.636 76.3094 136.269C76.2079 135.902 76.595 135.589 76.9282 135.402L82.2816 132.576C82.7354 132.335 83.2558 132.09 83.7318 132.277L84.2618 132.627Z" fill="white"/>
<path d="M92.0966 120.472C92.0714 120.403 92.0513 120.331 92.0363 120.258C92.0014 120.095 91.9538 119.887 91.8967 119.632C91.7729 119.068 91.6016 118.272 91.3953 117.331C90.9701 115.386 90.364 112.707 89.6373 109.762C88.9106 106.818 88.2061 104.166 87.6825 102.252C87.4254 101.31 87.2128 100.552 87.0478 99.9839C86.9812 99.7289 86.9272 99.5249 86.8828 99.3651C86.86 99.2947 86.8451 99.2216 86.8384 99.1475C86.8702 99.2137 86.8957 99.2832 86.9145 99.3549C86.9653 99.5113 87.0288 99.7153 87.1113 99.9635C87.2763 100.494 87.508 101.262 87.784 102.218C88.3362 104.122 89.0534 106.77 89.7864 109.718C90.5194 112.666 91.1002 115.352 91.4937 117.303C91.6936 118.279 91.8491 119.068 91.9474 119.619C91.9919 119.877 92.03 120.088 92.0585 120.248C92.079 120.321 92.0918 120.396 92.0966 120.472Z" fill="#37474F"/>
<path d="M78.2515 141.141L78.3086 140.944C78.353 140.811 78.4133 140.604 78.4926 140.369C78.6577 139.866 78.902 139.121 79.2638 138.18C79.6997 137.022 80.2508 135.919 80.9075 134.888C81.6882 133.678 82.8433 132.536 84.119 131.295C85.3946 130.054 86.5815 128.459 87.8413 126.732C89.1011 125.005 90.4085 123.107 91.8016 121.112C93.1947 119.116 94.6576 117.004 96.222 114.832C97.7865 112.659 99.4366 110.412 101.268 108.209L101.325 108.137L101.385 108.209L107.259 114.985L111.949 120.425L112.003 120.486L111.949 120.544C110.023 122.801 108.179 125.022 106.447 127.194C105.583 128.279 104.749 129.357 103.965 130.431C103.765 130.7 103.575 130.968 103.387 131.24C103.197 131.503 103.022 131.777 102.864 132.063C102.56 132.63 102.317 133.232 102.14 133.858C101.782 135.096 101.588 136.347 101.306 137.54C101.172 138.13 101.002 138.709 100.798 139.274C100.592 139.832 100.341 140.349 100.119 140.872C99.2568 142.785 98.2794 144.635 97.1931 146.411C95.6266 148.956 93.7861 151.294 91.7096 153.378L91.1923 153.891C91.0273 154.047 90.875 154.194 90.7258 154.326C90.4371 154.598 90.1895 154.823 89.9833 155.006C89.777 155.19 89.6279 155.309 89.52 155.404L89.3581 155.533C89.3581 155.533 89.4057 155.482 89.5105 155.39L89.9642 154.979C90.1673 154.806 90.4117 154.574 90.6973 154.299L91.1574 153.857L91.6715 153.337C93.7269 151.233 95.5498 148.883 97.1042 146.333C98.1815 144.557 99.1493 142.708 100.001 140.798C100.224 140.277 100.474 139.754 100.674 139.21C100.874 138.648 101.041 138.074 101.172 137.489C101.449 136.303 101.642 135.048 102.004 133.8C102.181 133.163 102.426 132.549 102.734 131.971C102.897 131.681 103.075 131.401 103.267 131.131C103.454 130.859 103.648 130.587 103.844 130.319C104.631 129.238 105.466 128.16 106.329 127.072C108.059 124.896 109.902 122.672 111.832 120.415V120.53L107.138 115.09L101.284 108.314H101.404C99.5794 110.514 97.9293 112.754 96.3617 114.924C94.7941 117.093 93.328 119.197 91.919 121.193C90.5101 123.189 89.2058 125.073 87.946 126.803C86.6862 128.534 85.4994 130.142 84.1951 131.369C82.8909 132.597 81.7612 133.749 80.9774 134.929C80.3191 135.951 79.7639 137.046 79.3209 138.193C78.9496 139.128 78.6862 139.873 78.5244 140.369C78.4387 140.617 78.3721 140.808 78.3276 140.94C78.2832 141.073 78.2515 141.141 78.2515 141.141Z" fill="#37474F"/>
<path d="M102.543 86.5638C102.566 86.6087 102.585 86.6552 102.601 86.7032L102.747 87.1112C102.964 87.6086 103.228 88.0813 103.534 88.5222C104.664 90.0718 106.004 91.432 107.51 92.558H107.491C108.525 92.9388 109.661 93.323 110.886 93.646C112.164 93.9971 113.474 94.2023 114.793 94.258C116.752 94.3199 118.697 93.8853 120.47 92.9898C121.914 92.2491 123.145 91.1051 124.033 89.6782C124.635 88.7193 125.043 87.6366 125.233 86.4992C125.268 86.2986 125.29 86.1184 125.303 85.9586C125.315 85.7988 125.331 85.6696 125.331 85.5642V85.3194C125.327 85.2912 125.327 85.2625 125.331 85.2344C125.359 85.6603 125.339 86.0882 125.274 86.5094C125.107 87.6653 124.71 88.7691 124.109 89.7462C123.221 91.2082 121.978 92.3835 120.514 93.1462C118.722 94.0619 116.752 94.5071 114.767 94.445C113.436 94.3894 112.115 94.1797 110.826 93.8194C109.675 93.5112 108.54 93.1412 107.424 92.711C105.913 91.5699 104.577 90.1843 103.464 88.6038C103.16 88.1528 102.905 87.667 102.702 87.1554C102.648 86.982 102.607 86.8426 102.575 86.7372C102.559 86.6807 102.548 86.6226 102.543 86.5638Z" fill="#37474F"/>
<path d="M115.995 106.382C115.779 106.808 115.683 107.291 115.719 107.774C115.754 108.257 115.92 108.718 116.195 109.102C117.138 108.385 118.004 107.56 118.778 106.641L118.981 106.42L119.642 104.397L117.874 103.377L116.233 103.146L115.995 106.382Z" fill="#EB996E"/>
<path d="M118.746 105.114C118.333 105.861 118.032 106.674 117.855 107.521C117.676 108.374 117.735 109.264 118.023 110.082C118.043 110.152 118.082 110.215 118.134 110.262C118.179 110.29 118.228 110.309 118.28 110.316L119.143 110.513C119.346 110.103 119.515 109.674 119.648 109.232" fill="#EB996E"/>
<path d="M105.856 117.572C105.856 117.572 108.144 113.961 108.782 113.206C109.143 112.768 109.605 112.439 110.121 112.251C110.121 112.251 113.504 110.129 114.589 108.695C115.675 107.26 117.334 104.659 117.334 104.659L118.162 104.387L118.994 105.274C118.994 105.274 118.677 109.378 120.333 109.857L121.228 109.582V101.721L115.865 97.8214L111.654 95.4414C111.654 95.4414 108.592 101.323 107.697 102.211C106.802 103.098 101.915 108.623 101.385 109.239C101.385 109.225 101.737 112.465 105.856 117.572Z" fill="#FFBE9D"/>
<path d="M106.78 93.2856L114.053 90.2256L123.126 93.9112C123.126 93.9112 126.905 103.897 127.362 104.665C127.819 105.434 129.837 107.814 129.837 107.814C129.64 108.846 129.212 109.812 128.59 110.629C127.692 111.826 126.753 113.159 125.928 113.777C125.928 113.777 122.142 111.856 121.691 109.901C121.241 107.946 119.66 103.618 119.66 103.618L118.315 100.898L115.722 99.0112L112.958 99.4328C112.958 99.4328 112.593 101.316 111.245 100.827L109.896 100.062L111.422 98.0218C111.422 98.0218 109.502 100.466 108.265 99.2798L107.811 98.7188L109.309 97.3248C109.309 97.3248 107.878 98.44 107.421 97.6036L108.855 94.8088C108.855 94.8088 106.605 94.8904 106.78 93.2856Z" fill="#FFBE9D"/>
<path d="M129.824 107.814C129.824 107.814 129.758 107.746 129.64 107.61L129.114 106.998C128.888 106.726 128.606 106.389 128.285 105.978C128.124 105.777 127.949 105.559 127.771 105.321C127.572 105.075 127.394 104.808 127.241 104.526C126.673 103.285 126.08 101.741 125.375 99.963C124.671 98.1848 123.9 96.1584 123.053 93.9314L123.087 93.9722L114.028 90.2832H114.082L106.808 93.3602L106.859 93.2888C106.832 93.5223 106.871 93.759 106.97 93.9688C107.088 94.1719 107.257 94.3347 107.459 94.438C107.892 94.6495 108.364 94.7519 108.839 94.7372H108.982L108.912 94.8664L108.071 96.5086L107.481 97.6578V97.5796C107.521 97.6495 107.575 97.7087 107.639 97.7529C107.704 97.7971 107.776 97.825 107.852 97.8346C108.017 97.8528 108.184 97.8319 108.341 97.7734C108.666 97.6551 108.972 97.4867 109.252 97.2736L109.353 97.4096L107.855 98.807V98.6812L108.309 99.2422C108.533 99.4506 108.825 99.5556 109.122 99.5346C109.421 99.5052 109.711 99.4041 109.969 99.2388C110.488 98.9058 110.954 98.4857 111.349 97.9944L111.473 98.1032L109.947 100.126L109.924 100L111.273 100.769C111.46 100.835 111.659 100.854 111.854 100.823C112.042 100.78 112.215 100.68 112.352 100.534C112.621 100.226 112.807 99.8454 112.888 99.4326L112.904 99.3782H112.952L115.713 98.96H115.741H115.763L118.353 100.85L119.695 103.57C120.352 105.41 120.923 107.086 121.367 108.579C121.475 108.953 121.58 109.316 121.663 109.67C121.704 109.84 121.754 110.008 121.812 110.173C121.879 110.325 121.954 110.473 122.037 110.615C122.37 111.108 122.766 111.547 123.214 111.921C123.835 112.444 124.493 112.914 125.182 113.328C125.417 113.471 125.598 113.573 125.721 113.645L125.905 113.753C125.905 113.753 125.839 113.726 125.712 113.662C125.585 113.597 125.394 113.498 125.163 113.359C124.465 112.959 123.799 112.498 123.173 111.979C122.715 111.604 122.31 111.161 121.97 110.663C121.882 110.516 121.803 110.364 121.732 110.207C121.673 110.039 121.621 109.868 121.577 109.694C121.491 109.354 121.383 108.983 121.275 108.609C120.822 107.123 120.247 105.451 119.581 103.618L118.229 100.898L118.251 100.922L115.655 99.0416H115.706L112.945 99.4632L113.006 99.3986C112.919 99.8428 112.72 100.253 112.431 100.585C112.273 100.755 112.073 100.873 111.854 100.925C111.634 100.965 111.408 100.944 111.197 100.864L109.848 100.096L109.763 100.048L109.823 99.9698L111.346 97.9298L111.47 98.0386C111.063 98.5477 110.58 98.9818 110.042 99.3238C109.764 99.5041 109.451 99.6134 109.128 99.6434C108.788 99.6661 108.454 99.5439 108.198 99.3034L107.744 98.7424L107.69 98.6778L107.751 98.62L109.249 97.2226L109.353 97.362C109.061 97.5849 108.74 97.7623 108.401 97.889C108.222 97.9531 108.031 97.9762 107.843 97.957C107.742 97.9437 107.646 97.9062 107.56 97.8473C107.475 97.7885 107.404 97.7097 107.351 97.617L107.329 97.5728L107.351 97.5286L107.941 96.3794L108.785 94.7372L108.858 94.8664C108.355 94.8828 107.855 94.7734 107.398 94.5468C107.168 94.4285 106.975 94.2406 106.843 94.0062C106.73 93.7682 106.685 93.4998 106.713 93.2344V93.1834L106.761 93.163L114.037 90.103H114.066H114.094L123.126 93.8396H123.154V93.8702L125.455 99.9086C126.15 101.687 126.724 103.244 127.286 104.478C127.436 104.757 127.609 105.021 127.803 105.267C127.978 105.505 128.149 105.726 128.308 105.93L129.126 106.95L129.634 107.579L129.824 107.814Z" fill="#EB996E"/>
<path d="M108.731 94.9247C108.768 94.8194 108.823 94.7224 108.893 94.6391C109.065 94.3954 109.269 94.18 109.499 93.9999C110.086 93.5545 110.915 93.0037 111.829 92.3747C112.743 91.7457 113.568 91.1881 114.202 90.8175C114.331 90.7412 114.473 90.6948 114.62 90.6814C114.766 90.6679 114.914 90.6876 115.053 90.7393C115.246 90.8277 115.303 90.9501 115.297 90.9535C115.215 90.8916 115.125 90.8413 115.031 90.8039C114.9 90.7691 114.765 90.7623 114.632 90.7839C114.499 90.8055 114.371 90.855 114.256 90.9297C113.656 91.3173 112.835 91.9123 111.917 92.5243L109.569 94.1019C109.262 94.3422 108.981 94.6181 108.731 94.9247Z" fill="#EB996E"/>
<path d="M119.666 94.8088C119.497 94.7898 119.329 94.7557 119.165 94.7068C118.848 94.6286 118.388 94.5028 117.826 94.3226C117.264 94.1424 116.604 93.9078 115.881 93.6052C115.534 93.4082 115.143 93.3143 114.751 93.3332C114.326 93.3943 113.907 93.492 113.498 93.6256C113.088 93.7522 112.701 93.9498 112.352 94.2104C112.034 94.4712 111.736 94.7589 111.46 95.0706C110.918 95.6554 110.426 96.1892 110.001 96.6176C109.575 97.046 109.214 97.3792 108.953 97.5934C108.823 97.6988 108.718 97.7804 108.636 97.828C108.553 97.8756 108.525 97.9028 108.522 97.896C108.642 97.7696 108.77 97.6504 108.903 97.539C109.15 97.3112 109.496 96.9678 109.908 96.519C110.321 96.0702 110.803 95.5398 111.343 94.9448C111.622 94.6247 111.924 94.3291 112.247 94.0608C112.61 93.7874 113.012 93.5795 113.437 93.4454C113.859 93.3103 114.289 93.2114 114.726 93.1496C114.939 93.1222 115.155 93.1442 115.36 93.2142C115.56 93.2822 115.741 93.3706 115.922 93.4454C116.636 93.7514 117.29 93.9996 117.845 94.1934C118.4 94.3872 118.851 94.5334 119.165 94.632C119.336 94.6766 119.504 94.7357 119.666 94.8088Z" fill="#EB996E"/>
<path d="M120.587 97.9199C120.455 97.9035 120.325 97.8692 120.2 97.8179L119.166 97.4779L117.636 96.9441L116.738 96.6245C116.427 96.499 116.109 96.3956 115.786 96.3151C115.147 96.23 114.498 96.3582 113.93 96.6823C113.371 96.9475 112.844 97.1073 112.435 97.3113C111.992 97.5359 111.593 97.8472 111.258 98.2293C111.258 98.2293 111.258 98.1919 111.312 98.1307C111.37 98.0454 111.432 97.9637 111.499 97.8859C111.752 97.6025 112.052 97.3719 112.384 97.2059C112.8 96.9849 113.336 96.8115 113.869 96.5429C114.159 96.4001 114.461 96.2863 114.77 96.2029C115.112 96.1062 115.47 96.0911 115.818 96.1587C116.151 96.2434 116.48 96.3501 116.801 96.4783L117.699 96.8183L119.216 97.3861L120.232 97.7873C120.354 97.8202 120.473 97.8646 120.587 97.9199Z" fill="#EB996E"/>
<path d="M111.876 120.472C111.819 120.488 111.761 120.497 111.702 120.499C111.591 120.499 111.422 120.52 111.207 120.523C110.596 120.536 109.986 120.484 109.385 120.367C108.968 120.287 108.559 120.161 108.167 119.989C107.716 119.782 107.305 119.49 106.951 119.126C106.138 118.316 105.408 117.416 104.774 116.44C104.083 115.42 103.429 114.447 102.896 113.512C102.415 112.69 102.018 111.814 101.712 110.901C101.507 110.283 101.379 109.638 101.331 108.984C101.315 108.807 101.309 108.63 101.315 108.453C101.308 108.391 101.308 108.328 101.315 108.266C101.331 108.266 101.331 108.521 101.382 108.977C101.453 109.619 101.596 110.251 101.807 110.857C102.127 111.755 102.531 112.616 103.013 113.427C103.549 114.349 104.206 115.318 104.895 116.334C105.523 117.3 106.242 118.194 107.04 119.003C107.691 119.661 108.511 120.093 109.395 120.244C109.988 120.371 110.59 120.441 111.194 120.455C111.635 120.469 111.873 120.459 111.876 120.472Z" fill="#37474F"/>
<path d="M129.809 106.593C129.833 106.649 129.848 106.709 129.853 106.77C129.884 106.945 129.9 107.122 129.901 107.3C129.893 107.955 129.75 108.599 129.482 109.187C129.083 110.053 128.581 110.859 127.987 111.584C127.353 112.421 126.597 113.305 125.766 114.189C124.935 115.073 124.103 115.862 123.319 116.545C122.636 117.174 121.905 117.742 121.136 118.245C120.612 118.581 120.026 118.791 119.419 118.86C119.255 118.878 119.089 118.878 118.924 118.86C118.866 118.857 118.808 118.846 118.753 118.826C118.753 118.806 118.991 118.854 119.413 118.806C120.004 118.712 120.572 118.489 121.079 118.15C121.831 117.64 122.547 117.072 123.221 116.45C123.998 115.77 124.824 114.967 125.649 114.094C126.474 113.22 127.235 112.339 127.87 111.51C128.461 110.8 128.967 110.013 129.374 109.167C129.646 108.595 129.804 107.969 129.837 107.328C129.847 106.845 129.79 106.597 129.809 106.593Z" fill="#37474F"/>
<g opacity="0.2">
<path opacity="0.2" d="M105.158 128.84C103.768 130.577 102.604 131.461 102.058 133.671C101.598 135.534 101.106 138.859 99.2972 142.368C96.7141 147.404 93.6994 151.888 90.2722 154.724C96.219 153.551 101.125 148.543 103.029 142.392C104.025 139.176 104.171 135.701 105.25 132.532C106.177 129.839 107.754 127.449 109.547 125.317C110.582 124.09 111.473 122.774 111.546 121.118C109.601 123.165 107.275 126.194 105.158 128.84Z" fill="#0A1D47"/>
</g>
<g opacity="0.2">
<path opacity="0.2" d="M78.8161 139.597C78.2117 141.496 77.3232 143.277 76.1854 144.87C75.4587 144.085 75.2334 142.875 75.4079 141.783C75.6196 140.697 76.0305 139.666 76.617 138.75C79.7237 133.423 84.2329 129.142 88.9136 125.351C87.4575 127.413 85.8948 129.386 84.2329 131.26C82.1163 133.62 79.8347 136.132 78.8161 139.597Z" fill="#0A1D47"/>
</g>
<path d="M119.118 125.752C119.099 125.816 119.072 125.877 119.038 125.933L118.781 126.432C118.559 126.864 118.213 127.476 117.766 128.221C117.318 128.965 116.757 129.832 116.103 130.767C115.449 131.702 114.681 132.699 113.84 133.705C113 134.711 112.143 135.616 111.346 136.425C110.55 137.234 109.801 137.911 109.157 138.465C108.512 139.019 107.979 139.451 107.599 139.733L107.164 140.073C107.115 140.114 107.061 140.15 107.005 140.179C107.046 140.128 107.093 140.083 107.145 140.046L107.56 139.706C107.929 139.407 108.449 138.961 109.08 138.397C109.712 137.833 110.451 137.136 111.245 136.337C112.038 135.538 112.873 134.62 113.717 133.617C114.561 132.614 115.303 131.621 115.979 130.699C116.655 129.778 117.211 128.918 117.668 128.183C118.124 127.449 118.486 126.847 118.727 126.426C118.842 126.232 118.934 126.086 119.01 125.946C119.039 125.878 119.076 125.813 119.118 125.752Z" fill="#37474F"/>
<g opacity="0.2">
<path opacity="0.2" d="M149.413 136.758L150.131 137.809C151.388 134.519 151.418 130.836 150.213 127.524C149.004 124.253 146.554 121.988 143.549 120.54C144.876 121.37 145.745 122.339 146.795 123.399C149.413 126.041 150.099 129.421 149.401 136.758" fill="#0A1D47"/>
</g>
<path d="M137.79 92.5173C138.25 92.2181 138.742 92.1161 139.119 91.8951C139.497 91.6741 140.071 91.7625 140.176 92.1977C140.309 92.6873 139.792 93.0749 139.357 93.2857C140.357 93.8025 141.721 92.6669 142.581 93.4149C143.146 93.9045 143.013 94.9313 142.492 95.4719C141.972 96.0125 141.223 96.1791 140.49 96.2675C139.757 96.3559 139.021 96.4069 138.386 96.7843C138.069 96.9815 137.752 97.3657 137.856 97.7533C138.053 98.4095 139.195 98.2701 139.335 98.9433C139.43 99.3989 138.957 99.7355 138.561 99.9293L134.232 102.02C133.866 102.245 133.451 102.362 133.03 102.36C132.82 102.35 132.622 102.255 132.475 102.095C132.328 101.935 132.242 101.721 132.236 101.497C132.281 101.058 132.719 100.786 133.128 100.721C133.539 100.712 133.948 100.667 134.353 100.589C134.746 100.46 135.105 100.021 134.962 99.6063C134.781 99.0929 134.096 99.1371 133.601 99.2663L129.003 100.575C128.672 100.702 128.316 100.733 127.971 100.664C127.802 100.62 127.655 100.508 127.561 100.351C127.467 100.193 127.433 100.004 127.467 99.8205C127.543 99.6434 127.665 99.4935 127.819 99.3887C128.919 98.5066 130.188 97.8969 131.535 97.6037C132.051 97.5379 132.553 97.3841 133.023 97.1481C133.474 96.8727 133.826 96.3185 133.702 95.7881C132.754 96.1561 131.769 96.4071 130.767 96.5361C130.412 96.5837 129.942 96.5361 129.84 96.1689C129.739 95.8017 130.126 95.4889 130.475 95.3019L135.819 92.4799C136.273 92.2419 136.793 91.9971 137.269 92.1807L137.79 92.5173Z" fill="white"/>
<path d="M53.198 145.891V146.231H51.6748V145.955L52.4967 145.122C52.6966 144.915 52.7315 144.782 52.7315 144.663C52.7315 144.459 52.6014 144.344 52.3475 144.344C52.2557 144.338 52.164 144.356 52.0801 144.396C51.9961 144.436 51.9225 144.498 51.8652 144.575L51.5955 144.354C51.6906 144.231 51.8114 144.133 51.9481 144.07C52.0848 144.006 52.2336 143.977 52.3824 143.987C52.8299 143.987 53.1187 144.228 53.1187 144.622C53.1165 144.759 53.0843 144.893 53.0248 145.015C52.9652 145.136 52.88 145.24 52.7759 145.319L52.2238 145.884L53.198 145.891Z" fill="#37474F"/>
<path d="M53.4074 144.793C53.408 144.742 53.4227 144.692 53.4496 144.65C53.4765 144.608 53.5144 144.575 53.5585 144.556C53.6026 144.537 53.651 144.533 53.6976 144.543C53.7441 144.553 53.7868 144.578 53.8202 144.614C53.8536 144.651 53.8763 144.697 53.8853 144.747C53.8944 144.797 53.8894 144.849 53.8711 144.896C53.8527 144.943 53.8218 144.983 53.7822 145.011C53.7427 145.039 53.6962 145.054 53.6486 145.054C53.6164 145.055 53.5844 145.049 53.5545 145.036C53.5246 145.023 53.4975 145.004 53.4749 144.98C53.4523 144.955 53.4346 144.926 53.423 144.894C53.4114 144.861 53.4061 144.827 53.4074 144.793ZM53.4074 146C53.4074 145.931 53.4328 145.865 53.4781 145.817C53.5233 145.768 53.5846 145.741 53.6486 145.741C53.7126 145.741 53.7739 145.768 53.8191 145.817C53.8644 145.865 53.8898 145.931 53.8898 146C53.8898 146.068 53.8644 146.134 53.8191 146.182C53.7739 146.231 53.7126 146.258 53.6486 146.258C53.5846 146.258 53.5233 146.231 53.4781 146.182C53.4328 146.134 53.4074 146.068 53.4074 146Z" fill="#37474F"/>
<path d="M54.8512 144.024V146.237H54.4704V144.367H54.0325V144.027L54.8512 144.024Z" fill="#37474F"/>
<path d="M57.1203 145.734H56.7395V146.237H56.3682V145.734H55.2322V145.452L56.2508 144.024H56.6633L55.7113 145.384H56.3873V144.942H56.749V145.387H57.1203V145.734Z" fill="#37474F"/>
<path d="M160.53 145.282H60.0906V145.826H160.53V145.282Z" fill="white"/>
<path d="M93.655 144.697H58.8562V146.149H93.655V144.697Z" fill="#FF9F1C"/>
<path d="M95.9301 145.554C95.9301 145.913 95.8308 146.264 95.6446 146.563C95.4584 146.861 95.1937 147.094 94.8841 147.231C94.5744 147.369 94.2337 147.405 93.905 147.335C93.5763 147.265 93.2743 147.092 93.0373 146.838C92.8004 146.584 92.639 146.26 92.5736 145.908C92.5082 145.556 92.5418 145.191 92.67 144.859C92.7983 144.527 93.0155 144.244 93.2941 144.044C93.5728 143.845 93.9004 143.738 94.2356 143.738C94.685 143.738 95.116 143.93 95.4338 144.27C95.7516 144.611 95.9301 145.072 95.9301 145.554Z" fill="#FF9F1C"/>
<path d="M163.316 145.717C163.314 145.822 163.291 145.925 163.25 146.021C163.209 146.116 163.15 146.201 163.077 146.271C163.003 146.34 162.917 146.393 162.824 146.425C162.731 146.457 162.633 146.469 162.535 146.458C161.955 146.458 161.612 146.057 161.612 145.319C161.612 144.582 162.04 144.106 162.659 144.106C162.855 144.099 163.049 144.149 163.221 144.252L163.072 144.571C162.95 144.493 162.81 144.455 162.669 144.463C162.266 144.463 162.012 144.731 162.012 145.248C162.085 145.166 162.174 145.103 162.273 145.062C162.371 145.021 162.477 145.003 162.583 145.01C162.675 145 162.769 145.011 162.857 145.042C162.945 145.073 163.026 145.123 163.095 145.19C163.164 145.256 163.22 145.338 163.258 145.429C163.296 145.519 163.316 145.618 163.316 145.717ZM162.932 145.734C162.932 145.496 162.764 145.347 162.507 145.347C162.454 145.34 162.4 145.345 162.35 145.361C162.299 145.378 162.251 145.405 162.211 145.442C162.17 145.478 162.137 145.523 162.113 145.574C162.089 145.625 162.075 145.681 162.072 145.738C162.072 145.955 162.231 146.125 162.516 146.125C162.568 146.132 162.621 146.127 162.67 146.11C162.72 146.094 162.766 146.066 162.806 146.029C162.845 145.992 162.876 145.947 162.898 145.896C162.92 145.845 162.931 145.79 162.932 145.734Z" fill="#37474F"/>
<path d="M163.51 144.932C163.51 144.86 163.536 144.792 163.583 144.742C163.63 144.691 163.694 144.663 163.76 144.663C163.827 144.663 163.89 144.691 163.937 144.742C163.984 144.792 164.011 144.86 164.011 144.932C164.011 145.003 163.984 145.071 163.937 145.122C163.89 145.172 163.827 145.2 163.76 145.2C163.694 145.2 163.63 145.172 163.583 145.122C163.536 145.071 163.51 145.003 163.51 144.932ZM163.51 146.176C163.51 146.105 163.536 146.037 163.583 145.986C163.63 145.936 163.694 145.907 163.76 145.907C163.827 145.907 163.89 145.936 163.937 145.986C163.984 146.037 164.011 146.105 164.011 146.176C164.011 146.247 163.984 146.316 163.937 146.366C163.89 146.416 163.827 146.445 163.76 146.445C163.694 146.445 163.63 146.416 163.583 146.366C163.536 146.316 163.51 146.247 163.51 146.176Z" fill="#37474F"/>
<path d="M164.265 145.282C164.265 144.53 164.649 144.105 165.157 144.105C165.664 144.105 166.048 144.53 166.048 145.282C166.048 146.033 165.664 146.458 165.157 146.458C164.649 146.458 164.265 146.033 164.265 145.282ZM165.648 145.282C165.648 144.731 165.449 144.476 165.157 144.476C164.865 144.476 164.665 144.731 164.665 145.282C164.665 145.833 164.865 146.088 165.157 146.088C165.449 146.088 165.648 145.833 165.648 145.282Z" fill="#37474F"/>
<path d="M166.315 145.282C166.315 144.53 166.699 144.105 167.206 144.105C167.714 144.105 168.098 144.53 168.098 145.282C168.098 146.033 167.714 146.458 167.206 146.458C166.699 146.458 166.315 146.033 166.315 145.282ZM167.698 145.282C167.698 144.731 167.498 144.476 167.206 144.476C166.914 144.476 166.715 144.731 166.715 145.282C166.715 145.833 166.914 146.088 167.206 146.088C167.498 146.088 167.698 145.833 167.698 145.282Z" fill="#37474F"/>
<path d="M171.601 145.081H171.176V143.772H172.398V144.225H171.601V145.081Z" fill="#37474F"/>
<path d="M172.398 146.791H171.176V145.482H171.601V146.336H172.398V146.791Z" fill="#37474F"/>
<path d="M174.346 146.791H173.125V146.336H173.924V145.482H174.346V146.791Z" fill="#37474F"/>
<path d="M174.346 145.078H173.924V144.225H173.125V143.772H174.346V145.078Z" fill="#37474F"/>
<path d="M59.6444 58.7997C60.6186 57.6678 60.5519 55.9039 59.4954 54.8601C58.4389 53.8163 56.7927 53.8878 55.8184 55.0197C54.8442 56.1517 54.9109 57.9155 55.9674 58.9593C57.0239 60.0031 58.6701 59.9317 59.6444 58.7997Z" fill="#E0E0E0"/>
<path d="M60.3319 56.9054C60.3129 56.9054 60.3319 56.6538 60.2177 56.2254C60.0913 55.722 59.8343 55.2674 59.4765 54.9141C59.1187 54.5609 58.6748 54.3235 58.1962 54.2296C57.7505 54.1437 57.2914 54.1871 56.8666 54.3554C56.3987 54.5399 55.9924 54.8688 55.6988 55.3006C55.3796 55.7625 55.2073 56.3221 55.2073 56.8969C55.2073 57.4717 55.3796 58.0312 55.6988 58.4932C55.9924 58.925 56.3987 59.2539 56.8666 59.4384C57.2643 59.596 57.6925 59.6443 58.1122 59.5789C58.5318 59.5136 58.9294 59.3367 59.2688 59.0644C59.7341 58.6946 60.0695 58.1675 60.2208 57.5684C60.3256 57.1468 60.316 56.8884 60.3351 56.8884C60.342 56.9471 60.342 57.0065 60.3351 57.0652C60.3362 57.2371 60.317 57.4084 60.278 57.5752C60.1623 58.104 59.9063 58.5857 59.5409 58.9621C59.1754 59.3386 58.7162 59.5937 58.2185 59.6968C57.7229 59.7991 57.2105 59.749 56.7404 59.5523C56.2704 59.3555 55.8619 59.0201 55.5624 58.585C55.2208 58.0937 55.0364 57.4975 55.0364 56.885C55.0364 56.2724 55.2208 55.6762 55.5624 55.185C55.7186 54.9495 55.9106 54.7438 56.1304 54.5764C56.3356 54.4086 56.565 54.2777 56.8095 54.1888C57.2599 54.0154 57.7455 53.9755 58.2153 54.0732C58.713 54.1763 59.1723 54.4314 59.5377 54.8079C59.9031 55.1843 60.1591 55.666 60.2748 56.1948C60.3138 56.3615 60.333 56.5329 60.3319 56.7048C60.3405 56.7713 60.3405 56.8388 60.3319 56.9054Z" fill="#37474F"/>
<path d="M102.499 56.5044C102.499 56.552 93.7277 56.5928 82.9098 56.5928C72.0919 56.5928 63.3208 56.552 63.3208 56.5044C63.3208 56.4568 72.0887 56.416 82.9098 56.416C93.7309 56.416 102.499 56.4398 102.499 56.5044Z" fill="#37474F"/>
<path d="M151.878 58.2993C152.918 57.1839 152.918 55.3756 151.878 54.2603C150.837 53.1449 149.149 53.1449 148.108 54.2603C147.067 55.3756 147.067 57.1839 148.108 58.2993C149.149 59.4146 150.837 59.4146 151.878 58.2993Z" fill="#E0E0E0"/>
<path d="M160.014 58.2993C161.055 57.1839 161.055 55.3756 160.014 54.2603C158.973 53.145 157.285 53.145 156.244 54.2603C155.203 55.3756 155.203 57.1839 156.244 58.2993C157.285 59.4146 158.973 59.4146 160.014 58.2993Z" fill="#E0E0E0"/>
<path d="M167.279 58.919C168.641 58.3184 169.29 56.6492 168.729 55.1907C168.169 53.7321 166.611 53.0366 165.249 53.6372C163.888 54.2378 163.239 55.907 163.8 57.3655C164.36 58.824 165.918 59.5195 167.279 58.919Z" fill="#E0E0E0"/>
<path d="M61.6575 121.917C62.1272 120.166 63.1395 118.473 64.7007 117.752C66.3255 117.001 68.2073 117.429 69.8701 118.075C71.5329 118.721 73.1672 119.592 74.9474 119.707C76.7277 119.823 78.7078 118.925 79.2378 117.116C79.7328 115.416 78.7776 113.601 77.5781 112.356C76.3111 111.052 74.7581 110.11 73.0621 109.617C71.3662 109.125 69.5818 109.097 67.8733 109.538C66.1649 109.978 64.5873 110.872 63.2859 112.137C61.9844 113.402 61.0011 114.997 60.4263 116.776" fill="#FF9F1C"/>
<g opacity="0.3">
<path opacity="0.3" d="M77.5655 112.367C76.2984 111.062 74.7454 110.12 73.0495 109.628C71.3535 109.135 69.5691 109.108 67.8606 109.548C66.1522 109.988 64.5746 110.882 63.2732 112.147C61.9717 113.412 60.9884 115.008 60.4136 116.787L61.6575 121.928C62.1272 120.177 63.1395 118.483 64.7007 117.763C66.3255 117.011 68.2073 117.44 69.8701 118.086C71.5329 118.732 73.1672 119.602 74.9475 119.718C76.7277 119.833 78.7079 118.936 79.2378 117.127C79.7201 115.417 78.765 113.601 77.5655 112.367Z" fill="#0A1D47"/>
</g>
<path d="M47.66 129.52C45.0706 126.885 45.2007 122.292 46.4922 118.722C47.7838 115.152 50.6175 112.408 53.7591 110.602C56.8356 108.872 60.2378 107.91 63.7107 107.789C67.1835 107.669 70.6368 108.392 73.8114 109.905C72.2572 109.977 70.743 110.456 69.4015 111.3C68.0599 112.144 66.9319 113.328 66.1161 114.747C64.6944 117.273 64.3803 120.34 63.2061 123.009C61.8837 126.019 59.5345 128.372 56.6421 129.583C53.7497 130.795 50.5341 130.772 47.6568 129.52" fill="#FF9F1C"/>
<path d="M46.4159 113.672C43.5599 110.044 43.1633 104.22 43.5885 99.4841C44.0137 94.7479 45.0324 89.9879 44.3374 85.2891C43.9249 82.5079 42.9157 79.8491 42.5762 77.0577C42.2367 74.2663 42.719 71.1043 44.7372 69.2989C47.0601 67.2283 50.719 67.7145 53.1339 69.6627C55.5488 71.6109 56.9419 74.6641 57.9732 77.7139C60.2199 84.4085 61.045 91.8307 59.1981 98.6647C57.3512 105.499 53.0196 111.612 46.6635 113.672" fill="#FF9F1C"/>
<path d="M45.0387 143.446C45.0262 143.307 45.0262 143.167 45.0387 143.028C45.0387 142.756 45.0387 142.348 45.0577 141.831C45.0958 140.787 45.1878 139.284 45.4068 137.435C45.6617 135.269 46.0294 133.12 46.5079 130.998C47.1051 128.393 48.0273 125.887 49.2497 123.546C50.4784 121.209 51.9846 119.052 53.7304 117.13C55.1515 115.561 56.7249 114.159 58.4238 112.948C59.141 112.414 59.8359 112.013 60.4325 111.639C61.0291 111.265 61.5781 111.013 62.0192 110.785L63.0505 110.32C63.1681 110.261 63.2902 110.213 63.4154 110.177C63.3046 110.249 63.189 110.313 63.0695 110.367L62.0573 110.874C61.6289 111.115 61.1052 111.408 60.4991 111.765C59.893 112.122 59.2298 112.557 58.5222 113.097C54.7834 115.83 51.6822 119.448 49.4591 123.671C46.8221 128.615 46.0986 133.814 45.575 137.458C45.337 139.298 45.2196 140.797 45.1529 141.834C45.1275 142.334 45.1053 142.735 45.0895 143.031C45.0826 143.17 45.0657 143.309 45.0387 143.446Z" fill="#37474F"/>
<path d="M20.2901 99.3584C14.9811 102.789 15.0002 105.914 15.8855 108.861C16.7709 111.809 20.0299 113.859 22.7304 112.754C24.2568 112.129 25.3643 110.714 26.3099 109.28C27.2556 107.845 28.1409 106.322 29.4642 105.295C30.7875 104.268 32.7074 103.877 34.0402 104.894" fill="#FF9F1C"/>
<g opacity="0.3">
<path opacity="0.3" d="M20.2901 99.3584C14.9811 102.789 15.0002 105.914 15.8855 108.861C16.7709 111.809 20.0299 113.859 22.7304 112.754C24.2568 112.129 25.3643 110.714 26.3099 109.28C27.2556 107.845 28.1409 106.322 29.4642 105.295C30.3768 104.569 31.505 104.224 32.6376 104.326L20.2901 99.3584Z" fill="#0A1D47"/>
</g>
<path d="M32.6313 104.326L34.0403 104.893C33.6228 104.58 33.1382 104.385 32.6313 104.326Z" fill="#0A1D47"/>
<path d="M16.3169 103.122C17.7036 101.065 21.134 100.47 23.2982 101.497C25.4624 102.524 27.0491 104.557 28.4708 106.597C29.8924 108.637 31.2728 110.772 33.2308 112.183C35.1887 113.594 37.9463 114.107 39.8948 112.686C41.1831 111.751 41.9289 110.126 42.1637 108.48C42.3985 106.835 42.1637 105.152 41.8464 103.52C41.3799 101.14 40.6151 98.6442 38.8317 97.1278C36.8484 95.4278 34.0907 95.3598 31.5584 95.4482C28.6485 95.5502 25.6973 95.7882 22.9682 96.8626C20.2391 97.937 17.4561 100.263 16.3042 103.136" fill="#FF9F1C"/>
<path d="M40.6182 138.89C40.6182 138.89 40.6182 138.849 40.6182 138.768C40.6182 138.686 40.6182 138.55 40.5992 138.401C40.5992 138.061 40.5738 137.585 40.5548 136.99C40.5199 135.742 40.4754 133.974 40.4151 131.798C40.3548 129.622 40.2692 126.997 40.12 124.104C39.9709 121.21 39.7678 118.028 39.3584 114.716C39.1861 113.107 38.8921 111.515 38.4794 109.956C38.0571 108.516 37.5121 107.121 36.8515 105.788C36.2588 104.578 35.5708 103.425 34.7952 102.34C34.1136 101.399 33.3634 100.516 32.5516 99.7018C31.3684 98.5298 30.0295 97.5525 28.5786 96.8016C28.3216 96.6724 28.0931 96.5466 27.89 96.4616L27.3727 96.2202L27.0554 96.0842C26.9824 96.0502 26.9475 96.0332 26.9475 96.0264C26.9866 96.0314 27.025 96.0417 27.0617 96.057L27.3791 96.1726L27.909 96.3664C28.1153 96.448 28.3438 96.567 28.6103 96.686C30.0871 97.4127 31.4515 98.377 32.6563 99.5454C33.4834 100.358 34.2475 101.242 34.9411 102.187C35.7293 103.278 36.4279 104.439 37.0292 105.659C37.7024 107.002 38.257 108.41 38.6857 109.864C39.1045 111.437 39.4027 113.044 39.5774 114.669C39.9899 117.994 40.1835 121.18 40.3231 124.076C40.4627 126.973 40.5262 129.584 40.5675 131.777C40.6087 133.97 40.6246 135.745 40.6309 136.973C40.6309 137.571 40.6309 138.044 40.6309 138.387C40.6309 138.533 40.6309 138.656 40.6309 138.754C40.6319 138.8 40.6276 138.846 40.6182 138.89Z" fill="#37474F"/>
<path d="M42.5381 141.46C42.2847 140.664 42.0894 139.848 41.9542 139.019C41.5874 136.754 41.5063 134.446 41.713 132.158C42.0366 128.768 42.7146 125.427 43.7345 122.199C44.8229 118.541 46.3049 114.628 47.5678 110.422C48.1899 108.378 48.6985 106.297 49.091 104.19C49.4416 102.229 49.6927 100.25 49.8431 98.26C50.0853 94.8767 50.1425 91.4811 50.0145 88.0906C49.9225 85.1938 49.7765 82.8546 49.6972 81.2328C49.6527 80.4372 49.621 79.8116 49.5956 79.3696C49.5956 79.169 49.5956 79.0092 49.5734 78.8834C49.5692 78.8291 49.5692 78.7745 49.5734 78.7202C49.5886 78.7732 49.5971 78.828 49.5988 78.8834C49.5988 79.0058 49.6242 79.1656 49.6432 79.3662C49.6781 79.8082 49.7257 80.4304 49.7892 81.226C49.9066 82.8444 50.078 85.187 50.189 88.0838C50.3439 91.4832 50.3047 94.8896 50.0716 98.2838C49.9265 100.288 49.6786 102.282 49.329 104.258C48.934 106.369 48.4211 108.454 47.7932 110.5C46.5238 114.719 45.0419 118.626 43.9439 122.274C42.9229 125.484 42.2334 128.804 41.8876 132.175C41.6686 134.449 41.7251 136.744 42.0558 139.002C42.1859 139.798 42.3065 140.417 42.4112 140.828C42.4556 141.021 42.4905 141.177 42.5159 141.297C42.528 141.351 42.5355 141.405 42.5381 141.46Z" fill="#37474F"/>
<path d="M55.6982 144.031H30.7716L30.2036 138.89H55.6982V144.031Z" fill="#1E2959"/>
<path d="M33.4465 143.446L36.5627 158.869H50.1065L53.0228 143.446H33.4465Z" fill="#1E2959"/>
<path d="M55.6981 144.031C55.6981 144.102 50.2177 144.143 43.4585 144.123C36.6993 144.102 31.219 144.028 31.219 143.96C31.219 143.892 36.6993 143.847 43.4585 143.868C50.2177 143.888 55.6981 143.963 55.6981 144.031Z" fill="#1E2959"/>
<path d="M51.4077 151.64C50.7308 151.092 49.9932 150.635 49.2118 150.28C48.361 149.92 47.4574 149.726 46.543 149.705C45.4222 149.708 44.311 149.926 43.2618 150.348C42.1257 150.759 41.0627 151.239 40.0313 151.504C39.1133 151.715 38.1669 151.745 37.2388 151.592C36.6128 151.497 36.0058 151.292 35.4427 150.984C35.2929 150.897 35.1488 150.799 35.0111 150.691C34.9159 150.617 34.8715 150.572 34.8747 150.566C34.8778 150.559 35.0873 150.698 35.4839 150.906C36.049 151.172 36.6479 151.348 37.261 151.426C38.1685 151.554 39.0899 151.512 39.9837 151.3C40.9833 151.031 42.0432 150.549 43.1888 150.134C44.2632 149.699 45.404 149.482 46.5525 149.495C47.4902 149.526 48.4143 149.743 49.2784 150.134C49.8596 150.396 50.4059 150.739 50.9032 151.154C51.0381 151.259 51.1673 151.373 51.2903 151.494C51.3354 151.537 51.3749 151.586 51.4077 151.64Z" fill="#37474F"/>
<path d="M51.2299 152.66C50.5765 152.133 49.8696 151.687 49.1228 151.331C48.3052 150.972 47.4325 150.78 46.5492 150.763C45.466 150.765 44.3918 150.972 43.3759 151.375C42.2779 151.766 41.2465 152.222 40.2628 152.507C39.3931 152.781 38.4866 152.896 37.5813 152.847C36.9692 152.808 36.371 152.636 35.8233 152.341C35.6756 152.259 35.5344 152.165 35.4013 152.058C35.3124 151.984 35.268 151.943 35.2712 151.936C35.2743 151.929 35.4774 152.065 35.8614 152.252C36.4093 152.503 36.9955 152.643 37.5909 152.667C38.4754 152.696 39.3585 152.571 40.2057 152.296C41.1577 152.007 42.1922 151.548 43.3029 151.151C44.344 150.74 45.4461 150.535 46.5555 150.545C47.4636 150.573 48.358 150.789 49.1894 151.181C49.7488 151.445 50.2728 151.788 50.7475 152.201C50.877 152.307 51.0009 152.421 51.1188 152.541C51.1949 152.619 51.2362 152.66 51.2299 152.66Z" fill="white"/>
<path d="M51.6678 150.62C50.9667 150.059 50.2101 149.583 49.4116 149.199C48.544 148.798 47.6189 148.559 46.6762 148.492C45.5194 148.467 44.3693 148.684 43.2902 149.131C42.1161 149.556 41.0245 150.066 39.9455 150.304C38.9909 150.478 38.0156 150.478 37.061 150.304C36.4184 150.197 35.7946 149.986 35.2109 149.678C35.0543 149.59 34.9037 149.49 34.7603 149.379C34.6619 149.301 34.6143 149.257 34.6207 149.25C34.627 149.243 34.8396 149.386 35.2553 149.59C35.8427 149.857 36.4606 150.039 37.0927 150.131C38.0287 150.276 38.9805 150.257 39.9106 150.073C40.9451 149.835 42.0399 149.318 43.2204 148.893C44.3265 148.431 45.5089 148.216 46.6952 148.261C47.6605 148.337 48.6053 148.599 49.4846 149.032C50.0774 149.317 50.6358 149.678 51.1474 150.107C51.2875 150.22 51.4211 150.343 51.5472 150.474C51.6297 150.566 51.671 150.62 51.6678 150.62Z" fill="white"/>
<path d="M55.9172 144.054C55.9172 144.126 50.3099 144.18 43.3953 144.18C36.4806 144.18 30.8733 144.126 30.8733 144.054C30.8733 143.983 36.4774 143.925 43.3953 143.925C50.3131 143.925 55.9172 143.983 55.9172 144.054Z" fill="#37474F"/>
<path d="M203.899 81.7905H201.094V83.9665H203.899V81.7905Z" fill="#1E2959"/>
<path d="M180.366 64.1582H175.539V79.2576H180.366V64.1582Z" fill="#FF9F1C"/>
<g opacity="0.3">
<path opacity="0.3" d="M180.366 64.1582H175.539V79.2576H180.366V64.1582Z" fill="#0A1D47"/>
</g>
<path d="M180.366 62.9238V80.3114H194.183L197.473 78.1966V65.3888L194.129 62.9238H180.366Z" fill="#FF9F1C"/>
<path d="M185.681 62.9238H184.628V80.3148H185.681V62.9238Z" fill="#1E2959"/>
<path d="M191.615 80.1653C191.577 80.1653 191.545 76.3267 191.545 71.5939C191.545 66.8611 191.577 63.0225 191.615 63.0225C191.653 63.0225 191.688 66.8611 191.688 71.5939C191.688 76.3267 191.669 80.1653 191.615 80.1653Z" fill="#37474F"/>
<path d="M191.498 76.9015C189.56 77.0057 187.619 77.0057 185.681 76.9015C185.681 76.8607 186.982 76.8267 188.591 76.8267C190.2 76.8267 191.498 76.8607 191.498 76.9015Z" fill="#37474F"/>
<path d="M191.498 75.9391C189.56 76.0433 187.619 76.0433 185.681 75.9391C185.681 75.8983 186.982 75.8643 188.591 75.8643C190.2 75.8643 191.498 75.8983 191.498 75.9391Z" fill="#37474F"/>
<path d="M191.498 74.9767C189.56 75.0809 187.619 75.0809 185.681 74.9767C185.681 74.9359 186.982 74.9019 188.591 74.9019C190.2 74.9019 191.498 74.9359 191.498 74.9767Z" fill="#37474F"/>
<path d="M191.498 74.0147C189.56 74.119 187.619 74.119 185.681 74.0147C185.681 73.9739 186.982 73.9399 188.591 73.9399C190.2 73.9399 191.498 73.9739 191.498 74.0147Z" fill="#37474F"/>
<path d="M191.498 73.0523C189.56 73.1566 187.619 73.1566 185.681 73.0523C185.681 73.0115 186.982 72.9775 188.591 72.9775C190.2 72.9775 191.498 73.0115 191.498 73.0523Z" fill="#37474F"/>
<path d="M191.498 72.0802C189.56 72.1844 187.619 72.1844 185.681 72.0802C185.681 72.0394 186.982 72.0054 188.591 72.0054C190.2 72.0054 191.498 72.0496 191.498 72.0802Z" fill="#37474F"/>
<path d="M191.498 71.128C189.56 71.2323 187.619 71.2323 185.681 71.128C185.681 71.0872 186.982 71.0532 188.591 71.0532C190.2 71.0532 191.498 71.0872 191.498 71.128Z" fill="#37474F"/>
<path d="M191.498 70.1661C189.56 70.2704 187.619 70.2704 185.681 70.1661C185.681 70.1253 186.982 70.0913 188.591 70.0913C190.2 70.0913 191.498 70.1253 191.498 70.1661Z" fill="#37474F"/>
<path d="M191.498 69.2037C189.56 69.308 187.619 69.308 185.681 69.2037C185.681 69.1629 186.982 69.1289 188.591 69.1289C190.2 69.1289 191.498 69.1629 191.498 69.2037Z" fill="#37474F"/>
<path d="M191.498 68.2413C189.56 68.3456 187.619 68.3456 185.681 68.2413C185.681 68.2005 186.982 68.1665 188.591 68.1665C190.2 68.1665 191.498 68.2005 191.498 68.2413Z" fill="#37474F"/>
<path d="M191.498 67.2794C189.56 67.3837 187.619 67.3837 185.681 67.2794C185.681 67.2386 186.982 67.2046 188.591 67.2046C190.2 67.2046 191.498 67.2386 191.498 67.2794Z" fill="#37474F"/>
<path d="M191.498 66.317C189.56 66.4213 187.619 66.4213 185.681 66.317C185.681 66.2762 186.982 66.2422 188.591 66.2422C190.2 66.2422 191.498 66.2762 191.498 66.317Z" fill="#37474F"/>
<path d="M191.498 65.3585C191.498 65.3993 190.197 65.4333 188.591 65.4333C186.985 65.4333 185.681 65.3993 185.681 65.3585C187.619 65.2542 189.56 65.2542 191.498 65.3585Z" fill="#37474F"/>
<path d="M191.498 64.3961C191.498 64.4369 190.197 64.4709 188.591 64.4709C186.985 64.4709 185.681 64.4369 185.681 64.3961C187.619 64.2918 189.56 64.2918 191.498 64.3961Z" fill="#37474F"/>
<path d="M191.498 63.4337C191.498 63.4745 190.197 63.5085 188.591 63.5085C186.985 63.5085 185.681 63.4745 185.681 63.4337C187.619 63.3294 189.56 63.3294 191.498 63.4337Z" fill="#37474F"/>
<path d="M191.498 77.9893C191.498 78.0301 190.197 78.0675 188.591 78.0675C186.985 78.0675 185.681 78.0301 185.681 77.9893C185.681 77.9485 186.982 77.9111 188.591 77.9111C190.2 77.9111 191.498 77.9485 191.498 77.9893Z" fill="#37474F"/>
<path d="M191.498 79.0772C191.498 79.118 190.197 79.152 188.591 79.152C186.985 79.152 185.681 79.118 185.681 79.0772C187.619 78.973 189.56 78.973 191.498 79.0772Z" fill="#37474F"/>
<path d="M195.011 60.1394V60.9384C195.011 61.1165 195.056 61.2912 195.141 61.4439C195.227 61.5966 195.35 61.7216 195.496 61.8054L197.473 62.924V80.7162H199.564C199.744 80.7166 199.921 80.6791 200.087 80.6058C200.253 80.5325 200.403 80.4248 200.53 80.289C200.657 80.1531 200.758 79.9918 200.826 79.8142C200.894 79.6366 200.929 79.4463 200.929 79.2542H209.008C209.32 79.2546 209.628 79.1893 209.916 79.0618C210.204 78.9344 210.466 78.7474 210.687 78.5115C210.907 78.2756 211.082 77.9955 211.201 77.6871C211.321 77.3787 211.382 77.0482 211.382 76.7144V61.2308C211.381 60.9984 211.295 60.7758 211.141 60.6115C210.988 60.4472 210.78 60.3545 210.563 60.3536H209.519V59.3812L207.755 57.5928L200.355 57.8988L195.696 59.1908C195.5 59.2451 195.326 59.3677 195.202 59.5394C195.078 59.7112 195.011 59.9222 195.011 60.1394Z" fill="#FF9F1C"/>
<path d="M211.382 61.4927C211.382 61.5335 207.711 61.2649 203.189 60.8909C198.667 60.5169 195.005 60.1837 195.008 60.1395C195.011 60.0953 198.679 60.3673 203.201 60.7379C207.723 61.1085 211.385 61.4485 211.382 61.4927Z" fill="#37474F"/>
<path d="M200.907 64.6274C200.948 64.6274 200.98 67.905 200.98 71.9476C200.98 75.9902 200.948 79.2712 200.907 79.2712C200.866 79.2712 200.837 75.9936 200.837 71.9476C200.837 67.9016 200.872 64.6274 200.907 64.6274Z" fill="#37474F"/>
<path d="M204.261 60.8057C203.756 61.4942 203.213 62.1504 202.636 62.7709C202.093 63.4244 201.516 64.0442 200.907 64.6273C201.412 63.9394 201.954 63.2843 202.532 62.6655C203.074 62.0103 203.652 61.3894 204.261 60.8057Z" fill="#37474F"/>
<path d="M199.247 61.2989C199.095 61.2968 198.947 61.3533 198.831 61.4582C198.714 61.563 198.637 61.7092 198.612 61.8701C198.593 62.0351 198.636 62.2016 198.731 62.333C198.826 62.4643 198.966 62.5498 199.12 62.5705C199.274 62.5912 199.43 62.5456 199.552 62.4436C199.675 62.3415 199.755 62.1915 199.774 62.0265C199.774 61.6049 199.609 61.2989 199.238 61.2989" fill="#37474F"/>
<path d="M197.473 80.7161C197.432 80.7161 197.4 76.7381 197.4 71.8285C197.4 66.9189 197.432 62.9409 197.473 62.9409C197.515 62.9409 197.546 66.9189 197.546 71.8285C197.546 76.7381 197.511 80.7161 197.473 80.7161Z" fill="#37474F"/>
<path d="M194.183 80.3114C194.144 80.3114 194.1 76.4184 194.084 71.6176C194.068 66.8168 194.084 62.9238 194.129 62.9238C194.173 62.9238 194.211 66.8168 194.227 71.6176C194.243 76.4184 194.224 80.3114 194.183 80.3114Z" fill="#37474F"/>
<path d="M192.77 64.3725C192.871 64.3483 192.976 64.3655 193.064 64.4209C193.153 64.4763 193.219 64.5656 193.249 64.671C193.279 64.7763 193.27 64.8898 193.225 64.9886C193.18 65.0874 193.101 65.1642 193.005 65.2035C192.909 65.2428 192.803 65.2417 192.708 65.2004C192.612 65.1592 192.535 65.0808 192.492 64.981C192.449 64.8813 192.442 64.7676 192.474 64.6629C192.505 64.5582 192.573 64.4703 192.663 64.4167" fill="#37474F"/>
<path d="M200.907 79.1352H209.529V80.4476C209.529 80.6279 209.462 80.8009 209.343 80.9284C209.224 81.056 209.063 81.1276 208.894 81.1276H200.907V79.125V79.1352Z" fill="#37474F"/>
<path d="M204.502 81.1377H200.31C200.216 81.1377 200.139 81.2199 200.139 81.3213V81.8143C200.139 81.9157 200.216 81.9979 200.31 81.9979H204.502C204.597 81.9979 204.674 81.9157 204.674 81.8143V81.3213C204.674 81.2199 204.597 81.1377 204.502 81.1377Z" fill="#37474F"/>
<path d="M208.72 83.9668H197.159C196.979 83.9668 196.833 84.1236 196.833 84.317V85.2588C196.833 85.4522 196.979 85.609 197.159 85.609H208.72C208.9 85.609 209.047 85.4522 209.047 85.2588V84.317C209.047 84.1236 208.9 83.9668 208.72 83.9668Z" fill="#37474F"/>
<path d="M212.207 83.2085H208.377C208.03 83.2085 207.749 83.5099 207.749 83.8817V85.6939C207.749 86.0657 208.03 86.3671 208.377 86.3671H212.207C212.554 86.3671 212.835 86.0657 212.835 85.6939V83.8817C212.835 83.5099 212.554 83.2085 212.207 83.2085Z" fill="#37474F"/>
<path d="M204.417 85.6089H200.066V101.677H204.417V85.6089Z" fill="#37474F"/>
<path d="M200.015 100.98H204.458V158.172C204.458 158.442 204.358 158.702 204.179 158.893C204 159.084 203.758 159.192 203.506 159.192H200.967C200.715 159.192 200.473 159.084 200.294 158.893C200.115 158.702 200.015 158.442 200.015 158.172V100.98Z" fill="#37474F"/>
<path d="M205.02 144.711H199.288C198.87 144.711 198.53 145.075 198.53 145.524V149.321C198.53 149.77 198.87 150.134 199.288 150.134H205.02C205.438 150.134 205.778 149.77 205.778 149.321V145.524C205.778 145.075 205.438 144.711 205.02 144.711Z" fill="#1E2959"/>
<path d="M205.778 145.547H208.37C208.568 145.547 208.758 145.632 208.898 145.781C209.038 145.931 209.116 146.134 209.116 146.346V148.499C209.116 148.603 209.097 148.707 209.059 148.804C209.022 148.901 208.967 148.989 208.898 149.064C208.828 149.138 208.746 149.197 208.656 149.237C208.565 149.277 208.468 149.298 208.37 149.298H205.778V145.558V145.547Z" fill="#1E2959"/>
<path d="M198.53 149.301H195.937C195.74 149.301 195.55 149.217 195.41 149.067C195.27 148.917 195.192 148.714 195.192 148.502V146.35C195.192 146.245 195.211 146.141 195.248 146.044C195.286 145.947 195.341 145.859 195.41 145.785C195.479 145.71 195.562 145.652 195.652 145.611C195.743 145.571 195.839 145.551 195.937 145.551H198.53V149.291V149.301Z" fill="#1E2959"/>
<path d="M207.885 100.052H196.598C196.18 100.052 195.842 100.414 195.842 100.861V103.04C195.842 103.487 196.18 103.85 196.598 103.85H207.885C208.302 103.85 208.64 103.487 208.64 103.04V100.861C208.64 100.414 208.302 100.052 207.885 100.052Z" fill="#37474F"/>
<path d="M217.624 154.931H187.417C186.741 154.931 186.192 155.519 186.192 156.244V157.879C186.192 158.604 186.741 159.191 187.417 159.191H217.624C218.3 159.191 218.849 158.604 218.849 157.879V156.244C218.849 155.519 218.3 154.931 217.624 154.931Z" fill="#1E2959"/>
<path d="M223.91 101.201H208.126V102.701H223.91V101.201Z" fill="#37474F"/>
<path d="M228.385 99.5283H223.39C222.859 99.5283 222.428 99.9896 222.428 100.559V103.323C222.428 103.892 222.859 104.353 223.39 104.353H228.385C228.916 104.353 229.346 103.892 229.346 103.323V100.559C229.346 99.9896 228.916 99.5283 228.385 99.5283Z" fill="#37474F"/>
<path d="M173.692 63.441L173.886 79.727L175.926 80.7164V62.5298C175.78 62.5808 173.692 63.441 173.692 63.441Z" fill="#FF9F1C"/>
<path d="M183.419 80.5259C183.377 80.5259 183.346 76.5343 183.346 71.6145C183.346 66.6947 183.377 62.6997 183.419 62.6997C183.46 62.6997 183.492 66.6879 183.492 71.6145C183.492 76.5411 183.466 80.5259 183.419 80.5259Z" fill="#37474F"/>
<path d="M174.911 79.9646C174.873 79.9646 174.841 76.1464 174.841 71.4374C174.841 66.7284 174.873 62.9102 174.911 62.9102C174.949 62.9102 174.984 66.725 174.984 71.4374C174.984 76.1498 174.952 79.9646 174.911 79.9646Z" fill="#37474F"/>
<path d="M180.02 72.0328C178.69 72.1371 177.355 72.1371 176.025 72.0328C177.355 71.9331 178.69 71.9331 180.02 72.0328Z" fill="#37474F"/>
<path d="M207.663 78.6796C207.622 78.6796 207.59 74.7866 207.59 69.9858C207.59 65.185 207.622 61.2954 207.663 61.2954C207.704 61.2954 207.733 65.185 207.733 69.9858C207.733 74.7866 207.701 78.6796 207.663 78.6796Z" fill="#37474F"/>
<path d="M92.9788 51.5437L89.4405 44.8593C91.6382 41.0523 92.4271 36.5021 91.6522 32.1034C90.8772 27.7047 88.5945 23.7757 85.2528 21.0889C81.911 18.4022 77.7521 17.152 73.5937 17.5843C69.4353 18.0166 65.5782 20.1 62.7808 23.4249C59.9835 26.7498 58.4482 31.0756 58.477 35.5519C58.5057 40.0282 60.0963 44.331 62.936 47.6144C65.7757 50.8978 69.6591 52.9242 73.8227 53.2952C77.9863 53.6662 82.1288 52.355 85.4357 49.6193L92.9788 51.5437Z" fill="#FAFAFA"/>
<path d="M92.9787 51.5442L85.4167 49.6912L85.3405 49.6742L85.3881 49.6062L85.4611 49.6844C84.4026 50.5664 83.25 51.3105 82.0276 51.9012C80.565 52.5986 79.0164 53.0669 77.4294 53.2918C76.5539 53.4224 75.6693 53.4702 74.786 53.4346C74.3322 53.4074 73.8689 53.3972 73.4024 53.3564L71.9903 53.1252C68.7293 52.4426 65.7301 50.7405 63.3711 48.2336C61.0121 45.7266 59.399 42.5272 58.7353 39.039C58.2541 36.4038 58.3213 33.6873 58.932 31.083C59.5629 28.36 60.7911 25.8376 62.5147 23.7254L63.197 22.9196C63.4223 22.651 63.6889 22.4266 63.93 22.1784C64.1712 21.9302 64.4155 21.6786 64.6885 21.4712L65.4881 20.832C65.7526 20.6144 66.0315 20.4178 66.3227 20.2438L67.17 19.693L68.0554 19.2306C68.3453 19.0695 68.6441 18.9276 68.9502 18.8056C71.3276 17.7979 73.886 17.376 76.4361 17.5714C78.8465 17.7479 81.191 18.4908 83.3032 19.7474C87.1006 22.0109 89.9408 25.7515 91.2366 30.1956C91.752 32.0841 91.996 34.0458 91.9601 36.013C91.9147 37.7213 91.6401 39.4137 91.1446 41.0382C90.7279 42.3845 90.1656 43.674 89.469 44.8802V44.8258L92.9597 51.5374L89.3834 44.8802V44.853V44.8258C90.0683 43.6212 90.6199 42.3353 91.0271 40.994C91.5121 39.3805 91.7782 37.7008 91.8173 36.0062C91.8434 34.0616 91.593 32.1241 91.0747 30.2602C89.7885 25.8645 86.9773 22.165 83.2207 19.9242C81.1299 18.6858 78.8103 17.9557 76.4266 17.7856C73.9078 17.5939 71.3809 18.011 69.0327 19.0062C68.7311 19.1279 68.4366 19.2686 68.1506 19.4278L67.2747 19.8834L66.437 20.4308C66.1515 20.6035 65.8779 20.7978 65.6182 21.0122L64.8281 21.6446C64.5667 21.8633 64.3167 22.0971 64.0792 22.345C63.838 22.5898 63.5746 22.8074 63.3525 23.076L62.6797 23.8682C60.98 25.9553 59.7683 28.4459 59.1446 31.134C58.5382 33.7076 58.4699 36.393 58.9447 38.9982C59.4055 41.4627 60.3533 43.7929 61.7246 45.8322C64.1921 49.5234 67.8784 52.0701 72.0347 52.9552L73.431 53.1864C73.8943 53.2306 74.3513 53.2408 74.8019 53.2714C75.6775 53.3102 76.5547 53.2659 77.423 53.1388C78.9915 52.9195 80.5227 52.4615 81.9704 51.7788C83.186 51.1975 84.3341 50.4661 85.3913 49.5994L85.7086 49.3444L85.4706 49.6844L85.4421 49.5994L92.9787 51.5442Z" fill="#37474F"/>
<path d="M70.5053 35.4889C70.5034 35.8483 70.4021 36.1991 70.2143 36.497C70.0265 36.7949 69.7605 37.0264 69.4499 37.1624C69.1394 37.2984 68.7982 37.3328 68.4694 37.2612C68.1406 37.1896 67.839 37.0152 67.6026 36.7601C67.3663 36.505 67.2058 36.1805 67.1414 35.8277C67.077 35.4749 67.1117 35.1096 67.2409 34.7779C67.3702 34.4462 67.5883 34.1629 67.8677 33.9639C68.1471 33.7649 68.4752 33.659 68.8107 33.6597C69.0343 33.6597 69.2557 33.7071 69.4622 33.7992C69.6686 33.8913 69.8559 34.0262 70.0135 34.1962C70.171 34.3663 70.2955 34.568 70.3799 34.7899C70.4644 35.0117 70.507 35.2493 70.5053 35.4889Z" fill="#37474F"/>
<path d="M77.29 35.4889C77.2881 35.8483 77.1868 36.1991 76.999 36.497C76.8112 36.7949 76.5452 37.0264 76.2346 37.1624C75.9241 37.2984 75.5828 37.3328 75.2541 37.2612C74.9253 37.1896 74.6237 37.0152 74.3873 36.7601C74.151 36.505 73.9905 36.1805 73.9261 35.8277C73.8617 35.4749 73.8963 35.1096 74.0256 34.7779C74.1548 34.4462 74.3729 34.1629 74.6523 33.9639C74.9317 33.7649 75.2599 33.659 75.5954 33.6597C75.819 33.6597 76.0404 33.7071 76.2468 33.7992C76.4533 33.8913 76.6406 34.0262 76.7981 34.1962C76.9557 34.3663 77.0802 34.568 77.1646 34.7899C77.249 35.0117 77.2916 35.2493 77.29 35.4889Z" fill="#37474F"/>
<path d="M84.0586 34.5779C84.2247 34.8905 84.3006 35.2489 84.2767 35.6076C84.2527 35.9664 84.1301 36.3096 83.9241 36.5937C83.7182 36.8778 83.4383 37.0901 83.1198 37.2037C82.8013 37.3174 82.4584 37.3274 82.1346 37.2323C81.8108 37.1373 81.5206 36.9415 81.3007 36.6697C81.0807 36.398 80.9409 36.0625 80.8988 35.7056C80.8568 35.3487 80.9145 34.9865 81.0646 34.6648C81.2147 34.343 81.4504 34.0762 81.7421 33.8979C81.9357 33.7791 82.1494 33.7024 82.3708 33.6722C82.5922 33.6421 82.8169 33.6591 83.0322 33.7222C83.2474 33.7854 83.4489 33.8935 83.6251 34.0404C83.8012 34.1872 83.9485 34.3699 84.0586 34.5779Z" fill="#37474F"/>
</svg>
