<svg width="198" height="198" viewBox="0 0 198 198" fill="none" xmlns="http://www.w3.org/2000/svg">
<path d="M185.031 170.676C185.031 170.731 146.163 170.779 98.2356 170.779C50.3077 170.779 11.4285 170.711 11.4285 170.676C11.4285 170.64 50.2879 170.573 98.2356 170.573C146.183 170.573 185.031 170.597 185.031 170.676Z" fill="#1E2959"/>
<path d="M134.007 30.583H32.3098V133.749H134.007V30.583Z" fill="white"/>
<path d="M134.006 133.749C134.006 133.749 134.006 133.701 134.006 133.622C134.006 133.543 134.006 133.416 134.006 133.258C134.006 132.937 134.006 132.466 134.006 131.832C134.006 130.573 134.006 128.716 133.987 126.288C133.987 121.441 133.959 114.337 133.939 105.3C133.919 87.2545 133.888 61.4829 133.848 30.583L134.026 30.7612L32.3414 30.7889L32.5473 30.583C32.5473 68.3891 32.5473 103.803 32.5196 133.745L32.3414 133.571L106.021 133.658L126.696 133.705L132.153 133.725H133.559H133.915H134.038H133.579H132.193L126.768 133.745L106.136 133.792L32.3414 133.88H32.1632V133.701C32.1632 103.76 32.1632 68.3614 32.1355 30.5394V30.3335H32.3533L134.038 30.3612H134.22V30.5394C134.181 61.4868 134.149 87.2941 134.129 105.383C134.105 114.404 134.09 121.493 134.082 126.332C134.082 128.739 134.082 130.589 134.058 131.84C134.058 132.458 134.058 132.929 134.058 133.246V133.598C134.047 133.65 134.03 133.701 134.006 133.749Z" fill="#263238"/>
<path d="M40.2931 47.4092V50.1455H39.7823V47.8369H39.2041V47.4092H40.2931Z" fill="#1E2959"/>
<path d="M40.8198 49.8481C40.8198 49.806 40.8281 49.7643 40.8442 49.7254C40.8604 49.6864 40.884 49.6511 40.9138 49.6213C40.9436 49.5915 40.9789 49.5679 41.0178 49.5518C41.0567 49.5356 41.0985 49.5273 41.1406 49.5273C41.1827 49.5273 41.2244 49.5356 41.2633 49.5518C41.3022 49.5679 41.3376 49.5915 41.3674 49.6213C41.3972 49.6511 41.4208 49.6864 41.4369 49.7254C41.453 49.7643 41.4613 49.806 41.4613 49.8481C41.4613 49.8902 41.453 49.9319 41.4369 49.9709C41.4208 50.0098 41.3972 50.0451 41.3674 50.0749C41.3376 50.1047 41.3022 50.1283 41.2633 50.1445C41.2244 50.1606 41.1827 50.1689 41.1406 50.1689C41.0985 50.1689 41.0567 50.1606 41.0178 50.1445C40.9789 50.1283 40.9436 50.1047 40.9138 50.0749C40.884 50.0451 40.8604 50.0098 40.8442 49.9709C40.8281 49.9319 40.8198 49.8902 40.8198 49.8481Z" fill="#1E2959"/>
<path d="M74.3927 36.349C74.3792 36.0552 74.454 35.764 74.6075 35.5131C74.761 35.2621 74.9861 35.0629 75.2538 34.941C75.5215 34.8191 75.8196 34.7802 76.1097 34.8292C76.3997 34.8782 76.6684 35.0129 76.8812 35.216C77.094 35.4191 77.2412 35.6812 77.3037 35.9687C77.3662 36.2561 77.3412 36.5557 77.232 36.8288C77.1227 37.1019 76.9342 37.3361 76.6907 37.5011C76.4473 37.6662 76.1599 37.7545 75.8658 37.7548C75.6754 37.7645 75.4851 37.7353 75.3065 37.669C75.1278 37.6026 74.9645 37.5005 74.8267 37.369C74.6888 37.2374 74.5792 37.0791 74.5046 36.9037C74.43 36.7284 74.3919 36.5396 74.3927 36.349ZM76.828 36.349C76.828 36.1587 76.7716 35.9727 76.6659 35.8144C76.5601 35.6562 76.4098 35.5328 76.234 35.46C76.0582 35.3872 75.8647 35.3681 75.678 35.4052C75.4914 35.4424 75.3199 35.534 75.1853 35.6686C75.0508 35.8032 74.9591 35.9746 74.922 36.1613C74.8848 36.348 74.9039 36.5414 74.9767 36.7173C75.0496 36.8931 75.1729 37.0434 75.3312 37.1491C75.4894 37.2549 75.6754 37.3113 75.8658 37.3113C75.9928 37.3146 76.1193 37.2919 76.2373 37.2447C76.3553 37.1974 76.4624 37.1266 76.5521 37.0365C76.6418 36.9465 76.7122 36.839 76.759 36.7208C76.8057 36.6026 76.8279 36.4761 76.8241 36.349H76.828Z" fill="#1E2959"/>
<path d="M80.3089 34.9824V37.7188H79.8931L78.3843 35.8655V37.7188H77.8774V34.9824H78.2972L79.806 36.8278V34.9824H80.3089Z" fill="#1E2959"/>
<path d="M81.0454 34.9824H81.5523V37.2871H82.9858V37.7188H81.0454V34.9824Z" fill="#1E2959"/>
<path d="M83.386 34.9824H83.8929V37.7188H83.386V34.9824Z" fill="#1E2959"/>
<path d="M87.0647 34.9824V37.7188H86.6449L85.1401 35.8655V37.7188H84.6372V34.9824H85.057L86.5618 36.8278V34.9824H87.0647Z" fill="#1E2959"/>
<path d="M89.8523 37.2911V37.7188H87.7971V34.9824H89.7771V35.4061H88.308V36.1189H89.6306V36.5347H88.308V37.2911H89.8523Z" fill="#1E2959"/>
<path d="M92.0504 35.4101H91.1436V34.9824H93.4562V35.4101H92.5494V37.7188H92.0385L92.0504 35.4101Z" fill="#1E2959"/>
<path d="M95.9033 37.2911V37.7188H93.8521V34.9824H95.832V35.4061H94.3431V36.1189H95.6618V36.5347H94.3431V37.2911H95.9033Z" fill="#1E2959"/>
<path d="M96.228 37.43L96.4062 37.034C96.6674 37.2281 96.9837 37.3336 97.3091 37.335C97.7368 37.335 97.915 37.1806 97.915 36.9786C97.915 36.3886 96.2874 36.7766 96.2874 35.7589C96.2874 35.3154 96.6399 34.9432 97.3923 34.9432C97.7124 34.9373 98.0279 35.0209 98.3031 35.1847L98.1407 35.5807C97.9136 35.4428 97.654 35.3676 97.3883 35.3629C96.9646 35.3629 96.7943 35.5292 96.7943 35.7352C96.7943 36.3173 98.4139 35.9371 98.4139 36.943C98.4139 37.3825 98.0575 37.735 97.3091 37.735C96.9253 37.7525 96.5461 37.6456 96.228 37.43Z" fill="#1E2959"/>
<path d="M99.4437 35.4101H98.5369V34.9824H100.857V35.4101H99.9506V37.7188H99.4437V35.4101Z" fill="#1E2959"/>
<path d="M52.9651 59.4319H51.595L51.3257 60.0655H50.803L52.0345 57.3291H52.5335L53.769 60.0655H53.2384L52.9651 59.4319ZM52.7949 59.0359L52.2801 57.8479L51.7692 59.0359H52.7949Z" fill="#1E2959"/>
<path d="M39.1723 37.7148C39.7869 37.7148 40.2851 37.2166 40.2851 36.602C40.2851 35.9875 39.7869 35.4893 39.1723 35.4893C38.5578 35.4893 38.0596 35.9875 38.0596 36.602C38.0596 37.2166 38.5578 37.7148 39.1723 37.7148Z" fill="#1E2959"/>
<path d="M42.5424 37.7148C43.157 37.7148 43.6552 37.2166 43.6552 36.602C43.6552 35.9875 43.157 35.4893 42.5424 35.4893C41.9279 35.4893 41.4297 35.9875 41.4297 36.602C41.4297 37.2166 41.9279 37.7148 42.5424 37.7148Z" fill="#1E2959"/>
<path d="M45.9123 37.7148C46.5269 37.7148 47.0251 37.2166 47.0251 36.602C47.0251 35.9875 46.5269 35.4893 45.9123 35.4893C45.2978 35.4893 44.7996 35.9875 44.7996 36.602C44.7996 37.2166 45.2978 37.7148 45.9123 37.7148Z" fill="#1E2959"/>
<path d="M134.006 42.1064C134.006 42.1618 111.355 42.2093 83.4174 42.2093C55.4796 42.2093 32.8245 42.1618 32.8245 42.1064C32.8245 42.0509 55.4717 42.0034 83.4174 42.0034C111.363 42.0034 134.006 42.0509 134.006 42.1064Z" fill="#1E2959"/>
<path d="M122.887 49.7573C122.887 49.8127 105.253 49.8602 83.5046 49.8602C61.7563 49.8602 44.1145 49.8127 44.1145 49.7573C44.1145 49.7018 61.7484 49.6543 83.5046 49.6543C105.261 49.6543 122.887 49.6979 122.887 49.7573Z" fill="#1E2959"/>
<path d="M74.5114 52.4345C74.5114 52.4899 67.7794 52.5375 59.4634 52.5375C51.1474 52.5375 44.3916 52.4899 44.3916 52.4345C44.3916 52.3791 51.1236 52.3315 59.4634 52.3315C67.8031 52.3315 74.5114 52.3751 74.5114 52.4345Z" fill="#1E2959"/>
<path d="M48.7081 60.4967H45.1006V56.8892H48.7081V60.4967ZM45.4966 60.1007H48.3121V57.2852H45.4966V60.1007Z" fill="#1E2959"/>
<path d="M53.6026 66.1716C53.6026 66.6389 53.2343 66.9121 52.5294 66.9121H51.1711V64.1758H52.4502C53.1076 64.1758 53.46 64.453 53.46 64.8886C53.4641 65.012 53.4332 65.134 53.3708 65.2405C53.3085 65.347 53.2172 65.4337 53.1076 65.4905C53.2549 65.5315 53.3839 65.6211 53.4738 65.7448C53.5637 65.8684 53.6091 66.0189 53.6026 66.1716ZM51.678 64.5876V65.34H52.3987C52.7472 65.34 52.9492 65.2173 52.9492 64.9678C52.9492 64.7183 52.7472 64.5718 52.3987 64.5718L51.678 64.5876ZM53.0878 66.132C53.0878 65.8588 52.8819 65.736 52.4977 65.736H51.678V66.528H52.4977C52.8819 66.528 53.0878 66.3934 53.0878 66.132Z" fill="#1E2959"/>
<path d="M48.7081 67.3476H45.1006V63.7559H48.7081V67.3476ZM45.4966 66.9516H48.3121V64.1519H45.4966V66.9516Z" fill="#1E2959"/>
<path d="M50.9731 72.3928C50.9873 72.1036 51.086 71.8248 51.257 71.591C51.428 71.3573 51.6638 71.1788 51.9352 71.0776C52.2066 70.9765 52.5017 70.9571 52.784 71.022C53.0663 71.0868 53.3233 71.233 53.5234 71.4424L53.1947 71.7513C53.1026 71.6487 52.9895 71.5669 52.8631 71.5116C52.7368 71.4563 52.6 71.4286 52.4621 71.4306C52.2069 71.4306 51.9621 71.5319 51.7817 71.7124C51.6012 71.8929 51.4998 72.1376 51.4998 72.3928C51.4998 72.648 51.6012 72.8928 51.7817 73.0733C51.9621 73.2537 52.2069 73.3551 52.4621 73.3551C52.6004 73.3571 52.7375 73.3291 52.864 73.273C52.9904 73.217 53.1033 73.1342 53.1947 73.0304L53.5234 73.3432C53.3233 73.5527 53.0663 73.6989 52.784 73.7637C52.5017 73.8285 52.2066 73.8092 51.9352 73.7081C51.6638 73.6069 51.428 73.4284 51.257 73.1947C51.086 72.9609 50.9873 72.6821 50.9731 72.3928Z" fill="#1E2959"/>
<path d="M48.7081 74.1945H45.1006V70.5869H48.7081V74.1945ZM45.4966 73.7985H48.3121V70.9829H45.4966V73.7985Z" fill="#1E2959"/>
<path d="M51.1711 77.8735H52.3591C53.2462 77.8735 53.8521 78.42 53.8521 79.2397C53.8521 80.0595 53.2462 80.6099 52.3591 80.6099H51.1711V77.8735ZM52.3591 80.1783C52.4873 80.1866 52.6157 80.1686 52.7366 80.1253C52.8574 80.082 52.9681 80.0143 53.0618 79.9266C53.1555 79.8388 53.2302 79.7327 53.2812 79.6149C53.3323 79.4971 53.3586 79.3701 53.3586 79.2417C53.3586 79.1133 53.3323 78.9863 53.2812 78.8685C53.2302 78.7507 53.1555 78.6447 53.0618 78.5569C52.9681 78.4691 52.8574 78.4015 52.7366 78.3582C52.6157 78.3149 52.4873 78.2968 52.3591 78.3052H51.678V80.1783H52.3591Z" fill="#1E2959"/>
<path d="M48.7081 81.0451H45.1006V77.4375H48.7081V81.0451ZM45.4966 80.6491H48.3121V77.8335H45.4966V80.6491Z" fill="#1E2959"/>
<path d="M83.5007 58.6952C83.5007 58.7507 77.5607 58.7982 70.211 58.7982C62.8612 58.7982 56.9172 58.7507 56.9172 58.6952C56.9172 58.6398 62.8572 58.5923 70.211 58.5923C77.5647 58.5923 83.5007 58.6358 83.5007 58.6952Z" fill="#1E2959"/>
<path d="M120.091 65.5419C120.091 65.6013 105.946 65.6449 88.5062 65.6449C71.0663 65.6449 56.9172 65.6013 56.9172 65.5419C56.9172 65.4825 71.0584 65.439 88.5062 65.439C105.954 65.439 120.091 65.4865 120.091 65.5419Z" fill="#1E2959"/>
<path d="M65.6095 79.2392C65.6095 79.2946 63.6651 79.3422 61.2535 79.3422C58.8418 79.3422 56.8975 79.2946 56.8975 79.2392C56.8975 79.1838 58.8418 79.1362 61.2535 79.1362C63.6651 79.1362 65.6095 79.1996 65.6095 79.2392Z" fill="#1E2959"/>
<path d="M88.5022 72.3925C88.5022 72.448 81.4336 72.4955 72.7097 72.4955C63.9858 72.4955 56.9172 72.448 56.9172 72.3925C56.9172 72.3371 63.9858 72.2896 72.7097 72.2896C81.4336 72.2896 88.5022 72.3331 88.5022 72.3925Z" fill="#1E2959"/>
<path d="M40.3921 88.9891V89.4168H38.3725V89.0762L39.4615 88.0466C39.7268 87.7932 39.7743 87.6308 39.7743 87.4804C39.7743 87.2269 39.6001 87.0844 39.2635 87.0844C39.1423 87.0781 39.0213 87.1007 38.9104 87.1503C38.7996 87.1998 38.7021 87.275 38.6259 87.3695L38.2695 87.0962C38.3951 86.9448 38.5542 86.8247 38.7344 86.7457C38.9145 86.6666 39.1106 86.6307 39.3071 86.6408C39.9011 86.6408 40.2852 86.9418 40.2852 87.4328C40.2809 87.6017 40.238 87.7673 40.1597 87.9169C40.0815 88.0666 39.97 88.1963 39.8337 88.2961L39.1011 88.9931L40.3921 88.9891Z" fill="#1E2959"/>
<path d="M40.689 89.1196C40.689 89.0345 40.7228 88.9529 40.7829 88.8928C40.8431 88.8326 40.9247 88.7988 41.0097 88.7988C41.0948 88.7988 41.1764 88.8326 41.2365 88.8928C41.2967 88.9529 41.3305 89.0345 41.3305 89.1196C41.3305 89.2047 41.2967 89.2862 41.2365 89.3464C41.1764 89.4066 41.0948 89.4403 41.0097 89.4403C40.9247 89.4403 40.8431 89.4066 40.7829 89.3464C40.7228 89.2862 40.689 89.2047 40.689 89.1196Z" fill="#1E2959"/>
<path d="M52.0069 98.7029H50.6407L50.3714 99.3365H49.8447L51.0763 96.6001H51.5792L52.8147 99.3365H52.2722L52.0069 98.7029ZM51.8406 98.3069L51.3258 97.1189L50.811 98.3069H51.8406Z" fill="#1E2959"/>
<path d="M121.928 89.0287C121.928 89.0842 104.295 89.1317 82.5463 89.1317C60.7979 89.1317 43.1641 89.1 43.1641 89.0287C43.1641 88.9575 60.794 88.9258 82.5502 88.9258C104.306 88.9258 121.928 88.9733 121.928 89.0287Z" fill="#1E2959"/>
<path d="M73.5571 91.7055C73.5571 91.7609 66.8251 91.8085 58.4853 91.8085C50.1456 91.8085 43.4136 91.7609 43.4136 91.7055C43.4136 91.6501 50.1456 91.6025 58.4853 91.6025C66.8251 91.6025 73.5571 91.6461 73.5571 91.7055Z" fill="#1E2959"/>
<path d="M47.734 99.7916H44.1265V96.1841H47.734V99.7916ZM44.5225 99.3956H47.338V96.5801H44.5225V99.3956Z" fill="#1E2959"/>
<path d="M52.6443 105.443C52.6443 105.91 52.2761 106.184 51.5751 106.184H50.2129V103.447H51.4801C52.1375 103.447 52.4899 103.724 52.4899 104.16C52.4931 104.283 52.4618 104.405 52.3995 104.511C52.3372 104.618 52.2465 104.704 52.1375 104.762C52.2873 104.8 52.4195 104.889 52.5118 105.013C52.6041 105.137 52.6509 105.289 52.6443 105.443ZM50.7237 103.859V104.615H51.4405C51.7929 104.615 51.9909 104.489 51.9909 104.239C51.9909 103.99 51.7929 103.843 51.4405 103.843L50.7237 103.859ZM52.1335 105.404C52.1335 105.13 51.9276 105.008 51.5435 105.008H50.7237V105.8H51.5435C51.9276 105.788 52.1335 105.665 52.1335 105.392V105.404Z" fill="#1E2959"/>
<path d="M47.734 106.619H44.1265V103.012H47.734V106.619ZM44.5225 106.223H47.338V103.408H44.5225V106.223Z" fill="#1E2959"/>
<path d="M50.0189 111.672C50.017 111.482 50.0541 111.293 50.1278 111.118C50.2016 110.942 50.3104 110.784 50.4477 110.652C50.5849 110.521 50.7477 110.418 50.9259 110.352C51.1042 110.285 51.2941 110.256 51.4841 110.266C51.6867 110.258 51.8886 110.294 52.0755 110.373C52.2624 110.452 52.4296 110.571 52.5652 110.721L52.2404 111.03C52.148 110.928 52.0349 110.847 51.9086 110.791C51.7823 110.736 51.6457 110.708 51.5078 110.71C51.2526 110.71 51.0079 110.811 50.8274 110.991C50.6469 111.172 50.5455 111.417 50.5455 111.672C50.5455 111.927 50.6469 112.172 50.8274 112.352C51.0079 112.533 51.2526 112.634 51.5078 112.634C51.6461 112.636 51.7831 112.608 51.9095 112.552C52.036 112.496 52.1488 112.413 52.2404 112.309L52.5652 112.622C52.3656 112.832 52.1088 112.979 51.8266 113.044C51.5444 113.109 51.2493 113.09 50.9779 112.989C50.7066 112.887 50.471 112.708 50.3005 112.474C50.13 112.24 50.032 111.961 50.0189 111.672Z" fill="#1E2959"/>
<path d="M47.734 113.466H44.1265V109.858H47.734V113.466ZM44.5225 113.07H47.338V110.254H44.5225V113.07Z" fill="#1E2959"/>
<path d="M50.2129 117.145H51.4009C52.2879 117.145 52.8938 117.691 52.8938 118.515C52.8938 119.338 52.2879 119.881 51.4009 119.881H50.2129V117.145ZM51.4009 119.453C51.5314 119.465 51.6629 119.45 51.7872 119.408C51.9114 119.366 52.0256 119.299 52.1224 119.211C52.2192 119.123 52.2965 119.015 52.3494 118.895C52.4023 118.775 52.4297 118.646 52.4297 118.515C52.4297 118.384 52.4023 118.254 52.3494 118.134C52.2965 118.014 52.2192 117.907 52.1224 117.818C52.0256 117.73 51.9114 117.663 51.7872 117.621C51.6629 117.58 51.5314 117.564 51.4009 117.576H50.7396V119.453H51.4009Z" fill="#1E2959"/>
<path d="M47.734 120.317H44.1265V116.709H47.734V120.317ZM44.5225 119.921H47.338V117.105H44.5225V119.921Z" fill="#1E2959"/>
<path d="M82.5464 97.9662C82.5464 98.0217 76.6064 98.0692 69.2527 98.0692C61.899 98.0692 55.959 98.0217 55.959 97.9662C55.959 97.9108 61.899 97.8633 69.2527 97.8633C76.6064 97.8633 82.5464 97.9108 82.5464 97.9662Z" fill="#1E2959"/>
<path d="M119.133 104.813C119.133 104.873 104.992 104.916 87.5479 104.916C70.1041 104.916 55.959 104.873 55.959 104.813C55.959 104.754 70.1001 104.71 87.5479 104.71C104.996 104.71 119.133 104.758 119.133 104.813Z" fill="#1E2959"/>
<path d="M64.6549 118.511C64.6549 118.57 62.7065 118.614 60.2989 118.614C57.8912 118.614 55.9429 118.57 55.9429 118.511C55.9429 118.451 57.8912 118.408 60.2989 118.408C62.7065 118.408 64.6549 118.455 64.6549 118.511Z" fill="#1E2959"/>
<path d="M87.5479 111.672C87.5479 111.727 80.4753 111.775 71.7554 111.775C63.0355 111.775 55.959 111.727 55.959 111.672C55.959 111.616 63.0315 111.569 71.7554 111.569C80.4793 111.569 87.5479 111.604 87.5479 111.672Z" fill="#1E2959"/>
<path d="M113.121 127.908H96.8181C96.161 127.908 95.5103 127.778 94.9032 127.527C94.2962 127.275 93.7446 126.906 93.2802 126.442C92.8157 125.977 92.4473 125.425 92.1962 124.818C91.9451 124.21 91.8161 123.559 91.8167 122.902C91.8167 121.576 92.3436 120.304 93.2815 119.366C94.2195 118.428 95.4917 117.901 96.8181 117.901H113.121C114.448 117.901 115.72 118.428 116.658 119.366C117.596 120.304 118.123 121.576 118.123 122.902C118.123 123.559 117.994 124.21 117.743 124.818C117.492 125.425 117.124 125.977 116.659 126.442C116.195 126.906 115.643 127.275 115.036 127.527C114.429 127.778 113.779 127.908 113.121 127.908Z" fill="#FF9F1C"/>
<path d="M100.889 121.714V124.435H100.37L99.0001 122.784V124.435H98.3784V121.714H98.8972L100.248 123.366V121.714H100.889Z" fill="white"/>
<path d="M103.637 123.948V124.455H101.531V121.734H103.586V122.241H102.168V122.831H103.431V123.318H102.168V123.948H103.637Z" fill="white"/>
<path d="M105.823 124.435L105.166 123.492L104.52 124.435H103.8L104.805 123.053L103.851 121.714H104.564L105.19 122.597L105.803 121.714H106.484L105.534 123.029L106.552 124.435H105.823Z" fill="white"/>
<path d="M107.316 122.229H106.445V121.714H108.821V122.229H107.95V124.435H107.316V122.229Z" fill="white"/>
<path d="M112.262 124.229C112.229 124.228 112.197 124.22 112.168 124.204C112.139 124.188 112.114 124.165 112.096 124.138C112.067 124.094 112.057 124.041 112.067 123.99C112.078 123.938 112.108 123.893 112.151 123.864L113.415 123.021C113.435 123.008 113.451 122.991 113.462 122.97C113.473 122.949 113.479 122.926 113.478 122.902C113.478 122.878 113.472 122.855 113.46 122.834C113.448 122.813 113.431 122.796 113.411 122.783L112.159 122.043C112.115 122.016 112.083 121.972 112.071 121.922C112.059 121.871 112.066 121.818 112.093 121.773C112.119 121.729 112.162 121.696 112.213 121.683C112.263 121.67 112.316 121.677 112.361 121.702L113.613 122.439C113.691 122.486 113.756 122.552 113.802 122.631C113.848 122.709 113.873 122.798 113.875 122.89C113.878 122.981 113.857 123.071 113.815 123.152C113.774 123.233 113.712 123.303 113.636 123.354L112.373 124.193C112.34 124.216 112.302 124.228 112.262 124.229Z" fill="white"/>
<path d="M44.653 67.2844C44.5342 67.1656 45.2985 66.2033 46.3638 65.1341C47.429 64.0649 48.3913 63.3046 48.514 63.4234C48.6368 63.5422 47.8686 64.5084 46.8033 65.5736C45.7381 66.6389 44.7758 67.4071 44.653 67.2844Z" fill="#FF9F1C"/>
<path d="M49.1715 67.6605C49.0527 67.7833 48.027 66.9517 46.8826 65.8072C45.7382 64.6628 44.9026 63.6411 45.0293 63.5184C45.156 63.3956 46.1777 64.2272 47.3182 65.3716C48.4587 66.5161 49.2942 67.5417 49.1715 67.6605Z" fill="#FF9F1C"/>
<path d="M43.7858 99.9664C43.6631 99.8437 44.4313 98.8814 45.4966 97.8161C46.5618 96.7509 47.5241 95.9866 47.6468 96.1054C47.7696 96.2242 47.0014 97.1865 45.9322 98.2557C44.863 99.3249 43.9046 100.085 43.7858 99.9664Z" fill="#FF9F1C"/>
<path d="M48.3121 100.342C48.1893 100.461 47.1677 99.6336 46.0232 98.4892C44.8788 97.3448 44.0432 96.3191 44.1699 96.2003C44.2967 96.0815 45.3144 96.9092 46.4588 98.0536C47.6033 99.198 48.423 100.22 48.3121 100.342Z" fill="#FF9F1C"/>
<path d="M120.59 180.394L92.7869 171.468C92.7126 171.445 92.6348 171.435 92.5572 171.44L71.1732 173.024C67.4151 163.916 62.7067 152.531 60.5644 147.332C60.2074 146.479 59.6322 145.736 58.8968 145.176C58.1613 144.617 57.2914 144.261 56.3747 144.144L33.2166 141.118C32.9412 141.085 32.6619 141.125 32.4066 141.233C32.1513 141.341 31.9289 141.515 31.7618 141.736C31.5946 141.957 31.4884 142.219 31.4539 142.494C31.4195 142.769 31.4578 143.049 31.5653 143.304L44.6056 173.713C44.7782 174.117 45.0327 174.48 45.3531 174.78C45.6735 175.08 46.0527 175.31 46.4668 175.456L72.9552 186.025C73.5606 186.266 74.2165 186.353 74.8639 186.278L76.5588 186.092C82.4275 185.478 111.407 182.528 120.471 181.578C120.615 181.57 120.751 181.512 120.855 181.412C120.959 181.313 121.025 181.18 121.039 181.037C121.053 180.894 121.016 180.75 120.934 180.632C120.851 180.514 120.729 180.43 120.59 180.394Z" fill="#E0E0E0"/>
<path d="M120.59 180.394C120.683 180.424 120.767 180.475 120.836 180.544C120.905 180.613 120.956 180.697 120.986 180.79C121.022 180.907 121.023 181.032 120.988 181.149C120.954 181.267 120.885 181.372 120.792 181.451C120.667 181.547 120.514 181.6 120.356 181.601L119.834 181.657L113.327 182.346L89.393 184.837L81.473 185.66L77.2556 186.096L75.0895 186.33C74.3394 186.447 73.5715 186.358 72.868 186.072L55.1509 179.016L50.4187 177.127L48.0071 176.168L46.7914 175.685C46.5894 175.598 46.3954 175.527 46.1776 175.436C45.9703 175.344 45.7738 175.23 45.5915 175.095C45.2248 174.824 44.9175 174.48 44.6886 174.085C44.4668 173.689 44.3243 173.274 44.1421 172.866L43.0848 170.407C42.3747 168.759 41.6605 167.095 40.9424 165.413C38.0635 158.681 35.0777 151.743 32.0245 144.623L31.6048 143.645C31.4273 143.32 31.336 142.954 31.3395 142.584C31.3622 142.206 31.5107 141.847 31.7611 141.564C32.0116 141.28 32.3496 141.089 32.7215 141.019C32.8126 141 32.9076 141.019 33.0026 140.992L33.2759 141.011L33.7986 141.083L34.8401 141.217L36.9151 141.487L45.1044 142.56L53.1036 143.605L55.0836 143.863C55.737 143.962 56.3904 144.005 57.0636 144.16C58.3644 144.495 59.4937 145.302 60.2316 146.425C60.5616 146.984 60.8387 147.572 61.0592 148.183C61.3021 148.774 61.545 149.363 61.7879 149.949L63.2254 153.438L66.029 160.233C67.8586 164.676 69.6208 168.945 71.2958 173.008L71.2087 172.953L92.0462 171.412L92.6244 171.369C92.7286 171.368 92.8321 171.387 92.9293 171.424L93.2026 171.515L94.248 171.864L96.3547 172.541L100.327 173.844L107.336 176.105L117.137 179.273L119.711 180.116C120.293 180.307 120.59 180.41 120.59 180.41C120.59 180.41 120.289 180.322 119.703 180.14L117.121 179.324L107.316 176.18L100.303 173.939L96.3032 172.656L94.1965 171.983L93.1154 171.638C92.9455 171.569 92.7671 171.522 92.5848 171.5L92.0066 171.543L71.1731 173.127H71.1137L71.086 173.068C69.4069 169.009 67.6447 164.752 65.8073 160.301L62.9996 153.505C62.5244 152.354 62.044 151.191 61.5582 150.017C61.3166 149.43 61.0711 148.829 60.8296 148.25C60.6123 147.653 60.3405 147.076 60.0178 146.528C59.3105 145.45 58.228 144.674 56.9804 144.35C56.3627 144.199 55.6974 144.152 55.048 144.057L53.068 143.799L45.0648 142.758L36.8755 141.689L34.7965 141.419L33.755 141.281C33.4216 141.213 33.0805 141.192 32.7413 141.217C32.4153 141.279 32.1193 141.448 31.8998 141.697C31.6804 141.946 31.5501 142.26 31.5295 142.592C31.5271 142.931 31.6131 143.265 31.779 143.562L32.2106 144.54L41.1246 165.334C41.8453 167.013 42.5581 168.677 43.263 170.327C43.6194 171.151 43.9679 171.971 44.3203 172.787C44.4985 173.183 44.653 173.618 44.8589 173.975C45.0724 174.346 45.361 174.668 45.7063 174.921C45.8776 175.048 46.0622 175.155 46.2568 175.242C46.4468 175.325 46.6528 175.4 46.8587 175.483L48.0744 175.97L50.4821 176.933L55.2341 178.822L72.9432 185.898C73.6198 186.175 74.3594 186.262 75.0816 186.148L77.2517 185.914L81.4691 185.486L89.3891 184.694L113.331 182.267L119.841 181.613L120.364 181.566C120.515 181.566 120.662 181.517 120.784 181.427C120.874 181.353 120.94 181.253 120.975 181.141C121.009 181.03 121.01 180.91 120.978 180.798C120.94 180.658 120.849 180.539 120.725 180.465C120.637 180.413 120.59 180.398 120.59 180.394Z" fill="#263238"/>
<path d="M84.8074 174.889L95.2341 179.253L108.227 177.899L97.3012 173.388L84.8074 174.889Z" fill="#F5F5F5"/>
<path d="M76.9469 183.138L97.3013 181.3L77.8656 173.594L71.6167 174.065L74.9193 182.033L76.9469 183.138Z" fill="#F5F5F5"/>
<path d="M118.574 180.382L118.436 180.406L118.02 180.457L116.436 180.62L110.551 181.194L91.1474 183.004L75.8934 184.382H75.8301L75.8063 184.322L72.4284 176.081L71.5018 173.777C71.3988 173.513 71.3196 173.311 71.2642 173.171C71.2352 173.101 71.2101 173.03 71.189 172.957C71.189 172.957 71.2246 173.024 71.288 173.159L71.5493 173.757L72.5195 176.042C73.3511 178.022 74.5391 180.853 75.9647 184.259L75.8776 184.203L91.1276 182.79L110.551 181.039L116.424 180.54L118.008 180.414L118.424 180.386L118.574 180.382Z" fill="#1E2959"/>
<path d="M32.2383 142.219H32.4125L32.9273 142.279L34.9073 142.536L42.17 143.526C45.235 143.954 48.902 144.469 52.9372 145.066L56.0418 145.546L56.8338 145.68C56.9645 145.7 57.1031 145.732 57.2298 145.763C57.2972 145.763 57.3684 145.791 57.4358 145.811C57.7698 145.945 58.0729 146.146 58.3268 146.401C58.4296 146.511 58.5115 146.638 58.5683 146.777L58.7228 147.173C59.5504 149.24 60.4058 151.383 61.2849 153.573C64.7855 162.344 67.9496 170.288 70.2464 176.046C71.3829 178.917 72.3016 181.245 72.9431 182.861C73.252 183.653 73.4936 184.286 73.6638 184.722C73.743 184.928 73.8024 185.086 73.846 185.205C73.8685 185.259 73.887 185.315 73.9014 185.371C73.8735 185.32 73.8484 185.267 73.8262 185.213L73.6242 184.734L72.8679 182.892C72.2145 181.277 71.2839 178.96 70.0959 176.097L61.1146 153.648C60.2355 151.458 59.3801 149.316 58.5525 147.248L58.398 146.852C58.3503 146.736 58.2819 146.628 58.1961 146.536C58.019 146.343 57.8048 146.188 57.5664 146.08C57.5072 146.052 57.4464 146.027 57.3843 146.005L57.1942 145.957C57.0675 145.93 56.9408 145.902 56.7982 145.882L56.0062 145.744L52.9016 145.257L42.1462 143.673L34.8915 142.615L32.9115 142.322L32.4006 142.239L32.2383 142.219Z" fill="#1E2959"/>
<path d="M52.7076 160.423C53.6976 161.75 53.8956 163.275 53.1551 163.829C52.4145 164.383 51.0048 163.762 50.0148 162.435C49.0248 161.108 48.8268 159.588 49.5673 159.029C50.3078 158.471 51.7176 159.101 52.7076 160.423Z" fill="white"/>
<path d="M177.994 137.808C176.667 130.284 168.347 125.75 165.599 123.247L169.729 128.771C171.843 137.49 172.644 146.475 172.105 155.43C172.05 156.408 172.157 157.727 172.854 157.865C173.106 157.886 173.356 157.808 173.551 157.648C175.99 156.083 177.574 152.5 177.927 148.809C178.279 145.118 178.596 141.289 177.994 137.808Z" fill="#FF9F1C"/>
<path d="M171.903 129.381C171.507 128.625 171.67 126.213 169.527 128.731L169.389 127.789L156.151 117.612L126.645 119.144C123.813 119.323 119.56 124.225 118.499 126.272C117.628 133.887 117.453 140.647 117.453 140.647C117.453 140.647 116.44 149.114 117.453 153.117C118.467 157.121 119.667 158.566 121.235 161.679C122.383 163.805 123.814 165.766 125.488 167.508L126.866 178.2L157.691 180.972L171.801 180.18C171.801 180.18 170.537 159.093 170.537 158.721C170.537 158.546 172.299 154.475 174.192 150.155C177.408 142.762 175.594 136.517 171.903 129.381Z" fill="#1E2959"/>
<path d="M94.4934 167.734C94.6478 167.734 96.1883 157.323 97.1981 154.959C98.1485 152.729 118.499 126.269 118.499 126.269L123.291 141.713L121.235 149.973L110.147 163.314L107.015 172.985L94.4934 167.734Z" fill="#1E2959"/>
<path d="M176.006 137.293C174.545 128.031 167.33 128.435 167.33 128.435L160.158 140.913V166.716L125.56 169.71L124.918 178.398C124.918 178.398 159.39 186.278 167.354 183.637C172.624 181.891 177.075 177.483 177.562 170.28C178.05 163.077 177.471 146.56 176.006 137.293Z" fill="#1E2959"/>
<path d="M110.183 163.299C110.083 162.708 109.95 162.124 109.787 161.548C109.353 160.165 108.57 158.916 107.513 157.924C106.456 156.931 105.16 156.228 103.752 155.882C103.166 155.75 102.574 155.649 101.978 155.581C102.141 155.561 102.306 155.561 102.469 155.581C102.913 155.599 103.354 155.657 103.788 155.755C105.233 156.075 106.564 156.78 107.641 157.795C108.718 158.81 109.501 160.097 109.906 161.521C110.031 161.947 110.115 162.385 110.159 162.827C110.187 162.983 110.195 163.141 110.183 163.299Z" fill="#1E2959"/>
<path d="M126.744 169.353C126.793 169.34 126.844 169.33 126.894 169.325L127.334 169.262L129.029 169.036L135.274 168.244L155.866 165.741L160.443 165.195L160.352 165.294C160.618 158.277 160.748 152.091 160.701 147.66C160.701 145.446 160.653 143.668 160.626 142.445C160.626 141.843 160.598 141.371 160.59 141.043V140.678C160.59 140.595 160.59 140.556 160.59 140.552C160.594 140.594 160.594 140.636 160.59 140.678C160.59 140.77 160.59 140.888 160.614 141.039C160.614 141.371 160.653 141.831 160.681 142.445C160.733 143.664 160.788 145.442 160.82 147.66C160.891 152.091 160.796 158.285 160.539 165.298V165.385H160.451L155.874 165.935L135.262 168.379L129.013 169.095L127.31 169.278L126.867 169.321L126.744 169.353Z" fill="#1E2959"/>
<path d="M178.034 169.353C178.039 169.406 178.039 169.459 178.034 169.511C178.034 169.622 178.034 169.777 178.01 169.971C177.974 170.561 177.907 171.15 177.808 171.733C177.652 172.658 177.426 173.571 177.131 174.461C176.726 175.638 176.184 176.763 175.515 177.812C174.701 179.089 173.674 180.217 172.478 181.146C171.103 182.213 169.515 182.971 167.821 183.367C166.909 183.587 165.983 183.742 165.049 183.831C164.077 183.918 163.102 183.955 162.126 183.942C160.081 183.9 158.041 183.71 156.024 183.371L144.338 181.451L139.241 180.603L134.802 179.784C132.098 179.277 129.904 178.893 128.383 178.663L126.629 178.406L126.173 178.342C126.121 178.338 126.069 178.327 126.019 178.311H126.173L126.633 178.358C127.029 178.402 127.631 178.469 128.395 178.576C129.92 178.782 132.117 179.146 134.83 179.633L139.261 180.425L144.362 181.253L156.048 183.162C158.058 183.504 160.091 183.698 162.13 183.744C163.12 183.744 164.087 183.716 165.033 183.641C165.956 183.556 166.872 183.405 167.773 183.189C169.446 182.802 171.015 182.059 172.375 181.011C173.56 180.099 174.58 178.992 175.392 177.736C176.062 176.7 176.608 175.589 177.02 174.426C177.322 173.544 177.559 172.642 177.729 171.725C177.859 170.969 177.939 170.375 177.966 169.971L178.014 169.511C178.017 169.458 178.023 169.405 178.034 169.353Z" fill="#1E2959"/>
<path d="M125.809 169.991C125.793 169.938 125.782 169.884 125.778 169.829C125.758 169.706 125.73 169.543 125.702 169.345C125.639 168.902 125.548 168.284 125.437 167.5V167.528L122.816 164.625C122.305 163.896 121.843 163.134 121.433 162.344C120.976 161.445 120.571 160.519 120.222 159.572C119.449 157.432 118.918 155.213 118.638 152.955C118.361 150.511 118.304 148.047 118.467 145.593C118.59 143.336 118.824 141.309 119.046 139.614C119.267 137.919 119.477 136.553 119.628 135.606L119.806 134.521C119.826 134.406 119.842 134.315 119.857 134.24C119.86 134.207 119.868 134.175 119.881 134.145C119.885 134.177 119.885 134.208 119.881 134.24C119.881 134.319 119.881 134.41 119.849 134.525C119.814 134.794 119.77 135.159 119.711 135.618C119.584 136.565 119.398 137.935 119.192 139.634C118.986 141.332 118.8 143.352 118.677 145.609C118.526 148.051 118.587 150.5 118.859 152.931C119.135 155.175 119.656 157.382 120.412 159.513C120.754 160.45 121.15 161.366 121.6 162.257C122.001 163.043 122.452 163.802 122.95 164.53L125.536 167.468L125.75 169.318C125.77 169.52 125.786 169.682 125.801 169.805C125.815 169.866 125.818 169.929 125.809 169.991Z" fill="#1E2959"/>
<path d="M165.429 170.953C165.168 170.663 164.928 170.355 164.712 170.03C164.281 169.448 163.675 168.656 162.966 167.813C162.257 166.969 161.588 166.229 161.093 165.706C160.808 165.435 160.544 165.144 160.301 164.835C160.623 165.059 160.92 165.316 161.188 165.603C161.868 166.26 162.512 166.954 163.116 167.682C163.725 168.405 164.294 169.16 164.823 169.943C165.059 170.259 165.262 170.597 165.429 170.953Z" fill="#1E2959"/>
<path d="M102.96 169.004C102.667 167.314 101.126 165.995 101.126 165.995C101.126 165.995 100.39 163.936 99.289 163.393C98.1881 162.851 97.309 163.936 96.3507 163.643C95.3923 163.35 93.3371 163.274 92.6758 163.643C92.0145 164.011 91.2066 166.066 91.2066 166.066C90.5399 166.093 89.8877 166.269 89.2979 166.581C88.798 166.839 88.3653 167.211 88.0346 167.666C87.7476 167.554 87.4334 167.532 87.1335 167.603C86.8337 167.674 86.5624 167.834 86.3556 168.062C85.9539 168.531 85.6532 169.079 85.4725 169.67L84.9498 171.072C84.8492 171.285 84.8029 171.521 84.8152 171.757C84.8555 171.951 84.9605 172.125 85.113 172.252C85.2655 172.379 85.4565 172.45 85.6547 172.454C85.856 172.455 86.0553 172.413 86.2395 172.332C86.4237 172.251 86.5888 172.132 86.7239 171.982C86.9934 171.716 87.2312 171.42 87.4327 171.099L87.5634 172.018C87.5634 172.018 87.7812 173.471 88.9573 173.558C89.7691 173.622 90.6483 172.679 90.6483 172.679L92.7035 172.458L92.9965 174.513C93.1319 174.909 93.3907 175.251 93.735 175.489C94.0793 175.727 94.4908 175.849 94.9092 175.835C95.6458 175.835 96.5962 174.588 96.5962 174.588L98.5089 175.321C98.5089 175.321 100.711 176.865 101.74 176.35C102.028 176.205 102.258 175.965 102.392 175.672C102.526 175.378 102.556 175.047 102.477 174.735C102.916 174.236 103.264 173.664 103.502 173.044C103.78 172.165 103.269 170.695 102.96 169.004Z" fill="#FFBE9D"/>
<path d="M87.516 171.666C87.4323 170.939 87.4576 170.203 87.5913 169.484C87.6598 168.756 87.8388 168.043 88.1219 167.369C88.1773 167.369 87.9595 168.331 87.7932 169.515C87.6269 170.7 87.5913 171.666 87.516 171.666Z" fill="#EB996E"/>
<path d="M90.7275 169.733C90.8523 170.233 90.9109 170.747 90.9017 171.262C90.9438 171.634 90.906 172.011 90.7908 172.367C90.676 172.644 90.5136 172.763 90.5017 172.731C90.4899 172.699 90.5849 172.577 90.6522 172.335C90.7201 171.99 90.7348 171.636 90.6958 171.286C90.6354 170.769 90.6461 170.247 90.7275 169.733Z" fill="#EB996E"/>
<path d="M92.0977 168.858C92.1373 168.898 91.868 169.254 91.4918 169.618C91.1156 169.983 90.783 170.276 90.7394 170.236C90.6959 170.197 90.9691 169.84 91.3453 169.476C91.7215 169.112 92.0581 168.818 92.0977 168.858Z" fill="#EB996E"/>
<path d="M92.3708 164.906C92.4152 165.276 92.4311 165.65 92.4183 166.022C92.4183 166.715 92.446 167.666 92.5015 168.715C92.5569 169.765 92.6401 170.715 92.6995 171.404C92.7557 171.774 92.7796 172.147 92.7708 172.521C92.6614 172.162 92.5897 171.793 92.5569 171.42C92.4579 170.735 92.355 169.784 92.2956 168.727C92.2362 167.67 92.2441 166.715 92.2718 166.022C92.266 165.648 92.2992 165.274 92.3708 164.906Z" fill="#EB996E"/>
<path d="M100.077 165.694C100.077 165.694 99.9902 165.892 99.8516 166.249C99.6584 166.754 99.5048 167.273 99.3922 167.801C99.3209 168.142 99.2457 168.51 99.1625 168.902C99.0839 169.331 98.9672 169.753 98.814 170.161C98.6431 170.623 98.3551 171.032 97.9785 171.349C97.7728 171.528 97.5277 171.655 97.2634 171.72C96.9991 171.786 96.723 171.787 96.4578 171.726C96.1823 171.663 95.933 171.517 95.745 171.306C95.5715 171.096 95.4604 170.843 95.4243 170.573C95.368 170.092 95.3587 169.607 95.3965 169.124C95.4414 168.314 95.5661 167.51 95.7688 166.724C95.9048 166.195 96.0795 165.676 96.2915 165.172C96.3668 164.994 96.4262 164.859 96.4737 164.776C96.4939 164.727 96.5205 164.682 96.5529 164.641C96.5035 164.834 96.4413 165.023 96.3668 165.207C96.1849 165.717 96.0328 166.237 95.9114 166.764C95.7312 167.544 95.6226 168.339 95.5866 169.14C95.5552 169.607 95.5671 170.076 95.6223 170.542C95.6545 170.774 95.7505 170.993 95.8995 171.175C96.0609 171.352 96.2721 171.477 96.5054 171.532C96.7404 171.586 96.9849 171.583 97.219 171.525C97.453 171.466 97.6698 171.353 97.8518 171.195C98.205 170.898 98.4775 170.517 98.6438 170.086C98.8926 169.324 99.0975 168.548 99.2576 167.762C99.3818 167.23 99.5569 166.711 99.7803 166.213C99.8419 166.077 99.912 165.945 99.9902 165.817C100.038 165.734 100.069 165.691 100.077 165.694Z" fill="#EB996E"/>
<path d="M100.853 166.585C100.798 167.024 100.604 167.434 100.3 167.756C99.996 168.078 99.5976 168.294 99.1624 168.375C99.5092 168.146 99.8388 167.892 100.148 167.615C100.409 167.289 100.644 166.945 100.853 166.585Z" fill="#EB996E"/>
<path d="M96.6003 171.706C96.7303 172.255 96.7638 172.823 96.6993 173.385C96.6783 173.884 96.608 174.38 96.4895 174.866V174.893C96.4746 174.901 96.4582 174.905 96.4415 174.906C96.4249 174.906 96.4083 174.903 96.393 174.896C96.3778 174.889 96.3643 174.879 96.3536 174.866C96.3429 174.853 96.3352 174.838 96.3311 174.822C96.3311 174.782 96.3311 174.767 96.3311 174.767C96.3311 174.767 96.3311 174.786 96.3588 174.802C96.3865 174.818 96.4142 174.834 96.4261 174.802L96.4023 174.834C96.4023 174.565 96.4617 174.002 96.4974 173.353C96.493 172.802 96.5274 172.252 96.6003 171.706Z" fill="#EB996E"/>
<path d="M101.261 170.066C101.108 170.318 100.928 170.552 100.722 170.763C100.269 171.291 99.8706 171.864 99.5345 172.474C99.2002 173.082 99.0105 173.76 98.9801 174.454C98.9801 174.988 99.0712 175.313 99.0355 175.321C98.8967 175.053 98.8273 174.755 98.8336 174.454C98.8217 173.727 99.0006 173.01 99.3523 172.375C99.7012 171.749 100.133 171.174 100.635 170.664C100.818 170.439 101.028 170.238 101.261 170.066Z" fill="#EB996E"/>
<path d="M100.449 173.717C100.326 173.272 100.346 172.799 100.509 172.366C100.671 171.933 100.966 171.563 101.352 171.309C102.734 170.327 106.873 167.745 106.96 167.745C107.047 167.745 111.819 166.161 113.826 165.955C115.834 165.749 124.621 170.113 124.621 170.113C124.621 170.113 126.661 173.052 126.332 175.871C126.003 178.691 124.166 178.853 124.166 178.853L121.616 178.231L118.986 177.728C118.986 177.728 113.169 179.348 112.254 179.051C111.339 178.754 111.023 177.76 112.013 177.222C113.003 176.683 115.85 175.839 115.85 175.839L118.04 174.913L110.912 175.931C110.912 175.931 104.885 177.119 104.18 176.952C103.475 176.786 103.368 176.259 103.309 175.764C103.309 175.764 100.881 176.952 100.16 176.303C99.4396 175.653 99.1228 174.24 100.449 173.717Z" fill="#FFBE9D"/>
<path d="M115.834 171.982C115.657 172.011 115.478 172.02 115.299 172.01C114.959 172.01 114.464 172.01 113.854 172.05C113.143 172.082 112.436 172.181 111.743 172.347C111.335 172.451 110.937 172.593 110.555 172.77C110.159 172.953 109.763 173.166 109.367 173.404C108.963 173.635 108.542 173.835 108.108 174.002C107.702 174.152 107.277 174.244 106.845 174.275C106.133 174.276 105.424 174.355 104.73 174.513C104.277 174.657 103.877 174.933 103.582 175.305C103.482 175.45 103.393 175.602 103.316 175.76C103.316 175.76 103.316 175.709 103.34 175.622C103.381 175.494 103.44 175.373 103.514 175.261C103.8 174.85 104.209 174.541 104.683 174.378C105.384 174.195 106.104 174.098 106.829 174.089C107.691 173.988 108.519 173.695 109.252 173.23C109.648 173.004 110.044 172.774 110.464 172.588C110.855 172.41 111.262 172.269 111.68 172.169C112.385 172.004 113.106 171.917 113.83 171.911C114.448 171.911 114.943 171.911 115.287 171.935C115.471 171.934 115.654 171.95 115.834 171.982Z" fill="#EB996E"/>
<path d="M113.68 168.977C113.639 169.004 113.595 169.027 113.549 169.044C113.466 169.084 113.335 169.135 113.153 169.195C112.667 169.345 112.171 169.458 111.668 169.535C111.038 169.646 110.278 169.729 109.47 169.931C108.6 170.195 107.764 170.56 106.979 171.02C105.518 171.834 103.992 172.525 102.418 173.088C101.816 173.301 101.321 173.46 100.976 173.563C100.801 173.626 100.621 173.672 100.438 173.701C100.602 173.613 100.774 173.542 100.952 173.488L102.366 172.949C103.918 172.351 105.426 171.646 106.88 170.838C107.679 170.37 108.533 170.003 109.423 169.745C110.157 169.579 110.9 169.455 111.648 169.373C112.147 169.31 112.641 169.219 113.129 169.1C113.31 169.049 113.494 169.008 113.68 168.977Z" fill="#EB996E"/>
<path d="M119.465 170.676C119.413 170.521 119.375 170.362 119.351 170.201C119.256 169.83 119.073 169.488 118.818 169.203C118.563 168.919 118.243 168.7 117.885 168.565C117.728 168.523 117.574 168.467 117.426 168.399C117.426 168.375 117.624 168.351 117.933 168.426C118.334 168.535 118.696 168.756 118.974 169.064C119.251 169.374 119.431 169.758 119.493 170.169C119.535 170.337 119.525 170.513 119.465 170.676Z" fill="#EB996E"/>
<path d="M122.76 175.123C122.753 174.9 122.733 174.678 122.701 174.457C122.566 173.943 122.262 173.488 121.837 173.166C121.401 172.849 120.919 172.6 120.408 172.426C120.185 172.367 119.972 172.278 119.774 172.161C120.005 172.164 120.235 172.207 120.451 172.287C120.998 172.428 121.513 172.671 121.968 173.004C122.43 173.353 122.743 173.864 122.843 174.434C122.901 174.666 122.871 174.911 122.76 175.123Z" fill="#EB996E"/>
<path d="M103.332 175.756C103.231 175.846 103.114 175.916 102.988 175.962C102.657 176.118 102.315 176.251 101.966 176.358C101.725 176.442 101.479 176.51 101.229 176.56C100.928 176.6 100.622 176.569 100.334 176.469C100.172 176.41 100.024 176.317 99.9002 176.197C99.776 176.077 99.6784 175.932 99.6137 175.772C99.4499 175.447 99.3839 175.081 99.4236 174.719C99.4648 174.446 99.6059 174.197 99.8196 174.022C100.002 173.862 100.206 173.728 100.425 173.626L100.374 173.745C100.213 173.254 100.25 172.72 100.477 172.256C100.666 171.908 100.92 171.6 101.225 171.349C101.421 171.185 101.631 171.038 101.851 170.909C101.927 170.855 102.011 170.813 102.101 170.787C102.12 170.814 101.78 171.012 101.309 171.44C101.03 171.694 100.8 171.996 100.627 172.331C100.432 172.759 100.41 173.245 100.564 173.689L100.588 173.765L100.513 173.804C100.14 173.998 99.6929 174.283 99.6493 174.751C99.6163 175.073 99.6739 175.398 99.8157 175.689C99.8682 175.826 99.9489 175.95 100.053 176.054C100.156 176.158 100.281 176.239 100.418 176.291C100.671 176.384 100.941 176.419 101.21 176.394C101.453 176.35 101.693 176.293 101.93 176.224C102.37 176.101 102.722 175.978 102.96 175.891C103.079 175.833 103.204 175.788 103.332 175.756Z" fill="#EB996E"/>
<path d="M134.014 95.6497C133.155 87.0723 131.337 78.5346 131.714 69.9097L124.661 74.3132C125.013 77.7267 121.944 80.372 120.166 83.3024C119.102 85.0926 118.478 87.1097 118.345 89.188C118.212 91.2663 118.574 93.3465 119.402 95.2576C120.035 96.6832 120.934 98.0296 121.168 99.574C121.564 102.18 119.952 104.829 120.546 107.399C121.227 110.357 124.847 111.981 127.765 111.149C130.684 110.318 132.775 107.585 133.634 104.69C134.493 101.796 134.315 98.6712 134.014 95.6497Z" fill="#263238"/>
<path d="M125.041 72.8638C125.431 70.7709 126.371 68.8194 127.763 67.2093C129.156 65.5992 130.952 64.3883 132.967 63.7009C134.982 63.0134 137.143 62.874 139.23 63.297C141.316 63.72 143.253 64.6902 144.841 66.1081C146.128 67.2604 147.181 68.6979 148.67 69.5731C150.353 70.5591 150.571 70.2265 152.424 70.8244C154.278 71.4224 157.909 76.2615 157.968 78.2098L159.41 86.6842C159.457 88.684 156.962 89.971 155.03 89.4562C153.098 88.9414 151.735 87.2347 150.626 85.5635C149.518 83.8924 148.464 82.0827 146.758 81.0333C143.926 79.2949 140.291 80.1819 137.083 81.0333C133.876 81.8847 130.149 82.6173 127.48 80.6373C125.199 78.9147 124.518 75.6675 125.041 72.8638Z" fill="#263238"/>
<path d="M124.019 85.1397C124.019 79.5641 127.302 72.5271 132.87 72.7806L150.413 76.107C151.229 76.1431 152.002 76.4848 152.579 77.0642C153.155 77.6437 153.493 78.4186 153.525 79.2354L154.187 121.013H154.305C154.305 121.013 148.211 136.339 136.568 133.464C134.26 132.893 135.967 127.147 135.357 124.629L135.242 124.653C135.218 124.348 135.198 124.067 135.175 123.777C134.834 121.893 134.692 119.978 134.751 118.063C134.509 114.701 134.426 113.311 134.426 113.355C134.426 113.398 127.259 112.602 125.231 103.435C124.225 98.8968 123.999 91.3371 124.019 85.1397Z" fill="#FFBE9D"/>
<path d="M127.116 92.4339C127.131 92.7434 127.267 93.0346 127.494 93.2455C127.721 93.4563 128.022 93.5701 128.332 93.5625C128.484 93.5656 128.635 93.5383 128.776 93.4821C128.917 93.426 129.045 93.342 129.154 93.2353C129.262 93.1286 129.347 93.0013 129.406 92.861C129.464 92.7206 129.493 92.57 129.492 92.418C129.477 92.1085 129.341 91.8173 129.114 91.6064C128.887 91.3956 128.586 91.2818 128.276 91.2894C128.124 91.2862 127.973 91.3136 127.832 91.3697C127.691 91.4259 127.563 91.5099 127.454 91.6166C127.346 91.7232 127.261 91.8505 127.202 91.9909C127.144 92.1313 127.115 92.2819 127.116 92.4339Z" fill="#263238"/>
<path d="M125.892 88.9691C126.047 89.1156 126.906 88.3949 128.185 88.3236C129.464 88.2523 130.439 88.8305 130.561 88.6681C130.629 88.5929 130.458 88.3236 130.035 88.0503C129.458 87.6995 128.787 87.5362 128.114 87.5831C127.456 87.6301 126.83 87.8837 126.324 88.3077C125.928 88.6166 125.813 88.9057 125.892 88.9691Z" fill="#263238"/>
<path d="M138.64 91.7887C138.655 92.0982 138.791 92.3895 139.018 92.6003C139.245 92.8112 139.546 92.9249 139.855 92.9173C140.007 92.9205 140.158 92.8932 140.299 92.837C140.441 92.7808 140.569 92.6969 140.677 92.5902C140.785 92.4835 140.871 92.3562 140.929 92.2158C140.987 92.0754 141.017 91.9248 141.016 91.7729C141 91.4612 140.863 91.1682 140.633 90.957C140.403 90.7458 140.1 90.6335 139.788 90.6443C139.637 90.6427 139.487 90.6712 139.348 90.7281C139.208 90.785 139.081 90.8692 138.974 90.9757C138.867 91.0822 138.782 91.209 138.725 91.3486C138.668 91.4882 138.639 91.6378 138.64 91.7887Z" fill="#263238"/>
<path d="M138.466 88.4544C138.62 88.597 139.479 87.8802 140.758 87.805C142.037 87.7297 143.012 88.3158 143.134 88.1495C143.198 88.0743 143.035 87.805 142.608 87.5317C142.031 87.1826 141.36 87.0195 140.687 87.0645C140.023 87.1045 139.389 87.3525 138.873 87.7733C138.505 88.098 138.386 88.3871 138.466 88.4544Z" fill="#263238"/>
<path d="M134.399 98.2079C134.399 98.1327 133.607 98.0456 132.3 97.9585C131.971 97.9585 131.658 97.8951 131.591 97.6773C131.543 97.3415 131.598 96.999 131.749 96.6952C132.011 95.9032 132.28 95.0439 132.565 94.1569C133.694 90.5374 134.486 87.5714 134.339 87.5278C134.193 87.4843 133.151 90.379 132.034 93.9945L131.262 96.5527C131.079 96.9571 131.047 97.4135 131.171 97.8397C131.225 97.9527 131.304 98.0519 131.402 98.1294C131.5 98.207 131.615 98.261 131.737 98.2871C131.921 98.3255 132.109 98.3401 132.296 98.3307C133.595 98.3228 134.399 98.2792 134.399 98.2079Z" fill="#263238"/>
<path d="M134.426 113.379C138.788 113.181 143.01 111.777 146.623 109.324C146.623 109.324 143.883 115.957 134.569 115.66L134.426 113.379Z" fill="#EB996E"/>
<path d="M135.123 101.253C135.347 100.932 135.65 100.674 136.002 100.503C136.354 100.332 136.744 100.253 137.135 100.275C137.418 100.282 137.697 100.347 137.954 100.465C138.212 100.584 138.442 100.754 138.632 100.964C138.816 101.167 138.933 101.421 138.967 101.692C139.002 101.963 138.953 102.239 138.826 102.481C138.635 102.723 138.376 102.902 138.082 102.996C137.789 103.089 137.474 103.094 137.178 103.007C136.562 102.83 135.987 102.531 135.487 102.128C135.334 102.036 135.199 101.915 135.091 101.772C135.04 101.704 135.01 101.623 135.005 101.539C135 101.454 135.021 101.37 135.064 101.297" fill="#EB996E"/>
<path d="M138.204 98.8653C137.994 98.8653 138.073 100.251 136.949 101.305C135.824 102.358 134.335 102.299 134.335 102.493C134.335 102.58 134.679 102.742 135.305 102.722C136.118 102.686 136.892 102.363 137.491 101.812C138.065 101.281 138.41 100.548 138.453 99.7682C138.481 99.186 138.303 98.8494 138.204 98.8653Z" fill="#263238"/>
<path d="M137.852 83.6113C137.998 83.9519 139.265 83.7103 140.774 83.8014C142.283 83.8925 143.522 84.2251 143.701 83.9004C143.78 83.7459 143.55 83.4331 143.043 83.1084C142.366 82.7352 141.612 82.5213 140.839 82.4828C140.067 82.4444 139.296 82.5825 138.584 82.8866C138.05 83.1599 137.808 83.449 137.852 83.6113Z" fill="#263238"/>
<path d="M126.138 85.2428C126.379 85.52 127.243 85.1676 128.3 85.0884C129.357 85.0092 130.28 85.1676 130.454 84.8508C130.537 84.6963 130.379 84.4152 129.967 84.1657C129.422 83.8664 128.8 83.7367 128.18 83.7932C127.561 83.8496 126.972 84.0896 126.49 84.4825C126.134 84.8033 126.031 85.1082 126.138 85.2428Z" fill="#263238"/>
<path d="M133.028 70.3966L133.749 69.3433C139.134 69.6223 144.456 70.6321 149.569 72.3449C151.612 73.03 153.688 73.8735 155.153 75.4535C157.172 77.6236 157.667 80.7599 158.063 83.6983C159.576 94.8773 160.97 106.405 158.103 117.319C157.168 116.004 155.466 115.493 153.866 115.283C152.266 115.073 150.599 115.081 149.114 114.436C148.307 114.066 147.587 113.533 146.999 112.868C146.411 112.204 145.969 111.424 145.7 110.579C145.171 108.873 145.26 107.035 145.95 105.387C146.698 103.554 148.12 101.74 147.625 99.8432C147.106 97.8355 144.702 96.8177 144.029 94.8575C142.869 91.4678 147.514 88.0701 146.322 84.6922C145.878 83.4448 144.714 82.5895 143.494 82.0747C142.275 81.5599 140.96 81.3104 139.729 80.8312C137.681 79.9829 135.941 78.5287 134.744 76.6635C133.546 74.7984 132.947 72.6117 133.028 70.3966Z" fill="#263238"/>
<path d="M160.424 75.9208C154.666 67.8504 150.765 66.8722 145.348 66.5713L152.872 83.4409C154 86.1574 155.553 89.4522 155.794 92.3786C156.079 95.8515 154.876 98.7582 153.264 101.843C151.331 105.55 149.209 109.082 145.886 111.616C142.564 114.151 135.167 117.338 131.325 115.695L136.683 118.693L149.482 118.74L164.391 118.8C164.391 118.8 166.134 117.271 167.666 113.327C171.512 103.447 166.847 84.9219 160.424 75.9208Z" fill="#FF9F1C"/>
<path d="M171.04 128.486C171.04 128.486 167.833 121.904 163.647 118.285C159.461 114.665 156.891 114.701 150.92 115.208C144.948 115.715 136.592 116.657 134.612 116.154L134.426 113.382C133.444 113.283 129.417 111.323 128.633 110.139C127.136 111.672 126.483 113.307 126.823 115.046L125.845 115.414C124.402 115.942 123.204 116.982 122.479 118.337C121.755 119.692 121.555 121.267 121.917 122.76C122.289 124.185 123.188 125.06 124.994 125.373C132.161 126.613 151.324 121.433 157.093 121.413C162.863 121.393 171.04 128.486 171.04 128.486Z" fill="#FF9F1C"/>
<path d="M124.344 125.298C124.512 125.293 124.68 125.303 124.847 125.326C125.172 125.358 125.639 125.409 126.269 125.453C128.015 125.589 129.769 125.618 131.52 125.54C134.113 125.406 136.691 125.057 139.226 124.495C140.659 124.182 142.152 123.802 143.685 123.358L148.413 121.897C151.656 120.911 154.907 120.238 157.881 120.531C160.501 120.77 163.037 121.581 165.31 122.907C166.836 123.801 168.216 124.924 169.401 126.237C169.723 126.592 170.024 126.964 170.304 127.354C170.407 127.478 170.501 127.611 170.585 127.75C170.46 127.639 170.348 127.514 170.252 127.377C170.05 127.12 169.73 126.76 169.306 126.308C166.284 123.143 162.213 121.186 157.854 120.804C154.939 120.535 151.739 121.2 148.508 122.182C146.888 122.669 145.316 123.188 143.776 123.635C142.235 124.083 140.734 124.455 139.289 124.76C136.736 125.314 134.138 125.643 131.527 125.742C129.768 125.801 128.007 125.736 126.257 125.548C125.639 125.485 125.16 125.413 124.839 125.362C124.672 125.355 124.507 125.334 124.344 125.298Z" fill="#263238"/>
<path d="M171.385 126.324C164.154 116.923 150.29 113.331 139.4 118.036L127.916 120.471C124.887 120.994 120.028 121.98 119.798 124.787C119.588 127.761 120.235 130.732 121.663 133.349C124.332 137.998 122.883 144.227 125.552 148.876C126.811 151.074 128.098 153.303 129.936 155.05C131.773 156.796 134.268 158.02 136.786 157.746C139.59 157.445 141.887 155.398 143.669 153.212C147.506 148.504 149.902 142.786 153.494 137.891C157.085 132.996 161.322 129.393 168.87 128.93C170.24 128.842 174.149 130.668 174.149 130.668C174.26 130.114 171.729 126.763 171.385 126.324Z" fill="#FF9F1C"/>
<g opacity="0.3">
<path opacity="0.3" d="M155.929 120.732C150.936 120.732 146.029 123.132 141.19 124.201C121.723 128.486 121.723 121.144 121.723 121.144C121.113 124.593 124.352 126.177 127.762 126.969C134.272 128.474 141.226 129.282 145.922 127.781C149.708 126.593 153.66 125.71 157.481 124.613C161.303 123.516 166.807 123.936 169.702 126.653C167.112 122.396 160.923 120.721 155.929 120.732Z" fill="#1E2959"/>
</g>
<g opacity="0.3">
<path opacity="0.3" d="M130.629 120.206C130.861 120.715 131.201 121.169 131.625 121.536C132.048 121.903 132.546 122.175 133.084 122.332C134.162 122.643 135.291 122.74 136.406 122.617C140.477 122.34 144.39 120.982 148.243 119.635C145.162 119.528 142.18 120.602 139.158 121.219C136.137 121.837 132.731 121.877 130.276 120.031" fill="#1E2959"/>
</g>
<path d="M172.363 129.337C172.363 129.337 172.327 129.31 172.272 129.25L172.03 128.973C171.82 128.724 171.5 128.375 171.076 127.932C169.883 126.677 168.441 125.686 166.843 125.021C165.727 124.6 164.556 124.347 163.366 124.269C162.002 124.158 160.629 124.202 159.275 124.399C156.4 124.795 153.363 125.805 150.139 126.724C146.916 127.643 143.839 128.601 140.913 128.755C138.333 128.867 135.748 128.682 133.21 128.205C131.048 127.809 129.326 127.35 128.134 127.053L126.764 126.704L126.411 126.609L126.288 126.569C126.33 126.563 126.373 126.563 126.415 126.569L126.775 126.645L128.153 126.958C129.341 127.231 131.076 127.662 133.238 128.043C135.765 128.499 138.336 128.669 140.901 128.549C143.795 128.387 146.876 127.472 150.084 126.51C153.292 125.548 156.349 124.578 159.247 124.193C160.617 124 162.004 123.963 163.382 124.083C164.859 124.168 166.305 124.545 167.636 125.194C168.966 125.842 170.154 126.749 171.131 127.86C171.551 128.316 171.864 128.672 172.062 128.93L172.288 129.219L172.363 129.337Z" fill="#1E2959"/>
<path d="M165.093 119.651C165.063 119.632 165.035 119.609 165.009 119.584L164.78 119.374C164.586 119.184 164.281 118.919 163.885 118.582C162.744 117.66 161.494 116.883 160.162 116.269C158.186 115.364 156.085 114.76 153.929 114.479C151.287 114.151 148.614 114.158 145.974 114.499C143.331 114.849 140.708 115.338 138.117 115.964C136.972 116.233 135.793 116.327 134.62 116.242C133.589 116.164 132.599 115.806 131.757 115.204C131.082 114.691 130.505 114.061 130.054 113.343C129.714 112.807 129.419 112.244 129.171 111.66C128.969 111.181 128.835 110.797 128.748 110.535L128.657 110.238C128.643 110.205 128.635 110.171 128.633 110.135C128.633 110.135 128.653 110.167 128.676 110.23C128.7 110.294 128.744 110.405 128.787 110.523C128.886 110.777 129.033 111.153 129.247 111.628C129.505 112.202 129.808 112.754 130.153 113.279C130.605 113.978 131.177 114.589 131.844 115.085C132.67 115.662 133.636 116.002 134.64 116.071C135.794 116.146 136.953 116.047 138.077 115.778C140.672 115.138 143.3 114.644 145.95 114.297C148.608 113.954 151.299 113.954 153.957 114.297C156.128 114.592 158.242 115.215 160.226 116.147C161.561 116.773 162.809 117.571 163.936 118.523C164.242 118.782 164.534 119.057 164.811 119.346L165.025 119.568C165.073 119.623 165.097 119.647 165.093 119.651Z" fill="#1E2959"/>
<path d="M162.756 119.457H162.657L162.364 119.41L161.235 119.224C159.852 119.011 158.459 118.869 157.061 118.8C154.987 118.698 152.908 118.764 150.844 118.998C148.32 119.337 145.818 119.827 143.352 120.467C140.723 121.101 138.164 121.655 135.792 121.62C134.673 121.627 133.556 121.494 132.47 121.224C131.522 120.956 130.646 120.481 129.904 119.834C128.839 118.903 127.974 117.766 127.361 116.491C127.128 116.03 126.944 115.545 126.811 115.046C126.83 115.074 126.845 115.105 126.855 115.137L126.962 115.414C127.061 115.66 127.211 116.012 127.433 116.452C128.066 117.699 128.938 118.811 129.999 119.723C130.73 120.346 131.588 120.801 132.513 121.057C133.587 121.318 134.688 121.445 135.792 121.433C138.137 121.433 140.675 120.907 143.316 120.269C145.791 119.624 148.304 119.135 150.84 118.804C152.914 118.581 155.003 118.529 157.085 118.65C158.487 118.731 159.884 118.894 161.267 119.137C161.758 119.228 162.134 119.303 162.392 119.362L162.681 119.43C162.728 119.442 162.756 119.453 162.756 119.457Z" fill="#1E2959"/>
<path d="M163.12 101.685C163.085 101.91 163.035 102.132 162.97 102.35C162.908 102.611 162.831 102.867 162.74 103.119C162.637 103.416 162.538 103.756 162.38 104.117C162.221 104.477 162.067 104.881 161.857 105.305C161.647 105.728 161.413 106.152 161.156 106.607C160 108.554 158.495 110.271 156.717 111.672C156.301 111.989 155.925 112.294 155.529 112.539C155.133 112.785 154.776 113.019 154.432 113.213C154.087 113.407 153.771 113.565 153.493 113.704C153.256 113.828 153.011 113.938 152.761 114.032C152.555 114.127 152.341 114.207 152.123 114.27C152.317 114.151 152.519 114.047 152.729 113.961C152.927 113.87 153.169 113.755 153.442 113.601C153.715 113.446 154.032 113.3 154.361 113.086C154.689 112.872 155.062 112.666 155.434 112.397C155.806 112.128 156.198 111.838 156.622 111.526C158.366 110.118 159.853 108.419 161.017 106.504C161.275 106.057 161.528 105.637 161.726 105.225C161.924 104.813 162.122 104.433 162.269 104.069C162.415 103.705 162.542 103.38 162.665 103.091C162.788 102.802 162.859 102.544 162.922 102.338C162.969 102.115 163.036 101.897 163.12 101.685Z" fill="#1E2959"/>
<path d="M162.522 125.29C162.415 125.29 162.308 125.281 162.202 125.263L161.806 125.211C161.655 125.191 161.477 125.211 161.283 125.184C160.163 125.157 159.047 125.33 157.988 125.694C157.258 125.945 156.547 126.25 155.862 126.605C155.077 127.019 154.314 127.473 153.577 127.967C152.017 129.009 150.385 130.284 148.635 131.571L139.701 138.204L136.973 140.184L136.224 140.699C136.141 140.766 136.051 140.825 135.955 140.873C136.03 140.799 136.111 140.73 136.196 140.667L136.921 140.105L139.61 138.065L148.52 131.405C150.27 130.122 151.902 128.847 153.482 127.809C154.226 127.315 154.997 126.862 155.79 126.451C156.488 126.099 157.211 125.8 157.953 125.556C159.029 125.199 160.162 125.046 161.295 125.104C161.493 125.104 161.671 125.124 161.822 125.148L162.218 125.219C162.321 125.234 162.423 125.258 162.522 125.29Z" fill="#1E2959"/>
<path d="M175.301 137.431C175.225 137.252 175.166 137.065 175.127 136.873C175.032 136.513 174.897 135.986 174.707 135.345C174.494 134.592 174.222 133.857 173.896 133.147C173.499 132.282 172.956 131.492 172.292 130.81C171.631 130.127 170.804 129.626 169.892 129.357C169.141 129.156 168.361 129.088 167.587 129.155C166.871 129.236 166.159 129.357 165.457 129.519C165.499 129.491 165.546 129.47 165.595 129.456C165.69 129.42 165.829 129.373 165.991 129.321C166.508 129.168 167.039 129.065 167.575 129.013C168.371 128.92 169.176 128.975 169.951 129.175C170.899 129.443 171.76 129.957 172.446 130.664C173.128 131.362 173.681 132.176 174.078 133.068C174.402 133.79 174.667 134.539 174.87 135.305C175.04 135.954 175.155 136.493 175.226 136.857C175.268 137.046 175.293 137.238 175.301 137.431Z" fill="#1E2959"/>
<path d="M168.276 63.5234C176.062 63.1617 182.081 56.5564 181.719 48.7702C181.358 40.9839 174.752 34.9652 166.966 35.3269C159.18 35.6887 153.161 42.2939 153.523 50.0802C153.885 57.8664 160.49 63.8851 168.276 63.5234Z" fill="white"/>
<path d="M159.77 65.7361C159.901 65.6993 160.033 65.6689 160.166 65.645C160.547 65.5978 160.934 65.6712 161.271 65.8549C161.503 65.9757 161.706 66.146 161.865 66.3538C162.042 66.5954 162.145 66.8828 162.162 67.1815C162.199 67.525 162.13 67.8716 161.964 68.1747C161.799 68.4778 161.544 68.7229 161.235 68.8769C160.925 69.0309 160.576 69.0864 160.235 69.0361C159.893 68.9857 159.575 68.8319 159.323 68.5952C159.096 68.4014 158.928 68.1474 158.84 67.8626C158.766 67.6051 158.752 67.3346 158.796 67.0706C158.854 66.6906 159.029 66.3379 159.295 66.0608C159.485 65.8668 159.624 65.7994 159.616 65.7876C159.581 65.7983 159.547 65.8143 159.517 65.8351C159.477 65.8557 159.438 65.8795 159.402 65.9063C159.352 65.9432 159.305 65.9828 159.259 66.0251C159.015 66.2587 158.838 66.5533 158.746 66.8785C158.654 67.2037 158.651 67.5476 158.737 67.8745C158.825 68.1824 159.001 68.4578 159.244 68.6665C159.508 68.9016 159.833 69.0579 160.182 69.1179C160.558 69.1971 160.949 69.1472 161.293 68.9761C161.636 68.805 161.912 68.5229 162.075 68.1754C162.236 67.8602 162.307 67.5068 162.281 67.1538C162.259 66.8337 162.145 66.5269 161.952 66.2707C161.783 66.0501 161.565 65.8724 161.315 65.7519C160.959 65.5681 160.553 65.5055 160.158 65.5737C160.098 65.5826 160.038 65.5972 159.98 65.6173C159.935 65.6288 159.891 65.6447 159.849 65.6648C159.802 65.7084 159.766 65.7361 159.77 65.7361Z" fill="#263238"/>
<path d="M155.87 57.4554L155.755 57.2534L155.406 56.6753C155.331 56.5446 155.244 56.402 155.149 56.2476C155.054 56.0931 154.983 55.9031 154.888 55.7051C154.793 55.5071 154.694 55.3091 154.587 55.0715C154.528 54.9568 154.479 54.8376 154.44 54.7151C154.397 54.5883 154.349 54.4616 154.301 54.3191C153.822 53.0345 153.54 51.6846 153.466 50.3155C153.356 48.5022 153.596 46.6847 154.171 44.9616L154.42 44.2409C154.519 43.9993 154.634 43.7657 154.741 43.5241C154.793 43.4053 154.848 43.2865 154.903 43.1637C154.954 43.0399 155.015 42.9207 155.086 42.8073L155.482 42.0985C155.549 41.9797 155.616 41.8609 155.687 41.7421L155.933 41.4016L156.428 40.7125C156.598 40.4868 156.8 40.2769 156.99 40.0551L157.279 39.7265C157.327 39.675 157.374 39.6156 157.426 39.5641L157.588 39.4136C158.013 38.9868 158.467 38.5899 158.947 38.2256C159.192 38.0474 159.43 37.8296 159.691 37.6752L160.483 37.1881C160.618 37.1089 160.748 37.0178 160.879 36.9466L161.311 36.7406C161.6 36.606 161.885 36.4555 162.182 36.3446C162.793 36.1017 163.418 35.898 164.055 35.7348L164.538 35.612L164.784 35.5526L165.033 35.517L166.035 35.3665C166.376 35.3309 166.716 35.323 167.061 35.3032C167.231 35.3032 167.405 35.2754 167.579 35.3032L168.098 35.3269C168.801 35.3526 169.5 35.4254 170.193 35.5447L171.234 35.7942L171.496 35.8576C171.583 35.8813 171.666 35.913 171.753 35.9407L172.264 36.1189L172.779 36.2932L173.278 36.5149L173.777 36.7446L174.026 36.8555C174.109 36.899 174.185 36.9465 174.268 36.9941L175.226 37.5445L176.137 38.1939C178.581 40.0256 180.361 42.6047 181.206 45.5397C181.301 45.9001 181.392 46.2644 181.483 46.6208L181.649 47.7177L181.689 47.991V48.2642L181.717 48.8107L181.744 49.3572L181.721 49.8997L181.697 50.4422V50.7115L181.661 50.9768C181.61 51.3332 181.562 51.6857 181.515 52.0381C181.374 52.7283 181.188 53.4083 180.956 54.0735L180.79 54.5646C180.735 54.7309 180.651 54.8814 180.584 55.0398C180.438 55.3526 180.311 55.6694 180.152 55.9704C179.994 56.2713 179.816 56.5604 179.649 56.8535L179.523 57.0713C179.475 57.1425 179.424 57.2099 179.376 57.2772L179.087 57.6732C178.705 58.2067 178.288 58.7146 177.84 59.1938C177.614 59.4275 177.372 59.6373 177.143 59.8591L176.79 60.1838C176.676 60.2907 176.541 60.3818 176.418 60.4769L175.674 61.0471C175.42 61.2253 175.147 61.3758 174.882 61.5381C174.374 61.8546 173.845 62.1351 173.298 62.3777L173.1 62.4727L172.894 62.5519L172.498 62.6984C172.221 62.7935 171.955 62.9083 171.682 62.9875L170.858 63.1974L170.462 63.3004L170.066 63.3637L169.274 63.4865C169.143 63.5094 169.011 63.5227 168.878 63.5261H168.482C168.221 63.5261 167.96 63.5617 167.69 63.5657L166.926 63.534C165.112 63.4447 163.331 63.0064 161.683 62.243C161.501 62.1599 161.319 62.0846 161.144 62.0015L160.653 61.7164L160.178 61.4471C160.099 61.3995 160.02 61.3599 159.948 61.3124L159.739 61.1619L158.947 60.5917C158.697 60.4016 158.483 60.1957 158.265 60.0135L157.957 59.7443C157.857 59.6619 157.763 59.5733 157.675 59.4789L157.141 59.0037C156.994 58.8453 156.852 58.7028 156.745 58.5642L156.44 58.1682L156.044 57.6336C155.953 57.5148 155.901 57.4554 155.901 57.4554L156.036 57.6415C156.127 57.7682 156.262 57.9464 156.432 58.184L156.729 58.58C156.848 58.7226 156.99 58.8651 157.125 59.0235L157.6 59.5423C157.687 59.639 157.781 59.729 157.881 59.8116L158.19 60.0848C158.404 60.267 158.618 60.4808 158.867 60.6669L159.659 61.2451L159.869 61.3956C159.944 61.4471 160.024 61.4867 160.099 61.5342L160.574 61.8074L161.069 62.0965L161.608 62.342C163.263 63.1169 165.053 63.5634 166.878 63.6567L167.647 63.6924C167.904 63.6924 168.169 63.6686 168.439 63.6567L168.835 63.633C168.967 63.6325 169.1 63.6205 169.231 63.5973L170.043 63.4746L170.439 63.4112L170.835 63.3083L171.666 63.0984C171.939 63.0192 172.209 62.9083 172.486 62.8133L172.902 62.6628C172.969 62.6351 173.04 62.6153 173.108 62.5836L173.31 62.4885C173.865 62.2444 174.404 61.9626 174.921 61.6451C175.183 61.4827 175.456 61.3322 175.713 61.154L176.466 60.5798C176.592 60.4808 176.723 60.3937 176.862 60.2868L177.214 59.9581C177.444 59.7363 177.693 59.5225 177.919 59.2889C178.371 58.8057 178.792 58.2938 179.178 57.7563C179.273 57.6178 179.372 57.4831 179.471 57.3603C179.519 57.293 179.57 57.2257 179.618 57.1544L179.745 56.9327L180.255 56.0456C180.414 55.7407 180.544 55.4199 180.691 55.1071C180.758 54.9447 180.845 54.7903 180.901 54.6279L181.067 54.129C181.302 53.459 181.49 52.7736 181.629 52.0777C181.681 51.7253 181.732 51.3649 181.78 51.0085L181.82 50.7392V50.466L181.843 49.9235L181.867 49.373L181.839 48.8226L181.808 48.2721V47.991L181.764 47.7177L181.598 46.6129C181.507 46.2486 181.416 45.8843 181.321 45.5199C180.485 42.5504 178.699 39.9367 176.236 38.0791L175.317 37.4217L174.347 36.8673C174.268 36.8198 174.189 36.7723 174.105 36.7287L173.852 36.6139L173.349 36.3842L172.846 36.1625L172.327 35.9843L171.809 35.8061L171.551 35.7189L171.286 35.6596C170.937 35.5724 170.585 35.4893 170.237 35.4101C169.538 35.2875 168.831 35.2134 168.122 35.1883L167.599 35.1646C167.425 35.1646 167.251 35.1646 167.076 35.1646C166.728 35.1883 166.383 35.1923 166.043 35.2279L165.029 35.3823L164.78 35.4219C164.696 35.4219 164.613 35.4615 164.534 35.4813L164.043 35.6081C163.402 35.7702 162.772 35.9753 162.158 36.2219C161.857 36.3486 161.568 36.503 161.275 36.6377L160.843 36.8476C160.701 36.9188 160.57 37.0099 160.447 37.0931L159.655 37.5841C159.394 37.7584 159.152 37.9603 158.907 38.1425C158.424 38.5067 157.966 38.9037 157.537 39.3305L157.374 39.4849C157.323 39.5364 157.275 39.5958 157.228 39.6512C157.18 39.7067 157.034 39.873 156.935 39.9799C156.745 40.2056 156.539 40.4155 156.373 40.6412L155.874 41.3382L155.628 41.6827C155.557 41.8015 155.49 41.9243 155.422 42.0431L155.026 42.7559C154.957 42.8711 154.898 42.9916 154.848 43.1162L154.682 43.4805C154.575 43.7221 154.46 43.9597 154.365 44.2013C154.27 44.4428 154.199 44.6883 154.115 44.9299C153.541 46.6639 153.307 48.4927 153.426 50.3155C153.505 51.6914 153.795 53.047 154.286 54.3349L154.428 54.7309C154.467 54.8535 154.516 54.9726 154.575 55.0873L154.884 55.7209C154.983 55.915 155.062 56.0971 155.153 56.2595L155.414 56.6832L155.775 57.2574C155.822 57.3881 155.87 57.4554 155.87 57.4554Z" fill="#263238"/>
<path d="M160.495 49.7813L162.586 47.6905L166.617 51.2743L174.529 43.6592L176.47 45.7501L166.32 55.3055L160.495 49.7813Z" fill="#FF9F1C"/>
</svg>
