<svg width="198" height="198" viewBox="0 0 198 198" fill="none" xmlns="http://www.w3.org/2000/svg">
<path d="M179.97 189.074C179.97 189.13 143.075 189.177 97.5746 189.177C52.0742 189.177 15.167 189.13 15.167 189.074C15.167 189.019 52.0544 188.971 97.5746 188.971C143.095 188.971 179.97 189.015 179.97 189.074Z" fill="#0A1D47"/>
<path d="M148.951 116.657H131.591V137.297H148.951V116.657Z" fill="#F5F5F5"/>
<path d="M132.188 115.315H53.729V138.6H132.188V115.315Z" fill="#FF9F1C"/>
<path d="M149.478 117.271H130.074V115.315H149.478C149.607 115.314 149.734 115.339 149.853 115.388C149.972 115.437 150.08 115.509 150.171 115.6C150.262 115.691 150.334 115.799 150.383 115.918C150.432 116.037 150.457 116.164 150.456 116.293C150.456 116.552 150.353 116.801 150.17 116.985C149.986 117.168 149.738 117.271 149.478 117.271Z" fill="#FF9F1C"/>
<path d="M149.478 138.6H130.074V136.644H149.478C149.738 136.644 149.986 136.747 150.17 136.93C150.353 137.113 150.456 137.362 150.456 137.622C150.457 137.75 150.432 137.878 150.383 137.997C150.334 138.116 150.262 138.224 150.171 138.314C150.08 138.405 149.972 138.477 149.853 138.526C149.734 138.575 149.607 138.6 149.478 138.6Z" fill="#FF9F1C"/>
<g opacity="0.4">
<path opacity="0.4" d="M126.023 115.315H116.752V138.6H126.023V115.315Z" fill="#1E2959"/>
</g>
<g opacity="0.4">
<path opacity="0.4" d="M69.9613 115.315H60.6909V138.6H69.9613V115.315Z" fill="#1E2959"/>
</g>
<path d="M148.951 120.075C148.951 120.13 145.193 120.178 140.56 120.178C135.927 120.178 132.169 120.13 132.169 120.075C132.169 120.019 135.927 119.988 140.58 119.988C145.233 119.988 148.951 120.016 148.951 120.075Z" fill="#E0E0E0"/>
<path d="M148.951 123.156C148.951 123.215 145.193 123.259 140.56 123.259C135.927 123.259 132.169 123.215 132.169 123.156C132.169 123.096 135.927 123.053 140.56 123.053C145.193 123.053 148.951 123.112 148.951 123.156Z" fill="#E0E0E0"/>
<path d="M148.951 126.977C148.951 127.036 145.193 127.084 140.56 127.084C135.927 127.084 132.169 127.036 132.169 126.977C132.169 126.918 135.927 126.874 140.56 126.874C145.193 126.874 148.951 126.922 148.951 126.977Z" fill="#E0E0E0"/>
<path d="M148.951 130.791C148.951 130.846 145.193 130.894 140.56 130.894C135.927 130.894 132.169 130.846 132.169 130.791C132.169 130.735 135.927 130.68 140.58 130.68C145.233 130.68 148.951 130.731 148.951 130.791Z" fill="#E0E0E0"/>
<path d="M148.951 134.6C148.951 134.659 145.193 134.703 140.56 134.703C135.927 134.703 132.169 134.659 132.169 134.6C132.169 134.541 135.927 134.497 140.56 134.497C145.193 134.497 148.951 134.545 148.951 134.6Z" fill="#E0E0E0"/>
<g opacity="0.2">
<path opacity="0.2" d="M111.767 124.882H76.4678V129.076H111.767V124.882Z" fill="#1E2959"/>
</g>
<path d="M148.773 139.055H131.147V151.632H148.773V139.055Z" fill="#FAFAFA"/>
<path d="M131.345 138.596H56.3271V152.083H131.345V138.596Z" fill="#1E2959"/>
<path d="M130.799 139.51H149.747C149.868 139.51 149.984 139.462 150.069 139.377C150.155 139.292 150.203 139.176 150.203 139.055C150.203 138.995 150.192 138.935 150.169 138.88C150.147 138.824 150.113 138.773 150.071 138.73C150.029 138.688 149.978 138.654 149.923 138.631C149.867 138.608 149.808 138.596 149.747 138.596H130.799V139.51Z" fill="#1E2959"/>
<path d="M130.799 151.173H149.747C149.868 151.173 149.984 151.221 150.069 151.306C150.155 151.392 150.203 151.507 150.203 151.628C150.203 151.749 150.155 151.865 150.069 151.95C149.984 152.036 149.868 152.084 149.747 152.084H130.799V151.173Z" fill="#1E2959"/>
<path d="M148.777 141.443C148.777 141.498 144.872 141.546 140.065 141.546C135.258 141.546 131.353 141.498 131.353 141.443C131.353 141.387 135.254 141.34 140.065 141.34C144.876 141.34 148.777 141.372 148.777 141.443Z" fill="#E0E0E0"/>
<path d="M148.777 143.823C148.777 143.879 144.872 143.926 140.065 143.926C135.258 143.926 131.353 143.879 131.353 143.823C131.353 143.768 135.254 143.72 140.065 143.72C144.876 143.72 148.777 143.748 148.777 143.823Z" fill="#E0E0E0"/>
<path d="M148.777 146.199C148.777 146.259 144.872 146.302 140.065 146.302C135.258 146.302 131.353 146.259 131.353 146.199C131.353 146.14 135.254 146.096 140.065 146.096C144.876 146.096 148.777 146.144 148.777 146.199Z" fill="#E0E0E0"/>
<path d="M148.777 148.579C148.777 148.638 144.872 148.682 140.065 148.682C135.258 148.682 131.353 148.638 131.353 148.579C131.353 148.52 135.254 148.476 140.065 148.476C144.876 148.476 148.777 148.524 148.777 148.579Z" fill="#E0E0E0"/>
<path d="M119.754 143.427H68.021V146.947H119.754V143.427Z" fill="#0A1D47"/>
<path d="M151.45 153.284H133.456V187.375H151.45V153.284Z" fill="#EBEBEB"/>
<path d="M133.456 152.087H49.001V189.05H133.456V152.087Z" fill="#FF9F1C"/>
<path d="M152.856 189.05H131.147V186.674H152.856C153.171 186.674 153.473 186.799 153.696 187.022C153.919 187.245 154.044 187.547 154.044 187.862C154.044 188.177 153.919 188.479 153.696 188.702C153.473 188.925 153.171 189.05 152.856 189.05Z" fill="#FF9F1C"/>
<path d="M131.147 152.088H152.856C153.171 152.088 153.473 152.213 153.696 152.436C153.919 152.658 154.044 152.961 154.044 153.276C154.044 153.591 153.919 153.893 153.696 154.116C153.473 154.339 153.171 154.464 152.856 154.464H131.147V152.068V152.088Z" fill="#FF9F1C"/>
<g opacity="0.4">
<path opacity="0.4" d="M115.291 152.087L97.5269 189.05H112.535L129.377 152.087H115.291Z" fill="white"/>
</g>
<g opacity="0.4">
<path opacity="0.4" d="M87.2704 152.087L69.5059 189.05H84.5103L101.356 152.087H87.2704Z" fill="white"/>
</g>
<path d="M151.45 157.853C151.45 157.912 147.423 157.956 142.453 157.956C137.483 157.956 133.456 157.912 133.456 157.853C133.456 157.794 137.483 157.75 142.453 157.75C147.423 157.75 151.45 157.798 151.45 157.853Z" fill="#E0E0E0"/>
<path d="M151.45 162.225C151.45 162.284 147.423 162.328 142.453 162.328C137.483 162.328 133.456 162.284 133.456 162.225C133.456 162.166 137.483 162.122 142.453 162.122C147.423 162.122 151.45 162.17 151.45 162.225Z" fill="#E0E0E0"/>
<path d="M151.45 166.601C151.45 166.656 147.423 166.704 142.453 166.704C137.483 166.704 133.456 166.656 133.456 166.601C133.456 166.546 137.483 166.498 142.453 166.498C147.423 166.498 151.45 166.542 151.45 166.601Z" fill="#E0E0E0"/>
<path d="M151.45 170.973C151.45 171.028 147.423 171.076 142.453 171.076C137.483 171.076 133.456 171.028 133.456 170.973C133.456 170.917 137.483 170.87 142.453 170.87C147.423 170.87 151.45 170.913 151.45 170.973Z" fill="#E0E0E0"/>
<path d="M151.45 175.345C151.45 175.4 147.423 175.448 142.453 175.448C137.483 175.448 133.456 175.4 133.456 175.345C133.456 175.289 137.483 175.242 142.453 175.242C147.423 175.242 151.45 175.289 151.45 175.345Z" fill="#E0E0E0"/>
<path d="M151.45 179.716C151.45 179.772 147.423 179.819 142.453 179.819C137.483 179.819 133.452 179.784 133.452 179.716C133.452 179.649 137.479 179.613 142.449 179.613C147.419 179.613 151.45 179.661 151.45 179.716Z" fill="#E0E0E0"/>
<path d="M151.45 184.088C151.45 184.148 147.423 184.191 142.453 184.191C137.483 184.191 133.452 184.14 133.452 184.088C133.452 184.037 137.479 183.985 142.449 183.985C147.419 183.985 151.45 184.033 151.45 184.088Z" fill="#E0E0E0"/>
<path d="M140.742 52.775L135.23 43.9283C135.202 43.8833 135.163 43.8462 135.116 43.8205C135.07 43.7947 135.018 43.7813 134.965 43.7812C134.912 43.7813 134.859 43.7947 134.813 43.8205C134.767 43.8462 134.728 43.8833 134.699 43.9283L129.29 53.2819L140.742 52.775Z" fill="#FF9F1C"/>
<g opacity="0.3">
<path opacity="0.3" d="M140.742 52.775L135.23 43.9283C135.202 43.8833 135.163 43.8462 135.116 43.8205C135.07 43.7947 135.018 43.7813 134.965 43.7812C134.912 43.7813 134.859 43.7947 134.813 43.8205C134.767 43.8462 134.728 43.8833 134.699 43.9283L129.29 53.2819L140.742 52.775Z" fill="#1E2959"/>
</g>
<path d="M135.23 44.3486L140.382 52.7399L139.071 52.534L130.656 51.2074L133.793 44.61L135.23 44.3486Z" fill="#EBEBEB"/>
<path d="M135.781 60.8455L140.742 52.775L127.892 50.399C127.688 50.3608 127.476 50.3867 127.287 50.4732C127.098 50.5597 126.94 50.7025 126.835 50.8821L119.588 63.1581C119.537 63.2456 119.507 63.3442 119.502 63.4455C119.497 63.5468 119.517 63.6479 119.559 63.74C119.601 63.8322 119.665 63.9127 119.746 63.9748C119.826 64.0369 119.92 64.0787 120.02 64.0967L132.098 66.239L135.781 60.8455Z" fill="#FF9F1C"/>
<path d="M132.351 44.855L139.483 52.577L129.127 50.6366L132.351 44.855Z" fill="#EBEBEB"/>
<path d="M129.127 50.637C129.138 50.5966 129.154 50.5579 129.175 50.5221L129.333 50.2093L129.967 49.0213C130.537 47.9877 131.329 46.5423 132.276 44.8118L132.335 44.7049L132.418 44.796L137.067 49.8093L139.554 52.5101L139.4 52.6328C137.776 50.3321 136.366 48.3402 135.349 46.9027L134.188 45.2237L133.887 44.7722C133.849 44.7214 133.816 44.667 133.788 44.6099C133.788 44.6099 133.836 44.6534 133.915 44.7524L134.244 45.188L135.452 46.8275L139.562 52.518L139.408 52.6447L136.917 49.9519L132.288 44.9148H132.43C131.456 46.6295 130.644 48.0828 130.054 49.0886L129.377 50.2529L129.195 50.5538C129.155 50.6053 129.131 50.6409 129.127 50.637Z" fill="#0A1D47"/>
<g opacity="0.3">
<path opacity="0.3" d="M129.27 53.9946C129.159 54.1609 124.946 61.182 124.946 61.182L131.812 62.4651L136.37 55.1826L129.27 53.9946Z" fill="white"/>
</g>
<path d="M77.6159 173.765L81.3898 168.835L81.5878 168.582L88.0189 173.365L82.0789 179.907L82.2967 186.528C85.6112 187.388 86.1101 189.043 86.1101 189.043H79.2158L72.9233 176.973L77.6159 173.765Z" fill="#1E2959"/>
<path d="M72.9233 176.972L79.1999 189.035H86.0943C85.9142 188.632 85.6431 188.277 85.3023 187.997L79.6949 187.704L73.9173 176.303L72.9233 176.972Z" fill="#EBEBEB"/>
<path d="M82.2214 183.495C82.1699 183.566 81.7739 183.34 81.2393 183.352C80.7047 183.364 80.3166 183.59 80.2612 183.519C80.2058 183.447 80.5859 183.055 81.2354 183.051C81.8848 183.047 82.2848 183.439 82.2214 183.495Z" fill="#0A1D47"/>
<path d="M82.1106 181.851C82.0433 181.899 81.7344 181.495 81.184 181.384C80.6335 181.273 80.1979 181.53 80.1504 181.459C80.1029 181.388 80.2098 181.313 80.3999 181.206C80.6604 181.07 80.9596 181.028 81.2473 181.087C81.5333 181.146 81.7913 181.299 81.9799 181.522C82.1146 181.697 82.1462 181.831 82.1106 181.851Z" fill="#0A1D47"/>
<path d="M82.1583 179.741C82.0831 179.78 81.8495 179.38 81.3663 179.214C80.8832 179.048 80.4555 179.214 80.4199 179.127C80.3842 179.04 80.4912 178.996 80.6813 178.925C80.9375 178.834 81.217 178.834 81.4733 178.925C81.7269 179.016 81.9429 179.188 82.0871 179.416C82.1861 179.598 82.194 179.729 82.1583 179.741Z" fill="#0A1D47"/>
<path d="M84.0037 178.109C83.9205 178.137 83.7304 177.745 83.3028 177.468C82.8751 177.19 82.4434 177.147 82.4395 177.072C82.4355 176.996 82.9503 176.874 83.4691 177.222C83.9878 177.571 84.0868 178.097 84.0037 178.109Z" fill="#0A1D47"/>
<path d="M84.9063 176.691C84.8707 176.715 84.641 176.438 84.3044 175.97L83.7223 175.143C83.5872 174.974 83.479 174.786 83.4015 174.584C83.361 174.444 83.3766 174.294 83.4451 174.165C83.4856 174.092 83.5465 174.032 83.6204 173.994C83.6943 173.955 83.7779 173.939 83.8609 173.947C84.1034 173.993 84.3267 174.11 84.5024 174.283C84.6652 174.422 84.8067 174.583 84.9221 174.763C85.117 175.062 85.2403 175.402 85.2825 175.757C85.3534 176.079 85.2981 176.416 85.1281 176.699C85.1262 176.396 85.1077 176.093 85.0726 175.792C84.9737 175.29 84.7053 174.837 84.3123 174.509C84.1775 174.386 84.0143 174.297 83.8371 174.252C83.8118 174.246 83.7854 174.249 83.7618 174.26C83.7382 174.27 83.7187 174.288 83.7064 174.311C83.6838 174.375 83.6838 174.445 83.7064 174.509C83.7766 174.679 83.867 174.84 83.9757 174.988C84.1539 175.281 84.3281 175.57 84.5024 175.852C84.6776 176.11 84.8138 176.393 84.9063 176.691Z" fill="#0A1D47"/>
<path d="M85.14 176.897C85.1083 176.897 85.14 176.533 85.5082 176.105C85.7633 175.831 86.1005 175.648 86.4691 175.582C86.8376 175.516 87.2176 175.572 87.5516 175.741C87.5863 175.772 87.6138 175.81 87.6323 175.852C87.6508 175.894 87.6597 175.94 87.6585 175.987C87.6533 176.066 87.6243 176.142 87.5754 176.204C87.5028 176.288 87.4188 176.362 87.3259 176.422C87.172 176.529 87.009 176.622 86.8388 176.699C86.5524 176.833 86.2461 176.918 85.932 176.953C85.6467 177.014 85.3496 176.986 85.0806 176.874C85.3498 176.814 85.6221 176.769 85.8963 176.739C86.1827 176.678 86.4597 176.58 86.72 176.446C86.872 176.369 87.0177 176.281 87.1556 176.181C87.2206 176.136 87.2803 176.084 87.3338 176.026C87.3655 175.963 87.3576 175.983 87.3338 175.963C87.2733 175.925 87.2061 175.9 87.1358 175.888C87.051 175.869 86.965 175.855 86.8784 175.848C86.7139 175.838 86.5487 175.85 86.3874 175.884C86.112 175.946 85.8563 176.075 85.6429 176.26C85.2984 176.616 85.1954 176.917 85.14 176.897Z" fill="#0A1D47"/>
<path d="M78.408 176.766C78.408 176.929 78.3599 177.087 78.2698 177.222C78.1798 177.357 78.0518 177.462 77.902 177.524C77.7522 177.586 77.5874 177.602 77.4284 177.57C77.2693 177.539 77.1233 177.461 77.0086 177.346C76.894 177.231 76.8159 177.085 76.7843 176.926C76.7527 176.767 76.7689 176.603 76.8309 176.453C76.893 176.303 76.9981 176.175 77.1329 176.085C77.2677 175.995 77.4261 175.947 77.5883 175.947C77.8057 175.947 78.0142 176.033 78.1679 176.187C78.3216 176.341 78.408 176.549 78.408 176.766Z" fill="#EBEBEB"/>
<g opacity="0.3">
<path opacity="0.3" d="M87.4011 174.022L86.0785 175.476L80.5107 169.963L81.2869 168.954L87.4011 174.022Z" fill="#1E2959"/>
</g>
<path d="M104.588 176.272L103.883 184.655C103.883 184.655 112.167 187.482 112.199 189.043L95.8955 188.967L96.4578 175.86L104.588 176.272Z" fill="#1E2959"/>
<path d="M98.8735 183.705C98.714 183.745 98.5752 183.843 98.4838 183.98C98.3924 184.117 98.3548 184.282 98.3785 184.445C98.4129 184.605 98.5071 184.746 98.6418 184.838C98.7765 184.931 98.9415 184.969 99.1032 184.944C99.2733 184.901 99.4211 184.796 99.5178 184.649C99.6144 184.503 99.653 184.325 99.6259 184.152C99.5729 183.988 99.4583 183.851 99.3061 183.769C99.1539 183.688 98.976 183.669 98.8101 183.716" fill="#EBEBEB"/>
<path d="M95.8833 188.967L95.9387 187.661L111.383 188.029C111.383 188.029 112.202 188.686 112.195 189.043L95.8833 188.967Z" fill="#EBEBEB"/>
<path d="M104.148 184.584C104.148 184.663 103.752 184.683 103.356 184.92C102.96 185.158 102.726 185.479 102.655 185.447C102.584 185.415 102.723 184.956 103.218 184.679C103.712 184.402 104.172 184.512 104.148 184.584Z" fill="#0A1D47"/>
<path d="M105.827 185.376C105.827 185.451 105.487 185.57 105.201 185.895C104.916 186.219 104.805 186.572 104.742 186.564C104.679 186.556 104.631 186.105 104.995 185.709C105.36 185.313 105.827 185.297 105.827 185.376Z" fill="#0A1D47"/>
<path d="M106.698 187.466C106.623 187.466 106.532 187.07 106.758 186.651C106.983 186.231 107.364 186.068 107.395 186.136C107.427 186.203 107.185 186.429 106.999 186.781C106.813 187.134 106.777 187.462 106.698 187.466Z" fill="#0A1D47"/>
<path d="M104.096 182.655C104.061 182.727 103.7 182.6 103.249 182.608C102.798 182.616 102.457 182.742 102.402 182.671C102.346 182.6 102.714 182.335 103.245 182.331C103.776 182.327 104.148 182.596 104.096 182.655Z" fill="#0A1D47"/>
<path d="M104.207 180.972C103.936 181.029 103.655 181.014 103.391 180.929C103.101 180.861 102.819 180.758 102.552 180.624C102.392 180.544 102.239 180.453 102.093 180.35C102.004 180.295 101.924 180.227 101.855 180.149C101.808 180.088 101.783 180.013 101.783 179.937C101.783 179.86 101.808 179.786 101.855 179.725C101.898 179.671 101.952 179.627 102.015 179.598C102.078 179.569 102.146 179.556 102.215 179.558C102.318 179.562 102.419 179.581 102.516 179.614C102.688 179.666 102.855 179.732 103.015 179.812C103.285 179.951 103.532 180.13 103.748 180.343C104.108 180.711 104.223 181.016 104.195 181.032C104.168 181.047 103.985 180.798 103.613 180.489C103.397 180.311 103.158 180.161 102.904 180.042C102.756 179.974 102.602 179.919 102.445 179.875C102.275 179.824 102.124 179.816 102.077 179.875C102.029 179.935 102.057 179.919 102.077 179.97C102.128 180.027 102.187 180.076 102.251 180.117C102.385 180.215 102.526 180.305 102.671 180.386C102.923 180.525 103.188 180.639 103.463 180.727C103.717 180.789 103.966 180.871 104.207 180.972Z" fill="#0A1D47"/>
<path d="M104.101 181.071C104.069 181.071 103.926 180.79 103.922 180.279C103.923 179.977 103.976 179.677 104.077 179.392C104.139 179.223 104.215 179.06 104.306 178.905C104.357 178.799 104.432 178.707 104.527 178.638C104.622 178.569 104.733 178.525 104.849 178.509C104.921 178.516 104.99 178.543 105.048 178.586C105.106 178.629 105.151 178.688 105.178 178.755C105.216 178.852 105.24 178.955 105.249 179.06C105.268 179.244 105.258 179.429 105.221 179.61C105.161 179.914 105.025 180.197 104.825 180.434C104.485 180.83 104.148 180.921 104.144 180.893C104.14 180.865 104.405 180.711 104.667 180.319C104.819 180.091 104.92 179.833 104.964 179.563C104.986 179.406 104.986 179.248 104.964 179.091C104.944 178.917 104.889 178.775 104.821 178.786C104.754 178.798 104.596 178.905 104.524 179.044C104.435 179.18 104.36 179.325 104.299 179.476C104.197 179.729 104.131 179.996 104.101 180.268C104.073 180.759 104.148 181.063 104.101 181.071Z" fill="#0A1D47"/>
<path d="M137.649 63.4831C137.808 63.0134 137.788 62.5018 137.594 62.0457C136.921 60.4617 135.337 56.8976 134.762 56.9966C134.256 57.0877 133.883 58.054 134.462 59.1192L132.596 57.5352C132.513 57.4635 132.409 57.4191 132.3 57.408C132.19 57.3969 132.08 57.4196 131.984 57.4731C131.888 57.5266 131.81 57.6083 131.762 57.7072C131.713 57.8061 131.696 57.9175 131.713 58.0263C131.76 58.2661 131.837 58.499 131.943 58.7193C132.521 59.9469 134.129 61.0953 134.129 61.0953L130.882 61.1151C130.882 61.1151 130.276 61.9625 131.389 62.5327C131.637 62.6542 131.905 62.7293 132.181 62.7545L133.86 62.9248C133.86 62.9248 130.826 66.2789 130.723 66.5917C130.575 67.0945 130.484 67.6127 130.454 68.1361L124.633 74.6107L126.189 84.4553L136.707 66.2393L137.649 63.4831Z" fill="#FFBE9D"/>
<path d="M136.806 62.002C136.778 62.0218 136.672 61.8674 136.442 61.6932C136.137 61.4737 135.786 61.3274 135.416 61.2655C135.038 61.2064 134.654 61.1852 134.272 61.2021C134.108 61.2232 133.941 61.2138 133.781 61.1744C133.781 61.1467 133.959 61.0991 134.26 61.0556C134.654 60.9945 135.054 60.9945 135.448 61.0556C135.852 61.1196 136.229 61.2999 136.533 61.5744C136.763 61.804 136.826 61.9941 136.806 62.002Z" fill="#AA6550"/>
<path d="M136.857 60.9844C136.38 60.7403 135.937 60.4355 135.539 60.0776C135.097 59.7736 134.698 59.4127 134.351 59.0044C134.828 59.2519 135.272 59.5579 135.673 59.9152C136.111 60.2205 136.509 60.5797 136.857 60.9844Z" fill="#AA6550"/>
<path d="M108.147 109.534C108.235 109.534 108.543 128.938 108.67 137.678C108.71 140.43 108.001 143.142 106.619 145.522L87.6702 178.81L76.7842 169.754L94.3864 140.006L87.9118 108.651L100.742 97.6182L108.147 109.534Z" fill="#0A1D47"/>
<path d="M117.355 105.57C117.299 106.687 107.059 178.648 107.059 178.648L94.3867 177.745L99.0358 105.123L117.355 105.57Z" fill="#0A1D47"/>
<path d="M106.742 110.619C106.742 110.619 106.742 110.686 106.766 110.809C106.789 110.932 106.797 111.126 106.821 111.364C106.861 111.863 106.924 112.579 106.999 113.502C107.146 115.367 107.36 118.048 107.617 121.359C107.874 124.669 108.155 128.633 108.48 133.021C108.551 134.122 108.625 135.246 108.702 136.395C108.734 136.969 108.785 137.555 108.765 138.145C108.748 138.744 108.69 139.34 108.591 139.931C108.386 141.143 108.016 142.321 107.49 143.432C107.229 143.998 106.916 144.537 106.611 145.087L105.688 146.738L92.9847 169.441C91.3532 172.332 90.0306 174.676 89.1158 176.308C88.6564 177.1 88.3001 177.737 88.0506 178.169L87.7734 178.652L87.6704 178.81C87.6704 178.81 87.6942 178.751 87.7536 178.64L88.0149 178.149L89.0445 176.268L92.858 169.37C96.0973 163.545 100.568 155.51 105.51 146.639C105.819 146.085 106.124 145.531 106.433 144.984C106.742 144.438 107.051 143.899 107.304 143.345C107.822 142.249 108.188 141.089 108.393 139.895C108.491 139.315 108.548 138.729 108.563 138.141C108.587 137.559 108.536 136.981 108.508 136.407C108.434 135.258 108.361 134.135 108.29 133.037C107.981 128.645 107.704 124.693 107.474 121.371C107.245 118.048 107.051 115.375 106.92 113.506C106.861 112.587 106.813 111.867 106.777 111.368C106.777 111.13 106.754 110.944 106.746 110.809C106.738 110.675 106.742 110.619 106.742 110.619Z" fill="#1E2959"/>
<path d="M98.0813 144.651C97.9936 144.652 97.9064 144.637 97.8239 144.608C97.5942 144.549 97.3712 144.467 97.1586 144.362C96.4531 144.013 95.8399 143.503 95.3685 142.873C94.8972 142.243 94.5812 141.51 94.446 140.735C94.4064 140.501 94.3905 140.263 94.3985 140.026C94.3985 139.86 94.3985 139.769 94.4302 139.769C94.4619 139.769 94.4658 140.137 94.5886 140.707C94.7575 141.446 95.0795 142.142 95.5337 142.749C95.988 143.356 96.5645 143.861 97.2259 144.231C97.7368 144.513 98.0892 144.616 98.0813 144.651Z" fill="#1E2959"/>
<path d="M99.5146 142.485C99.2099 142.544 98.8967 142.544 98.592 142.485C97.8497 142.384 97.1349 142.136 96.4892 141.756C95.8436 141.377 95.2786 140.876 94.826 140.279C94.6265 140.046 94.4721 139.777 94.3706 139.487C94.4023 139.487 94.5805 139.772 94.9408 140.2C95.8845 141.316 97.181 142.076 98.6157 142.354C99.1622 142.441 99.5146 142.449 99.5146 142.485Z" fill="#1E2959"/>
<path d="M90.5809 111.672C90.5809 111.672 90.668 111.783 90.8858 111.882C91.042 111.942 91.2095 111.968 91.3764 111.956C91.5433 111.944 91.7057 111.896 91.852 111.815C92.2932 111.555 92.7106 111.257 93.0994 110.924C93.5548 110.56 94.038 110.132 94.529 109.685C95.3616 108.893 96.1383 108.045 96.8535 107.146C97.4 106.457 97.7128 106.006 97.7366 106.026C97.6926 106.147 97.6313 106.262 97.5544 106.366C97.4277 106.576 97.2297 106.877 96.9684 107.237C96.2822 108.17 95.5135 109.04 94.6716 109.835C94.1766 110.298 93.6816 110.714 93.2182 111.075C92.8131 111.408 92.3753 111.7 91.9114 111.946C91.7467 112.028 91.565 112.071 91.3808 112.071C91.1966 112.071 91.015 112.028 90.8502 111.946C90.6205 111.811 90.573 111.672 90.5809 111.672Z" fill="#1E2959"/>
<path d="M97.6377 111.074C97.5129 111.464 97.3442 111.839 97.1348 112.191C96.6837 113.079 96.0652 113.871 95.3132 114.523C94.5364 115.18 93.5583 115.552 92.5412 115.577C92.2381 115.581 91.9361 115.539 91.6462 115.45C91.5366 115.426 91.433 115.38 91.3413 115.315C91.7323 115.395 92.1304 115.433 92.5293 115.43C93.4964 115.362 94.417 114.989 95.1587 114.365C95.8894 113.725 96.5066 112.966 96.9843 112.12C97.1822 111.759 97.4004 111.41 97.6377 111.074Z" fill="#1E2959"/>
<path d="M117.355 105.57C117.355 105.57 107.573 110.136 104.065 108.564C100.556 106.992 98.2594 103.364 95.721 104.208C93.1827 105.051 89.3098 105.792 87.9792 109.407C87.6958 109.102 87.4754 108.743 87.3307 108.353C87.1859 107.962 87.1197 107.547 87.1357 107.13C87.1357 105.72 88.3237 103.808 88.3237 103.808L86.7397 87.4688L86.8071 59.9943C86.8071 59.9943 89.5315 55.9353 96.909 56.1769L107.098 57.6421C107.098 57.6421 112.298 59.2261 113.747 61.8753C115.196 64.5246 114.594 83.4494 114.594 83.4494C114.594 83.4494 117.818 101.808 117.818 103.249C117.836 104.048 117.681 104.841 117.362 105.574" fill="#FF9F1C"/>
<path d="M123.156 74.3415L118.954 78.0877L113.751 61.8794L109.395 71.6408L111.153 87.4808C111.291 88.7195 111.806 89.8858 112.63 90.8216C113.453 91.7574 114.544 92.4174 115.755 92.712C116.707 92.9421 117.701 92.9388 118.652 92.7023C119.602 92.4658 120.482 92.0031 121.216 91.3537L125.651 87.56C125.965 87.295 126.204 86.9533 126.346 86.5681C126.489 86.1829 126.529 85.7675 126.463 85.3622L124.811 74.9395C124.785 74.7607 124.711 74.5923 124.597 74.4523C124.483 74.3123 124.333 74.2059 124.163 74.1445C123.993 74.0832 123.809 74.0691 123.632 74.1037C123.455 74.1384 123.29 74.2206 123.156 74.3415Z" fill="#FF9F1C"/>
<path d="M91.3335 69.9537C91.3335 70.314 89.3812 88.0073 89.3812 88.0073L97.6537 105.903C96.8617 107.59 95.3093 109.122 93.6026 110.619C93.6026 110.619 91.488 108.686 91.3652 104.572C91.3652 104.572 81.9642 93.5276 80.9979 90.6249C80.0317 87.7222 82.6928 67.8984 82.6928 67.8984L91.3335 69.9537Z" fill="#FFBE9D"/>
<path d="M112.349 73.0342C112.309 73.1617 112.252 73.283 112.179 73.3945C112.056 73.6203 111.874 73.941 111.644 74.337C111.386 74.8083 111.103 75.2656 110.797 75.7072C110.607 75.9746 110.366 76.202 110.088 76.3764C109.78 76.5577 109.431 76.6598 109.074 76.6734C108.393 76.6881 107.726 76.4764 107.177 76.0715C106.742 75.739 106.363 75.3378 106.057 74.8835C105.847 74.5874 105.656 74.2793 105.482 73.9608C105.409 73.8502 105.35 73.7304 105.308 73.6044C105.34 73.5846 105.629 74.0717 106.171 74.7924C106.486 75.2147 106.861 75.5883 107.284 75.9012C107.804 76.2713 108.428 76.4643 109.066 76.4517C109.388 76.4413 109.703 76.35 109.981 76.1863C110.239 76.027 110.465 75.82 110.646 75.5765C111.003 75.1053 111.268 74.6221 111.521 74.242C111.775 73.8618 111.969 73.549 112.111 73.3391C112.177 73.2278 112.257 73.1253 112.349 73.0342Z" fill="#0A1D47"/>
<path d="M118.443 87.7102C118.375 87.5987 118.322 87.4789 118.285 87.3538C118.159 87.0188 118.055 86.6762 117.972 86.3282C117.403 84.0154 117.526 81.5865 118.324 79.3427C118.444 79.0063 118.583 78.6771 118.74 78.3567C118.79 78.2352 118.855 78.1207 118.934 78.0161C118.97 78.0161 118.732 78.5349 118.463 79.3902C118.113 80.5027 117.904 81.6549 117.841 82.8196C117.786 83.9852 117.877 85.1532 118.111 86.2965C118.297 87.1716 118.479 87.6983 118.443 87.7102Z" fill="#0A1D47"/>
<path d="M120.657 84.467C120.45 84.2069 120.278 83.9206 120.146 83.6156C119.43 82.1773 119.012 80.6097 118.915 79.0061C118.872 78.6775 118.872 78.3447 118.915 78.0161C118.983 78.3382 119.025 78.6653 119.041 78.9942C119.13 79.7799 119.276 80.5581 119.477 81.3227C119.688 82.0848 119.953 82.8312 120.269 83.5562C120.421 83.8494 120.551 84.1539 120.657 84.467Z" fill="#0A1D47"/>
<path d="M112.068 76.3528C112.068 76.3528 112.108 76.4122 112.159 76.5271C112.235 76.6999 112.301 76.8771 112.357 77.0577C112.568 77.7227 112.656 78.4204 112.618 79.1169C112.566 80.1654 112.157 81.1645 111.458 81.9483C111.045 82.4145 110.528 82.7767 109.949 83.0056C109.319 83.2509 108.632 83.3087 107.969 83.1719C107.306 83.0467 106.698 82.7171 106.231 82.2295C105.817 81.763 105.53 81.1987 105.395 80.59C105.272 80.0535 105.193 79.5079 105.158 78.9585C105.118 78.4477 105.079 77.9725 105.043 77.5329C104.983 76.6894 104.936 75.9925 104.896 75.4737C104.896 75.248 104.877 75.0777 104.869 74.9114C104.86 74.8457 104.86 74.7791 104.869 74.7134C104.888 74.7765 104.9 74.8416 104.904 74.9074C104.904 75.0579 104.948 75.244 104.972 75.4658C105.027 75.9845 105.098 76.6775 105.185 77.521C105.229 77.9606 105.273 78.4358 105.324 78.9427C105.366 79.4763 105.45 80.0058 105.574 80.5267C105.702 81.1015 105.975 81.6342 106.366 82.075C106.806 82.5294 107.376 82.8365 107.997 82.9541C108.617 83.0795 109.26 83.0259 109.85 82.7997C110.4 82.5844 110.892 82.2441 111.288 81.8057C111.967 81.0552 112.374 80.0986 112.444 79.0892C112.496 78.4075 112.431 77.7219 112.254 77.0617C112.163 76.6102 112.068 76.3607 112.068 76.3528Z" fill="#0A1D47"/>
<g opacity="0.2">
<path opacity="0.2" d="M92.034 93.7413C92.1846 92.4519 92.5014 91.1874 92.9765 89.9793C93.5468 88.4785 94.2912 86.9895 94.315 85.3818C94.2822 84.3701 94.1035 83.3684 93.7844 82.4078L90.8975 72.0049C90.7866 74.6924 90.6771 77.3826 90.5688 80.0754C90.4824 80.7299 90.5869 81.3955 90.8698 81.992C91.2975 82.689 92.1726 82.9939 92.6597 83.6473C92.8451 83.9013 92.966 84.1965 93.0123 84.5076C93.0585 84.8187 93.0285 85.1363 92.925 85.4332C92.7112 86.0233 92.1806 86.1738 91.5747 86.3203C91.2982 86.3926 91.0179 86.4494 90.7352 86.4906C90.3392 86.5539 89.7214 86.4628 89.5472 86.839C89.068 87.7736 89.5788 88.3399 89.7808 88.7874C90.6995 90.8268 92.0499 93.7413 92.0499 93.7413" fill="#1E2959"/>
</g>
<path d="M88.5022 58.6084C88.5022 58.6084 79.9922 62.909 78.8042 85.9086C78.7847 86.2786 78.8494 86.6482 78.9935 86.9895C79.1375 87.3308 79.3572 87.6349 79.636 87.8789C79.9147 88.123 80.2452 88.3006 80.6026 88.3983C80.9599 88.496 81.3348 88.5113 81.6989 88.443C85.1956 87.7778 90.4941 86.7482 90.4584 86.6056C90.4109 86.3957 92.4384 66.366 92.4384 66.366L88.5022 58.6084Z" fill="#FF9F1C"/>
<path d="M92.2676 66.0093C92.2676 66.0093 92.2676 66.1162 92.2676 66.3182C92.2676 66.5201 92.2676 66.8171 92.2676 67.1973C92.2676 67.9616 92.2043 69.0704 92.1132 70.4366C92.0221 71.8028 91.8835 73.4264 91.6934 75.2242C91.5944 76.1231 91.4875 77.0656 91.3806 78.0437C91.3212 78.5348 91.2618 79.0298 91.1984 79.5366C91.1351 80.0435 90.9846 80.5544 90.9054 81.0533C90.8599 81.2967 90.8599 81.5465 90.9054 81.7899C90.9636 82.0218 91.0809 82.2346 91.246 82.4076C91.5707 82.764 92.038 82.9502 92.434 83.3105C92.7881 83.6757 93.0158 84.1448 93.0834 84.649C93.119 84.8906 93.119 85.1361 93.0834 85.3776C93.0753 85.6278 92.9712 85.8652 92.7928 86.0406C92.6144 86.2161 92.3753 86.3162 92.1251 86.3201L91.4836 86.4429L90.2639 86.6844L88.1017 87.12L84.9337 87.7814L84.4348 87.8804L84.2368 87.92H84.2051C84.2051 87.92 84.2051 87.8289 84.2051 87.8724H84.2486H84.3239C84.4236 87.8459 84.5258 87.83 84.6288 87.8249C84.5341 87.8632 84.436 87.8924 84.3358 87.912H84.2566H84.213C84.213 87.9556 84.213 87.8526 84.213 87.8645H84.2368L84.4348 87.817L84.9298 87.6982L88.0978 86.9735L90.2837 86.4983L91.5034 86.2449L92.1449 86.1142C92.3316 86.1041 92.5116 86.0409 92.6636 85.932C92.7886 85.7548 92.873 85.5522 92.9106 85.3386C92.9483 85.1251 92.9383 84.9058 92.8814 84.6965C92.8183 84.2359 92.6103 83.8074 92.2874 83.4729C91.9508 83.1482 91.4638 82.9581 91.0994 82.5621C90.9075 82.3631 90.771 82.1174 90.7034 81.8493C90.652 81.5811 90.652 81.3056 90.7034 81.0375C90.7866 80.5068 90.9529 80.0277 90.9965 79.5248C91.04 79.0218 91.1192 78.5229 91.1786 78.0358C91.2935 77.0616 91.4004 76.1192 91.5073 75.2202C91.7053 73.4224 91.8598 71.8028 91.9667 70.4405C92.0736 69.0783 92.1449 67.9734 92.1884 67.2092L92.236 66.33C92.2346 66.2223 92.2453 66.1147 92.2676 66.0093Z" fill="#0A1D47"/>
<path d="M88.7714 80.1111C88.769 80.2044 88.7516 80.2966 88.7199 80.3844C88.6958 80.4905 88.6614 80.5939 88.6169 80.6932C88.565 80.8291 88.5041 80.9614 88.4348 81.0892C88.2598 81.4252 88.0414 81.7367 87.7853 82.0159C87.47 82.3539 87.1119 82.6495 86.7201 82.895C86.3241 83.135 85.898 83.3214 85.4529 83.4494C85.0891 83.5504 84.7137 83.6036 84.3362 83.6078C84.1912 83.6184 84.0456 83.6184 83.9006 83.6078C83.7925 83.6007 83.6853 83.5849 83.5798 83.5603C83.4865 83.5479 83.3957 83.5212 83.3105 83.4811C83.3105 83.4415 83.7065 83.5207 84.3283 83.4811C84.6907 83.4555 85.0492 83.3904 85.3975 83.287C85.8223 83.152 86.2302 82.9686 86.6132 82.7406C86.9889 82.5031 87.3358 82.2227 87.6467 81.905C87.8991 81.6417 88.1209 81.3508 88.3081 81.0377C88.6288 80.4794 88.7318 80.0992 88.7714 80.1111Z" fill="#0A1D47"/>
<g opacity="0.2">
<path opacity="0.2" d="M97.9586 100.632C101.919 102.98 106.774 103.542 111.332 102.849C112.087 102.767 112.823 102.554 113.506 102.22C113.844 102.048 114.142 101.805 114.377 101.507C114.612 101.208 114.78 100.862 114.868 100.493C114.944 100.12 114.888 99.7316 114.711 99.3946C114.533 99.0575 114.244 98.7923 113.894 98.6437C113.169 98.3982 112.401 98.7942 111.716 99.1387C107.385 101.302 102.412 101.803 97.7368 100.548" fill="#1E2959"/>
</g>
<path d="M116.424 100.98C116.372 101.03 116.315 101.074 116.253 101.111C116.135 101.19 115.968 101.321 115.731 101.455C115.074 101.85 114.379 102.177 113.656 102.43C111.247 103.227 108.686 103.453 106.175 103.091C103.682 102.715 101.239 102.059 98.8928 101.135C97.9899 100.794 97.2652 100.505 96.7663 100.299L96.1921 100.057C96.1242 100.031 96.0591 99.9981 95.998 99.9585C96.0697 99.9719 96.1399 99.9918 96.2079 100.018L96.794 100.224L98.9443 100.996C101.291 101.877 103.724 102.51 106.203 102.885C108.685 103.242 111.215 103.04 113.608 102.291C114.328 102.052 115.025 101.748 115.691 101.384C116.162 101.135 116.424 100.98 116.424 100.98Z" fill="#0A1D47"/>
<g opacity="0.2">
<path opacity="0.2" d="M116.198 92.7792C117.386 91.5912 117.386 89.4488 117.149 87.7817C116.911 86.1145 116.265 84.5147 116.04 82.8396C115.826 81.2556 115.98 79.6359 115.909 78.0321C115.838 76.4283 115.493 74.7572 114.452 73.5415C113.837 80.0069 114.429 86.5302 116.198 92.7792Z" fill="#1E2959"/>
</g>
<g opacity="0.2">
<path opacity="0.2" d="M104.94 75.3789C104.758 76.4323 104.94 77.5371 104.849 78.6142C104.724 79.6891 104.724 80.7747 104.849 81.8495C104.978 82.9342 105.478 83.9411 106.263 84.7007C106.658 85.072 107.149 85.3258 107.681 85.4335C108.212 85.5412 108.763 85.4986 109.272 85.3106C109.765 85.0711 110.175 84.688 110.446 84.2116C110.717 83.7353 110.838 83.1879 110.793 82.6415C110.078 82.9913 109.282 83.1418 108.488 83.0771C107.692 83.0102 106.949 82.6521 106.401 82.0713C105.665 81.1616 105.256 80.0302 105.241 78.8597C105.166 77.7034 105.023 76.5194 104.928 75.3789" fill="#1E2959"/>
</g>
<path d="M91.7214 72.409C91.5837 72.4596 91.4398 72.4916 91.2937 72.504C91.0165 72.5476 90.6165 72.607 90.1057 72.6664C88.8021 72.841 87.481 72.841 86.1774 72.6664C84.8595 72.4855 83.6154 71.9504 82.5777 71.118C82.2687 70.8623 81.9921 70.5697 81.754 70.2468C81.6617 70.1325 81.5857 70.0059 81.5283 69.8706C81.8735 70.283 82.2552 70.6634 82.6688 71.0071C83.7078 71.7825 84.9253 72.2837 86.209 72.4644C87.4965 72.629 88.7987 72.645 90.0898 72.5119L91.2778 72.4169C91.4249 72.3971 91.5737 72.3944 91.7214 72.409Z" fill="#FAFAFA"/>
<path d="M91.1632 75.4502C91.0295 75.5164 90.8886 75.5668 90.7434 75.6007C90.577 75.6538 90.4078 75.6974 90.2365 75.7314C90.0385 75.771 89.8128 75.8264 89.5554 75.8581C88.9591 75.9469 88.3564 75.9867 87.7536 75.9769C87.0149 75.9576 86.2794 75.8728 85.5558 75.7234C84.8346 75.5616 84.1295 75.335 83.4491 75.0463C82.8984 74.8069 82.3685 74.5221 81.8651 74.1949C81.6473 74.0642 81.4691 73.9177 81.2988 73.7989C81.1601 73.6976 81.0279 73.5878 80.9028 73.4702C80.7836 73.3807 80.6759 73.277 80.582 73.1613C80.6098 73.1296 81.085 73.5573 81.9562 74.0721C82.464 74.3747 82.9934 74.6394 83.5402 74.8641C84.8855 75.4232 86.3212 75.7331 87.7774 75.7789C88.3698 75.7971 88.9627 75.7719 89.5514 75.7036C90.5454 75.5928 91.1513 75.4106 91.1632 75.4502Z" fill="#FAFAFA"/>
<path d="M104.619 74.9552C104.619 75.0106 101.744 74.9829 98.2042 74.8918C94.664 74.8007 91.789 74.6819 91.793 74.6225C91.7969 74.5631 94.664 74.5948 98.2082 74.6859C101.752 74.777 104.619 74.8958 104.619 74.9552Z" fill="#FAFAFA"/>
<path d="M105.031 78.1509C104.862 78.2245 104.685 78.2802 104.504 78.3172C104.164 78.4122 103.665 78.5271 103.039 78.6498C101.414 78.9624 99.7638 79.1281 98.1089 79.1448C96.453 79.1596 94.7992 79.0271 93.1668 78.7488C92.5411 78.638 92.0382 78.535 91.6976 78.4439C91.516 78.4106 91.3382 78.3589 91.167 78.2895C91.3509 78.2994 91.5337 78.3245 91.7135 78.3647C92.058 78.432 92.5649 78.5152 93.1906 78.6023C96.4512 79.075 99.7653 79.0403 103.015 78.4994C103.637 78.3964 104.14 78.3014 104.488 78.2301C104.667 78.1883 104.848 78.1618 105.031 78.1509Z" fill="#FAFAFA"/>
<path d="M112.464 77.5645C112.438 77.6693 112.394 77.7686 112.333 77.8575C112.18 78.1109 111.983 78.3348 111.751 78.5188C110.963 79.1119 109.978 79.3798 108.999 79.2673C108.041 79.1376 107.122 78.8099 106.298 78.305C105.945 78.1239 105.614 77.902 105.312 77.6437C105.674 77.7992 106.026 77.9778 106.365 78.1783C107.19 78.6328 108.09 78.9334 109.023 79.0653C109.956 79.1746 110.898 78.941 111.672 78.4079C111.971 78.1625 112.238 77.879 112.464 77.5645Z" fill="#FAFAFA"/>
<path d="M114.254 75.1336C113.936 75.303 113.59 75.4118 113.232 75.4543C112.889 75.5616 112.529 75.602 112.171 75.5731C112.488 75.4028 112.835 75.294 113.193 75.2524C113.535 75.145 113.896 75.1047 114.254 75.1336Z" fill="#FAFAFA"/>
<path d="M118.083 75.2601C117.521 75.6585 116.9 75.9659 116.242 76.1709C115.611 76.4357 114.943 76.6014 114.262 76.6619C114.262 76.6025 115.133 76.3649 116.186 75.9768C117.24 75.5887 118.055 75.2086 118.083 75.2601Z" fill="#FAFAFA"/>
<path d="M116.82 71.4663C116.427 71.6236 116.02 71.743 115.604 71.8227C115.209 71.9728 114.799 72.0829 114.381 72.1513C115.107 71.6828 115.957 71.444 116.82 71.4663Z" fill="#FAFAFA"/>
<path d="M114.662 70.0171C114.671 70.0947 114.671 70.1731 114.662 70.2507L114.603 70.916C114.575 71.2051 114.543 71.5575 114.515 71.9694C114.488 72.3812 114.444 72.8485 114.424 73.3633C114.357 74.4008 114.325 75.6324 114.317 77.0025C114.31 78.3727 114.361 79.8814 114.456 81.4575C114.551 83.0336 114.717 84.5345 114.888 85.8967C115.058 87.2589 115.264 88.4747 115.462 89.4924C115.553 90.0032 115.652 90.4586 115.735 90.8625C115.818 91.2664 115.89 91.6149 115.957 91.8961C116.024 92.1772 116.06 92.3792 116.099 92.5495C116.122 92.6241 116.134 92.7013 116.135 92.7792C116.101 92.7086 116.076 92.6341 116.06 92.5574L115.878 91.9159C115.799 91.6347 115.711 91.2902 115.62 90.8863C115.529 90.4824 115.418 90.027 115.319 89.5201C115.102 88.5024 114.9 87.2827 114.702 85.9205C114.504 84.5582 114.357 83.0534 114.25 81.4734C114.143 79.8933 114.119 78.3766 114.127 77.0025C114.135 75.6284 114.191 74.3929 114.278 73.3554C114.31 72.8366 114.361 72.3693 114.401 71.9575C114.44 71.5457 114.484 71.1932 114.523 70.9081C114.563 70.623 114.595 70.4171 114.618 70.2468C114.623 70.1686 114.637 70.0914 114.662 70.0171Z" fill="#0A1D47"/>
<g opacity="0.2">
<path opacity="0.2" d="M106.021 74.666C106.618 75.0468 107.301 75.2732 108.007 75.3251C108.713 75.3769 109.422 75.2525 110.068 74.963C110.218 74.8834 110.378 74.8248 110.543 74.7888C110.626 74.7737 110.712 74.7816 110.791 74.8116C110.87 74.8416 110.939 74.8926 110.991 74.9591C111.036 75.0665 111.048 75.1849 111.025 75.2991C111.003 75.4134 110.947 75.5183 110.864 75.6006C110.555 75.9642 110.149 76.232 109.693 76.3723C109.237 76.5126 108.75 76.5197 108.29 76.3926C107.369 76.1157 106.585 75.504 106.092 74.6779" fill="#1E2959"/>
</g>
<path d="M98.6038 40.8397C98.3611 39.9398 98.2099 39.0178 98.1523 38.0875C98.092 37.1507 98.3126 36.2173 98.7859 35.4066C99.0251 35.0051 99.3585 34.668 99.7574 34.4244C100.156 34.1808 100.608 34.0381 101.075 34.0087C101.649 34.0087 102.227 34.1948 102.793 34.0919C103.447 33.9731 103.958 33.4781 104.516 33.1177C105.394 32.5441 106.436 32.273 107.482 32.3455C108.026 32.3711 108.551 32.5525 108.995 32.8682C109.218 33.022 109.399 33.2296 109.521 33.4719C109.643 33.7141 109.702 33.9832 109.692 34.2542C110.353 34.1252 111.028 34.0827 111.699 34.1275C112.377 34.1783 113.009 34.4924 113.458 35.0027C113.673 35.2616 113.8 35.5823 113.821 35.9184C113.842 36.2545 113.755 36.5885 113.573 36.8718C113.876 36.786 114.2 36.8149 114.484 36.9529C114.767 37.091 114.99 37.3285 115.109 37.6202C115.216 37.9188 115.236 38.2418 115.165 38.5511C115.095 38.8604 114.938 39.1433 114.713 39.3666C114.152 39.8375 113.442 40.0955 112.709 40.0952C112.048 40.1053 111.392 39.9701 110.789 39.6992" fill="#0A1D47"/>
<path d="M100.802 61.8239C101.451 61.9747 102.125 61.9853 102.778 61.855C103.432 61.7246 104.05 61.4563 104.592 61.068C105.133 60.6797 105.586 60.1803 105.919 59.6032C106.252 59.0261 106.459 58.3845 106.524 57.7213C106.675 56.2126 106.805 54.9493 106.833 54.7474C106.833 54.7474 110.623 54.8186 111.316 51.1398C112.009 47.461 112.852 38.8638 112.852 38.8638C110.914 37.5954 108.671 36.8676 106.357 36.7555C104.043 36.6434 101.741 37.1511 99.6892 38.2262L99.0675 38.551L97.2023 56.767C97.0819 57.9039 97.3814 59.0457 98.0444 59.9772C98.7075 60.9086 99.6882 61.5654 100.802 61.8239Z" fill="#FFBE9D"/>
<path d="M106.837 54.6955C105.129 54.4298 103.539 53.6604 102.271 52.4858C102.271 52.4858 102.94 55.341 106.678 55.6538L106.837 54.6955Z" fill="#AA6550"/>
<path d="M98.8416 42.4673C98.7822 42.4277 96.4379 41.2793 96.0696 43.8097C95.7013 46.3402 98.3268 46.1857 98.3426 46.1105C98.3585 46.0353 98.8416 42.4673 98.8416 42.4673Z" fill="#FFBE9D"/>
<path d="M97.7128 45.0414C97.7128 45.0414 97.6653 45.0652 97.5861 45.0889C97.4743 45.1189 97.3552 45.1047 97.2535 45.0493C97.1045 44.9221 96.9922 44.7573 96.9282 44.5722C96.8641 44.387 96.8507 44.1881 96.8892 43.996C96.9114 43.7774 96.9846 43.5672 97.103 43.3822C97.1393 43.3041 97.1945 43.2364 97.2637 43.1852C97.3329 43.134 97.4138 43.101 97.499 43.0891C97.5514 43.0831 97.6043 43.0957 97.6484 43.1246C97.6926 43.1536 97.7252 43.197 97.7406 43.2475C97.7643 43.3228 97.7406 43.3742 97.7406 43.3782C97.7406 43.3822 97.8 43.3426 97.792 43.2356C97.7882 43.1705 97.7616 43.1088 97.7168 43.0614C97.6539 43.0005 97.5706 42.9652 97.4832 42.9624C97.376 42.9691 97.2723 43.0027 97.1816 43.0602C97.0909 43.1176 97.0162 43.1971 96.9644 43.2911C96.8236 43.4945 96.7364 43.7301 96.711 43.9762C96.6662 44.2001 96.6886 44.4323 96.7752 44.6437C96.8618 44.855 97.0089 45.0361 97.198 45.1642C97.2628 45.1957 97.3339 45.2121 97.4059 45.2121C97.478 45.2121 97.5491 45.1957 97.6138 45.1642C97.701 45.1008 97.7208 45.0454 97.7128 45.0414Z" fill="#AA6550"/>
<path d="M110.987 44.5304C110.964 44.6676 110.888 44.7903 110.775 44.8724C110.663 44.9545 110.523 44.9895 110.385 44.97C110.317 44.9641 110.251 44.9447 110.191 44.9128C110.131 44.8809 110.078 44.8372 110.035 44.7843C109.992 44.7315 109.96 44.6706 109.942 44.6052C109.923 44.5398 109.917 44.4713 109.926 44.4037C109.947 44.2658 110.022 44.1419 110.133 44.0582C110.245 43.9746 110.385 43.938 110.524 43.9562C110.592 43.9626 110.659 43.9827 110.719 44.0152C110.78 44.0477 110.833 44.092 110.876 44.1455C110.92 44.1991 110.952 44.2607 110.971 44.3268C110.99 44.3929 110.995 44.4622 110.987 44.5304Z" fill="#0A1D47"/>
<path d="M111.232 43.956C111.153 44.0154 110.809 43.6471 110.238 43.56C109.668 43.4729 109.209 43.6709 109.157 43.5917C109.106 43.5125 109.221 43.4412 109.427 43.3422C109.701 43.2159 110.008 43.1772 110.306 43.2313C110.605 43.2751 110.883 43.4139 111.098 43.6273C111.232 43.7857 111.276 43.9204 111.232 43.956Z" fill="#0A1D47"/>
<path d="M105.49 43.5602C105.467 43.6977 105.391 43.8208 105.279 43.9035C105.167 43.9862 105.027 44.0221 104.888 44.0038C104.82 43.9974 104.754 43.9775 104.694 43.9451C104.634 43.9128 104.581 43.8688 104.538 43.8156C104.496 43.7625 104.464 43.7013 104.445 43.6356C104.426 43.57 104.421 43.5013 104.429 43.4335C104.451 43.2964 104.526 43.1734 104.638 43.0906C104.75 43.0078 104.889 42.9717 105.027 42.99C105.095 42.9964 105.161 43.0163 105.222 43.0486C105.282 43.0809 105.335 43.1248 105.378 43.1779C105.421 43.231 105.454 43.2922 105.473 43.3578C105.492 43.4235 105.498 43.4923 105.49 43.5602Z" fill="#0A1D47"/>
<path d="M105.641 43.0729C105.566 43.1323 105.217 42.768 104.651 42.6769C104.085 42.5858 103.618 42.7878 103.57 42.7086C103.522 42.6294 103.633 42.5621 103.835 42.4631C104.11 42.3333 104.419 42.2932 104.718 42.3482C105.011 42.3952 105.282 42.5339 105.491 42.7442C105.641 42.9145 105.681 43.0492 105.641 43.0729Z" fill="#0A1D47"/>
<path d="M106.963 47.6391C107.279 47.5974 107.598 47.5974 107.914 47.6391C108.06 47.6391 108.203 47.6391 108.242 47.548C108.289 47.4038 108.289 47.2486 108.242 47.1045C108.167 46.7085 108.088 46.3362 108.009 45.9165C107.688 44.2453 107.482 42.8791 107.549 42.8673C107.617 42.8554 107.945 44.2018 108.25 45.8729C108.326 46.2689 108.401 46.6649 108.468 47.0609C108.527 47.2519 108.519 47.4575 108.444 47.643C108.415 47.6909 108.374 47.7313 108.326 47.7608C108.278 47.7904 108.223 47.8083 108.167 47.8133C108.084 47.8237 108.001 47.8237 107.918 47.8133C107.594 47.7955 107.273 47.737 106.963 47.6391Z" fill="#0A1D47"/>
<path d="M105.225 47.738C105.32 47.738 105.225 48.3637 105.664 48.8943C106.104 49.425 106.781 49.4685 106.769 49.5556C106.757 49.6428 106.603 49.6507 106.326 49.6071C105.964 49.5511 105.633 49.367 105.395 49.0884C105.167 48.8226 105.05 48.4797 105.067 48.13C105.09 47.8687 105.185 47.7261 105.225 47.738Z" fill="#0A1D47"/>
<path d="M111.197 42.9107C111.074 43.0215 110.71 42.8196 110.242 42.7325C109.775 42.6453 109.359 42.6651 109.292 42.5147C109.26 42.4434 109.347 42.3246 109.541 42.2335C109.8 42.1282 110.084 42.102 110.358 42.1584C110.631 42.2148 110.882 42.3512 111.078 42.5503C111.221 42.7127 111.252 42.8552 111.197 42.9107Z" fill="#0A1D47"/>
<path d="M105.264 40.8954C105.189 40.9548 105.047 40.8954 104.868 40.832C104.647 40.742 104.42 40.6692 104.187 40.6142C103.952 40.5714 103.714 40.5463 103.474 40.539C103.28 40.539 103.13 40.539 103.078 40.44C103.027 40.341 103.118 40.2103 103.344 40.0836C103.648 39.9374 103.993 39.897 104.323 39.9687C104.653 40.0404 104.949 40.2202 105.165 40.4796C105.336 40.6697 105.336 40.8439 105.264 40.8954Z" fill="#0A1D47"/>
<path d="M112.824 40.0438C110.962 40.2146 109.094 39.7888 107.49 38.8281C105.708 37.7708 103.582 37.161 103.079 37.4976C102.576 37.8342 102.338 39.735 100.465 40.1587C100.465 40.1587 100.326 43.8058 98.8811 43.5722C97.4357 43.3386 98.7544 37.7668 98.7544 37.7668L102.429 36.2898L106.358 35.8423L109.985 36.1076L113.284 37.3906L112.824 40.0438Z" fill="#0A1D47"/>
<path d="M32.2266 143.324C29.0784 138.509 29.5377 131.626 33.2958 127.27C34.4838 125.92 36.0955 124.744 37.8775 124.894C39.6595 125.045 41.1682 126.613 41.7226 128.355C42.277 130.098 42.083 131.987 41.7583 133.785C41.3029 136.303 40.5386 138.881 38.7883 140.754C37.038 142.627 34.4719 144.548 32.2266 143.32" fill="#FF9F1C"/>
<path d="M33.9687 166.51C33.402 165.109 33.2905 163.566 33.6502 162.099C34.0099 160.632 34.8224 159.316 35.9725 158.336C36.6971 157.742 37.6436 157.287 38.5465 157.544C39.4493 157.802 40.0869 158.732 40.2136 159.679C40.2861 160.636 40.1244 161.597 39.7424 162.478C39.2791 163.734 38.6534 164.993 37.5802 165.801C36.5071 166.609 35.0141 167.365 33.9687 166.529" fill="#FF9F1C"/>
<path d="M26.3736 164.855C26.7625 162.703 26.4646 160.484 25.5222 158.511C24.5798 156.538 23.0406 154.911 21.1226 153.862C19.9346 153.24 18.4456 152.868 17.2378 153.466C16.03 154.064 15.4044 155.596 15.5034 156.978C15.6024 158.36 16.2637 159.636 16.9963 160.808C18.0259 162.455 19.2852 164.055 21.0394 164.883C22.7937 165.71 25.138 166.34 26.3736 164.847" fill="#FF9F1C"/>
<path d="M26.928 153.307C28.4328 148.445 25.8786 142.544 21.6177 139.752C20.295 138.885 18.6199 138.283 17.1429 138.846C15.6658 139.408 14.7669 141.111 14.7154 142.726C14.6639 144.342 15.2896 145.894 16.0063 147.36C17.0043 149.391 18.2833 151.399 20.2277 152.567C22.1721 153.735 25.3044 154.899 26.928 153.307Z" fill="#FF9F1C"/>
<path d="M29.9455 177.091C29.9227 177.013 29.9068 176.934 29.8979 176.853C29.8702 176.675 29.8385 176.457 29.795 176.176C29.795 176.026 29.7514 175.863 29.7277 175.685C29.7039 175.507 29.6564 175.313 29.6168 175.107C29.5376 174.691 29.4544 174.216 29.3198 173.701C29.2564 173.444 29.1931 173.175 29.1257 172.889C29.0584 172.604 28.9555 172.323 28.8683 172.022C28.706 171.42 28.4723 170.795 28.2427 170.129C27.7041 168.703 27.0772 167.312 26.3656 165.963C25.6336 164.625 24.8203 163.333 23.9302 162.094C23.5025 161.54 23.1144 160.998 22.6986 160.51C22.4967 160.273 22.3026 160.043 22.1165 159.817L21.5502 159.208C21.1938 158.812 20.8454 158.479 20.5444 158.182C20.3939 158.035 20.2514 157.901 20.1246 157.786C19.9979 157.671 19.8633 157.56 19.7524 157.457L19.2416 156.998C19.1786 156.948 19.1214 156.891 19.0713 156.828C19.1426 156.866 19.2091 156.912 19.2693 156.966L19.7999 157.398L20.1959 157.715L20.6315 158.111C20.9404 158.4 21.3008 158.724 21.6611 159.12L22.2432 159.726L22.8372 160.411C23.261 160.879 23.657 161.425 24.0926 161.995C24.9889 163.232 25.8037 164.526 26.5319 165.868C27.2475 167.224 27.8732 168.625 28.405 170.062C28.6268 170.735 28.8604 171.365 29.0188 171.975C29.102 172.276 29.1851 172.569 29.2604 172.85C29.3356 173.131 29.3871 173.408 29.4465 173.67C29.5732 174.188 29.6445 174.667 29.7158 175.087C29.7475 175.293 29.7791 175.483 29.8108 175.669C29.8425 175.855 29.8465 176.014 29.8623 176.164C29.8861 176.445 29.9059 176.671 29.9217 176.849C29.9392 176.929 29.9472 177.01 29.9455 177.091Z" fill="#0A1D47"/>
<path d="M29.835 177.962C29.8297 177.931 29.8297 177.899 29.835 177.867C29.835 177.792 29.835 177.697 29.8587 177.586C29.8825 177.321 29.9142 176.96 29.9577 176.505C29.9815 176.267 30.0052 176.006 30.033 175.713C30.0607 175.42 30.0646 175.115 30.0805 174.782C30.1042 174.113 30.1676 173.353 30.1478 172.509C30.1478 172.089 30.1478 171.646 30.1478 171.187C30.1478 170.727 30.1003 170.252 30.0765 169.757C30.0448 168.767 29.9102 167.718 29.7874 166.613C29.4648 164.221 28.9671 161.856 28.2985 159.536C27.5943 157.231 26.7221 154.981 25.6888 152.804C25.1859 151.81 24.7266 150.856 24.2157 150.008C23.9662 149.581 23.7445 149.157 23.495 148.769L22.7822 147.66C22.3426 146.939 21.8754 146.338 21.4873 145.791C21.2932 145.522 21.115 145.264 20.9408 145.035L20.4537 144.425L19.7805 143.573L19.6023 143.352C19.5627 143.3 19.5429 143.273 19.5469 143.269L19.6182 143.336C19.6657 143.395 19.729 143.463 19.8043 143.55L20.5052 144.377L21.0121 144.979C21.1903 145.205 21.3724 145.458 21.5744 145.728C21.9704 146.27 22.4456 146.868 22.897 147.585C23.1267 147.937 23.3722 148.306 23.6257 148.69C23.8791 149.074 24.1009 149.482 24.3583 149.929C24.877 150.777 25.3443 151.731 25.8552 152.725C26.9027 154.912 27.7818 157.176 28.4846 159.497C29.1597 161.825 29.6562 164.201 29.9696 166.605C30.0844 167.718 30.2112 168.771 30.2389 169.773C30.2389 170.268 30.2983 170.747 30.2983 171.21C30.2983 171.674 30.2983 172.113 30.2983 172.533C30.2983 173.38 30.2389 174.141 30.2032 174.81C30.1795 175.147 30.1676 175.459 30.1399 175.745C30.1122 176.03 30.0726 176.287 30.0448 176.537C29.9854 176.992 29.9419 177.352 29.9062 177.614C29.9062 177.728 29.8746 177.82 29.8666 177.895C29.8587 177.97 29.8389 177.966 29.835 177.962Z" fill="#0A1D47"/>
<path d="M38.0361 130.712C38.0252 130.744 38.0106 130.774 37.9925 130.803L37.8579 131.056L37.3193 132.019C37.2045 132.225 37.0659 132.454 36.9233 132.712L36.5036 133.559C36.3491 133.864 36.1907 134.189 36.0165 134.529C35.8422 134.87 35.6957 135.254 35.5254 135.646C35.3551 136.038 35.1651 136.438 34.9908 136.878C34.8166 137.317 34.6503 137.765 34.4681 138.232C34.377 138.466 34.2859 138.703 34.1949 138.949C34.1038 139.194 34.0246 139.444 33.9414 139.697C33.7672 140.204 33.593 140.727 33.4108 141.281C32.7455 143.439 32.1119 145.843 31.5773 148.409C31.0427 150.975 30.6982 153.426 30.4289 155.672C30.1596 157.917 30.0329 159.949 29.9854 161.659C29.9418 162.511 29.9339 163.287 29.9299 163.964C29.926 164.641 29.9299 165.227 29.9299 165.706C29.9299 166.186 29.9299 166.538 29.9299 166.807V167.096C29.9359 167.128 29.9359 167.16 29.9299 167.191C29.9274 167.16 29.9274 167.128 29.9299 167.096C29.9299 167.021 29.9299 166.926 29.9299 166.811C29.9299 166.542 29.8983 166.174 29.8745 165.71C29.8507 165.247 29.8389 164.645 29.8389 163.964C29.8389 163.283 29.8389 162.511 29.8626 161.655C29.8903 159.941 30.0448 157.905 30.2586 155.652C30.4725 153.399 30.8724 150.932 31.3912 148.37C31.9099 145.807 32.5792 143.4 33.2484 141.242L33.783 139.677C33.8701 139.424 33.9573 139.17 34.0444 138.925C34.1315 138.679 34.2305 138.446 34.3255 138.212C34.5077 137.741 34.6899 137.289 34.8601 136.854C35.0304 136.418 35.2324 136.018 35.4066 135.626C35.5809 135.234 35.7472 134.862 35.9135 134.514L36.4164 133.547L36.8283 132.66C36.9708 132.403 37.1134 132.181 37.2243 131.975L37.7945 131.029C37.8579 130.934 37.9094 130.854 37.949 130.787C37.9748 130.759 38.004 130.733 38.0361 130.712Z" fill="#0A1D47"/>
<path d="M36.9626 160.269C36.8681 160.473 36.7569 160.669 36.6299 160.855C36.4003 161.223 36.0835 161.77 35.7112 162.439C35.339 163.108 34.9192 163.948 34.5232 164.886C34.085 165.908 33.6991 166.95 33.3669 168.011C33.0476 169.074 32.7833 170.152 32.5749 171.242C32.3848 172.252 32.2541 173.167 32.1789 173.939C32.1037 174.711 32.0561 175.337 32.0363 175.772C32.0382 175.998 32.0197 176.223 31.9809 176.446C31.9579 176.221 31.95 175.994 31.9571 175.768C31.9571 175.333 31.9571 174.703 32.0324 173.927C32.1056 173.016 32.2246 172.11 32.3888 171.211C32.7895 169.004 33.4543 166.854 34.3688 164.807C34.7405 163.974 35.1542 163.16 35.6083 162.368C36.0043 161.691 36.3329 161.156 36.5864 160.784C36.6984 160.603 36.8242 160.431 36.9626 160.269Z" fill="#0A1D47"/>
<path d="M23.7642 174.921H37.5964L35.9214 189.05H25.4868L23.7642 174.921Z" fill="#1E2959"/>
<path d="M24.2671 187.526L25.4432 189.05H35.9214L37.1292 187.573L24.2671 187.526Z" fill="#0A1D47"/>
<path d="M37.0578 179.075C37.0578 179.135 34.1868 179.182 30.6466 179.182C27.1064 179.182 24.2354 179.135 24.2354 179.075C24.2354 179.016 27.1024 178.972 30.6466 178.972C34.1908 178.972 37.0578 179.02 37.0578 179.075Z" fill="#FAFAFA"/>
<path d="M37.0578 180.018C37.0578 180.073 34.1868 180.12 30.6466 180.12C27.1064 180.12 24.2354 180.073 24.2354 180.018C24.2354 179.962 27.1024 179.915 30.6466 179.915C34.1908 179.915 37.0578 179.962 37.0578 180.018Z" fill="#FAFAFA"/>
<path d="M36.8838 180.928C36.8838 180.984 34.1118 181.031 30.6983 181.031C27.2847 181.031 24.5088 180.984 24.5088 180.928C24.5088 180.873 27.2808 180.825 30.6983 180.825C34.1157 180.825 36.8838 180.873 36.8838 180.928Z" fill="#FAFAFA"/>
<path d="M172.941 178.703C174.156 178.131 175.522 177.964 176.838 178.228C177.557 178.293 178.234 178.596 178.762 179.087C179.242 179.618 179.333 180.552 178.782 181.008C178.426 181.249 177.995 181.359 177.567 181.317C176.537 181.317 175.393 181.122 174.573 181.744C174.102 182.097 173.781 182.683 173.226 182.857C172.946 182.923 172.652 182.895 172.388 182.778C172.125 182.66 171.908 182.46 171.769 182.208C171.501 181.693 171.441 181.094 171.603 180.536C171.669 180.148 171.825 179.781 172.057 179.462C172.289 179.144 172.592 178.884 172.941 178.703Z" fill="#FF9F1C"/>
<path d="M170.224 173.448C170.949 174.482 172.359 174.141 172.996 173.507C173.634 172.874 173.927 171.959 174.184 171.088C174.759 169.108 175.337 167.001 174.909 164.97C174.803 164.352 174.529 163.775 174.117 163.302C173.909 163.071 173.644 162.897 173.348 162.799C173.052 162.701 172.736 162.682 172.43 162.744C171.721 162.93 171.282 163.627 170.961 164.288C170.021 166.242 169.529 168.381 169.52 170.549C169.52 171.559 169.634 172.616 170.205 173.448" fill="#FF9F1C"/>
<path d="M168.233 174.945C168.605 174.459 168.853 173.889 168.956 173.285C169.058 172.681 169.011 172.061 168.819 171.48C168.423 170.317 167.713 169.286 166.767 168.502C165.695 167.546 164.447 166.809 163.093 166.332C162.567 166.121 162.003 166.025 161.437 166.05C161.155 166.068 160.882 166.153 160.641 166.299C160.399 166.446 160.197 166.648 160.051 166.89C159.655 167.627 160.051 168.522 160.447 169.266C161.156 170.552 161.963 171.781 162.863 172.941C163.588 173.875 164.415 174.794 165.516 175.218C166.617 175.642 167.765 175.59 168.351 174.822" fill="#FF9F1C"/>
<path d="M170.173 189.074C170.213 188.92 170.235 188.762 170.24 188.603C170.272 188.262 170.315 187.83 170.367 187.32C170.418 186.809 170.505 186.132 170.652 185.439C170.821 184.68 171.05 183.935 171.337 183.213C171.62 182.494 172.003 181.818 172.474 181.205C172.857 180.708 173.347 180.302 173.907 180.017C174.282 179.833 174.682 179.706 175.095 179.641C175.253 179.639 175.41 179.616 175.562 179.574C175.404 179.557 175.245 179.557 175.087 179.574C174.652 179.609 174.225 179.721 173.828 179.902C173.239 180.177 172.722 180.584 172.315 181.09C171.819 181.711 171.419 182.403 171.127 183.142C170.835 183.873 170.608 184.628 170.446 185.399C170.325 186.03 170.242 186.667 170.197 187.308C170.157 187.85 170.141 188.294 170.133 188.599C170.13 188.758 170.143 188.917 170.173 189.074Z" fill="#0A1D47"/>
<path d="M170.28 188.1C170.287 188.028 170.287 187.955 170.28 187.882V187.26C170.28 186.718 170.28 185.934 170.308 184.968C170.355 183.031 170.521 180.948 170.842 178.01C171.147 175.238 171.555 172.034 171.987 169.943C172.082 169.468 172.173 169.04 172.264 168.668C172.355 168.296 172.418 167.967 172.486 167.706C172.553 167.445 172.592 167.258 172.632 167.1C172.652 167.03 172.665 166.959 172.672 166.886C172.635 166.949 172.608 167.017 172.592 167.088L172.414 167.686C172.331 167.948 172.252 168.268 172.157 168.641C172.062 169.013 171.955 169.433 171.856 169.916C171.32 172.387 170.916 174.885 170.648 177.4C170.327 180.342 170.181 183.023 170.169 184.964C170.169 185.934 170.169 186.718 170.201 187.26C170.201 187.514 170.232 187.72 170.24 187.886C170.244 187.959 170.257 188.031 170.28 188.1Z" fill="#0A1D47"/>
<path d="M170.28 182.916C170.296 182.7 170.296 182.483 170.28 182.267C170.256 181.847 170.197 181.241 170.082 180.5C169.938 179.632 169.745 178.773 169.504 177.926C169.225 176.885 168.866 175.867 168.431 174.881C167.68 173.063 166.607 171.395 165.263 169.959C165.03 169.713 164.781 169.483 164.518 169.27C164.403 169.171 164.304 169.076 164.201 169.001L163.912 168.803C163.738 168.671 163.554 168.553 163.362 168.45C163.995 168.948 164.596 169.483 165.164 170.054C166.46 171.503 167.502 173.16 168.244 174.956C168.67 175.938 169.031 176.946 169.326 177.974C169.572 178.813 169.776 179.664 169.935 180.524C170.07 181.257 170.149 181.855 170.197 182.271C170.21 182.487 170.237 182.703 170.28 182.916Z" fill="#0A1D47"/>
<path d="M54.2525 84.3479L55.0208 85.326C55.0208 85.326 58.8224 79.2395 63.2338 78.6138C63.3585 78.6724 63.4954 78.7005 63.6332 78.6957C63.7709 78.6909 63.9055 78.6533 64.0258 78.5861L65.4514 77.7584C65.5995 77.6671 65.7166 77.5332 65.7872 77.3742C65.8579 77.2152 65.8789 77.0386 65.8474 76.8674C65.8474 76.8674 67.9739 73.0936 72.5081 72.5114L74.1634 72.1986L62.7863 61.7759L45.0732 68.9791L54.2525 84.3479Z" fill="#FF9F1C"/>
<path d="M52.3633 83.5323L53.7057 85.3262C53.7057 85.3262 56.7985 78.3526 64.4927 77.8616L56.9212 70.0366C56.9212 70.0366 51.4564 81.382 52.3633 83.5323Z" fill="#EBEBEB"/>
<path d="M41.9961 71.0026C41.9961 71.0026 44.9305 61.5342 54.6681 64.9953L64.5087 77.8613C64.5087 77.8613 54.4146 76.0318 52.0426 84.3478L41.9961 71.0026Z" fill="#F5F5F5"/>
<path d="M64.4928 77.8614C64.4928 77.8614 67.534 70.4245 74.175 71.3393L64.4928 60.085L54.9888 65.4389L64.4928 77.8614Z" fill="#EBEBEB"/>
<path d="M54.6485 65.011C54.6485 65.011 53.5437 59.3878 57.8878 56.9366L60.7351 55.4556L70.6945 66.6069C70.6945 66.6069 63.8159 70.365 64.4891 77.8771L54.6485 65.011Z" fill="#F5F5F5"/>
<path d="M64.4926 77.8615C64.3452 77.7136 64.2126 77.5518 64.0966 77.3784C63.8194 77.0299 63.463 76.5864 63.0274 76.0161C62.1166 74.8281 60.8929 73.2441 59.5426 71.5017L56.0459 66.9913L54.9806 65.6291C54.8418 65.4686 54.7173 65.2964 54.6084 65.1143C54.7634 65.2592 54.9089 65.4139 55.044 65.5776C55.3133 65.8825 55.6934 66.3379 56.1607 66.9002C57.0913 68.0249 58.3466 69.6089 59.7049 71.375C61.0632 73.1412 62.2789 74.7529 63.1462 75.929L64.1599 77.3309C64.2851 77.4984 64.3963 77.6759 64.4926 77.8615Z" fill="#0A1D47"/>
<path d="M60.9527 58.7349C60.562 58.8881 60.1811 59.0653 59.8122 59.2655C58.9524 59.7988 58.2057 60.4958 57.6144 61.3168C57.0042 62.1259 56.5638 63.0499 56.3195 64.0333C56.1492 64.7897 56.173 65.2807 56.1294 65.2807C56.1033 65.1679 56.0926 65.052 56.0977 64.9362C56.0892 64.6227 56.1158 64.3093 56.1769 64.0017C56.3854 62.9825 56.8198 62.0231 57.4481 61.194C58.0527 60.3494 58.8355 59.6478 59.7409 59.1388C60.0163 58.9871 60.3088 58.8688 60.6121 58.7863C60.7224 58.7521 60.8372 58.7347 60.9527 58.7349Z" fill="#0A1D47"/>
<path d="M65.8589 63.4395C65.8589 63.4791 65.4114 63.681 64.7541 64.1562C64.3726 64.4334 64.0162 64.7435 63.6888 65.0829C63.2896 65.502 62.9328 65.9597 62.6236 66.4491C62.3234 66.9425 62.0714 67.4636 61.8712 68.0053C61.7136 68.4497 61.5943 68.9068 61.5148 69.3715C61.3801 70.1635 61.3999 70.6783 61.3603 70.6783C61.3309 70.5619 61.3176 70.442 61.3208 70.3219C61.313 70.1834 61.313 70.0446 61.3208 69.9061C61.323 69.7206 61.3375 69.5354 61.3643 69.3517C61.4259 68.8723 61.5347 68.4001 61.689 67.942C61.8863 67.3895 62.1398 66.8587 62.4454 66.358C62.7622 65.8583 63.1312 65.3937 63.5463 64.972C63.8885 64.6305 64.2639 64.3241 64.6669 64.0572C64.8202 63.9526 64.9788 63.8561 65.1421 63.7681C65.2694 63.6964 65.4017 63.6342 65.5381 63.582C65.6376 63.5192 65.7456 63.4712 65.8589 63.4395Z" fill="#0A1D47"/>
<path d="M67.4469 64.7817C67.4469 64.8213 66.9558 65.0431 66.2589 65.5737C65.8469 65.883 65.4602 66.2247 65.1025 66.5954C64.6691 67.0536 64.2719 67.5448 63.9145 68.0646C63.5688 68.5907 63.2668 69.1443 63.0117 69.7199C62.8083 70.1925 62.6492 70.683 62.5365 71.1851C62.3464 72.0404 62.3741 72.5948 62.3345 72.5948C62.3014 72.4656 62.2893 72.3319 62.2989 72.1988C62.2878 72.0472 62.2878 71.895 62.2989 71.7434C62.3102 71.5424 62.3367 71.3425 62.3781 71.1455C62.4721 70.6287 62.6194 70.1231 62.8176 69.6367C63.0686 69.0437 63.3734 68.4751 63.7284 67.9379C64.0894 67.407 64.4962 66.9087 64.9441 66.4489C65.3101 66.0797 65.7076 65.7431 66.1321 65.4431C66.2964 65.3268 66.4669 65.2197 66.643 65.1223C66.7702 65.0436 66.9025 64.9735 67.039 64.9124C67.1684 64.8506 67.3056 64.8066 67.4469 64.7817Z" fill="#0A1D47"/>
<path d="M68.4408 66.0566C68.4408 66.0923 67.9498 66.314 67.2528 66.8486C66.8464 67.1674 66.4676 67.5197 66.1203 67.902C65.7005 68.3756 65.3204 68.8828 64.9837 69.4187C64.6534 69.9583 64.3673 70.5238 64.1284 71.1096C63.9395 71.5901 63.7912 72.0855 63.6849 72.5906C63.5067 73.4539 63.5344 74.0083 63.4908 74.0083C63.4637 73.8782 63.453 73.7451 63.4591 73.6123C63.4459 73.4608 63.4459 73.3084 63.4591 73.1569C63.4678 72.9548 63.4916 72.7536 63.5304 72.555C63.6135 72.0353 63.7461 71.5248 63.9264 71.0304C64.1616 70.4302 64.4477 69.8512 64.7818 69.2999C65.1311 68.7545 65.5287 68.2416 65.9698 67.7674C66.3301 67.3815 66.7281 67.0326 67.1578 66.7259C67.3182 66.6026 67.4877 66.4914 67.6647 66.3932C67.791 66.3119 67.9234 66.2404 68.0607 66.1794C68.1798 66.1179 68.3082 66.0764 68.4408 66.0566Z" fill="#0A1D47"/>
<path d="M60.2241 75.7824C60.2241 75.8181 59.6737 75.628 58.7668 75.5488C57.5872 75.4505 56.4009 75.6281 55.3018 76.0676C54.2093 76.5237 53.2394 77.2305 52.4704 78.1307C51.8804 78.8237 51.6269 79.3187 51.5913 79.3187C51.6251 79.188 51.6799 79.0636 51.7537 78.9504C51.9264 78.6293 52.1279 78.3245 52.3556 78.0396C53.1089 77.0837 54.0965 76.3389 55.2227 75.8775C56.3489 75.416 57.5752 75.2537 58.7827 75.4062C59.1451 75.4496 59.5029 75.5252 59.8519 75.632C59.9828 75.6632 60.1083 75.7139 60.2241 75.7824Z" fill="#0A1D47"/>
<path d="M58.9214 74.1589C58.9214 74.1945 58.3709 74.0045 57.4641 73.9253C56.2837 73.8169 55.0945 73.995 53.9977 74.4445C52.9008 74.894 51.9286 75.6016 51.1637 76.5072C50.5737 77.2002 50.3203 77.715 50.2886 77.6952C50.3223 77.5644 50.3772 77.44 50.4509 77.3269C50.6237 77.0058 50.8252 76.7009 51.0529 76.4161C51.8061 75.4602 52.7938 74.7154 53.92 74.2539C55.0461 73.7925 56.2725 73.6302 57.4799 73.7827C57.8423 73.8261 58.2001 73.9016 58.5491 74.0084C58.6801 74.0396 58.8055 74.0904 58.9214 74.1589Z" fill="#0A1D47"/>
<path d="M57.6181 72.5313C57.6181 72.5709 57.0677 72.3808 56.1609 72.3016C54.9804 72.1932 53.7913 72.3713 52.6944 72.8208C51.5976 73.2703 50.6254 73.9779 49.8605 74.8835C49.2705 75.5765 49.017 76.0715 48.9854 76.0715C49.0178 75.941 49.0713 75.8166 49.1438 75.7032C49.318 75.3808 49.5207 75.0747 49.7496 74.7885C50.5038 73.8339 51.4918 73.0902 52.6178 72.6296C53.7438 72.1689 54.9697 72.0068 56.1767 72.159C56.5391 72.2024 56.8969 72.2779 57.2459 72.3847C57.3762 72.4159 57.5015 72.4653 57.6181 72.5313Z" fill="#0A1D47"/>
<path d="M56.3155 70.9077C56.3155 70.9473 55.7611 70.7572 54.8582 70.678C53.6777 70.5686 52.4882 70.7463 51.3912 71.1959C50.2942 71.6454 49.3221 72.3536 48.5578 73.26C47.9678 73.953 47.7144 74.448 47.6787 74.448C47.7176 74.3203 47.7721 74.1979 47.8411 74.0836C48.0138 73.7603 48.2167 73.4541 48.4469 73.1689C49.2008 72.2149 50.1881 71.4716 51.3134 71.011C52.4386 70.5504 53.6637 70.3879 54.8701 70.5394C55.2341 70.5809 55.5934 70.6565 55.9432 70.7651C56.0734 70.7951 56.1986 70.8431 56.3155 70.9077Z" fill="#0A1D47"/>
<path d="M55.0088 69.3001C55.0088 69.3397 54.4583 69.1496 53.5515 69.0704C52.3716 68.9617 51.1829 69.1397 50.0867 69.5892C48.9904 70.0388 48.019 70.7466 47.2551 71.6523C46.6651 72.3414 46.4116 72.8403 46.376 72.8403C46.4126 72.7118 46.4672 72.5892 46.5383 72.476C46.7109 72.1535 46.9124 71.8474 47.1403 71.5613C47.8924 70.6028 48.8792 69.8547 50.0051 69.3892C51.131 68.9237 52.358 68.7566 53.5673 68.9041C53.9299 68.9485 54.2877 69.0253 54.6365 69.1338C54.7691 69.1679 54.8949 69.2241 55.0088 69.3001Z" fill="#0A1D47"/>
<path d="M53.7058 67.6608C53.7058 67.6964 53.1553 67.5103 52.2485 67.4311C51.066 67.3198 49.8742 67.4965 48.775 67.9461C47.6757 68.3957 46.7017 69.1049 45.9362 70.013C45.3462 70.7021 45.0928 71.201 45.0571 71.201C45.0917 71.0706 45.1464 70.9463 45.2195 70.8328C45.3932 70.5122 45.5946 70.2075 45.8214 69.922C46.5764 68.9616 47.5678 68.2137 48.6985 67.7514C49.8293 67.2891 51.0607 67.1282 52.2722 67.2846C52.6348 67.329 52.9926 67.4058 53.3414 67.5143C53.4697 67.5441 53.5926 67.5935 53.7058 67.6608Z" fill="#0A1D47"/>
<path d="M57.3252 65.6686L60.0418 68.6861C60.0418 68.6861 60.8892 64.5123 64.5839 62.9283L61.7129 59.8672C60.528 60.3512 59.4954 61.1453 58.7233 62.1661C57.9513 63.1869 57.4683 64.3967 57.3252 65.6686Z" fill="#EBEBEB"/>
<path d="M67.0825 35.1488L66.6865 36.0319C66.6865 36.0319 72.2662 36.4873 74.2818 39.3226C74.2837 39.4328 74.3129 39.5407 74.3668 39.6368C74.4207 39.7329 74.4976 39.8141 74.5907 39.8731L75.6757 40.5661C75.7919 40.6369 75.9268 40.6708 76.0627 40.663C76.1985 40.6552 76.3288 40.6062 76.436 40.5225C77.5048 40.6119 78.5416 40.9314 79.4753 41.4591C80.409 41.9867 81.2175 42.7101 81.8454 43.5796L82.6572 44.6132L86.2568 32.5985L74.4481 23.2886L67.0825 35.1488Z" fill="#FF9F1C"/>
<path d="M66.9757 33.5533L66.2114 35.1373C66.2114 35.1373 72.1514 34.7849 75.2482 39.9408L77.9647 31.8901C77.9647 31.8901 68.1399 32.1555 66.9757 33.5533Z" fill="#EBEBEB"/>
<path d="M71.9494 21.883C71.9494 21.883 79.5645 20.5247 80.6614 28.5042L75.2402 39.9327C75.2402 39.9327 72.8919 32.2978 66.2866 33.6244L71.9494 21.883Z" fill="#F5F5F5"/>
<path d="M75.2402 39.9328C75.2402 39.9328 81.4891 39.3784 83.2315 44.2888L87.5875 33.5454L80.4595 28.9082L75.2402 39.9328Z" fill="#EBEBEB"/>
<path d="M80.6338 28.512C80.6338 28.512 84.1384 25.74 87.3935 27.8666L89.4368 29.304L85.2749 40.198C85.2749 40.198 80.2061 36.7805 75.2402 39.9366L80.6338 28.512Z" fill="#F5F5F5"/>
<path d="M75.2402 39.9325C75.2846 39.7721 75.3456 39.6168 75.4224 39.4691C75.5689 39.1405 75.755 38.7286 75.9768 38.2415L77.8538 34.2023L79.7348 30.1671L80.3011 28.9435C80.3621 28.7886 80.4405 28.6411 80.5348 28.5039C80.4986 28.6661 80.4455 28.824 80.3764 28.9751C80.2655 29.2761 80.0873 29.6998 79.8655 30.2265C79.422 31.2759 78.7765 32.7134 78.04 34.2895C77.3034 35.8655 76.6183 37.2832 76.1075 38.3049C75.854 38.8118 75.6442 39.2236 75.4937 39.4929C75.428 39.6495 75.3428 39.7972 75.2402 39.9325Z" fill="#0A1D47"/>
<path d="M87.3855 30.3969C87.3618 30.4247 87.0529 30.1831 86.4866 29.9019C85.0113 29.1678 83.3111 29.0262 81.7346 29.5059C81.1367 29.6921 80.7882 29.9019 80.7724 29.8505C80.7565 29.799 80.8436 29.7831 80.9981 29.6881C81.2179 29.5611 81.4484 29.4538 81.6871 29.3673C82.4803 29.0755 83.3278 28.9606 84.17 29.0307C85.0123 29.0968 85.8305 29.3425 86.5698 29.7515C86.7919 29.8751 87.0026 30.0183 87.1994 30.1791C87.3222 30.3177 87.3935 30.3851 87.3855 30.3969Z" fill="#0A1D47"/>
<path d="M87.069 31.7117C87.0452 31.7394 86.7324 31.4979 86.1701 31.2167C84.6948 30.4826 82.9945 30.3409 81.4181 30.8207C80.8161 31.0068 80.4716 31.2167 80.4518 31.1652C80.432 31.1137 80.5271 31.0979 80.6815 31.0028C80.9009 30.8751 81.1315 30.7677 81.3705 30.6821C82.1636 30.3896 83.0112 30.2747 83.8535 30.3455C84.6946 30.4109 85.5117 30.6567 86.2493 31.0662C86.472 31.1889 86.6828 31.3321 86.8789 31.4939C87.0056 31.6325 87.0769 31.6998 87.069 31.7117Z" fill="#0A1D47"/>
<path d="M86.475 33.0186C86.4552 33.0502 86.1424 32.8047 85.58 32.5236C84.844 32.1648 84.0477 31.9459 83.2318 31.8781C82.4155 31.8149 81.5946 31.9063 80.8122 32.1474C80.2142 32.3374 79.8658 32.5434 79.8499 32.4958C79.8341 32.4483 79.9252 32.4246 80.0796 32.3335C80.2979 32.2025 80.5287 32.0937 80.7686 32.0088C81.5613 31.7204 82.4067 31.6056 83.2476 31.6722C84.0906 31.7368 84.9095 31.9841 85.6474 32.3968C85.8703 32.5191 86.0811 32.6623 86.277 32.8245C86.4156 32.9394 86.4869 33.0067 86.475 33.0186Z" fill="#0A1D47"/>
<path d="M86.1066 34.3251C86.0828 34.3568 85.77 34.1113 85.2076 33.8301C83.7324 33.096 82.0321 32.9543 80.4557 33.4341C79.8537 33.6242 79.5092 33.8301 79.4894 33.7826C79.4696 33.7351 79.5647 33.7113 79.7191 33.6203C79.9374 33.4893 80.1682 33.3805 80.4081 33.2955C81.2021 33.0069 82.0489 32.8921 82.8911 32.9589C83.7328 33.0235 84.5504 33.2708 85.2868 33.6836C85.5104 33.8049 85.7213 33.9482 85.9165 34.1113C86.0432 34.2459 86.1145 34.3133 86.1066 34.3251Z" fill="#0A1D47"/>
<path d="M85.7341 35.7155C85.7143 35.7432 85.4015 35.5016 84.8392 35.2205C84.1034 34.8612 83.307 34.6423 82.4909 34.575C81.6759 34.5116 80.8563 34.6029 80.0753 34.8443C79.4734 35.0304 79.1288 35.2403 79.109 35.1888C79.0892 35.1373 79.1843 35.1215 79.3387 35.0264C79.5581 34.8987 79.7888 34.7913 80.0278 34.7057C80.8218 34.417 81.6685 34.3022 82.5107 34.3691C83.3457 34.4365 84.1562 34.6837 84.8867 35.0938C85.1171 35.2139 85.3347 35.3572 85.5361 35.5214C85.6747 35.6402 85.746 35.7036 85.7341 35.7155Z" fill="#0A1D47"/>
<path d="M85.3738 37.2952C85.35 37.3268 85.0134 37.0615 84.3957 36.7685C84.034 36.5955 83.6593 36.4512 83.275 36.3368C82.8038 36.2044 82.3233 36.1077 81.8375 36.0478C81.3496 35.9951 80.8582 35.9832 80.3684 36.0121C79.9675 36.0403 79.57 36.1039 79.1804 36.2022C78.519 36.3725 78.1428 36.5982 78.123 36.5507C78.1981 36.481 78.2836 36.4235 78.3765 36.3804C78.4787 36.3197 78.586 36.268 78.6972 36.226C78.841 36.1613 78.9893 36.1071 79.1408 36.0636C79.5277 35.9434 79.9257 35.8625 80.3288 35.822C80.8299 35.7835 81.3336 35.7901 81.8336 35.8418C82.3329 35.9025 82.8258 36.0072 83.3067 36.1547C83.6972 36.2801 84.075 36.4418 84.4353 36.6378C84.5727 36.7091 84.705 36.7898 84.8313 36.8794C84.932 36.9413 85.0273 37.0115 85.1164 37.0892C85.3065 37.2239 85.3817 37.2872 85.3738 37.2952Z" fill="#0A1D47"/>
<path d="M84.8475 38.4398C84.8238 38.4715 84.4872 38.2022 83.8615 37.921C83.4939 37.7586 83.1139 37.6262 82.725 37.525C82.2475 37.407 81.7616 37.3263 81.2716 37.2835C80.7814 37.2435 80.2888 37.2435 79.7985 37.2835C79.397 37.322 78.9996 37.3949 78.6105 37.5013C77.9492 37.6795 77.573 37.8973 77.5532 37.8577C77.5334 37.8181 77.6364 37.7864 77.8066 37.6874C77.9095 37.6267 78.0167 37.5738 78.1274 37.529C78.2716 37.4632 78.4198 37.4064 78.5709 37.3587C78.9577 37.233 79.3554 37.1441 79.7589 37.0934C80.2599 37.0379 80.765 37.0286 81.2677 37.0657C81.7712 37.1076 82.2697 37.1964 82.7566 37.331C83.1538 37.4437 83.5385 37.5963 83.905 37.7864C84.0416 37.8562 84.1739 37.9343 84.301 38.02C84.4029 38.082 84.4996 38.1522 84.5901 38.2299C84.7802 38.3566 84.8594 38.4319 84.8475 38.4398Z" fill="#0A1D47"/>
<path d="M75.1654 36.2299C75.1297 36.2299 75.0584 35.7943 74.7892 35.1409C74.436 34.2947 73.8942 33.5403 73.2052 32.9352C72.4998 32.3431 71.6658 31.9241 70.7698 31.7116C70.0807 31.5452 69.6372 31.5452 69.6372 31.5096C69.7389 31.4813 69.8449 31.4719 69.95 31.4819C70.2359 31.4849 70.5209 31.514 70.8014 31.569C71.7374 31.7462 72.6111 32.164 73.3367 32.7813C74.0623 33.3985 74.6147 34.194 74.9396 35.0894C75.04 35.3573 75.113 35.6346 75.1574 35.9171C75.1784 36.0201 75.181 36.126 75.1654 36.2299Z" fill="#0A1D47"/>
<path d="M75.8223 34.7451C75.7867 34.7451 75.7194 34.3095 75.4461 33.6561C75.0962 32.804 74.5478 32.048 73.8466 31.4508C73.1454 30.8536 72.3117 30.4325 71.4148 30.2227C70.7258 30.0604 70.2783 30.0604 70.2783 30.0247C70.38 29.9964 70.4861 29.9871 70.5912 29.997C70.8768 30.0003 71.1617 30.0281 71.4426 30.0802C72.379 30.2578 73.253 30.6761 73.9786 31.2941C74.7042 31.9121 75.2564 32.7084 75.5808 33.6046C75.6802 33.873 75.7544 34.1501 75.8025 34.4322C75.829 34.5343 75.8357 34.6405 75.8223 34.7451Z" fill="#0A1D47"/>
<path d="M76.484 33.2642C76.4483 33.2642 76.377 32.8286 76.088 32.1752C75.7401 31.3243 75.1944 30.5686 74.496 29.9708C73.7977 29.373 72.9669 28.9503 72.0725 28.7379C71.3835 28.5755 70.936 28.5755 70.94 28.5399C71.0417 28.5116 71.1477 28.5022 71.2528 28.5122C71.5385 28.5154 71.8233 28.5433 72.1042 28.5953C73.0399 28.7746 73.9132 29.1934 74.6386 29.811C75.3619 30.4308 75.9141 31.2256 76.2424 32.1197C76.3409 32.3881 76.4138 32.6652 76.4602 32.9474C76.4869 33.0507 76.4949 33.158 76.484 33.2642Z" fill="#0A1D47"/>
<path d="M77.1409 31.7748C77.1053 31.7748 77.038 31.3392 76.7449 30.6858C76.395 29.8332 75.8461 29.0766 75.1441 28.4794C74.4421 27.8821 73.6074 27.4614 72.7097 27.2525C72.0246 27.0902 71.5771 27.0902 71.5771 27.0545C71.6789 27.0262 71.7849 27.0168 71.89 27.0268C72.1757 27.0281 72.4608 27.0559 72.7414 27.11C73.6785 27.2857 74.5535 27.7034 75.2794 28.3216C76.0053 28.9399 76.5569 29.7371 76.8796 30.6344C76.9784 30.9016 77.0526 31.1773 77.1013 31.458C77.1345 31.5602 77.1479 31.6677 77.1409 31.7748Z" fill="#0A1D47"/>
<path d="M77.8025 30.29C77.7669 30.29 77.6956 29.8544 77.4065 29.201C77.0567 28.349 76.5083 27.5929 75.8071 26.9957C75.1059 26.3985 74.2721 25.9775 73.3753 25.7677C72.6862 25.6053 72.2387 25.6053 72.2427 25.5697C72.3444 25.5414 72.4504 25.532 72.5555 25.5419C72.8414 25.5412 73.1266 25.569 73.4069 25.6251C74.3435 25.8023 75.2177 26.2206 75.9434 26.8386C76.669 27.4566 77.2211 28.2531 77.5452 29.1495C77.6412 29.4173 77.714 29.6929 77.7629 29.9732C77.7945 30.0757 77.8079 30.1829 77.8025 30.29Z" fill="#0A1D47"/>
<path d="M78.46 28.8012C78.4243 28.8012 78.357 28.3695 78.0838 27.7161C77.7342 26.8639 77.1859 26.1077 76.4846 25.5104C75.7833 24.9132 74.9495 24.4923 74.0525 24.2828C73.3634 24.1165 72.9199 24.1204 72.9199 24.0848C73.0216 24.0565 73.1277 24.0471 73.2328 24.0571C73.5186 24.0563 73.8038 24.0842 74.0842 24.1402C75.0207 24.3175 75.8949 24.7357 76.6206 25.3537C77.3463 25.9718 77.8983 26.7682 78.2224 27.6646C78.3222 27.9313 78.3951 28.2072 78.4402 28.4883C78.4651 28.5906 78.4718 28.6965 78.46 28.8012Z" fill="#0A1D47"/>
<path d="M140.303 72.7451L139.638 73.7985C139.638 73.7985 146.639 75.3547 148.702 79.3068C148.686 79.4475 148.705 79.59 148.757 79.7218C148.809 79.8535 148.892 79.9707 148.999 80.0632L150.254 81.1324C150.389 81.2427 150.554 81.3093 150.727 81.3235C150.901 81.3376 151.074 81.2986 151.225 81.2116C151.225 81.2116 155.49 81.96 157.561 86.0388L158.4 87.5159L165.085 72.8639L151.747 59.0039L140.303 72.7451Z" fill="#FF9F1C"/>
<path d="M140.45 70.7062L139.202 72.5713C139.202 72.5713 146.809 73.1653 149.835 80.2537L154.69 70.5082C154.69 70.5082 142.164 69.1341 140.45 70.7062Z" fill="#EBEBEB"/>
<path d="M148.809 56.7588C148.809 56.7588 158.709 56.3628 158.709 66.6905L149.855 80.2535C149.855 80.2535 148.207 70.1476 139.594 70.6782L148.809 56.7588Z" fill="#F5F5F5"/>
<path d="M149.835 80.2534C149.835 80.2534 157.862 80.6494 159.208 87.2112L166.598 74.3332L158.4 67.1577L149.835 80.2534Z" fill="#EBEBEB"/>
<path d="M158.673 66.6985C158.673 66.6985 163.608 63.78 167.366 67.0628L169.71 69.2527L162.515 82.3682C162.515 82.3682 156.678 77.1371 149.819 80.2734L158.673 66.6985Z" fill="#F5F5F5"/>
<path d="M149.835 80.2536C149.924 80.061 150.03 79.8768 150.152 79.7032L151.078 78.2459C151.894 76.9906 152.979 75.3116 154.179 73.4543L157.268 68.6548L158.195 67.1975C158.3 67.0135 158.42 66.8386 158.555 66.6748C158.475 66.87 158.378 67.0581 158.266 67.2371C158.068 67.5975 157.767 68.1044 157.391 68.734C156.638 69.9854 155.565 71.6961 154.353 73.5652C153.142 75.4343 152.025 77.1292 151.185 78.3172L150.203 79.7428C150.095 79.9231 149.972 80.094 149.835 80.2536Z" fill="#0A1D47"/>
<path d="M166.914 70.2745C166.886 70.3023 166.538 69.934 165.873 69.4825C165.484 69.2144 165.071 68.9812 164.641 68.7856C164.114 68.5509 163.565 68.3679 163.002 68.2391C162.436 68.1196 161.861 68.0546 161.283 68.0451C160.811 68.0434 160.339 68.0831 159.873 68.1639C159.081 68.3025 158.606 68.4925 158.594 68.4529C158.692 68.385 158.801 68.3329 158.915 68.2985C159.044 68.2443 159.176 68.198 159.311 68.1599C159.487 68.1042 159.665 68.058 159.846 68.0213C160.318 67.9183 160.8 67.8626 161.283 67.855C161.875 67.8545 162.466 67.9155 163.045 68.0371C163.624 68.1683 164.187 68.3608 164.724 68.6113C165.159 68.8219 165.573 69.0738 165.96 69.3637C166.126 69.4825 166.261 69.6093 166.388 69.7162C166.493 69.8068 166.592 69.9047 166.685 70.0092C166.773 70.0868 166.85 70.1761 166.914 70.2745Z" fill="#0A1D47"/>
<path d="M166.28 71.8899C166.249 71.9176 165.884 71.5493 165.239 71.0979C164.85 70.8297 164.438 70.5965 164.007 70.4009C162.953 69.9205 161.808 69.6694 160.649 69.6644C160.177 69.6614 159.705 69.6998 159.24 69.7792C158.448 69.9178 157.972 70.1079 157.957 70.0722C158.056 70.0041 158.166 69.952 158.281 69.9178C158.409 69.8592 158.541 69.8127 158.677 69.7792C158.854 69.7208 159.034 69.6732 159.216 69.6366C159.688 69.5352 160.17 69.4808 160.653 69.4743C161.245 69.4705 161.836 69.5303 162.416 69.6525C162.993 69.7856 163.554 69.9794 164.091 70.2306C164.527 70.4366 164.941 70.6874 165.326 70.9791C165.475 71.0896 165.618 71.2086 165.754 71.3355C165.861 71.4239 165.962 71.5206 166.055 71.6246C166.142 71.702 166.218 71.7913 166.28 71.8899Z" fill="#0A1D47"/>
<path d="M165.298 73.4464C165.271 73.4741 164.922 73.1059 164.257 72.6544C163.867 72.3877 163.455 72.1546 163.025 71.9575C162.497 71.7245 161.948 71.5416 161.386 71.411C160.821 71.2927 160.245 71.229 159.667 71.2209C159.195 71.2202 158.724 71.2586 158.258 71.3357C157.466 71.4783 156.99 71.6644 156.979 71.6288C157.077 71.5619 157.185 71.5099 157.299 71.4743C157.428 71.4183 157.56 71.372 157.695 71.3357C157.871 71.2786 158.049 71.231 158.23 71.1932C158.703 71.0919 159.184 71.0375 159.667 71.0308C160.259 71.0287 160.85 71.0884 161.43 71.209C162.008 71.3433 162.57 71.5371 163.109 71.7872C163.544 71.9968 163.958 72.2488 164.344 72.5396C164.494 72.6476 164.637 72.7653 164.772 72.892C164.878 72.9815 164.979 73.0781 165.073 73.1811C165.227 73.3395 165.31 73.4345 165.298 73.4464Z" fill="#0A1D47"/>
<path d="M150.373 75.5372C150.338 75.5372 150.334 74.967 150.108 74.0878C149.818 72.9382 149.254 71.8757 148.465 70.991C147.675 70.1064 146.683 69.4257 145.574 69.0072C144.726 68.6824 144.156 68.6112 144.164 68.5755C144.297 68.5658 144.43 68.5751 144.56 68.6032C144.921 68.6621 145.276 68.7508 145.621 68.8686C146.774 69.2596 147.806 69.9426 148.617 70.851C149.428 71.7594 149.989 72.8623 150.247 74.0522C150.329 74.4085 150.377 74.7718 150.389 75.1372C150.406 75.2705 150.401 75.4057 150.373 75.5372Z" fill="#0A1D47"/>
<path d="M151.47 73.7667C151.434 73.7667 151.43 73.1965 151.205 72.3173C150.915 71.1682 150.351 70.1062 149.563 69.2216C148.774 68.337 147.783 67.656 146.675 67.2367C145.823 66.9119 145.253 66.8407 145.261 66.805C145.393 66.7953 145.527 66.8046 145.657 66.8327C146.017 66.8916 146.372 66.9803 146.718 67.0981C147.87 67.4896 148.902 68.1729 149.711 69.0813C150.521 69.9897 151.082 71.0922 151.339 72.2817C151.422 72.638 151.469 73.0013 151.482 73.3667C151.503 73.4997 151.499 73.6352 151.47 73.7667Z" fill="#0A1D47"/>
<path d="M152.567 71.9972C152.532 71.9972 152.528 71.4269 152.302 70.5478C152.012 69.3987 151.448 68.3367 150.66 67.4521C149.871 66.5675 148.88 65.8865 147.772 65.4671C146.92 65.1424 146.35 65.0711 146.358 65.0355C146.491 65.0257 146.624 65.0351 146.754 65.0632C147.114 65.122 147.469 65.2108 147.815 65.3285C148.971 65.718 150.006 66.4002 150.82 67.3086C151.634 68.217 152.199 69.3207 152.46 70.5122C152.539 70.8691 152.586 71.2321 152.603 71.5972C152.615 71.7316 152.603 71.867 152.567 71.9972Z" fill="#0A1D47"/>
<path d="M153.668 70.2267C153.628 70.2267 153.624 69.6564 153.399 68.7773C153.108 67.6282 152.545 66.5661 151.756 65.6816C150.968 64.797 149.977 64.116 148.868 63.6966C148.017 63.3719 147.451 63.3006 147.455 63.265C147.587 63.2552 147.721 63.2646 147.851 63.2927C148.211 63.3515 148.566 63.4403 148.912 63.558C150.064 63.9504 151.095 64.6338 151.906 65.542C152.716 66.4502 153.278 67.5524 153.537 68.7417C153.615 69.0986 153.663 69.4616 153.68 69.8267C153.695 69.9599 153.691 70.0946 153.668 70.2267Z" fill="#0A1D47"/>
<path d="M154.765 68.4566C154.725 68.4566 154.721 67.8864 154.496 67.0073C154.206 65.8582 153.642 64.7961 152.853 63.9115C152.065 63.0269 151.074 62.346 149.965 61.9266C149.114 61.6019 148.548 61.5306 148.552 61.495C148.684 61.4852 148.818 61.4945 148.948 61.5227C149.308 61.5811 149.663 61.6698 150.009 61.788C151.161 62.1804 152.193 62.8638 153.003 63.772C153.813 64.6802 154.375 65.7824 154.634 66.9716C154.713 67.3286 154.76 67.6916 154.777 68.0567C154.792 68.1899 154.788 68.3246 154.765 68.4566Z" fill="#0A1D47"/>
<path d="M155.862 66.6861C155.822 66.6861 155.818 66.1159 155.592 65.2368C155.302 64.0877 154.739 63.0256 153.95 62.141C153.161 61.2564 152.171 60.5755 151.062 60.1561C150.211 59.8314 149.644 59.7601 149.648 59.7244C149.781 59.7147 149.914 59.724 150.044 59.7522C150.405 59.8105 150.76 59.8993 151.106 60.0175C152.258 60.4099 153.289 61.0933 154.1 62.0015C154.91 62.9097 155.472 64.0118 155.731 65.2011C155.809 65.5581 155.857 65.9211 155.874 66.2862C155.889 66.4194 155.885 66.5541 155.862 66.6861Z" fill="#0A1D47"/>
<path d="M156.67 73.4462L154.088 77.1844C154.088 77.1844 158.048 76.7211 161.493 78.9149L163.869 74.9114C163.869 74.9114 160.21 72.0364 156.654 73.4462" fill="#EBEBEB"/>
<path d="M132.731 28.8408C132.834 28.2502 132.754 27.6422 132.502 27.0984C132.275 26.5569 131.885 26.0999 131.385 25.7916C131.115 25.638 130.818 25.54 130.51 25.5033C130.202 25.4665 129.889 25.4919 129.591 25.5778C129.238 25.6856 128.916 25.8771 128.653 26.1361C128.582 25.8076 128.439 25.4991 128.233 25.2332C128.042 24.9875 127.803 24.7832 127.531 24.6328C127.259 24.4823 126.959 24.3888 126.649 24.3581C126.064 24.3141 125.481 24.4525 124.978 24.7541C124.461 25.0511 124.046 25.4986 123.79 26.0371C123.469 26.73 123.382 27.508 123.54 28.2547C123.752 29.0303 124.147 29.7435 124.693 30.3337C125.56 31.3316 126.716 32.6028 126.716 32.6028C126.716 32.6028 128.209 32.092 129.488 31.8108C130.275 31.6483 131.012 31.3008 131.639 30.797C132.202 30.2784 132.585 29.5928 132.731 28.8408Z" fill="#FF9F1C"/>
<path d="M124.103 39.3866C124.005 39.1177 123.824 38.8864 123.588 38.7253C123.365 38.5569 123.095 38.4639 122.816 38.46C122.58 38.4589 122.35 38.536 122.162 38.6793C121.974 38.8226 121.839 39.0239 121.778 39.252C121.622 39.0841 121.417 38.9696 121.193 38.9248C120.968 38.88 120.735 38.9072 120.527 39.0025C120.276 39.1283 120.072 39.329 119.941 39.5767C119.796 39.823 119.733 40.1082 119.759 40.3925C119.793 40.7541 119.945 41.0946 120.19 41.3626C120.464 41.6297 120.798 41.8266 121.164 41.9369C121.762 42.1349 122.546 42.3764 122.546 42.3764C122.546 42.3764 123.033 41.8101 123.489 41.3745C123.773 41.117 123.992 40.7952 124.126 40.436C124.231 40.0927 124.222 39.7249 124.103 39.3866Z" fill="#FF9F1C"/>
<path d="M67.9419 97.8636C67.9986 97.5841 67.9682 97.2938 67.8548 97.032C67.7527 96.7717 67.5729 96.5491 67.34 96.3945C67.1378 96.2704 66.9006 96.2161 66.6645 96.2397C66.4285 96.2633 66.2068 96.3635 66.0332 96.5252C65.9885 96.3013 65.8746 96.0972 65.7076 95.9415C65.5407 95.7859 65.329 95.6867 65.1026 95.6579C64.8268 95.6314 64.5497 95.6923 64.3106 95.8322C64.058 95.9654 63.8521 96.1727 63.7205 96.4262C63.5599 96.7525 63.5099 97.1222 63.578 97.4795C63.6695 97.8517 63.8487 98.1965 64.1007 98.4854C64.4967 98.9685 65.0392 99.5902 65.0392 99.5902C65.0392 99.5902 65.756 99.3645 66.3698 99.2338C66.747 99.1668 67.1027 99.0107 67.4073 98.7784C67.6776 98.5376 67.8647 98.2174 67.9419 97.8636Z" fill="#FF9F1C"/>
<path d="M146.6 98.347C146.532 98.1864 146.419 98.0489 146.275 97.951C146.133 97.8475 145.963 97.7895 145.788 97.7847C145.795 97.8918 145.768 97.9985 145.71 98.0889C145.652 98.1793 145.566 98.2485 145.466 98.2863C145.365 98.3241 145.255 98.3285 145.152 98.2988C145.049 98.269 144.958 98.2068 144.893 98.1213C144.807 98.0841 144.715 98.0649 144.622 98.0649C144.528 98.0649 144.436 98.0841 144.35 98.1213C144.194 98.199 144.065 98.3235 143.982 98.4777C143.891 98.6332 143.851 98.8131 143.867 98.9925C143.891 99.2198 143.986 99.4336 144.14 99.6023C144.313 99.7699 144.524 99.8935 144.754 99.9627L145.622 100.24C145.622 100.24 145.926 99.8795 146.212 99.6063C146.389 99.4459 146.525 99.2447 146.608 99.0202C146.677 98.8008 146.674 98.5647 146.6 98.347Z" fill="#FF9F1C"/>
<path d="M72.3018 85.0489C72.2396 84.8798 72.126 84.7344 71.9771 84.6331C71.837 84.5263 71.6661 84.4679 71.49 84.4668C71.3969 84.4669 71.3048 84.4863 71.2196 84.5238C71.1344 84.5613 71.0579 84.616 70.995 84.6846C70.9204 84.7658 70.8661 84.8635 70.8366 84.9697C70.7675 84.8964 70.6839 84.8384 70.5911 84.7994C70.5059 84.7633 70.4143 84.7446 70.3218 84.7446C70.2292 84.7446 70.1377 84.7633 70.0525 84.7994C69.8947 84.8775 69.7657 85.0037 69.6842 85.1598C69.5935 85.3139 69.5533 85.4925 69.5694 85.6706C69.5919 85.8982 69.6878 86.1122 69.8426 86.2805C70.0144 86.4494 70.2252 86.5731 70.4564 86.6408C70.8287 86.7676 71.3237 86.918 71.3237 86.918C71.3237 86.918 71.6286 86.5616 71.9137 86.2884C72.0909 86.1261 72.2267 85.9238 72.3097 85.6984C72.375 85.4864 72.3722 85.2593 72.3018 85.0489Z" fill="#FF9F1C"/>
<path d="M141.72 35.1888C141.654 35.0276 141.541 34.8898 141.396 34.7928C141.254 34.6893 141.084 34.6313 140.909 34.6265C140.816 34.628 140.724 34.648 140.639 34.6854C140.554 34.7228 140.477 34.7768 140.414 34.8443C140.339 34.9252 140.286 35.0231 140.259 35.1294C140.19 35.0577 140.106 35.0011 140.014 34.9631C139.928 34.9268 139.836 34.9081 139.742 34.9081C139.649 34.9081 139.557 34.9268 139.471 34.9631C139.317 35.0469 139.19 35.1732 139.106 35.3269C139.022 35.4807 138.984 35.6554 138.996 35.8303C139.019 36.0576 139.115 36.2714 139.269 36.4401C139.442 36.6077 139.652 36.7313 139.883 36.8005L140.75 37.0777C140.75 37.0777 141.055 36.7173 141.34 36.4441C141.518 36.2837 141.654 36.0826 141.736 35.858C141.802 35.639 141.797 35.4045 141.72 35.1888Z" fill="#FF9F1C"/>
<path d="M140.933 88.9575C140.965 88.4377 140.836 87.9207 140.564 87.4765C140.313 87.0325 139.93 86.6781 139.467 86.4627C139.071 86.2911 138.629 86.2539 138.209 86.3568C137.789 86.4598 137.415 86.6972 137.143 87.0329C137.047 86.7578 136.893 86.5065 136.691 86.2964C136.502 86.1045 136.275 85.9529 136.025 85.8508C135.776 85.7487 135.508 85.6982 135.238 85.7024C134.729 85.7236 134.24 85.9051 133.84 86.2211C133.417 86.5267 133.099 86.9554 132.929 87.4487C132.723 88.0792 132.723 88.7587 132.929 89.3891C133.187 90.0337 133.594 90.6078 134.117 91.0642C134.969 91.8562 136.097 92.8185 136.097 92.8185C136.097 92.8185 137.333 92.2285 138.414 91.8404C139.077 91.6205 139.679 91.2459 140.168 90.7474C140.609 90.2484 140.877 89.6208 140.933 88.9575Z" fill="#FF9F1C"/>
</svg>
