<svg width="198" height="176" viewBox="0 0 198 176" fill="none" xmlns="http://www.w3.org/2000/svg">
<path d="M28.1318 142.898H16.4062V163.233H28.1318V142.898Z" fill="#FF9F1C"/>
<path d="M53.5869 151.219H41.8613V163.237H53.5869V151.219Z" fill="#FF9F1C"/>
<g opacity="0.79">
<path opacity="0.79" d="M53.5869 151.219H41.8613V163.237H53.5869V151.219Z" fill="white"/>
</g>
<path d="M77.2397 163.237L65.5142 163.307V136.045H77.2397V163.237Z" fill="#FF9F1C"/>
<path d="M102.001 148.879H90.2759V163.237H102.001V148.879Z" fill="#FF9F1C"/>
<g opacity="0.79">
<path opacity="0.79" d="M102.001 148.879H90.2759V163.237H102.001V148.879Z" fill="white"/>
</g>
<path d="M126.348 136.041H114.622V163.233H126.348V136.041Z" fill="#FF9F1C"/>
<path d="M150.464 101.271H138.738V163.237H150.464V101.271Z" fill="#FF9F1C"/>
<g opacity="0.79">
<path opacity="0.79" d="M150.464 101.271H138.738V163.237H150.464V101.271Z" fill="white"/>
</g>
<path d="M28.1159 152.582C28.207 152.663 25.6686 155.12 22.4452 158.062C19.2217 161.005 16.5329 163.342 16.4418 163.244C16.3507 163.145 18.8891 160.706 22.1125 157.76C25.336 154.814 28.0367 152.497 28.1159 152.582Z" fill="white"/>
<path d="M53.5076 152.768C53.5986 152.853 51.0603 155.31 47.8368 158.252C44.6134 161.195 41.9206 163.532 41.8295 163.434C41.7384 163.335 44.2768 160.896 47.5042 157.95C50.7316 155.003 53.4165 152.677 53.5076 152.768Z" fill="#FF9F1C"/>
<path d="M101.978 152.571C102.069 152.656 99.5303 155.109 96.3069 158.055C93.0834 161.001 90.3906 163.328 90.2877 163.237C90.1847 163.145 92.735 160.695 95.9624 157.753C99.1898 154.81 101.887 152.487 101.978 152.571Z" fill="#FF9F1C"/>
<path d="M27.9694 143.109C28.0605 143.19 25.5221 145.647 22.2987 148.59C19.0753 151.533 16.3864 153.87 16.2953 153.771C16.2043 153.673 18.7426 151.233 21.9661 148.287C25.1895 145.341 27.8783 143.025 27.9694 143.109Z" fill="white"/>
<path d="M77.4182 152.733C77.5093 152.817 74.9709 155.274 71.7475 158.217C68.524 161.16 65.8312 163.497 65.7402 163.399C65.6491 163.3 68.1874 160.861 71.4148 157.914C74.6422 154.968 77.3271 152.652 77.4182 152.733Z" fill="white"/>
<path d="M77.2595 143.264C77.3506 143.349 74.8122 145.806 71.5888 148.749C68.3654 151.691 65.6726 154.029 65.5815 153.93C65.4904 153.831 68.0288 151.392 71.2562 148.446C74.4836 145.5 77.1684 143.18 77.2595 143.264Z" fill="white"/>
<path d="M73.6045 136.041C73.6996 136.126 71.977 137.833 69.7594 139.857C67.5418 141.881 65.6727 143.454 65.5816 143.377C65.4905 143.299 67.2131 141.585 69.4307 139.561C71.6483 137.537 73.5135 135.96 73.6045 136.041Z" fill="white"/>
<path d="M150.401 152.571C150.492 152.656 147.949 155.109 144.726 158.055C141.503 161.001 138.814 163.335 138.723 163.237C138.632 163.138 141.17 160.695 144.397 157.753C147.625 154.81 150.31 152.487 150.401 152.571Z" fill="#FF9F1C"/>
<path d="M150.242 143.099C150.334 143.183 147.795 145.637 144.568 148.583C141.34 151.529 138.655 153.845 138.564 153.765C138.473 153.684 141.012 151.223 144.239 148.28C147.466 145.338 150.151 143.014 150.242 143.099Z" fill="#FF9F1C"/>
<path d="M150.242 132.542C150.334 132.627 147.795 135.08 144.568 138.026C141.34 140.973 138.655 143.289 138.564 143.208C138.473 143.127 141.012 140.67 144.239 137.724C147.466 134.777 150.151 132.458 150.242 132.542Z" fill="#FF9F1C"/>
<path d="M126.633 152.571C126.724 152.656 124.185 155.109 120.962 158.055C117.738 161.001 115.046 163.335 114.955 163.237C114.863 163.138 117.402 160.695 120.629 157.753C123.857 154.81 126.541 152.487 126.633 152.571Z" fill="white"/>
<path d="M126.474 143.099C126.565 143.183 124.027 145.637 120.804 148.583C117.58 151.529 114.887 153.845 114.796 153.765C114.705 153.684 117.244 151.223 120.471 148.28C123.698 145.338 126.383 143.014 126.474 143.099Z" fill="white"/>
<path d="M122.76 135.95C122.851 136.034 121.144 137.71 118.95 139.73C116.756 141.751 114.903 143.289 114.812 143.208C114.721 143.127 116.428 141.448 118.622 139.427C120.815 137.407 122.649 135.872 122.76 135.95Z" fill="white"/>
<path d="M150.401 122.334C150.492 122.419 147.949 124.872 144.726 127.818C141.503 130.765 138.814 133.081 138.723 132.996C138.632 132.912 141.17 130.458 144.397 127.516C147.625 124.573 150.31 122.25 150.401 122.334Z" fill="#FF9F1C"/>
<path d="M150.401 103.351C150.492 103.435 147.949 105.889 144.726 108.835C141.503 111.781 138.814 114.097 138.723 114.013C138.632 113.928 141.17 111.475 144.397 108.532C147.625 105.59 150.31 103.266 150.401 103.351Z" fill="#FF9F1C"/>
<path d="M150.242 112.862C150.334 112.947 147.795 115.4 144.568 118.346C141.34 121.292 138.655 123.626 138.564 123.524C138.473 123.422 141.012 120.986 144.239 118.044C147.466 115.101 150.151 112.778 150.242 112.862Z" fill="#FF9F1C"/>
<path d="M175.277 63.9058H164.197V163.237H175.277V63.9058Z" fill="#FF9F1C"/>
<g opacity="0.6">
<path opacity="0.6" d="M175.329 153.159C175.416 153.236 173.016 155.556 169.971 158.34C166.926 161.125 164.383 163.328 164.296 163.237C164.209 163.145 166.609 160.836 169.654 158.055C172.699 155.274 175.242 153.078 175.329 153.159Z" fill="white"/>
</g>
<g opacity="0.6">
<path opacity="0.6" d="M175.178 144.208C175.266 144.285 172.866 146.605 169.821 149.389C166.775 152.173 164.233 154.363 164.146 154.285C164.059 154.208 166.458 151.885 169.508 149.104C172.557 146.323 175.095 144.127 175.178 144.208Z" fill="white"/>
</g>
<g opacity="0.6">
<path opacity="0.6" d="M175.178 134.232C175.266 134.313 172.866 136.633 169.821 139.413C166.775 142.194 164.233 144.387 164.146 144.32C164.059 144.253 166.458 141.92 169.508 139.139C172.557 136.358 175.095 134.155 175.178 134.232Z" fill="white"/>
</g>
<g opacity="0.6">
<path opacity="0.6" d="M175.329 124.584C175.416 124.664 173.016 126.984 169.971 129.765C166.926 132.546 164.383 134.742 164.296 134.661C164.209 134.58 166.609 132.264 169.654 129.48C172.699 126.696 175.242 124.506 175.329 124.584Z" fill="white"/>
</g>
<g opacity="0.6">
<path opacity="0.6" d="M175.178 115.632C175.266 115.713 172.866 118.033 169.821 120.814C166.775 123.595 164.233 125.791 164.146 125.71C164.059 125.629 166.458 123.313 169.508 120.529C172.557 117.744 175.095 115.555 175.178 115.632Z" fill="white"/>
</g>
<g opacity="0.6">
<path opacity="0.6" d="M175.178 105.66C175.266 105.738 172.866 108.057 169.821 110.842C166.775 113.626 164.233 115.816 164.146 115.735C164.059 115.654 166.458 113.337 169.508 110.553C172.557 107.769 175.095 105.579 175.178 105.66Z" fill="white"/>
</g>
<g opacity="0.6">
<path opacity="0.6" d="M175.178 93.9493C175.266 94.0267 172.866 96.3464 169.821 99.1307C166.775 101.915 164.233 104.104 164.146 104.027C164.059 103.95 166.458 101.626 169.508 98.8456C172.557 96.0648 175.095 93.8718 175.178 93.9493Z" fill="white"/>
</g>
<g opacity="0.6">
<path opacity="0.6" d="M175.329 81.689C175.416 81.77 173.016 84.0896 169.971 86.8704C166.926 89.6512 164.383 91.8477 164.296 91.7668C164.209 91.6858 166.609 89.3696 169.654 86.5853C172.699 83.801 175.242 81.6116 175.329 81.689Z" fill="white"/>
</g>
<g opacity="0.6">
<path opacity="0.6" d="M175.182 69.6506C175.266 69.728 172.866 72.0477 169.821 74.832C166.775 77.6164 164.233 79.8058 164.146 79.7284C164.059 79.6509 166.458 77.3277 169.508 74.5469C172.557 71.7661 175.095 69.5696 175.182 69.6506Z" fill="white"/>
</g>
<g opacity="0.6">
<path opacity="0.6" d="M170.743 63.7125C170.83 63.7899 169.425 65.205 167.603 66.8805C165.781 68.556 164.233 69.8303 164.146 69.7528C164.059 69.6754 165.469 68.2603 167.29 66.5848C169.112 64.9093 170.676 63.6456 170.743 63.7125Z" fill="white"/>
</g>
<path d="M185.855 63.0504L185.36 62.7442L184.758 62.3675L183.902 61.8748C181.999 60.8057 179.965 59.9318 177.84 59.27C176.304 58.7912 174.723 58.4377 173.115 58.214C171.205 57.9503 169.264 57.9113 167.342 58.0978C163.207 58.492 158.669 60.2274 154.713 63.2828C152.645 64.8858 150.777 66.682 149.141 68.6402C147.458 70.6959 145.783 72.8853 144.049 75.1522C140.588 79.693 137.036 84.628 133.357 89.8482C129.678 95.0684 125.833 100.577 121.746 106.216C119.691 109.032 117.58 111.883 115.374 114.742C114.27 116.167 113.224 117.642 112.151 119.121C111.078 120.599 109.993 122.077 108.872 123.552C106.689 126.492 104.308 129.314 101.744 132C100.488 133.317 99.1072 134.535 97.6178 135.643C96.885 136.196 96.0886 136.679 95.2418 137.083C94.4 137.505 93.4589 137.746 92.4936 137.787C91.5415 137.711 90.615 137.472 89.7651 137.083C88.9058 136.731 88.09 136.333 87.2862 135.921C85.7022 135.087 84.1538 134.179 82.6609 133.257C79.683 131.402 76.8635 129.476 74.1509 127.551C72.7913 126.589 71.4633 125.627 70.1671 124.665C68.8722 123.7 67.5852 122.757 66.3061 121.849C63.74 120.022 61.2215 118.279 58.7148 116.688C56.2081 115.097 53.6262 113.735 50.87 113.045C48.2211 112.404 45.4415 112.316 42.748 112.788C40.3129 113.257 37.9828 114.084 35.8537 115.234C33.9545 116.259 32.1744 117.449 30.5394 118.786C27.4664 121.292 24.8766 123.499 22.7738 125.316C20.671 127.132 19.0593 128.568 17.9703 129.54L16.7308 130.649L16.3071 131.025C16.3071 131.025 16.4418 130.888 16.7031 130.634C16.9645 130.381 17.3922 130.004 17.9268 129.515C19.0078 128.533 20.6116 127.093 22.7065 125.266C24.8013 123.44 27.3832 121.222 30.4483 118.709C32.087 117.364 33.871 116.166 35.7745 115.132C37.9159 113.975 40.2593 113.142 42.7085 112.668C45.4244 112.188 48.2285 112.272 50.9017 112.915C53.6737 113.619 56.3111 114.956 58.8019 116.569C61.2927 118.181 63.839 119.905 66.4051 121.729C67.6881 122.641 68.9791 123.584 70.274 124.545C71.5689 125.506 72.8995 126.467 74.2578 127.428C76.9704 129.346 79.8018 131.272 82.7639 133.12C84.2528 134.038 85.7774 134.946 87.3773 135.774C88.1693 136.185 88.989 136.587 89.8364 136.928C90.6612 137.303 91.5591 137.535 92.4817 137.611C93.4156 137.563 94.3239 137.322 95.1349 136.907C95.9709 136.51 96.7591 136.038 97.4871 135.499C98.9664 134.397 100.338 133.185 101.586 131.877C104.146 129.199 106.526 126.388 108.714 123.461C109.834 121.989 110.919 120.507 111.989 119.029C113.058 117.551 114.107 116.079 115.216 114.65C117.422 111.792 119.532 108.941 121.588 106.128C125.682 100.496 129.508 94.9874 133.206 89.7672C136.905 84.5471 140.465 79.6156 143.93 75.0783C145.668 72.8114 147.347 70.6255 149.038 68.5663C150.683 66.6038 152.562 64.8052 154.642 63.2018C158.622 60.1394 163.195 58.4005 167.353 58.0133C169.285 57.8286 171.236 57.8736 173.155 58.1471C174.766 58.3676 176.35 58.7212 177.887 59.2031C180.016 59.8718 182.05 60.7578 183.95 61.8431L184.801 62.3429L185.395 62.7301C185.692 62.9378 185.855 63.0504 185.855 63.0504Z" fill="#FF9F1C"/>
<path d="M48.415 113.2C48.401 113.602 48.254 113.992 47.9924 114.32C47.7308 114.649 47.3661 114.901 46.944 115.047C46.5218 115.192 46.0608 115.224 45.6185 115.138C45.1762 115.052 44.7723 114.852 44.4571 114.563C44.1418 114.274 43.9293 113.909 43.846 113.513C43.7627 113.118 43.8123 112.709 43.9886 112.339C44.165 111.968 44.4602 111.652 44.8375 111.429C45.2149 111.207 45.6575 111.088 46.1103 111.088C46.4178 111.092 46.7214 111.149 47.0038 111.257C47.2862 111.366 47.5418 111.522 47.756 111.719C47.9701 111.915 48.1385 112.147 48.2516 112.401C48.3647 112.655 48.4202 112.927 48.415 113.2Z" fill="#FF9F1C"/>
<path d="M46.11 116.959C45.2696 116.977 44.4424 116.771 43.734 116.369C43.0256 115.966 42.4681 115.386 42.1328 114.7C41.7975 114.015 41.6995 113.257 41.8513 112.522C42.0031 111.787 42.3979 111.109 42.9853 110.574C43.5726 110.04 44.3259 109.673 45.1488 109.52C45.9718 109.368 46.8272 109.437 47.6058 109.719C48.3844 110.001 49.0508 110.482 49.5201 111.102C49.9893 111.722 50.2401 112.452 50.2403 113.2C50.2519 114.185 49.8237 115.134 49.0494 115.838C48.2751 116.543 47.2181 116.946 46.11 116.959ZM46.11 109.792C45.348 109.775 44.5973 109.96 43.9541 110.323C43.3108 110.687 42.8041 111.213 42.4987 111.834C42.1934 112.455 42.1032 113.142 42.2397 113.809C42.3763 114.476 42.7333 115.091 43.2653 115.576C43.7972 116.062 44.4799 116.395 45.226 116.534C45.9722 116.673 46.7479 116.61 47.4542 116.355C48.1604 116.1 48.765 115.664 49.1908 115.102C49.6165 114.539 49.844 113.877 49.8443 113.2C49.8559 112.308 49.4694 111.449 48.7694 110.81C48.0694 110.171 47.1131 109.805 46.11 109.792Z" fill="#FF9F1C"/>
<path d="M172.28 57.9289C172.266 58.3311 172.119 58.7208 171.857 59.0493C171.596 59.3777 171.231 59.6304 170.809 59.7758C170.387 59.9212 169.926 59.9528 169.483 59.8668C169.041 59.7807 168.637 59.5808 168.322 59.2919C168.007 59.003 167.794 58.638 167.711 58.2425C167.627 57.8469 167.677 57.4383 167.853 57.0676C168.03 56.6969 168.325 56.3807 168.702 56.1582C169.08 55.9358 169.522 55.8171 169.975 55.8169C170.283 55.8201 170.587 55.8774 170.869 55.9854C171.152 56.0935 171.408 56.2502 171.622 56.4465C171.836 56.6428 172.005 56.8748 172.117 57.1293C172.23 57.3837 172.285 57.6554 172.28 57.9289Z" fill="#FF9F1C"/>
<path d="M169.975 61.6848C169.135 61.7016 168.308 61.4953 167.6 61.0924C166.892 60.6895 166.335 60.1082 166 59.4227C165.666 58.7372 165.569 57.9787 165.721 57.2438C165.874 56.509 166.269 55.8313 166.857 55.2972C167.445 54.7631 168.199 54.3969 169.022 54.2452C169.845 54.0936 170.7 54.1634 171.479 54.4459C172.257 54.7283 172.923 55.2105 173.391 55.8309C173.86 56.4512 174.11 57.1817 174.109 57.9289C174.12 58.9139 173.691 59.8624 172.916 60.5665C172.141 61.2705 171.083 61.6727 169.975 61.6848ZM169.975 54.5216C169.213 54.5048 168.463 54.6902 167.82 55.0543C167.178 55.4183 166.671 55.9444 166.367 56.5654C166.062 57.1863 165.972 57.8739 166.109 58.5404C166.246 59.2068 166.604 59.8218 167.136 60.3068C167.668 60.7918 168.351 61.1248 169.097 61.2633C169.843 61.4018 170.618 61.3394 171.324 61.0842C172.03 60.829 172.635 60.3925 173.06 59.8304C173.486 59.2684 173.713 58.6064 173.713 57.9289C173.725 57.0367 173.338 56.1768 172.637 55.538C171.936 54.8992 170.979 54.5336 169.975 54.5216Z" fill="#FF9F1C"/>
<path d="M17.9307 81.5757V99.8656H43.3261L47.991 105.677V99.8656H53.5113V81.5757H17.9307Z" fill="#FAFAFA"/>
<path d="M17.9308 81.5756H18.0931H18.5842H20.5087L27.7991 81.5544L53.5114 81.5122H53.6024V81.5967C53.6024 87.2005 53.6024 93.3781 53.6024 99.9007V99.9746H47.9792L48.0822 99.8831V105.959L47.8961 105.726L43.2431 99.9183L43.3262 99.9535L17.9308 99.9324H17.8516V99.8655C17.8714 94.2335 17.8832 89.6575 17.8951 86.4719C17.8951 84.8949 17.8951 83.6559 17.9149 82.8357C17.9149 82.4239 17.9149 82.1106 17.9149 81.8924C17.9149 81.6741 17.9149 81.5756 17.9149 81.5756C17.9149 81.5756 17.9149 81.6917 17.9149 81.9064C17.9149 82.1212 17.9149 82.445 17.9149 82.8604C17.9149 83.7016 17.9149 84.9301 17.9149 86.5141C17.9149 89.6821 17.9387 94.237 17.9545 99.8655L17.8793 99.7951L43.2748 99.7775H43.3223L43.354 99.8127L48.0228 105.624L47.8367 105.677V99.774H53.4599L53.3569 99.8655C53.3569 93.357 53.3569 87.1935 53.3569 81.5615L53.452 81.646L27.7991 81.6037L20.4889 81.5826H18.5485H18.0456L17.9308 81.5756Z" fill="#1E2959"/>
<path d="M46.9183 88.8801C46.9183 88.9294 41.9049 88.9716 35.7194 88.9716C29.5339 88.9716 24.5205 88.9294 24.5205 88.8801C24.5205 88.8308 29.5339 88.7886 35.7194 88.7886C41.9049 88.7886 46.9183 88.8273 46.9183 88.8801Z" fill="#1E2959"/>
<path d="M46.9183 92.9104C46.9183 92.9596 41.9049 93.0019 35.7194 93.0019C29.5339 93.0019 24.5205 92.9596 24.5205 92.9104C24.5205 92.8611 29.5339 92.8188 35.7194 92.8188C41.9049 92.8188 46.9183 92.8611 46.9183 92.9104Z" fill="#1E2959"/>
<path d="M186.31 30.0186H153.644V46.4922H159.045L158.641 46.559L163.266 51.8003L162.965 46.4922H186.31V30.0186Z" fill="#FAFAFA"/>
<path d="M186.31 30.015C186.31 30.015 186.31 30.11 186.31 30.3001C186.31 30.4902 186.31 30.7823 186.31 31.1519C186.31 31.9087 186.31 33.0105 186.33 34.429C186.33 37.2908 186.354 41.4162 186.37 46.4921V46.5625H186.294L162.93 46.5836L163.029 46.4886C163.124 48.1711 163.227 49.9663 163.334 51.7967V52.0818L163.136 51.8566L158.558 46.6153L158.455 46.4956L158.622 46.4674L159.018 46.4041L159.038 46.5836H153.533V46.4921C153.533 40.6278 153.533 35.0662 153.533 30.015V29.9199H153.648L177.258 29.9622L183.946 29.9833H185.712H186.314H186.152H185.692H183.906L177.194 30.0044L153.648 30.0994L153.743 30.015C153.743 35.0662 153.743 40.6278 153.743 46.4921L153.64 46.4006H159.042L159.061 46.5836L158.665 46.6505L158.729 46.5026C160.313 48.2978 161.873 50.0649 163.354 51.7439L163.172 51.8038C163.069 49.9769 162.97 48.1817 162.875 46.4991V46.4041H162.982L186.346 46.4252L186.267 46.4921C186.286 41.4338 186.298 37.3225 186.31 34.4713C186.31 33.0457 186.31 31.9369 186.33 31.1766C186.33 30.8034 186.33 30.5148 186.33 30.3142C186.33 30.1135 186.31 30.015 186.31 30.015Z" fill="#1E2959"/>
<path d="M159.794 36.6853C159.794 36.636 164.352 36.5938 169.975 36.5938C175.598 36.5938 180.16 36.636 180.16 36.6853C180.16 36.7346 175.602 36.7768 169.975 36.7768C164.348 36.7768 159.794 36.7381 159.794 36.6853Z" fill="#1E2959"/>
<path d="M159.794 40.216C159.794 40.1668 164.352 40.1245 169.975 40.1245C175.598 40.1245 180.16 40.1668 180.16 40.216C180.16 40.2653 175.602 40.3076 169.975 40.3076C164.348 40.3076 159.794 40.2688 159.794 40.216Z" fill="#1E2959"/>
<path d="M70.4603 54.662C72.7774 51.3217 73.6045 47.3316 72.7789 43.4766C71.9533 39.6215 69.5348 36.1806 65.9991 33.8306C62.4634 31.4806 58.0665 30.3917 53.6731 30.778C49.2798 31.1643 45.208 32.9979 42.2588 35.9181C39.3096 38.8383 37.6964 42.6337 37.7366 46.5578C37.7767 50.4819 39.4673 54.2506 42.4757 57.1227C45.4841 59.9947 49.5927 61.7622 53.9932 62.0775C58.3937 62.3927 62.7677 61.2329 66.2548 58.8262L74.1748 60.4876L70.4603 54.662Z" fill="white"/>
<path d="M66.3733 58.784H66.2109C63.7778 60.4472 60.8944 61.5108 57.8513 61.8675C56.9409 61.9778 56.0212 62.0167 55.1031 61.9836C54.6319 61.9555 54.1527 61.9449 53.6656 61.9097L52.2044 61.7056C47.8472 60.9343 43.9835 58.7181 41.3975 55.5068C39.9595 53.7342 38.9656 51.7081 38.483 49.5651C37.9874 47.3004 38.059 44.9665 38.6929 42.7292C39.3469 40.3915 40.6175 38.2258 42.3994 36.4108C44.211 34.5529 46.4942 33.1049 49.0601 32.1868C51.5206 31.3238 54.1676 30.9629 56.8059 31.1308C59.3068 31.2765 61.7407 31.9111 63.9339 32.9894C67.875 34.9322 70.8274 38.145 72.1826 41.9654C72.7307 43.5909 72.9978 45.281 72.9746 46.9779C72.9 49.6914 72.0217 52.3395 70.4283 54.655L70.4085 54.6867L70.4283 54.7184L74.2061 60.5123L70.5669 54.6867C72.1829 52.3667 73.0817 49.7089 73.1726 46.9814C73.2049 45.2577 72.9391 43.5399 72.3845 41.888C71.029 38.0133 68.0524 34.7487 64.0685 32.7676C61.8452 31.6719 59.3779 31.0241 56.8415 30.8704C54.1615 30.6924 51.4707 31.0534 48.9691 31.9264C46.3607 32.8584 44.0404 34.3307 42.2014 36.2208C40.3803 38.0657 39.081 40.2705 38.4117 42.6518C37.7693 44.9264 37.699 47.2988 38.2058 49.6003C38.7051 51.7712 39.7204 53.8222 41.1837 55.616C43.8128 58.8684 47.7388 61.1068 52.1608 61.8745L53.6458 62.0716C54.1329 62.1104 54.62 62.1209 55.0991 62.142C56.0255 62.173 56.9532 62.1306 57.8711 62.0153C60.9279 61.6455 63.8201 60.5634 66.2545 58.879L74.1744 60.4736L66.3733 58.784Z" fill="#1E2959"/>
<path d="M54.1212 41.0359L54.6202 48.0759C54.643 48.3492 54.7756 48.6062 54.9936 48.8C55.2116 48.9938 55.5007 49.1116 55.8082 49.1319C56.1363 49.1481 56.459 49.0521 56.7101 48.8636C56.9612 48.6751 57.1216 48.4084 57.1585 48.1181L58.0377 41.0464C58.0534 40.9204 58.0388 40.7929 57.9948 40.6723C57.9509 40.5516 57.8786 40.4407 57.7827 40.3468C57.6868 40.253 57.5696 40.1783 57.4388 40.1278C57.3079 40.0772 57.1665 40.052 57.0239 40.0538L55.0914 40.0784C54.9561 40.0824 54.8231 40.1106 54.7004 40.1613C54.5777 40.212 54.4677 40.2843 54.3771 40.3737C54.2865 40.4631 54.2172 40.5678 54.1732 40.6816C54.1292 40.7954 54.1116 40.9159 54.1212 41.0359Z" fill="#FF9F1C"/>
<path d="M57.9228 53.0953C57.8018 53.4166 57.5765 53.6988 57.2752 53.9062C56.974 54.1137 56.6103 54.2372 56.2301 54.2611C55.85 54.285 55.4704 54.2083 55.1393 54.0406C54.8081 53.8728 54.5403 53.6217 54.3697 53.3188C54.199 53.0159 54.1332 52.6748 54.1804 52.3387C54.2276 52.0025 54.3859 51.6863 54.6351 51.4301C54.8843 51.1738 55.2134 50.9889 55.5808 50.8987C55.9481 50.8086 56.3373 50.8172 56.6992 50.9235C56.9405 50.9939 57.1638 51.1061 57.3562 51.2536C57.5485 51.4011 57.7061 51.581 57.8199 51.7829C57.9336 51.9848 58.0013 52.2047 58.019 52.43C58.0366 52.6552 58.004 52.8814 57.9228 53.0953Z" fill="#FF9F1C"/>
<path d="M122.063 112.696L123.647 116.639C123.647 116.639 130.898 122.556 131.963 130.479C133.028 138.403 133.032 140.131 133.032 140.131L130.787 163.243H82.475C82.475 163.243 80.891 144.559 81.4652 139.276C82.0394 133.992 85.5124 128.012 85.5124 128.012L89.1952 120.088L89.306 116.1L122.063 112.696Z" fill="#1E2959"/>
<path d="M123.552 117.043C123.44 117.071 123.326 117.092 123.211 117.107L122.233 117.262L118.634 117.786C115.588 118.219 111.383 118.793 106.726 119.374C102.069 119.954 97.8396 120.43 94.7706 120.687C93.2381 120.827 91.9986 120.919 91.1353 120.972L90.1453 121.028C90.0307 121.037 89.9154 121.037 89.8008 121.028C89.9126 121.004 90.0266 120.989 90.1413 120.982L91.1274 120.894C91.9867 120.817 93.2262 120.708 94.7547 120.542C97.8198 120.24 102.041 119.754 106.698 119.177C111.355 118.599 115.561 118.043 118.61 117.645L122.221 117.177L123.203 117.058C123.319 117.044 123.435 117.039 123.552 117.043Z" fill="#1E2959"/>
<path d="M96.1211 131.028C96.0771 131.161 96.0174 131.29 95.9429 131.412C95.8201 131.658 95.6221 132.003 95.3687 132.426C94.702 133.524 93.9559 134.582 93.1352 135.594C92.3145 136.608 91.4231 137.576 90.4662 138.491C90.0979 138.843 89.789 139.114 89.5673 139.297C89.4611 139.399 89.3429 139.491 89.2148 139.571C89.298 139.453 89.3978 139.344 89.5118 139.248L90.3553 138.403C91.0642 137.699 92.0106 136.667 92.9689 135.485C93.9272 134.302 94.7034 133.179 95.242 132.352L95.8716 131.37C95.9408 131.248 96.0244 131.134 96.1211 131.028Z" fill="#1E2959"/>
<path d="M153.081 70.8012C153.081 70.8012 154.071 85.6064 154.368 87.2819C154.665 88.9574 153.081 91.0729 153.081 91.0729C153.081 91.0729 149.415 91.4249 146.936 87.3699L145.352 84.2019C146.307 81.4972 146.611 78.6438 146.243 75.8278C145.649 71.0688 145.352 68.8652 145.352 68.8652L153.081 70.8012Z" fill="#FFBE9D"/>
<path d="M148.635 50.1636C149.066 53.7364 149.031 56.827 147.051 57.4606C146.884 57.5134 145.554 57.5592 145.379 57.5768C143.098 57.795 140.869 54.8312 140.398 50.9592C139.926 47.0872 141.392 43.7678 143.673 43.5461C143.886 43.5461 145.102 43.3736 145.312 43.4053C147.336 43.7291 148.207 46.6542 148.635 50.1636Z" fill="#1E2959"/>
<path d="M154.967 62.9553C154.967 62.9553 156.638 63.4516 156.333 64.8842C155.972 66.2344 155.516 67.5629 154.967 68.8618L152.888 70.907L145.364 68.8618C145.004 68.2436 144.827 67.5545 144.849 66.859C144.9 65.7361 144.849 62.9553 144.849 62.9553C145.507 62.2011 145.973 61.3293 146.215 60.3997C146.469 59.2417 146.651 57.8935 146.702 57.4817C146.705 57.4646 146.711 57.4482 146.721 57.4333C146.73 57.4185 146.743 57.4056 146.759 57.3954C146.775 57.3852 146.792 57.3779 146.811 57.3739C146.83 57.37 146.85 57.3696 146.869 57.3725C147.21 57.4367 147.526 57.5808 147.783 57.79C148.041 57.9992 148.231 58.2659 148.334 58.5623C148.73 59.6852 148.639 59.9985 148.639 59.9985L154.967 62.9553Z" fill="#FFBE9D"/>
<path d="M148.971 58.1821L147.894 56.6509L146.762 57.4253L148.861 61.1107L149.431 59.5654L148.971 58.1821Z" fill="#1E2959"/>
<path d="M148.971 58.1818C148.971 58.1818 150.159 56.5978 151.248 57.3511C152.337 58.1044 152.088 58.5549 151.248 59.9418C151.248 59.9418 153.395 59.6778 152.888 61.7018C152.888 61.7018 155.018 61.3287 154.967 62.955C154.967 62.955 156.721 64.2468 155.965 65.2218C155.208 66.1969 152.302 68.066 151.498 67.8407C150.694 67.6154 150.603 66.6439 150.603 66.6439C150.603 66.6439 149.644 66.3447 149.351 65.9399C149.058 65.5351 149.435 64.8839 149.435 64.8839C149.435 64.8839 148.591 64.2362 148.381 64.0567C148.171 63.8772 148.381 62.9374 148.381 62.9374L149.518 61.7758C149.518 61.7758 147.878 62.5607 147.498 62.339C147.118 62.1172 146.706 61.9271 147.035 61.4378C147.52 60.8685 148.05 60.3299 148.619 59.8257L148.971 58.1818Z" fill="#FFBE9D"/>
<path d="M150.785 66.7428C150.931 66.5166 151.098 66.3012 151.284 66.0986C151.679 65.5612 152.171 65.0854 152.741 64.6906C153.327 64.3439 153.885 63.9617 154.412 63.5466C154.609 63.3563 154.794 63.1565 154.966 62.9482C154.897 63.2163 154.741 63.4608 154.519 63.6522C154.015 64.1027 153.46 64.506 152.864 64.8561C152.312 65.2407 151.82 65.6894 151.402 66.1902C151.229 66.4012 151.021 66.5875 150.785 66.7428Z" fill="#EB996E"/>
<path d="M149.431 65.1694C149.913 64.5226 150.452 63.9105 151.042 63.339C151.51 62.8567 151.906 62.3921 152.258 62.0999C152.428 61.9232 152.644 61.7865 152.888 61.7021C152.908 61.7233 152.674 61.8781 152.365 62.1914C152.056 62.5047 151.672 62.9694 151.197 63.4586C150.661 64.0705 150.071 64.6427 149.431 65.1694Z" fill="#EB996E"/>
<path d="M149.518 61.7758C149.791 61.4441 150.098 61.1343 150.432 60.8501C150.717 60.5326 150.981 60.2012 151.224 59.8574C151.167 60.2821 150.944 60.6756 150.595 60.9697C150.303 61.3022 149.936 61.5768 149.518 61.7758Z" fill="#EB996E"/>
<path d="M146.492 63.7119C146.747 63.7437 146.988 63.8321 147.193 63.9689C147.709 64.2735 148.138 64.6794 148.449 65.1551C148.753 65.6253 148.992 66.1264 149.161 66.6476C149.255 66.8558 149.312 67.0754 149.332 67.2988C149.199 67.109 149.097 66.9042 149.027 66.6898C148.818 66.193 148.565 65.7116 148.27 65.2502C147.971 64.7966 147.577 64.3977 147.11 64.0745C146.746 63.8175 146.477 63.7119 146.492 63.7119Z" fill="#EB996E"/>
<path d="M146.867 57.4303C148.813 57.243 150.008 53.9519 149.536 50.0793C149.064 46.2067 147.104 43.2192 145.158 43.4065C143.212 43.5938 142.017 46.8849 142.489 50.7575C142.961 54.63 144.921 57.6175 146.867 57.4303Z" fill="#1E2959"/>
<path d="M146.148 57.348C147.969 56.5384 149.058 53.5569 148.642 50.146C148.227 46.7352 146.464 44.06 144.5 43.5918C142.956 44.3732 142.077 47.3336 142.493 50.748C142.908 54.1624 144.461 56.8516 146.148 57.348Z" fill="#E0E0E0"/>
<path d="M146.231 54.5599C146.055 53.4595 145.947 52.3514 145.906 51.2406C145.799 50.1333 145.758 49.0218 145.783 47.9106C145.964 49.0106 146.074 50.1189 146.112 51.23C146.22 52.3372 146.259 53.4489 146.231 54.5599Z" fill="white"/>
<path d="M145.55 52.3215C145.438 52.02 145.365 51.7083 145.332 51.3922C145.241 50.815 145.146 50.0194 145.09 49.1324C145.035 48.2454 145.035 47.4463 145.055 46.8655C145.044 46.5515 145.074 46.2375 145.142 45.9292C145.192 46.2392 145.212 46.5525 145.201 46.8655C145.201 47.4463 145.241 48.2418 145.296 49.1254C145.352 50.0089 145.423 50.8009 145.478 51.3782C145.531 51.6903 145.555 52.0059 145.55 52.3215Z" fill="white"/>
<path d="M148.971 58.1753C148.977 58.2127 148.977 58.2506 148.971 58.2879L148.916 58.6083L148.682 59.8297C148.452 60.0409 148.195 60.2873 147.914 60.5619C147.603 60.8526 147.323 61.1684 147.078 61.5052C147.022 61.5913 146.998 61.6913 147.011 61.7903C147.04 61.8898 147.107 61.9771 147.201 62.0368C147.305 62.1089 147.413 62.1759 147.526 62.2374C147.633 62.2872 147.757 62.2997 147.874 62.2726C148.443 62.1407 148.99 61.9431 149.502 61.6848L149.898 61.5088L149.613 61.7974L148.48 62.9625L148.5 62.9379C148.413 63.1155 148.368 63.3072 148.368 63.5011C148.368 63.6949 148.413 63.8866 148.5 64.0643C148.789 64.3957 149.15 64.6722 149.561 64.8774L149.648 64.9267L149.589 65.0041C149.347 65.3068 149.193 65.768 149.589 66.0179C149.962 66.2812 150.379 66.4914 150.824 66.6409L150.686 66.7219V66.6937C150.714 66.7184 150.622 66.6339 150.753 66.7676C151.022 66.6303 150.828 66.7113 150.888 66.6902V66.7324V66.8204C150.895 66.8809 150.907 66.9409 150.923 67C150.954 67.1217 151 67.2399 151.062 67.352C151.124 67.4574 151.208 67.5508 151.311 67.6265C151.403 67.7032 151.519 67.7524 151.644 67.7673C151.921 67.7486 152.191 67.6791 152.436 67.5632C152.709 67.4489 152.973 67.3196 153.228 67.176C153.704 66.9088 154.16 66.6149 154.594 66.296C155.026 65.9922 155.423 65.6528 155.782 65.2822C155.951 65.1169 156.048 64.9035 156.056 64.6803C156.046 64.4576 155.98 64.2398 155.862 64.0432C155.617 63.6502 155.294 63.3006 154.907 63.0118L154.875 62.9836V62.9414C154.888 62.7275 154.843 62.514 154.745 62.3183C154.641 62.1343 154.473 61.9849 154.266 61.8924C153.839 61.7343 153.37 61.6903 152.915 61.7657H152.793L152.812 61.6531C152.832 61.5334 152.86 61.4102 152.876 61.3011C152.888 61.184 152.888 61.0662 152.876 60.9491C152.865 60.7232 152.765 60.5078 152.595 60.3401C152.416 60.1986 152.205 60.0937 151.975 60.0328C151.746 59.972 151.505 59.9567 151.268 59.9881H151.125L151.193 59.879C151.414 59.5371 151.613 59.1846 151.791 58.823C151.869 58.6613 151.913 58.4884 151.921 58.3126C151.922 58.1498 151.868 57.9906 151.767 57.855C151.572 57.608 151.32 57.4014 151.026 57.2496C150.898 57.1983 150.759 57.1717 150.618 57.1717C150.478 57.1717 150.339 57.1983 150.211 57.2496C149.845 57.3951 149.52 57.6116 149.26 57.8832C149.165 57.9712 149.102 58.0451 149.054 58.0943C149.007 58.1436 148.987 58.1683 148.983 58.1648C148.998 58.1359 149.016 58.1087 149.038 58.0838C149.096 58.004 149.16 57.9276 149.229 57.855C149.338 57.7374 149.458 57.6269 149.585 57.5241C149.758 57.3769 149.959 57.2578 150.179 57.1721C150.319 57.1163 150.471 57.0874 150.624 57.0874C150.778 57.0874 150.93 57.1163 151.07 57.1721L151.288 57.2918L151.49 57.4361C151.64 57.5362 151.773 57.6547 151.886 57.7881C152.005 57.9399 152.068 58.1205 152.068 58.3056C152.063 58.4965 152.019 58.685 151.937 58.8617C151.763 59.2309 151.565 59.5906 151.343 59.9388L151.268 59.8403C151.522 59.8158 151.779 59.83 152.028 59.8825C152.299 59.9343 152.546 60.0569 152.737 60.2345C152.937 60.4276 153.054 60.6766 153.07 60.9385C153.082 61.0662 153.082 61.1945 153.07 61.3222C153.07 61.4489 153.026 61.5756 153.002 61.7059L152.899 61.6108C153.393 61.5239 153.905 61.5705 154.369 61.7446C154.613 61.8531 154.811 62.0283 154.935 62.2444C155.049 62.4648 155.102 62.7062 155.089 62.9484L155.054 62.878C155.462 63.1804 155.803 63.5481 156.06 63.9622C156.195 64.1777 156.27 64.4193 156.277 64.6662C156.278 64.7977 156.249 64.9279 156.194 65.0499C156.134 65.1672 156.056 65.2772 155.964 65.3772C155.609 65.7634 155.211 66.1172 154.776 66.4332C154.336 66.7596 153.872 67.0595 153.387 67.3308C153.132 67.4764 152.867 67.608 152.595 67.7251C152.316 67.8576 152.007 67.9322 151.692 67.9433C151.519 67.9287 151.353 67.8751 151.211 67.7876C151.068 67.7001 150.953 67.5817 150.876 67.4435C150.806 67.3216 150.753 67.1928 150.717 67.0598C150.7 66.9947 150.687 66.9289 150.678 66.8627V66.7606V66.6972C150.737 66.6726 150.547 66.7571 150.813 66.6198C150.943 66.75 150.852 66.6656 150.88 66.6937V66.8803L150.741 66.831C150.276 66.6724 149.841 66.4516 149.45 66.1763C149.349 66.0976 149.268 66.0004 149.213 65.8912C149.161 65.78 149.143 65.6585 149.161 65.5392C149.196 65.3174 149.293 65.1069 149.442 64.9267L149.47 65.0534C149.033 64.8338 148.652 64.5367 148.349 64.1804C148.221 63.9869 148.161 63.7639 148.175 63.5398C148.18 63.3289 148.221 63.1198 148.298 62.9203L149.442 61.7657L149.541 61.8783C149.014 62.1428 148.447 62.3407 147.858 62.4662C147.704 62.5002 147.541 62.48 147.403 62.4099C147.292 62.3395 147.177 62.2761 147.07 62.1952C146.951 62.1171 146.868 62.0033 146.837 61.8748C146.821 61.7526 146.85 61.6291 146.92 61.5228C147.176 61.1814 147.468 60.862 147.791 60.5689C148.076 60.2944 148.341 60.055 148.583 59.8649C148.702 59.3475 148.793 58.9392 148.86 58.647L148.939 58.3337C148.937 58.2795 148.948 58.2256 148.971 58.1753Z" fill="#EB996E"/>
<path d="M83.2705 123.545L68.3136 107.04C68.3136 107.04 60.3619 112.992 60.152 113.179C59.9421 113.365 72.5904 124.306 80.7163 128.54L83.2705 127.037V123.545Z" fill="#FFBE9D"/>
<path d="M95.8318 118.265C95.8318 118.265 91.1115 117.603 90.6838 117.878C90.2561 118.152 87.0168 120.088 87.0168 120.088C86.5862 120.688 86.1085 121.259 85.5873 121.799C85.5873 121.799 84.5339 122.904 83.7261 123.013C83.2942 123.085 82.8512 123.085 82.4193 123.013L80.3086 128.205C80.3086 128.205 81.9243 129.698 82.9182 129.585C83.9122 129.473 89.1909 126.882 89.1909 126.882L90.4977 126.495C90.4977 126.495 95.5902 126.66 95.8397 125.28V124.893L90.8066 124.506L88.9454 124.784L92.1767 123.703C92.1767 123.703 96.897 123.457 97.3247 123.351C97.7524 123.246 98.2553 122.647 98.0692 122.295L97.0752 122.186C97.0752 122.186 98.1484 121.528 98.1088 120.919L93.6419 120.289C93.6419 120.289 96.3308 119.089 95.8318 118.265Z" fill="#FFBE9D"/>
<path d="M97.59 122.151C97.4563 122.148 97.3235 122.131 97.194 122.102C96.9366 122.06 96.5564 122.003 96.0891 121.943C95.1506 121.82 93.8517 121.672 92.4142 121.532C92.2424 121.509 92.0691 121.496 91.8955 121.493C91.7324 121.495 91.5708 121.52 91.4163 121.567C91.1114 121.676 90.8065 121.803 90.5253 121.919C89.959 122.155 89.4561 122.383 89.0443 122.591C88.7195 122.752 88.4049 122.928 88.1018 123.119C87.9948 123.196 87.8809 123.266 87.7612 123.327C87.8381 123.223 87.9362 123.134 88.0503 123.063C88.3394 122.848 88.6465 122.652 88.969 122.478C89.365 122.257 89.8759 122.014 90.4422 121.774C90.7273 121.651 91.0164 121.528 91.349 121.422C91.5222 121.368 91.7039 121.339 91.8876 121.334C92.0717 121.338 92.2555 121.351 92.438 121.373C93.8794 121.518 95.1783 121.683 96.1129 121.841C96.5802 121.919 96.9564 121.993 97.2138 122.056C97.3436 122.072 97.4703 122.104 97.59 122.151Z" fill="#EB996E"/>
<path d="M93.7724 120.479C93.7724 120.507 93.4081 120.37 92.8101 120.268C92.0343 120.128 91.233 120.148 90.4667 120.324C89.7004 120.5 88.9892 120.829 88.3868 121.285C87.9235 121.637 87.6898 121.905 87.6621 121.884C87.8172 121.614 88.0312 121.375 88.2918 121.18C88.8898 120.679 89.62 120.32 90.415 120.135C91.2101 119.95 92.0446 119.947 92.8418 120.124C93.1761 120.184 93.4928 120.305 93.7724 120.479Z" fill="#EB996E"/>
<path d="M154.404 87.8558C154.932 88.7254 155.242 89.6858 155.315 90.6718C155.315 92.0481 154.408 94.4558 154.408 94.4558L153.279 95.4026C153.279 95.4026 154.02 98.4122 149.716 99.2746C145.411 100.137 121.417 87.8663 121.417 87.8663L120.78 71.5898C120.78 71.5898 124.265 72.8817 126.779 75.1098C129.294 77.338 143.621 86.7258 143.621 86.7258C143.621 86.7258 144.203 83.403 144.845 83.6212C145.486 83.8394 154.404 87.8558 154.404 87.8558Z" fill="#E0E0E0"/>
<path d="M120.78 71.59L107.787 69.126L104.405 66.0354L89.464 65.9087L87.6622 68.8162L76.4673 74.8671C76.4673 74.8671 79.2868 91.4428 80.3164 93.3753C81.346 95.3077 89.4957 116.607 89.4957 116.607L122.071 113.154L122.348 99.7781L123.29 93.3049C123.492 91.9205 123.524 90.5207 123.385 89.1301C122.76 83.0969 120.78 71.59 120.78 71.59Z" fill="#E0E0E0"/>
<path d="M72.5946 111.039L61.9026 117.547L58.1723 112.82L59.1702 112.031C59.1702 112.031 53.6618 107.983 53.9945 105.128C54.3271 102.274 60.1325 94.9204 60.1325 94.9204C60.1325 94.9204 72.5787 76.8136 76.4358 74.8565C76.9743 74.5854 81.659 84.635 81.659 88.5844C81.659 92.5339 80.7838 92.5339 80.7838 92.5339C80.7838 92.5339 77.0179 95.7828 75.2399 98.7396C73.4618 101.696 70.4641 104.896 68.4722 106.089L72.5946 111.039Z" fill="#E0E0E0"/>
<path d="M62.5005 103.78C62.5005 103.78 62.6034 103.759 62.7896 103.752C63.0543 103.749 63.3189 103.761 63.5816 103.791C64.4442 103.889 65.2822 104.115 66.0605 104.46C66.839 104.805 67.5502 105.259 68.1672 105.804C68.434 106.018 68.6635 106.266 68.8484 106.54C68.7969 106.589 67.7712 105.413 65.9694 104.625C65.2085 104.29 64.3978 104.053 63.5618 103.921C62.9084 103.822 62.5005 103.812 62.5005 103.78Z" fill="#1E2959"/>
<path d="M65.7553 100.56C66.0549 100.72 66.3225 100.923 66.5473 101.161C67.1251 101.71 67.5913 102.344 67.9254 103.034C68.2595 103.724 68.4603 104.46 68.5194 105.209C68.5625 105.518 68.5478 105.831 68.4758 106.135C68.4442 106.135 68.4521 105.783 68.3768 105.22C68.2749 104.493 68.0589 103.782 67.7353 103.108C67.4061 102.435 66.9686 101.807 66.4364 101.246C66.0325 100.817 65.7355 100.584 65.7553 100.56Z" fill="#1E2959"/>
<path d="M106.722 90.2671C106.773 90.4245 106.806 90.5861 106.821 90.7493C106.854 90.9371 106.875 91.1263 106.884 91.316C106.907 91.5678 106.915 91.8204 106.908 92.0728C106.911 92.3796 106.895 92.6863 106.861 92.9916C106.841 93.3224 106.77 93.6709 106.706 94.0476C106.391 95.642 105.718 97.1636 104.726 98.5215C104.489 98.8277 104.271 99.1234 104.033 99.3804C103.822 99.625 103.598 99.86 103.36 100.084C103.17 100.273 102.969 100.453 102.758 100.623C102.606 100.758 102.445 100.883 102.275 101C102.14 101.11 101.993 101.208 101.835 101.292C101.808 101.26 102.425 100.834 103.253 99.9999C103.459 99.7887 103.681 99.5599 103.895 99.2959C104.108 99.0319 104.334 98.7468 104.564 98.4405C105.037 97.7687 105.445 97.0622 105.783 96.3285C106.104 95.5848 106.353 94.8182 106.528 94.037C106.595 93.685 106.671 93.333 106.698 93.0057C106.726 92.6783 106.758 92.3791 106.77 92.101C106.801 90.9605 106.678 90.2741 106.722 90.2671Z" fill="#1E2959"/>
<path d="M105.918 83.952C105.827 83.9033 105.742 83.8467 105.664 83.783C105.498 83.6704 105.268 83.4909 104.956 83.2797C104.338 82.8432 103.419 82.2237 102.251 81.5197C101.083 80.8157 99.673 79.9779 98.1088 79.0557C96.3847 78.0533 94.7316 76.9577 93.1588 75.775H93.3132C93.1469 75.9862 92.9766 76.2185 92.8182 76.4579C92.1595 77.4506 91.6974 78.5364 91.452 79.6681L91.3926 79.9462L91.2659 79.6893C90.0319 77.2139 89.0525 74.6444 88.3395 72.0121C88.0742 71.0301 87.892 70.2521 87.789 69.6925C87.7296 69.4214 87.698 69.2102 87.6742 69.0659C87.6588 68.9939 87.6495 68.9209 87.6465 68.8477C87.6772 68.9155 87.6985 68.9864 87.7098 69.0589C87.7455 69.2173 87.793 69.4109 87.8564 69.6819C87.9831 70.224 88.1811 71.0089 88.4622 71.984C89.2144 74.5978 90.2133 77.1507 91.4481 79.6153H91.258C91.5039 78.4628 91.9714 77.3566 92.64 76.3453C92.8024 76.1024 92.9766 75.8665 93.143 75.6413L93.2103 75.5568L93.2974 75.6272C94.8613 76.8055 96.5008 77.9021 98.2078 78.9113C99.7641 79.8547 101.174 80.6925 102.33 81.4246C103.486 82.1568 104.397 82.7728 104.999 83.2269C105.308 83.4451 105.53 83.6352 105.684 83.7584C105.767 83.8179 105.845 83.8826 105.918 83.952Z" fill="#1E2959"/>
<path d="M107.771 69.1362C107.814 69.1797 107.85 69.2283 107.878 69.2806C107.945 69.3791 108.044 69.5234 108.159 69.717C108.401 70.0972 108.733 70.6604 109.122 71.3785C110.175 73.2867 110.984 75.2939 111.533 77.3625L111.597 77.6054L111.375 77.4505C110.696 76.984 110.065 76.4645 109.49 75.8981C109.132 75.5464 108.796 75.1774 108.484 74.7929L108.67 74.7436C108.539 76.7781 108.425 78.6156 108.326 80.1609C107.609 81.3013 107.019 82.2412 106.595 82.9206L106.108 83.6703C106.058 83.7615 105.997 83.8476 105.926 83.9273C105.962 83.8313 106.009 83.7392 106.068 83.6527C106.179 83.4556 106.33 83.1986 106.516 82.8783C106.912 82.1954 107.49 81.245 108.183 80.094V80.1221C108.27 78.598 108.373 76.7394 108.484 74.7049V74.4479L108.654 74.6591C109.459 75.6485 110.418 76.5314 111.501 77.2815L111.339 77.3695C110.798 75.3082 110.016 73.3027 109.007 71.3855C108.634 70.6815 108.322 70.0937 108.1 69.703C108.001 69.5199 107.918 69.3721 107.85 69.2524C107.82 69.2157 107.794 69.1768 107.771 69.1362Z" fill="#1E2959"/>
<path d="M123.552 89.8268C123.492 89.8268 123.156 87.0389 122.78 83.5928C122.403 80.1467 122.162 77.3448 122.217 77.3413C122.273 77.3378 122.613 80.1256 122.986 83.5752C123.358 87.0248 123.603 89.8197 123.552 89.8268Z" fill="#1E2959"/>
<path d="M146.651 91.5341C146.389 91.369 146.155 91.171 145.958 90.9462C145.447 90.4296 145.002 89.8641 144.631 89.2602C144.262 88.6555 143.967 88.017 143.752 87.3558C143.647 87.0855 143.586 86.8035 143.57 86.5181C143.915 87.4272 144.33 88.3141 144.813 89.1722C145.362 89.997 145.976 90.7863 146.651 91.5341Z" fill="#1E2959"/>
<path d="M144.706 91.953C144.706 91.953 144.627 91.8897 144.512 91.7524C144.351 91.5592 144.208 91.3543 144.085 91.1399C143.257 89.7133 143.064 88.0617 143.546 86.5146C143.617 86.2832 143.708 86.0572 143.819 85.8388C143.854 85.7548 143.903 85.6764 143.966 85.6064C143.998 85.6064 143.839 85.9584 143.689 86.5463C143.494 87.303 143.439 88.083 143.526 88.8554C143.62 89.6262 143.853 90.3785 144.215 91.0836C144.496 91.6256 144.734 91.9319 144.706 91.953Z" fill="#1E2959"/>
<path d="M75.9688 85.0327C76.0532 85.1432 76.1248 85.2609 76.1826 85.3842L76.7053 86.3683L78.4477 89.6089C79.1288 90.8777 79.7268 92.0305 80.1347 92.8776C80.3406 93.3028 80.499 93.6473 80.598 93.8863C80.6612 94.0089 80.709 94.1374 80.7406 94.2694C80.6525 94.1609 80.5806 94.0428 80.5267 93.9179L80 92.9338C79.5367 92.0657 78.9308 90.9374 78.2616 89.6932C77.5924 88.449 76.9786 87.2716 76.5746 86.4245C76.3687 85.9993 76.2103 85.6548 76.1074 85.4158C76.0446 85.2933 75.9981 85.1648 75.9688 85.0327Z" fill="#1E2959"/>
<path d="M114.337 104.357C114.318 104.504 114.28 104.648 114.222 104.787C114.135 105.058 113.996 105.449 113.826 105.931C113.462 106.888 112.915 108.201 112.242 109.616C111.569 111.031 110.852 112.288 110.313 113.179C110.044 113.626 109.818 113.981 109.652 114.235C109.576 114.36 109.486 114.478 109.383 114.587C109.433 114.447 109.501 114.312 109.585 114.185C109.743 113.897 109.945 113.538 110.183 113.112C110.686 112.211 111.371 110.95 112.052 109.539C112.733 108.127 113.303 106.825 113.699 105.878C113.885 105.431 114.04 105.058 114.166 104.759C114.209 104.62 114.266 104.486 114.337 104.357Z" fill="#1E2959"/>
<path d="M114.107 110.257C114.04 110.488 113.933 110.709 113.791 110.912C113.493 111.416 113.158 111.903 112.789 112.369C112.419 112.836 112.015 113.282 111.581 113.703C111.416 113.889 111.22 114.052 110.999 114.185C110.955 114.15 111.763 113.347 112.618 112.263C113.474 111.179 114.048 110.232 114.107 110.257Z" fill="#1E2959"/>
<path d="M111.791 110.243C111.767 110.154 111.753 110.063 111.747 109.972C111.723 109.779 111.695 109.518 111.66 109.191C111.589 108.512 111.478 107.53 111.335 106.32C111.038 103.896 110.575 100.55 109.779 96.9021C109.112 93.7802 108.255 90.6926 107.213 87.6529C107.019 87.0689 106.817 86.5447 106.658 86.0838C106.5 85.6229 106.346 85.2254 106.219 84.9052C106.092 84.5851 106.009 84.3458 105.938 84.1594C105.898 84.0746 105.871 83.986 105.854 83.8955C105.901 83.9776 105.942 84.0622 105.977 84.1488C106.056 84.3318 106.159 84.5745 106.294 84.8806C106.429 85.1867 106.591 85.5842 106.765 86.0521C106.94 86.52 107.161 87.0302 107.351 87.6142C108.438 90.6446 109.316 93.7311 109.981 96.8564C110.773 100.515 111.22 103.868 111.482 106.296C111.604 107.509 111.695 108.494 111.739 109.177L111.787 109.958C111.8 110.052 111.802 110.148 111.791 110.243Z" fill="#1E2959"/>
<path d="M112.464 112.584C112.639 112.045 112.723 111.486 112.713 110.926C112.638 110.368 112.466 109.824 112.203 109.313C112.222 109.313 112.377 109.444 112.547 109.722C112.76 110.092 112.886 110.497 112.919 110.912C112.954 111.327 112.892 111.744 112.737 112.137C112.614 112.436 112.484 112.594 112.464 112.584Z" fill="#1E2959"/>
<path d="M111.85 114.27C111.791 114.27 111.759 114.041 111.779 113.766C111.799 113.492 111.858 113.267 111.913 113.27C111.969 113.274 112.005 113.499 111.985 113.777C111.965 114.055 111.906 114.273 111.85 114.27Z" fill="#1E2959"/>
<path d="M69.2249 107.462C69.0717 107.522 68.9126 107.569 68.7497 107.603C68.4408 107.684 68.0012 107.807 67.4587 107.976C66.9162 108.145 66.2707 108.371 65.5936 108.638C64.9164 108.906 64.16 109.244 63.3958 109.62C62.0963 110.272 60.8487 111.003 59.6615 111.806C59.2061 112.116 58.8418 112.369 58.5923 112.549C58.4718 112.65 58.339 112.738 58.1963 112.813C58.2997 112.695 58.4179 112.589 58.5487 112.496C58.7824 112.299 59.1348 112.028 59.5783 111.704C60.748 110.866 61.9945 110.116 63.3047 109.462C64.0729 109.082 64.8253 108.758 65.5262 108.483C66.1463 108.245 66.7793 108.035 67.4231 107.853C67.8548 107.727 68.2936 107.621 68.7378 107.536C68.8964 107.495 69.0599 107.47 69.2249 107.462Z" fill="#1E2959"/>
<path d="M68.8085 107.473C68.8085 107.504 68.266 107.473 67.3988 107.557C66.2733 107.647 65.1636 107.854 64.0922 108.173C63.0227 108.5 61.9899 108.914 61.0073 109.412C60.251 109.796 59.8193 110.063 59.7837 110.039C59.8678 109.954 59.9651 109.88 60.0728 109.82C60.3492 109.635 60.636 109.462 60.9321 109.303C61.9037 108.763 62.943 108.326 64.0288 108.001C65.1151 107.675 66.2461 107.482 67.3908 107.427C67.7364 107.409 68.0828 107.409 68.4284 107.427C68.557 107.425 68.6852 107.44 68.8085 107.473Z" fill="#1E2959"/>
<g opacity="0.3">
<path opacity="0.3" d="M76.7128 86.3066C76.4886 87.7133 76.7185 89.1475 77.376 90.4428C78.0335 91.7382 79.0915 92.8416 80.4273 93.6249C79.4928 91.5169 77.8771 88.4744 76.7128 86.3066Z" fill="#0A1D47"/>
</g>
<g opacity="0.3">
<path opacity="0.3" d="M91.8481 78.0773C92.3497 78.9838 93.0389 79.7982 93.8796 80.4779L93.84 78.5525L103.74 82.4703L93.1114 75.6802C92.5293 76.5496 92.4303 77.2008 91.8481 78.0703" fill="#0A1D47"/>
</g>
<g opacity="0.3">
<path opacity="0.3" d="M110.163 76.5778C109.739 75.9864 108.579 74.7368 108.579 74.7368C108.539 75.6591 108.448 76.9227 108.413 77.8485L108.262 80.0626C108.417 79.2917 108.531 77.8027 108.686 77.0283L110.531 78.5842C110.646 78.2469 110.672 77.8908 110.608 77.5431C110.544 77.1955 110.392 76.8653 110.163 76.5778Z" fill="#0A1D47"/>
</g>
<g opacity="0.3">
<path opacity="0.3" d="M122.269 78.8481L123.552 88.9998C124.082 85.6945 125.096 83.8993 122.269 78.8481Z" fill="#0A1D47"/>
</g>
<g opacity="0.3">
<path opacity="0.3" d="M150.48 93.4909C150.005 93.1389 148.952 92.9206 148.409 92.6601C145.95 91.4704 144.647 89.295 143.689 86.9577L143.602 86.6973C143.701 89.8301 145.938 93.1811 149.146 94.4694C149.469 94.6239 149.836 94.6923 150.203 94.6665C150.384 94.6476 150.551 94.57 150.673 94.4486C150.794 94.3273 150.861 94.1706 150.86 94.0083C150.811 93.7995 150.675 93.6147 150.48 93.4909Z" fill="#0A1D47"/>
</g>
<g opacity="0.3">
<path opacity="0.3" d="M99.4712 102.196C103.542 100.996 105.506 97.5883 106.552 94.6104C106.61 95.9022 106.435 97.1941 106.033 98.4366C105.62 99.6861 104.77 100.786 103.605 101.576C103.02 101.962 102.34 102.219 101.622 102.326C100.903 102.434 100.166 102.389 99.4712 102.196Z" fill="#0A1D47"/>
</g>
<g opacity="0.3">
<path opacity="0.3" d="M68.4328 107.719C65.4498 107.55 62.5055 108.392 60.192 110.074C60.0257 110.197 59.8435 110.373 59.9148 110.556C59.9513 110.62 60.0087 110.672 60.0795 110.706C60.1502 110.74 60.2309 110.754 60.3108 110.746C60.4729 110.72 60.6268 110.664 60.7622 110.581C63.1788 109.337 65.7522 108.352 68.4288 107.645" fill="#0A1D47"/>
</g>
<g opacity="0.3">
<path opacity="0.3" d="M117.283 100.626C117.133 100.5 116.934 100.428 116.727 100.424C116.519 100.421 116.318 100.487 116.163 100.609C115.86 100.864 115.636 101.184 115.513 101.538L110.678 112.207L109.938 113.788L115.006 106.234C116.016 104.727 117.046 103.178 117.382 101.45C117.432 101.314 117.449 101.171 117.432 101.029C117.415 100.887 117.364 100.75 117.283 100.626Z" fill="#0A1D47"/>
</g>
<path d="M84.0231 40.6772C87.0208 36.9565 91.9906 34.7812 97.0554 33.954C99.1859 33.602 100.584 33.8589 102.706 34.2426C104.829 34.5696 106.753 35.5504 108.143 37.0129C109.755 38.794 111.149 40.8145 111.593 43.0673C112.048 45.3834 112.503 47.7137 112.476 50.0615C112.448 52.4093 111.898 54.8065 110.496 56.7917L103.875 58.1997C100.188 58.5201 96.4456 58.8404 92.7865 58.2983C89.1275 57.7562 85.5081 56.2285 83.3776 53.5322C80.4155 49.794 81.0214 44.3978 84.0231 40.6772Z" fill="#1E2959"/>
<path d="M108.702 60.2591C108.702 60.2591 108.82 60.3999 109.125 60.5477C109.558 60.7582 110.039 60.8785 110.531 60.8997C111.274 60.931 112.009 60.755 112.634 60.3964C113.393 59.9307 113.919 59.2216 114.102 58.4182C114.286 57.6147 114.111 56.7794 113.616 56.0879C113.198 55.5437 112.6 55.128 111.905 54.8981C111.445 54.7417 110.951 54.6803 110.46 54.7186C110.115 54.7503 109.937 54.8207 109.945 54.8383C109.953 54.8559 110.717 54.7151 111.798 55.1304C112.415 55.3714 112.939 55.7664 113.307 56.2674C113.73 56.8943 113.874 57.6392 113.711 58.3557C113.547 59.0722 113.088 59.7084 112.424 60.1394C111.865 60.4739 111.209 60.6562 110.535 60.6639C109.363 60.6392 108.733 60.1922 108.702 60.2591Z" fill="#E0E0E0"/>
<path d="M78.8474 57.6118C78.8648 56.9335 79.0562 56.2677 79.4068 55.665C79.7575 55.0623 80.2582 54.5387 80.8709 54.1341C82.1302 53.3737 83.9637 53.3385 85.12 54.2185L86.2525 55.2745C87.095 55.5614 87.8153 56.0754 88.3125 56.7445C88.8096 57.4137 89.0586 58.2044 89.0245 59.0057C88.9574 59.8044 88.6362 60.5696 88.0984 61.2121C87.5607 61.8547 86.8285 62.3481 85.9872 62.6349C85.1378 62.9005 84.2258 62.9675 83.3388 62.8294C82.4518 62.6913 81.6197 62.3528 80.9224 61.8464C80.2345 61.3292 79.6895 60.6783 79.3297 59.944C78.9699 59.2098 78.8049 58.4118 78.8474 57.6118Z" fill="#1E2959"/>
<path d="M80.4631 61.5474C80.1829 61.2104 80.0266 60.8047 80.0156 60.3858C80.0156 59.6184 80.57 58.5871 81.358 57.6226C82.0503 56.7976 82.9131 56.0976 83.9003 55.5599C84.6607 55.141 85.1873 54.972 85.1675 54.9263C84.6772 54.9933 84.2071 55.1478 83.7855 55.3804C82.1354 56.1681 80.8395 57.4356 80.1146 58.9708C79.8872 59.4121 79.7748 59.8934 79.7859 60.3787C79.8019 60.7136 79.9286 61.0369 80.1502 61.308C80.3165 61.5016 80.4512 61.5615 80.4631 61.5474Z" fill="#1E2959"/>
<path d="M83.825 63.1205C83.9359 63.1205 83.3498 61.3359 83.825 59.1746C84.3002 57.0133 85.5714 55.556 85.4764 55.5103C85.1402 55.7732 84.8622 56.0895 84.6566 56.4431C83.537 58.1061 83.1082 60.0652 83.4449 61.98C83.4917 62.3777 83.6206 62.7643 83.825 63.1205Z" fill="#1E2959"/>
<path d="M104.564 67.8586C104.37 65.7747 104.191 64.0675 104.191 64.0781C104.191 64.0886 109.609 63.2333 110.67 56.9289C111.201 53.7962 110.971 48.664 110.63 44.4717C110.325 40.6982 106.338 35.7597 101.091 36.0237L98.7425 35.9146L90.0305 39.5754C89.4108 39.6386 88.8403 39.9062 88.4319 40.3253C88.0235 40.7444 87.8068 41.2845 87.8248 41.8387L89.7295 68.8019L105.902 83.9379L106.829 79.6682L104.564 67.8586Z" fill="#FFBE9D"/>
<path d="M100.073 56.0703C100.106 55.7484 100.269 55.4482 100.532 55.2255C100.771 55.0169 101.081 54.8843 101.413 54.848C101.745 54.8117 102.082 54.8739 102.37 55.0248C102.672 55.2054 102.914 55.4542 103.071 55.7457C103.228 56.0371 103.295 56.3606 103.265 56.6828C103.126 56.8831 102.94 57.0547 102.72 57.1858C102.5 57.317 102.251 57.4047 101.99 57.4431C101.905 57.4431 101.822 57.4501 101.74 57.4642C101.324 57.486 100.914 57.3679 100.592 57.1333C100.421 57.0025 100.285 56.8389 100.195 56.6548C100.105 56.4707 100.064 56.2708 100.073 56.0703Z" fill="#EB996E"/>
<path d="M108.761 48.7488C108.766 48.9594 108.677 49.1632 108.515 49.317C108.354 49.4708 108.131 49.5624 107.894 49.5725C107.778 49.5816 107.662 49.57 107.552 49.5385C107.441 49.5069 107.339 49.456 107.251 49.3887C107.163 49.3214 107.091 49.2392 107.04 49.1468C106.988 49.0544 106.958 48.9538 106.951 48.8509C106.946 48.641 107.033 48.4375 107.195 48.2842C107.356 48.1309 107.579 48.0399 107.815 48.0307C107.93 48.0211 108.047 48.0322 108.157 48.0633C108.268 48.0944 108.37 48.1449 108.459 48.2119C108.547 48.2788 108.619 48.3609 108.671 48.4531C108.723 48.5453 108.754 48.6459 108.761 48.7488Z" fill="#1E2959"/>
<path d="M109.062 46.8971C108.951 47.0027 108.27 46.5451 107.28 46.5662C106.29 46.5873 105.589 47.0168 105.482 46.9182C105.431 46.8725 105.545 46.6824 105.854 46.4782C106.275 46.2135 106.777 46.0708 107.292 46.0699C107.799 46.0659 108.295 46.2039 108.709 46.4641C109.01 46.6613 109.117 46.8513 109.062 46.8971Z" fill="#1E2959"/>
<path d="M103.411 53.8029C103.411 53.7537 104.013 53.6551 104.995 53.5354C105.245 53.5108 105.482 53.465 105.522 53.3137C105.543 53.0845 105.482 52.8553 105.348 52.6589L104.595 50.9728C103.546 48.5757 102.782 46.6045 102.893 46.5693C103.003 46.5341 103.942 48.4455 104.987 50.8426L105.712 52.5357C105.874 52.8013 105.924 53.11 105.851 53.4052C105.817 53.4829 105.764 53.5527 105.695 53.6094C105.626 53.6661 105.544 53.7082 105.455 53.7325C105.318 53.768 105.177 53.7869 105.035 53.7889C104.029 53.8557 103.415 53.8557 103.411 53.8029Z" fill="#1E2959"/>
<path d="M104.192 64.0639C100.859 64.1342 97.569 63.3825 94.6875 61.8921C94.6875 61.8921 97.2575 66.2322 104.342 65.5881L104.192 64.0639Z" fill="#EB996E"/>
<path d="M100.54 54.4263C100.703 54.4263 100.715 55.3591 101.629 56.0244C102.544 56.6897 103.669 56.5735 103.681 56.7038C103.681 56.7636 103.431 56.8903 102.952 56.9044C102.331 56.9174 101.726 56.7354 101.241 56.3905C100.775 56.0574 100.473 55.5766 100.398 55.0494C100.354 54.6586 100.469 54.4228 100.54 54.4263Z" fill="#1E2959"/>
<path d="M108.603 43.3135C108.433 43.5107 107.755 43.3135 106.948 43.3135C106.14 43.3135 105.451 43.4579 105.292 43.2502C105.221 43.1516 105.328 42.9545 105.625 42.7644C106.025 42.5368 106.493 42.4203 106.968 42.4297C107.444 42.4391 107.905 42.574 108.294 42.8172C108.579 43.0143 108.678 43.215 108.603 43.3135Z" fill="#1E2959"/>
<path d="M97.7681 48.9279C97.7773 49.138 97.8786 49.3365 98.0502 49.4812C98.2219 49.6259 98.4503 49.7052 98.6868 49.7023C98.8025 49.7056 98.9178 49.6883 99.026 49.6516C99.1341 49.6148 99.2329 49.5592 99.3166 49.4881C99.4003 49.417 99.4672 49.3317 99.5134 49.2374C99.5596 49.143 99.5842 49.0414 99.5857 48.9385C99.5764 48.7281 99.4753 48.5291 99.3038 48.3839C99.1323 48.2387 98.9039 48.1586 98.667 48.1605C98.5509 48.1573 98.4353 48.1746 98.3269 48.2116C98.2185 48.2486 98.1195 48.3045 98.0358 48.376C97.952 48.4475 97.8852 48.5332 97.8392 48.6279C97.7933 48.7227 97.7691 48.8247 97.7681 48.9279Z" fill="#1E2959"/>
<path d="M96.2556 47.5445C96.3744 47.6466 97.0476 47.1644 98.0139 47.1256C98.9801 47.0869 99.7285 47.4952 99.8275 47.3826C99.879 47.3333 99.7523 47.1503 99.4315 46.9602C98.9956 46.716 98.4847 46.5991 97.9703 46.6258C97.4635 46.6437 96.9764 46.8053 96.5803 47.0869C96.2913 47.3052 96.1962 47.4988 96.2556 47.5445Z" fill="#1E2959"/>
<path d="M96.2674 46.3304C96.4495 46.5204 97.1108 46.2881 97.9187 46.2459C98.7265 46.2036 99.4195 46.3163 99.5661 46.1051C99.6334 46.003 99.5146 45.8094 99.2057 45.6334C98.7916 45.4263 98.3176 45.3331 97.8439 45.3657C97.3701 45.3983 96.9179 45.5552 96.5446 45.8164C96.2713 46.0312 96.1882 46.2388 96.2674 46.3304Z" fill="#1E2959"/>
<path d="M90.3672 52.4235C90.3672 51.9553 89.7415 50.8535 89.2228 50.7867C87.8289 50.6036 85.3222 50.7233 85.3301 53.8632C85.3301 58.1576 90.189 57.26 90.1969 57.1368C90.2049 57.0136 90.391 54.0427 90.3672 52.4235Z" fill="#FFBE9D"/>
<path d="M88.3082 55.4755C88.3082 55.4755 88.225 55.5283 88.0825 55.5881C87.8805 55.6607 87.6548 55.6607 87.4528 55.5881C86.942 55.4227 86.5104 54.7046 86.4866 53.9302C86.4771 53.5673 86.5569 53.2069 86.7202 52.8742C86.7645 52.7401 86.845 52.6177 86.9548 52.5177C87.0645 52.4177 87.2002 52.3431 87.3499 52.3004C87.4468 52.277 87.5499 52.2846 87.6411 52.3219C87.7323 52.3592 87.8059 52.4239 87.8488 52.5046C87.9122 52.6243 87.8805 52.7087 87.9082 52.7158C87.936 52.7228 88.0112 52.6454 87.9716 52.4659C87.9454 52.3597 87.8781 52.265 87.7815 52.1983C87.7155 52.1537 87.6403 52.1211 87.5601 52.1024C87.4799 52.0836 87.3964 52.0792 87.3142 52.0892C87.1164 52.1254 86.9323 52.2058 86.7791 52.3228C86.626 52.4398 86.509 52.5896 86.4391 52.758C86.2338 53.1299 86.1346 53.5409 86.15 53.9548C86.1817 54.8207 86.6846 55.6268 87.3816 55.8063C87.5112 55.8397 87.6476 55.8466 87.7806 55.8265C87.9137 55.8064 88.0399 55.7598 88.1498 55.6902C88.3082 55.5811 88.3082 55.4825 88.3082 55.4755Z" fill="#EB996E"/>
<path d="M88.4663 50.7129L89.7691 51.7689C94.7231 46.9781 104.231 35.1509 103.7 35.8549C101.238 35.192 98.6282 35.0879 96.1091 35.5522C92.2283 36.3689 84.9142 38.5372 85.322 42.6415C85.7299 46.7458 88.4663 50.7129 88.4663 50.7129Z" fill="#1E2959"/>
<path d="M89.3453 61.357C89.3453 61.357 89.2463 61.5084 88.9493 61.6914C88.5459 61.9426 88.0846 62.111 87.599 62.1842C86.8675 62.2979 86.1144 62.2056 85.4448 61.9202C85.036 61.7378 84.672 61.4852 84.3736 61.1771C84.0753 60.869 83.8485 60.5114 83.7063 60.125C83.4016 59.3506 83.4528 58.5006 83.8489 57.7596C84.1865 57.1716 84.7204 56.6909 85.3774 56.3833C85.8123 56.1747 86.2938 56.0545 86.7872 56.0312C87.1317 56.0313 87.3178 56.0735 87.3139 56.0946C87.3099 56.1157 86.5219 56.0594 85.516 56.5909C84.9389 56.9013 84.4754 57.3537 84.1815 57.8933C83.8576 58.5607 83.824 59.3113 84.0875 59.9995C84.3509 60.6876 84.8924 61.2642 85.6071 61.6175C86.2104 61.8864 86.889 61.9928 87.5594 61.9237C88.7434 61.8076 89.3057 61.2937 89.3453 61.357Z" fill="#E0E0E0"/>
<path d="M85.1913 54.4723C85.2069 54.1401 85.199 53.8074 85.1675 53.4761C85.148 52.5748 85.2183 51.6737 85.3774 50.7833C85.9507 47.8463 87.3193 45.0774 89.3651 42.7155C91.4386 40.3735 93.904 38.3281 96.6753 36.6505C97.7286 35.9923 98.6038 35.4889 99.2136 35.1439C99.5388 34.9804 99.8498 34.7957 100.144 34.5913C100.05 34.6143 99.9608 34.6499 99.8789 34.6969C99.7086 34.7743 99.4592 34.887 99.1463 35.0489C98.5167 35.3622 97.6177 35.8409 96.5406 36.478C93.7044 38.1236 91.1908 40.1712 89.0998 42.5395C87.0152 44.9341 85.6522 47.7618 85.1398 50.7551C84.9993 51.6577 84.9635 52.5706 85.0329 53.4796C85.0329 53.8035 85.1041 54.0499 85.1239 54.2188C85.1345 54.3055 85.1571 54.3906 85.1913 54.4723Z" fill="#1E2959"/>
<path d="M97.099 34.4961C97.0033 34.5178 96.9114 34.5509 96.8257 34.5947C96.6475 34.6651 96.3941 34.7812 96.0694 34.9467C95.4199 35.2494 94.4854 35.714 93.3845 36.3547C92.09 37.0969 90.8432 37.9031 89.6502 38.7694C88.1572 39.8067 86.8091 40.9991 85.6348 42.3211C85.0383 43.0237 84.5508 43.7944 84.1854 44.6126C83.8589 45.3784 83.6511 46.18 83.5676 46.9956C83.4435 48.3708 83.5462 49.7547 83.8726 51.1035C84.1339 52.251 84.4349 53.1591 84.6646 53.7822C84.7754 54.0955 84.8626 54.3348 84.9299 54.4862C84.9554 54.5709 84.9926 54.6525 85.0408 54.7291C84.9849 54.3944 84.9015 54.0638 84.7913 53.7399C84.6131 53.1099 84.3478 52.1947 84.1181 51.0542C83.8313 49.7232 83.7527 48.3633 83.8844 47.0132C83.9755 46.2227 84.1832 45.4464 84.5022 44.7041C84.8601 43.9122 85.3356 43.1664 85.9159 42.4865C87.0784 41.1811 88.4073 39.9998 89.8759 38.9665C91.0509 38.0909 92.2747 37.2685 93.5429 36.5025C94.6279 35.8513 95.5229 35.362 96.1604 35.0276C96.4858 34.8685 96.7993 34.691 97.099 34.4961Z" fill="#1E2959"/>
<path d="M88.3789 50.8252C88.5985 50.6523 88.7963 50.4587 88.9689 50.2479L90.4817 48.6111C91.7449 47.2207 93.4754 45.2882 95.3683 43.141C97.2612 40.9938 98.964 39.0437 100.184 37.6181L101.613 35.925C101.8 35.7242 101.963 35.5072 102.1 35.2773C101.884 35.4518 101.686 35.6438 101.51 35.8511L100.002 37.4879C98.7343 38.8959 97.0038 40.8143 95.1109 42.9615C93.218 45.1087 91.5152 47.0623 90.2876 48.4844L88.8581 50.181C88.678 50.3832 88.5176 50.5987 88.3789 50.8252Z" fill="#E0E0E0"/>
<path d="M100.885 54.1517C100.586 54.1385 100.287 54.1467 99.99 54.1764C99.7048 54.2589 99.428 54.3625 99.1623 54.4861C99.1108 54.4615 99.388 54.1025 99.9543 53.9969C100.112 53.9509 100.279 53.941 100.442 53.968C100.605 53.9951 100.757 54.0583 100.885 54.1517Z" fill="#EB996E"/>
<path d="M95.8594 48.7554C95.5728 48.8656 95.2565 48.8998 94.9486 48.854C94.6383 48.8647 94.3309 48.7976 94.0615 48.6604C94.3592 48.6178 94.6627 48.6178 94.9604 48.6604C95.2637 48.6528 95.5666 48.6849 95.8594 48.7554Z" fill="#EB996E"/>
<path d="M95.6377 49.0513C95.6377 49.1041 95.3645 49.178 95.0279 49.2731C94.6913 49.3681 94.4141 49.4491 94.3864 49.3998C94.3587 49.3505 94.6081 49.1956 94.9685 49.0971C95.3289 48.9985 95.6338 49.002 95.6377 49.0513Z" fill="#EB996E"/>
<path d="M110.42 48.2664C110.44 48.3157 110.211 48.4354 109.906 48.534C109.601 48.6325 109.339 48.6747 109.32 48.6255C109.3 48.5762 109.529 48.46 109.834 48.3615C110.139 48.2629 110.401 48.2242 110.42 48.2664Z" fill="#EB996E"/>
<path d="M110.349 49.1112C110.329 49.1605 110.076 49.1112 109.783 49.0373C109.49 48.9633 109.264 48.8331 109.284 48.7874C109.304 48.7416 109.557 48.7873 109.85 48.8613C110.143 48.9352 110.365 49.0654 110.349 49.1112Z" fill="#EB996E"/>
<path d="M190.508 163.237C190.508 163.286 150.08 163.328 100.22 163.328C50.3593 163.328 9.93164 163.286 9.93164 163.237C9.93164 163.187 50.3474 163.145 100.22 163.145C150.092 163.145 190.508 163.184 190.508 163.237Z" fill="#1E2959"/>
</svg>
