<svg width="198" height="198" viewBox="0 0 198 198" fill="none" xmlns="http://www.w3.org/2000/svg">
<path d="M32.4326 45.9121C32.4491 45.9461 32.4611 45.982 32.4683 46.019L32.5554 46.3358C32.5993 46.5105 32.6535 46.6824 32.7177 46.8506C32.789 47.0486 32.8643 47.2823 32.9791 47.5317L33.1533 47.9277L33.3791 48.3554C33.4565 48.5126 33.5438 48.6647 33.6404 48.8108C33.7394 48.9613 33.8265 49.1276 33.9453 49.286C35.0577 50.9129 36.6155 52.1846 38.432 52.949C38.9831 53.1797 39.5545 53.3587 40.1388 53.4836C40.7602 53.6069 41.3883 53.6942 42.0198 53.745C43.3147 53.8717 44.7165 53.943 46.059 54.4815C47.4149 55.0827 48.6171 55.983 49.5754 57.1149C50.5897 58.1905 51.4097 59.4339 51.999 60.7898C52.2653 61.4444 52.4283 62.1364 52.4821 62.8411C52.5282 63.5143 52.4856 64.1907 52.3554 64.8528C52.0906 66.0664 51.7332 67.2579 51.2862 68.4168C50.905 69.4222 50.6212 70.4618 50.4387 71.5214C50.2907 72.3954 50.3244 73.2905 50.5377 74.1509C50.699 74.7999 50.9914 75.4091 51.397 75.9408C51.6532 76.2782 51.9669 76.5677 52.3237 76.7961C52.5652 76.9506 52.7197 77.01 52.7197 77.0179C52.5822 76.9635 52.4497 76.8972 52.3237 76.8199C51.9586 76.5968 51.6366 76.3097 51.3733 75.9725C50.9536 75.4407 50.6501 74.8269 50.4823 74.1707C50.2583 73.3002 50.2165 72.3929 50.3595 71.5056C50.5403 70.44 50.8214 69.3939 51.199 68.3811C51.6387 67.2211 51.9908 66.0298 52.2524 64.8171C52.3755 64.1648 52.4154 63.4995 52.3712 62.8371C52.3182 62.1468 52.1565 61.4693 51.892 60.8294C51.3069 59.4876 50.4952 58.2565 49.4923 57.1902C48.5466 56.0738 47.3607 55.1857 46.0233 54.5924C44.7126 54.0578 43.3226 53.9865 42.0237 53.8559C41.3884 53.8 40.7565 53.7101 40.1309 53.5866C39.5351 53.4669 38.9517 53.2919 38.3885 53.0639C36.5565 52.2871 34.9916 50.9919 33.8859 49.3375C33.7671 49.1791 33.6761 49.0128 33.581 48.8583C33.487 48.7086 33.4011 48.5539 33.3236 48.395L33.1019 47.9673L32.9316 47.5713C32.8339 47.3468 32.7492 47.1167 32.6781 46.8823C32.6186 46.7126 32.5697 46.5393 32.5316 46.3635C32.4999 46.2249 32.4722 46.118 32.4564 46.0428C32.4452 45.9999 32.4372 45.9562 32.4326 45.9121Z" fill="#1E2959"/>
<path d="M40.4829 41.7148L40.57 41.794L40.8155 42.0316C40.9225 42.1386 41.0413 42.2811 41.2115 42.4276C41.3818 42.5742 41.5125 42.792 41.6709 43.0296C42.0709 43.5997 42.3994 44.2168 42.649 44.867C42.9879 45.7265 43.1897 46.6338 43.247 47.5558C43.2739 48.0912 43.254 48.6278 43.1876 49.1596C43.1066 49.7358 42.9821 50.305 42.8154 50.8624C42.4867 52.0188 42.0233 53.2068 41.6749 54.5096C41.5037 55.174 41.4067 55.8553 41.3858 56.5411C41.3703 57.2562 41.4435 57.9705 41.6036 58.6676C41.9379 60.146 42.6071 61.5279 43.5598 62.7068C44.5153 63.8756 45.6964 64.8399 47.0327 65.5422C48.2729 66.2051 49.609 66.6701 50.9928 66.9203C52.3154 67.1658 53.5984 67.2291 54.7864 67.4113C55.8987 67.5441 56.979 67.8712 57.9782 68.3775C59.404 69.1766 60.5198 70.4318 61.1462 71.9415C61.3159 72.3471 61.4484 72.7673 61.5422 73.1968C61.566 73.3434 61.5818 73.4542 61.5976 73.5374C61.6003 73.5756 61.6003 73.614 61.5976 73.6523C61.5976 73.6523 61.5976 73.6126 61.5699 73.5374C61.5422 73.4622 61.5303 73.3473 61.5026 73.2048C61.4049 72.7801 61.2724 72.3643 61.1066 71.9613C60.8289 71.3295 60.4651 70.7391 60.0255 70.207C59.4431 69.5022 58.7306 68.9161 57.9267 68.4805C56.9336 67.9851 55.8614 67.6674 54.7587 67.542C53.5707 67.3638 52.2916 67.3044 50.9571 67.0628C49.5605 66.8095 48.2114 66.342 46.9575 65.6768C45.6048 64.9668 44.4089 63.9918 43.441 62.8098C42.4823 61.6181 41.8054 60.2251 41.461 58.7349C41.3043 58.0266 41.2325 57.3021 41.2472 56.5767C41.2686 55.8816 41.3669 55.191 41.5402 54.5175C41.8768 53.2028 42.3639 52.0148 42.6965 50.8664C42.8708 50.3162 43.0032 49.7536 43.0925 49.1834C43.1632 48.6586 43.1858 48.1284 43.1599 47.5994C43.0689 45.9894 42.5419 44.4344 41.6353 43.1008C41.4808 42.8593 41.3185 42.6692 41.1878 42.491C41.0571 42.3128 40.9264 42.1821 40.8235 42.095L40.5898 41.8455C40.5503 41.8053 40.5145 41.7616 40.4829 41.7148Z" fill="#1E2959"/>
<path d="M60.16 70.0918C60.0665 70.1954 59.9631 70.2896 59.8512 70.373C59.6452 70.5512 59.3403 70.7967 58.9562 71.0897C57.9599 71.8594 56.9235 72.5758 55.8516 73.236C54.7786 73.896 53.6723 74.5 52.537 75.0458C52.1014 75.2556 51.745 75.418 51.4995 75.521C51.3733 75.5851 51.2405 75.6356 51.1035 75.6714C51.2214 75.5968 51.3445 75.5306 51.4718 75.4734L52.4935 74.9626C53.3528 74.527 54.525 73.8934 55.7763 73.1212C57.0277 72.349 58.1206 71.5847 58.8968 71.0145L59.8115 70.3334C59.9212 70.2439 60.0377 70.1631 60.16 70.0918Z" fill="#1E2959"/>
<path d="M58.0335 68.4292C57.9357 68.5016 57.8309 68.564 57.7207 68.6153L56.8574 69.0826C56.1287 69.4786 55.1308 70.0409 54.0497 70.7022C52.9687 71.3635 52.0183 72.0051 51.3372 72.4763L50.5452 73.0386C50.4484 73.1107 50.3465 73.1755 50.2402 73.2327C50.3236 73.1451 50.4151 73.0655 50.5135 72.9951C50.6956 72.8486 50.9649 72.6466 51.3055 72.4011C51.9747 71.9061 52.9251 71.2566 54.0062 70.5914C55.0873 69.9261 56.0971 69.3756 56.8376 69.0074C57.2098 68.8173 57.5108 68.6708 57.7246 68.5757C57.8235 68.5186 57.9268 68.4696 58.0335 68.4292Z" fill="#1E2959"/>
<path d="M54.9848 67.7876C54.7936 67.9543 54.5882 68.1041 54.371 68.2351C53.975 68.4925 53.4404 68.841 52.8306 69.2092C52.2207 69.5775 51.6624 69.8904 51.2466 70.1121C51.0296 70.2414 50.8017 70.3514 50.5654 70.4408C50.7654 70.2916 50.9773 70.1592 51.199 70.0448L52.7593 69.1102L54.3195 68.1717C54.529 68.0236 54.7517 67.895 54.9848 67.7876Z" fill="#1E2959"/>
<path d="M52.1415 64.4214C52.0004 64.5509 51.8449 64.6638 51.6781 64.758L50.5337 65.5262L49.3972 66.3182C49.2477 66.4371 49.0857 66.5394 48.9141 66.6232C49.0376 66.472 49.1815 66.3387 49.3417 66.2272C49.6189 66.0054 50.011 65.7163 50.4585 65.4114C50.9059 65.1065 51.3217 64.8491 51.6465 64.6748C51.7999 64.5695 51.9663 64.4843 52.1415 64.4214Z" fill="#1E2959"/>
<path d="M51.9154 61.4194C51.9154 61.4392 51.5788 61.6214 51.0363 61.9342C50.4938 62.2471 49.7532 62.7025 48.9731 63.249C48.193 63.7954 47.5119 64.3419 47.0327 64.7458C46.7802 64.9759 46.5158 65.1927 46.2407 65.3953C46.2947 65.321 46.3557 65.252 46.4229 65.1894C46.5456 65.0626 46.7318 64.8884 46.9654 64.6746C48.1852 63.5732 49.535 62.625 50.9848 61.8511C51.262 61.7046 51.4917 61.5937 51.6501 61.5184C51.7338 61.4739 51.823 61.4406 51.9154 61.4194Z" fill="#1E2959"/>
<path d="M50.4304 59.0916C50.4502 59.1233 49.0602 60.1251 47.3257 61.3369C45.5912 62.5487 44.1577 63.4991 44.1577 63.4713C44.1577 63.4436 45.5239 62.4338 47.2584 61.226C48.9929 60.0182 50.4066 59.0599 50.4304 59.0916Z" fill="#1E2959"/>
<path d="M49.2461 56.4658C49.1638 56.5413 49.0735 56.6077 48.9769 56.6638C48.7789 56.7985 48.5294 56.9687 48.2284 57.1667C47.5948 57.5905 46.7236 58.1845 45.7772 58.8577C44.8307 59.5309 43.9912 60.1645 43.4012 60.6238L42.6805 61.1703C42.5961 61.2417 42.5045 61.3041 42.4072 61.3564C42.4786 61.2708 42.5596 61.1937 42.6488 61.1267C42.8072 60.9881 43.0448 60.7901 43.3418 60.5486C43.9358 60.0694 44.7674 59.4239 45.7178 58.7507C46.6682 58.0775 47.5473 57.4915 48.1928 57.0875C48.5175 56.8856 48.7828 56.7272 48.9848 56.6203C49.0664 56.56 49.154 56.5082 49.2461 56.4658Z" fill="#1E2959"/>
<path d="M46.8033 55.0126C46.8271 55.0403 45.647 55.8957 44.1739 56.9214C42.7008 57.947 41.485 58.7469 41.4613 58.7192C41.4375 58.6915 42.6216 57.8322 44.0947 56.8105C45.5678 55.7888 46.7835 54.9809 46.8033 55.0126Z" fill="#1E2959"/>
<path d="M44.241 53.5474C43.8214 53.9722 43.3685 54.3629 42.8867 54.7156C42.4344 55.1055 41.9539 55.4616 41.4492 55.7808C41.8705 55.3517 42.3232 54.9546 42.8035 54.5928C43.2565 54.2097 43.737 53.8603 44.241 53.5474Z" fill="#1E2959"/>
<path d="M42.5148 49.8687C42.3385 50.0638 42.145 50.2427 41.9366 50.4032C41.5684 50.7161 41.0456 51.1398 40.4516 51.5912C39.8576 52.0427 39.3072 52.4149 38.8993 52.6802C38.6871 52.8341 38.4603 52.9667 38.2222 53.0762C38.4182 52.9008 38.6274 52.7406 38.8478 52.5971C39.2438 52.312 39.7824 51.9199 40.3724 51.4804C40.9625 51.0408 41.4931 50.629 41.8772 50.332C42.077 50.1607 42.2902 50.0058 42.5148 49.8687Z" fill="#1E2959"/>
<path d="M43.2589 47.3657C43.178 47.4436 43.0891 47.5126 42.9936 47.5716C42.8233 47.6984 42.5659 47.8726 42.2491 48.0825C41.6115 48.5062 40.7166 49.0725 39.7068 49.6665C38.697 50.2605 37.7585 50.7436 37.0734 51.0842C36.7328 51.2544 36.4517 51.3891 36.2576 51.4802C36.1598 51.5339 36.0561 51.5765 35.9487 51.6069C36.0383 51.5414 36.1337 51.4844 36.2339 51.4366L37.0259 51.005C37.6991 50.6446 38.6099 50.1377 39.6355 49.5516C40.6611 48.9656 41.5442 48.4191 42.1937 48.0152L42.9619 47.54C43.0539 47.4707 43.1535 47.4122 43.2589 47.3657Z" fill="#1E2959"/>
<path d="M42.0712 44.6929C41.9811 44.7734 41.8844 44.8463 41.7821 44.9107C41.5921 45.0453 41.3149 45.2354 40.9664 45.469C40.2734 45.9284 39.3071 46.5541 38.2261 47.2233C37.145 47.8925 36.1589 48.4786 35.4541 48.8905C35.0937 49.0964 34.8007 49.2627 34.5947 49.3736C34.4908 49.4349 34.3823 49.4878 34.27 49.532C34.3623 49.4541 34.4617 49.3852 34.567 49.3261L35.4065 48.8073L38.1785 47.1085L40.9505 45.3898L41.7901 44.8671C41.8781 44.8003 41.9722 44.7419 42.0712 44.6929Z" fill="#1E2959"/>
<path d="M146.266 123.636C146.247 123.655 145.954 123.362 145.383 122.875C145.098 122.634 144.746 122.341 144.318 122.028C143.836 121.673 143.327 121.356 142.797 121.077C142.492 120.92 142.174 120.788 141.847 120.681C141.504 120.556 141.143 120.492 140.778 120.491C140.598 120.491 140.42 120.533 140.259 120.614C140.102 120.696 139.976 120.828 139.903 120.99C139.826 121.167 139.789 121.36 139.796 121.553C139.799 121.761 139.826 121.968 139.875 122.17C139.981 122.599 140.135 123.015 140.334 123.41C140.543 123.829 140.777 124.235 141.035 124.626C142.144 126.264 143.533 127.694 145.138 128.851C145.517 129.122 145.914 129.369 146.326 129.587C146.715 129.8 147.127 129.968 147.553 130.086C147.754 130.142 147.96 130.175 148.167 130.185C148.359 130.197 148.551 130.165 148.73 130.094C148.897 130.028 149.037 129.906 149.126 129.75C149.21 129.591 149.258 129.415 149.264 129.235C149.276 128.869 149.222 128.505 149.106 128.158C148.998 127.828 148.866 127.506 148.71 127.196C148.446 126.658 148.142 126.141 147.803 125.647C147.502 125.212 147.225 124.855 146.987 124.558C146.52 123.976 146.235 123.671 146.255 123.651C146.274 123.632 146.342 123.711 146.488 123.849C146.635 123.988 146.837 124.194 147.086 124.475C147.393 124.815 147.682 125.171 147.953 125.54C148.316 126.031 148.639 126.55 148.92 127.093C149.081 127.413 149.22 127.744 149.335 128.083C149.468 128.464 149.531 128.867 149.522 129.271C149.517 129.493 149.46 129.712 149.355 129.908C149.241 130.119 149.06 130.285 148.84 130.379C148.623 130.47 148.387 130.512 148.151 130.502C147.92 130.495 147.69 130.462 147.466 130.403C147.017 130.281 146.582 130.108 146.171 129.888C145.742 129.653 145.329 129.388 144.936 129.096C143.291 127.923 141.873 126.46 140.75 124.78C140.483 124.379 140.244 123.961 140.033 123.529C139.828 123.111 139.67 122.671 139.562 122.218C139.508 121.994 139.482 121.763 139.483 121.533C139.477 121.296 139.525 121.062 139.626 120.848C139.727 120.63 139.899 120.453 140.113 120.345C140.312 120.247 140.532 120.197 140.754 120.198C141.152 120.202 141.547 120.277 141.918 120.42C142.254 120.545 142.58 120.694 142.893 120.868C143.426 121.163 143.934 121.501 144.413 121.877C144.837 122.21 145.181 122.515 145.455 122.776C145.728 123.038 145.93 123.247 146.061 123.394C146.191 123.541 146.274 123.628 146.266 123.636Z" fill="#1E2959"/>
<path d="M142.469 124.585C142.493 124.585 142.378 124.981 142.227 125.686C142.152 126.043 142.069 126.478 142.002 126.985C141.925 127.559 141.893 128.137 141.907 128.716C141.914 129.049 141.949 129.382 142.01 129.71C142.067 130.058 142.186 130.393 142.362 130.7C142.452 130.85 142.573 130.978 142.718 131.076C142.863 131.17 143.033 131.217 143.205 131.21C143.394 131.205 143.579 131.159 143.748 131.076C143.927 130.984 144.095 130.871 144.247 130.739C144.571 130.459 144.862 130.143 145.114 129.797C145.381 129.432 145.623 129.05 145.839 128.652C146.739 126.964 147.322 125.125 147.561 123.227C147.613 122.779 147.636 122.328 147.629 121.877C147.622 121.448 147.568 121.022 147.466 120.606C147.415 120.411 147.343 120.223 147.253 120.043C147.169 119.877 147.05 119.731 146.904 119.616C146.768 119.509 146.602 119.448 146.429 119.441C146.254 119.438 146.081 119.473 145.922 119.544C145.602 119.693 145.312 119.897 145.063 120.146C144.824 120.381 144.604 120.634 144.405 120.903C144.055 121.364 143.743 121.853 143.471 122.364C143.233 122.815 143.051 123.219 142.908 123.552C142.623 124.221 142.493 124.601 142.469 124.593C142.472 124.494 142.492 124.397 142.528 124.304C142.58 124.118 142.663 123.849 142.786 123.512C142.908 123.176 143.079 122.756 143.304 122.289C143.561 121.756 143.862 121.246 144.203 120.764C144.403 120.481 144.627 120.216 144.873 119.972C145.139 119.691 145.454 119.462 145.803 119.295C145.998 119.206 146.211 119.162 146.425 119.164C146.657 119.17 146.881 119.247 147.066 119.386C147.247 119.526 147.395 119.703 147.502 119.905C147.608 120.103 147.69 120.313 147.748 120.53C147.86 120.968 147.921 121.417 147.93 121.869C147.943 122.336 147.924 122.803 147.87 123.267C147.639 125.21 147.041 127.091 146.108 128.811C145.884 129.224 145.632 129.621 145.352 129.999C145.084 130.362 144.774 130.693 144.429 130.985C144.258 131.129 144.07 131.252 143.871 131.353C143.667 131.459 143.443 131.518 143.213 131.527C142.983 131.533 142.756 131.468 142.564 131.341C142.387 131.218 142.239 131.059 142.128 130.874C141.941 130.536 141.816 130.167 141.76 129.785C141.701 129.444 141.672 129.098 141.673 128.751C141.67 128.159 141.719 127.568 141.819 126.985C141.891 126.548 141.985 126.114 142.101 125.686C142.196 125.334 142.287 125.065 142.35 124.894C142.37 124.785 142.411 124.68 142.469 124.585Z" fill="#1E2959"/>
<path d="M143.768 122.76C143.768 122.788 143.372 122.891 142.702 123.137C142.362 123.259 141.95 123.418 141.479 123.628C140.951 123.864 140.442 124.142 139.958 124.459C139.677 124.639 139.412 124.843 139.166 125.069C138.9 125.3 138.678 125.578 138.513 125.889C138.432 126.043 138.386 126.214 138.378 126.388C138.375 126.561 138.426 126.732 138.525 126.875C138.627 127.027 138.762 127.154 138.921 127.247C139.093 127.35 139.276 127.434 139.467 127.497C139.877 127.622 140.299 127.702 140.726 127.734C141.177 127.764 141.63 127.764 142.081 127.734C143.034 127.678 143.979 127.531 144.904 127.295C145.831 127.063 146.734 126.745 147.601 126.344C148.011 126.152 148.407 125.934 148.789 125.691C149.15 125.467 149.484 125.201 149.783 124.899C149.924 124.755 150.046 124.594 150.147 124.42C150.246 124.262 150.308 124.085 150.329 123.901C150.347 123.73 150.313 123.557 150.23 123.406C150.141 123.25 150.02 123.115 149.874 123.01C149.578 122.821 149.251 122.687 148.908 122.614C148.584 122.534 148.254 122.48 147.922 122.451C147.344 122.406 146.765 122.406 146.187 122.451C145.676 122.491 145.237 122.547 144.876 122.598C144.164 122.709 143.772 122.8 143.764 122.772C143.85 122.725 143.944 122.692 144.041 122.673C144.223 122.618 144.496 122.547 144.857 122.471C145.217 122.396 145.649 122.325 146.171 122.269C146.759 122.207 147.351 122.194 147.942 122.23C148.287 122.25 148.63 122.301 148.967 122.38C149.347 122.457 149.708 122.605 150.032 122.816C150.211 122.934 150.362 123.091 150.472 123.275C150.589 123.475 150.641 123.706 150.618 123.936C150.598 124.165 150.526 124.385 150.409 124.582C150.297 124.775 150.164 124.954 150.013 125.117C149.699 125.444 149.348 125.734 148.967 125.98C148.576 126.235 148.169 126.464 147.747 126.665C146.857 127.08 145.929 127.407 144.975 127.643C144.03 127.884 143.063 128.031 142.089 128.083C141.623 128.109 141.156 128.101 140.691 128.059C140.24 128.023 139.794 127.934 139.364 127.794C139.15 127.724 138.946 127.63 138.754 127.512C138.56 127.393 138.392 127.234 138.263 127.045C138.138 126.852 138.074 126.626 138.081 126.396C138.091 126.18 138.149 125.969 138.251 125.778C138.438 125.44 138.685 125.14 138.98 124.891C139.242 124.663 139.521 124.456 139.816 124.273C140.321 123.965 140.85 123.701 141.4 123.481C141.81 123.312 142.229 123.164 142.655 123.038C143.003 122.935 143.281 122.867 143.467 122.828C143.563 122.789 143.664 122.766 143.768 122.76Z" fill="#1E2959"/>
<path d="M145.764 125.045C145.815 125.248 145.804 125.463 145.733 125.66C145.662 125.858 145.535 126.03 145.366 126.155C145.197 126.28 144.995 126.352 144.786 126.362C144.576 126.372 144.368 126.32 144.188 126.212C144.008 126.104 143.864 125.945 143.775 125.755C143.685 125.566 143.654 125.354 143.684 125.146C143.715 124.938 143.807 124.745 143.948 124.589C144.089 124.434 144.273 124.323 144.477 124.273C144.75 124.205 145.038 124.249 145.279 124.394C145.52 124.538 145.695 124.772 145.764 125.045Z" fill="#1E2959"/>
<path d="M167.397 106.865L167.278 106.81L166.934 106.635L165.607 105.946L160.732 103.384H160.776L145.76 109.122L145.625 109.174L145.665 109.035L146.124 107.376C147.173 103.59 148.167 100.006 149.039 96.8542V96.8304L157.355 90.5974L159.731 88.8391L160.36 88.3758L160.523 88.261C160.557 88.2319 160.577 88.2201 160.582 88.2253L160.53 88.2689L160.372 88.3956L159.754 88.8708L157.41 90.6568L149.118 96.9334L149.141 96.8977C148.27 100.066 147.284 103.63 146.239 107.427C146.08 107.994 145.926 108.56 145.779 109.087L145.684 109L160.732 103.301H160.756L165.607 105.903L166.918 106.612L167.258 106.802L167.397 106.865Z" fill="#FF9F1C"/>
<path d="M147.688 108.94L146.789 109.205L146.5 110.096L145.969 109.324H145.031L145.601 108.579L145.312 107.688L146.195 108.001L146.951 107.451L146.928 108.389L147.688 108.94Z" fill="#FF9F1C"/>
<path d="M150.282 96.5649L149.716 96.7708L149.561 97.3569L149.189 96.8817L148.583 96.9173L148.924 96.4144L148.702 95.8521L149.284 96.0184L149.751 95.6343L149.771 96.2402L150.282 96.5649Z" fill="#FF9F1C"/>
<path d="M161.651 87.8408L161.239 88.4625L161.513 89.1515L160.796 88.9495L160.226 89.4247L160.194 88.6803L159.568 88.2843L160.265 88.0269L160.447 87.3062L160.911 87.8883L161.651 87.8408Z" fill="#FF9F1C"/>
<path d="M168.308 106.08L167.892 106.702L168.169 107.391L167.453 107.189L166.879 107.664L166.851 106.92L166.221 106.524L166.918 106.267L167.104 105.546L167.564 106.128L168.308 106.08Z" fill="#FF9F1C"/>
<path d="M161.322 103.028L161.057 103.424L161.235 103.863L160.776 103.733L160.411 104.037L160.396 103.562L159.992 103.309L160.439 103.142L160.554 102.683L160.851 103.059L161.322 103.028Z" fill="#FF9F1C"/>
<path d="M122.55 40.0863C123.226 35.942 120.415 32.034 116.271 31.3576C112.127 30.6812 108.219 33.4924 107.542 37.6367C106.866 41.781 109.677 45.689 113.821 46.3654C117.966 47.0418 121.874 44.2306 122.55 40.0863Z" fill="#FF9F1C"/>
<g opacity="0.3">
<path opacity="0.3" d="M114.048 41.2395C114.048 41.4846 113.975 41.7243 113.839 41.9281C113.703 42.1319 113.509 42.2908 113.283 42.3846C113.056 42.4784 112.807 42.503 112.567 42.4551C112.326 42.4073 112.105 42.2893 111.932 42.1159C111.759 41.9426 111.64 41.7217 111.593 41.4813C111.545 41.2409 111.569 40.9916 111.663 40.7652C111.757 40.5387 111.916 40.3451 112.12 40.2089C112.324 40.0727 112.563 40 112.808 40C113.137 40 113.452 40.1306 113.685 40.363C113.917 40.5955 114.048 40.9108 114.048 41.2395Z" fill="white"/>
</g>
<g opacity="0.3">
<path opacity="0.3" d="M112.306 37.6597C112.306 37.8022 112.263 37.9416 112.184 38.0601C112.105 38.1786 111.992 38.271 111.861 38.3255C111.729 38.3801 111.584 38.3944 111.444 38.3666C111.305 38.3388 111.176 38.2701 111.075 38.1693C110.975 38.0685 110.906 37.9401 110.878 37.8003C110.85 37.6605 110.865 37.5156 110.919 37.3839C110.974 37.2522 111.066 37.1396 111.185 37.0604C111.303 36.9812 111.442 36.939 111.585 36.939C111.776 36.939 111.959 37.0149 112.095 37.1501C112.23 37.2852 112.306 37.4685 112.306 37.6597Z" fill="white"/>
</g>
<path d="M107.676 40.7168C107.712 40.8475 101.17 47.1241 102.857 48.4626C104.544 49.8011 111.636 46.3678 117.683 41.4851C123.73 36.6024 129.25 30.6703 127.737 29.1022C126.225 27.534 118.673 32.1791 118.673 32.1791L119.592 32.7533C119.592 32.7533 124.158 29.8229 125.603 30.9594C127.048 32.0959 122.93 36.543 117.117 40.7881C111.303 45.0332 105.684 48.0112 104.813 46.8469C103.942 45.6827 108.056 41.8058 108.056 41.8058L107.676 40.7168Z" fill="#FF9F1C"/>
<g opacity="0.3">
<path opacity="0.3" d="M107.676 40.7168C107.712 40.8475 101.17 47.1241 102.857 48.4626C104.544 49.8011 111.636 46.3678 117.683 41.4851C123.73 36.6024 129.25 30.6703 127.737 29.1022C126.225 27.534 118.673 32.1791 118.673 32.1791L119.592 32.7533C119.592 32.7533 124.158 29.8229 125.603 30.9594C127.048 32.0959 122.93 36.543 117.117 40.7881C111.303 45.0332 105.684 48.0112 104.813 46.8469C103.942 45.6827 108.056 41.8058 108.056 41.8058L107.676 40.7168Z" fill="#1E2959"/>
</g>
<g opacity="0.3">
<path opacity="0.3" d="M110.88 33.5096C110.939 33.5848 110.424 34.0204 109.842 34.8995C109.069 36.0264 108.642 37.355 108.614 38.7216C108.587 40.0881 108.96 41.4329 109.688 42.5899C110.238 43.4888 110.733 43.9481 110.67 44.0194C110.606 44.0907 110.02 43.7185 109.343 42.8314C108.951 42.3037 108.64 41.7204 108.42 41.1009C107.859 39.5604 107.893 37.8657 108.516 36.3489C108.759 35.7389 109.093 35.169 109.506 34.658C110.202 33.7868 110.828 33.4581 110.88 33.5096Z" fill="white"/>
</g>
<path d="M126.553 45.568C126.574 44.6949 126.853 43.8475 127.355 43.133C127.858 42.4186 128.56 41.8691 129.375 41.5541C130.19 41.2391 131.079 41.1727 131.932 41.3633C132.784 41.554 133.56 41.9931 134.163 42.6252C134.766 43.2572 135.168 44.0538 135.317 44.9142C135.467 45.7746 135.359 46.6601 135.005 47.4588C134.652 48.2574 134.07 48.9334 133.332 49.4011C132.595 49.8688 131.735 50.1073 130.862 50.0864C129.692 50.0583 128.58 49.5666 127.772 48.7193C126.964 47.872 126.526 46.7385 126.553 45.568Z" fill="#FF9F1C"/>
<g opacity="0.4">
<path opacity="0.4" d="M132.407 43.9839C132.41 43.8413 132.455 43.7028 132.537 43.586C132.619 43.4692 132.734 43.3793 132.867 43.3278C133 43.2764 133.145 43.2655 133.285 43.2968C133.424 43.328 133.551 43.3998 133.649 43.5032C133.748 43.6066 133.813 43.7368 133.837 43.8774C133.862 44.018 133.844 44.1627 133.786 44.2931C133.728 44.4234 133.632 44.5336 133.511 44.6097C133.391 44.6858 133.25 44.7244 133.107 44.7205C133.013 44.7184 132.92 44.6977 132.833 44.6595C132.747 44.6213 132.669 44.5664 132.604 44.498C132.539 44.4295 132.488 44.3489 132.454 44.2607C132.42 44.1724 132.404 44.0784 132.407 43.9839Z" fill="#1E2959"/>
</g>
<g opacity="0.4">
<path opacity="0.4" d="M133.848 45.6626C133.85 45.5791 133.878 45.4983 133.926 45.4305C133.975 45.3626 134.043 45.3108 134.121 45.2817C134.199 45.2526 134.284 45.2475 134.366 45.267C134.447 45.2865 134.52 45.3298 134.577 45.3914C134.633 45.4529 134.67 45.5298 134.682 45.6124C134.695 45.6949 134.682 45.7793 134.647 45.8548C134.611 45.9303 134.554 45.9933 134.482 46.036C134.41 46.0786 134.327 46.0989 134.244 46.0942C134.135 46.0871 134.033 46.0383 133.959 45.9579C133.885 45.8775 133.845 45.7717 133.848 45.6626Z" fill="#1E2959"/>
</g>
<g opacity="0.4">
<path opacity="0.4" d="M133.282 46.9497C133.323 46.9507 133.362 46.9679 133.391 46.9975C133.42 47.0271 133.436 47.0668 133.436 47.1081C133.435 47.1284 133.431 47.1484 133.423 47.1669C133.415 47.1855 133.403 47.2022 133.388 47.2162C133.373 47.2301 133.356 47.2411 133.337 47.2484C133.318 47.2556 133.298 47.2591 133.278 47.2586C133.257 47.2586 133.237 47.2545 133.218 47.2464C133.199 47.2384 133.182 47.2266 133.168 47.2118C133.154 47.1969 133.143 47.1794 133.136 47.1602C133.129 47.141 133.126 47.1206 133.127 47.1002C133.128 47.0599 133.145 47.0216 133.174 46.9935C133.203 46.9654 133.241 46.9497 133.282 46.9497Z" fill="#1E2959"/>
</g>
<path d="M144.786 78.5069C144.746 78.5069 144.718 72.9154 144.718 66.021C144.718 59.1267 144.746 53.5352 144.786 53.5352C144.825 53.5352 144.853 59.1227 144.853 66.021C144.853 72.9194 144.821 78.5069 144.786 78.5069Z" fill="#263238"/>
<path d="M145.53 53.7491C145.212 53.2879 144.928 52.8034 144.683 52.2998H144.801V52.3315C144.597 52.8668 144.355 53.3868 144.077 53.8877C144.233 53.3362 144.434 52.7985 144.679 52.28V52.2483L144.734 52.1216L144.797 52.2404C145.082 52.7229 145.327 53.2274 145.53 53.7491Z" fill="#263238"/>
<path d="M144.647 50.5856C144.623 50.6133 144.418 50.4786 144.251 50.2292C144.085 49.9797 144.045 49.7381 144.081 49.7302C144.117 49.7223 144.212 49.9282 144.362 50.1579C144.513 50.3876 144.671 50.5578 144.647 50.5856Z" fill="#263238"/>
<path d="M144.255 51.3061C144.33 50.9992 144.436 50.7006 144.572 50.4151C144.662 50.1127 144.784 49.8206 144.936 49.5439C144.912 49.8623 144.83 50.1736 144.694 50.4627C144.601 50.7684 144.452 51.0544 144.255 51.3061Z" fill="#263238"/>
<path d="M142.996 56.8225C143.086 56.5707 143.163 56.3142 143.225 56.0542C143.239 55.7904 143.239 55.526 143.225 55.2622C143.366 55.5125 143.407 55.8067 143.34 56.0859C143.321 56.3657 143.198 56.6283 142.996 56.8225Z" fill="#263238"/>
<path d="M143.241 55.7805C143.241 55.7805 143.209 55.8875 143.051 55.9271C142.957 55.947 142.859 55.93 142.778 55.8795C142.729 55.8449 142.69 55.7998 142.661 55.7476C142.633 55.6955 142.616 55.6376 142.613 55.5783C142.61 55.5189 142.621 55.4597 142.644 55.4049C142.667 55.3501 142.702 55.3012 142.746 55.2618C142.824 55.2062 142.92 55.1808 143.015 55.1905C143.178 55.1905 143.233 55.3093 143.217 55.3172C143.201 55.3251 143.134 55.2776 143.011 55.2855C142.974 55.2849 142.938 55.2919 142.904 55.3062C142.87 55.3205 142.839 55.3418 142.814 55.3686C142.788 55.3955 142.769 55.4273 142.757 55.4621C142.744 55.4969 142.739 55.5338 142.742 55.5706C142.743 55.6076 142.752 55.6439 142.768 55.6773C142.784 55.7107 142.807 55.7405 142.835 55.7649C142.862 55.7894 142.895 55.8079 142.93 55.8195C142.965 55.831 143.002 55.8353 143.039 55.832C143.162 55.836 143.225 55.7647 143.241 55.7805Z" fill="#263238"/>
<path d="M164.225 76.7328C164.225 76.7685 159.442 76.8002 153.533 76.8002C147.625 76.8002 142.841 76.7685 142.841 76.7328C142.841 76.6972 147.621 76.6655 153.533 76.6655C159.446 76.6655 164.225 76.6972 164.225 76.7328Z" fill="#263238"/>
<path d="M164.443 76.7054C164.133 76.657 163.831 76.5637 163.548 76.4282C163.254 76.3356 162.974 76.2023 162.716 76.0322C163.022 76.0819 163.318 76.1766 163.595 76.3134C163.895 76.4021 164.181 76.5342 164.443 76.7054Z" fill="#263238"/>
<path d="M164.677 76.7847C164.226 77.0411 163.732 77.2141 163.22 77.2955C163.438 77.153 163.677 77.0461 163.929 76.9787C164.165 76.871 164.418 76.8053 164.677 76.7847Z" fill="#263238"/>
<path d="M143.78 77.4102C143.854 77.4612 143.917 77.5269 143.964 77.6032C144.012 77.6795 144.043 77.7647 144.057 77.8537C144.104 78.0474 144.089 78.2513 144.013 78.4358C143.97 78.5498 143.896 78.6497 143.799 78.7249C143.74 78.7631 143.672 78.7834 143.601 78.7834C143.531 78.7834 143.462 78.7631 143.403 78.7249C143.303 78.6503 143.222 78.552 143.168 78.4388C143.114 78.3255 143.089 78.2007 143.095 78.0754C143.092 77.9742 143.112 77.8737 143.153 77.7812C143.194 77.6886 143.255 77.6065 143.332 77.5408C143.384 77.4964 143.443 77.4626 143.508 77.4416C143.572 77.4205 143.641 77.4125 143.708 77.4181C143.803 77.4181 143.847 77.4616 143.843 77.4656C143.839 77.4696 143.792 77.4656 143.708 77.4656C143.591 77.4762 143.481 77.5265 143.396 77.6082C143.334 77.6674 143.287 77.7391 143.256 77.8183C143.225 77.8976 143.212 77.9826 143.217 78.0675C143.215 78.1708 143.236 78.2732 143.28 78.3667C143.324 78.4602 143.39 78.5421 143.471 78.6061C143.51 78.6311 143.555 78.6445 143.601 78.6445C143.648 78.6445 143.693 78.6311 143.732 78.6061C143.81 78.5463 143.872 78.4672 143.91 78.3764C143.98 78.2143 144.002 78.0357 143.974 77.8616C143.932 77.7021 143.867 77.5499 143.78 77.4102Z" fill="#263238"/>
<path d="M161.172 77.6916C161.172 77.6916 161.247 77.6481 161.35 77.7352C161.38 77.7616 161.404 77.7946 161.42 77.8316C161.436 77.8687 161.443 77.9088 161.441 77.949C161.431 78.0518 161.386 78.1482 161.314 78.2223C161.164 78.3886 160.887 78.4519 160.76 78.6539C160.731 78.7067 160.715 78.7659 160.715 78.8262C160.715 78.8864 160.731 78.9457 160.76 78.9984C160.793 79.0537 160.841 79.0984 160.898 79.1271C160.956 79.1559 161.021 79.1676 161.085 79.1608C161.149 79.1554 161.211 79.1306 161.261 79.0896C161.311 79.0486 161.348 78.9933 161.366 78.9311C161.385 78.8734 161.389 78.8116 161.377 78.752C161.365 78.6923 161.338 78.6367 161.298 78.5906C161.218 78.498 161.122 78.4214 161.013 78.3648C160.954 78.3428 160.901 78.308 160.857 78.2628C160.813 78.2175 160.78 78.1631 160.76 78.1035C160.748 78.0521 160.748 77.9987 160.76 77.9473C160.771 77.8959 160.794 77.8478 160.827 77.8065C160.874 77.7471 160.935 77.7008 161.005 77.6718C161.12 77.6322 161.188 77.6401 161.192 77.6481C161.195 77.656 161.128 77.6481 161.029 77.7193C160.972 77.7505 160.923 77.7954 160.887 77.85C160.864 77.8832 160.849 77.9211 160.843 77.9608C160.837 78.0006 160.839 78.0412 160.851 78.0797C160.891 78.25 161.207 78.2738 161.393 78.5153C161.447 78.5775 161.484 78.6523 161.5 78.7327C161.517 78.8131 161.513 78.8963 161.489 78.9747C161.461 79.0608 161.409 79.1369 161.339 79.1933C161.268 79.2497 161.182 79.2839 161.093 79.2915C161.004 79.301 160.914 79.2848 160.834 79.2448C160.754 79.2048 160.687 79.1426 160.641 79.0658C160.6 78.9933 160.579 78.9114 160.579 78.8281C160.579 78.7449 160.6 78.663 160.641 78.5906C160.722 78.4771 160.831 78.3869 160.958 78.3292C161.055 78.2817 161.147 78.2233 161.231 78.1549C161.294 78.0993 161.336 78.0238 161.35 77.9411C161.353 77.9107 161.35 77.88 161.341 77.8508C161.332 77.8215 161.318 77.7944 161.298 77.7708C161.251 77.6916 161.172 77.7035 161.172 77.6916Z" fill="#263238"/>
<path d="M161.117 77.1924C161.026 76.8016 161.026 76.3952 161.117 76.0044C161.208 76.3952 161.208 76.8016 161.117 77.1924Z" fill="#263238"/>
<path d="M166.831 76.7571C166.714 76.7989 166.59 76.8177 166.466 76.8126L166.07 76.8363C166.041 76.8463 166.009 76.8463 165.979 76.8363C165.96 76.8239 165.945 76.8057 165.937 76.7845C165.928 76.7632 165.927 76.7398 165.932 76.7175C165.945 76.6676 165.975 76.6232 166.015 76.5908L166.189 76.4086C166.308 76.3163 166.386 76.1814 166.407 76.0324C166.411 75.9788 166.396 75.9256 166.366 75.8812C166.336 75.8367 166.292 75.8035 166.241 75.7869C166.16 75.7772 166.079 75.7924 166.007 75.8305C165.948 75.8542 165.916 75.8701 165.908 75.8622C165.9 75.8542 165.928 75.8265 165.979 75.7869C166.056 75.721 166.155 75.6869 166.257 75.6919C166.335 75.7077 166.406 75.7511 166.456 75.8141C166.506 75.8772 166.532 75.9559 166.53 76.0364C166.515 76.2162 166.43 76.3828 166.292 76.4997L166.11 76.6779C166.078 76.7056 166.055 76.7334 166.055 76.7452H166.078H166.474C166.593 76.7292 166.713 76.7332 166.831 76.7571Z" fill="#263238"/>
<path d="M147.629 76.7331C147.629 76.7331 147.629 76.5985 147.629 76.3648C147.629 76.1312 147.629 75.7867 147.609 75.3867C147.609 74.5551 147.585 73.4067 147.581 72.092L147.645 72.1593H146.405L146.473 72.092V73.4661C146.473 73.9057 146.473 74.3254 146.473 74.7214C146.473 75.5134 146.473 76.1866 146.453 76.7292L146.413 76.6896L147.316 76.7094C147.53 76.7094 147.649 76.7094 147.653 76.7292C147.548 76.7359 147.444 76.7359 147.34 76.7292L146.413 76.749H146.374V76.7094C146.374 76.1668 146.374 75.4857 146.374 74.7016C146.374 74.3056 146.374 73.8859 146.374 73.4463V72.0722L146.441 72.0049H147.708V72.0682C147.708 73.4107 147.708 74.5789 147.676 75.4065C147.676 75.8025 147.676 76.1272 147.676 76.3728C147.671 76.494 147.655 76.6146 147.629 76.7331Z" fill="#263238"/>
<path d="M159.449 76.7327C159.445 76.6853 159.445 76.6375 159.449 76.5901C159.449 76.4872 159.449 76.3604 159.449 76.1941C159.449 75.8377 159.449 75.3546 159.43 74.7566C159.43 73.5449 159.406 71.8658 159.402 69.9611L159.469 70.0244H158.226L158.293 69.9611V71.0065C158.293 71.351 158.293 71.6876 158.293 72.0163C158.293 72.6776 158.293 73.2994 158.293 73.8815C158.293 75.0299 158.273 76.004 158.269 76.7168L158.234 76.6812H159.141H159.386H159.477C159.373 76.6885 159.268 76.6885 159.164 76.6812L158.234 76.701H158.198V76.6654C158.198 75.9526 158.198 74.9784 158.174 73.83C158.174 73.2479 158.174 72.642 158.174 71.9648C158.174 71.6362 158.174 71.2996 158.174 70.955V69.9096L158.242 69.8423H159.548V69.9096C159.548 71.8421 159.548 73.5449 159.521 74.7527C159.521 75.3427 159.521 75.8219 159.501 76.1743C159.501 76.3248 159.501 76.4515 159.501 76.5703C159.501 76.6891 159.449 76.7366 159.449 76.7327Z" fill="#263238"/>
<path d="M150.619 76.7329C150.614 76.6749 150.614 76.6167 150.619 76.5587C150.619 76.432 150.619 76.2696 150.619 76.0676C150.619 75.636 150.619 75.0301 150.599 74.2777C150.599 72.761 150.599 70.6662 150.571 68.3021L150.638 68.3694H149.395C149.53 68.2347 149.431 68.3338 149.462 68.306V69.6445C149.462 70.0841 149.462 70.5117 149.462 70.9315C149.462 71.7671 149.462 72.5551 149.462 73.2798C149.462 74.7212 149.443 75.9092 149.435 76.7329L149.403 76.7012H150.318H150.559H150.646H150.571H150.334H149.403H149.371V76.6696C149.371 75.8459 149.371 74.6579 149.348 73.2164C149.348 72.4918 149.348 71.7037 149.348 70.8682C149.348 70.4484 149.348 70.0207 149.348 69.5812V68.2427C149.379 68.211 149.28 68.306 149.415 68.1714H150.722V68.2347C150.722 70.6107 150.702 72.7294 150.694 74.2579C150.694 75.0024 150.694 75.6043 150.674 76.032C150.674 76.23 150.674 76.3884 150.674 76.5072C150.674 76.626 150.619 76.7369 150.619 76.7329Z" fill="#263238"/>
<path d="M153.541 76.7053C153.54 76.6828 153.54 76.6603 153.541 76.6379V76.4281C153.541 76.2459 153.541 75.9925 153.541 75.6717C153.541 75.0104 153.541 74.0639 153.522 72.8997C153.522 70.5475 153.502 67.2963 153.49 63.6452L153.557 63.7125H152.302L152.365 63.6491V67.8349C152.365 69.1575 152.365 70.4009 152.365 71.5335C152.365 73.7828 152.342 75.5846 152.334 76.6815L152.31 76.6577H153.225H153.549C153.549 76.6577 153.526 76.6577 153.474 76.6577H153.252H152.322H152.294V76.63C152.294 75.5133 152.294 73.7115 152.266 71.482C152.266 70.3494 152.266 69.106 152.266 67.7834C152.266 67.1181 152.266 66.437 152.266 65.736V63.5977C152.294 63.566 152.199 63.661 152.334 63.5264H153.64V63.5937C153.64 67.2606 153.64 70.5316 153.613 72.8957C153.613 74.06 153.613 75.0025 153.593 75.6677C153.593 75.9845 153.593 76.234 153.593 76.4122V76.6023C153.545 76.6894 153.545 76.7092 153.541 76.7053Z" fill="#263238"/>
<path d="M156.539 76.7052C156.539 76.7052 156.539 76.6656 156.539 76.5903C156.539 76.5151 156.539 76.3963 156.539 76.2537C156.539 75.9567 156.539 75.5251 156.539 74.9747C156.539 73.8619 156.539 72.2541 156.519 70.2702C156.519 66.3102 156.519 60.7939 156.491 54.6559L156.559 54.7232H155.315C155.446 54.5926 155.355 54.6916 155.382 54.6638V58.4536C155.382 59.6891 155.382 60.8929 155.382 62.0532C155.382 64.3777 155.382 66.532 155.382 68.4605C155.382 72.3017 155.355 75.2202 155.347 76.7052H156.277H156.59C156.59 76.7052 156.566 76.7052 156.515 76.7052H156.289H155.347H155.327V76.6814C155.327 75.1964 155.307 72.2779 155.295 68.4367C155.295 66.5082 155.295 64.354 155.295 62.0294C155.295 60.8692 155.295 59.6534 155.295 58.4298V54.648C155.327 54.6163 155.228 54.7074 155.363 54.5728H156.669V54.648C156.669 60.8058 156.669 66.3221 156.642 70.3098C156.642 72.2898 156.642 73.8738 156.622 74.9984C156.622 75.5449 156.622 75.9686 156.622 76.2656C156.622 76.4042 156.622 76.5111 156.622 76.5903C156.622 76.6695 156.539 76.7091 156.539 76.7052Z" fill="#263238"/>
<path d="M23.6016 78.0122L24.6589 96.5569L55.6855 94.7868L23.6016 78.0122ZM28.7852 85.2075L42.1304 92.3355L29.2327 93.0602L28.7852 85.2075Z" fill="#FF9F1C"/>
<path d="M26.6825 79.6318C26.5836 80.0404 26.4176 80.4298 26.1914 80.7842C26.0245 81.1728 25.7928 81.5303 25.5063 81.8415C25.6033 81.4286 25.7693 81.0349 25.9974 80.6773C26.1665 80.2934 26.398 79.9401 26.6825 79.6318Z" fill="#263238"/>
<path d="M31.4421 82.0908C31.343 82.4944 31.1771 82.8786 30.9511 83.2273C30.7872 83.6062 30.558 83.9534 30.2739 84.253C30.3697 83.8489 30.5345 83.4645 30.761 83.1165C30.9242 82.7362 31.1549 82.3887 31.4421 82.0908Z" fill="#263238"/>
<path d="M36.1981 84.5503C36.0601 84.9397 35.8565 85.3026 35.5962 85.6235C35.3929 85.9863 35.1244 86.3084 34.8042 86.5739C34.9417 86.183 35.1453 85.8187 35.4061 85.4967C35.6116 85.1365 35.8798 84.816 36.1981 84.5503Z" fill="#263238"/>
<path d="M40.8793 87.1201C40.7457 87.5127 40.5418 87.8777 40.2774 88.1972C40.0693 88.5568 39.8015 88.8782 39.4854 89.1476C39.6189 88.755 39.8229 88.39 40.0873 88.0705C40.2953 87.711 40.5631 87.3896 40.8793 87.1201Z" fill="#263238"/>
<path d="M45.7658 89.6265C45.65 90.0362 45.4652 90.4232 45.2194 90.7709C45.0357 91.1524 44.7894 91.5004 44.4907 91.8005C44.7848 91.0066 45.2164 90.2706 45.7658 89.6265Z" fill="#263238"/>
<path d="M50.8384 92.2681C50.7449 92.6562 50.5811 93.0239 50.3553 93.3531C50.1905 93.7164 49.9626 94.0476 49.6821 94.3312C49.7778 93.9419 49.9428 93.573 50.1692 93.2422C50.3299 92.8788 50.5569 92.5485 50.8384 92.2681Z" fill="#263238"/>
<path d="M28.1675 80.408C28.219 80.4397 28.1318 80.709 27.9695 81.0178C27.8071 81.3267 27.6329 81.5445 27.5735 81.5168C27.5141 81.4891 27.6091 81.2158 27.7715 80.9109C27.9338 80.606 28.116 80.3882 28.1675 80.408Z" fill="#263238"/>
<path d="M29.7238 81.1805C29.7792 81.2082 29.6882 81.4815 29.5258 81.7864C29.3634 82.0913 29.1932 82.317 29.1298 82.2893C29.0664 82.2616 29.1694 81.9884 29.3278 81.6795C29.4862 81.3706 29.6723 81.1568 29.7238 81.1805Z" fill="#263238"/>
<path d="M33.1968 83.0213C33.2482 83.053 33.1611 83.3223 32.9988 83.6312C32.8364 83.9401 32.6622 84.1618 32.6028 84.1301C32.5434 84.0985 32.6384 83.8292 32.8008 83.5243C32.9631 83.2193 33.1453 82.9936 33.1968 83.0213Z" fill="#263238"/>
<path d="M34.7568 83.8017C34.8083 83.8294 34.7212 84.1026 34.5588 84.4076C34.3965 84.7125 34.2222 84.9382 34.1628 84.9105C34.1034 84.8828 34.1985 84.6095 34.3608 84.3007C34.5232 83.9918 34.7014 83.774 34.7568 83.8017Z" fill="#263238"/>
<path d="M37.897 85.5599C37.9525 85.5876 37.8614 85.8609 37.699 86.1658C37.5367 86.4707 37.3664 86.6964 37.303 86.6687C37.2397 86.641 37.3387 86.3677 37.501 86.0589C37.6634 85.75 37.8456 85.5361 37.897 85.5599Z" fill="#263238"/>
<path d="M39.3863 86.3281C39.4417 86.3558 39.3507 86.6291 39.1883 86.934C39.0259 87.2389 38.8557 87.4647 38.7923 87.4369C38.7289 87.4092 38.8279 87.132 38.9903 86.8271C39.1527 86.5222 39.3348 86.3281 39.3863 86.3281Z" fill="#263238"/>
<path d="M42.5977 88.0072C42.6492 88.0389 42.5621 88.3081 42.3997 88.617C42.2374 88.9259 42.0671 89.1437 42.0037 89.116C41.9404 89.0883 42.0394 88.815 42.2017 88.5101C42.3641 88.2052 42.5462 87.9795 42.5977 88.0072Z" fill="#263238"/>
<path d="M44.3242 88.9222C44.3757 88.9539 44.2886 89.2232 44.1262 89.5321C43.9639 89.8409 43.7896 90.0627 43.7302 90.031C43.6708 89.9993 43.7659 89.7301 43.9282 89.4251C44.0906 89.1202 44.2727 88.8945 44.3242 88.9222Z" fill="#263238"/>
<path d="M47.4292 90.5576C47.4807 90.5853 47.3936 90.8585 47.2312 91.1634C47.0688 91.4684 46.8946 91.6941 46.8352 91.6663C46.7758 91.6386 46.8708 91.3654 47.0332 91.0565C47.1956 90.7476 47.3738 90.5298 47.4292 90.5576Z" fill="#263238"/>
<path d="M49.2187 91.4759C49.2702 91.5076 49.1831 91.7809 49.0207 92.0858C48.8584 92.3907 48.6841 92.6164 48.6247 92.5847C48.5653 92.553 48.6604 92.2838 48.8227 91.9789C48.9851 91.6739 49.1673 91.4482 49.2187 91.4759Z" fill="#263238"/>
<path d="M76.6655 52.209C76.6655 52.209 76.6655 52.1852 76.6655 52.1416C76.6655 52.0981 76.6655 52.0268 76.6655 51.9436C76.6655 51.7694 76.6655 51.516 76.6655 51.1873C76.6655 50.522 76.6655 49.5558 76.6655 48.3282C76.6655 45.873 76.6457 42.3882 76.6338 38.1747L76.6932 38.2302H62.6589L62.7223 38.1629C62.7223 43.3109 62.7223 48.1183 62.7223 52.1971L62.6669 52.1377L72.8203 52.1694H75.6794H75.7032H72.8599L62.6669 52.1971H62.5679V52.1377C62.5679 48.0589 62.5679 43.2435 62.5679 38.1035V38.0361H62.6352H76.6694H76.7249V38.0955C76.7249 42.309 76.7051 45.8215 76.6971 48.2886C76.6971 49.5082 76.6971 50.4705 76.6971 51.1318C76.6971 51.4566 76.6971 51.7021 76.6971 51.8763V52.1298L76.6655 52.209Z" fill="#FF9F1C"/>
<path d="M76.6656 52.2084C76.6995 52.1809 76.7352 52.1557 76.7725 52.1331L77.0933 51.9272L78.3367 51.1352L82.9065 48.3117L82.8828 48.3553C82.8828 44.6923 82.8828 39.8413 82.8828 34.5309L82.9461 34.5982H82.9105H69.0743H69.098L64.3737 37.2237L63.0828 37.9444L62.7462 38.1266L62.6313 38.186C62.6658 38.1605 62.7014 38.1367 62.7383 38.1147L63.0709 37.9167L64.346 37.1762L69.0347 34.4834H82.8709H82.9739V34.5507C82.9739 39.8611 82.9739 44.7121 82.9739 48.3751V48.4028H82.9501L78.3565 51.2105L77.1012 51.9708L76.7725 52.1648L76.6656 52.2084Z" fill="#FF9F1C"/>
<path d="M82.9302 34.5156C82.95 34.5473 81.564 35.3907 79.8335 36.4005C78.103 37.4103 76.6655 38.2063 76.6655 38.1746C76.6655 38.1429 78.0317 37.2995 79.7662 36.2857C81.5007 35.2719 82.9144 34.4839 82.9302 34.5156Z" fill="#FF9F1C"/>
<path d="M63.2965 51.6306C63.2965 51.6623 63.1777 51.7771 62.9955 51.8801C62.8133 51.983 62.647 52.0464 62.6312 52.0147C62.6153 51.983 62.746 51.8721 62.9282 51.7652C63.1103 51.6583 63.2767 51.5989 63.2965 51.6306Z" fill="#FF9F1C"/>
<path d="M64.6275 50.8664C64.6473 50.8981 64.5127 51.0129 64.3266 51.1159C64.1404 51.2189 63.9781 51.2822 63.9622 51.2505C63.9464 51.2189 64.0771 51.108 64.2632 51.0011C64.4493 50.8941 64.6077 50.8347 64.6275 50.8664Z" fill="#FF9F1C"/>
<path d="M65.9577 50.1018C65.9775 50.1335 65.8429 50.2483 65.6607 50.3512C65.4786 50.4542 65.3123 50.5176 65.2925 50.4859C65.2727 50.4542 65.4073 50.3433 65.5934 50.2364C65.7795 50.1295 65.9419 50.0701 65.9577 50.1018Z" fill="#FF9F1C"/>
<path d="M67.2922 49.3376C67.2922 49.3693 67.1734 49.4802 66.9913 49.5871C66.8091 49.694 66.6428 49.7534 66.623 49.7217C66.6032 49.6901 66.7418 49.5792 66.9239 49.4723C67.1061 49.3653 67.2724 49.3059 67.2922 49.3376Z" fill="#FF9F1C"/>
<path d="M68.6226 48.5735C68.6226 48.6051 68.5078 48.716 68.3217 48.8229C68.1356 48.9299 67.9732 48.9893 67.9574 48.9576C67.9415 48.9259 68.0722 48.815 68.2544 48.7081C68.4365 48.6012 68.6028 48.5418 68.6226 48.5735Z" fill="#FF9F1C"/>
<path d="M68.9595 47.231C68.9951 47.231 69.0228 47.4013 69.0228 47.627C69.0228 47.8527 68.9911 48.023 68.9515 48.023C68.9119 48.023 68.8882 47.8527 68.8882 47.627C68.8882 47.4013 68.9238 47.2271 68.9595 47.231Z" fill="#FF9F1C"/>
<path d="M68.9712 45.6943C69.0068 45.6943 69.0385 45.8646 69.0345 46.0903C69.0306 46.3161 69.0029 46.4863 68.9672 46.4863C68.9316 46.4863 68.8999 46.3121 68.8999 46.0903C68.8999 45.8686 68.9355 45.6943 68.9712 45.6943Z" fill="#FF9F1C"/>
<path d="M68.9834 44.1582C69.019 44.1582 69.0507 44.3324 69.0468 44.5542C69.0428 44.776 69.0151 44.9502 68.9794 44.9502C68.9438 44.9502 68.9121 44.776 68.9121 44.5542C68.9121 44.3324 68.9477 44.1582 68.9834 44.1582Z" fill="#FF9F1C"/>
<path d="M68.9954 42.6216C69.031 42.6216 69.0627 42.7958 69.0588 43.0176C69.0548 43.2393 69.0271 43.4136 68.9914 43.4136C68.9558 43.4136 68.9241 43.2433 68.9281 43.0176C68.932 42.7919 68.9598 42.6216 68.9954 42.6216Z" fill="#FF9F1C"/>
<path d="M69.0066 41.0894C69.0423 41.0894 69.0739 41.2596 69.07 41.4854C69.066 41.7111 69.0383 41.8814 69.0027 41.8814C68.967 41.8814 68.9353 41.7111 68.9393 41.4854C68.9433 41.2596 68.971 41.0894 69.0066 41.0894Z" fill="#FF9F1C"/>
<path d="M69.0188 39.5527C69.0584 39.5527 69.0862 39.723 69.0822 39.9487C69.0782 40.1745 69.0505 40.3447 69.0149 40.3447C68.9792 40.3447 68.9475 40.1705 68.9515 39.9487C68.9555 39.727 68.9832 39.5527 69.0188 39.5527Z" fill="#FF9F1C"/>
<path d="M69.0306 38.0161C69.0702 38.0161 69.0979 38.1904 69.0939 38.4121C69.0899 38.6339 69.0622 38.8081 69.0266 38.8081C68.9909 38.8081 68.9593 38.6339 68.9632 38.4121C68.9672 38.1904 68.9949 38.0161 69.0306 38.0161Z" fill="#FF9F1C"/>
<path d="M69.0428 36.4795C69.0824 36.4795 69.1101 36.6537 69.1061 36.8755C69.1022 37.0973 69.0744 37.2715 69.0388 37.2715C69.0032 37.2715 68.9715 37.1012 68.9754 36.8755C68.9794 36.6498 69.0071 36.4795 69.0428 36.4795Z" fill="#FF9F1C"/>
<path d="M69.0545 34.9473C69.0941 34.9473 69.1218 35.1175 69.1178 35.3433C69.1139 35.569 69.0862 35.7393 69.0505 35.7393C69.0149 35.7393 68.9832 35.569 68.9872 35.3433C68.9911 35.1175 69.0188 34.9473 69.0545 34.9473Z" fill="#FF9F1C"/>
<path d="M82.166 48.3441C82.166 48.3124 82.3363 48.2847 82.562 48.2847C82.7877 48.2847 82.958 48.3124 82.958 48.3441C82.958 48.3757 82.7877 48.4074 82.562 48.4074C82.3363 48.4074 82.166 48.3797 82.166 48.3441Z" fill="#FF9F1C"/>
<path d="M80.6294 48.3441C80.6294 48.3124 80.7997 48.2847 81.0254 48.2847C81.2511 48.2847 81.4214 48.3124 81.4214 48.3441C81.4214 48.3757 81.2471 48.4074 81.0254 48.4074C80.8036 48.4074 80.6294 48.3797 80.6294 48.3441Z" fill="#FF9F1C"/>
<path d="M79.0933 48.3441C79.0933 48.3124 79.2635 48.2847 79.4893 48.2847C79.715 48.2847 79.8853 48.3124 79.8853 48.3441C79.8853 48.3757 79.715 48.4074 79.4893 48.4074C79.2635 48.4074 79.0933 48.3797 79.0933 48.3441Z" fill="#FF9F1C"/>
<path d="M77.5566 48.3441C77.5566 48.3124 77.7309 48.2847 77.9526 48.2847C78.1744 48.2847 78.3486 48.3124 78.3486 48.3441C78.3486 48.3757 78.1784 48.4074 77.9526 48.4074C77.7269 48.4074 77.5566 48.3797 77.5566 48.3441Z" fill="#FF9F1C"/>
<path d="M76.0322 48.3441C76.0322 48.3124 76.2025 48.2847 76.4282 48.2847C76.6539 48.2847 76.8242 48.3124 76.8242 48.3441C76.8242 48.3757 76.6539 48.4074 76.4282 48.4074C76.2025 48.4074 76.0322 48.3797 76.0322 48.3441Z" fill="#FF9F1C"/>
<path d="M74.4878 48.3441C74.4878 48.3124 74.6581 48.2847 74.8838 48.2847C75.1095 48.2847 75.2798 48.3124 75.2798 48.3441C75.2798 48.3757 75.1056 48.4074 74.8838 48.4074C74.662 48.4074 74.4878 48.3797 74.4878 48.3441Z" fill="#FF9F1C"/>
<path d="M72.9512 48.3441C72.9512 48.3124 73.1215 48.2847 73.3472 48.2847C73.5729 48.2847 73.7432 48.3124 73.7432 48.3441C73.7432 48.3757 73.5729 48.4074 73.3472 48.4074C73.1215 48.4074 72.9512 48.3797 72.9512 48.3441Z" fill="#FF9F1C"/>
<path d="M71.4146 48.3441C71.4146 48.3124 71.5888 48.2847 71.8105 48.2847C72.0323 48.2847 72.2065 48.3124 72.2065 48.3441C72.2065 48.3757 72.0363 48.4074 71.8105 48.4074C71.5848 48.4074 71.4146 48.3797 71.4146 48.3441Z" fill="#FF9F1C"/>
<path d="M69.8818 48.3441C69.8818 48.3124 70.0521 48.2847 70.2778 48.2847C70.5035 48.2847 70.6738 48.3124 70.6738 48.3441C70.6738 48.3757 70.5035 48.4074 70.2778 48.4074C70.0521 48.4074 69.8818 48.3797 69.8818 48.3441Z" fill="#FF9F1C"/>
<path d="M68.9517 48.3441C68.9517 48.3124 68.9873 48.2847 69.0309 48.2847C69.0744 48.2847 69.114 48.3124 69.114 48.3441C69.114 48.3757 69.0784 48.4074 69.0309 48.4074C69.0215 48.4085 69.012 48.4078 69.0029 48.4052C68.9939 48.4026 68.9854 48.3982 68.978 48.3923C68.9707 48.3864 68.9645 48.3791 68.96 48.3708C68.9555 48.3625 68.9526 48.3535 68.9517 48.3441Z" fill="#FF9F1C"/>
<path d="M84.6291 43.6672C84.7463 43.6786 84.8644 43.6786 84.9816 43.6672C85.1354 43.6332 85.2801 43.5664 85.4059 43.4714C85.5316 43.3764 85.6354 43.2555 85.7102 43.1168C85.8092 42.9069 85.8571 42.6767 85.8503 42.4448C85.8434 42.2129 85.7818 41.9859 85.6706 41.7822C85.6448 41.7263 85.6064 41.6771 85.5582 41.6386C85.5101 41.6001 85.4537 41.5733 85.3934 41.5605C85.2668 41.5446 85.1389 41.5787 85.037 41.6555C84.8257 41.8606 84.6715 42.1172 84.5895 42.4C84.4787 42.7071 84.412 43.0285 84.3915 43.3544H84.2608C84.2608 42.3366 84.241 41.4496 84.241 40.816C84.241 40.519 84.241 40.2695 84.241 40.0715C84.2302 39.9821 84.2302 39.8917 84.241 39.8022C84.2592 39.8909 84.2685 39.9811 84.2688 40.0715C84.2688 40.2695 84.2688 40.519 84.3004 40.816C84.3242 41.4496 84.348 42.3366 84.3678 43.3544H84.2371C84.2583 43.0163 84.3276 42.6829 84.443 42.3644C84.4975 42.2154 84.5609 42.07 84.6331 41.9288C84.7048 41.7852 84.8076 41.6594 84.934 41.5605C84.9989 41.5112 85.0729 41.4753 85.1518 41.4549C85.2306 41.4345 85.3128 41.43 85.3934 41.4417C85.4701 41.4602 85.5417 41.4954 85.6033 41.5446C85.6649 41.5939 85.7149 41.6561 85.7498 41.7268C85.867 41.9497 85.9283 42.1977 85.9283 42.4495C85.9283 42.7013 85.867 42.9493 85.7498 43.1722C85.668 43.3179 85.5542 43.4431 85.417 43.5384C85.2799 43.6338 85.1228 43.6967 84.9578 43.7226C84.8686 43.7373 84.7777 43.7373 84.6885 43.7226C84.6658 43.7076 84.6457 43.6889 84.6291 43.6672Z" fill="#FF9F1C"/>
<path d="M45.706 109.387C45.706 109.387 45.7615 109.387 45.8684 109.435C45.9753 109.482 46.1337 109.518 46.3357 109.601C46.9271 109.834 47.4925 110.129 48.0226 110.48C48.8671 111.036 49.616 111.725 50.2402 112.52C51.078 113.571 51.6462 114.81 51.8955 116.131C52.1785 117.741 51.9643 119.398 51.2817 120.883C50.906 121.71 50.3826 122.462 49.7373 123.101C49.3995 123.435 49.0295 123.735 48.6325 123.996C48.4226 124.114 48.2365 124.241 47.9989 124.352C47.7613 124.463 47.5633 124.57 47.3296 124.653C45.4843 125.386 43.3696 125.417 41.2471 125.215C40.1858 125.112 39.1166 124.958 38.0276 124.788C36.9216 124.629 35.8312 124.376 34.7685 124.031C33.6939 123.69 32.7007 123.132 31.85 122.392C31.4423 122.019 31.083 121.595 30.7808 121.133C30.4941 120.669 30.2641 120.174 30.0957 119.656C29.7766 118.647 29.6701 117.583 29.7829 116.531C29.8943 115.527 30.1868 114.552 30.6461 113.652C31.5506 112.008 32.9161 110.665 34.5745 109.787C36.0033 109.016 37.5641 108.519 39.176 108.322C40.5014 108.165 41.8402 108.156 43.1677 108.294C44.1674 108.4 45.1603 108.563 46.1416 108.781C46.9336 108.964 47.5672 109.13 47.987 109.245L48.4622 109.383L48.6245 109.439L48.4582 109.399L47.9791 109.276C47.5593 109.169 46.9376 109.011 46.1297 108.841C45.1478 108.633 44.1549 108.481 43.1558 108.385C41.8382 108.253 40.5098 108.269 39.1958 108.433C37.6012 108.637 36.0584 109.135 34.6457 109.902C33.0149 110.772 31.6731 112.099 30.7847 113.72C30.3361 114.606 30.053 115.567 29.9492 116.555C29.8409 117.586 29.946 118.628 30.2581 119.616C30.4201 120.122 30.6435 120.606 30.9233 121.057C31.2159 121.509 31.5646 121.921 31.9609 122.285C32.7969 123.009 33.7708 123.556 34.8239 123.893C35.8804 124.234 36.9641 124.485 38.0632 124.641C39.1443 124.811 40.2175 124.966 41.2708 125.069C43.3696 125.271 45.4724 125.243 47.2861 124.522C49.0156 123.854 50.4116 122.531 51.1708 120.84C51.8471 119.378 52.0652 117.746 51.7965 116.159C51.5516 114.858 50.996 113.635 50.1769 112.595C49.5635 111.804 48.8283 111.116 47.9989 110.555C47.4733 110.202 46.915 109.9 46.3317 109.653C46.1297 109.569 45.9753 109.518 45.8684 109.474L45.706 109.387Z" fill="#263238"/>
<path d="M35.133 119.62C35.0282 119.647 34.9204 119.66 34.8122 119.659L33.9291 119.703H33.6361C33.5244 119.718 33.4111 119.718 33.2995 119.703C33.2288 119.681 33.1693 119.633 33.1331 119.568C33.1032 119.509 33.0857 119.445 33.0817 119.378L33.0579 119.018C33.0302 118.519 32.9985 117.98 32.9668 117.434C32.9351 116.887 32.8995 116.329 32.8955 115.826C32.8889 115.58 32.9462 115.335 33.0619 115.117C33.1764 114.937 33.3457 114.798 33.545 114.721C33.8308 114.622 34.1353 114.588 34.436 114.622C34.5454 114.625 34.6536 114.645 34.7567 114.682C34.6487 114.691 34.5401 114.691 34.432 114.682C34.1443 114.669 33.8572 114.717 33.5885 114.82C33.419 114.899 33.2799 115.031 33.1925 115.197C33.0935 115.395 33.0459 115.616 33.0539 115.838C33.0539 116.321 33.1133 116.872 33.1371 117.422C33.1609 117.973 33.1925 118.527 33.2203 119.006C33.244 119.24 33.1925 119.533 33.3549 119.572C33.4534 119.587 33.5534 119.587 33.6519 119.572H34.8399C34.9392 119.576 35.0377 119.592 35.133 119.62Z" fill="#263238"/>
<path d="M34.6894 117.026C34.4228 117.107 34.1438 117.139 33.8657 117.121C33.5883 117.151 33.3077 117.13 33.0381 117.058C33.3042 116.974 33.5837 116.942 33.8618 116.963C34.1392 116.932 34.4198 116.954 34.6894 117.026Z" fill="#263238"/>
<path d="M38.8079 116.289C38.3922 116.348 37.9721 116.369 37.5526 116.353C37.1362 116.386 36.7177 116.386 36.3013 116.353C36.7044 116.225 37.1262 116.168 37.5487 116.182C37.9714 116.149 38.3968 116.185 38.8079 116.289Z" fill="#263238"/>
<path d="M39.0536 118.183C38.6461 118.276 38.2267 118.305 37.8102 118.27C37.3945 118.286 36.9788 118.237 36.5786 118.123C36.9895 118.084 37.4032 118.084 37.8141 118.123C38.2282 118.106 38.6431 118.126 39.0536 118.183Z" fill="#263238"/>
<path d="M45.7105 119.318C45.7105 119.318 45.7105 119.148 45.7105 118.835C45.6915 118.394 45.6115 117.956 45.4729 117.536C45.4095 117.242 45.2474 116.978 45.0135 116.788C44.9466 116.75 44.8702 116.733 44.7936 116.738C44.717 116.743 44.6434 116.77 44.5819 116.816C44.4422 116.92 44.3294 117.055 44.2532 117.212C43.9364 117.991 43.801 118.832 43.8572 119.671H43.7028C43.748 119.064 43.7401 118.455 43.679 117.849C43.6572 117.604 43.6228 117.359 43.576 117.117C43.5369 116.893 43.4189 116.691 43.2434 116.546C43.1592 116.486 43.0581 116.453 42.9543 116.453C42.8506 116.453 42.7495 116.486 42.6652 116.546C42.4874 116.663 42.358 116.841 42.3009 117.045C42.2442 117.251 42.207 117.462 42.19 117.675C42.1663 117.885 42.1465 118.091 42.1386 118.293C42.1168 118.669 42.1168 119.046 42.1386 119.421H42.0158C41.9841 118.53 41.9564 117.802 41.9366 117.267C41.9366 117.03 41.9366 116.836 41.9366 116.681C41.928 116.613 41.928 116.544 41.9366 116.475C41.9524 116.543 41.9617 116.612 41.9643 116.681L42.0118 117.267C42.0435 117.798 42.091 118.526 42.1465 119.414H42.0237C42.0035 119.034 42.0035 118.653 42.0237 118.273C42.0237 118.071 42.0475 117.877 42.0712 117.647C42.0874 117.425 42.1258 117.205 42.1861 116.99C42.2511 116.751 42.4001 116.543 42.6058 116.404C42.7243 116.329 42.8619 116.291 43.0018 116.293C43.1443 116.294 43.283 116.339 43.3978 116.424C43.605 116.589 43.7455 116.824 43.7938 117.085C43.8443 117.334 43.8814 117.585 43.9047 117.837C43.9579 118.453 43.9579 119.071 43.9047 119.687H43.7503C43.698 118.826 43.8471 117.965 44.1859 117.172C44.276 116.99 44.4126 116.834 44.5819 116.721C44.663 116.662 44.7592 116.629 44.859 116.624C44.9587 116.619 45.0578 116.643 45.1442 116.693C45.4001 116.9 45.5752 117.19 45.6392 117.513C45.77 117.944 45.8367 118.392 45.8372 118.843C45.8372 119.002 45.8372 119.124 45.8174 119.204C45.7882 119.247 45.7521 119.286 45.7105 119.318Z" fill="#263238"/>
<path d="M49.1791 119.069C49.1791 119.069 49.1237 119.137 48.9891 119.204C48.7975 119.297 48.5882 119.349 48.3753 119.355C48.0535 119.364 47.7362 119.278 47.4645 119.105C47.1312 118.884 46.8938 118.546 46.7998 118.157C46.7058 117.769 46.7622 117.359 46.9576 117.01C47.1216 116.733 47.3642 116.511 47.6545 116.373C47.8462 116.28 48.0556 116.23 48.2683 116.226C48.3463 116.22 48.4246 116.231 48.498 116.258C48.2233 116.281 47.9549 116.353 47.706 116.472C47.4473 116.613 47.2334 116.825 47.0883 117.082C46.9223 117.401 46.8773 117.77 46.9617 118.12C47.0462 118.47 47.2542 118.778 47.5476 118.986C47.7948 119.149 48.0832 119.239 48.3792 119.244C48.6545 119.237 48.9259 119.178 49.1791 119.069Z" fill="#263238"/>
<path d="M50.1135 114.583C49.5166 114.619 48.9256 114.721 48.3513 114.888L48.086 114.975L48.284 114.773C48.6653 114.425 48.9959 114.025 49.2661 113.585C49.4772 113.217 49.5502 112.786 49.472 112.369C49.4284 112.183 49.3175 112.037 49.1671 112.033C49.0105 112.035 48.8569 112.076 48.7196 112.151C48.5096 112.259 48.3237 112.409 48.1731 112.591C48.0662 112.722 48.0226 112.809 48.0107 112.801C48.0269 112.71 48.0665 112.626 48.1256 112.555C48.2621 112.346 48.4486 112.175 48.6681 112.056C48.8205 111.961 48.9954 111.908 49.175 111.902C49.2302 111.904 49.2844 111.917 49.3342 111.941C49.384 111.964 49.4282 111.998 49.4641 112.04C49.5351 112.124 49.5853 112.223 49.6106 112.33C49.7085 112.783 49.6351 113.257 49.4047 113.66C49.1289 114.119 48.7828 114.532 48.379 114.884L48.3117 114.765C48.7334 114.638 49.1703 114.569 49.6106 114.559C49.7783 114.537 49.9486 114.545 50.1135 114.583Z" fill="#263238"/>
<path d="M76.6342 109.898L85.073 108.27L101.261 111.985L109.467 113.695L109.585 124.906L91.2823 128.276L78.9311 124.617L74.2622 117.746L76.6342 109.898Z" fill="#FFBE9D"/>
<path d="M70.6387 111.014L78.6023 109.137C78.6023 109.137 84.2334 126.561 98.129 125.797C109.455 125.183 109.467 113.695 109.467 113.695L117.747 115.156C117.747 115.156 121.22 136.18 117.414 150.927C114.246 163.203 111.435 180.025 111.435 180.025H56.4263L70.6387 111.014Z" fill="#FF9F1C"/>
<path d="M151.332 164.882C151.332 164.882 128.645 125.136 124.562 120.035C120.091 114.452 116.523 115.097 116.523 115.097L114.124 141.871L133.413 169.238L138.01 170.897L151.332 164.882Z" fill="#FF9F1C"/>
<path d="M71.5891 110.792C71.5891 110.792 58.6953 111.822 54.07 132.968C51.9792 142.524 49.318 153.723 48.5736 161.247C48.0192 166.708 51.3891 172.386 56.8341 173.083L63.6691 174.35C65.4748 174.686 67.3403 174.316 68.8815 173.317C70.4226 172.318 71.5221 170.766 71.9534 168.981L74.2621 159.421L68.1122 157.354L69.5338 128.878L71.5891 110.792Z" fill="#FF9F1C"/>
<path d="M118.8 129.935C118.83 130.03 118.85 130.129 118.86 130.228C118.895 130.442 118.935 130.727 118.99 131.08C119.018 131.266 119.046 131.476 119.081 131.697C119.117 131.919 119.129 132.168 119.153 132.434C119.208 132.96 119.271 133.562 119.299 134.232C119.395 135.797 119.405 137.366 119.331 138.932C119.238 140.849 119.048 142.761 118.761 144.658C118.464 146.678 118.091 148.587 117.715 150.313C117.339 152.04 116.963 153.588 116.642 154.887C116.321 156.186 116.04 157.227 115.85 157.948C115.755 158.293 115.68 158.57 115.62 158.776C115.596 158.873 115.566 158.968 115.529 159.061C115.537 158.962 115.555 158.864 115.581 158.768C115.628 158.554 115.696 158.277 115.775 157.928L116.503 154.836C116.808 153.533 117.173 151.984 117.533 150.258C117.893 148.531 118.266 146.626 118.563 144.611C118.86 142.595 119.062 140.651 119.145 138.904C119.228 137.158 119.236 135.554 119.145 134.224C119.145 133.558 119.073 132.957 119.03 132.426C119.01 132.165 118.99 131.919 118.974 131.689C118.959 131.46 118.923 131.262 118.903 131.072C118.864 130.719 118.836 130.434 118.812 130.22C118.802 130.126 118.798 130.03 118.8 129.935Z" fill="#263238"/>
<path d="M74.8638 160.443C74.8364 160.387 74.8139 160.329 74.7964 160.269C74.7568 160.138 74.7014 159.972 74.6341 159.758L74.3806 158.938C74.3093 158.565 74.152 158.214 73.9213 157.913C73.5821 157.587 73.177 157.339 72.7333 157.184C72.2116 156.987 71.6736 156.836 71.1255 156.732C69.8189 156.49 68.4942 156.358 67.1655 156.336H67.0586V156.233L68.2228 148.642C68.9713 143.862 69.6524 139.534 70.1474 136.366C70.4048 134.814 70.6107 133.551 70.7572 132.656C70.8285 132.232 70.8879 131.895 70.9315 131.646C70.9315 131.543 70.9671 131.456 70.983 131.384C70.9858 131.354 70.9938 131.325 71.0067 131.297C71.0128 131.327 71.0128 131.358 71.0067 131.388C71.0067 131.46 71.0067 131.547 70.975 131.654C70.9434 131.903 70.8958 132.24 70.8404 132.668C70.7097 133.566 70.5236 134.834 70.2979 136.39C69.8148 139.558 69.1574 143.878 68.4288 148.666C68.0011 151.398 67.6011 153.984 67.2408 156.253L67.1497 156.146C68.4945 156.181 69.8339 156.331 71.1532 156.594C71.709 156.705 72.2536 156.865 72.7808 157.073C73.2427 157.242 73.6608 157.513 74.0044 157.865C74.146 158.024 74.2513 158.212 74.3133 158.415L74.4598 158.942C74.5509 159.263 74.6262 159.54 74.6895 159.77C74.7529 159.999 74.7925 160.166 74.8242 160.289C74.8421 160.339 74.8554 160.39 74.8638 160.443Z" fill="#263238"/>
<path d="M57.1035 163.674C57.1162 163.494 57.1508 163.316 57.2065 163.144C57.331 162.667 57.498 162.201 57.7054 161.754C58.3807 160.258 59.4335 158.964 60.7603 157.998C62.087 157.033 63.6422 156.428 65.273 156.246C65.7616 156.186 66.2546 156.17 66.7461 156.198C66.9276 156.2 67.1083 156.223 67.2847 156.265C66.6229 156.269 65.9619 156.31 65.3047 156.388C63.711 156.608 62.1963 157.218 60.8953 158.165C59.5944 159.111 58.5476 160.365 57.848 161.813C57.5668 162.42 57.3183 163.041 57.1035 163.674Z" fill="#263238"/>
<path d="M60.085 153.149C60.1858 153.123 60.2901 153.114 60.3938 153.121C60.6782 153.116 60.9626 153.129 61.2452 153.161C62.1803 153.255 63.0967 153.484 63.9658 153.842C64.8346 154.201 65.648 154.683 66.3814 155.271C66.6037 155.447 66.814 155.638 67.011 155.842C67.1496 155.988 67.2248 156.071 67.213 156.083C67.2011 156.095 66.8645 155.806 66.2942 155.386C64.7989 154.29 63.0591 153.576 61.2254 153.303C60.5245 153.2 60.085 153.184 60.085 153.149Z" fill="#263238"/>
<path d="M73.4304 125.797C73.4045 125.61 73.3952 125.42 73.4027 125.231C73.4027 124.867 73.3789 124.344 73.3314 123.698C73.2125 122.014 72.9233 120.346 72.4681 118.721C72.0065 117.097 71.3843 115.524 70.6109 114.024C70.3099 113.45 70.0565 112.99 69.8704 112.682C69.766 112.524 69.6759 112.357 69.6011 112.183C69.7274 112.323 69.8402 112.476 69.9377 112.638C70.1476 112.939 70.4208 113.386 70.7297 113.957C72.3778 116.948 73.3129 120.279 73.4621 123.69C73.4898 124.34 73.4858 124.878 73.4621 125.231C73.4702 125.42 73.4596 125.61 73.4304 125.797Z" fill="#263238"/>
<g opacity="0.3">
<path opacity="0.3" d="M118.214 147.672C121.501 142.1 121.572 134.861 118.701 129.06C119.625 135.241 119.426 141.538 118.115 147.648" fill="#1E2959"/>
</g>
<g opacity="0.3">
<path opacity="0.3" d="M88.9497 153.972C86.4549 154.705 83.0097 154.883 80.5664 153.972C82.4712 156.677 86.1421 157.655 89.3259 156.776C92.5098 155.897 95.4481 152.709 95.6936 149.41C94.1532 151.493 91.4485 153.251 88.9497 153.972Z" fill="#1E2959"/>
</g>
<path d="M98.1289 144.975C98.1174 145.051 98.0974 145.126 98.0695 145.197C98.022 145.34 97.9665 145.557 97.8557 145.819C97.567 146.575 97.2077 147.303 96.7825 147.993C96.1556 149.021 95.3982 149.963 94.5293 150.796C92.3973 152.872 89.6451 154.193 86.6924 154.558C85.4989 154.713 84.2903 154.713 83.0968 154.558C82.2906 154.458 81.4953 154.285 80.7208 154.04C80.4436 153.957 80.2416 153.865 80.099 153.814C80.0267 153.789 79.9565 153.759 79.8892 153.723C80.1768 153.788 80.461 153.867 80.7406 153.96C84.0934 154.893 87.6691 154.596 90.8227 153.125C93.9448 151.59 96.4113 148.985 97.7725 145.783C98.0022 145.268 98.1091 144.967 98.1289 144.975Z" fill="#263238"/>
<path d="M70.3142 172.7C70.3142 172.7 70.2865 172.743 70.2152 172.807C70.1155 172.906 70.0083 172.997 69.8944 173.08C69.4802 173.389 69.0207 173.632 68.5322 173.801C67.8059 174.042 67.048 174.175 66.2829 174.197C65.3578 174.226 64.4317 174.193 63.5109 174.098C61.5309 173.927 59.7727 173.638 58.5015 173.413C57.864 173.298 57.3492 173.199 56.9967 173.123C56.809 173.098 56.6245 173.053 56.4463 172.989C56.6349 172.992 56.823 173.01 57.0086 173.044L58.5253 173.266C59.8004 173.46 61.5666 173.721 63.5307 173.892C64.4515 173.987 65.3772 174.025 66.3027 174.007C67.0523 173.991 67.7959 173.871 68.5124 173.65C69.1573 173.425 69.7646 173.105 70.3142 172.7Z" fill="#263238"/>
<path d="M115.038 68.5078L116.666 66.9238C118.832 67.8663 119.834 70.3809 120.202 72.7173C120.57 75.0537 120.515 77.5089 121.509 79.6552C122.269 81.3065 123.651 82.8232 123.489 84.6488C123.334 86.3714 121.774 87.7653 121.766 89.4958C121.766 91.163 123.152 92.4421 123.96 93.8993C125.596 96.8495 126.657 108.92 125.801 112.187C118.606 111.565 105.863 110.797 98.6636 109.141C100.56 96.7387 108.548 79.2355 115.038 68.5078Z" fill="#263238"/>
<path d="M118.258 79.5638C118.757 71.133 112.635 63.4189 104.101 62.4012C95.0443 61.3241 87.0332 67.8105 86.2808 76.6334L84.1582 112.25C84.1194 112.938 84.3118 113.62 84.7047 114.186C86.7956 117.243 90.5813 119.635 93.9671 120.106C97.2421 120.562 100.564 119.71 103.352 118.158C103.815 117.897 104.2 117.518 104.471 117.061C104.741 116.604 104.887 116.083 104.893 115.552L105.039 107.581C105.039 107.574 105.04 107.567 105.042 107.56C105.044 107.554 105.048 107.548 105.053 107.543C105.058 107.538 105.064 107.534 105.07 107.532C105.077 107.53 105.084 107.529 105.091 107.529C105.837 107.586 106.587 107.564 107.328 107.466C109.435 106.951 114.809 104.884 116.614 96.9958C117.216 94.3821 117.818 86.9571 118.258 79.5638Z" fill="#FFBE9D"/>
<path d="M106.544 91.2102C106.544 91.131 107.427 91.0439 108.857 90.9647C109.217 90.9647 109.561 90.9053 109.649 90.6677C109.702 90.3044 109.641 89.9336 109.474 89.6064L108.587 86.8344C107.36 82.9061 106.496 79.6866 106.655 79.643C106.813 79.5995 107.942 82.7397 109.169 86.6681C109.462 87.6383 109.744 88.561 110.013 89.4401C110.124 89.8361 110.326 90.3192 110.108 90.838C110.047 90.9589 109.96 91.0642 109.852 91.1459C109.744 91.2277 109.619 91.2835 109.486 91.3092C109.284 91.3494 109.078 91.364 108.872 91.3528C107.431 91.3448 106.548 91.2894 106.544 91.2102Z" fill="#263238"/>
<path d="M115.929 82.546C115.775 82.7163 114.84 81.9322 113.502 81.8926C112.163 81.853 111.166 82.5539 111.023 82.3717C110.952 82.2886 111.114 81.9757 111.55 81.651C112.125 81.2374 112.821 81.0258 113.53 81.0491C114.237 81.0735 114.916 81.3342 115.458 81.7896C115.874 82.146 116.028 82.4707 115.929 82.546Z" fill="#263238"/>
<path d="M102.331 82.8861C102.149 83.0564 101.175 82.1733 99.7134 82.0466C98.2522 81.9199 97.1157 82.5891 96.9692 82.3911C96.8979 82.3 97.0959 81.9951 97.5909 81.6704C98.2542 81.2774 99.0252 81.1054 99.7926 81.1794C100.561 81.2475 101.286 81.5629 101.86 82.0783C102.291 82.4624 102.418 82.8109 102.331 82.8861Z" fill="#263238"/>
<path d="M105.039 107.526C105.039 107.526 99.5822 107.585 93.0562 103.103C93.0562 103.103 94.7431 110.302 104.996 110.076L105.039 107.526Z" fill="#EB996E"/>
<path d="M105.733 94.4976C105.484 94.1471 105.151 93.8644 104.765 93.6755C104.379 93.4867 103.952 93.3976 103.523 93.4166C103.213 93.4211 102.907 93.488 102.623 93.6131C102.339 93.7383 102.084 93.9192 101.872 94.1452C101.669 94.3616 101.539 94.636 101.5 94.93C101.461 95.224 101.514 95.5228 101.654 95.7847C101.998 96.3351 102.782 96.5133 103.467 96.3707C104.146 96.1851 104.781 95.8675 105.337 95.4362C105.501 95.3306 105.646 95.1965 105.764 95.0402C105.82 94.9672 105.853 94.8792 105.858 94.7876C105.864 94.6959 105.842 94.6046 105.796 94.5254" fill="#EB996E"/>
<path d="M102.346 91.8716C102.576 91.8716 102.485 93.3764 103.721 94.5327C104.956 95.689 106.592 95.6336 106.592 95.8435C106.592 95.9425 106.196 96.1127 105.522 96.0811C104.63 96.0315 103.782 95.6747 103.123 95.0713C102.495 94.4969 102.116 93.6994 102.069 92.8497C102.049 92.2201 102.244 91.8716 102.346 91.8716Z" fill="#263238"/>
<path d="M102.564 77.3662C102.398 77.7305 101.008 77.4493 99.3488 77.5166C97.6895 77.584 96.3233 77.9126 96.1253 77.576C96.0422 77.4058 96.2956 77.0731 96.8619 76.7484C97.6149 76.3562 98.4465 76.1383 99.2951 76.1109C100.144 76.0834 100.988 76.2472 101.764 76.59C102.339 76.8751 102.62 77.1919 102.564 77.3662Z" fill="#263238"/>
<path d="M116.218 77.6633C115.933 77.9801 114.804 77.6633 113.446 77.6633C112.088 77.6633 110.947 77.889 110.674 77.5603C110.555 77.4019 110.734 77.0851 111.232 76.7683C111.923 76.4063 112.694 76.2252 113.474 76.2418C114.254 76.2584 115.017 76.4722 115.691 76.8634C116.182 77.1841 116.345 77.5088 116.218 77.6633Z" fill="#263238"/>
<path d="M105.336 60.6194C104.6 59.3681 103.233 58.7978 101.705 58.5681C95.4639 57.6217 88.5022 61.3797 85.0056 66.6307C81.5089 71.8817 81.3228 79.7185 83.8809 85.4843L87.7736 83.0528C95.5867 79.8294 101.103 72.3014 106.128 64.524C106.829 63.4667 105.99 61.7084 105.336 60.6194Z" fill="#263238"/>
<path d="M114.951 64.0527C112.342 61.0827 110.445 58.1127 105.027 60.1877C104.235 61.7044 105.819 63.6725 107.182 64.8209C109.162 66.5079 110.861 67.6444 112.152 68.8522C114.757 71.2876 117.719 79.4808 117.977 83.9517C117.977 84.2328 118.472 80.1144 118.769 80.0709C119.133 80.0154 120.602 78.2176 120.4 75.7624C119.703 67.3712 117.561 67.0187 114.951 64.0527Z" fill="#263238"/>
<path d="M101.721 58.5681C102.128 58.4887 102.549 58.5244 102.937 58.6711C103.895 58.9651 104.75 59.527 105.4 60.2907C105.585 60.5054 105.75 60.7375 105.891 60.9837C106.014 61.2216 106.109 61.4727 106.176 61.7322C106.317 62.1505 106.424 62.5796 106.497 63.0152C106.603 63.7795 106.421 64.2428 106.382 64.2309C106.342 64.219 106.402 63.7636 106.235 63.0627C106.125 62.648 105.993 62.2396 105.839 61.8391C105.769 61.605 105.676 61.3782 105.562 61.1619C105.428 60.935 105.274 60.7203 105.103 60.5204C104.49 59.8101 103.714 59.2585 102.841 58.9126C102.168 58.6711 101.713 58.6315 101.721 58.5681Z" fill="#1E2959"/>
<path d="M114.694 85.1399C114.694 85.4436 114.578 85.736 114.37 85.957C114.161 86.178 113.876 86.3107 113.573 86.3279C113.422 86.342 113.27 86.3259 113.126 86.2805C112.982 86.2352 112.848 86.1614 112.733 86.0637C112.617 85.966 112.522 85.8462 112.454 85.7113C112.385 85.5765 112.344 85.4294 112.333 85.2785C112.326 84.97 112.438 84.6706 112.648 84.4437C112.857 84.2168 113.146 84.0802 113.454 84.0628C113.607 84.0481 113.761 84.0647 113.908 84.1116C114.054 84.1584 114.189 84.2345 114.305 84.3353C114.421 84.4361 114.515 84.5593 114.582 84.6977C114.649 84.836 114.687 84.9864 114.694 85.1399Z" fill="#263238"/>
<path d="M101.65 85.2032C101.657 85.5117 101.545 85.8111 101.336 86.038C101.126 86.2649 100.837 86.4015 100.529 86.4189C100.379 86.4335 100.227 86.418 100.083 86.373C99.9383 86.3281 99.8044 86.2548 99.6889 86.1574C99.5734 86.06 99.4786 85.9404 99.41 85.8058C99.3414 85.6711 99.3004 85.5241 99.2895 85.3734C99.2808 85.0642 99.393 84.7638 99.6023 84.5361C99.8115 84.3083 100.101 84.1712 100.41 84.1538C100.561 84.1391 100.713 84.1548 100.858 84.2C101.002 84.2451 101.136 84.3188 101.252 84.4166C101.367 84.5145 101.462 84.6345 101.53 84.7696C101.599 84.9047 101.639 85.0521 101.65 85.2032Z" fill="#263238"/>
<path d="M65.7558 95.1147C66.4924 93.903 67.3398 92.7625 68.6862 92.2596C70.0326 91.7567 71.5612 91.4676 72.6185 90.4855C74.2778 88.9609 74.2025 86.4265 74.052 84.2168C73.9015 82.0071 73.8619 79.4648 75.5568 77.9798C76.9745 76.7403 79.2277 76.6295 80.4554 75.2078C81.2751 74.2614 81.4374 72.9546 81.7225 71.7468C82.5146 68.5115 84.2847 62.8605 93.8204 59.6094L85.3856 91.6616C86.0152 91.8398 87.52 93.2733 87.6032 94.2435C87.6784 95.1504 87.2864 96.0691 87.2784 96.9799C87.2784 98.0927 88.4902 98.7579 89.2584 99.5816C90.2326 100.631 90.5336 102.144 90.3831 103.542C90.0708 105.452 89.5598 107.325 88.8585 109.129C81.0335 108.337 69.6129 108.084 63.6491 103.094C62.568 102.191 64.1164 97.8115 65.7558 95.1147Z" fill="#263238"/>
<path d="M87.7896 83.0528C87.643 82.9736 81.8812 80.6768 81.5129 86.7554C81.1447 92.834 87.3104 91.9311 87.3302 91.7608C87.35 91.5906 87.7896 83.0528 87.7896 83.0528Z" fill="#FFBE9D"/>
<path d="M85.619 89.3528C85.5913 89.3291 85.5082 89.4202 85.322 89.4875C85.0645 89.5817 84.7804 89.5717 84.53 89.4598C83.9043 89.1826 83.4252 88.1332 83.4608 87.0402C83.4809 86.5194 83.6162 86.0096 83.8568 85.5473C83.9259 85.3616 84.0385 85.1952 84.1853 85.0622C84.3321 84.9292 84.5087 84.8334 84.7003 84.783C84.8238 84.7583 84.952 84.7777 85.0627 84.8377C85.1734 84.8978 85.2596 84.9947 85.3062 85.1117C85.3775 85.2859 85.3299 85.4047 85.3616 85.4166C85.3933 85.4285 85.5002 85.3216 85.4646 85.0681C85.4418 84.9152 85.3661 84.7751 85.2507 84.6721C85.092 84.5353 84.8856 84.4669 84.6765 84.482C84.4247 84.5155 84.1856 84.6133 83.9824 84.7658C83.7792 84.9184 83.6187 85.1207 83.5163 85.3532C83.2269 85.864 83.0665 86.4376 83.049 87.0244C83.0133 88.248 83.5677 89.4281 84.431 89.733C84.5906 89.791 84.7612 89.8119 84.93 89.794C85.0988 89.7762 85.2613 89.7201 85.4052 89.63C85.5992 89.4954 85.6388 89.3647 85.619 89.3528Z" fill="#EB996E"/>
<path d="M109.352 84.6405C109.384 84.1837 109.449 83.7298 109.546 83.2822C109.729 82.5333 110.066 81.8309 110.536 81.2197C111.006 80.6086 111.598 80.1022 112.275 79.7329C112.952 79.3636 113.698 79.1395 114.467 79.0749C115.235 79.0103 116.008 79.1067 116.737 79.3579C117.239 79.5272 117.712 79.7729 118.139 80.0865C118.595 80.4017 118.996 80.7897 119.327 81.2349C120.036 82.164 120.429 83.2962 120.448 84.4651C120.466 85.6341 120.11 86.7782 119.43 87.7293C119.116 88.1839 118.731 88.5851 118.289 88.9173C117.873 89.2452 117.408 89.5058 116.911 89.6895C115.992 90.0434 114.996 90.1446 114.024 89.9825C113.177 89.8428 112.376 89.5049 111.684 88.9965C110.672 88.2599 109.936 87.204 109.597 85.9988C109.488 85.5531 109.408 85.1007 109.359 84.6445C109.358 84.6748 109.358 84.7052 109.359 84.7355C109.359 84.8108 109.359 84.8979 109.359 85.0048C109.363 85.1496 109.377 85.2939 109.403 85.4365C109.425 85.6331 109.462 85.8277 109.514 86.0186C109.832 87.2585 110.566 88.3517 111.593 89.1153C112.354 89.6845 113.246 90.052 114.187 90.1836C115.128 90.3152 116.087 90.2065 116.975 89.8677C118.028 89.4694 118.94 88.7663 119.592 87.8481C120.298 86.8627 120.669 85.6765 120.65 84.4645C120.63 83.2524 120.222 82.0785 119.485 81.1161C119.142 80.6571 118.728 80.256 118.258 79.9281C117.819 79.6129 117.334 79.3672 116.82 79.1995C115.922 78.8892 114.961 78.8111 114.025 78.9724C113.088 79.1338 112.208 79.5293 111.466 80.1221C110.462 80.919 109.762 82.0379 109.486 83.2901C109.441 83.483 109.409 83.6789 109.391 83.8762C109.372 84.0206 109.363 84.1662 109.363 84.3118C109.363 84.4187 109.363 84.5059 109.363 84.5771C109.359 84.5981 109.355 84.6192 109.352 84.6405Z" fill="#1E2959"/>
<path d="M94.0503 84.8864C94.0821 84.4297 94.1456 83.9759 94.2404 83.5281C94.5382 82.3134 95.2355 81.2339 96.2204 80.4631C96.8961 79.9332 97.687 79.5696 98.5291 79.4018C99.4948 79.2109 100.494 79.2806 101.424 79.6037C101.925 79.7747 102.398 80.0203 102.826 80.3324C103.281 80.6487 103.682 81.0365 104.014 81.4808C104.722 82.4094 105.115 83.5405 105.134 84.7084C105.153 85.8764 104.798 87.0198 104.121 87.9712C103.805 88.4257 103.419 88.8268 102.976 89.1592C102.56 89.4873 102.095 89.7479 101.598 89.9314C100.679 90.2853 99.6824 90.3865 98.7112 90.2244C97.8655 90.0848 97.0649 89.7469 96.3748 89.2384C95.3615 88.5018 94.6252 87.4461 94.284 86.2407C94.1748 85.7952 94.0967 85.3427 94.0503 84.8864C94.046 84.9166 94.046 84.9472 94.0503 84.9774C94.0503 85.0487 94.0503 85.1398 94.0503 85.2467C94.0502 85.3915 94.0634 85.536 94.0899 85.6784C94.1112 85.8754 94.1497 86.0701 94.2048 86.2605C94.5193 87.5019 95.2539 88.5961 96.2838 89.3572C96.9842 89.8833 97.7978 90.2385 98.6598 90.3947C99.6613 90.5673 100.691 90.4689 101.642 90.1096C102.697 89.7143 103.609 89.0106 104.259 88.09C104.965 87.1046 105.336 85.9184 105.317 84.7064C105.298 83.4943 104.889 82.3205 104.152 81.358C103.471 80.4603 102.538 79.7861 101.471 79.4216C100.509 79.0929 99.4768 79.0286 98.4816 79.2354C97.4215 79.4534 96.4467 79.9723 95.6741 80.7302C94.9015 81.488 94.3639 82.4526 94.1256 83.5083C94.0764 83.7004 94.0446 83.8966 94.0305 84.0944C94.007 84.2383 93.9977 84.3842 94.0028 84.53V84.7953C94.0118 84.8288 94.028 84.8598 94.0503 84.8864Z" fill="#1E2959"/>
<path d="M104.98 84.4707C105.012 84.4905 105.17 84.2331 105.538 83.9361C106.01 83.5446 106.602 83.3254 107.215 83.3146C107.828 83.3038 108.427 83.502 108.912 83.8767C109.308 84.1578 109.459 84.4113 109.486 84.3875C109.388 84.1374 109.22 83.9204 109.003 83.7618C108.507 83.3277 107.867 83.094 107.208 83.1064C106.549 83.1189 105.919 83.3766 105.439 83.8291C105.229 83.9957 105.07 84.218 104.98 84.4707Z" fill="#1E2959"/>
<path d="M86.3955 82.6647C86.76 82.7803 87.1356 82.8573 87.5162 82.8944C88.2171 83.0052 89.1873 83.1082 90.2565 83.2032L93.0008 83.4488C93.3769 83.5067 93.7568 83.5358 94.1373 83.5359C93.7729 83.4193 93.3973 83.341 93.0166 83.3022C92.3197 83.1953 91.3495 83.0924 90.2763 82.9973L87.536 82.7518C87.1589 82.6914 86.7774 82.6623 86.3955 82.6647Z" fill="#1E2959"/>
<path d="M118.19 88.066C118.684 87.4949 119.085 86.8494 119.378 86.1533C119.608 85.4326 119.724 84.6804 119.722 83.9238C119.811 84.1369 119.851 84.3667 119.841 84.597C119.855 85.1517 119.764 85.704 119.572 86.2246C119.38 86.7452 119.09 87.224 118.717 87.6344C118.428 87.9432 118.206 88.0858 118.19 88.066Z" fill="white"/>
<path d="M119.149 81.8098C119.18 81.7623 119.406 81.8771 119.545 82.1464C119.683 82.4157 119.624 82.6612 119.569 82.6572C119.513 82.6533 119.466 82.4513 119.359 82.2335C119.252 82.0157 119.113 81.8533 119.149 81.8098Z" fill="white"/>
<path d="M104.211 86.8661C104.18 86.8661 104.291 86.5493 104.382 86.0385C104.615 84.6985 104.358 83.3194 103.657 82.1537C103.392 81.7102 103.178 81.4647 103.202 81.4409C103.435 81.6111 103.631 81.8266 103.78 82.0745C104.177 82.6503 104.451 83.3026 104.582 83.9899C104.714 84.6771 104.701 85.3843 104.544 86.0662C104.488 86.3525 104.375 86.6247 104.211 86.8661Z" fill="white"/>
<path d="M83.1602 91.6777C83.1602 91.6777 83.0771 91.7965 82.9583 92.0143C82.7879 92.3237 82.698 92.6709 82.6969 93.0241C82.6905 93.2801 82.7372 93.5348 82.834 93.7719C82.9308 94.0091 83.0755 94.2236 83.2592 94.4022C83.4807 94.6223 83.7512 94.787 84.0485 94.8826C84.3459 94.9783 84.6616 95.0023 84.9699 94.9526C85.2763 94.8895 85.5638 94.7562 85.8098 94.5631C86.0558 94.37 86.2536 94.1224 86.3876 93.8398C86.4959 93.6077 86.5556 93.3559 86.5631 93.0999C86.5706 92.8438 86.5257 92.589 86.4312 92.3509C86.3062 92.0214 86.1023 91.7277 85.8372 91.4955C85.6471 91.3332 85.5204 91.2658 85.5283 91.25C85.6591 91.2835 85.7809 91.3458 85.8847 91.4322C86.1868 91.6518 86.4225 91.9505 86.5658 92.2954C86.6806 92.5507 86.7399 92.8274 86.7399 93.1072C86.7399 93.3871 86.6806 93.6638 86.5658 93.919C86.4295 94.2373 86.2164 94.5167 85.9455 94.7322C85.6745 94.9478 85.3543 95.0927 85.0136 95.1539C84.6729 95.2151 84.3222 95.1908 83.9932 95.0831C83.6642 94.9754 83.3671 94.7877 83.1285 94.5368C82.9312 94.3388 82.778 94.1014 82.679 93.8399C82.5801 93.5785 82.5376 93.2991 82.5543 93.0201C82.568 92.6473 82.6845 92.2855 82.8909 91.9747C83.0295 91.7569 83.1602 91.6698 83.1602 91.6777Z" fill="#E0E0E0"/>
<path d="M116.61 96.3505C116.946 96.4846 117.315 96.5068 117.664 96.4139C118.037 96.3094 118.373 96.1022 118.634 95.816C118.956 95.4687 119.172 95.0377 119.26 94.5725C119.35 94.1071 119.292 93.6249 119.093 93.1944C118.93 92.8415 118.688 92.5311 118.384 92.2876C118.092 92.0736 117.772 91.8992 117.434 91.7688C117.535 91.7598 117.636 91.7733 117.731 91.8084C117.999 91.8827 118.251 92.0048 118.476 92.1688C118.812 92.4159 119.084 92.7406 119.268 93.1152C119.494 93.5782 119.563 94.1022 119.466 94.6081C119.369 95.1139 119.126 95.5803 118.769 95.9506C118.478 96.2535 118.105 96.4642 117.695 96.5565C117.421 96.6212 117.134 96.6061 116.868 96.5129C116.682 96.4377 116.602 96.3585 116.61 96.3505Z" fill="#E0E0E0"/>
<path d="M94.6444 174.98L100.517 176.718C100.517 176.718 103.756 178.108 105.332 178.469C107.289 178.916 108.623 178.31 108.694 177.221C108.766 176.132 107.245 175.994 107.245 175.994C105.953 175.501 104.696 174.92 103.483 174.255C102.603 173.644 101.883 172.829 101.384 171.879L103.483 172.168C103.483 172.168 107.899 175.336 109.562 176.295C111.225 177.253 111.589 175.57 111.732 175.063C111.874 174.556 106.813 169.42 106.813 169.42C106.813 169.42 111.661 172.533 112.528 173.309C113.395 174.085 114.702 174.338 114.991 173.835C115.28 173.333 116.076 173.329 114.991 171.182C113.906 169.036 105.222 163.262 105.222 163.262L107.598 162.755L110.203 163.916C110.385 164.81 110.755 165.655 111.288 166.395C112.227 167.789 113.894 166.395 113.894 166.395L112.86 161.049L107.712 157.825C107.712 157.825 102.358 158.479 101.563 158.839C100.767 159.199 99.8953 160.716 99.8953 160.716L98.4499 161.302C96.2046 161.952 96.2799 164.197 95.5552 164.268C94.8305 164.339 73.7079 160.221 73.7079 160.221L71.7952 159.722C68.6272 162.126 67.364 166.098 66.8056 169.622C66.8056 169.622 66.2235 171.349 66.8056 172.299L94.6444 174.98Z" fill="#FFBE9D"/>
<path d="M90.7672 171.222C90.7422 171.109 90.7355 170.993 90.7474 170.878C90.746 170.745 90.7579 170.612 90.7831 170.482C90.8015 170.302 90.8359 170.125 90.886 169.951C91.1834 168.951 91.6865 168.025 92.3631 167.231C93.0201 166.432 93.7521 165.699 94.549 165.041C94.8648 164.753 95.2084 164.497 95.5747 164.276C95.2817 164.58 94.9709 164.865 94.6441 165.132C93.8824 165.814 93.1729 166.553 92.5215 167.341C91.8639 168.118 91.3576 169.012 91.0286 169.975C90.7949 170.731 90.8108 171.226 90.7672 171.222Z" fill="#EB996E"/>
<path d="M99.9146 160.716C99.9146 160.716 99.7404 160.807 99.4711 161.025C99.0958 161.342 98.7712 161.715 98.5088 162.13C98.3194 162.411 98.1576 162.709 98.0257 163.021C97.9039 163.388 97.8268 163.768 97.796 164.154C97.7416 164.602 97.5814 165.031 97.3287 165.405C97.0421 165.767 96.8063 166.167 96.6278 166.593C96.3567 167.313 96.3567 168.107 96.6278 168.826L96.6555 168.902L96.5882 168.945C95.6701 169.538 95.0053 170.451 94.7231 171.507C94.6258 171.924 94.5662 172.348 94.5449 172.774C94.5127 172.664 94.4993 172.549 94.5053 172.434C94.501 172.113 94.5356 171.792 94.6082 171.48C94.8609 170.37 95.5337 169.402 96.4853 168.779L96.4457 168.898C96.159 168.132 96.159 167.288 96.4457 166.522C96.6284 166.083 96.8738 165.674 97.1743 165.306C97.4152 164.951 97.5673 164.544 97.6178 164.118C97.6656 163.363 97.9418 162.641 98.4098 162.047C98.6893 161.626 99.0405 161.257 99.4473 160.958C99.5569 160.875 99.6767 160.808 99.8037 160.756C99.8389 160.738 99.8761 160.725 99.9146 160.716Z" fill="#EB996E"/>
<path d="M105 163.085C104.493 163.15 103.978 163.095 103.496 162.925C103.015 162.754 102.58 162.472 102.228 162.102C102.267 162.055 102.798 162.463 103.562 162.728C104.326 162.993 105 163.025 105 163.085Z" fill="#EB996E"/>
<path d="M106.354 168.934C105.589 168.719 104.846 168.436 104.133 168.086C103.392 167.802 102.676 167.455 101.994 167.049C102.757 167.269 103.5 167.553 104.216 167.896C104.957 168.181 105.672 168.528 106.354 168.934Z" fill="#EB996E"/>
<path d="M101.59 171.824C100.821 171.564 100.07 171.254 99.3408 170.897C99.7541 170.916 100.159 171.021 100.529 171.206C100.923 171.332 101.286 171.543 101.59 171.824Z" fill="#EB996E"/>
<path d="M105.626 169.31C105.285 169.492 104.985 169.743 104.744 170.046C104.504 170.349 104.328 170.698 104.228 171.072C104.2 171.072 104.176 170.933 104.228 170.711C104.284 170.421 104.409 170.148 104.592 169.916C104.775 169.684 105.011 169.499 105.281 169.377C105.475 169.294 105.618 169.286 105.626 169.31Z" fill="#EB996E"/>
<path d="M107.748 166.098C107.771 166.154 107.383 166.352 107.122 166.795C106.989 167.077 106.878 167.368 106.789 167.666C106.733 167.503 106.718 167.328 106.746 167.158C106.774 166.987 106.843 166.826 106.948 166.688C107.249 166.181 107.74 166.043 107.748 166.098Z" fill="#EB996E"/>
<path d="M107.15 160.281C107.13 160.281 107.051 160.19 106.991 160C106.92 159.74 106.92 159.467 106.991 159.208C107.06 158.952 107.197 158.719 107.387 158.534C107.53 158.396 107.649 158.348 107.661 158.368C107.472 158.645 107.319 158.944 107.205 159.259C107.146 159.596 107.128 159.939 107.15 160.281Z" fill="#EB996E"/>
<path d="M149.961 162.103C149.961 162.103 149.696 156.907 144.31 155.83C138.925 154.753 129.492 159.331 129.492 159.331L103.063 177.748L103.855 180.025L130.68 176.287L133.135 177.23L151.977 164.851L169.757 151.997L167.777 150.448C167.777 150.448 162.796 153.882 159.501 155.359C156.206 156.836 151.442 159.426 149.961 162.103Z" fill="#F5F5F5"/>
<path d="M102.655 180.778L125.021 166.882L148.667 163.085C148.667 163.085 149.854 164.803 151.862 164.383L171.306 150.919L171.674 151.731L133.967 178.224C133.413 178.426 132.815 178.473 132.236 178.36C131.658 178.247 131.121 177.978 130.684 177.582L102.655 180.778Z" fill="#1E2959"/>
<path d="M148.666 163.084C148.613 163.143 148.552 163.193 148.484 163.235L147.938 163.631C147.463 163.972 146.778 164.467 145.958 165.092C144.279 166.34 141.998 168.118 139.535 170.133C137.072 172.149 134.858 174.022 133.274 175.388L131.385 177.012L130.87 177.447C130.815 177.503 130.752 177.551 130.684 177.59C130.684 177.59 130.732 177.527 130.842 177.42L131.33 176.952C131.757 176.556 132.379 175.978 133.163 175.285C134.723 173.891 136.913 172.006 139.388 169.983C141.863 167.959 144.14 166.201 145.855 164.981C146.702 164.368 147.403 163.892 147.894 163.572L148.461 163.207C148.525 163.16 148.594 163.119 148.666 163.084Z" fill="#263238"/>
<path d="M148.425 160.194C146.283 157.893 142.909 157.073 139.772 157.319C136.636 157.564 133.662 158.732 130.736 159.893L103.376 178.62L103.622 179.324L131.128 160.712C131.128 160.712 137.274 158.732 139.994 158.392C144.54 157.826 148.425 160.194 148.425 160.194Z" fill="#E0E0E0"/>
<path d="M152.717 162.657L165.872 153.783C165.872 153.783 155.093 159.39 152.717 162.657Z" fill="#E0E0E0"/>
<path d="M103.376 178.619C103.41 178.585 103.447 178.554 103.487 178.528L103.827 178.287L105.138 177.364L109.985 174.006L126.023 162.993L130.68 159.825C133.33 158.63 136.126 157.789 138.996 157.326C141.314 156.999 143.678 157.332 145.815 158.289C146.615 158.66 147.351 159.155 147.997 159.754C148.481 160.204 148.892 160.727 149.217 161.302C149.421 161.663 149.581 162.047 149.692 162.447C149.72 162.577 149.744 162.68 149.763 162.759C149.772 162.795 149.779 162.83 149.783 162.866C149.641 162.332 149.431 161.819 149.158 161.338C148.825 160.777 148.411 160.269 147.93 159.829C147.282 159.248 146.55 158.768 145.76 158.403C143.643 157.483 141.312 157.171 139.028 157.501C136.181 157.967 133.407 158.802 130.775 159.983H130.795L126.138 163.151L110.088 174.125L105.202 177.431L103.871 178.318L103.519 178.548C103.474 178.577 103.426 178.6 103.376 178.619Z" fill="#263238"/>
<path d="M127.326 164.463C127.389 164.411 127.458 164.369 127.532 164.336C127.671 164.261 127.877 164.146 128.142 164.011C128.677 163.734 129.457 163.346 130.439 162.903C132.985 161.709 135.688 160.881 138.466 160.444C141.258 160.022 144.112 160.283 146.782 161.204C147.584 161.493 148.355 161.863 149.082 162.309C149.344 162.459 149.53 162.606 149.661 162.705C149.73 162.747 149.795 162.796 149.855 162.851C149.855 162.851 149.566 162.685 149.043 162.388C148.306 161.974 147.533 161.628 146.734 161.354C144.076 160.483 141.251 160.245 138.485 160.661C135.727 161.097 133.039 161.896 130.49 163.037C129.504 163.465 128.716 163.829 128.17 164.087L127.544 164.376C127.474 164.412 127.401 164.441 127.326 164.463Z" fill="#263238"/>
<path d="M169.053 151.438C169.053 151.438 168.997 151.489 168.882 151.569L168.372 151.909L166.475 153.129C164.867 154.159 162.653 155.58 160.226 157.18C157.798 158.78 155.628 160.249 154.044 161.318L152.171 162.577L151.656 162.914C151.599 162.956 151.536 162.991 151.47 163.017C151.519 162.965 151.574 162.919 151.633 162.878L152.128 162.51C152.555 162.193 153.181 161.746 153.961 161.195C155.521 160.099 157.691 158.606 160.123 157.006C162.554 155.406 164.784 154.004 166.407 153.006C167.219 152.507 167.88 152.111 168.34 151.842L168.874 151.533C168.931 151.496 168.99 151.464 169.053 151.438Z" fill="#263238"/>
<path d="M157.086 165.678C156.817 166.324 156.475 166.938 156.068 167.507C155.561 168.109 153.906 168.949 153.775 170.093C153.644 171.238 153.914 173.923 152.124 175.966C150.97 177.237 149.51 178.191 147.883 178.738L140.822 178.049L129.544 173.61C129.292 173.546 129.075 173.386 128.94 173.164C128.805 172.941 128.763 172.675 128.823 172.422C128.893 172.147 129.043 171.899 129.255 171.71C129.467 171.521 129.73 171.399 130.011 171.361L130.28 171.317C130.28 171.317 129.631 170.786 130.561 169.856C131.353 169.064 133.044 169.511 133.916 169.8C134.787 170.089 139.895 172.224 140.81 172.553C141.622 172.842 142.247 173.099 142.247 173.099C142.247 173.099 135.709 168.688 135.618 168.109C135.511 167.416 135.583 167.1 136.252 166.616C137.044 166.042 138.343 166.656 139.602 167.187C140.541 167.583 146.524 170.537 146.524 170.537C146.524 170.537 146.794 170.276 146.524 169.745C146.255 169.214 144.267 166.656 143.954 166.181C143.641 165.706 143.558 165.436 143.871 165.036C144.307 164.47 145.455 164.201 146.512 165.167C147.182 165.785 149.562 167.385 149.562 167.385L160.547 159.37C160.547 159.37 161.913 159.334 161.438 161.239C160.962 163.144 157.086 165.678 157.086 165.678Z" fill="#FFBE9D"/>
<path d="M148.896 172.359C148.457 172.261 148.047 172.059 147.702 171.77C147.358 171.48 147.088 171.112 146.916 170.696C146.967 170.664 147.288 171.155 147.835 171.611C148.381 172.066 148.924 172.3 148.896 172.359Z" fill="#EB996E"/>
<path d="M149.799 167.579C149.799 167.555 149.945 167.512 150.195 167.543C150.506 167.589 150.799 167.718 151.041 167.919C151.284 168.119 151.466 168.383 151.569 168.68C151.644 168.91 151.632 169.076 151.605 169.076C151.439 168.706 151.202 168.372 150.908 168.094C150.575 167.852 150.198 167.677 149.799 167.579Z" fill="#EB996E"/>
<path d="M150.318 169.785C150.258 169.785 150.231 169.195 149.997 168.521C149.763 167.848 149.435 167.353 149.482 167.333C149.83 167.63 150.078 168.027 150.191 168.47C150.368 168.885 150.412 169.344 150.318 169.785Z" fill="#EB996E"/>
<path d="M156.816 165.108C156.816 165.127 156.678 165.048 156.535 164.858C156.354 164.606 156.241 164.311 156.207 164.003C156.172 163.694 156.217 163.382 156.337 163.096C156.432 162.882 156.539 162.775 156.559 162.791C156.418 163.17 156.368 163.578 156.412 163.98C156.457 164.382 156.595 164.769 156.816 165.108Z" fill="#EB996E"/>
<path d="M146.889 175.123C146.634 175.181 146.37 175.181 146.116 175.123C145.501 175.014 144.91 174.794 144.374 174.473C143.84 174.159 143.337 173.795 142.873 173.384C142.666 173.233 142.484 173.051 142.331 172.846C142.558 172.96 142.771 173.102 142.964 173.269C143.447 173.642 143.952 173.985 144.477 174.295C144.996 174.603 145.558 174.834 146.144 174.98C146.595 175.075 146.889 175.091 146.889 175.123Z" fill="#EB996E"/>
<path d="M148.726 173.99C148.782 173.99 148.786 174.386 148.453 174.715C148.12 175.044 147.716 175.028 147.724 174.972C147.732 174.917 148.037 174.838 148.306 174.576C148.576 174.315 148.667 173.982 148.726 173.99Z" fill="#EB996E"/>
<path d="M151.422 172.01C151.446 172.01 151.446 172.117 151.371 172.26C151.267 172.435 151.11 172.574 150.923 172.656C150.738 172.746 150.529 172.776 150.326 172.743C150.167 172.711 150.088 172.648 150.1 172.624C150.112 172.6 150.464 172.656 150.836 172.47C151.209 172.283 151.367 171.99 151.422 172.01Z" fill="#EB996E"/>
<path d="M141.911 176.505C141.891 176.556 139.265 175.463 136.05 174.057C132.834 172.652 130.245 171.467 130.284 171.42C130.324 171.372 132.933 172.465 136.149 173.871C139.364 175.277 141.934 176.453 141.911 176.505Z" fill="#EB996E"/>
<path d="M14.937 137.852L23.5302 180.038H98.1168C98.5117 180.038 98.8904 179.881 99.1696 179.602C99.4489 179.323 99.6057 178.944 99.6057 178.549C99.6062 178.353 99.5681 178.159 99.4935 177.978C99.4189 177.797 99.3093 177.633 99.171 177.494C99.0327 177.355 98.8684 177.245 98.6875 177.17C98.5066 177.095 98.3126 177.056 98.1168 177.056H83.1004L75.1329 137.809C75.0591 137.442 74.8612 137.113 74.5727 136.876C74.2841 136.638 73.9225 136.508 73.5489 136.506L16.5526 135.896C16.3094 135.894 16.0687 135.945 15.8482 136.048C15.6276 136.15 15.4328 136.301 15.2779 136.489C15.123 136.676 15.012 136.896 14.953 137.132C14.894 137.368 14.8885 137.614 14.937 137.852Z" fill="#E0E0E0"/>
<path d="M14.9372 137.851L14.9135 137.725C14.8973 137.593 14.8973 137.46 14.9135 137.329C14.9416 137.076 15.0277 136.834 15.1651 136.62C15.3025 136.406 15.4874 136.227 15.7055 136.097C15.8569 136.004 16.0229 135.937 16.1965 135.899C16.3901 135.867 16.5865 135.855 16.7826 135.863H18.125L21.4831 135.891L43.0374 136.093L58.0616 136.248L66.4806 136.331L70.892 136.378L73.1492 136.402C73.3433 136.402 73.5215 136.402 73.7274 136.402C73.9285 136.425 74.1242 136.482 74.3055 136.572C74.6711 136.751 74.9605 137.054 75.1213 137.428C75.1955 137.613 75.2487 137.805 75.2797 138.002L75.3945 138.568C75.4698 138.964 75.549 139.328 75.6282 139.709C75.7813 140.472 75.9371 141.24 76.0955 142.013C76.4096 143.558 76.7277 145.122 77.0498 146.706C77.694 149.874 78.354 153.112 79.0298 156.42C80.3723 163.033 81.7741 169.912 83.2116 177.012L83.1126 176.933H97.8794C98.0742 176.925 98.2691 176.937 98.4615 176.968C98.8579 177.053 99.2066 177.287 99.4357 177.622C99.6676 177.955 99.7625 178.365 99.701 178.766C99.665 179.009 99.5729 179.241 99.432 179.442C99.2911 179.643 99.1053 179.809 98.8892 179.926C98.6717 180.042 98.4307 180.107 98.1843 180.116H58.5487H23.5304H23.4671V180.053C20.8376 167.084 18.7151 156.539 17.2221 149.228C16.4856 145.577 15.9153 142.734 15.5273 140.802C15.3372 139.835 15.192 139.103 15.0917 138.604C14.9927 138.105 14.9491 137.851 14.9491 137.851C14.9491 137.851 15.0085 138.105 15.1115 138.596C15.2144 139.087 15.3728 139.831 15.5708 140.79C15.9668 142.722 16.5569 145.562 17.3093 149.213C18.8061 156.519 20.9643 167.06 23.6215 180.021L23.5423 179.958L58.5606 179.938H98.1685C98.3813 179.93 98.5895 179.874 98.7783 179.776C98.9657 179.673 99.127 179.528 99.2498 179.353C99.3727 179.178 99.4539 178.977 99.4872 178.766C99.5382 178.415 99.4563 178.058 99.2575 177.764C99.0548 177.475 98.7509 177.273 98.4061 177.198C98.2279 177.171 98.0476 177.16 97.8675 177.166H83.0175V177.087C81.5801 169.995 80.1822 163.116 78.8437 156.495C78.1705 153.185 77.5105 149.945 76.8637 146.777L75.9133 142.085C75.7589 141.312 75.6005 140.544 75.446 139.784C75.3708 139.388 75.2916 139.02 75.2163 138.643L75.1015 138.073C75.0718 137.889 75.0241 137.709 74.9589 137.535C74.85 137.285 74.6769 137.068 74.4571 136.907C74.2373 136.745 73.9787 136.645 73.7076 136.616C73.5333 136.616 73.3353 136.616 73.1492 136.616L70.892 136.588L66.4766 136.541L58.0616 136.442L43.0334 136.263L21.4791 135.998L18.125 135.955L16.7826 135.935C16.5893 135.923 16.3953 135.934 16.2044 135.966C16.0343 136.002 15.871 136.064 15.7213 136.153C15.5077 136.277 15.3253 136.449 15.1881 136.655C15.0508 136.861 14.9623 137.095 14.9293 137.341C14.9136 137.511 14.9162 137.682 14.9372 137.851Z" fill="#263238"/>
<path d="M46.843 159.62C48.2033 159.62 49.3061 158.517 49.3061 157.156C49.3061 155.796 48.2033 154.693 46.843 154.693C45.4827 154.693 44.3799 155.796 44.3799 157.156C44.3799 158.517 45.4827 159.62 46.843 159.62Z" fill="white"/>
<path d="M15.0083 138.204C15.0083 138.204 15.0954 138.204 15.2657 138.204H18.9168L29.5811 138.256L64.7657 138.501L69.8543 138.545H71.1057C71.319 138.537 71.5325 138.55 71.7432 138.584C72.0655 138.65 72.3633 138.803 72.6037 139.028C72.8441 139.252 73.0178 139.538 73.1055 139.855C73.2005 140.251 73.2678 140.647 73.351 141.043L75.1686 150.207C76.321 156.048 77.3625 161.295 78.2337 165.726C79.1049 170.157 79.8177 173.713 80.2849 176.188C80.5225 177.42 80.7047 178.378 80.8314 179.036C80.8908 179.356 80.9383 179.606 80.97 179.78C81.0017 179.954 81.0096 180.034 81.0096 180.034C81.0096 180.034 80.9858 179.95 80.9502 179.784C80.9146 179.618 80.8591 179.364 80.7918 179.044L80.2057 176.22C79.7068 173.745 78.986 170.177 78.0911 165.77C77.1961 161.362 76.1507 156.095 74.9825 150.258C74.4004 147.34 73.7945 144.275 73.153 141.099C73.0698 140.703 72.9985 140.307 72.9114 139.911C72.8069 139.535 72.5672 139.21 72.2382 139C72.0751 138.896 71.8937 138.823 71.7036 138.786C71.5047 138.754 71.303 138.742 71.1017 138.751H69.8543L64.7657 138.711L29.5811 138.402L18.9168 138.283L16.0181 138.204H15.2617H15.0083Z" fill="#263238"/>
</svg>
