<svg width="238" height="186" viewBox="0 0 238 186" fill="none" xmlns="http://www.w3.org/2000/svg">
<path d="M229.518 166.042C229.518 166.098 179.747 166.139 118.372 166.139C56.9961 166.139 7.21289 166.098 7.21289 166.042C7.21289 165.986 56.9707 165.945 118.372 165.945C179.772 165.945 229.518 165.99 229.518 166.042Z" fill="#263238"/>
<path d="M208.631 147.055C208.631 147.055 200.218 135.709 197.045 124.363C193.871 113.017 195.379 114.319 195.379 114.319C195.379 114.319 199.663 125.345 202.915 130.669C206.168 135.992 211.978 143.8 211.978 143.8L208.631 147.055Z" fill="#0A1D47"/>
<path d="M210.306 116.064C210.251 115.944 210.161 115.852 210.053 115.803C209.945 115.754 209.826 115.752 209.716 115.797C209.607 115.841 209.514 115.93 209.456 116.047C209.397 116.164 209.376 116.302 209.395 116.436C209.906 120.424 211.017 129.779 210.982 135.847C210.925 143.729 210.982 146.776 210.982 146.776H214.473C214.473 146.776 213.838 130.483 213.061 125.513C212.508 122.038 211.344 118.169 210.306 116.064Z" fill="#0A1D47"/>
<path d="M212.217 145.452C213.684 141.555 214.654 137.426 215.098 133.198C215.387 130.296 214.87 126.376 214.105 121.142C213.811 119.228 213.663 117.287 213.664 115.342C213.665 115.125 213.728 114.915 213.842 114.744C213.956 114.574 214.116 114.452 214.295 114.4C214.475 114.347 214.664 114.365 214.834 114.452C215.003 114.54 215.143 114.69 215.231 114.881C215.654 115.766 216.878 118.787 217.189 120.677C218.037 125.844 218.995 128.429 218.262 133.325C217.529 138.22 214.816 145.779 214.816 145.779L212.217 145.452Z" fill="#0A1D47"/>
<path d="M215.368 145.79C215.368 145.79 224.605 122.522 225.246 119.069C225.887 115.617 228.061 107.664 228.318 108.114C228.575 108.564 228.953 112.768 227.293 117.57C225.633 122.373 218.522 146.497 218.522 146.497H215.368" fill="#0A1D47"/>
<path d="M211.204 144.749C211.113 144.687 211.026 144.617 210.944 144.541C210.782 144.395 210.531 144.191 210.23 143.901C209.365 143.095 208.537 142.237 207.748 141.33C205.146 138.329 202.893 134.94 201.046 131.249C199.204 127.561 197.673 123.671 196.473 119.635C196.01 118.091 195.671 116.827 195.452 115.945C195.337 115.51 195.258 115.164 195.204 114.933C195.171 114.812 195.147 114.687 195.134 114.561C195.178 114.673 195.214 114.789 195.242 114.907L195.525 115.908C195.766 116.778 196.124 118.036 196.604 119.568C197.841 123.575 199.385 127.442 201.218 131.122C203.059 134.8 205.288 138.191 207.853 141.215C208.84 142.368 209.687 143.242 210.284 143.819C210.579 144.12 210.82 144.336 210.976 144.492C211.058 144.57 211.134 144.656 211.204 144.749Z" fill="#263238"/>
<path d="M212.214 133.585C212.17 133.361 212.142 133.133 212.131 132.904C212.087 132.42 212.029 131.788 211.963 131.044C211.817 129.467 211.588 127.298 211.262 124.914C210.935 122.529 210.57 120.383 210.287 118.835C210.151 118.091 210.037 117.474 209.951 117.001C209.9 116.778 209.865 116.55 209.846 116.32C209.922 116.533 209.981 116.754 210.024 116.979C210.129 117.407 210.265 118.028 210.424 118.798C210.741 120.338 211.128 122.484 211.455 124.876C211.782 127.268 211.988 129.444 212.09 131.025C212.147 131.818 212.182 132.458 212.198 132.885C212.224 133.117 212.229 133.352 212.214 133.585Z" fill="#263238"/>
<path d="M214.378 114.706C214.421 114.801 214.457 114.901 214.485 115.004C214.558 115.223 214.65 115.51 214.765 115.867C214.879 116.224 215.025 116.704 215.161 117.254C215.298 117.805 215.479 118.415 215.609 119.114L215.837 120.208C215.917 120.58 215.971 120.993 216.04 121.406C216.193 122.232 216.285 123.128 216.396 124.069C216.817 128.167 216.691 132.316 216.021 136.368C215.853 137.298 215.704 138.183 215.504 138.994C215.409 139.399 215.33 139.797 215.228 140.169C215.126 140.541 215.028 140.913 214.933 141.245C214.755 141.933 214.543 142.532 214.371 143.064C214.2 143.596 214.035 144.049 213.892 144.414L213.575 145.251C213.541 145.351 213.498 145.447 213.448 145.537C213.47 145.432 213.501 145.33 213.54 145.232L213.832 144.377C213.965 144.005 214.124 143.555 214.279 143.019C214.435 142.483 214.644 141.881 214.812 141.192C214.901 140.85 214.996 140.493 215.095 140.121C215.193 139.749 215.266 139.351 215.358 138.946C215.552 138.135 215.675 137.253 215.856 136.342C216.501 132.308 216.627 128.184 216.231 124.106C216.123 123.169 216.037 122.276 215.894 121.454C215.825 121.041 215.774 120.639 215.701 120.26C215.628 119.881 215.555 119.516 215.485 119.166C215.361 118.467 215.193 117.849 215.066 117.306C214.939 116.763 214.815 116.294 214.704 115.915C214.593 115.536 214.523 115.26 214.463 115.037C214.425 114.931 214.396 114.82 214.378 114.706Z" fill="#263238"/>
<path d="M228.21 108.583C228.216 108.617 228.216 108.653 228.21 108.687C228.21 108.769 228.185 108.869 228.169 108.988C228.127 109.253 228.077 109.647 227.988 110.149C227.81 111.15 227.512 112.589 227.036 114.338C226.56 116.086 225.947 118.132 225.198 120.387C224.45 122.641 223.586 125.092 222.768 127.704C221.949 130.315 221.292 132.86 220.689 135.166C220.086 137.473 219.528 139.556 218.979 141.267C218.556 142.624 218.07 143.953 217.522 145.247C217.332 145.709 217.16 146.051 217.052 146.289L216.922 146.553C216.909 146.586 216.892 146.616 216.872 146.642C216.878 146.607 216.889 146.574 216.903 146.542L217.018 146.267C217.116 146.021 217.275 145.671 217.452 145.206C217.824 144.284 218.325 142.93 218.849 141.211C219.372 139.492 219.928 137.42 220.518 135.107C221.108 132.793 221.746 130.241 222.58 127.626C223.415 125.011 224.275 122.555 225.03 120.308C225.785 118.062 226.43 116.023 226.903 114.286C227.375 112.549 227.699 111.12 227.899 110.127C228 109.632 228.064 109.241 228.118 108.981C228.143 108.862 228.162 108.765 228.178 108.683C228.184 108.648 228.195 108.614 228.21 108.583Z" fill="#263238"/>
<path d="M199.733 103.442C199.605 103.299 199.441 103.21 199.265 103.189C199.09 103.167 198.913 103.215 198.763 103.324C198.613 103.433 198.498 103.597 198.437 103.791C198.375 103.984 198.37 104.197 198.422 104.394C198.738 105.59 199.126 106.759 199.583 107.891C200.853 111.057 204.585 122.399 206.33 128.637C208.075 134.876 210.535 146.493 210.535 146.493L214.263 145.787C214.263 145.787 210.852 126.684 207.536 119.784C204.842 114.267 202.163 106.276 199.733 103.442Z" fill="#0A1D47"/>
<path d="M207.349 132.536C207.43 132.701 207.495 132.877 207.542 133.06C207.653 133.402 207.802 133.901 207.971 134.526C208.313 135.772 208.735 137.502 209.157 139.447C209.579 141.393 209.932 143.145 210.176 144.421C210.29 145.024 210.382 145.537 210.458 145.935C210.499 146.119 210.525 146.307 210.535 146.497C210.468 146.324 210.417 146.143 210.382 145.957C210.293 145.559 210.179 145.057 210.043 144.469L208.967 139.499C208.545 137.565 208.145 135.82 207.837 134.567L207.469 133.079C207.414 132.903 207.373 132.721 207.349 132.536Z" fill="#263238"/>
<path d="M212.407 146.143C212.397 146.105 212.391 146.067 212.388 146.027C212.388 145.934 212.363 145.823 212.344 145.681C212.306 145.38 212.271 144.937 212.191 144.357C212.055 143.211 211.811 141.556 211.411 139.54C210.933 137.178 210.35 134.848 209.666 132.557C208.901 129.953 207.942 127.171 206.854 124.273C204.661 118.488 202.472 113.358 201.031 109.568C200.304 107.674 199.739 106.13 199.368 105.052C199.178 104.516 199.051 104.096 198.949 103.809C198.908 103.675 198.873 103.571 198.844 103.482C198.831 103.446 198.821 103.409 198.816 103.37C198.816 103.37 198.835 103.404 198.864 103.474C198.892 103.545 198.936 103.664 198.987 103.79L199.438 105.018C199.831 106.082 200.415 107.622 201.158 109.482C202.627 113.258 204.839 118.373 207.035 124.165C208.123 127.067 209.078 129.871 209.837 132.472C210.516 134.776 211.087 137.121 211.547 139.499C211.856 141.096 212.097 142.71 212.268 144.335C212.334 144.911 212.356 145.361 212.385 145.667C212.385 145.808 212.401 145.919 212.407 146.012C212.412 146.056 212.412 146.099 212.407 146.143Z" fill="#263238"/>
<path d="M214.264 145.79C214.205 145.547 214.163 145.298 214.137 145.046C214.064 144.533 213.965 143.856 213.848 143.038C213.591 141.345 213.213 139.013 212.636 136.476C212.058 133.939 211.446 131.673 210.963 130.051L210.392 128.139C210.309 127.908 210.244 127.669 210.195 127.425C210.3 127.643 210.39 127.871 210.465 128.106C210.624 128.548 210.849 129.196 211.1 130.003C211.774 132.105 212.352 134.249 212.832 136.423C213.312 138.598 213.699 140.799 213.991 143.019C214.099 143.871 214.178 144.563 214.219 145.043C214.25 145.29 214.265 145.54 214.264 145.79Z" fill="#263238"/>
<path d="M221.914 145.162H207.361V165.945H221.914V145.162Z" fill="#FF9F1C"/>
<g opacity="0.3">
<path opacity="0.3" d="M221.914 145.162H207.361V165.945H221.914V145.162Z" fill="#263238"/>
</g>
<path d="M217.272 145.162H204.363V165.945H217.272V145.162Z" fill="#FF9F1C"/>
<path d="M28.0934 137.937C25.6119 136.077 22.1783 136.04 19.7666 138.015C17.4754 139.894 16.3108 143.309 16.4124 146.571C16.5139 149.834 17.8689 153.844 20.3981 155.566L27.8237 155.529C29.017 154.511 30.0026 153.195 30.7095 151.676C31.4163 150.157 31.8266 148.474 31.9109 146.746C32.022 143.309 30.5718 139.797 28.0934 137.937Z" fill="#0A1D47"/>
<path d="M24.4346 155.894C24.3997 155.648 24.3848 155.399 24.3902 155.15C24.3902 154.614 24.3584 153.93 24.3394 153.108C24.3013 151.385 24.2442 149.016 24.1458 146.378C24.0474 143.741 23.9269 141.371 23.8285 139.649C23.7872 138.83 23.7523 138.161 23.7238 137.61C23.7034 137.363 23.7034 137.114 23.7238 136.866C23.7769 137.11 23.8109 137.359 23.8253 137.61C23.8761 138.09 23.9364 138.786 24.0062 139.645C24.1395 141.364 24.2854 143.737 24.387 146.375C24.4885 149.012 24.5171 151.393 24.5107 153.119C24.5107 153.982 24.5108 154.678 24.4854 155.161C24.4872 155.407 24.4702 155.652 24.4346 155.894Z" fill="#263238"/>
<path d="M17.1614 145.842C17.1614 145.916 16.752 145.943 16.2601 145.894C15.7683 145.846 15.3748 145.745 15.3779 145.671C15.3811 145.597 15.7873 145.571 16.2792 145.615C16.771 145.66 17.1677 145.764 17.1614 145.842Z" fill="#263238"/>
<path d="M17.3011 142.904C17.2725 142.974 16.9266 142.863 16.5236 142.651C16.1206 142.439 15.8159 142.216 15.8413 142.145C15.8667 142.074 16.2158 142.19 16.6188 142.398C17.0218 142.606 17.3264 142.848 17.3011 142.904Z" fill="#263238"/>
<path d="M18.5889 140.724C18.554 140.787 18.1637 140.571 17.7575 140.177C17.3513 139.783 17.0943 139.37 17.1419 139.321C17.1895 139.273 17.5132 139.578 17.9067 139.961C18.3002 140.344 18.6238 140.657 18.5889 140.724Z" fill="#263238"/>
<path d="M19.8871 138.666C19.8268 138.696 19.6395 138.354 19.4682 137.9C19.2968 137.446 19.2048 137.052 19.2651 137.018C19.3254 136.985 19.5126 137.331 19.684 137.788C19.8553 138.246 19.9442 138.637 19.8871 138.666Z" fill="#263238"/>
<path d="M21.9212 137.208C21.861 137.238 21.661 136.873 21.5246 136.367C21.3881 135.861 21.3786 135.423 21.4421 135.411C21.5055 135.4 21.623 135.783 21.7594 136.282C21.8959 136.78 21.9815 137.175 21.9212 137.208Z" fill="#263238"/>
<path d="M25.3133 135.56C25.3768 135.586 25.3387 135.899 25.2308 136.26C25.1229 136.621 24.9833 136.888 24.9135 136.862C24.8437 136.836 24.8881 136.528 24.996 136.167C25.1039 135.806 25.253 135.534 25.3133 135.56Z" fill="#263238"/>
<path d="M27.8329 136.829C27.8773 136.885 27.7155 137.145 27.4711 137.409C27.2268 137.673 26.9951 137.841 26.9507 137.781C26.9063 137.722 27.0681 137.465 27.3093 137.201C27.5505 136.937 27.7885 136.773 27.8329 136.829Z" fill="#263238"/>
<path d="M30.0482 138.507C30.0863 138.57 29.8895 138.8 29.6103 139.024C29.331 139.247 29.074 139.373 29.0359 139.31C28.9978 139.247 29.1977 139.016 29.477 138.793C29.7563 138.57 30.0133 138.443 30.0482 138.507Z" fill="#263238"/>
<path d="M31.6223 141.006C31.6477 141.077 31.3399 141.3 30.9305 141.505C30.5212 141.709 30.1689 141.817 30.1435 141.747C30.1182 141.676 30.4291 141.453 30.8385 141.252C31.2479 141.051 31.5969 140.936 31.6223 141.006Z" fill="#263238"/>
<path d="M32.2441 143.737C32.2441 143.811 31.9268 143.923 31.5365 143.979C31.1461 144.035 30.8129 144.023 30.8034 143.945C30.7939 143.867 31.1208 143.763 31.5079 143.703C31.8951 143.644 32.2346 143.659 32.2441 143.737Z" fill="#263238"/>
<path d="M32.5648 147.096C32.5394 147.167 32.203 147.063 31.8159 146.865C31.4287 146.668 31.1304 146.449 31.1558 146.378C31.1812 146.307 31.5207 146.412 31.9079 146.609C32.295 146.806 32.5933 147.025 32.5648 147.096Z" fill="#263238"/>
<path d="M32.282 149.979C32.2598 150.05 31.8345 149.93 31.3903 149.588C30.946 149.246 30.6826 148.844 30.727 148.788C30.7715 148.733 31.0983 149.034 31.5204 149.354C31.9424 149.674 32.3042 149.916 32.282 149.979Z" fill="#263238"/>
<path d="M31.0002 152.602C30.9621 152.661 30.6226 152.431 30.2989 152.018C29.9752 151.605 29.8007 151.196 29.8515 151.151C29.9022 151.106 30.1688 151.437 30.4861 151.828C30.8035 152.219 31.0446 152.542 31.0002 152.602Z" fill="#263238"/>
<path d="M18.8465 152.91C18.875 152.977 18.5291 153.282 18.05 153.55C17.5708 153.818 17.1773 154.008 17.136 153.948C17.0948 153.889 17.4534 153.576 17.9294 153.305C18.4054 153.033 18.8147 152.844 18.8465 152.91Z" fill="#263238"/>
<path d="M17.7356 150.537C17.761 150.608 17.4754 150.827 17.101 151.028C16.7265 151.229 16.3933 151.337 16.3647 151.266C16.3362 151.195 16.625 150.976 16.9994 150.775C17.3739 150.574 17.7071 150.466 17.7356 150.537Z" fill="#263238"/>
<path d="M16.9201 148.428C16.9201 148.503 16.5774 148.625 16.1331 148.7C15.6889 148.774 15.3271 148.77 15.3176 148.7C15.3081 148.629 15.6603 148.503 16.1014 148.432C16.5425 148.361 16.9106 148.357 16.9201 148.428Z" fill="#263238"/>
<path d="M19.595 147.274C19.6141 147.349 19.2777 147.535 18.8176 147.594C18.3574 147.654 17.9893 147.561 17.9957 147.487C18.002 147.412 18.3574 147.379 18.789 147.319C19.2206 147.26 19.576 147.2 19.595 147.274Z" fill="#263238"/>
<path d="M21.8197 144.682C21.8388 144.752 21.5659 144.916 21.1851 144.957C20.8043 144.998 20.525 144.905 20.5314 144.831C20.5377 144.756 20.8233 144.723 21.166 144.682C21.5087 144.641 21.8007 144.607 21.8197 144.682Z" fill="#263238"/>
<path d="M22.245 142.602C22.2228 142.677 21.9277 142.621 21.585 142.483C21.2423 142.345 20.982 142.174 21.0043 142.111C21.0265 142.048 21.3216 142.093 21.6643 142.234C22.007 142.375 22.2672 142.531 22.245 142.602Z" fill="#263238"/>
<path d="M23.0606 140.5C23.0162 140.556 22.8131 140.4 22.6671 140.102C22.5212 139.805 22.5085 139.526 22.5719 139.507C22.6354 139.488 22.7433 139.704 22.8893 139.965C23.0352 140.225 23.1082 140.448 23.0606 140.5Z" fill="#263238"/>
<path d="M22.0767 149.105C22.0926 149.179 21.8387 149.317 21.5055 149.414C21.349 149.462 21.1882 149.49 21.0264 149.496L20.9819 149.332C21.0676 149.332 21.1216 149.332 21.1343 149.351C21.1469 149.369 21.1089 149.429 21.0391 149.492L20.9915 149.328C21.1386 149.247 21.2929 149.184 21.4516 149.142C21.7816 149.049 22.0609 149.031 22.0767 149.105Z" fill="#263238"/>
<path d="M22.5306 152.791C22.5528 152.862 22.2132 153.078 21.8007 153.275C21.3882 153.472 21.0105 153.572 20.9883 153.502C20.9661 153.431 21.3057 153.212 21.715 153.018C22.1244 152.825 22.5115 152.721 22.5306 152.791Z" fill="#263238"/>
<path d="M20.0234 151.154C20.0456 151.225 19.8266 151.377 19.5378 151.493C19.2491 151.608 18.9984 151.645 18.9762 151.571C18.9539 151.497 19.1729 151.348 19.4617 151.232C19.7505 151.117 19.9916 151.08 20.0234 151.154Z" fill="#263238"/>
<path d="M20.2139 143.655C20.2139 143.73 19.8204 143.685 19.3857 143.503C18.9509 143.32 18.6304 143.075 18.659 143.008C18.6876 142.941 19.0398 143.064 19.465 143.238C19.8902 143.413 20.2298 143.592 20.2139 143.655Z" fill="#263238"/>
<path d="M26.294 142.848C26.3321 142.911 26.1194 143.149 25.8212 143.38C25.5229 143.61 25.25 143.752 25.2119 143.681C25.1738 143.61 25.3896 143.38 25.6879 143.149C25.9862 142.918 26.2591 142.773 26.294 142.848Z" fill="#263238"/>
<path d="M26.6273 146.538C26.6273 146.612 26.4147 146.731 26.1259 146.802C25.8372 146.873 25.5928 146.869 25.577 146.802C25.5611 146.735 25.7896 146.608 26.0783 146.538C26.3671 146.467 26.6115 146.463 26.6273 146.538Z" fill="#263238"/>
<path d="M27.0113 150.701C26.9827 150.767 26.659 150.663 26.2909 150.462C25.9228 150.262 25.6562 150.042 25.6562 149.971C25.6562 149.901 26.0085 150.009 26.3766 150.209C26.7447 150.41 27.0366 150.63 27.0113 150.701Z" fill="#263238"/>
<path d="M26.1957 154.752C26.1449 154.804 25.9355 154.603 25.7292 154.305C25.5229 154.008 25.4119 153.729 25.4468 153.681C25.4817 153.632 25.7038 153.833 25.9133 154.131C26.1227 154.428 26.2465 154.7 26.1957 154.752Z" fill="#263238"/>
<path d="M26.0212 140.114C26.0624 140.173 25.9228 140.378 25.6848 140.515C25.4468 140.653 25.2278 140.664 25.212 140.59C25.1961 140.515 25.3675 140.396 25.5801 140.27C25.7927 140.143 25.9894 140.054 26.0212 140.114Z" fill="#263238"/>
<path d="M29.0106 143.845C29.0328 143.915 28.7567 144.094 28.3759 144.157C27.9951 144.22 27.6936 144.135 27.6968 144.061C27.7 143.986 27.9919 143.938 28.3315 143.882C28.671 143.826 28.9884 143.774 29.0106 143.845Z" fill="#263238"/>
<path d="M28.4172 140.497C28.4458 140.564 28.1729 140.794 27.7826 140.94C27.3923 141.085 27.0591 141.085 27.0495 141.01C27.04 140.936 27.3415 140.813 27.7096 140.672C28.0777 140.53 28.3855 140.426 28.4172 140.497Z" fill="#263238"/>
<path d="M29.6614 149.034C29.6614 149.108 29.1917 149.157 28.6269 149.034C28.062 148.911 27.64 148.662 27.6749 148.606C27.7098 148.55 28.1413 148.647 28.684 148.759C29.2266 148.87 29.6614 148.956 29.6614 149.034Z" fill="#263238"/>
<path d="M28.5601 153.9C28.522 153.959 28.1761 153.721 27.8334 153.316C27.4907 152.91 27.2908 152.52 27.332 152.46C27.3733 152.401 27.6493 152.728 27.9952 153.122C28.3411 153.517 28.595 153.84 28.5601 153.9Z" fill="#263238"/>
<path d="M23.6858 136.524C22.9281 137.064 22.23 137.711 21.6073 138.451C20.1631 140.307 19.2567 142.651 19.0179 145.147C18.9103 146.519 18.9626 147.902 19.1734 149.257C19.3433 150.37 19.5626 151.471 19.8302 152.557C20.0587 153.483 20.2682 154.227 20.4078 154.744C20.4922 155.008 20.5591 155.279 20.6077 155.555C20.4915 155.309 20.3958 155.05 20.3221 154.782C20.1539 154.276 19.9191 153.539 19.6716 152.613C19.3762 151.528 19.1388 150.422 18.9608 149.302C18.7306 147.924 18.6707 146.515 18.783 145.117C19.0208 142.559 19.971 140.164 21.4867 138.302C21.9471 137.754 22.4679 137.282 23.0353 136.896C23.1882 136.787 23.3472 136.69 23.5113 136.606C23.5661 136.569 23.6248 136.542 23.6858 136.524Z" fill="#263238"/>
<path d="M26.9192 155.756C26.8652 155.723 27.4491 154.67 27.9822 152.78C28.6959 150.314 28.9131 147.687 28.6169 145.106C28.4569 143.682 28.1168 142.294 27.6078 140.988C27.182 139.938 26.5996 138.985 25.8878 138.175C25.3845 137.658 24.8148 137.236 24.1996 136.926C23.7617 136.713 23.4983 136.661 23.5015 136.639C23.5656 136.627 23.6309 136.627 23.6951 136.639C23.8775 136.677 24.0568 136.733 24.2314 136.806C24.8754 137.083 25.4727 137.491 25.9957 138.012C26.7461 138.818 27.3598 139.784 27.8045 140.858C28.3337 142.175 28.6869 143.58 28.8517 145.024C29.1551 147.646 28.9101 150.316 28.1377 152.802C28.0045 153.282 27.8204 153.692 27.703 154.064C27.5856 154.436 27.4237 154.733 27.3095 154.979C27.1964 155.249 27.0659 155.509 26.9192 155.756Z" fill="#263238"/>
<path d="M17.7358 155.098H30.8036L30.883 158.163H17.7358V155.098Z" fill="#FF9F1C"/>
<path d="M18.8462 156.63L19.5951 165.99H29.15L29.918 156.735L18.8462 156.63Z" fill="#FF9F1C"/>
<path d="M30.8832 158.2C30.8832 158.278 27.9415 158.338 24.3112 158.338C20.6809 158.338 17.7393 158.278 17.7393 158.2C17.7393 158.122 20.6809 158.062 24.3112 158.062C27.9415 158.062 30.8832 158.122 30.8832 158.2Z" fill="#263238"/>
<path d="M29.556 161.05C29.488 161.261 29.3939 161.459 29.2768 161.637C28.982 162.146 28.6416 162.616 28.2613 163.04L28.201 163.107L28.1439 163.032C27.3588 162.068 26.5006 161.189 25.5799 160.406H25.7258L24.5898 161.574L23.2475 162.936L23.1745 163.014L23.0983 162.939L20.9182 160.789L21.0452 160.771C20.5946 161.418 20.2138 161.957 19.9155 162.389C19.7853 162.596 19.6363 162.785 19.4712 162.954C19.5757 162.728 19.6979 162.514 19.8361 162.314L20.9024 160.644L20.9595 160.559L21.0325 160.626L23.2538 162.731H23.1078L24.4438 161.355L25.583 160.19L25.6528 160.12L25.729 160.183C26.6521 160.983 27.5028 161.891 28.2677 162.895H28.1471C28.6594 162.326 29.1306 161.709 29.556 161.05Z" fill="#263238"/>
<path d="M186.576 49.0186H48.2441C45.6906 49.0186 43.6206 51.4452 43.6206 54.4386V158.003C43.6206 160.997 45.6906 163.423 48.2441 163.423H186.576C189.13 163.423 191.2 160.997 191.2 158.003V54.4386C191.2 51.4452 189.13 49.0186 186.576 49.0186Z" fill="#0A1D47"/>
<path d="M38.7905 156.032H198.679V159.421C198.679 161.177 198.084 162.861 197.024 164.103C195.965 165.345 194.528 166.042 193.03 166.042H44.4264C42.9283 166.042 41.4916 165.345 40.4322 164.103C39.3729 162.861 38.7778 161.177 38.7778 159.421V156.032H38.7905Z" fill="#0A1D47"/>
<path d="M102.863 154.96L104.847 158.662H132.766L134.606 154.96H102.863Z" fill="#263238"/>
<path d="M189.93 154.961C189.93 155.024 157.175 155.072 116.782 155.072C76.3885 155.072 43.6206 155.024 43.6206 154.961C43.6206 154.897 76.3694 154.849 116.782 154.849C157.194 154.849 189.93 154.897 189.93 154.961Z" fill="#263238"/>
<path d="M185.357 55.5952H48.8848C48.3118 55.5952 47.8472 56.1398 47.8472 56.8117V150.719C47.8472 151.391 48.3118 151.936 48.8848 151.936H185.357C185.93 151.936 186.395 151.391 186.395 150.719V56.8117C186.395 56.1398 185.93 55.5952 185.357 55.5952Z" fill="#EBEBEB"/>
<path d="M186.246 152.077H47.6982L47.8474 62.7974H186.246V152.077Z" fill="white"/>
<path d="M59.211 59.3194C59.2129 59.5766 59.1496 59.8287 59.029 60.0437C58.9085 60.2586 58.7362 60.4268 58.534 60.5267C58.3318 60.6267 58.1088 60.654 57.8934 60.6052C57.6779 60.5564 57.4797 60.4336 57.3239 60.2525C57.168 60.0714 57.0616 59.8401 57.0181 59.5879C56.9746 59.3358 56.9959 59.0742 57.0795 58.8363C57.163 58.5984 57.305 58.395 57.4873 58.2518C57.6696 58.1087 57.8841 58.0322 58.1036 58.0322C58.3959 58.0312 58.6766 58.1662 58.8842 58.4075C59.0918 58.6487 59.2094 58.9767 59.211 59.3194Z" fill="#263238"/>
<path d="M52.5055 59.3194C52.5074 59.5771 52.4438 59.8296 52.3228 60.0448C52.2018 60.26 52.029 60.4282 51.8262 60.5278C51.6235 60.6275 51.4 60.6541 51.1843 60.6044C50.9686 60.5546 50.7704 60.4308 50.6149 60.2485C50.4594 60.0663 50.3538 59.8339 50.3113 59.5811C50.2689 59.3282 50.2917 59.0662 50.3767 58.8285C50.4617 58.5909 50.6051 58.3882 50.7887 58.2464C50.9722 58.1046 51.1877 58.0301 51.4075 58.0323C51.6982 58.0342 51.9765 58.1705 52.182 58.4114C52.3876 58.6524 52.5038 58.9786 52.5055 59.3194Z" fill="#263238"/>
<path d="M55.7233 59.3193C55.7233 59.5761 55.6583 59.8271 55.5366 60.0406C55.415 60.2541 55.242 60.4205 55.0396 60.5187C54.8373 60.617 54.6146 60.6427 54.3997 60.5926C54.1849 60.5425 53.9876 60.4189 53.8327 60.2373C53.6778 60.0557 53.5723 59.8244 53.5296 59.5726C53.4868 59.3207 53.5088 59.0597 53.5926 58.8225C53.6764 58.5852 53.8184 58.3825 54.0005 58.2398C54.1826 58.0971 54.3968 58.021 54.6158 58.021C54.7614 58.0205 54.9056 58.0538 55.0401 58.1188C55.1747 58.1839 55.2969 58.2795 55.3999 58.4002C55.5028 58.5208 55.5843 58.6641 55.6398 58.8219C55.6954 58.9796 55.7237 59.1487 55.7233 59.3193Z" fill="#263238"/>
<path d="M186.395 143.455H47.6982V152.078H186.395V143.455Z" fill="#263238"/>
<path d="M52.9405 148.763V149.038H51.8362V148.822L52.4296 148.16C52.5756 147.997 52.6009 147.892 52.6009 147.788C52.6009 147.628 52.5057 147.535 52.3217 147.535C52.2553 147.531 52.1891 147.545 52.1284 147.577C52.0677 147.609 52.0143 147.657 51.9726 147.718L51.7759 147.543C51.8454 147.446 51.9332 147.369 52.0324 147.319C52.1315 147.269 52.2392 147.246 52.3471 147.253C52.6644 147.253 52.8834 147.442 52.8834 147.755C52.8813 147.864 52.8575 147.971 52.814 148.067C52.7705 148.163 52.7084 148.246 52.6327 148.309L52.2328 148.756L52.9405 148.763Z" fill="white"/>
<path d="M53.0895 147.892C53.0895 147.851 53.1 147.811 53.1197 147.776C53.1393 147.742 53.1673 147.715 53.1999 147.7C53.2326 147.684 53.2685 147.68 53.303 147.688C53.3376 147.697 53.3692 147.717 53.394 147.746C53.4187 147.776 53.4354 147.813 53.4418 147.854C53.4483 147.895 53.4444 147.937 53.4304 147.975C53.4165 148.013 53.3932 148.045 53.3636 148.067C53.3339 148.09 53.2993 148.101 53.264 148.101C53.2407 148.101 53.2175 148.096 53.1959 148.086C53.1744 148.075 53.1548 148.06 53.1385 148.041C53.1221 148.021 53.1094 147.998 53.1009 147.972C53.0925 147.947 53.0886 147.92 53.0895 147.892ZM53.0895 148.848C53.0861 148.819 53.0881 148.789 53.0954 148.761C53.1027 148.732 53.1151 148.706 53.1318 148.683C53.1485 148.661 53.1691 148.643 53.1921 148.631C53.2152 148.619 53.2403 148.612 53.2656 148.612C53.2909 148.612 53.316 148.619 53.339 148.631C53.3621 148.643 53.3827 148.661 53.3994 148.683C53.416 148.706 53.4285 148.732 53.4358 148.761C53.4431 148.789 53.4451 148.819 53.4417 148.848C53.4451 148.878 53.4431 148.908 53.4358 148.936C53.4285 148.965 53.416 148.991 53.3994 149.013C53.3827 149.036 53.3621 149.054 53.339 149.066C53.316 149.078 53.2909 149.084 53.2656 149.084C53.2403 149.084 53.2152 149.078 53.1921 149.066C53.1691 149.054 53.1485 149.036 53.1318 149.013C53.1151 148.991 53.1027 148.965 53.0954 148.936C53.0881 148.908 53.0861 148.878 53.0895 148.848Z" fill="white"/>
<path d="M54.1369 147.282V149.038H53.8608V147.55H53.5435V147.275L54.1369 147.282Z" fill="white"/>
<path d="M55.7708 148.64H55.5042V149.038H55.2345V148.64H54.4126V148.428L55.152 147.312H55.4503L54.7521 148.395H55.244V148.041H55.5042V148.395H55.7708V148.64Z" fill="white"/>
<path d="M171.899 147.937H58.2178V148.543H171.899V147.937Z" fill="white"/>
<path d="M93.6573 147.286H58.1318V148.908H93.6573V147.286Z" fill="#FF9F1C"/>
<path d="M94.8061 148.242C94.8061 148.643 94.7047 149.035 94.5146 149.369C94.3246 149.702 94.0545 149.962 93.7385 150.115C93.4224 150.269 93.0747 150.309 92.7392 150.231C92.4037 150.152 92.0956 149.959 91.8537 149.676C91.6118 149.392 91.4471 149.031 91.3804 148.638C91.3137 148.244 91.3479 147.837 91.4788 147.466C91.6097 147.096 91.8314 146.779 92.1158 146.557C92.4002 146.334 92.7346 146.215 93.0766 146.215C93.5353 146.215 93.9752 146.428 94.2995 146.809C94.6239 147.189 94.8061 147.705 94.8061 148.242Z" fill="#FF9F1C"/>
<path d="M174.761 148.224C174.761 148.305 174.746 148.385 174.718 148.459C174.689 148.532 174.648 148.599 174.597 148.653C174.545 148.707 174.485 148.748 174.419 148.774C174.354 148.799 174.284 148.808 174.216 148.8C173.806 148.8 173.581 148.492 173.581 147.926C173.568 147.806 173.578 147.684 173.61 147.569C173.642 147.454 173.694 147.348 173.764 147.259C173.835 147.171 173.92 147.101 174.016 147.055C174.111 147.008 174.214 146.987 174.317 146.992C174.455 146.989 174.591 147.028 174.711 147.108L174.606 147.353C174.521 147.292 174.423 147.262 174.323 147.268C174.041 147.268 173.863 147.472 173.863 147.87C173.915 147.808 173.977 147.759 174.046 147.727C174.115 147.696 174.189 147.682 174.263 147.688C174.326 147.683 174.39 147.693 174.449 147.718C174.509 147.742 174.564 147.781 174.61 147.831C174.657 147.881 174.694 147.941 174.72 148.009C174.746 148.077 174.76 148.15 174.761 148.224ZM174.492 148.224C174.492 148.042 174.374 147.926 174.193 147.926C174.155 147.919 174.116 147.921 174.079 147.932C174.042 147.944 174.007 147.965 173.977 147.993C173.947 148.022 173.922 148.057 173.905 148.098C173.888 148.138 173.878 148.182 173.876 148.227C173.876 148.391 173.987 148.521 174.193 148.521C174.229 148.528 174.266 148.526 174.301 148.515C174.336 148.504 174.368 148.485 174.397 148.458C174.425 148.432 174.448 148.398 174.464 148.36C174.481 148.323 174.49 148.281 174.492 148.239V148.224Z" fill="white"/>
<path d="M174.898 147.621C174.895 147.591 174.897 147.561 174.904 147.533C174.911 147.505 174.924 147.478 174.94 147.456C174.957 147.434 174.978 147.416 175.001 147.403C175.024 147.391 175.049 147.385 175.074 147.385C175.1 147.385 175.125 147.391 175.148 147.403C175.171 147.416 175.191 147.434 175.208 147.456C175.225 147.478 175.237 147.505 175.244 147.533C175.252 147.561 175.254 147.591 175.25 147.621C175.254 147.65 175.252 147.68 175.244 147.709C175.237 147.737 175.225 147.763 175.208 147.786C175.191 147.808 175.171 147.826 175.148 147.838C175.125 147.851 175.1 147.857 175.074 147.857C175.049 147.857 175.024 147.851 175.001 147.838C174.978 147.826 174.957 147.808 174.94 147.786C174.924 147.763 174.911 147.737 174.904 147.709C174.897 147.68 174.895 147.65 174.898 147.621ZM174.898 148.577C174.895 148.547 174.897 148.518 174.904 148.489C174.911 148.461 174.924 148.434 174.94 148.412C174.957 148.39 174.978 148.372 175.001 148.359C175.024 148.347 175.049 148.341 175.074 148.341C175.1 148.341 175.125 148.347 175.148 148.359C175.171 148.372 175.191 148.39 175.208 148.412C175.225 148.434 175.237 148.461 175.244 148.489C175.252 148.518 175.254 148.547 175.25 148.577C175.254 148.606 175.252 148.636 175.244 148.665C175.237 148.693 175.225 148.719 175.208 148.742C175.191 148.764 175.171 148.782 175.148 148.794C175.125 148.807 175.1 148.813 175.074 148.813C175.049 148.813 175.024 148.807 175.001 148.794C174.978 148.782 174.957 148.764 174.94 148.742C174.924 148.719 174.911 148.693 174.904 148.665C174.897 148.636 174.895 148.606 174.898 148.577Z" fill="white"/>
<path d="M175.428 147.889C175.428 147.312 175.697 146.985 176.062 146.985C176.427 146.985 176.697 147.312 176.697 147.889C176.697 148.465 176.427 148.793 176.062 148.793C175.697 148.793 175.428 148.465 175.428 147.889ZM176.399 147.889C176.399 147.465 176.259 147.271 176.053 147.271C175.847 147.271 175.707 147.465 175.707 147.889C175.707 148.313 175.85 148.51 176.053 148.51C176.256 148.51 176.399 148.313 176.399 147.889Z" fill="white"/>
<path d="M176.865 147.889C176.865 147.312 177.135 146.985 177.5 146.985C177.865 146.985 178.135 147.312 178.135 147.889C178.135 148.465 177.865 148.793 177.5 148.793C177.135 148.793 176.865 148.465 176.865 147.889ZM177.839 147.889C177.839 147.465 177.697 147.271 177.49 147.271C177.284 147.271 177.148 147.465 177.148 147.889C177.148 148.313 177.287 148.51 177.49 148.51C177.693 148.51 177.839 148.313 177.839 147.889Z" fill="white"/>
<path d="M180.54 147.781H180.02V146.029H181.515V146.635H180.54V147.781Z" fill="white"/>
<path d="M181.515 150.065H180.02V148.316H180.537V149.458H181.515V150.065Z" fill="white"/>
<path d="M183.894 150.065H182.403V149.459H183.374V148.313H183.894V150.065Z" fill="white"/>
<path d="M183.895 147.777H183.377V146.635H182.4V146.029H183.895V147.777Z" fill="white"/>
<path d="M66.6997 68.106H58.5316L54.4507 76.3978L58.5316 84.686H66.6997L70.7807 76.3978L66.6997 68.106Z" fill="#EBEBEB"/>
<path d="M59.1983 78.0198C58.8186 77.5621 58.4843 77.0554 58.2019 76.5095C57.9172 75.9584 57.7977 75.3116 57.8624 74.6718C57.948 74.3132 58.0169 73.9493 58.0686 73.5818C58.1004 73.0685 57.9163 72.5328 58.0686 72.0529C58.3098 71.3089 59.1698 71.1862 59.6934 70.6691C60.0996 70.2636 60.2995 69.6089 60.7469 69.2704C61.1625 69.0124 61.6427 68.9359 62.1019 69.0546C62.5563 69.1773 63.0231 69.2249 63.4887 69.1959C63.8103 69.1152 64.1281 69.0146 64.4407 68.8946C64.755 68.7787 65.0952 68.8067 65.3927 68.9728C65.538 69.0658 65.6466 69.2217 65.6952 69.4073C65.7438 69.5929 65.7286 69.7934 65.6529 69.966C66.1892 69.6758 66.8683 70.1669 67.0142 70.8328C67.0702 71.1736 67.0437 71.526 66.9377 71.8501C66.8317 72.1742 66.6505 72.4571 66.4145 72.6667C65.9397 73.0813 65.3828 73.3476 64.7961 73.4405C63.1555 73.8125 61.3784 73.6004 59.9663 72.5588" fill="#263238"/>
<path d="M66.7699 80.0656C66.716 78.879 66.4336 76.4461 66.1543 74.2476C66.0099 73.1086 65.5056 72.0749 64.7415 71.3514C63.9774 70.6279 63.0092 70.2675 62.029 70.3416H61.8259C59.6553 70.6615 58.6748 73.0014 59.008 75.5496L59.6426 84.6822H64.9421C64.9421 84.6822 64.8152 83.0788 64.8152 83.064C64.8152 83.0491 66.8842 82.5208 66.7699 80.0656Z" fill="#FFBE9D"/>
<path d="M64.8118 83.0345C63.8459 83.1298 62.8775 82.8878 62.0288 82.3389C62.0288 82.3389 62.7777 84.0538 64.8531 83.6706L64.8118 83.0345Z" fill="#FFBE9D"/>
<path d="M65.4782 76.353C65.4843 76.4437 65.4598 76.5335 65.41 76.6031C65.3601 76.6727 65.2888 76.7165 65.2116 76.725C65.1745 76.7307 65.1367 76.7277 65.1006 76.7162C65.0645 76.7047 65.0307 76.6848 65.0011 76.6578C64.9716 76.6308 64.9469 76.5972 64.9286 76.5589C64.9102 76.5207 64.8986 76.4785 64.8943 76.4349C64.8889 76.3445 64.9137 76.2551 64.9634 76.1858C65.0132 76.1164 65.0839 76.0723 65.1608 76.0629C65.198 76.0572 65.2357 76.0602 65.2718 76.0717C65.308 76.0832 65.3418 76.1031 65.3713 76.1301C65.4008 76.1571 65.4255 76.1907 65.4438 76.229C65.4622 76.2673 65.4738 76.3094 65.4782 76.353Z" fill="#263238"/>
<path d="M65.7734 75.4827C65.7385 75.5311 65.5005 75.3525 65.1768 75.3786C64.8531 75.4046 64.631 75.6129 64.5929 75.5683C64.5548 75.5237 64.5929 75.4641 64.7071 75.3674C64.8399 75.2443 65.0015 75.1716 65.1704 75.1591C65.3379 75.145 65.5049 75.1945 65.6464 75.3005C65.7512 75.3823 65.7892 75.4604 65.7734 75.4827Z" fill="#263238"/>
<path d="M62.4384 76.6098C62.4394 76.699 62.413 76.7856 62.3641 76.8538C62.3152 76.9221 62.2469 76.9675 62.1718 76.9818C62.0967 76.9913 62.0213 76.9658 61.962 76.9108C61.9026 76.8559 61.8641 76.7758 61.8545 76.6879C61.8535 76.5987 61.8799 76.5121 61.9288 76.4439C61.9778 76.3756 62.046 76.3302 62.1211 76.3159C62.1963 76.3064 62.2716 76.3319 62.3309 76.3869C62.3903 76.4418 62.4289 76.5219 62.4384 76.6098Z" fill="#263238"/>
<path d="M62.6127 75.8024C62.5778 75.8508 62.3398 75.6722 62.0161 75.6982C61.6925 75.7243 61.4703 75.9289 61.4322 75.888C61.3942 75.847 61.4322 75.7838 61.5465 75.6871C61.6794 75.5612 61.8424 75.4868 62.0129 75.4741C62.1834 75.4614 62.3531 75.5112 62.4985 75.6164C62.5905 75.6982 62.6286 75.7801 62.6127 75.8024Z" fill="#263238"/>
<path d="M63.9392 78.4921C64.1054 78.4157 64.2792 78.3644 64.4564 78.3395C64.5389 78.3395 64.6151 78.2986 64.6246 78.2317C64.6259 78.1325 64.6015 78.0353 64.5548 77.9527L64.2692 77.2384C64.0092 76.6394 63.7896 76.0175 63.6123 75.3784C63.915 75.9564 64.1771 76.5623 64.3961 77.1901C64.4913 77.4393 64.5833 77.6811 64.6722 77.908C64.7276 78.0205 64.7499 78.1512 64.7357 78.28C64.7252 78.3147 64.7085 78.3464 64.6866 78.3727C64.6646 78.3991 64.6381 78.4195 64.6087 78.4325C64.5634 78.4498 64.5166 78.461 64.4691 78.466C64.2941 78.5011 64.116 78.5099 63.9392 78.4921Z" fill="#263238"/>
<path d="M62.6096 74.3145C62.5843 74.4186 62.2606 74.3963 61.8861 74.4819C61.5117 74.5674 61.2134 74.7088 61.1562 74.6195C61.0991 74.5302 61.1816 74.4782 61.299 74.3666C61.4553 74.2305 61.637 74.14 61.829 74.1024C62.0199 74.0584 62.2171 74.0699 62.4034 74.1359C62.5462 74.1917 62.6223 74.2661 62.6096 74.3145Z" fill="#263238"/>
<path d="M65.5924 74.3998C65.5384 74.4891 65.3131 74.4184 65.0466 74.4333C64.78 74.4482 64.5579 74.53 64.5008 74.4333C64.4436 74.3366 64.5008 74.3031 64.5991 74.2138C64.7247 74.1033 64.8769 74.0421 65.0339 74.039C65.1905 74.0309 65.3454 74.0789 65.4781 74.1766C65.5765 74.2696 65.6146 74.3552 65.5924 74.3998Z" fill="#263238"/>
<path d="M59.2774 77.3764C59.2393 77.3764 57.8081 77.0044 57.9509 78.6672C58.0937 80.33 59.6423 79.7832 59.6391 79.746C59.636 79.7088 59.2774 77.3764 59.2774 77.3764Z" fill="#FFBE9D"/>
<path d="M59.0048 79.1801C59.0048 79.1801 58.9826 79.2024 58.9445 79.2285C58.8874 79.2654 58.8202 79.2747 58.7573 79.2545C58.6592 79.197 58.5759 79.1097 58.5162 79.0018C58.4565 78.8939 58.4225 78.7692 58.4177 78.6407C58.4012 78.4981 58.4132 78.3529 58.4526 78.2166C58.4609 78.162 58.4805 78.1106 58.5099 78.0671C58.5392 78.0236 58.5774 77.9893 58.6208 77.9674C58.6486 77.9563 58.6787 77.9564 58.7064 77.9679C58.734 77.9794 58.7576 78.0015 58.7731 78.0306C58.7985 78.0753 58.7922 78.1125 58.7985 78.1125C58.8049 78.1125 58.8271 78.0827 58.7985 78.012C58.787 77.9725 58.7647 77.9385 58.7351 77.9153C58.7141 77.8997 58.6906 77.8893 58.666 77.8848C58.6414 77.8804 58.6163 77.8819 58.5923 77.8893C58.5351 77.9104 58.4833 77.9481 58.4417 77.9988C58.4001 78.0495 58.3701 78.1116 58.3543 78.1794C58.3067 78.3316 58.2914 78.495 58.3098 78.6556C58.3133 78.8057 58.3555 78.9511 58.4309 79.0726C58.5062 79.1942 58.6111 79.2861 58.7319 79.3364C58.7716 79.3448 58.8124 79.3429 58.8513 79.3306C58.8903 79.3184 58.9264 79.2962 58.9572 79.2657C59.0238 79.2359 59.0238 79.1801 59.0048 79.1801Z" fill="#FFBE9D"/>
<path d="M66.0494 71.9524C65.9511 72.6183 64.796 73.2321 63.8281 73.1987C62.9459 73.1689 62.508 72.6555 61.8702 72.291C61.464 72.0603 61.464 72.0603 60.9182 72.1645C60.4739 72.2501 60.2423 72.8638 59.9947 73.3065C60.4707 74.523 60.2772 75.9366 60.0741 77.2535C60.0662 77.4012 60.0159 77.5416 59.9313 77.6515C59.8398 77.7174 59.7315 77.7434 59.6253 77.725C59.5191 77.7067 59.4219 77.6451 59.3505 77.5511C59.1157 77.2549 58.9592 76.8854 58.8999 76.4871C58.7 75.598 58.6526 74.6712 58.7603 73.7604C58.8655 72.8492 59.1966 71.9942 59.7123 71.3014C60.3923 70.4612 61.3242 69.9637 62.3113 69.9139C63.2941 69.8714 64.2634 70.1929 65.0816 70.8327C65.4719 71.108 65.7987 71.4912 66.0336 71.9487" fill="#263238"/>
<path d="M64.1517 79.355L63.4218 78.957C63.3813 78.93 63.3351 78.917 63.2885 78.9198C63.2377 78.9331 63.1933 78.9691 63.1648 79.0202C63.0792 79.1395 63.0256 79.2859 63.011 79.4408C62.9963 79.5958 63.0211 79.7523 63.0823 79.8907C63.1489 80.0263 63.254 80.1301 63.3794 80.1838C63.5047 80.2375 63.6422 80.2378 63.7677 80.1846C63.8903 80.1056 63.9925 79.9892 64.0635 79.8478C64.1344 79.7064 64.1714 79.5451 64.1707 79.3811L64.1517 79.355Z" fill="#FFBE9D"/>
<path d="M63.7838 80.2478C63.7838 80.2478 63.6315 80.3855 63.3554 80.2925C63.1942 80.2283 63.0594 80.0956 62.9778 79.9205C62.9259 79.8154 62.8947 79.6981 62.8865 79.5771C62.8782 79.4561 62.8932 79.3345 62.9302 79.2211C62.969 79.1028 63.0297 78.9961 63.1079 78.9086C63.1458 78.8677 63.1873 78.8315 63.2317 78.8007C63.261 78.7825 63.2937 78.7729 63.3269 78.7729C63.3601 78.7729 63.3927 78.7825 63.4221 78.8007C63.5903 78.9086 63.7013 79.0016 63.8124 79.0834C64.025 79.2508 64.1519 79.3662 64.1297 79.3885C64.1075 79.4108 63.9711 79.3401 63.7426 79.2025L63.3523 78.9644C63.3237 78.9644 63.3269 78.9644 63.2951 78.9644C63.2632 78.9895 63.2335 79.0182 63.2063 79.05C63.1465 79.1189 63.1009 79.2029 63.073 79.2955C63.0446 79.3831 63.0321 79.4767 63.0365 79.5702C63.0409 79.6638 63.062 79.7552 63.0984 79.8386C63.1602 79.979 63.2609 80.0905 63.384 80.1548C63.622 80.2739 63.7838 80.2143 63.7838 80.2478Z" fill="#263238"/>
<path d="M63.558 76.3937C63.558 76.3937 63.558 76.2412 63.4818 75.9771C63.3899 75.6084 63.1969 75.2855 62.9328 75.0582C62.7214 74.8739 62.4703 74.7621 62.2078 74.7353C61.9453 74.7085 61.6816 74.7678 61.4461 74.9065C61.2107 75.0452 61.0127 75.2579 60.8744 75.5209C60.7361 75.7838 60.6629 76.0866 60.6629 76.3956C60.6629 76.7045 60.7361 77.0073 60.8744 77.2703C61.0127 77.5332 61.2107 77.7459 61.4461 77.8847C61.6816 78.0234 61.9453 78.0826 62.2078 78.0558C62.4703 78.029 62.7214 77.9172 62.9328 77.7329C63.1969 77.5056 63.3899 77.1827 63.4818 76.8141C63.5453 76.5499 63.5421 76.3937 63.558 76.3937C63.5738 76.3937 63.558 76.4346 63.558 76.509C63.56 76.6179 63.5504 76.7266 63.5294 76.8327C63.458 77.2325 63.268 77.5897 62.9931 77.8408C62.7876 78.0288 62.545 78.1533 62.2877 78.2027C62.0304 78.2521 61.7667 78.2249 61.5207 78.1235C61.2163 77.9966 60.953 77.7624 60.7667 77.453C60.5805 77.1436 60.4805 76.7742 60.4805 76.3956C60.4805 76.0169 60.5805 75.6475 60.7667 75.3381C60.953 75.0287 61.2163 74.7945 61.5207 74.6676C61.7667 74.5663 62.0304 74.539 62.2877 74.5884C62.545 74.6378 62.7876 74.7623 62.9931 74.9503C63.268 75.2014 63.458 75.5586 63.5294 75.9585C63.5505 76.0645 63.5601 76.1732 63.558 76.2821C63.5675 76.3565 63.5643 76.3937 63.558 76.3937Z" fill="#263238"/>
<path d="M67.1223 76.2303C67.1064 76.2303 67.1223 76.0815 67.0461 75.8248C66.9572 75.4665 66.7698 75.1526 66.513 74.932C66.3072 74.7528 66.0629 74.6441 65.8074 74.6182C65.552 74.5922 65.2954 74.65 65.0663 74.785C64.8373 74.92 64.6447 75.127 64.5102 75.3829C64.3756 75.6388 64.3044 75.9334 64.3044 76.234C64.3044 76.5346 64.3756 76.8293 64.5102 77.0851C64.6447 77.341 64.8373 77.548 65.0663 77.683C65.2954 77.8181 65.552 77.8758 65.8074 77.8499C66.0629 77.8239 66.3072 77.7153 66.513 77.536C66.7698 77.3155 66.9572 77.0016 67.0461 76.6432C67.1096 76.3865 67.1064 76.234 67.1223 76.234C67.1381 76.234 67.1223 76.2712 67.1223 76.3456C67.124 76.4518 67.1155 76.5579 67.0969 76.6618C67.026 77.0511 66.8407 77.3987 66.5733 77.6439C66.3728 77.8278 66.1359 77.9495 65.8846 77.9976C65.6334 78.0457 65.3758 78.0187 65.1358 77.9192C64.8392 77.7951 64.5827 77.5665 64.4013 77.2649C64.2199 76.9632 64.1226 76.6031 64.1226 76.234C64.1226 75.8649 64.2199 75.5049 64.4013 75.2032C64.5827 74.9015 64.8392 74.6729 65.1358 74.5489C65.3758 74.4493 65.6334 74.4224 65.8846 74.4705C66.1359 74.5186 66.3728 74.6402 66.5733 74.8241C66.8409 75.0707 67.0262 75.4196 67.0969 75.8099C67.1158 75.9138 67.1243 76.0199 67.1223 76.1261C67.1318 76.1931 67.1286 76.2303 67.1223 76.2303Z" fill="#263238"/>
<path d="M64.2151 75.8475C64.1834 75.881 64.0406 75.7731 63.8502 75.7805C63.6598 75.788 63.5328 75.8958 63.4884 75.8624C63.444 75.8289 63.5772 75.5945 63.847 75.5871C64.1167 75.5796 64.2564 75.8177 64.2151 75.8475Z" fill="#263238"/>
<path d="M60.6642 76.1484C60.6927 76.1894 60.4135 76.487 60.0454 76.8106C59.8372 77.0332 59.5934 77.2052 59.3282 77.3165C59.2996 77.2756 59.5789 76.978 59.947 76.6544C60.1546 76.4309 60.3985 76.2589 60.6642 76.1484Z" fill="#263238"/>
<path d="M90.1224 76.3121C90.1224 76.3641 86.4509 76.4088 81.9226 76.4088C77.3942 76.4088 73.7227 76.3641 73.7227 76.3121C73.7227 76.26 77.3942 76.2153 81.9226 76.2153C86.4509 76.2153 90.1224 76.26 90.1224 76.3121Z" fill="#263238"/>
<path d="M82.5348 78.3251C82.5348 78.3771 80.5864 78.4218 78.181 78.4218C75.7756 78.4218 73.8271 78.3771 73.8271 78.3251C73.8271 78.273 75.7756 78.2246 78.181 78.2246C80.5864 78.2246 82.5348 78.2693 82.5348 78.3251Z" fill="#263238"/>
<path d="M139.243 91.1738C140.679 92.1315 141.94 93.4137 142.951 94.9462C143.962 96.4787 144.703 98.2311 145.133 100.102C146.665 106.53 151.352 123.27 151.352 123.27C151.352 123.27 154.031 126.964 154.316 129.698C154.602 132.432 154.031 139.05 153.167 140.285C152.917 140.644 152.596 140.925 152.233 141.104C151.869 141.284 151.473 141.357 151.079 141.316L139.804 140.062L135.362 105.213L139.243 91.1738Z" fill="#FF9F1C"/>
<path d="M101.962 90.5672C101.962 90.5672 93.8989 93.5432 91.8901 96.11L98.4907 132.105L98.3733 143.466H136.606C136.606 142.904 136.948 105.752 136.948 105.752L139.243 91.1736L125.664 88.3724L122.986 85.9023L107.871 86.8026L105.574 89.4921L101.962 90.5672Z" fill="#FF9F1C"/>
<g opacity="0.3">
<path opacity="0.3" d="M105.037 121.797C104.92 121.491 104.749 121.16 104.469 121.093C104.009 120.982 103.701 121.618 103.546 122.139C102.327 126.219 100.638 130.085 98.5256 133.63L98.4272 139.158C100.649 136.959 102.851 134.604 104.273 131.625C105.694 128.645 106.224 124.906 105.037 121.797Z" fill="#263238"/>
</g>
<path d="M91.8901 96.1099C91.8901 96.1099 89.2341 100.354 88.1329 103.126C87.0318 105.897 77.8894 129.166 77.3436 131.573C76.7978 133.979 75.3761 141.546 79.549 143.302H88.1393L96.758 122.868L97.1991 99.1528L91.8901 96.1099Z" fill="#FF9F1C"/>
<path d="M88.6819 128.541C88.6819 128.541 88.4915 128.344 88.0948 128.08C87.5286 127.724 86.9215 127.466 86.2923 127.313C85.8598 127.202 85.4206 127.13 84.9786 127.098C84.4694 127.053 83.9573 127.095 83.4586 127.224C82.3297 127.564 81.3192 128.308 80.5676 129.352C79.8034 130.385 79.2442 131.603 78.9302 132.919C78.671 133.996 78.4989 135.098 78.4161 136.212C78.3336 137.164 78.3051 137.941 78.2765 138.473C78.2765 138.726 78.2511 138.931 78.2448 139.091C78.2449 139.164 78.2364 139.237 78.2194 139.307C78.2153 139.235 78.2153 139.163 78.2194 139.091C78.2194 138.927 78.2194 138.719 78.2194 138.473C78.2194 137.934 78.2384 137.16 78.305 136.201C78.3721 135.068 78.5348 133.947 78.7906 132.853C79.1023 131.506 79.6697 130.26 80.4502 129.207C81.2253 128.134 82.2689 127.373 83.4332 127.034C83.9422 126.91 84.4642 126.876 84.9817 126.934C85.4298 126.973 85.8744 127.053 86.3114 127.176C86.9476 127.342 87.5579 127.623 88.1202 128.009C88.2716 128.119 88.4149 128.243 88.5486 128.381C88.5977 128.429 88.6424 128.482 88.6819 128.541Z" fill="#263238"/>
<path d="M84.6104 124.472C84.7042 124.439 84.8013 124.422 84.8991 124.42C85.1642 124.395 85.4305 124.395 85.6956 124.42C86.0904 124.447 86.4823 124.515 86.8666 124.624C87.8122 124.892 88.6996 125.389 89.4719 126.082C89.7865 126.363 90.0786 126.677 90.3446 127.02C90.5249 127.252 90.6893 127.501 90.8364 127.764C90.8963 127.855 90.9454 127.955 90.9824 128.061C90.957 128.084 90.7222 127.689 90.2589 127.124C89.9852 126.802 89.6913 126.505 89.3799 126.235C88.9963 125.908 88.5885 125.621 88.1613 125.379C87.7317 125.144 87.2858 124.953 86.8285 124.806C86.4534 124.693 86.0715 124.613 85.6861 124.568C85.0261 124.468 84.6104 124.509 84.6104 124.472Z" fill="#263238"/>
<path d="M92.3725 123.351C92.2396 123.358 92.1065 123.346 91.9758 123.318C91.7219 123.281 91.357 123.236 90.9 123.195C88.5268 122.988 86.1418 123.322 83.8775 124.181C83.4427 124.345 83.0937 124.49 82.8557 124.598C82.7342 124.66 82.6077 124.709 82.478 124.743C82.5873 124.654 82.7056 124.581 82.8303 124.527C83.0619 124.397 83.4078 124.233 83.8394 124.051C86.1054 123.11 88.5215 122.772 90.9127 123.061C91.3665 123.117 91.7346 123.18 91.9853 123.243C92.117 123.265 92.2466 123.301 92.3725 123.351Z" fill="#263238"/>
<path d="M116.835 103.468C116.801 103.433 116.771 103.392 116.747 103.346L116.512 102.974L115.649 101.575C114.909 100.347 113.875 98.6361 112.659 96.6273L112.793 96.605C112.329 98.1971 111.818 99.953 111.282 101.813L111.247 101.928L111.158 101.861L110.981 101.727C110.289 101.209 109.661 100.583 109.112 99.8674C108.604 99.2012 108.157 98.4758 107.776 97.7024C107.142 96.3936 106.648 94.9979 106.306 93.5471C106.077 92.5672 105.892 91.5738 105.751 90.5711C105.7 90.2363 105.662 89.9648 105.63 89.7602C105.621 89.6908 105.608 89.6223 105.589 89.5556C105.589 89.5109 105.567 89.4886 105.57 89.4849C105.573 89.4812 105.7 89.8569 105.814 90.56C105.929 91.263 106.11 92.2749 106.421 93.4988C106.772 94.9361 107.272 96.3177 107.909 97.6131C108.289 98.372 108.732 99.0848 109.232 99.7409C109.772 100.439 110.389 101.05 111.066 101.556L111.241 101.69L111.12 101.742C111.663 99.8823 112.177 98.1376 112.647 96.5343L112.694 96.3706L112.78 96.512C113.973 98.5394 115.001 100.265 115.722 101.5C116.068 102.103 116.356 102.583 116.55 102.933L116.762 103.305C116.792 103.356 116.816 103.411 116.835 103.468Z" fill="#263238"/>
<g opacity="0.3">
<path opacity="0.3" d="M126.784 120.651C126.442 124.848 127.218 129.067 129.005 132.726C130.782 136.349 133.391 139.582 136.637 141.315C136.742 137.622 136.59 133.269 136.694 129.575L126.784 120.651Z" fill="#263238"/>
</g>
<path d="M126.426 115.789C126.426 115.789 125.036 116.239 126.077 119.576C127.118 122.913 127.467 122.708 128.162 125.826C128.856 128.943 129.666 131.778 130.878 133.556C132.09 135.334 136.606 138.913 136.606 138.913L140.655 134.449C140.655 134.449 139.989 131.101 140.147 128.846C140.306 126.592 140.712 121.034 140.655 120.071C140.598 119.107 139.728 116.816 139.728 116.816V115.239L137.647 107.732C137.647 107.732 136.488 107.121 136.085 109.29L135.39 106.988C135.39 106.988 134.292 106.783 134.004 109.428C133.715 112.073 134.235 115.733 134.235 115.733L133.655 120.342L132.788 123.463L132.036 123.597C132.036 123.597 130.903 123.225 130.284 120.737C129.666 118.248 127.987 115.246 126.426 115.789Z" fill="#FFBE9D"/>
<path d="M139.309 127.596C139.309 127.596 139.309 127.54 139.29 127.429C139.271 127.317 139.271 127.135 139.262 126.93C139.239 126.476 139.211 125.848 139.176 125.07C139.113 123.452 139.027 121.198 138.925 118.568L138.941 118.623C138.838 118.497 138.706 118.407 138.562 118.363C138.418 118.318 138.266 118.321 138.122 118.37C137.967 118.415 137.821 118.495 137.692 118.606C137.564 118.717 137.455 118.857 137.374 119.018C137.018 119.684 136.999 120.554 136.888 121.391C136.669 123.292 136.46 125.111 136.269 126.752C136.174 127.577 136.073 128.359 135.936 129.084C135.808 129.757 135.639 130.418 135.432 131.063C135.254 131.655 135.095 132.179 134.997 132.674C134.909 133.081 134.865 133.5 134.867 133.92C134.878 134.282 134.931 134.64 135.025 134.984C134.987 134.901 134.955 134.813 134.93 134.724C134.855 134.466 134.812 134.196 134.803 133.924C134.788 133.492 134.823 133.061 134.908 132.64C135.019 132.088 135.158 131.544 135.324 131.011C135.52 130.368 135.679 129.711 135.8 129.043C135.93 128.325 136.028 127.555 136.117 126.722C136.301 125.07 136.507 123.262 136.723 121.358C136.774 120.937 136.812 120.517 136.875 120.1C136.927 119.679 137.048 119.274 137.231 118.906C137.325 118.726 137.449 118.569 137.596 118.445C137.742 118.321 137.908 118.233 138.084 118.184C138.255 118.124 138.437 118.122 138.61 118.177C138.782 118.232 138.938 118.343 139.059 118.497L139.074 118.523V118.553C139.154 121.183 139.22 123.437 139.268 125.059C139.268 125.844 139.297 126.473 139.309 126.919C139.309 127.124 139.309 127.291 139.309 127.418C139.315 127.477 139.315 127.537 139.309 127.596Z" fill="#FFBE9D"/>
<path d="M137.088 119.04C137.016 118.908 136.958 118.765 136.917 118.616C136.784 118.22 136.671 117.815 136.577 117.403C136.441 116.793 136.345 116.171 136.288 115.543C136.249 115.173 136.243 114.799 136.269 114.427C136.299 114.012 136.419 113.612 136.619 113.267C136.796 112.957 137.058 112.726 137.361 112.612L137.421 112.593L137.453 112.656C138.04 113.869 138.551 114.941 138.906 115.711L139.322 116.622C139.379 116.729 139.424 116.844 139.455 116.964C139.384 116.87 139.323 116.766 139.271 116.656L138.814 115.774C138.434 115.03 137.904 113.962 137.313 112.753L137.405 112.798C137.14 112.902 136.911 113.106 136.755 113.378C136.572 113.697 136.463 114.066 136.438 114.45C136.406 114.813 136.406 115.18 136.438 115.543C136.485 116.169 136.569 116.791 136.688 117.403C136.79 117.924 136.901 118.341 136.974 118.627C137.024 118.76 137.062 118.898 137.088 119.04Z" fill="#FFBE9D"/>
<path d="M136.117 119.65C136.088 119.508 136.076 119.361 136.079 119.215C136.079 118.895 136.053 118.501 136.037 118.036C136.012 117.039 135.983 115.662 135.968 114.141C135.92 112.84 135.937 111.537 136.018 110.239C136.058 109.845 136.13 109.456 136.234 109.078C136.265 108.936 136.315 108.8 136.383 108.676C136.267 109.194 136.183 109.721 136.133 110.254C136.053 111.239 136.133 112.616 136.133 114.137C136.133 115.659 136.158 117.035 136.155 118.032C136.155 118.501 136.155 118.895 136.155 119.215C136.156 119.361 136.143 119.507 136.117 119.65Z" fill="#FFBE9D"/>
<path d="M132.693 132.153C132.671 132.131 132.924 131.781 133.235 131.145C133.418 130.774 133.576 130.388 133.708 129.988C133.864 129.497 133.985 128.992 134.07 128.478C134.144 127.962 134.181 127.439 134.181 126.916C134.176 126.488 134.144 126.062 134.086 125.64C133.981 124.914 133.848 124.483 133.876 124.472C133.926 124.563 133.965 124.662 133.991 124.766C134.08 125.041 134.15 125.325 134.2 125.614C134.278 126.041 134.322 126.475 134.333 126.912C134.361 127.988 134.196 129.059 133.848 130.055C133.708 130.459 133.537 130.848 133.337 131.216C133.205 131.466 133.055 131.702 132.89 131.923C132.772 132.079 132.702 132.161 132.693 132.153Z" fill="#FFBE9D"/>
<path d="M139.801 129.828L143.314 131.257C143.314 131.257 146.671 129.222 148.985 131.257C151.298 133.291 153.307 138.652 152.672 140.821C152.672 140.821 151.085 143.135 149.861 143.473C148.636 143.812 143.923 142.469 141.959 141.985C139.995 141.501 136.605 138.92 136.605 138.92L139.801 129.828Z" fill="#FFBE9D"/>
<path d="M140.233 135.888C140.208 135.766 140.195 135.641 140.195 135.516C140.195 135.237 140.166 134.906 140.147 134.519C140.109 133.678 140.061 132.518 140.046 131.231C140.03 129.944 140.061 128.779 140.125 127.938C140.157 127.518 140.198 127.194 140.233 126.945C140.241 126.818 140.265 126.692 140.306 126.573C140.331 126.573 140.277 127.094 140.242 127.935C140.207 128.775 140.195 129.932 140.211 131.216C140.226 132.499 140.249 133.608 140.261 134.501C140.261 134.921 140.261 135.263 140.261 135.498C140.27 135.629 140.26 135.761 140.233 135.888Z" fill="#FFBE9D"/>
<path d="M151.818 131.086C151.454 130.642 151.064 130.23 150.651 129.851C149.635 128.959 148.416 128.44 147.149 128.359C145.882 128.278 144.623 128.637 143.53 129.393C143.086 129.717 142.662 130.076 142.26 130.468C142.344 130.332 142.441 130.207 142.549 130.096C142.835 129.785 143.146 129.508 143.479 129.27C144.583 128.464 145.871 128.077 147.17 128.162C148.468 128.246 149.712 128.798 150.733 129.743C151.042 130.021 151.325 130.336 151.577 130.684C151.671 130.806 151.752 130.941 151.818 131.086Z" fill="#263238"/>
<path d="M151.368 127.652C150.914 127.269 150.423 126.952 149.905 126.707C148.632 126.177 147.249 126.129 145.951 126.569C145.237 126.804 144.55 127.139 143.904 127.566C143.379 127.92 142.883 128.331 142.422 128.794C142.029 129.188 141.727 129.538 141.521 129.772C141.42 129.908 141.308 130.032 141.188 130.144C141.271 129.994 141.366 129.854 141.474 129.727C141.748 129.365 142.039 129.021 142.346 128.697C142.802 128.214 143.299 127.787 143.828 127.421C144.48 126.974 145.179 126.628 145.907 126.391C147.236 125.935 148.657 126.004 149.95 126.588C150.336 126.768 150.7 127.009 151.032 127.302C151.149 127.402 151.228 127.499 151.289 127.559C151.349 127.618 151.368 127.648 151.368 127.652Z" fill="#263238"/>
<path d="M151.397 124.676C151.397 124.713 150.762 124.494 149.753 124.334C149.156 124.24 148.555 124.195 147.953 124.2C147.216 124.21 146.481 124.287 145.754 124.431C145.029 124.587 144.315 124.808 143.619 125.093C143.051 125.329 142.499 125.613 141.965 125.941C141.055 126.499 140.541 126.953 140.521 126.919C140.629 126.797 140.747 126.687 140.874 126.592C141.012 126.464 141.157 126.348 141.308 126.242C141.483 126.112 141.68 125.96 141.908 125.818C142.442 125.472 142.996 125.174 143.568 124.925C144.269 124.625 144.991 124.396 145.726 124.241C146.46 124.095 147.203 124.022 147.947 124.021C148.556 124.025 149.164 124.084 149.765 124.196C150.022 124.234 150.251 124.304 150.451 124.353C150.624 124.394 150.796 124.446 150.965 124.509C151.113 124.55 151.257 124.606 151.397 124.676Z" fill="#263238"/>
<path d="M124.477 88.2495C124.609 88.5959 124.69 88.9655 124.718 89.3432C124.813 90.4101 124.768 91.4877 124.585 92.5387C124.474 93.2931 124.322 94.0385 124.131 94.7707C123.881 95.6226 123.573 96.4499 123.211 97.2445C122.453 98.9557 121.501 100.819 120.396 102.824L120.269 103.059V102.78C120.269 101.463 120.269 100.083 120.269 98.6506L120.393 98.7213L117.413 101.508L117.439 101.463C116.732 104.178 116.297 106.981 116.144 109.814C115.852 114.342 116.087 118.672 116.268 122.6C116.449 126.528 116.528 130.073 116.633 133.049C116.737 136.025 116.823 138.429 116.899 140.091C116.944 140.917 116.975 141.557 116.998 142.004C116.998 142.216 117.02 142.376 117.026 142.502C117.033 142.628 117.026 142.673 117.026 142.673C117.026 142.673 117.026 142.617 117.004 142.506C116.982 142.394 116.979 142.219 116.96 142.007C116.925 141.572 116.88 140.928 116.833 140.095C116.737 138.436 116.626 136.029 116.515 133.053C116.404 130.077 116.268 126.539 116.115 122.607C115.963 118.675 115.687 114.342 115.979 109.799C116.139 106.949 116.586 104.131 117.309 101.403V101.377H117.328L120.298 98.5837L120.422 98.4646V98.6506C120.422 100.083 120.422 101.463 120.422 102.78L120.292 102.731C122.472 98.7697 124.246 95.325 124.518 92.5387C124.707 91.4976 124.765 90.4299 124.69 89.3692C124.664 89.0906 124.62 88.8145 124.56 88.5434C124.496 88.3425 124.477 88.2495 124.477 88.2495Z" fill="#263238"/>
<path d="M118.784 136.234H118.683C118.452 136.251 118.235 136.373 118.08 136.574C117.924 136.775 117.841 137.039 117.849 137.311C117.856 137.582 117.953 137.839 118.12 138.028C118.286 138.217 118.508 138.322 118.74 138.322C118.971 138.322 119.194 138.217 119.36 138.028C119.527 137.839 119.624 137.582 119.631 137.311C119.639 137.039 119.556 136.775 119.4 136.574C119.244 136.373 119.028 136.251 118.797 136.234H118.784Z" fill="white"/>
<path d="M118.784 121.897H118.682C118.452 121.914 118.237 122.036 118.082 122.236C117.927 122.437 117.844 122.7 117.852 122.97C117.859 123.24 117.956 123.497 118.122 123.685C118.287 123.873 118.509 123.978 118.74 123.978C118.97 123.978 119.192 123.873 119.358 123.685C119.523 123.497 119.62 123.24 119.628 122.97C119.635 122.7 119.553 122.437 119.397 122.236C119.242 122.036 119.027 121.914 118.797 121.897H118.784Z" fill="white"/>
<path d="M118.682 109.07C118.919 109.089 119.153 108.996 119.331 108.812C119.51 108.629 119.619 108.37 119.634 108.092C119.65 107.814 119.571 107.541 119.414 107.331C119.258 107.122 119.037 106.994 118.8 106.976H118.682C118.445 106.976 118.218 107.087 118.05 107.283C117.882 107.48 117.788 107.747 117.788 108.025C117.788 108.303 117.882 108.57 118.05 108.767C118.218 108.964 118.445 109.074 118.682 109.074V109.07Z" fill="white"/>
<path d="M104.964 71.4502C103.854 70.0031 102.743 68.5449 101.921 66.8486C101.099 65.1522 100.626 63.1695 100.893 61.2686C101.052 60.1526 101.458 59.0738 101.528 57.9206C101.616 56.3582 101.058 54.7251 101.528 53.2631C102.264 50.9716 104.894 50.6182 106.487 49.0372C107.728 47.8059 108.331 45.8082 109.696 44.7741C110.889 43.8664 112.422 43.8887 113.821 44.1194C115.22 44.35 116.642 44.7704 118.051 44.5472C119.054 44.3909 120 43.9148 120.98 43.6283C121.961 43.3419 123.062 43.2563 123.934 43.8664C124.807 44.4765 125.302 45.9161 124.728 46.8945C126.359 46.0128 128.431 47.5046 128.879 49.5431C129.326 51.5817 128.431 53.7876 127.048 55.1231C125.664 56.4586 123.874 57.0947 122.113 57.4853C117.118 58.6013 111.695 57.9652 107.389 54.7958" fill="#263238"/>
<path d="M122.535 91.14C122.291 88.908 122.091 87.074 122.078 86.8434C122.078 86.8434 128.399 85.1768 128.05 77.6847C127.882 74.0615 127.019 66.6363 126.168 59.9292C125.731 56.4522 124.193 53.296 121.859 51.0898C119.525 48.8835 116.568 47.7893 113.577 48.0252L112.942 48.0698C106.326 49.0482 103.333 56.1831 104.349 63.9133L107.922 89.8305C107.922 89.8305 109.445 95.5631 112.704 96.5563L116.829 103.446L117.508 100.47L120.574 97.3375C121.161 96.5277 121.669 95.643 122.087 94.7C122.555 93.5992 122.712 92.3523 122.535 91.14Z" fill="#FFBE9D"/>
<path d="M122.081 86.7394C122.081 86.7394 118.067 87.4387 113.596 84.6152C113.596 84.6152 115.874 89.8493 122.208 88.6775L122.081 86.7394Z" fill="#FFBE9D"/>
<path d="M124.115 66.3723C124.133 66.6511 124.058 66.927 123.905 67.1416C123.752 67.3562 123.534 67.4926 123.297 67.5218C123.181 67.5416 123.063 67.5341 122.951 67.4997C122.838 67.4653 122.732 67.4047 122.639 67.3214C122.546 67.2382 122.469 67.134 122.411 67.0151C122.354 66.8961 122.317 66.7649 122.303 66.629C122.282 66.348 122.357 66.0686 122.511 65.8518C122.665 65.635 122.886 65.4985 123.125 65.4721C123.241 65.4528 123.359 65.461 123.472 65.4961C123.585 65.5312 123.69 65.5926 123.783 65.6766C123.875 65.7605 123.952 65.8654 124.009 65.9849C124.066 66.1044 124.102 66.2362 124.115 66.3723Z" fill="#263238"/>
<path d="M125.007 63.7162C124.902 63.865 124.176 63.3182 123.195 63.4C122.215 63.4818 121.539 64.1105 121.412 63.984C121.358 63.9282 121.459 63.6678 121.758 63.374C122.162 62.9952 122.656 62.7729 123.173 62.7378C123.684 62.6943 124.193 62.8443 124.626 63.1656C124.944 63.4037 125.058 63.6492 125.007 63.7162Z" fill="#263238"/>
<path d="M114.843 67.1497C114.861 67.4283 114.786 67.7043 114.633 67.9186C114.48 68.1328 114.261 68.2681 114.024 68.2955C113.909 68.3159 113.791 68.3089 113.678 68.2749C113.565 68.2409 113.459 68.1807 113.367 68.0977C113.274 68.0148 113.197 67.9108 113.139 67.7921C113.081 67.6733 113.044 67.5422 113.031 67.4064C113.013 67.1282 113.088 66.8528 113.24 66.6383C113.393 66.4238 113.61 66.287 113.846 66.2569C113.962 66.2371 114.08 66.2446 114.193 66.2789C114.306 66.3133 114.412 66.3739 114.505 66.4571C114.598 66.5403 114.676 66.6444 114.734 66.7634C114.792 66.8823 114.829 67.0137 114.843 67.1497Z" fill="#263238"/>
<path d="M115.373 64.6873C115.265 64.8361 114.541 64.2893 113.561 64.3711C112.58 64.453 111.892 65.0817 111.777 64.9477C111.72 64.8919 111.822 64.6315 112.12 64.3377C112.526 63.9594 113.021 63.7373 113.539 63.7015C114.049 63.6586 114.557 63.8085 114.989 64.1293C115.306 64.3749 115.424 64.6204 115.373 64.6873Z" fill="#263238"/>
<path d="M119.419 72.9421C119.419 72.8751 120.015 72.704 121.005 72.4771C121.253 72.4287 121.488 72.3506 121.52 72.1497C121.523 71.8439 121.446 71.5441 121.301 71.2904L120.431 69.1105C119.222 66.008 118.327 63.4449 118.435 63.3891C118.543 63.3333 119.609 65.8034 120.821 68.9096L121.659 71.1044C121.837 71.4464 121.906 71.8505 121.856 72.2464C121.825 72.3525 121.774 72.4491 121.707 72.529C121.64 72.6089 121.559 72.67 121.469 72.7077C121.332 72.7632 121.191 72.7982 121.047 72.8119C120.044 72.9532 119.428 73.0053 119.419 72.9421Z" fill="#263238"/>
<path d="M115.367 60.1563C115.287 60.48 114.3 60.4055 113.145 60.6585C111.99 60.9115 111.092 61.3542 110.924 61.0863C110.848 60.9561 110.994 60.6511 111.352 60.3163C111.833 59.9077 112.386 59.6318 112.97 59.5094C113.554 59.387 114.154 59.4212 114.726 59.6095C115.173 59.7769 115.401 60.0075 115.367 60.1563Z" fill="#263238"/>
<path d="M124.455 60.4129C124.299 60.6882 123.608 60.4724 122.792 60.5208C121.977 60.5691 121.301 60.8146 121.126 60.5542C121.05 60.4278 121.145 60.1562 121.443 59.8846C121.831 59.5578 122.293 59.3727 122.77 59.3529C123.247 59.333 123.719 59.4792 124.125 59.773C124.417 60.0186 124.525 60.2641 124.455 60.4129Z" fill="#263238"/>
<path d="M105.202 69.4379C105.091 69.3932 100.728 68.2623 101.159 73.3699C101.591 78.4775 106.307 76.8109 106.307 76.6658C106.307 76.5207 105.202 69.4379 105.202 69.4379Z" fill="#FFBE9D"/>
<path d="M104.377 74.9881C104.355 74.9881 104.307 75.0588 104.184 75.1407C104.012 75.2533 103.809 75.2826 103.619 75.2225C103.14 75.0774 102.667 74.2665 102.581 73.3625C102.534 72.926 102.57 72.4826 102.686 72.0642C102.714 71.9009 102.776 71.7481 102.865 71.6186C102.955 71.4891 103.07 71.3867 103.2 71.3202C103.285 71.2833 103.379 71.2825 103.465 71.3178C103.55 71.3531 103.623 71.4224 103.67 71.5137C103.739 71.6513 103.72 71.7555 103.743 71.7592C103.765 71.7629 103.828 71.6662 103.778 71.4579C103.742 71.3339 103.671 71.2277 103.578 71.1565C103.513 71.1057 103.441 71.0704 103.364 71.0525C103.288 71.0346 103.21 71.0346 103.133 71.0524C102.958 71.1153 102.8 71.2297 102.673 71.3847C102.547 71.5397 102.456 71.73 102.41 71.9377C102.261 72.4015 102.212 72.901 102.267 73.3923C102.381 74.419 102.902 75.3304 103.559 75.468C103.679 75.4949 103.804 75.4895 103.922 75.4521C104.041 75.4148 104.151 75.3464 104.244 75.2523C104.38 75.1109 104.403 74.9956 104.377 74.9881Z" fill="#FFBE9D"/>
<path d="M125.848 52.9543C125.55 54.9892 122.04 56.8529 119.114 56.7525C116.427 56.6595 115.097 55.0971 113.145 53.9848C111.908 53.2817 111.908 53.2817 110.229 53.6128C108.874 53.8695 108.17 55.7481 107.408 57.0873C108.858 60.8073 108.271 65.1076 107.655 69.1252C107.629 69.5783 107.474 70.0079 107.214 70.3453C106.726 70.8513 105.945 70.5499 105.45 70.0329C104.679 69.2033 104.327 67.9757 104.076 66.7853C103.461 64.0778 103.314 61.2535 103.644 58.4785C103.978 55.69 105.002 53.0774 106.589 50.9641C108.665 48.3997 111.51 46.8806 114.523 46.7271C117.52 46.6011 120.476 47.5851 122.97 49.5394C124.125 50.4285 125.191 51.5259 125.858 52.9506" fill="#263238"/>
<path d="M120.063 75.5161L117.842 74.3033C117.72 74.2189 117.58 74.1776 117.439 74.1843C117.282 74.2255 117.145 74.3345 117.055 74.4893C116.794 74.8547 116.632 75.3021 116.588 75.7754C116.544 76.2486 116.62 76.7266 116.807 77.1491C117.01 77.5608 117.33 77.8761 117.711 78.0405C118.092 78.2049 118.509 78.208 118.892 78.0494C119.679 77.6774 120.06 76.5949 120.123 75.5979L120.063 75.5161Z" fill="#FFBE9D"/>
<path d="M118.962 78.2431C118.962 78.2654 118.857 78.3398 118.645 78.3956C118.326 78.4625 117.999 78.4344 117.693 78.3137C117.224 78.1288 116.831 77.7454 116.591 77.2387C116.44 76.9299 116.349 76.5853 116.325 76.23C116.301 75.8748 116.346 75.5178 116.455 75.1852C116.567 74.8405 116.742 74.5292 116.969 74.2738C117.079 74.1518 117.2 74.0445 117.331 73.9539C117.409 73.8994 117.497 73.8675 117.588 73.8609C117.676 73.8568 117.764 73.8758 117.845 73.9167C117.963 73.9867 118.079 74.0637 118.191 74.1474L118.492 74.3668L119.035 74.7611C119.692 75.2522 120.088 75.5795 120.066 75.6242C120.044 75.6688 119.606 75.4307 118.917 74.9992L118.356 74.6272L118.038 74.4226C117.931 74.3594 117.816 74.2738 117.721 74.2292C117.682 74.2072 117.639 74.1984 117.595 74.2036C117.552 74.2089 117.511 74.228 117.477 74.2589C117.371 74.3369 117.274 74.4279 117.185 74.5305C116.997 74.7503 116.849 75.0139 116.753 75.3043C116.661 75.586 116.622 75.8877 116.638 76.1888C116.655 76.4899 116.727 76.7833 116.848 77.0489C117.046 77.4942 117.371 77.8442 117.766 78.0385C118.039 78.1675 118.331 78.2319 118.626 78.2282C118.835 78.2393 118.952 78.217 118.962 78.2431Z" fill="#263238"/>
<path d="M118.261 66.5028C118.229 66.067 118.171 65.6343 118.086 65.2083C117.929 64.496 117.646 63.8301 117.257 63.2534C116.867 62.6767 116.379 62.202 115.823 61.8597C115.267 61.5174 114.657 61.3152 114.031 61.2659C113.405 61.2167 112.776 61.3216 112.187 61.5738C111.78 61.7448 111.399 61.9868 111.054 62.2918C110.687 62.6002 110.365 62.9772 110.102 63.4078C109.536 64.3042 109.231 65.3897 109.231 66.5047C109.231 67.6196 109.536 68.7052 110.102 69.6016C110.365 70.0322 110.687 70.4092 111.054 70.7176C111.399 71.0226 111.78 71.2646 112.187 71.4356C112.777 71.6854 113.404 71.7885 114.03 71.7382C114.655 71.6879 115.265 71.4853 115.82 71.1433C116.375 70.8013 116.863 70.3275 117.254 69.7521C117.644 69.1766 117.927 68.5122 118.086 67.8011C118.17 67.3762 118.229 66.9449 118.261 66.5103C118.264 66.5386 118.264 66.5675 118.261 66.5958C118.261 66.6628 118.261 66.7484 118.261 66.8488C118.263 66.9871 118.255 67.1253 118.235 67.2617C118.218 67.4498 118.189 67.6362 118.15 67.8197C118.049 68.3261 117.883 68.8116 117.658 69.2594C117.116 70.3453 116.266 71.1744 115.257 71.6026C114.248 72.0307 113.142 72.0308 112.133 71.603C111.712 71.4267 111.318 71.1757 110.962 70.859C110.583 70.5408 110.251 70.1526 109.978 69.7095C109.392 68.7809 109.076 67.6562 109.076 66.501C109.076 65.3458 109.392 64.2211 109.978 63.2925C110.249 62.8487 110.58 62.4603 110.959 62.143C111.314 61.8262 111.709 61.5753 112.13 61.399C112.907 61.0716 113.746 60.9946 114.557 61.1758C115.2 61.3199 115.809 61.6235 116.343 62.0662C116.877 62.5089 117.324 63.0805 117.655 63.7426C117.88 64.1903 118.046 64.6758 118.146 65.1822C118.186 65.3657 118.214 65.5522 118.232 65.7402C118.252 65.8766 118.26 66.0149 118.257 66.1532C118.257 66.2536 118.257 66.3391 118.257 66.4061C118.263 66.438 118.264 66.4706 118.261 66.5028Z" fill="#263238"/>
<path d="M129.126 66.0004C129.095 65.576 129.039 65.1546 128.958 64.7393C128.703 63.6142 128.133 62.6222 127.339 61.9233C126.798 61.441 126.168 61.1159 125.499 60.9747C124.731 60.8096 123.94 60.8879 123.208 61.2016C122.813 61.3688 122.442 61.6032 122.107 61.8972C121.753 62.2005 121.443 62.5671 121.186 62.9835C120.638 63.8579 120.342 64.915 120.342 66.0004C120.342 67.0858 120.638 68.1428 121.186 69.0173C121.442 69.4334 121.752 69.7988 122.107 70.0998C122.442 70.3964 122.813 70.6322 123.208 70.7992C123.941 71.1111 124.731 71.1894 125.499 71.0261C126.168 70.8849 126.798 70.5598 127.339 70.0775C128.133 69.3785 128.703 68.3866 128.958 67.2615C129.039 66.8462 129.095 66.4248 129.126 66.0004C129.134 66.1106 129.134 66.2213 129.126 66.3315C129.127 66.4672 129.119 66.6029 129.101 66.7369C129.084 66.92 129.056 67.1015 129.018 67.2801C128.816 68.2543 128.38 69.1402 127.761 69.8325C127.142 70.5248 126.367 70.9946 125.527 71.1861C124.736 71.3613 123.918 71.2855 123.16 70.9666C122.321 70.6084 121.591 69.9694 121.059 69.1289C120.488 68.2232 120.18 67.1266 120.18 66.0004C120.18 64.8742 120.488 63.7776 121.059 62.8719C121.591 62.0313 122.321 61.3924 123.16 61.0342C123.918 60.7153 124.736 60.6395 125.527 60.8147C126.367 61.0062 127.142 61.476 127.761 62.1683C128.38 62.8606 128.816 63.7464 129.018 64.7207C129.056 64.8993 129.084 65.0808 129.101 65.2638C129.119 65.3979 129.127 65.5336 129.126 65.6693C129.134 65.7795 129.134 65.8902 129.126 66.0004Z" fill="#263238"/>
<path d="M120.269 64.825C120.25 64.8436 120.145 64.7431 119.952 64.6352C119.702 64.4959 119.428 64.4259 119.152 64.4306C118.876 64.4353 118.605 64.5169 118.362 64.6687C118.171 64.784 118.07 64.8919 118.045 64.8696C118.019 64.8473 118.102 64.7059 118.292 64.5497C118.543 64.3495 118.838 64.2396 119.141 64.2337C119.445 64.2277 119.743 64.3259 119.999 64.5162C120.193 64.665 120.269 64.8101 120.269 64.825Z" fill="#263238"/>
<path d="M109.432 65.7437C108.805 66.4123 108.141 67.0335 107.446 67.6037C106.781 68.2234 106.084 68.7937 105.358 69.3111C105.985 68.6401 106.65 68.0187 107.348 67.4511C108.01 66.83 108.707 66.2596 109.432 65.7437Z" fill="#263238"/>
<g opacity="0.3">
<path opacity="0.3" d="M105.672 89.9531C105.231 95.0012 106.868 100.332 110.324 103.39C110.594 103.632 110.933 103.87 111.254 103.732C111.468 103.611 111.638 103.405 111.736 103.152C112.704 101.192 113.067 98.9008 112.764 96.664C112.219 98.3529 111.749 100.012 111.197 101.775C108.192 99.6326 106.307 95.0793 105.672 89.9531Z" fill="#263238"/>
</g>
<path opacity="0.3" d="M117.372 101.433L119.911 100.347L120.33 105.373C120.33 105.373 123.065 99.5287 124.198 96.8652C125.331 94.2017 124.747 89.4922 124.747 89.4922C124.747 89.4922 125.15 93.5842 122.411 98.8182L120.342 102.761V98.6322L117.372 101.433Z" fill="#263238"/>
<g opacity="0.3">
<path opacity="0.3" d="M87.9012 126.975C86.7439 126.399 85.4725 126.212 84.2296 126.436C82.9052 126.563 81.6382 127.125 80.574 128.057C79.5458 129.028 78.8508 130.561 78.9873 132.101L79.1142 132.12C79.9996 129.315 81.7576 127.284 84.0265 127.027C86.2955 126.77 88.5073 127.961 90.0559 129.914C89.8877 128.456 89.0182 127.596 87.9012 126.975Z" fill="#263238"/>
</g>
<g opacity="0.3">
<path opacity="0.3" d="M151.983 129.828C151.104 128.77 149.954 128.077 148.709 127.853C147.623 127.64 146.511 127.716 145.455 128.074C144.398 128.433 143.423 129.065 142.603 129.925L143.085 129.464C144.312 128.597 145.721 128.149 147.154 128.169C148.591 128.198 149.97 128.844 151.028 129.984C151.98 131.041 152.548 132.473 153.091 133.868C153.179 133.14 153.125 132.399 152.933 131.699C152.741 130.999 152.416 130.36 151.983 129.828Z" fill="#263238"/>
</g>
<path d="M135.644 106.504C135.67 106.364 135.708 106.229 135.758 106.098C135.857 105.805 135.977 105.444 136.117 105.016C136.434 104.105 136.847 102.847 137.291 101.445C137.735 100.042 138.119 98.7663 138.395 97.8438L138.713 96.7464C138.747 96.6093 138.793 96.4771 138.852 96.3521C138.842 96.4946 138.816 96.6348 138.773 96.7687C138.713 97.0365 138.617 97.416 138.494 97.8847C138.246 98.8221 137.878 100.117 137.434 101.512C136.99 102.907 136.548 104.171 136.212 105.068C136.047 105.518 135.895 105.879 135.803 106.128C135.763 106.261 135.71 106.387 135.644 106.504Z" fill="#263238"/>
<path d="M95.6381 106.868C95.5936 106.868 95.2477 105.109 94.8669 102.914C94.4861 100.719 94.2132 98.952 94.2481 98.9222C94.283 98.8925 94.6353 100.682 95.0161 102.877C95.3969 105.071 95.6825 106.857 95.6381 106.868Z" fill="#263238"/>
<path d="M95.0384 128.999C95.1399 129.058 93.877 117.407 93.877 117.407C93.877 117.407 94.6735 108.565 95.1209 108.155V105.034C95.1209 105.034 96.3553 104.16 96.6854 105.574C96.6854 105.574 97.7802 104.458 97.9547 107.11C98.1292 109.762 98.1863 112.471 98.1863 112.471L100.62 119.606L101.02 119.844C101.02 119.844 101.544 114.264 101.848 113.43C102.153 112.597 102.362 110.607 103.514 110.908C104.666 111.21 104.765 112.326 104.558 114.148C104.352 115.971 104.092 117.868 104.19 119.036C104.289 120.205 104.742 122.805 104.603 124.866C104.463 126.927 103.499 129.099 102.489 130.624C101.48 132.149 99.5477 135.308 98.5005 136.256C98.161 136.591 95.0384 128.999 95.0384 128.999Z" fill="#FFBE9D"/>
<path d="M96.2691 119.516C96.2532 119.35 96.2532 119.183 96.2691 119.018C96.2882 118.646 96.3167 118.207 96.3485 117.663C96.4214 116.521 96.5357 114.944 96.6658 113.199C96.7356 112.333 96.8022 111.507 96.8625 110.748C96.8987 110.398 96.8987 110.045 96.8625 109.695C96.8288 109.396 96.7181 109.116 96.5452 108.892C96.4184 108.731 96.2647 108.603 96.0938 108.516C95.9229 108.428 95.7385 108.382 95.5519 108.382C95.4123 108.39 95.2733 108.41 95.1362 108.442C95.1674 108.416 95.2016 108.396 95.2378 108.382C95.3396 108.337 95.4466 108.311 95.5551 108.304C95.7552 108.291 95.9554 108.328 96.1421 108.413C96.3289 108.499 96.4977 108.63 96.6372 108.799C96.8291 109.04 96.9522 109.346 96.9895 109.673C97.0293 110.035 97.0293 110.401 96.9895 110.763C96.9324 111.507 96.8689 112.351 96.8054 113.218C96.669 114.959 96.5357 116.533 96.431 117.682L96.3009 119.032C96.3021 119.194 96.2915 119.356 96.2691 119.516Z" fill="#FFBE9D"/>
<path d="M97.5767 114.751C97.3994 115.034 97.2543 115.343 97.1451 115.67C96.9516 116.494 96.8167 117.335 96.7421 118.185C96.6088 119.182 96.4819 120.082 96.3803 120.733C96.3435 121.088 96.2776 121.438 96.1836 121.778C96.1848 121.42 96.2124 121.063 96.2661 120.711C96.3359 120.056 96.447 119.152 96.5834 118.155C96.7199 117.158 96.8087 116.247 97.0436 115.622C97.127 115.377 97.2438 115.149 97.3894 114.948C97.4942 114.799 97.5703 114.744 97.5767 114.751Z" fill="#FFBE9D"/>
<path d="M96.6816 105.421C96.7258 105.54 96.7547 105.665 96.7673 105.793C96.8117 106.031 96.8657 106.377 96.926 106.809C97.0466 107.668 97.1799 108.862 97.2655 110.19C97.3512 111.518 97.3671 112.724 97.3544 113.594C97.3544 114.029 97.3385 114.383 97.3226 114.625C97.3253 114.75 97.3125 114.875 97.2846 114.997C97.2461 114.529 97.2302 114.06 97.237 113.59C97.2211 112.72 97.183 111.522 97.1005 110.202C97.018 108.881 96.9038 107.687 96.8117 106.824C96.7447 106.36 96.7013 105.891 96.6816 105.421Z" fill="#FFBE9D"/>
<path d="M103.704 116.343C103.584 116.434 103.447 116.489 103.304 116.504C103.161 116.518 103.018 116.491 102.886 116.425C102.419 116.261 102.203 115.841 102.251 115.822C102.47 115.985 102.7 116.124 102.94 116.239C103.192 116.298 103.448 116.333 103.704 116.343Z" fill="#FFBE9D"/>
<path d="M95.1745 127.548L88.7453 130.717H84.9119C84.9119 130.717 81.123 132.105 80.5391 136.271C79.9552 140.438 79.8727 142.577 81.5387 143.094C83.2047 143.611 87.9107 143.667 90.2431 142.759C92.5755 141.851 98.6874 136.063 98.6874 136.063L99.2745 131.882L95.1745 127.548Z" fill="#FFBE9D"/>
<path d="M96.6816 132.153C96.6816 132.153 96.6086 132.09 96.4975 131.956C96.3444 131.762 96.2054 131.553 96.0818 131.331C95.6793 130.596 95.3764 129.791 95.1838 128.947C94.9847 128.11 94.8519 127.253 94.7871 126.387C94.7443 126.03 94.7358 125.668 94.7617 125.309C94.8305 125.657 94.8771 126.012 94.9013 126.369C94.9993 127.222 95.1466 128.065 95.3424 128.895C95.534 129.722 95.8156 130.517 96.1802 131.261C96.4689 131.822 96.7038 132.127 96.6816 132.153Z" fill="#FFBE9D"/>
<path d="M99.4844 133.474C99.6546 132.952 99.7769 132.411 99.8493 131.859C99.9933 130.513 99.6836 129.155 98.9862 128.072C98.5958 127.432 98.1547 126.874 97.7835 126.331C97.4453 125.858 97.1537 125.341 96.914 124.791C96.7566 124.416 96.6495 124.014 96.5966 123.601C96.5772 123.45 96.5772 123.297 96.5966 123.147C96.671 123.698 96.8188 124.231 97.0345 124.728C97.2845 125.259 97.5812 125.758 97.9199 126.216C98.2912 126.744 98.7355 127.302 99.1353 127.957C99.5243 128.571 99.7979 129.275 99.9382 130.022C100.046 130.634 100.06 131.264 99.9794 131.882C99.9261 132.294 99.828 132.696 99.6875 133.079C99.6367 133.213 99.5891 133.314 99.5574 133.381C99.5256 133.448 99.4875 133.477 99.4844 133.474Z" fill="#FFBE9D"/>
<path d="M89.5671 115.32C88.9967 114.236 88.4735 113.118 87.9994 111.972C87.1744 110.112 86.5397 108.565 86.5778 108.539C87.1481 109.623 87.6713 110.74 88.1454 111.887C88.6689 113.002 89.1434 114.148 89.5671 115.32Z" fill="white"/>
<path d="M99.96 101.746C100.231 100.792 100.554 99.8601 100.928 98.9557C101.252 98.0264 101.627 97.1219 102.048 96.2476C101.776 97.2005 101.453 98.1324 101.08 99.0376C100.756 99.9673 100.382 100.872 99.96 101.746Z" fill="white"/>
<path d="M110.156 110.555C109.63 109.961 109.142 109.322 108.696 108.643C108.211 108.004 107.767 107.324 107.367 106.608C107.894 107.2 108.381 107.839 108.823 108.52C109.31 109.158 109.756 109.839 110.156 110.555Z" fill="white"/>
<path d="M107.811 122.671C108.133 121.991 108.5 121.341 108.909 120.729C109.277 120.081 109.69 119.471 110.143 118.902C109.822 119.583 109.455 120.232 109.045 120.844C108.679 121.493 108.266 122.104 107.811 122.671Z" fill="white"/>
<path d="M104.656 139.787C104.508 139.556 104.384 139.307 104.285 139.043C104.076 138.566 103.806 137.901 103.533 137.153C103.26 136.405 103.041 135.71 102.898 135.207C102.804 134.94 102.735 134.66 102.695 134.374C102.826 134.621 102.932 134.884 103.013 135.159L103.695 137.075C103.958 137.785 104.193 138.429 104.399 138.983C104.51 139.239 104.597 139.508 104.656 139.787Z" fill="white"/>
<path d="M113.605 132.51C112.956 132.46 112.312 132.347 111.679 132.172C111.033 132.06 110.396 131.883 109.775 131.644C111.063 131.806 112.337 132.096 113.583 132.51H113.605Z" fill="white"/>
<path d="M120.586 116.518C121.155 115.655 121.768 114.832 122.421 114.055C123.035 113.232 123.69 112.452 124.382 111.719C123.811 112.583 123.197 113.406 122.544 114.186C121.93 115.006 121.277 115.785 120.586 116.518Z" fill="white"/>
<path d="M127.568 137.845C127.533 137.882 126.508 136.487 125.277 134.739C124.046 132.99 123.078 131.539 123.113 131.506C123.148 131.472 124.173 132.864 125.404 134.612C126.635 136.361 127.597 137.811 127.568 137.845Z" fill="white"/>
<path d="M84.1566 128.757C84.1788 128.809 83.2427 129.367 82.2209 130.286C81.1991 131.205 80.4883 132.112 80.4502 132.071C80.5655 131.836 80.7111 131.623 80.8818 131.439C81.2618 130.963 81.6759 130.526 82.1194 130.133C82.561 129.738 83.0302 129.387 83.522 129.084C83.7188 128.939 83.9326 128.829 84.1566 128.757Z" fill="white"/>
<path d="M86.7712 120.528C86.5696 121.055 86.3195 121.554 86.0255 122.016C85.775 122.515 85.478 122.979 85.1401 123.4C85.3423 122.874 85.5923 122.375 85.8859 121.912C86.1357 121.413 86.4327 120.949 86.7712 120.528Z" fill="white"/>
<path d="M92.6615 128.608C92.1534 127.661 91.9362 126.539 92.0458 125.427C92.0934 125.427 92.1093 126.171 92.2838 127.038C92.4584 127.905 92.7059 128.582 92.6615 128.608Z" fill="white"/>
<path d="M93.5338 102.97C93.1392 103.131 92.7286 103.232 92.3121 103.271C91.9023 103.372 91.4829 103.408 91.0649 103.379C91.4606 103.218 91.8723 103.116 92.2898 103.078C92.6988 102.979 93.1169 102.943 93.5338 102.97Z" fill="white"/>
<path d="M97.9572 93.77C97.2737 94.3629 96.5269 94.8481 95.7358 95.2134C96.0606 94.8905 96.4201 94.6191 96.8053 94.4061C97.1647 94.1378 97.5518 93.924 97.9572 93.77Z" fill="white"/>
<path d="M110.401 97.6578C109.952 97.1232 109.542 96.5459 109.176 95.9317C108.768 95.3548 108.403 94.7388 108.084 94.0903C108.943 95.1989 109.718 96.3925 110.401 97.6578Z" fill="white"/>
<path d="M126.194 106.905C125.319 105.895 124.661 104.656 124.274 103.289C124.322 103.267 124.661 104.134 125.194 105.127C125.727 106.12 126.232 106.868 126.194 106.905Z" fill="white"/>
<path d="M132.223 109.234C131.84 110.542 131.351 111.804 130.763 113.003C130.932 112.34 131.152 111.696 131.42 111.079C131.637 110.436 131.906 109.818 132.223 109.234Z" fill="white"/>
<path d="M133.067 99.5885C132.49 98.9319 131.954 98.2283 131.461 97.483C130.927 96.7794 130.434 96.0337 129.986 95.251C131.096 96.6126 132.126 98.0619 133.067 99.5885Z" fill="white"/>
<path d="M123.858 91.7537C123.758 91.161 123.71 90.5576 123.716 89.9532C123.668 89.3502 123.675 88.7428 123.738 88.1416C123.838 88.7344 123.886 89.3377 123.881 89.9421C123.93 90.5451 123.923 91.1527 123.858 91.7537Z" fill="white"/>
<path d="M131.376 91.2666C130.733 91.4642 130.077 91.5998 129.415 91.6721C128.761 91.8068 128.098 91.8777 127.435 91.8841C128.078 91.6865 128.734 91.5509 129.396 91.4786C130.05 91.3438 130.712 91.2729 131.376 91.2666Z" fill="white"/>
<path d="M143.19 101.448C142.749 100.601 142.355 99.7209 142.01 98.8145C141.617 97.935 141.274 97.0267 140.981 96.0952C141.424 96.9424 141.819 97.8221 142.165 98.729C142.556 99.6087 142.899 100.517 143.19 101.448Z" fill="white"/>
<path d="M141.213 110.246C141.346 108.825 141.586 107.421 141.931 106.05C141.892 106.764 141.8 107.472 141.654 108.166C141.562 108.874 141.414 109.57 141.213 110.246Z" fill="white"/>
<path d="M146.684 117.18C146.314 116.253 145.996 115.299 145.732 114.323C145.417 113.369 145.156 112.393 144.948 111.399C145.316 112.329 145.634 113.284 145.9 114.26C146.214 115.213 146.475 116.189 146.684 117.18Z" fill="white"/>
<path d="M145.919 121.239C145.353 121.139 144.809 120.91 144.317 120.565C143.801 120.275 143.34 119.865 142.962 119.36C142.994 119.315 143.578 119.881 144.396 120.394C145.215 120.907 145.935 121.183 145.919 121.239Z" fill="white"/>
<path d="M152.955 130.486C152.527 129.674 152.195 128.798 151.968 127.882C152.395 128.694 152.727 129.57 152.955 130.486Z" fill="white"/>
<path d="M111.451 143.388C111.315 142.851 111.232 142.298 111.203 141.74C111.123 141.188 111.095 140.628 111.121 140.069C111.265 140.609 111.354 141.167 111.384 141.732C111.46 142.279 111.482 142.835 111.451 143.388Z" fill="white"/>
<path d="M133.007 142.748C133.021 142.203 133.091 141.663 133.213 141.137C133.285 140.599 133.409 140.072 133.584 139.567C133.57 140.112 133.5 140.653 133.375 141.178C133.305 141.717 133.182 142.244 133.007 142.748Z" fill="white"/>
<path d="M137.139 68.9836L139.944 63.2399C138.214 59.9662 137.591 56.0524 138.198 52.2677C138.805 48.4831 140.598 45.1016 143.224 42.7881C145.85 40.4745 149.119 39.3963 152.389 39.7654C155.659 40.1345 158.693 41.9242 160.894 44.7827C163.095 47.6412 164.305 51.3616 164.285 55.2125C164.264 59.0633 163.016 62.766 160.785 65.5925C158.554 68.419 155.501 70.1648 152.228 70.4866C148.954 70.8085 145.697 69.6832 143.095 67.3319L137.139 68.9836Z" fill="#FAFAFA"/>
<path d="M137.139 68.9835L143.095 67.3914H143.156L143.117 67.3318L143.06 67.3951C143.895 68.1537 144.802 68.7954 145.764 69.3072C146.91 69.9086 148.124 70.3144 149.369 70.5124C150.058 70.6253 150.755 70.6664 151.451 70.6352C151.809 70.6129 152.171 70.6017 152.539 70.5682L153.65 70.3711C156.959 69.6103 159.897 67.3993 161.865 64.1884C162.959 62.4123 163.716 60.3831 164.087 58.2364C164.464 55.9654 164.411 53.6248 163.931 51.3805C163.433 49.0406 162.467 46.8731 161.113 45.0565L160.571 44.3311C160.393 44.0967 160.184 43.907 159.993 43.6912C159.803 43.4755 159.612 43.2597 159.397 43.0812L158.762 42.5306C158.555 42.3433 158.337 42.1742 158.108 42.0247L157.442 41.5485L156.744 41.1505C156.515 41.0105 156.28 40.8863 156.039 40.7785C154.167 39.9137 152.154 39.5514 150.146 39.7183C148.254 39.8675 146.412 40.5025 144.752 41.5783C141.758 43.53 139.521 46.7577 138.503 50.5918C138.096 52.2181 137.903 53.908 137.932 55.6027C137.965 57.0731 138.178 58.5303 138.567 59.929C138.894 61.0914 139.336 62.205 139.884 63.2473V63.1989C138.126 66.8929 137.266 68.6971 137.129 68.9798C137.269 68.7008 138.151 66.9078 139.95 63.2436V63.2212V63.1989C139.416 62.159 138.988 61.049 138.675 59.8918C138.288 58.5028 138.075 57.0557 138.04 55.5952C138.019 53.9162 138.215 52.2431 138.621 50.6328C139.639 46.8505 141.855 43.669 144.812 41.742C146.456 40.6684 148.282 40.0334 150.159 39.882C152.142 39.7182 154.131 40.0779 155.979 40.9347C156.217 41.0425 156.449 41.1667 156.674 41.3067L157.366 41.701L158.032 42.1846C158.253 42.3334 158.465 42.5 158.667 42.6831L159.301 43.23C159.514 43.4085 159.692 43.6317 159.888 43.8326C160.085 44.0335 160.285 44.2344 160.46 44.465L160.99 45.1458C162.328 46.945 163.282 49.0907 163.776 51.4065C164.253 53.6223 164.306 55.9343 163.931 58.1769C163.569 60.3007 162.822 62.3087 161.742 64.0657C159.799 67.2447 156.896 69.4379 153.624 70.2L152.526 70.4008C152.161 70.4343 151.803 70.4492 151.447 70.4715C150.758 70.5044 150.068 70.4671 149.385 70.3599C148.148 70.1724 146.941 69.7791 145.799 69.1918C144.841 68.6898 143.937 68.0581 143.105 67.3095L142.86 67.09L143.048 67.3765L143.07 67.3021L137.139 68.9835Z" fill="#263238"/>
<path d="M154.669 54.5165C154.672 54.8092 154.748 55.0943 154.889 55.3361C155.03 55.5779 155.228 55.7657 155.459 55.8761C155.691 55.9864 155.945 56.0143 156.189 55.9563C156.434 55.8982 156.659 55.7569 156.835 55.5499C157.012 55.343 157.132 55.0795 157.182 54.7926C157.231 54.5057 157.208 54.2081 157.114 53.937C157.019 53.6659 156.859 53.4333 156.653 53.2684C156.447 53.1035 156.203 53.0136 155.954 53.0099C155.784 53.0074 155.616 53.0447 155.459 53.1195C155.303 53.1943 155.16 53.3052 155.04 53.4456C154.92 53.586 154.826 53.7531 154.762 53.937C154.698 54.1209 154.666 54.3179 154.669 54.5165Z" fill="#263238"/>
<path d="M149.531 54.5164C149.534 54.8098 149.611 55.0957 149.752 55.3379C149.894 55.5802 150.093 55.768 150.325 55.8778C150.558 55.9875 150.812 56.0144 151.057 55.9549C151.303 55.8954 151.527 55.7522 151.703 55.5434C151.879 55.3346 151.998 55.0694 152.046 54.7813C152.094 54.4932 152.068 54.1949 151.971 53.9241C151.875 53.6533 151.712 53.422 151.504 53.2593C151.295 53.0966 151.051 53.0098 150.8 53.0098C150.632 53.0098 150.466 53.0488 150.311 53.1248C150.156 53.2007 150.015 53.312 149.897 53.4521C149.779 53.5923 149.686 53.7585 149.623 53.9412C149.56 54.1239 149.529 54.3194 149.531 54.5164Z" fill="#263238"/>
<path d="M144.406 53.7649C144.283 54.0201 144.227 54.3122 144.246 54.6044C144.264 54.8966 144.355 55.1759 144.509 55.4074C144.662 55.6389 144.87 55.8122 145.107 55.9057C145.344 55.9991 145.599 56.0084 145.84 55.9326C146.082 55.8567 146.299 55.699 146.464 55.4791C146.629 55.2593 146.735 54.9872 146.769 54.6969C146.803 54.4066 146.763 54.1111 146.654 53.8473C146.545 53.5836 146.372 53.3634 146.157 53.2143C146.012 53.1136 145.851 53.0479 145.683 53.021C145.516 52.9942 145.346 53.0068 145.183 53.0581C145.02 53.1094 144.867 53.1983 144.733 53.3196C144.6 53.441 144.489 53.5924 144.406 53.7649Z" fill="#263238"/>
</svg>
