<svg width="128" height="128" viewBox="0 0 128 128" fill="none" xmlns="http://www.w3.org/2000/svg">
<g filter="url(#filter0_d_256_2)">
<circle cx="64" cy="48" r="24" fill="white"/>
<circle cx="64" cy="48" r="23.5" stroke="white"/>
</g>
<path fill-rule="evenodd" clip-rule="evenodd" d="M71.8456 41.5944C71.8456 42.3898 71.2008 43.0344 70.4056 43.0344C69.6104 43.0344 68.9656 42.3898 68.9656 41.5944C68.9656 40.7991 69.6104 40.1544 70.4056 40.1544C71.2009 40.1544 71.8456 40.7991 71.8456 41.5944ZM64 51.9999C61.7909 51.9999 60.0001 50.2091 60.0001 48C60.0001 45.7909 61.7909 44.0001 64 44.0001C66.2091 44.0001 67.9999 45.7909 67.9999 48C67.9999 50.2091 66.2091 51.9999 64 51.9999ZM64 41.8378C60.5967 41.8378 57.8378 44.5967 57.8378 48C57.8378 51.4033 60.5967 54.1622 64 54.1622C67.4033 54.1622 70.1622 51.4033 70.1622 48C70.1622 44.5967 67.4033 41.8378 64 41.8378ZM64 38.1622C67.2042 38.1622 67.5837 38.1744 68.8489 38.2322C70.0189 38.2856 70.6544 38.481 71.0772 38.6454C71.6373 38.8631 72.037 39.1232 72.457 39.5432C72.877 39.963 73.1371 40.3628 73.3547 40.923C73.519 41.3458 73.7146 41.9812 73.768 43.1512C73.8258 44.4167 73.8379 44.7962 73.8379 48.0004C73.8379 51.2046 73.8258 51.5841 73.768 52.8493C73.7146 54.0193 73.5192 54.6548 73.3547 55.0776C73.1371 55.6376 72.877 56.0374 72.457 56.4574C72.0372 56.8774 71.6374 57.1374 71.0772 57.3551C70.6544 57.5194 70.0189 57.7149 68.8489 57.7684C67.5837 57.8261 67.2042 57.8383 64 57.8383C60.7956 57.8383 60.4161 57.8261 59.1509 57.7684C57.9809 57.7149 57.3454 57.5196 56.9226 57.3551C56.3626 57.1374 55.9628 56.8774 55.5428 56.4574C55.123 56.0376 54.8628 55.6378 54.6451 55.0776C54.4808 54.6548 54.2852 54.0193 54.2318 52.8493C54.1741 51.5839 54.1619 51.2044 54.1619 48.0004C54.1619 44.7962 54.1741 44.4167 54.2318 43.1512C54.2852 41.9812 54.4806 41.3458 54.6451 40.923C54.8628 40.3629 55.1228 39.9632 55.5428 39.5432C55.9626 39.1232 56.3624 38.8631 56.9226 38.6454C57.3454 38.4812 57.9809 38.2856 59.1509 38.2322C60.4163 38.1744 60.7958 38.1622 64 38.1622ZM64 36C60.7411 36 60.3323 36.0139 59.0524 36.0722C57.7752 36.1305 56.9027 36.3334 56.1396 36.63C55.3504 36.9366 54.6812 37.347 54.0141 38.0141C53.347 38.6812 52.9366 39.3504 52.63 40.1396C52.3334 40.9029 52.1305 41.7752 52.0722 43.0524C52.0139 44.3323 52 44.7411 52 48C52 51.2589 52.0139 51.6677 52.0722 52.9476C52.1305 54.2248 52.3334 55.0971 52.63 55.8604C52.9366 56.6496 53.347 57.3188 54.0141 57.9859C54.6812 58.653 55.3504 59.0632 56.1396 59.37C56.9029 59.6666 57.7752 59.8695 59.0524 59.9278C60.3323 59.9861 60.7411 60 64 60C67.2589 60 67.6677 59.9861 68.9476 59.9278C70.2248 59.8695 71.0971 59.6666 71.8604 59.37C72.6496 59.0632 73.3188 58.653 73.9859 57.9859C74.653 57.3188 75.0632 56.6496 75.37 55.8604C75.6666 55.0971 75.8695 54.2248 75.9278 52.9476C75.9861 51.6677 76 51.2589 76 48C76 44.7411 75.9861 44.3323 75.9278 43.0524C75.8695 41.7752 75.6666 40.9029 75.37 40.1396C75.0632 39.3504 74.653 38.6812 73.9859 38.0141C73.3188 37.347 72.6496 36.9367 71.8604 36.63C71.0971 36.3334 70.2248 36.1305 68.9476 36.0722C67.6677 36.0139 67.2589 36 64 36Z" fill="url(#paint0_radial_256_2)"/>
<defs>
<filter id="filter0_d_256_2" x="0" y="0" width="128" height="128" filterUnits="userSpaceOnUse" color-interpolation-filters="sRGB">
<feFlood flood-opacity="0" result="BackgroundImageFix"/>
<feColorMatrix in="SourceAlpha" type="matrix" values="0 0 0 0 0 0 0 0 0 0 0 0 0 0 0 0 0 0 127 0" result="hardAlpha"/>
<feOffset dy="16"/>
<feGaussianBlur stdDeviation="20"/>
<feComposite in2="hardAlpha" operator="out"/>
<feColorMatrix type="matrix" values="0 0 0 0 0.117647 0 0 0 0 0.160784 0 0 0 0 0.34902 0 0 0 0.2 0"/>
<feBlend mode="normal" in2="BackgroundImageFix" result="effect1_dropShadow_256_2"/>
<feBlend mode="normal" in="SourceGraphic" in2="effect1_dropShadow_256_2" result="shape"/>
</filter>
<radialGradient id="paint0_radial_256_2" cx="0" cy="0" r="1" gradientUnits="userSpaceOnUse" gradientTransform="translate(55.5833 60.0833) scale(30.666)">
<stop stop-color="#FFB140"/>
<stop offset="0.2559" stop-color="#FF5445"/>
<stop offset="0.599" stop-color="#FC2B82"/>
<stop offset="1" stop-color="#8E40B7"/>
</radialGradient>
</defs>
</svg>
