<svg width="378" height="252" viewBox="0 0 378 252" fill="none" xmlns="http://www.w3.org/2000/svg">
<g opacity="0.8">
<g opacity="0.5">
<g opacity="0.5">
<g opacity="0.5">
<g opacity="0.5">
<path opacity="0.5" d="M178.598 68.5468C164.173 66.5503 150.469 61.171 138.628 52.908C120.957 40.5966 84.0519 19.6894 48.7699 30.1153C0.144482 44.4786 -0.0358357 86.0711 12.5863 108.642C25.2686 131.213 115.066 197.373 231.491 186.836C335.654 177.408 355.97 69.6004 300.432 50.0797C252.167 33.2209 235.758 76.3107 178.598 68.5468Z" fill="#FF9F1C"/>
</g>
</g>
</g>
</g>
<g opacity="0.5">
<g opacity="0.5">
<g opacity="0.5">
<g opacity="0.5">
<path opacity="0.5" d="M328.562 57.067C331.051 57.067 333.07 55.0559 333.07 52.575C333.07 50.0941 331.051 48.083 328.562 48.083C326.072 48.083 324.054 50.0941 324.054 52.575C324.054 55.0559 326.072 57.067 328.562 57.067Z" fill="#FF9F1C"/>
</g>
</g>
</g>
</g>
<g opacity="0.8">
<g opacity="0.8">
<g opacity="0.8">
<g opacity="0.8">
<path opacity="0.8" d="M33.623 23.0165C35.0055 22.7946 36.3879 23.5156 36.9288 24.7356C37.7703 26.843 35.6065 29.1722 32.6613 28.1185C30.0768 26.3439 31.2188 23.4601 33.623 23.0165Z" fill="#FF9F1C"/>
</g>
</g>
</g>
</g>
<g opacity="0.8">
<g opacity="0.8">
<path opacity="0.8" d="M320.392 16.319C322.692 14.1966 322.692 10.7555 320.392 8.63314C318.091 6.51076 314.362 6.51078 312.062 8.63316C309.761 10.7555 309.761 14.1966 312.062 16.319C314.362 18.4414 318.091 18.4414 320.392 16.319Z" fill="#FF9F1C"/>
</g>
</g>
<g opacity="0.8">
<g opacity="0.8">
<path opacity="0.8" d="M51.4749 18.7464C52.3765 21.6856 50.5132 24.6803 47.3276 25.5121C44.142 26.344 40.8963 24.6248 39.9948 21.6856C39.0932 18.7464 40.9564 15.7518 44.142 14.9199C47.3276 14.1435 50.5734 15.8627 51.4749 18.7464Z" fill="#FF9F1C"/>
</g>
</g>
<g opacity="0.8">
<g opacity="0.8">
<g opacity="0.8">
<g opacity="0.8">
<path opacity="0.8" d="M286.668 182.177C287.99 181.734 289.493 182.177 290.214 183.286C291.476 185.172 289.793 187.834 286.668 187.335C283.843 186.059 284.384 182.954 286.668 182.177Z" fill="#FF9F1C"/>
</g>
</g>
</g>
</g>
<g opacity="0.8">
<g opacity="0.8">
<path opacity="0.8" d="M303.317 174.912C304.759 177.63 303.557 180.902 300.612 182.288C297.667 183.674 294.121 182.51 292.618 179.792C291.176 177.075 292.378 173.803 295.323 172.417C298.328 171.086 301.874 172.195 303.317 174.912Z" fill="#FF9F1C"/>
</g>
</g>
<g opacity="0.8">
<g opacity="0.8">
<path opacity="0.8" d="M308.786 4.1609C308.786 5.99097 307.164 7.4883 305.18 7.4883C303.197 7.4883 301.574 5.99097 301.574 4.1609C301.574 2.33083 303.197 0.833496 305.18 0.833496C307.164 0.833496 308.786 2.33083 308.786 4.1609Z" fill="#FF9F1C"/>
</g>
</g>
</g>
<g opacity="0.8">
<path opacity="0.8" d="M318.403 64.6639C318.403 34.8283 291.476 2.10881 257.937 0.167831C257.336 0.112375 256.735 0.112374 256.134 0.0569176C208.11 -1.99498 204.443 52.0753 160.987 58.1755C117.53 64.2757 84.3521 33.4973 32.3007 53.5726C-14.4013 71.596 -27.0836 172.971 110.198 177.019C220.01 180.291 318.403 153.727 318.403 64.6639Z" fill="#FF9F1C"/>
</g>
<path d="M185.871 231.528C246.85 231.528 296.284 228.972 296.284 225.818C296.284 222.665 246.85 220.108 185.871 220.108C124.891 220.108 75.4565 222.665 75.4565 225.818C75.4565 228.972 124.891 231.528 185.871 231.528Z" fill="#FF9F1C" fill-opacity="0.16"/>
<path d="M297.667 34.9235V168.658C297.667 172.565 294.481 175.751 290.574 175.751H72.7516C68.8448 175.751 65.6592 172.565 65.6592 168.658V34.9235C65.6592 31.0167 68.8448 27.8311 72.7516 27.8311H290.574C290.695 27.8311 290.815 27.8311 290.875 27.8311C290.935 27.8311 291.055 27.8311 291.115 27.8311C291.175 27.8311 291.235 27.8311 291.296 27.8311C291.416 27.8311 291.476 27.8311 291.596 27.8912C291.656 27.8912 291.716 27.8912 291.776 27.8912H291.836C291.897 27.8912 291.957 27.8912 292.017 27.9513C295.202 28.6124 297.667 31.4975 297.667 34.9235Z" fill="white"/>
<path d="M187.166 169.925C189.227 168.147 189.457 165.035 187.679 162.974C185.902 160.913 182.79 160.684 180.729 162.461C178.667 164.239 178.438 167.351 180.215 169.412C181.993 171.473 185.105 171.703 187.166 169.925Z" fill="#FF9F1C" fill-opacity="0.16"/>
<path d="M291.957 27.9513C291.897 27.9513 291.837 27.9513 291.776 27.8912H291.716C291.656 27.8912 291.596 27.8912 291.536 27.8912C291.416 27.8912 291.356 27.8912 291.235 27.8311C291.175 27.8311 291.115 27.8311 291.055 27.8311C290.995 27.8311 290.875 27.8311 290.815 27.8311C290.694 27.8311 290.634 27.8311 290.514 27.8311H72.7516C68.8448 27.8311 65.6592 31.0167 65.6592 34.9235V158.801H297.667V34.9235C297.667 31.4975 295.202 28.6124 291.957 27.9513ZM288.471 146.419C288.471 147.501 287.629 148.343 286.547 148.343H76.7787C75.6968 148.343 74.8553 147.501 74.8553 146.419V38.9506C74.8553 37.8687 75.6968 37.0272 76.7787 37.0272H286.547C287.629 37.0272 288.471 37.8687 288.471 38.9506V146.419Z" fill="#39393B"/>
<path d="M288.47 38.9507V146.42C288.47 147.501 287.629 148.343 286.547 148.343H76.7784C75.6965 148.343 74.855 147.501 74.855 146.42V38.9507C74.855 37.8688 75.6965 37.0273 76.7784 37.0273H286.547C287.569 37.0273 288.47 37.8688 288.47 38.9507Z" fill="#FF9F1C" fill-opacity="0.16"/>
<path d="M288.47 38.9507V49.1086H74.855V38.9507C74.855 37.8688 75.6965 37.0273 76.7784 37.0273H286.547C287.569 37.0273 288.47 37.8688 288.47 38.9507Z" fill="white"/>
<path d="M271.881 42.9183C271.881 43.8198 271.16 44.5411 270.259 44.5411C269.357 44.5411 268.636 43.8198 268.636 42.9183C268.636 42.0167 269.357 41.2954 270.259 41.2954C271.16 41.2954 271.881 42.0167 271.881 42.9183Z" fill="#BB2828"/>
<path d="M277.231 42.9178C277.231 43.8194 276.509 44.5406 275.608 44.5406C274.706 44.5406 273.985 43.8194 273.985 42.9178C273.985 42.0162 274.706 41.2949 275.608 41.2949C276.509 41.2949 277.231 42.0162 277.231 42.9178Z" fill="#FF9F1C"/>
<path d="M261.964 44.6609H94.9904C94.209 44.6609 93.5479 43.9997 93.5479 43.2183V42.6774C93.5479 41.896 94.209 41.2349 94.9904 41.2349H261.964C262.745 41.2349 263.406 41.896 263.406 42.6774V43.2183C263.406 43.9997 262.745 44.6609 261.964 44.6609Z" fill="#D2DCEC"/>
<path d="M82.5489 42.9182V44.541C82.5489 44.7814 82.3084 44.9016 82.1281 44.7814L80.7457 44.0001L79.3633 43.2187C79.1829 43.0985 79.1829 42.7979 79.3633 42.7378L80.7457 41.9565L82.1281 41.1751C82.3084 41.0549 82.5489 41.1751 82.5489 41.4155V42.9182Z" fill="black"/>
<path d="M85.0127 42.9182V44.541C85.0127 44.7814 85.2531 44.9016 85.4334 44.7814L86.8159 44.0001L88.1983 43.2187C88.3786 43.0985 88.3786 42.7979 88.1983 42.7378L86.8159 41.9565L85.4334 41.1751C85.2531 41.0549 85.0127 41.1751 85.0127 41.4155V42.9182Z" fill="black"/>
<path d="M279.455 44.3001L279.334 44.1799C279.154 43.9996 279.154 43.7591 279.334 43.6389L281.558 41.415C281.739 41.2347 281.979 41.2347 282.099 41.415L282.22 41.5352C282.4 41.7156 282.4 41.956 282.22 42.0762L279.996 44.3001C279.875 44.4203 279.575 44.4203 279.455 44.3001Z" fill="#39393B"/>
<path d="M282.16 44.2996L282.28 44.1794C282.46 43.9991 282.46 43.7587 282.28 43.6384L280.056 41.4145C279.876 41.2342 279.635 41.2342 279.515 41.4145L279.395 41.5347C279.215 41.7151 279.215 41.9555 279.395 42.0757L281.619 44.2996C281.739 44.4198 281.98 44.4198 282.16 44.2996Z" fill="#39393B"/>
<path d="M259.861 144.016H102.865C100.761 144.016 99.0181 142.273 99.0181 140.169V55.42C99.0181 53.3163 100.761 51.5732 102.865 51.5732H259.861C261.964 51.5732 263.707 53.3163 263.707 55.42V140.169C263.707 142.273 262.024 144.016 259.861 144.016Z" fill="white"/>
<path d="M144.458 119.672H106.351C105.329 119.672 104.548 118.89 104.548 117.868V98.0336C104.548 97.0118 105.329 96.2305 106.351 96.2305H144.458C145.48 96.2305 146.261 97.0118 146.261 98.0336V117.868C146.261 118.83 145.42 119.672 144.458 119.672Z" fill="#FF9F1C" fill-opacity="0.16"/>
<path d="M255.593 80.4827H217.486C216.464 80.4827 215.683 79.7013 215.683 78.6795V58.8447C215.683 57.8229 216.464 57.0415 217.486 57.0415H255.593C256.615 57.0415 257.396 57.8229 257.396 58.8447V78.6795C257.456 79.7013 256.615 80.4827 255.593 80.4827Z" fill="#FF9F1C" fill-opacity="0.16"/>
<path d="M145.299 78.981H105.388C104.847 78.981 104.427 78.5603 104.427 78.0194V77.9592C104.427 77.4183 104.847 76.9976 105.388 76.9976H145.299C145.84 76.9976 146.26 77.4183 146.26 77.9592V78.0194C146.26 78.5603 145.84 78.981 145.299 78.981Z" fill="#FF9F1C" fill-opacity="0.16"/>
<path d="M145.299 70.5055H105.389C104.848 70.5055 104.427 70.0847 104.427 69.5438V69.4837C104.427 68.9427 104.848 68.522 105.389 68.522H145.299C145.84 68.522 146.261 68.9427 146.261 69.4837V69.5438C146.261 70.0246 145.84 70.5055 145.299 70.5055Z" fill="#FF9F1C" fill-opacity="0.16"/>
<path d="M145.299 87.4561H105.388C104.847 87.4561 104.427 87.0354 104.427 86.4945V86.4343C104.427 85.8934 104.847 85.4727 105.388 85.4727H145.299C145.84 85.4727 146.26 85.8934 146.26 86.4343V86.4945C146.26 87.0354 145.84 87.4561 145.299 87.4561Z" fill="#FF9F1C" fill-opacity="0.16"/>
<path d="M256.494 98.8756H216.644C216.103 98.8756 215.683 98.4548 215.683 97.9139V97.8538C215.683 97.3128 216.103 96.8921 216.644 96.8921H256.494C257.035 96.8921 257.456 97.3128 257.456 97.8538V97.9139C257.456 98.4548 256.975 98.8756 256.494 98.8756Z" fill="#FF9F1C" fill-opacity="0.16"/>
<path d="M256.496 90.4005H216.646C216.105 90.4005 215.684 89.9797 215.684 89.4388V89.3787C215.684 88.8377 216.105 88.417 216.646 88.417H256.496C257.037 88.417 257.457 88.8377 257.457 89.3787V89.4388C257.457 89.9196 256.977 90.4005 256.496 90.4005Z" fill="#FF9F1C" fill-opacity="0.16"/>
<path d="M256.494 107.351H216.644C216.103 107.351 215.683 106.93 215.683 106.389V106.329C215.683 105.788 216.103 105.367 216.644 105.367H256.494C257.035 105.367 257.456 105.788 257.456 106.329V106.389C257.456 106.93 256.975 107.351 256.494 107.351Z" fill="#FF9F1C" fill-opacity="0.16"/>
<path d="M99.0176 129.65H263.767V143.174C263.767 143.655 263.406 144.015 262.926 144.015H99.8591C99.3782 144.015 99.0176 143.655 99.0176 143.174V129.65Z" fill="#39393B"/>
<path d="M251.927 134.999V133.797H253.43V132.715H251.386C251.086 132.715 250.845 132.955 250.845 133.256V134.999H251.927Z" fill="white"/>
<path d="M251.927 137.163H250.845V139.026C250.845 139.326 251.085 139.567 251.386 139.567H253.429V138.485H251.927V137.163Z" fill="white"/>
<path d="M256.615 134.998H257.697V133.255C257.697 132.955 257.456 132.714 257.156 132.714H255.172V133.796H256.615V134.998Z" fill="white"/>
<path d="M256.615 137.163V138.485H255.172V139.567H257.156C257.456 139.567 257.697 139.326 257.697 139.026V137.163H256.615Z" fill="white"/>
<path d="M263.767 126.945H99.0176V129.65H263.767V126.945Z" fill="#FF9F1C" fill-opacity="0.16"/>
<path d="M110.978 54.3965H112.841V58.4837H115.306V59.9262H110.978V54.3965Z" fill="#39393B"/>
<path d="M115.847 54.3965H117.71V59.9262H115.847V54.3965Z" fill="#39393B"/>
<path d="M124.442 54.3965L122.098 59.9262H120.295L117.951 54.3965H119.934L121.256 57.6422L122.579 54.3965H124.442Z" fill="#39393B"/>
<path d="M129.25 58.4857V59.8681H124.682V54.3384H129.19V55.7208H126.545V56.382H128.89V57.7043H126.545V58.4256H129.25V58.4857Z" fill="#39393B"/>
<path d="M107.913 57.1019C107.913 58.3641 106.891 59.3859 105.629 59.3859C104.367 59.3859 103.345 58.3641 103.345 57.1019C103.345 55.8397 104.367 54.8179 105.629 54.8179C106.891 54.8179 107.913 55.8397 107.913 57.1019Z" fill="#BB2828"/>
<path d="M242.25 117.808C242.25 118.89 241.348 119.791 240.266 119.791C239.184 119.791 238.283 118.89 238.283 117.808C238.283 116.726 239.184 115.824 240.266 115.824C241.348 115.824 242.25 116.726 242.25 117.808Z" fill="#BB2828"/>
<path d="M243.993 122.856H236.54C236.54 122.856 237.381 120.512 240.206 120.512H240.266H240.326C243.151 120.452 243.993 122.856 243.993 122.856Z" fill="#BB2828"/>
<path d="M250.845 116.607V117.87L248.861 122.678H246.637L248.561 118.23H247.359V119.132H245.676V116.668H250.845V116.607Z" fill="#39393B"/>
<path d="M256.134 121.054V122.617H251.326V121.355L253.49 119.311C253.911 118.951 253.971 118.71 253.971 118.47C253.971 118.169 253.79 117.989 253.37 117.989C253.009 117.989 252.648 118.169 252.468 118.53L250.905 117.749C251.326 116.907 252.228 116.366 253.49 116.366C254.932 116.366 255.954 117.087 255.954 118.229C255.954 118.831 255.774 119.371 254.932 120.153L254.091 120.934H256.134V121.054Z" fill="#39393B"/>
<path d="M338.358 76.8761C347.288 76.8761 354.527 69.718 354.527 60.888C354.527 52.058 347.288 44.8999 338.358 44.8999C329.429 44.8999 322.19 52.058 322.19 60.888C322.19 69.718 329.429 76.8761 338.358 76.8761Z" fill="#CED3E6"/>
<path d="M338.358 74.8331C347.288 74.8331 354.527 67.675 354.527 58.845C354.527 50.015 347.288 42.8569 338.358 42.8569C329.429 42.8569 322.19 50.015 322.19 58.845C322.19 67.675 329.429 74.8331 338.358 74.8331Z" fill="#FF9F1C"/>
<path d="M338.358 71.8279C345.628 71.8279 351.522 66.0153 351.522 58.8451C351.522 51.6749 345.628 45.8623 338.358 45.8623C331.089 45.8623 325.195 51.6749 325.195 58.8451C325.195 66.0153 331.089 71.8279 338.358 71.8279Z" fill="white"/>
<path d="M351.522 58.8451C351.522 59.2057 351.522 59.5063 351.461 59.8669C350.921 53.1952 345.271 47.9059 338.358 47.9059C331.446 47.9059 325.796 53.1952 325.255 59.8669C325.255 59.5063 325.195 59.2057 325.195 58.8451C325.195 51.6926 331.086 45.8623 338.358 45.8623C345.571 45.8623 351.522 51.6926 351.522 58.8451Z" fill="#CED3E6"/>
<path d="M338.358 60.167C338.238 60.167 338.178 60.1069 338.118 60.0467L331.687 51.4516C331.566 51.3314 331.627 51.091 331.747 50.9708C331.867 50.8506 332.107 50.9107 332.228 51.0309L338.539 59.3856L345.691 56.2601C345.872 56.2 346.052 56.2601 346.112 56.4404C346.172 56.6207 346.112 56.801 345.932 56.8611L338.539 60.0467C338.418 60.167 338.358 60.167 338.358 60.167Z" fill="#39393B"/>
<path d="M293.219 251.542C337.037 251.542 372.558 249.443 372.558 246.854C372.558 244.265 337.037 242.166 293.219 242.166C249.401 242.166 213.879 244.265 213.879 246.854C213.879 249.443 249.401 251.542 293.219 251.542Z" fill="#FF9F1C" fill-opacity="0.16"/>
<path d="M324.353 249.019C299.529 248.178 273.925 244.752 260.641 199.071C256.674 185.487 259.259 175.209 263.586 167.456C264.668 165.532 265.81 163.789 267.072 162.166C267.553 161.565 267.974 160.964 268.455 160.423C278.132 148.522 294.421 144.255 308.786 149.544C316.84 152.489 327.238 156.817 336.494 162.527C355.067 173.887 359.395 186.87 365.465 209.109C366.006 211.032 366.487 213.136 366.908 215.42C367.148 216.622 367.269 217.884 367.389 219.147C368.711 233.392 363.241 250.401 324.353 249.019Z" fill="#39393B"/>
<path d="M367.389 219.146C366.548 221.43 365.406 223.834 363.843 226.058C359.155 232.79 349.417 240.904 329.522 241.445C328.621 241.445 327.779 241.505 326.938 241.505C319.365 241.505 312.633 240.604 306.502 238.741C300.071 236.757 294.481 233.812 289.432 229.725C280.837 222.752 273.805 212.715 266.592 197.027C263.767 190.836 262.264 184.585 262.204 178.395C262.144 174.728 262.625 171.062 263.587 167.455C264.669 165.532 265.811 163.789 267.073 162.166C266.772 162.887 266.472 163.609 266.171 164.39C263.587 171.542 261.784 182.842 268.034 196.366C280.717 223.894 295.382 240.724 329.462 239.822C348.696 239.342 358.073 231.528 362.581 225.097C364.925 221.731 366.247 218.365 366.908 215.299C367.088 216.622 367.269 217.884 367.389 219.146Z" fill="#585859"/>
<path d="M331.866 134.818C331.866 134.818 347.433 155.915 350.979 166.433C354.526 176.952 345.93 184.405 345.93 184.405L337.936 187.41C337.936 187.47 329.702 150.325 331.866 134.818Z" fill="#1E2959"/>
<path d="M330.543 194.023C323.752 196.307 307.102 202.197 299.89 199.793C299.589 199.673 299.289 199.552 299.048 199.432C298.267 199.072 297.606 198.531 297.185 197.869C294.36 193.542 291.535 175.45 292.797 164.871C292.977 163.549 293.038 162.107 293.038 160.604C293.098 158.38 292.977 155.976 292.917 153.572C292.557 144.556 291.114 138.305 295.021 136.141C298.507 134.158 302.895 132.655 305.66 131.934C307.403 131.513 310.228 130.671 312.211 130.671L320.806 132.234C320.806 132.234 328.259 133.496 329.942 134.759C331.685 136.021 332.527 141.611 335.652 146.72C338.778 151.829 339.439 156.938 336.494 162.527C333.909 167.396 334.39 165.533 334.03 173.527C333.549 183.324 343.827 189.575 330.543 194.023Z" fill="white"/>
<g opacity="0.8">
<g opacity="0.8">
<path opacity="0.8" d="M307.644 148.102C307.644 148.102 316.96 145.698 328.861 147.922L329.161 156.156C329.161 156.156 316.058 154.714 307.824 156.817L307.644 148.102Z" fill="#CED3E6"/>
</g>
</g>
<g opacity="0.8">
<path opacity="0.8" d="M318.403 141.129C318.283 141.129 318.162 141.129 318.042 141.129C312.933 140.888 308.245 136.38 308.065 136.2C307.945 136.08 307.945 135.84 308.065 135.719C308.185 135.599 308.425 135.599 308.546 135.719C308.606 135.779 313.234 140.227 318.042 140.468C322.67 140.708 323.211 136.14 323.271 135.9C323.271 135.719 323.452 135.599 323.632 135.599C323.812 135.599 323.933 135.779 323.933 135.96C323.933 136.02 323.332 141.129 318.403 141.129Z" fill="#CED3E6"/>
</g>
<g opacity="0.8">
<path opacity="0.8" d="M303.917 182.362C303.857 182.362 303.857 182.302 303.797 182.242C303.677 182.062 303.737 181.821 303.917 181.761C310.529 177.734 316.9 176.352 321.047 175.871C325.555 175.33 328.5 175.751 328.621 175.811C328.801 175.811 328.981 176.051 328.921 176.231C328.921 176.412 328.681 176.592 328.5 176.532C328.5 176.532 325.555 176.111 321.107 176.592C317.02 177.073 310.769 178.455 304.278 182.422C304.218 182.422 304.037 182.422 303.917 182.362Z" fill="#CED3E6"/>
</g>
<path d="M312.572 197.267C306.441 195.344 300.911 191.437 297.125 187.951C296.824 187.65 296.524 187.41 296.283 187.11C294.3 185.186 292.917 186.208 292.316 185.066C290.032 180.859 291.354 164.45 292.316 158.379C293.278 152.368 289.131 141.309 291.354 137.342C293.578 133.375 301.332 131.993 301.332 131.993C301.332 131.993 300.25 130.73 302.294 129.288C304.397 127.845 309.867 128.446 309.867 128.446C310.228 154.592 313.894 178.875 312.572 197.267Z" fill="#1E2959"/>
<path d="M306.562 189.815C306.382 189.815 306.262 189.695 306.202 189.514C303.437 171.363 306.142 137.283 306.202 136.982C306.202 136.802 306.382 136.682 306.562 136.682C306.743 136.682 306.863 136.862 306.863 137.042C306.863 137.403 304.098 171.423 306.863 189.454C306.923 189.575 306.803 189.755 306.562 189.815C306.622 189.815 306.562 189.815 306.562 189.815Z" fill="white"/>
<path d="M312.152 192.52C311.972 192.52 311.852 192.4 311.792 192.219C308.125 171.423 307.885 135.48 307.825 135.119C307.825 134.939 308.005 134.758 308.185 134.758C308.366 134.758 308.546 134.939 308.546 135.119C308.546 135.48 308.847 171.363 312.453 192.099C312.573 192.279 312.453 192.46 312.152 192.52C312.212 192.52 312.212 192.52 312.152 192.52Z" fill="#1E2959"/>
<path d="M306.14 134.939H306.08C303.195 134.158 301.452 132.475 301.332 132.415C301.212 132.295 301.212 132.054 301.332 131.934C301.452 131.814 301.692 131.814 301.813 131.934C301.813 131.934 303.556 133.617 306.261 134.278C306.441 134.338 306.561 134.518 306.501 134.699C306.441 134.819 306.261 134.939 306.14 134.939Z" fill="#1E2959"/>
<path d="M339.14 185.848C339.14 185.848 336.976 193.181 328.802 196.727C327.78 176.772 325.496 154.052 322.551 129.83C322.551 129.83 325.676 129.289 326.939 131.032C327.479 131.813 327.6 133.076 327.6 133.076C327.6 133.076 329.162 133.376 330.905 134.218C332.649 134.999 332.468 136.141 332.889 138.966C333.31 141.791 337.637 146.179 339.08 152.069C340.522 157.959 336.736 161.746 335.534 166.735C334.452 171.723 339.14 185.848 339.14 185.848Z" fill="#1E2959"/>
<path d="M332.167 188.973C331.987 188.973 331.807 188.853 331.807 188.612C331.025 161.505 326.097 137.282 326.037 137.042C325.977 136.862 326.097 136.681 326.277 136.621C326.457 136.561 326.638 136.681 326.698 136.862C326.758 137.102 331.687 161.385 332.528 188.552C332.528 188.793 332.348 188.973 332.167 188.973Z" fill="white"/>
<path d="M324.654 135.66C324.474 135.66 324.354 135.54 324.294 135.359C324.233 135.179 324.414 134.999 324.594 134.939C324.594 134.939 326.818 134.518 327.299 132.955C327.359 132.775 327.539 132.655 327.72 132.715C327.9 132.775 328.02 132.955 327.96 133.136C327.359 135.179 324.834 135.66 324.654 135.66C324.714 135.66 324.714 135.66 324.654 135.66Z" fill="#1E2959"/>
<path d="M331.386 188.974C331.206 188.974 331.086 188.854 331.025 188.673C328.621 168.658 324.835 136.742 324.774 136.442C324.774 136.261 324.895 136.081 325.075 136.081C325.255 136.081 325.436 136.201 325.436 136.382C325.496 136.682 329.282 168.658 331.687 188.613C331.747 188.734 331.566 188.914 331.386 188.974Z" fill="#1E2959"/>
<path d="M311.189 203.338C312.211 204.059 313.894 204.841 316.298 205.622C330.243 210.07 343.045 202.917 343.045 202.917C343.827 199.071 343.346 194.743 342.084 193.18C342.504 192.639 342.204 191.918 342.204 191.918L355.006 178.575C347.734 184.645 338.658 186.629 331.685 190.836C329.642 192.038 327.839 193.12 326.516 193.902C324.473 195.044 321.888 195.164 319.364 194.803C314.375 194.142 309.627 191.678 309.627 191.678C309.627 191.678 293.639 184.405 290.633 184.705C288.289 184.886 300.791 197.929 311.189 203.338Z" fill="#FF9F1C"/>
<path d="M335.893 214.457C335.893 214.457 331.806 213.254 330.543 211.932L327.658 218.664L337.395 221.729C337.335 221.729 337.516 215.779 335.893 214.457Z" fill="#EA9B7A"/>
<path d="M359.334 233.931L346.772 206.042C346.291 205.982 345.69 206.162 345.029 206.403C342.564 207.304 339.138 209.768 336.974 211.211C336.734 211.391 336.494 211.512 336.253 211.692C335.892 211.932 335.592 212.113 335.291 212.233C333.368 213.134 334.39 214.156 334.39 214.156C337.996 215.959 335.832 221.309 337.996 222.571C337.996 222.571 338.958 223.112 341.903 224.434C344.908 225.757 347.914 228.942 350.678 231.527C354.285 234.893 356.509 235.313 357.831 234.953C358.913 234.592 359.334 233.931 359.334 233.931Z" fill="#EBB12B"/>
<path d="M359.334 233.93L346.772 206.041C346.292 205.981 345.69 206.162 345.029 206.402L357.892 234.892C358.914 234.592 359.334 233.93 359.334 233.93Z" fill="#C77E2E"/>
<path d="M348.034 208.866L347.673 208.025C347.072 209.287 345.99 210.73 343.887 211.511C341.062 212.593 338.477 211.812 336.975 211.09C336.734 211.271 336.494 211.391 336.253 211.571C337.756 212.413 340.761 213.555 344.127 212.232C346.171 211.391 347.373 210.129 348.034 208.866Z" fill="#C77E2E"/>
<path d="M343.406 223.051C343.286 222.871 343.105 222.69 342.865 222.751C342.564 222.811 342.384 223.051 342.444 223.352L342.805 225.275C342.865 225.576 343.105 225.756 343.406 225.696C343.706 225.636 343.887 225.395 343.827 225.095L343.466 223.171C343.406 223.171 343.406 223.111 343.406 223.051Z" fill="white"/>
<path d="M341.182 222.03C341.061 221.849 340.881 221.669 340.641 221.729C340.34 221.789 340.16 222.03 340.22 222.33L340.581 224.253C340.641 224.554 340.881 224.734 341.182 224.674C341.482 224.614 341.663 224.374 341.602 224.073L341.242 222.15C341.182 222.09 341.182 222.03 341.182 222.03Z" fill="white"/>
<path d="M345.209 224.373C345.089 224.193 344.909 224.013 344.668 224.073C344.368 224.133 344.187 224.373 344.247 224.674L344.608 226.597C344.668 226.898 344.909 227.078 345.209 227.018C345.51 226.958 345.69 226.717 345.63 226.417L345.269 224.494C345.209 224.433 345.209 224.433 345.209 224.373Z" fill="white"/>
<path d="M346.952 225.695C346.832 225.515 346.652 225.334 346.411 225.395C346.111 225.455 345.93 225.695 345.991 225.996L346.351 227.919C346.411 228.22 346.652 228.4 346.952 228.34C347.253 228.28 347.433 228.039 347.373 227.739L347.012 225.815C346.952 225.755 346.952 225.695 346.952 225.695Z" fill="white"/>
<path d="M348.695 227.138C348.575 226.958 348.395 226.778 348.154 226.838C347.854 226.898 347.674 227.138 347.734 227.439L348.094 229.362C348.154 229.663 348.395 229.843 348.695 229.783C348.996 229.723 349.176 229.483 349.116 229.182L348.755 227.259C348.755 227.259 348.695 227.199 348.695 227.138Z" fill="white"/>
<path d="M350.378 228.881C350.258 228.701 350.077 228.521 349.837 228.581C349.537 228.641 349.356 228.881 349.416 229.182L349.777 231.105C349.837 231.406 350.077 231.586 350.378 231.526C350.679 231.466 350.859 231.225 350.799 230.925L350.438 229.001C350.438 228.941 350.438 228.941 350.378 228.881Z" fill="white"/>
<path d="M290.573 184.646C290.573 184.646 280.476 179.176 274.585 183.384C263.886 191.077 282.038 205.923 302.835 213.196C323.631 220.469 330.363 219.447 330.363 219.447C330.363 219.447 334.871 218.185 333.248 210.852C333.248 210.852 321.287 206.284 315.036 201.536C308.905 196.847 304.638 190.957 290.573 184.646Z" fill="#FF9F1C"/>
<path d="M332.527 213.076C328.139 212.054 319.303 207.967 308.725 202.197C300.851 197.869 291.775 192.339 290.453 190.416C289.731 189.394 289.551 188.553 289.912 187.891C290.453 186.93 292.015 186.87 292.737 186.87C292.917 186.87 293.037 187.05 293.037 187.23C293.037 187.411 292.917 187.531 292.737 187.531C292.015 187.531 290.813 187.651 290.453 188.252C290.152 188.733 290.573 189.514 290.934 190.115C292.015 191.678 299.589 196.547 309.025 201.656C317.14 206.103 327.538 211.273 332.647 212.475L332.527 213.076Z" fill="#217C58"/>
<path d="M331.685 209.95C331.204 213.797 330.182 217.283 328.019 219.988C328.019 219.988 329.882 221.31 331.565 220.349C332.887 219.627 335.351 213.617 334.39 210.371C333.368 209.83 332.406 209.59 331.685 209.95Z" fill="#217C58"/>
<path d="M305.298 213.738C305.298 213.738 309.445 212.956 310.587 211.514L313.893 218.065L304.397 221.732C304.397 221.672 303.796 215.18 305.298 213.738Z" fill="#EA9B7A"/>
<path d="M283.3 235.315L293.999 206.645C294.48 206.585 295.081 206.645 295.742 206.885C298.206 207.606 301.813 209.83 304.097 211.093C304.337 211.273 304.638 211.393 304.818 211.513C305.179 211.694 305.539 211.874 305.78 211.994C307.763 212.715 306.922 213.316 306.922 213.316C303.015 215.18 305.9 221.13 303.736 222.513C303.736 222.513 302.835 223.114 299.95 224.616C297.064 226.119 294.24 229.485 291.655 232.31C288.289 235.916 286.065 236.457 284.743 236.217C283.781 235.976 283.3 235.315 283.3 235.315Z" fill="#EBB12B"/>
<path d="M283.3 235.315L293.999 206.645C294.48 206.585 295.081 206.645 295.742 206.885L284.803 236.217C283.781 235.976 283.3 235.315 283.3 235.315Z" fill="#C77E2E"/>
<path d="M292.918 209.59L293.218 208.749C293.88 209.951 295.082 211.333 297.246 211.994C300.131 212.896 302.655 211.934 304.098 211.093C304.338 211.273 304.639 211.393 304.819 211.513C303.376 212.415 300.431 213.797 297.005 212.655C294.962 211.994 293.699 210.792 292.918 209.59Z" fill="#C77E2E"/>
<path d="M298.507 223.475C298.567 223.235 298.808 223.114 299.048 223.174C299.349 223.235 299.529 223.475 299.469 223.715L299.229 225.699C299.168 225.999 298.928 226.18 298.688 226.12C298.387 226.06 298.207 225.819 298.267 225.579L298.507 223.595C298.507 223.535 298.507 223.475 298.507 223.475Z" fill="white"/>
<path d="M300.671 222.212C300.731 221.972 300.971 221.852 301.212 221.912C301.512 221.972 301.693 222.212 301.633 222.453L301.392 224.436C301.332 224.737 301.092 224.917 300.851 224.857C300.551 224.797 300.37 224.556 300.43 224.316L300.671 222.333C300.611 222.333 300.671 222.272 300.671 222.212Z" fill="white"/>
<path d="M296.764 224.857C296.824 224.616 297.065 224.496 297.305 224.556C297.606 224.616 297.786 224.857 297.726 225.097L297.485 227.081C297.425 227.381 297.185 227.562 296.944 227.502C296.644 227.441 296.464 227.201 296.524 226.961L296.764 224.977C296.764 224.917 296.764 224.917 296.764 224.857Z" fill="white"/>
<path d="M295.142 226.3C295.202 226.06 295.442 225.94 295.683 226C295.983 226.06 296.163 226.3 296.103 226.541L295.863 228.524C295.803 228.825 295.562 229.005 295.322 228.945C295.021 228.885 294.841 228.644 294.901 228.404L295.142 226.42C295.081 226.36 295.081 226.3 295.142 226.3Z" fill="white"/>
<path d="M293.459 227.922C293.519 227.682 293.759 227.562 294 227.622C294.3 227.682 294.481 227.922 294.421 228.163L294.24 230.086C294.18 230.387 293.94 230.567 293.699 230.507C293.399 230.447 293.219 230.206 293.279 229.966L293.519 227.982C293.459 227.982 293.459 227.922 293.459 227.922Z" fill="white"/>
<path d="M291.895 229.726C291.955 229.485 292.196 229.365 292.436 229.425C292.736 229.485 292.917 229.726 292.857 229.966L292.616 231.949C292.556 232.25 292.316 232.43 292.075 232.37C291.775 232.31 291.594 232.07 291.655 231.829L291.895 229.846C291.895 229.786 291.895 229.786 291.895 229.726Z" fill="white"/>
<path d="M350.919 180.258C350.919 180.258 360.476 173.887 366.727 177.553C378.087 184.225 361.378 200.694 341.302 209.83C321.287 218.966 314.435 218.605 314.435 218.605C314.435 218.605 309.807 217.764 310.769 210.371C310.769 210.371 322.309 204.721 328.079 199.432C333.789 194.022 337.516 187.831 350.919 180.258Z" fill="#FF9F1C"/>
<path d="M333.368 213.256C332.286 213.617 331.144 213.978 330.002 214.338C325.494 215.721 320.385 217.223 315.757 218.365V219.026C319.965 218.005 324.833 216.622 330.183 214.939C331.204 214.639 332.286 214.278 333.368 213.918V213.256Z" fill="#217C58"/>
<path d="M311.73 212.355C315.998 210.913 324.473 206.044 334.39 199.312C341.843 194.263 350.378 187.952 351.52 185.909C352.121 184.827 352.241 183.925 351.821 183.324C351.22 182.423 349.657 182.483 348.936 182.543C348.755 182.543 348.635 182.723 348.635 182.903C348.635 183.084 348.815 183.204 348.996 183.144C349.717 183.084 350.919 183.084 351.34 183.685C351.7 184.166 351.34 184.947 350.979 185.548C350.078 187.171 342.925 192.701 334.029 198.711C326.396 203.88 316.418 210.011 311.49 211.694L311.73 212.355Z" fill="#217C58"/>
<path d="M312.271 209.169C313.113 212.955 314.435 216.321 316.839 218.846C316.839 218.846 315.096 220.348 313.353 219.567C311.971 218.966 308.965 213.196 309.626 209.89C310.588 209.229 311.49 208.928 312.271 209.169Z" fill="#217C58"/>
<path d="M310.949 178.815L310.168 189.814C310.168 189.814 297.125 187.951 290.694 186.328C288.83 185.847 286.727 185.246 284.803 184.225C281.257 182.361 278.312 179.055 278.552 172.684C278.612 170.641 279.033 168.236 279.815 165.532C284.503 149.604 292.316 136.2 292.316 136.2C302.354 140.528 301.513 147.68 301.513 147.68C298.628 155.314 292.316 171.602 292.316 171.602C296.043 176.05 310.949 178.815 310.949 178.815Z" fill="#1E2959"/>
<path d="M292.317 171.903C292.256 171.903 292.196 171.903 292.136 171.843C291.054 171.182 287.989 170.461 287.989 170.461C287.809 170.401 287.688 170.221 287.749 170.04C287.809 169.86 287.989 169.74 288.169 169.8C288.29 169.8 290.393 170.341 291.776 170.942C291.595 170.461 291.235 169.98 290.754 169.439C290.634 169.319 290.634 169.079 290.814 168.958C290.934 168.838 291.175 168.838 291.295 169.018C292.076 169.92 292.557 170.761 292.677 171.543C292.677 171.663 292.617 171.783 292.557 171.903C292.497 171.903 292.437 171.903 292.317 171.903Z" fill="#1E2959"/>
<path d="M284.864 184.225C281.318 182.362 278.372 179.056 278.613 172.685C281.378 174.127 286.306 177.673 284.864 184.225Z" fill="#1E2959"/>
<path d="M302.775 177.132H302.715C296.224 175.449 292.317 171.963 292.137 171.843C292.016 171.723 292.016 171.542 292.077 171.422C296.705 162.346 299.59 155.134 301.273 148.762C301.333 148.582 301.513 148.462 301.693 148.522C301.874 148.582 301.994 148.762 301.934 148.943C300.311 155.314 297.366 162.527 292.798 171.482C293.699 172.204 297.366 175.029 302.896 176.471C303.076 176.531 303.196 176.712 303.136 176.892C303.076 177.072 302.896 177.132 302.775 177.132Z" fill="#1E2959"/>
<path d="M300.191 153.812C300.131 153.812 300.071 153.812 299.95 153.752C299.83 153.632 299.77 153.392 299.89 153.272L302.294 150.266C302.415 150.146 302.655 150.086 302.775 150.206C302.896 150.326 302.956 150.567 302.835 150.687L300.431 153.692C300.371 153.812 300.251 153.812 300.191 153.812Z" fill="#1E2959"/>
<path d="M311.37 126.164L322.97 127.847C330.483 127.066 332.887 124.12 334.15 117.749C334.751 114.564 334.33 111.739 333.729 109.635C333.549 107.231 333.008 105.187 331.926 103.865C326.817 97.734 322.369 97.9745 322.369 97.9745C320.085 96.9527 312.572 96.2314 307.583 102.242C307.403 102.362 304.397 105.608 303.676 112.34C303.015 118.711 307.282 126.885 311.37 126.164Z" fill="#39393B"/>
<path d="M317.801 99.6565C317.801 99.6565 319.003 88.9577 309.507 90.3401C303.316 91.2417 299.469 99.6565 305.119 103.443C310.829 107.23 317.801 99.6565 317.801 99.6565Z" fill="#39393B"/>
<path d="M306.141 104.525C306.081 104.525 306.021 104.525 306.021 104.465C305.901 104.404 305.84 104.224 305.901 104.044C308.124 100.017 311.25 98.2737 313.474 97.4923C315.878 96.6509 317.801 96.7711 317.862 96.7711C318.042 96.7711 318.162 96.9514 318.162 97.0716C318.162 97.2519 318.042 97.3721 317.862 97.3721C317.801 97.3721 310.469 97.0115 306.441 104.344C306.321 104.465 306.261 104.525 306.141 104.525Z" fill="#EBB12B"/>
<path d="M312.271 123.759C312.271 123.759 304.878 119.612 306.321 111.017C307.763 102.422 313.474 97.1924 322.129 99.7169C322.129 99.6568 321.287 124.601 312.271 123.759Z" fill="#39393B"/>
<path d="M332.828 107.891C332.828 107.891 333.609 115.284 332.227 116.366C330.904 117.447 329.582 114.502 329.582 114.502C329.582 114.502 331.385 107.951 332.828 107.891Z" fill="#39393B"/>
<path d="M329.463 117.028C329.463 117.028 331.687 115.104 332.408 117.448C333.129 119.853 331.627 124.18 328.922 123.038L329.463 117.028Z" fill="#D46A43"/>
<path d="M332.167 122.498C331.867 122.798 331.506 123.038 331.145 123.219C329.763 123.94 327.96 124.06 325.796 122.918C325.796 122.918 323.031 119.312 327.118 112.941C327.118 112.941 330.905 111.919 333.069 114.203C333.309 114.443 333.55 114.744 333.73 115.105C333.85 115.285 333.97 115.525 334.03 115.766C334.752 117.689 334.03 120.815 332.167 122.498Z" fill="#FF9F1C"/>
<path d="M332.047 113.421C332.227 112.58 332.408 111.498 332.528 110.356C332.468 110.356 332.408 110.416 332.348 110.416C332.107 110.416 331.867 110.356 331.626 110.176C331.506 111.258 331.386 112.279 331.206 113.061L332.047 113.421Z" fill="white"/>
<path d="M332.167 122.497C331.867 122.798 331.506 123.038 331.146 123.218C333.069 119.252 333.129 115.645 333.009 114.203C333.249 114.443 333.49 114.744 333.67 115.104C333.67 116.727 333.429 119.492 332.167 122.497Z" fill="#217C58"/>
<path d="M322.971 127.726L322.07 133.857C322.07 133.857 318.343 138.665 309.628 130.852C310.59 128.387 312.152 125.142 311.732 122.677C311.732 122.677 312.393 123.278 313.475 123.939C313.715 124.06 313.956 124.24 314.196 124.36C316.48 125.743 319.906 127.486 322.971 127.726Z" fill="#EA9B7A"/>
<path d="M322.971 127.726L322.55 130.611C320.026 129.649 315.638 127.545 313.474 123.939C313.715 124.059 313.955 124.24 314.195 124.36C316.479 125.742 319.905 127.485 322.971 127.726Z" fill="#39393B"/>
<path d="M331.326 117.328C331.206 117.989 331.146 118.53 331.026 119.131C330.304 123.339 329.703 125.623 328.501 126.524C322.551 131.092 312.092 123.038 311.792 122.798C311.732 122.317 311.732 121.836 311.732 121.355C311.611 117.268 312.092 113.602 312.994 110.176C313.354 106.449 316.059 103.384 319.726 102.602C323.512 101.821 326.518 103.864 328.321 104.766C331.086 106.088 332.408 110.115 331.566 115.525C331.506 116.126 331.386 116.727 331.326 117.328Z" fill="#EA9B7A"/>
<path d="M326.037 122.197C322.731 122.197 321.409 119.012 321.409 119.012C321.349 118.831 321.409 118.711 321.589 118.591C321.769 118.531 321.89 118.591 322.01 118.771C322.07 118.891 323.452 122.197 327.059 121.536C327.239 121.476 327.359 121.596 327.419 121.776C327.479 121.957 327.359 122.077 327.179 122.137C326.698 122.197 326.337 122.197 326.037 122.197Z" fill="#39393B"/>
<path d="M323.452 110.777C324.294 110.476 324.114 109.214 323.212 109.154C321.649 109.034 319.245 109.094 319.005 110.356C318.764 112.159 321.589 111.378 323.452 110.777Z" fill="#39393B"/>
<path d="M327.96 111.318C327.299 110.717 327.96 109.635 328.801 109.935C330.244 110.476 332.468 111.498 332.167 112.7C331.747 114.443 329.463 112.64 327.96 111.318C328.02 111.318 328.02 111.318 327.96 111.318Z" fill="#39393B"/>
<path d="M323.572 123.7C324.173 123.88 324.714 123.76 324.714 123.7C324.834 123.7 324.895 123.58 324.834 123.46C324.834 123.339 324.714 123.279 324.594 123.339C324.594 123.339 323.572 123.58 322.851 122.919C322.791 122.859 322.671 122.859 322.55 122.919C322.49 122.979 322.49 123.099 322.55 123.219C322.911 123.46 323.272 123.64 323.572 123.7Z" fill="#D46A43"/>
<path d="M325.676 119.611C325.616 119.611 325.556 119.551 325.556 119.491C325.496 119.371 325.556 119.251 325.676 119.191L327.119 118.71L326.277 117.868C326.217 117.808 326.217 117.748 326.217 117.688L326.457 115.284C326.457 115.164 326.578 115.104 326.698 115.104C326.818 115.104 326.878 115.224 326.878 115.344L326.638 117.628L327.66 118.65C327.72 118.71 327.72 118.77 327.72 118.83C327.72 118.89 327.66 118.95 327.599 119.01L325.796 119.611C325.736 119.611 325.676 119.611 325.676 119.611Z" fill="#39393B"/>
<path d="M321.89 117.268C321.829 117.749 320.748 117.989 319.485 117.809C318.223 117.629 317.261 117.088 317.322 116.547C317.382 116.066 318.464 115.825 319.726 116.006C320.988 116.246 321.95 116.787 321.89 117.268Z" fill="#D46A43"/>
<g opacity="0.8">
<g opacity="0.8">
<g opacity="0.8">
<g opacity="0.8">
<g opacity="0.8">
<g opacity="0.8">
<g opacity="0.8">
<g opacity="0.8">
<g opacity="0.8">
<g opacity="0.8">
<g opacity="0.8">
<path opacity="0.8" d="M331.326 117.869C331.206 118.53 331.146 119.071 331.026 119.672C329.884 119.431 329.042 118.95 329.102 118.47C329.162 117.989 330.124 117.748 331.326 117.869Z" fill="#D46A43"/>
</g>
</g>
</g>
</g>
</g>
</g>
</g>
</g>
</g>
</g>
</g>
<path d="M323.152 115.525C323.032 116.186 322.671 116.727 322.25 116.667C321.89 116.607 321.649 116.006 321.77 115.345C321.89 114.684 322.25 114.143 322.671 114.203C322.972 114.203 323.212 114.804 323.152 115.525Z" fill="#39393B"/>
<path d="M329.884 116.547C329.764 117.208 329.404 117.749 328.983 117.689C328.622 117.629 328.382 117.027 328.502 116.366C328.622 115.705 328.983 115.164 329.404 115.224C329.764 115.224 330.005 115.825 329.884 116.547Z" fill="#39393B"/>
<path d="M314.436 120.273C314.376 120.334 313.174 122.317 311.792 122.738C311.731 122.257 311.731 121.776 311.731 121.295C311.792 121.295 313.114 121.235 314.436 120.273Z" fill="#39393B"/>
<path d="M313.895 115.345C313.895 115.345 311.732 111.258 309.267 113.843C307.284 115.946 309.448 122.738 313.114 120.935L313.895 115.345Z" fill="#EA9B7A"/>
<path d="M312.814 119.853C312.693 119.853 312.573 119.733 312.573 119.553C312.693 116.728 310.53 115.405 310.409 115.345C310.289 115.285 310.229 115.105 310.289 114.985C310.349 114.864 310.53 114.804 310.65 114.864C310.77 114.925 313.234 116.427 313.114 119.553C313.174 119.733 313.054 119.853 312.814 119.853C312.874 119.853 312.874 119.853 312.814 119.853Z" fill="#39393B"/>
<path d="M310.469 117.748C310.409 117.748 310.288 117.688 310.288 117.628C310.228 117.508 310.228 117.328 310.409 117.267C310.529 117.207 311.671 116.546 312.452 116.907C312.572 116.967 312.693 117.147 312.632 117.267C312.572 117.388 312.392 117.508 312.272 117.448C311.791 117.267 310.95 117.628 310.709 117.808C310.589 117.748 310.529 117.808 310.469 117.748Z" fill="#39393B"/>
<path d="M320.687 119.132C318.523 118.29 317.441 115.886 318.283 113.782C319.124 111.618 321.528 110.536 323.632 111.378C325.796 112.219 326.878 114.624 326.036 116.727C325.195 118.831 322.791 119.913 320.687 119.132ZM323.392 111.919C321.588 111.198 319.485 112.159 318.824 113.962C318.102 115.766 319.064 117.869 320.867 118.53C322.67 119.252 324.774 118.29 325.435 116.487C326.157 114.684 325.255 112.58 323.392 111.919Z" fill="white"/>
<path d="M318.403 114.323C318.343 114.323 318.343 114.323 318.283 114.323C316.059 113.301 313.895 114.082 313.895 114.082C313.715 114.142 313.535 114.082 313.475 113.902C313.415 113.722 313.475 113.541 313.655 113.481C313.775 113.421 315.999 112.58 318.524 113.722C318.704 113.782 318.764 113.962 318.644 114.143C318.644 114.263 318.524 114.323 318.403 114.323Z" fill="white"/>
<path d="M329.883 120.154C327.719 119.312 326.637 116.908 327.479 114.804C328.32 112.64 330.725 111.558 332.828 112.4C334.992 113.241 336.074 115.646 335.233 117.749C334.391 119.853 331.987 120.935 329.883 120.154ZM332.588 112.941C330.785 112.22 328.681 113.181 328.02 114.984C327.299 116.788 328.26 118.891 330.064 119.552C331.867 120.274 333.97 119.312 334.632 117.509C335.353 115.706 334.451 113.662 332.588 112.941Z" fill="white"/>
<path d="M325.856 114.924C325.796 114.924 325.796 114.864 325.736 114.804C325.676 114.684 325.676 114.503 325.856 114.383C325.916 114.383 326.938 113.722 327.96 114.563C328.08 114.684 328.14 114.864 328.02 114.984C327.9 115.104 327.72 115.165 327.599 115.044C326.878 114.503 326.217 114.924 326.217 114.924C326.037 114.984 325.916 114.984 325.856 114.924Z" fill="white"/>
<path d="M328.079 100.979C330.604 102.121 332.587 104.224 333.489 106.809C334.03 108.432 334.511 110.596 332.227 110.355C325.916 109.574 322.55 103.082 322.55 103.082C322.55 103.082 321.348 109.093 316.359 108.372C311.43 107.65 311.55 103.924 314.375 101.82C316.599 100.077 322.43 98.4542 328.079 100.979Z" fill="#39393B"/>
<path d="M316.479 107.651C316.479 107.651 313.654 110.656 314.675 113.902C315.697 117.147 315.757 119.792 314.675 121.535C314.675 121.535 314.375 118.109 313.173 115.525C312.151 113.421 311.189 111.798 311.911 109.334C312.452 107.651 313.714 106.028 316.479 107.651Z" fill="#39393B"/>
<path d="M311.911 122.438C309.747 122.979 308.064 122.678 306.802 121.897C306.622 121.777 306.442 121.656 306.261 121.476C303.617 119.312 303.436 114.744 305.059 112.52C305.6 111.739 306.261 111.198 306.983 110.837C307.163 110.717 307.403 110.657 307.644 110.597C310.348 109.695 313.294 111.318 313.294 111.318C316.299 119.733 311.911 122.438 311.911 122.438Z" fill="#FF9F1C"/>
<path d="M319.605 126.103C313.234 124.781 310.529 120.213 310.409 119.973C310.289 119.792 310.349 119.552 310.529 119.492C310.709 119.372 310.95 119.432 311.01 119.612C311.07 119.672 314.376 125.262 322.069 125.683C322.25 125.683 322.43 125.863 322.43 126.043C322.43 126.224 322.25 126.404 322.069 126.404C321.168 126.404 320.386 126.284 319.605 126.103Z" fill="white"/>
<path d="M324.172 126.343C324.052 127.004 323.391 127.365 322.79 127.245C322.129 127.125 321.768 126.464 321.888 125.862C322.008 125.201 322.67 124.841 323.271 124.961C323.872 125.081 324.292 125.682 324.172 126.343Z" fill="#243434"/>
<path d="M306.802 121.835C306.621 121.714 306.441 121.594 306.261 121.414C308.304 116.846 307.583 112.879 306.982 110.775C307.162 110.655 307.403 110.595 307.643 110.535C308.244 112.759 308.966 117.026 306.802 121.835Z" fill="#217C58"/>
<path d="M332.707 105.126C332.166 104.104 331.565 103.443 331.265 103.143C331.024 102.421 330.724 101.76 330.363 101.099C329.041 98.9952 326.937 97.6729 324.112 97.2522C321.047 96.7713 318.402 97.3724 316.238 99.0553C315.577 99.5963 314.976 100.197 314.435 100.798C313.714 101.7 313.053 102.722 312.572 103.744C310.829 107.23 310.408 110.836 310.408 110.896L309.566 110.776C309.627 110.415 310.528 102.361 315.757 98.3341C318.101 96.5309 320.986 95.8697 324.292 96.3506C327.358 96.8314 329.702 98.274 331.144 100.618C331.926 102.001 332.407 103.563 332.707 105.126Z" fill="white"/>
<path d="M300.972 197.627L298.087 192.098C297.366 190.715 298.388 189.092 299.951 189.092L345.631 189.573L344.309 196.666L300.972 197.627Z" fill="#39393B"/>
<path d="M343.467 196.065H302.595C301.633 196.065 300.912 195.283 301.032 194.261L303.797 169.017C303.917 168.055 304.819 167.214 305.781 167.214H346.652C347.614 167.214 348.335 167.995 348.215 169.017L345.45 194.261C345.33 195.283 344.489 196.065 343.467 196.065Z" fill="#39393B"/>
<path d="M301.994 197.146C301.934 197.146 301.934 197.146 301.994 197.146C301.754 197.146 301.634 196.966 301.634 196.786L305 169.738C305 169.558 305.18 169.438 305.36 169.438C305.541 169.438 305.661 169.618 305.661 169.798L302.295 196.846C302.295 197.026 302.175 197.146 301.994 197.146Z" fill="#564C54"/>
<path d="M321.889 182.121C321.709 184.165 323.211 185.908 325.255 186.028C327.239 186.148 328.982 184.586 329.162 182.602C329.342 180.559 327.84 178.816 325.796 178.695C323.752 178.515 322.009 180.078 321.889 182.121Z" fill="#585859"/>
<path d="M343.647 198.288H302.174C301.273 198.288 300.552 197.507 300.672 196.605L301.093 193.72H345.571L345.15 197.026C345.09 197.747 344.429 198.288 343.647 198.288Z" fill="#39393B"/>
<path d="M313.655 190.114L313.354 191.556H314.737L314.556 193.3H312.994L312.633 194.862H310.83L311.19 193.3H310.048L309.688 194.862H307.885L308.245 193.3H306.863L307.043 191.556H308.606L308.906 190.114H307.524L307.704 188.371H309.267L309.628 186.808H311.431L311.07 188.371H312.212L312.573 186.808H314.376L314.015 188.371H315.398L315.217 190.114H313.655ZM311.852 190.114H310.71L310.409 191.556H311.551L311.852 190.114Z" fill="#EBB12B"/>
<path d="M354.948 150.206C354.948 156.457 359.997 161.506 366.248 161.506C372.499 161.506 377.547 156.457 377.547 150.206C377.547 143.955 372.499 138.906 366.248 138.906C359.997 138.906 354.948 143.955 354.948 150.206Z" fill="#BB2828"/>
<path d="M360.477 159.402L354.407 160.725L356.991 155.496L360.477 159.402Z" fill="#BB2828"/>
<path d="M367.209 147.741C367.209 147.2 366.668 146.96 366.067 146.96C365.346 146.96 364.625 147.381 364.324 148.102L361.319 146.599C362.16 144.976 363.903 143.834 366.608 143.834C369.313 143.834 371.296 144.976 371.296 147.08C371.296 149.665 368.592 150.146 368.592 151.468H365.106C364.985 149.424 367.209 148.823 367.209 147.741ZM364.504 154.173C364.504 153.031 365.406 152.189 366.728 152.189C368.051 152.189 368.952 153.031 368.952 154.173C368.952 155.315 368.051 156.216 366.728 156.216C365.406 156.216 364.504 155.315 364.504 154.173Z" fill="white"/>
<path d="M242.85 214.278C242.85 214.278 238.222 207.065 227.043 200.453C219.169 195.825 214.541 182.662 214.541 182.662C214.541 182.662 229.687 183.323 236.239 192.519C242.85 201.776 242.85 214.278 242.85 214.278Z" fill="#FF9F1C"/>
<path d="M242.85 214.458C242.73 214.458 242.67 214.398 242.61 214.277C240.506 206.223 235.818 200.393 232.272 196.967C228.425 193.18 225.059 191.317 225.059 191.317C224.939 191.257 224.939 191.137 224.999 191.017C225.059 190.896 225.179 190.896 225.299 190.956C225.36 190.956 228.726 192.88 232.632 196.667C236.179 200.153 240.927 206.103 243.091 214.217C243.151 214.338 243.031 214.458 242.85 214.458C242.91 214.458 242.91 214.458 242.85 214.458Z" fill="#39393B"/>
<path d="M240.867 214.097C240.867 214.097 239.544 211.452 233.654 212.114C227.704 212.775 224.458 216.081 213.879 210.13C213.879 210.13 221.753 203.519 230.348 204.841C238.883 206.223 239.544 209.529 240.867 214.097Z" fill="#FF9F1C"/>
<path d="M240.867 214.338C240.807 214.338 240.747 214.277 240.686 214.217C240.686 214.157 237.982 210.01 233.774 209.229C226.321 207.846 221.272 210.25 221.212 210.25C221.092 210.31 220.972 210.25 220.912 210.13C220.852 210.01 220.912 209.89 221.032 209.83C221.092 209.83 226.261 207.365 233.895 208.748C238.342 209.529 241.047 213.736 241.107 213.917C241.167 214.037 241.167 214.157 241.047 214.217C240.927 214.338 240.927 214.338 240.867 214.338Z" fill="#39393B"/>
<path d="M243.451 213.496C243.451 213.496 242.91 210.611 248.079 207.606C253.248 204.601 257.816 205.262 262.745 194.203C262.745 194.203 252.467 193.662 246.396 199.792C240.326 205.983 241.708 208.989 243.451 213.496Z" fill="#FF9F1C"/>
<path d="M243.391 213.737C243.271 213.737 243.151 213.677 243.151 213.556C243.151 213.376 242.79 208.387 245.856 205.081C251.145 199.432 256.735 198.29 256.795 198.29C256.915 198.29 257.035 198.35 257.035 198.47C257.035 198.59 256.975 198.71 256.855 198.71C256.795 198.71 251.325 199.852 246.156 205.382C243.211 208.568 243.572 213.496 243.572 213.496C243.632 213.616 243.572 213.737 243.391 213.737Z" fill="#39393B"/>
<path d="M249.462 217.043H235.036C234.195 217.043 233.474 216.321 233.474 215.48V214.819C233.474 213.977 234.195 213.256 235.036 213.256H249.462C250.303 213.256 251.024 213.977 251.024 214.819V215.48C251.024 216.381 250.363 217.043 249.462 217.043Z" fill="#BB2828"/>
<path d="M242.37 249.319C230.589 249.319 223.136 247.456 224.338 239.161C225.12 233.872 229.207 228.763 232.092 225.698C232.512 225.277 232.873 224.856 233.234 224.556C234.316 223.474 235.037 222.873 235.037 222.873L235.097 222.692L235.277 221.55L235.518 220.228L236.059 217.163L236.239 216.081L242.37 215.84L248.801 216.081L248.921 217.163L249.162 218.846L249.522 221.55L249.703 222.692V222.873C249.703 222.873 250.424 223.474 251.506 224.556C251.866 224.916 252.227 225.277 252.648 225.698C255.533 228.763 259.62 233.932 260.401 239.161C261.604 247.456 254.09 249.319 242.37 249.319Z" fill="#BB2828"/>
<path d="M249.702 222.632H235.037L235.217 221.49H249.522L249.702 222.632Z" fill="#BB2828"/>
<path d="M252.647 225.637H232.091C232.512 225.216 232.873 224.796 233.233 224.495H251.566C251.866 224.856 252.227 225.216 252.647 225.637Z" fill="#BB2828"/>
<path d="M249.162 218.725L235.458 220.108L235.998 217.042H248.921L249.162 218.725Z" fill="#BB2828"/>
<path d="M121.799 139.747H116.269C115.728 139.747 115.247 139.326 115.247 138.725V134.878C115.247 134.337 115.668 133.856 116.269 133.856H121.799C122.34 133.856 122.82 134.277 122.82 134.878V138.725C122.82 139.326 122.34 139.747 121.799 139.747Z" fill="white"/>
<path d="M124.984 133.917V139.747L122.64 137.763V135.9L124.984 133.917Z" fill="white"/>
<path d="M135.142 141.731C137.831 141.731 140.011 139.552 140.011 136.863C140.011 134.174 137.831 131.994 135.142 131.994C132.453 131.994 130.273 134.174 130.273 136.863C130.273 139.552 132.453 141.731 135.142 141.731Z" fill="#BB2828"/>
<path d="M132.857 139.627C132.977 139.627 133.098 139.567 133.218 139.507L137.786 134.939C137.966 134.759 137.966 134.398 137.786 134.218C137.606 134.037 137.245 134.037 137.065 134.218L132.497 138.786C132.316 138.966 132.316 139.327 132.497 139.507C132.557 139.627 132.737 139.627 132.857 139.627Z" fill="white"/>
<path d="M137.425 139.627C137.545 139.627 137.666 139.567 137.786 139.507C137.966 139.327 137.966 138.966 137.786 138.786L133.218 134.218C133.038 134.037 132.677 134.037 132.497 134.218C132.316 134.398 132.316 134.759 132.497 134.939L137.065 139.507C137.185 139.627 137.305 139.627 137.425 139.627Z" fill="white"/>
<path d="M107.673 139.328H108.154C108.755 139.328 109.235 138.847 109.235 138.246V133.498C109.235 132.897 108.755 132.416 108.154 132.416H107.673C107.072 132.416 106.591 132.897 106.591 133.498V138.246C106.591 138.847 107.072 139.328 107.673 139.328Z" fill="white"/>
<path d="M107.854 140.951H107.974C108.094 140.951 108.214 140.831 108.214 140.71V137.885C108.214 137.765 108.094 137.645 107.974 137.645H107.854C107.733 137.645 107.613 137.765 107.613 137.885V140.71C107.613 140.891 107.733 140.951 107.854 140.951Z" fill="white"/>
<path d="M105.69 141.191H110.078C110.318 141.191 110.558 140.95 110.558 140.71V140.53C110.558 140.289 110.318 140.049 110.078 140.049H105.69C105.449 140.049 105.209 140.289 105.209 140.53V140.71C105.209 141.011 105.449 141.191 105.69 141.191Z" fill="white"/>
<path d="M86.8168 119.492C86.5163 116.968 84.4727 114.924 81.8881 114.623C79.9047 114.383 77.5605 114.323 75.7574 114.744C75.2765 114.864 74.7957 114.984 74.4351 115.224L74.5553 115.705C75.9377 114.984 78.4621 114.744 81.8881 115.104C82.97 115.224 83.9918 115.705 84.7732 116.366C85.5546 117.028 86.0955 117.989 86.336 119.011C86.3961 119.191 86.3961 119.372 86.4562 119.552C86.4562 119.672 86.4562 119.792 86.4562 119.913L86.937 119.792C86.8168 119.612 86.8168 119.552 86.8168 119.492ZM76.5388 119.612C76.1781 119.853 75.8776 120.093 75.517 120.213L75.6372 120.694C75.9978 120.514 76.4185 120.273 76.8393 119.973C78.7627 118.59 80.085 119.732 81.4073 120.995C81.4674 121.055 81.5275 121.115 81.5876 121.175L82.1286 121.055C82.0084 120.934 81.8881 120.814 81.7078 120.694C80.3254 119.432 78.7627 117.989 76.5388 119.612Z" fill="#BB2828"/>
</svg>
