<svg width="128" height="128" viewBox="0 0 128 128" fill="none" xmlns="http://www.w3.org/2000/svg">
<g filter="url(#filter0_d_234_2217)">
<circle cx="64" cy="48" r="24" fill="white"/>
<circle cx="64" cy="48" r="23.5" stroke="white"/>
</g>
<path d="M52.3886 43.9691H57.3662V59.9999H52.3886V43.9691ZM54.8867 36C56.478 36 57.7733 37.2973 57.7733 38.8911C57.7733 40.4849 56.478 41.7822 54.8867 41.7822C53.286 41.7822 52 40.4849 52 38.8911C52 37.2973 53.286 36 54.8867 36Z" fill="#007BB6"/>
<path d="M60.4927 43.9691H65.2575V46.1653H65.3223C65.9884 44.9051 67.6076 43.58 70.0316 43.58C75.0648 43.58 75.9992 46.8973 75.9992 51.2155V60H71.0308V52.207C71.0308 50.3444 71.0031 47.9537 68.4495 47.9537C65.8589 47.9537 65.4703 49.983 65.4703 52.068V60H60.5019V43.9691H60.4927Z" fill="#007BB6"/>
<defs>
<filter id="filter0_d_234_2217" x="0" y="0" width="128" height="128" filterUnits="userSpaceOnUse" color-interpolation-filters="sRGB">
<feFlood flood-opacity="0" result="BackgroundImageFix"/>
<feColorMatrix in="SourceAlpha" type="matrix" values="0 0 0 0 0 0 0 0 0 0 0 0 0 0 0 0 0 0 127 0" result="hardAlpha"/>
<feOffset dy="16"/>
<feGaussianBlur stdDeviation="20"/>
<feComposite in2="hardAlpha" operator="out"/>
<feColorMatrix type="matrix" values="0 0 0 0 0.117647 0 0 0 0 0.160784 0 0 0 0 0.34902 0 0 0 0.2 0"/>
<feBlend mode="normal" in2="BackgroundImageFix" result="effect1_dropShadow_234_2217"/>
<feBlend mode="normal" in="SourceGraphic" in2="effect1_dropShadow_234_2217" result="shape"/>
</filter>
</defs>
</svg>
