<svg width="30" height="30" viewBox="0 0 30 30" fill="none" xmlns="http://www.w3.org/2000/svg">
<path d="M29.9857 23.6758C30.0493 24.1631 29.9009 24.5869 29.5411 24.947L25.3171 29.1417C25.1266 29.3536 24.8779 29.5338 24.5709 29.682C24.2639 29.8304 23.9622 29.9257 23.6659 29.968C23.6447 29.968 23.581 29.9735 23.4751 29.9841C23.3694 29.9946 23.2318 30 23.0624 30C22.66 30 22.0089 29.9311 21.1091 29.7934C20.2092 29.6556 19.1083 29.3166 17.8063 28.7764C16.504 28.2362 15.0273 27.4257 13.3758 26.3453C11.7244 25.2649 9.96705 23.7818 8.10386 21.8961C6.62178 20.4343 5.39377 19.036 4.41983 17.7013C3.44589 16.3665 2.66251 15.1324 2.06967 13.9989C1.47679 12.8654 1.03216 11.8379 0.735748 10.9163C0.439332 9.99469 0.238192 9.2002 0.132329 8.53282C0.0264658 7.86545 -0.0158795 7.34109 0.00529315 6.95973C0.0264658 6.57838 0.0370521 6.36651 0.0370521 6.32414C0.0793973 6.02753 0.174674 5.72563 0.322882 5.41842C0.47109 5.11122 0.651057 4.86228 0.862783 4.6716L5.08672 0.444914C5.38313 0.148305 5.7219 0 6.103 0C6.37825 0 6.62173 0.079449 6.83346 0.238347C7.04518 0.397245 7.22515 0.593219 7.37336 0.82627L10.7716 7.27753C10.9621 7.61651 11.015 7.98727 10.9304 8.38982C10.8457 8.79236 10.6657 9.13134 10.3905 9.40676L8.83427 10.964C8.79192 11.0063 8.75487 11.0752 8.72311 11.1705C8.69135 11.2659 8.67547 11.3453 8.67547 11.4089C8.76016 11.8538 8.95072 12.3623 9.24713 12.9343C9.50121 13.4428 9.8929 14.0625 10.4222 14.7934C10.9515 15.5243 11.7032 16.3664 12.6771 17.3198C13.6299 18.2945 14.4768 19.0518 15.2178 19.5922C15.9587 20.1322 16.5782 20.5296 17.0758 20.7839C17.5733 21.0381 17.9544 21.1917 18.219 21.2445L18.6159 21.324C18.6583 21.324 18.7272 21.3081 18.8224 21.2763C18.9177 21.2445 18.9865 21.2075 19.0289 21.1651L20.8391 19.3218C21.2204 18.9829 21.6648 18.8134 22.173 18.8134C22.533 18.8134 22.8187 18.8769 23.0304 19.0041H23.0622L29.1916 22.627C29.6363 22.9026 29.901 23.2521 29.9857 23.6758Z" fill="#FF9F1C"/>
</svg>
