<svg width="30" height="30" viewBox="0 0 30 30" fill="none" xmlns="http://www.w3.org/2000/svg">
<path d="M21.5025 0C26.5845 0 30 3.567 30 8.8755V21.126C30 26.4345 26.5845 30 21.501 30H8.499C3.4155 30 0 26.4345 0 21.126V8.8755C0 3.567 3.4155 0 8.499 0H21.5025ZM10.2615 11.0985C8.1105 11.0985 6.36 12.849 6.36 15C6.36 17.1525 8.1105 18.903 10.2615 18.903C12.0195 18.903 13.4925 17.727 13.9785 16.125H17.1465V17.778C17.1465 18.399 17.6505 18.903 18.2715 18.903C18.8925 18.903 19.3965 18.399 19.3965 17.778V16.125H21.3915V17.778C21.3915 18.399 21.8955 18.903 22.5165 18.903C23.1375 18.903 23.6415 18.399 23.6415 17.778V15C23.6415 14.379 23.1375 13.875 22.5165 13.875H13.9785C13.4925 12.2745 12.0195 11.0985 10.2615 11.0985ZM10.2617 13.3484C11.1722 13.3484 11.9146 14.0894 11.9146 15.0014C11.9146 15.9118 11.1722 16.6529 10.2617 16.6529C9.35115 16.6529 8.60865 15.9118 8.60865 15.0014C8.60865 14.0894 9.35115 13.3484 10.2617 13.3484Z" fill="#FF9F1C"/>
</svg>
