<svg width="1440" height="1020" viewBox="0 0 1440 1020" fill="none" xmlns="http://www.w3.org/2000/svg">
<path d="M1562.53 170.48C1555.62 203.571 1504.59 229.3 1461.28 251.957C1417.96 274.615 1382.69 294.109 1341.2 315.632C1299.79 337.449 1252.25 361.587 1220.25 348.996C1188.33 336.698 1171.54 287.47 1133.13 256.805C1094.31 225.938 1033.86 213.636 1018.42 184.822C1002.99 156.008 1033.05 111.178 1055.82 69.6205C1078.59 28.0633 1094.14 -9.92813 1120.67 -44.3323C1147.19 -78.7365 1184.61 -109.846 1226.84 -119.607C1269 -129.661 1315.89 -118.66 1362.88 -108.627C1409.53 -98.5036 1456.35 -89.0567 1478.16 -61.6871C1500.06 -34.0248 1496.61 11.6516 1514.19 54.679C1531.35 97.5052 1569.2 137.774 1562.53 170.48Z" fill="#FF9F1C"/>
<path d="M759.458 909.365C749.262 970.676 663.618 1016.17 590.954 1056.3C518.291 1096.44 459.168 1131.06 389.561 1169.17C320.105 1207.83 240.316 1250.52 185.23 1225.54C130.297 1201.1 99.3561 1108.59 32.4888 1049.63C-35.0898 990.271 -138.595 964.46 -166.256 910.045C-193.917 855.631 -144.871 773.557 -108.094 697.231C-71.3178 620.905 -46.6596 550.876 -3.14575 488.055C40.3681 425.234 102.586 369.071 174.031 352.908C245.324 336.196 325.693 358.935 406.167 379.872C486.082 400.963 566.253 420.802 604.702 472.832C643.302 525.41 639.62 610.334 671.601 691.33C702.871 771.93 769.245 848.756 759.458 909.365Z" fill="#FF9F1C"/>
<circle cx="384" cy="421" r="8" fill="white" fill-opacity="0.48"/>
<circle cx="357" cy="949" r="8" fill="white" fill-opacity="0.48"/>
<circle cx="450" cy="607" r="4" fill="white" fill-opacity="0.48"/>
<circle cx="44" cy="967" r="4" fill="white" fill-opacity="0.48"/>
<circle cx="80.5" cy="679.5" r="10.5" fill="white" fill-opacity="0.48"/>
<circle cx="695.5" cy="883.5" r="10.5" fill="white" fill-opacity="0.48"/>
<circle cx="500.5" cy="874.5" r="5.5" fill="white" fill-opacity="0.48"/>
<circle cx="126.5" cy="402.5" r="5.5" fill="white" fill-opacity="0.48"/>
<path d="M240.923 354C243.108 354 244.964 356.819 246.201 361.374C246.631 362.956 246.998 364.762 247.288 366.738C249.144 366.003 250.892 365.419 252.474 364.998C257.033 363.791 260.401 363.992 261.496 365.883C262.586 367.774 261.074 370.791 257.748 374.136C256.596 375.296 255.216 376.518 253.646 377.759C254.272 378.254 254.871 378.749 255.436 379.236C254.922 379.596 254.5 380.072 254.206 380.628C253.557 380.068 252.861 379.499 252.126 378.923C250.83 379.886 249.434 380.853 247.949 381.808C247.864 383.575 247.725 385.269 247.539 386.874C249.485 387.663 251.31 388.281 252.949 388.714C256.666 389.697 259.268 389.77 259.887 388.703C260.216 388.134 259.984 387.241 259.291 386.12C259.852 385.876 260.347 385.505 260.742 385.045C261.859 386.874 262.172 388.463 261.499 389.627C260.405 391.518 257.041 391.719 252.478 390.513C250.896 390.095 249.148 389.507 247.288 388.772C246.998 390.748 246.631 392.554 246.201 394.136C244.964 398.691 243.108 401.51 240.923 401.51C238.738 401.51 236.882 398.691 235.644 394.136C235.215 392.554 234.848 390.748 234.558 388.772C233.885 389.039 233.228 389.287 232.59 389.511C232.539 388.865 232.334 388.266 232.013 387.744C232.756 387.481 233.521 387.191 234.31 386.87C234.125 385.265 233.982 383.567 233.9 381.8C232.415 380.845 231.019 379.878 229.724 378.915C228.065 380.207 226.615 381.479 225.42 382.682C222.705 385.42 221.34 387.639 221.959 388.711C222.303 389.306 223.262 389.546 224.685 389.472C224.674 389.588 224.67 389.708 224.67 389.828C224.67 390.335 224.766 390.818 224.937 391.263C222.667 391.359 221.046 390.841 220.35 389.635C219.26 387.744 220.772 384.727 224.097 381.382C225.254 380.222 226.63 379 228.2 377.759C226.634 376.518 225.254 375.296 224.097 374.136C220.772 370.791 219.26 367.774 220.35 365.883C221.445 363.992 224.809 363.791 229.372 364.998C230.954 365.415 232.702 365.999 234.562 366.738C234.666 366.023 234.782 365.33 234.906 364.665C235.443 364.936 236.047 365.087 236.689 365.087L236.723 365.087C236.58 365.849 236.453 366.649 236.337 367.477C237.818 368.115 239.357 368.842 240.923 369.65C242.493 368.842 244.028 368.115 245.509 367.477C245.219 365.392 244.844 363.501 244.399 361.866C243.394 358.161 242.157 355.868 240.923 355.868C240.239 355.868 239.55 356.575 238.904 357.836C238.406 357.5 237.829 357.272 237.203 357.19C238.259 355.156 239.523 354 240.923 354ZM257.427 379.809C258.847 379.809 259.999 380.961 259.999 382.38C259.999 383.799 258.847 384.952 257.427 384.952C256.008 384.952 254.856 383.799 254.856 382.38C254.856 380.961 256.004 379.809 257.427 379.809ZM228.641 387.175C230.06 387.175 231.213 388.328 231.213 389.747C231.213 391.166 230.06 392.318 228.641 392.318C227.222 392.318 226.07 391.166 226.07 389.747C226.07 388.328 227.222 387.175 228.641 387.175ZM236.685 358.548C238.104 358.548 239.256 359.7 239.256 361.119C239.256 362.538 238.104 363.691 236.685 363.691C235.265 363.691 234.113 362.538 234.113 361.119C234.113 359.7 235.265 358.548 236.685 358.548ZM240.923 374.341C242.81 374.341 244.341 375.872 244.341 377.759C244.341 379.646 242.81 381.178 240.923 381.178C239.036 381.178 237.505 379.646 237.505 377.759C237.505 375.872 239.036 374.341 240.923 374.341ZM229.72 376.591C231.016 375.628 232.412 374.662 233.897 373.706C233.982 371.943 234.121 370.245 234.306 368.641C232.357 367.852 230.536 367.233 228.896 366.796C225.18 365.814 222.578 365.74 221.959 366.808C221.34 367.879 222.705 370.098 225.416 372.825C226.611 374.027 228.061 375.3 229.72 376.591ZM245.509 388.045C244.028 387.407 242.489 386.676 240.923 385.868C239.353 386.676 237.818 387.403 236.337 388.045C236.627 390.13 237.002 392.021 237.447 393.656C238.452 397.361 239.689 399.654 240.927 399.654C242.16 399.654 243.402 397.361 244.403 393.656C244.844 392.021 245.219 390.126 245.509 388.045ZM238.916 384.801C238.406 384.519 237.891 384.229 237.377 383.931C237.361 383.923 237.342 383.912 237.327 383.9C236.82 383.606 236.321 383.312 235.83 383.014C235.9 384.082 235.989 385.118 236.097 386.116C237.017 385.714 237.961 385.273 238.916 384.801ZM242.93 370.717C243.444 370.999 243.962 371.293 244.485 371.591C245.003 371.889 245.513 372.191 246.016 372.496C245.946 371.433 245.857 370.396 245.749 369.399C244.829 369.805 243.889 370.245 242.93 370.717ZM247.949 373.706C249.434 374.662 250.83 375.628 252.126 376.591C253.785 375.3 255.235 374.027 256.43 372.825C259.137 370.098 260.502 367.879 259.887 366.808C259.268 365.74 256.666 365.814 252.949 366.796C251.31 367.229 249.485 367.848 247.539 368.641C247.725 370.245 247.864 371.939 247.949 373.706ZM250.579 377.759C249.767 377.167 248.916 376.572 248.027 375.98C248.038 376.568 248.046 377.16 248.046 377.759C248.046 378.358 248.038 378.954 248.027 379.542C248.916 378.95 249.767 378.355 250.579 377.759ZM246.128 374.751C245.297 374.228 244.434 373.71 243.553 373.204C242.671 372.693 241.793 372.21 240.923 371.746C240.053 372.206 239.175 372.693 238.293 373.204L238.29 373.204C237.408 373.714 236.549 374.228 235.718 374.751C235.683 375.737 235.664 376.738 235.664 377.759C235.664 378.78 235.683 379.785 235.718 380.768C236.542 381.282 237.388 381.792 238.259 382.295C238.262 382.295 238.282 382.307 238.282 382.307L238.293 382.314C239.179 382.825 240.057 383.312 240.927 383.772C241.789 383.316 242.655 382.837 243.529 382.33C243.545 382.322 243.56 382.311 243.576 382.303C244.45 381.796 245.304 381.286 246.128 380.768C246.163 379.785 246.182 378.78 246.182 377.759C246.182 376.738 246.163 375.737 246.128 374.751ZM238.912 370.717C237.957 370.245 237.013 369.805 236.097 369.399C235.989 370.4 235.9 371.433 235.83 372.5C236.333 372.194 236.843 371.893 237.361 371.595C237.88 371.293 238.398 370.999 238.912 370.717ZM231.267 377.759C232.079 378.355 232.93 378.95 233.819 379.542C233.808 378.954 233.8 378.358 233.8 377.759C233.8 377.16 233.808 376.564 233.819 375.976C232.93 376.568 232.075 377.164 231.267 377.759ZM242.926 384.801C243.885 385.273 244.825 385.714 245.745 386.12C245.853 385.118 245.942 384.086 246.012 383.018C245.509 383.324 244.999 383.625 244.477 383.927L244.45 383.942C243.943 384.236 243.433 384.523 242.926 384.801Z" fill="white" fill-opacity="0.47"/>
<path d="M218.923 667C221.108 667 222.964 669.819 224.201 674.374C224.631 675.956 224.998 677.762 225.288 679.738C227.144 679.003 228.892 678.419 230.474 677.998C235.033 676.791 238.401 676.992 239.496 678.883C240.586 680.774 239.074 683.791 235.748 687.136C234.596 688.296 233.216 689.518 231.646 690.759C232.272 691.254 232.871 691.749 233.436 692.236C232.922 692.596 232.5 693.072 232.206 693.628C231.557 693.068 230.861 692.499 230.126 691.923C228.83 692.886 227.434 693.853 225.949 694.808C225.864 696.575 225.725 698.269 225.539 699.874C227.485 700.663 229.31 701.281 230.949 701.714C234.666 702.697 237.268 702.77 237.887 701.703C238.216 701.134 237.984 700.241 237.291 699.12C237.852 698.876 238.347 698.505 238.742 698.045C239.859 699.874 240.172 701.463 239.499 702.627C238.405 704.518 235.041 704.719 230.478 703.513C228.896 703.095 227.148 702.507 225.288 701.772C224.998 703.748 224.631 705.554 224.201 707.136C222.964 711.691 221.108 714.51 218.923 714.51C216.738 714.51 214.882 711.691 213.644 707.136C213.215 705.554 212.848 703.748 212.558 701.772C211.885 702.039 211.228 702.287 210.59 702.511C210.539 701.865 210.334 701.266 210.013 700.744C210.756 700.481 211.521 700.191 212.31 699.87C212.125 698.265 211.982 696.567 211.9 694.8C210.415 693.845 209.019 692.878 207.724 691.915C206.065 693.207 204.615 694.479 203.42 695.682C200.705 698.42 199.34 700.639 199.959 701.711C200.303 702.306 201.262 702.546 202.685 702.472C202.674 702.588 202.67 702.708 202.67 702.828C202.67 703.335 202.766 703.818 202.937 704.263C200.667 704.359 199.046 703.841 198.35 702.635C197.26 700.744 198.772 697.727 202.097 694.382C203.254 693.222 204.63 692 206.2 690.759C204.634 689.518 203.254 688.296 202.097 687.136C198.772 683.791 197.26 680.774 198.35 678.883C199.445 676.992 202.809 676.791 207.372 677.998C208.954 678.415 210.702 678.999 212.562 679.738C212.666 679.023 212.782 678.33 212.906 677.665C213.443 677.936 214.047 678.087 214.689 678.087L214.723 678.087C214.58 678.849 214.453 679.649 214.337 680.477C215.818 681.115 217.357 681.842 218.923 682.65C220.493 681.842 222.028 681.115 223.509 680.477C223.219 678.392 222.844 676.501 222.399 674.866C221.394 671.161 220.157 668.868 218.923 668.868C218.239 668.868 217.55 669.575 216.904 670.836C216.406 670.5 215.829 670.272 215.203 670.19C216.259 668.156 217.523 667 218.923 667ZM235.427 692.809C236.847 692.809 237.999 693.961 237.999 695.38C237.999 696.799 236.847 697.952 235.427 697.952C234.008 697.952 232.856 696.799 232.856 695.38C232.856 693.961 234.004 692.809 235.427 692.809ZM206.641 700.175C208.06 700.175 209.213 701.328 209.213 702.747C209.213 704.166 208.06 705.318 206.641 705.318C205.222 705.318 204.07 704.166 204.07 702.747C204.07 701.328 205.222 700.175 206.641 700.175ZM214.685 671.548C216.104 671.548 217.256 672.7 217.256 674.119C217.256 675.538 216.104 676.691 214.685 676.691C213.265 676.691 212.113 675.538 212.113 674.119C212.113 672.7 213.265 671.548 214.685 671.548ZM218.923 687.341C220.81 687.341 222.341 688.872 222.341 690.759C222.341 692.646 220.81 694.178 218.923 694.178C217.036 694.178 215.505 692.646 215.505 690.759C215.505 688.872 217.036 687.341 218.923 687.341ZM207.72 689.591C209.016 688.628 210.412 687.662 211.897 686.706C211.982 684.943 212.121 683.245 212.306 681.641C210.357 680.852 208.536 680.233 206.896 679.796C203.18 678.814 200.578 678.74 199.959 679.808C199.34 680.879 200.705 683.098 203.416 685.825C204.611 687.027 206.061 688.3 207.72 689.591ZM223.509 701.045C222.028 700.407 220.489 699.676 218.923 698.868C217.353 699.676 215.818 700.403 214.337 701.045C214.627 703.13 215.002 705.021 215.447 706.656C216.452 710.361 217.689 712.654 218.927 712.654C220.16 712.654 221.402 710.361 222.403 706.656C222.844 705.021 223.219 703.126 223.509 701.045ZM216.916 697.801C216.406 697.519 215.891 697.229 215.377 696.931C215.361 696.923 215.342 696.912 215.327 696.9C214.82 696.606 214.321 696.312 213.83 696.014C213.9 697.082 213.989 698.118 214.097 699.116C215.017 698.714 215.961 698.273 216.916 697.801ZM220.93 683.717C221.444 683.999 221.962 684.293 222.485 684.591C223.003 684.889 223.513 685.191 224.016 685.496C223.946 684.433 223.857 683.396 223.749 682.399C222.829 682.805 221.889 683.245 220.93 683.717ZM225.949 686.706C227.434 687.662 228.83 688.628 230.126 689.591C231.785 688.3 233.235 687.027 234.43 685.825C237.137 683.098 238.502 680.879 237.887 679.808C237.268 678.74 234.666 678.814 230.949 679.796C229.31 680.229 227.485 680.848 225.539 681.641C225.725 683.245 225.864 684.939 225.949 686.706ZM228.579 690.759C227.767 690.167 226.916 689.572 226.027 688.98C226.038 689.568 226.046 690.16 226.046 690.759C226.046 691.358 226.038 691.954 226.027 692.542C226.916 691.95 227.767 691.355 228.579 690.759ZM224.128 687.751C223.297 687.228 222.434 686.71 221.553 686.204C220.671 685.693 219.793 685.21 218.923 684.746C218.053 685.206 217.175 685.693 216.293 686.204L216.29 686.204C215.408 686.714 214.549 687.228 213.718 687.751C213.683 688.737 213.664 689.738 213.664 690.759C213.664 691.78 213.683 692.785 213.718 693.768C214.542 694.282 215.388 694.792 216.259 695.295C216.262 695.295 216.282 695.307 216.282 695.307L216.293 695.314C217.179 695.825 218.057 696.312 218.927 696.772C219.789 696.316 220.655 695.837 221.529 695.33C221.545 695.322 221.56 695.311 221.576 695.303C222.45 694.796 223.304 694.286 224.128 693.768C224.163 692.785 224.182 691.78 224.182 690.759C224.182 689.738 224.163 688.737 224.128 687.751ZM216.912 683.717C215.957 683.245 215.013 682.805 214.097 682.399C213.989 683.4 213.9 684.433 213.83 685.5C214.333 685.194 214.843 684.893 215.361 684.595C215.88 684.293 216.398 683.999 216.912 683.717ZM209.267 690.759C210.079 691.355 210.93 691.95 211.819 692.542C211.808 691.954 211.8 691.358 211.8 690.759C211.8 690.16 211.808 689.564 211.819 688.976C210.93 689.568 210.075 690.164 209.267 690.759ZM220.926 697.801C221.885 698.273 222.825 698.714 223.745 699.12C223.853 698.118 223.942 697.086 224.012 696.018C223.509 696.324 222.999 696.625 222.477 696.927L222.45 696.942C221.943 697.236 221.433 697.523 220.926 697.801Z" fill="white" fill-opacity="0.47"/>
<path d="M94.2049 526.904L102.701 536.893C103.942 538.362 105.624 540.729 106.606 543.096C107.194 544.515 107.542 545.95 107.419 547.241C107.287 548.676 106.614 549.898 105.145 550.694C104.414 551.093 103.49 551.375 102.341 551.51C102.302 551.514 102.268 551.518 102.233 551.518L88.2342 551.518L74.2355 551.518C74.1775 551.518 74.1233 551.514 74.0653 551.503C72.9323 551.363 72.0235 551.085 71.3043 550.694C69.8116 549.886 69.1426 548.657 69.0188 547.206C68.9106 545.911 69.2779 544.461 69.8889 543.026C70.9408 540.574 72.7312 538.107 73.9919 536.615L82.1938 526.901L82.1938 515.079C82.1668 514.948 82.132 514.816 82.0972 514.688C82.0508 514.522 82.0005 514.36 81.9425 514.194C81.6486 513.347 81.1961 512.504 80.5813 511.695C80.2565 511.266 80.3454 510.655 80.7708 510.334C80.9487 510.203 81.1536 510.137 81.3586 510.137L84.603 510.137C83.8296 509.657 83.3153 508.803 83.3153 507.825C83.3153 506.324 84.5334 505.106 86.0338 505.106C87.5342 505.106 88.7523 506.324 88.7523 507.825C88.7523 508.803 88.238 509.657 87.4646 510.137L95.1059 510.137C95.6434 510.137 96.0804 510.574 96.0804 511.111C96.0804 511.374 95.976 511.614 95.8058 511.788C95.4152 512.233 95.0943 512.736 94.8352 513.289C94.5722 513.842 94.3673 514.449 94.2049 515.106L94.2049 526.904ZM90.5621 532.848L96.9582 532.848L92.5536 527.956C92.368 527.778 92.2559 527.531 92.2559 527.256L92.2559 514.998C92.2559 514.924 92.2636 514.847 92.2829 514.774C92.4763 513.958 92.7354 513.184 93.0757 512.465C93.1376 512.337 93.1994 512.214 93.2652 512.09L83.1335 512.09C83.3888 512.573 83.6053 513.068 83.7793 513.571C83.8489 513.776 83.9147 513.981 83.9688 514.186C84.0191 514.368 84.0616 514.545 84.1003 514.719C84.1274 514.808 84.139 514.901 84.139 514.998L84.139 527.26C84.139 527.481 84.0616 527.705 83.9069 527.887C80.415 532.082 73.8758 538.927 71.7992 543.792C70.3414 546.514 71.4241 550.01 74.3979 549.886L88.2342 549.886L102.186 549.886C103.049 549.778 103.718 549.581 104.22 549.306C105.825 548.645 105.705 544.534 105.056 543.838C104.932 543.54 104.797 543.247 104.654 542.949C104.599 542.96 104.538 542.968 104.483 542.968L95.0672 542.968C94.5761 542.968 94.1701 542.512 94.1701 541.955C94.1701 541.398 94.5722 540.942 95.0672 540.942L103.513 540.942C103.041 540.199 102.542 539.507 102.078 538.908C102.036 538.915 101.989 538.919 101.947 538.919L94.9087 538.919C92.1747 538.919 92.5343 536.893 94.1469 536.893L100.4 536.893L98.5978 534.778C98.4857 534.836 98.3581 534.871 98.2266 534.871L90.5621 534.871C89.3788 534.874 89.3788 532.848 90.5621 532.848ZM79.0693 513.942C80.1018 513.942 80.9371 514.781 80.9371 515.81C80.9371 516.842 80.0979 517.678 79.0693 517.678C78.0368 517.678 77.2015 516.842 77.2015 515.81C77.1976 514.781 78.0368 513.942 79.0693 513.942ZM77.623 504C79.4521 504 80.9371 505.485 80.9371 507.314C80.9371 509.143 79.4521 510.628 77.623 510.628C75.7939 510.628 74.309 509.143 74.309 507.314C74.309 505.485 75.7939 504 77.623 504Z" fill="white" fill-opacity="0.47"/>
<path d="M529.205 478.904L537.701 488.893C538.942 490.362 540.624 492.729 541.606 495.096C542.194 496.515 542.542 497.95 542.419 499.241C542.287 500.676 541.614 501.898 540.145 502.694C539.414 503.093 538.49 503.375 537.341 503.51C537.302 503.514 537.268 503.518 537.233 503.518L523.234 503.518L509.235 503.518C509.177 503.518 509.123 503.514 509.065 503.503C507.932 503.363 507.024 503.085 506.304 502.694C504.812 501.886 504.143 500.657 504.019 499.206C503.911 497.911 504.278 496.461 504.889 495.026C505.941 492.574 507.731 490.107 508.992 488.615L517.194 478.901L517.194 467.079C517.167 466.948 517.132 466.816 517.097 466.688C517.051 466.522 517 466.36 516.942 466.194C516.649 465.347 516.196 464.504 515.581 463.695C515.256 463.266 515.345 462.655 515.771 462.334C515.949 462.203 516.154 462.137 516.359 462.137L519.603 462.137C518.83 461.657 518.315 460.803 518.315 459.825C518.315 458.324 519.533 457.106 521.034 457.106C522.534 457.106 523.752 458.324 523.752 459.825C523.752 460.803 523.238 461.657 522.465 462.137L530.106 462.137C530.643 462.137 531.08 462.574 531.08 463.111C531.08 463.374 530.976 463.614 530.806 463.788C530.415 464.233 530.094 464.736 529.835 465.289C529.572 465.842 529.367 466.449 529.205 467.106L529.205 478.904ZM525.562 484.848L531.958 484.848L527.554 479.956C527.368 479.778 527.256 479.531 527.256 479.256L527.256 466.998C527.256 466.924 527.264 466.847 527.283 466.774C527.476 465.958 527.735 465.184 528.076 464.465C528.138 464.337 528.199 464.214 528.265 464.09L518.134 464.09C518.389 464.573 518.605 465.068 518.779 465.571C518.849 465.776 518.915 465.981 518.969 466.186C519.019 466.368 519.062 466.545 519.1 466.719C519.127 466.808 519.139 466.901 519.139 466.998L519.139 479.26C519.139 479.481 519.062 479.705 518.907 479.887C515.415 484.082 508.876 490.927 506.799 495.792C505.341 498.514 506.424 502.01 509.398 501.886L523.234 501.886L537.186 501.886C538.049 501.778 538.718 501.581 539.22 501.306C540.825 500.645 540.705 496.534 540.056 495.838C539.932 495.54 539.797 495.247 539.654 494.949C539.599 494.96 539.538 494.968 539.483 494.968L530.067 494.968C529.576 494.968 529.17 494.512 529.17 493.955C529.17 493.398 529.572 492.942 530.067 492.942L538.513 492.942C538.041 492.199 537.542 491.507 537.078 490.908C537.036 490.915 536.989 490.919 536.947 490.919L529.909 490.919C527.175 490.919 527.534 488.893 529.147 488.893L535.4 488.893L533.598 486.778C533.486 486.836 533.358 486.871 533.227 486.871L525.562 486.871C524.379 486.874 524.379 484.848 525.562 484.848ZM514.069 465.942C515.102 465.942 515.937 466.781 515.937 467.81C515.937 468.842 515.098 469.678 514.069 469.678C513.037 469.678 512.201 468.842 512.201 467.81C512.198 466.781 513.037 465.942 514.069 465.942ZM512.623 456C514.452 456 515.937 457.485 515.937 459.314C515.937 461.143 514.452 462.628 512.623 462.628C510.794 462.628 509.309 461.143 509.309 459.314C509.309 457.485 510.794 456 512.623 456Z" fill="white" fill-opacity="0.47"/>
<path d="M549.603 597.58L541.698 613.902L543.508 619.544L553.331 599.966C551.996 599.536 550.805 598.794 549.839 597.827C549.761 597.746 549.68 597.665 549.603 597.58ZM552.604 583.596L552.604 578.415C552.604 577.475 552.986 576.62 553.605 576.002C554.228 575.383 555.082 575 556.022 575C556.962 575 557.816 575.383 558.435 576.002C559.054 576.62 559.437 577.475 559.437 578.415L559.437 583.593C560.477 584.033 561.413 584.671 562.201 585.46C563.783 587.042 564.761 589.227 564.761 591.64C564.761 593.272 564.313 594.803 563.532 596.11L564.12 597.324L569.986 580.557C570.067 580.325 570.233 580.151 570.438 580.05C570.643 579.95 570.883 579.93 571.119 580.012L583.13 584.215C583.362 584.296 583.536 584.463 583.636 584.668C583.733 584.869 583.756 585.112 583.675 585.344L572.519 617.236C572.438 617.468 572.267 617.646 572.066 617.742C571.861 617.843 571.622 617.862 571.386 617.781L570.864 617.584L569.464 621.942C569.325 622.371 568.864 622.607 568.435 622.472C568.203 622.398 568.029 622.228 567.936 622.023L564.618 615.411L559.375 613.585L559.375 613.581L559.371 613.581C559.143 613.5 558.965 613.338 558.868 613.133C558.768 612.928 558.748 612.684 558.829 612.452L560.597 607.402L557.047 600.325C556.71 600.364 556.37 600.383 556.022 600.383C555.67 600.383 555.322 600.364 554.982 600.321L544.088 622.027C543.995 622.232 543.821 622.398 543.589 622.476C543.16 622.615 542.696 622.379 542.561 621.946L540.047 614.111C539.978 613.91 539.981 613.686 540.082 613.481L548.501 596.099C547.723 594.792 547.279 593.268 547.279 591.64C547.279 589.227 548.257 587.042 549.839 585.46C550.627 584.675 551.563 584.037 552.604 583.596ZM557.797 583.082L557.797 578.415C557.797 577.927 557.596 577.483 557.275 577.162C556.954 576.841 556.509 576.64 556.022 576.64C555.535 576.64 555.09 576.841 554.769 577.162C554.448 577.483 554.247 577.927 554.247 578.415L554.247 583.082C554.819 582.962 555.415 582.9 556.022 582.9C556.629 582.9 557.221 582.966 557.797 583.082ZM562.43 597.591C562.356 597.672 562.279 597.75 562.201 597.827C561.231 598.798 560.036 599.54 558.698 599.969L561.351 605.256L561.355 605.244L563.056 608.628L563.041 608.624L565.79 614.103L565.813 614.111L566.869 616.211L566.842 616.199L568.52 619.544L570.33 613.902L568.404 609.927L568.393 609.943L567.847 608.817L567.867 608.825L564.986 602.877L564.978 602.874L563.354 599.513L563.354 599.509L562.43 597.591ZM556.022 588.183C556.977 588.183 557.843 588.569 558.47 589.196C559.096 589.822 559.483 590.689 559.483 591.644C559.483 592.599 559.096 593.465 558.47 594.092C557.843 594.718 556.977 595.105 556.022 595.105C555.067 595.105 554.201 594.718 553.574 594.092C552.948 593.465 552.561 592.599 552.561 591.644C552.561 590.689 552.948 589.822 553.574 589.196C554.201 588.569 555.067 588.183 556.022 588.183ZM557.306 590.356C556.977 590.027 556.521 589.822 556.018 589.822C555.515 589.822 555.059 590.027 554.73 590.356C554.402 590.685 554.197 591.141 554.197 591.644C554.197 592.146 554.402 592.603 554.73 592.931C555.059 593.26 555.515 593.465 556.018 593.465C556.521 593.465 556.977 593.26 557.306 592.931C557.635 592.603 557.839 592.146 557.839 591.644C557.839 591.141 557.635 590.685 557.306 590.356ZM561.041 586.624C559.758 585.34 557.983 584.544 556.022 584.544C554.061 584.544 552.286 585.337 551.003 586.624C549.719 587.908 548.922 589.683 548.922 591.644C548.922 593.604 549.719 595.379 551.003 596.663C552.286 597.947 554.061 598.744 556.022 598.744C557.983 598.744 559.758 597.947 561.041 596.663C561.339 596.365 561.614 596.041 561.853 595.693C561.888 595.623 561.931 595.557 561.985 595.499C562.704 594.389 563.122 593.067 563.122 591.644C563.122 589.683 562.325 587.908 561.041 586.624ZM565.125 599.397L566.312 601.849L567.07 602.116C567.495 602.263 567.739 602.684 567.611 603.048C567.534 603.268 567.337 603.423 567.101 603.473L571.95 613.481C571.989 613.562 572.012 613.643 572.024 613.725L581.896 585.511L571.281 581.806L570.245 584.768L575.697 586.675C576.123 586.825 576.363 587.239 576.235 587.607C576.107 587.97 575.659 588.148 575.233 587.997L569.781 586.091L568.311 590.279L570.895 591.184C571.32 591.331 571.564 591.752 571.436 592.116C571.308 592.479 570.856 592.657 570.431 592.51L567.847 591.609L566.362 595.855L571.815 597.761C572.24 597.912 572.484 598.33 572.356 598.693C572.229 599.057 571.776 599.235 571.351 599.088L565.898 597.181L565.125 599.397ZM563.567 613.322L561.614 609.432C560.651 612.185 562.182 607.8 560.616 612.29L563.567 613.322Z" fill="white" fill-opacity="0.47"/>
<path d="M637.603 947.58L629.698 963.902L631.508 969.544L641.331 949.966C639.996 949.536 638.805 948.794 637.839 947.827C637.761 947.746 637.68 947.665 637.603 947.58ZM640.604 933.596L640.604 928.415C640.604 927.475 640.986 926.62 641.605 926.002C642.228 925.383 643.082 925 644.022 925C644.962 925 645.816 925.383 646.435 926.002C647.054 926.62 647.437 927.475 647.437 928.415L647.437 933.593C648.477 934.033 649.413 934.671 650.201 935.46C651.783 937.042 652.761 939.227 652.761 941.64C652.761 943.272 652.313 944.803 651.532 946.11L652.12 947.324L657.986 930.557C658.067 930.325 658.233 930.151 658.438 930.05C658.643 929.95 658.883 929.93 659.119 930.012L671.13 934.215C671.362 934.296 671.536 934.463 671.636 934.668C671.733 934.869 671.756 935.112 671.675 935.344L660.519 967.236C660.438 967.468 660.267 967.646 660.066 967.742C659.861 967.843 659.622 967.862 659.386 967.781L658.864 967.584L657.464 971.942C657.325 972.371 656.864 972.607 656.435 972.472C656.203 972.398 656.029 972.228 655.936 972.023L652.618 965.411L647.375 963.585L647.375 963.581L647.371 963.581C647.143 963.5 646.965 963.338 646.868 963.133C646.768 962.928 646.748 962.684 646.829 962.452L648.597 957.402L645.047 950.325C644.71 950.364 644.37 950.383 644.022 950.383C643.67 950.383 643.322 950.364 642.982 950.321L632.088 972.027C631.995 972.232 631.821 972.398 631.589 972.476C631.16 972.615 630.696 972.379 630.561 971.946L628.047 964.111C627.978 963.91 627.981 963.686 628.082 963.481L636.501 946.099C635.723 944.792 635.279 943.268 635.279 941.64C635.279 939.227 636.257 937.042 637.839 935.46C638.627 934.675 639.563 934.037 640.604 933.596ZM645.797 933.082L645.797 928.415C645.797 927.927 645.596 927.483 645.275 927.162C644.954 926.841 644.509 926.64 644.022 926.64C643.535 926.64 643.09 926.841 642.769 927.162C642.448 927.483 642.247 927.927 642.247 928.415L642.247 933.082C642.819 932.962 643.415 932.9 644.022 932.9C644.629 932.9 645.221 932.966 645.797 933.082ZM650.43 947.591C650.356 947.672 650.279 947.75 650.201 947.827C649.231 948.798 648.036 949.54 646.698 949.969L649.351 955.256L649.355 955.244L651.056 958.628L651.041 958.624L653.79 964.103L653.813 964.111L654.869 966.211L654.842 966.199L656.52 969.544L658.33 963.902L656.404 959.927L656.393 959.943L655.847 958.817L655.867 958.825L652.986 952.877L652.978 952.874L651.354 949.513L651.354 949.509L650.43 947.591ZM644.022 938.183C644.977 938.183 645.843 938.569 646.47 939.196C647.096 939.822 647.483 940.689 647.483 941.644C647.483 942.599 647.096 943.465 646.47 944.092C645.843 944.718 644.977 945.105 644.022 945.105C643.067 945.105 642.201 944.718 641.574 944.092C640.948 943.465 640.561 942.599 640.561 941.644C640.561 940.689 640.948 939.822 641.574 939.196C642.201 938.569 643.067 938.183 644.022 938.183ZM645.306 940.356C644.977 940.027 644.521 939.822 644.018 939.822C643.515 939.822 643.059 940.027 642.73 940.356C642.402 940.685 642.197 941.141 642.197 941.644C642.197 942.146 642.402 942.603 642.73 942.931C643.059 943.26 643.515 943.465 644.018 943.465C644.521 943.465 644.977 943.26 645.306 942.931C645.635 942.603 645.839 942.146 645.839 941.644C645.839 941.141 645.635 940.685 645.306 940.356ZM649.041 936.624C647.758 935.34 645.983 934.544 644.022 934.544C642.061 934.544 640.286 935.337 639.003 936.624C637.719 937.908 636.922 939.683 636.922 941.644C636.922 943.604 637.719 945.379 639.003 946.663C640.286 947.947 642.061 948.744 644.022 948.744C645.983 948.744 647.758 947.947 649.041 946.663C649.339 946.365 649.614 946.041 649.853 945.693C649.888 945.623 649.931 945.557 649.985 945.499C650.704 944.389 651.122 943.067 651.122 941.644C651.122 939.683 650.325 937.908 649.041 936.624ZM653.125 949.397L654.312 951.849L655.07 952.116C655.495 952.263 655.739 952.684 655.611 953.048C655.534 953.268 655.337 953.423 655.101 953.473L659.95 963.481C659.989 963.562 660.012 963.643 660.024 963.725L669.896 935.511L659.281 931.806L658.245 934.768L663.697 936.675C664.123 936.825 664.363 937.239 664.235 937.607C664.107 937.97 663.659 938.148 663.233 937.997L657.781 936.091L656.311 940.279L658.895 941.184C659.32 941.331 659.564 941.752 659.436 942.116C659.308 942.479 658.856 942.657 658.431 942.51L655.847 941.609L654.362 945.855L659.815 947.761C660.24 947.912 660.484 948.33 660.356 948.693C660.229 949.057 659.776 949.235 659.351 949.088L653.898 947.181L653.125 949.397ZM651.567 963.322L649.614 959.432C648.651 962.185 650.182 957.8 648.616 962.29L651.567 963.322Z" fill="white" fill-opacity="0.47"/>
<path d="M305.632 536.785C306.328 536.569 307.074 536.422 307.855 536.348C307.983 536.325 308.114 536.387 308.172 536.511L310.241 540.656C310.315 540.799 310.261 540.977 310.114 541.054L309.371 541.449C309.313 541.48 309.271 541.53 309.255 541.588C309.24 541.642 309.24 541.7 309.263 541.754C309.731 542.659 310.152 543.614 310.609 544.531C310.64 544.585 310.686 544.62 310.736 544.639C310.79 544.659 310.848 544.659 310.906 544.635C313.416 543.402 316.255 541.642 318.749 540.583C318.803 540.552 318.842 540.505 318.861 540.447C318.876 540.393 318.876 540.335 318.853 540.285L317.368 537.47C317.337 537.412 317.287 537.373 317.229 537.354C317.175 537.338 317.109 537.338 317.055 537.365L316.401 537.709C316.255 537.787 316.077 537.729 315.999 537.582L309.402 524.975C309.371 524.917 309.325 524.879 309.267 524.859C309.213 524.84 309.147 524.844 309.089 524.871L308.346 525.227C308.199 525.304 308.022 525.246 307.944 525.103L306.262 521.897C306.185 521.75 306.243 521.572 306.39 521.495L307.093 521.128C307.152 521.097 307.194 521.046 307.213 520.988C307.229 520.934 307.229 520.876 307.202 520.818L305.825 518.127C305.798 518.069 305.744 518.026 305.686 518.011C305.632 517.995 305.574 517.995 305.516 518.019C304.069 518.954 301.788 519.971 300.191 520.822C300.133 520.853 300.094 520.903 300.075 520.961C300.059 521.015 300.059 521.073 300.083 521.128C300.535 522.021 300.968 522.941 301.405 523.846C301.432 523.896 301.479 523.935 301.533 523.951C301.587 523.97 301.649 523.97 301.703 523.947L302.697 523.432C302.844 523.359 303.022 523.417 303.095 523.564L304.657 526.673C304.727 526.82 304.665 526.998 304.514 527.071L303.865 527.381C303.807 527.408 303.764 527.458 303.741 527.516C303.721 527.57 303.721 527.628 303.745 527.678L304.112 528.405C304.12 528.425 304.127 528.44 304.135 528.463C304.182 528.622 304.093 528.788 303.934 528.835C303.168 529.059 302.426 529.333 301.707 529.651C300.991 529.968 300.295 530.335 299.638 530.745C298.277 531.588 297.039 532.613 295.987 533.788C294.966 534.929 294.12 536.213 293.485 537.617L293.478 537.632C292.816 539.098 292.395 540.695 292.267 542.381C292.147 543.978 292.287 545.664 292.735 547.404C292.952 548.251 293.246 549.113 293.621 549.991C293.98 550.842 294.417 551.7 294.932 552.563C295.001 552.671 294.994 552.814 294.908 552.915C294.475 553.421 294.085 553.947 293.741 554.492C293.4 555.034 293.103 555.595 292.863 556.178C292.608 556.789 292.406 557.424 292.275 558.081C292.14 558.738 292.07 559.423 292.07 560.131C292.07 560.196 292.047 560.266 292 560.324L288.048 565.131C288.01 565.181 287.994 565.239 288.002 565.297C288.006 565.355 288.037 565.409 288.083 565.452L288.095 565.463C288.114 565.479 288.137 565.49 288.157 565.498C288.18 565.506 288.207 565.51 288.238 565.51L288.284 565.513L331.506 565.513C331.572 565.513 331.634 565.486 331.676 565.444C331.719 565.401 331.746 565.343 331.746 565.274C331.746 565.235 331.738 565.2 331.723 565.169C331.707 565.138 331.688 565.111 331.661 565.088C329.909 563.464 328.219 561.739 326.456 560.134C326.436 560.115 326.413 560.1 326.39 560.088C326.363 560.076 326.332 560.073 326.301 560.073L315.705 560.073C315.555 560.073 315.423 559.957 315.408 559.802C315.338 559.071 315.207 558.367 315.029 557.694C314.847 557.006 314.611 556.352 314.333 555.734C314.309 555.691 314.298 555.645 314.298 555.591C314.298 555.424 314.433 555.293 314.596 555.293L324.638 555.293C324.704 555.293 324.766 555.266 324.808 555.223C324.851 555.181 324.878 555.119 324.878 555.053L324.878 550.602C324.878 550.536 324.851 550.475 324.808 550.432C324.766 550.389 324.708 550.362 324.638 550.362L309.514 550.362C309.464 550.362 309.414 550.351 309.367 550.324C309.104 550.177 308.83 550.034 308.544 549.902C308.261 549.771 307.975 549.655 307.681 549.546C306.931 549.272 306.154 549.071 305.361 548.955C304.58 548.839 303.783 548.8 302.987 548.847L302.979 548.847C302.805 548.858 302.639 548.874 302.476 548.889C302.318 548.905 302.151 548.928 301.974 548.955C301.854 548.97 301.734 548.916 301.672 548.804C301.223 548.007 300.879 547.242 300.636 546.503C300.38 545.73 300.23 544.983 300.172 544.272C300.117 543.56 300.156 542.88 300.288 542.238C300.423 541.573 300.647 540.95 300.957 540.385C301.262 539.829 301.645 539.318 302.093 538.866C302.546 538.406 303.068 537.999 303.644 537.659C304.247 537.3 304.916 537.006 305.632 536.785ZM303.118 550.389C308.644 550.057 313.184 554.226 313.756 559.705L293.779 559.705C293.818 558.622 294.054 557.613 294.448 556.662C295.898 553.174 299.313 550.618 303.118 550.389ZM293.3 561.109C303.942 561.109 315.295 561.229 325.938 561.229L328.544 564.249L290.334 564.249L293.3 561.109Z" fill="white" fill-opacity="0.47"/>
<path d="M93.6318 891.785C94.3278 891.569 95.0742 891.422 95.8553 891.348C95.9829 891.325 96.1144 891.387 96.1724 891.511L98.2413 895.656C98.3147 895.799 98.2606 895.977 98.1137 896.054L97.3712 896.449C97.3132 896.48 97.2706 896.53 97.2552 896.588C97.2397 896.642 97.2397 896.7 97.2629 896.754C97.7308 897.659 98.1523 898.614 98.6086 899.531C98.6396 899.585 98.686 899.62 98.7362 899.639C98.7904 899.659 98.8484 899.659 98.9064 899.635C101.416 898.402 104.255 896.642 106.749 895.583C106.803 895.552 106.842 895.505 106.861 895.447C106.876 895.393 106.876 895.335 106.853 895.285L105.368 892.47C105.337 892.412 105.287 892.373 105.229 892.354C105.175 892.338 105.109 892.338 105.055 892.365L104.401 892.709C104.255 892.787 104.077 892.729 103.999 892.582L97.4021 879.975C97.3712 879.917 97.3248 879.879 97.2668 879.859C97.2126 879.84 97.1469 879.844 97.0889 879.871L96.3464 880.227C96.1995 880.304 96.0216 880.246 95.9442 880.103L94.2621 876.897C94.1847 876.75 94.2428 876.572 94.3897 876.495L95.0935 876.128C95.1515 876.097 95.194 876.046 95.2134 875.988C95.2288 875.934 95.2288 875.876 95.2018 875.818L93.8251 873.127C93.798 873.069 93.7439 873.026 93.6859 873.011C93.6318 872.995 93.5738 872.995 93.5157 873.019C92.0695 873.954 89.7879 874.971 88.1908 875.822C88.1328 875.853 88.0942 875.903 88.0748 875.961C88.0594 876.015 88.0594 876.073 88.0826 876.128C88.535 877.021 88.9681 877.941 89.4051 878.846C89.4322 878.896 89.4786 878.935 89.5327 878.951C89.5868 878.97 89.6487 878.97 89.7028 878.947L90.6967 878.432C90.8436 878.359 91.0215 878.417 91.095 878.564L92.6573 881.673C92.7269 881.82 92.665 881.998 92.5142 882.071L91.8645 882.381C91.8065 882.408 91.764 882.458 91.7408 882.516C91.7214 882.57 91.7214 882.628 91.7446 882.678L92.112 883.405C92.1197 883.425 92.1275 883.44 92.1352 883.463C92.1816 883.622 92.0927 883.788 91.9341 883.835C91.1685 884.059 90.426 884.333 89.7067 884.651C88.9913 884.968 88.2952 885.335 87.6379 885.745C86.2767 886.588 85.0392 887.613 83.9874 888.788C82.9665 889.929 82.1196 891.213 81.4854 892.617L81.4777 892.632C80.8164 894.098 80.3949 895.695 80.2673 897.381C80.1474 898.978 80.2866 900.664 80.7352 902.404C80.9517 903.251 81.2456 904.113 81.6207 904.991C81.9804 905.842 82.4173 906.7 82.9317 907.563C83.0013 907.671 82.9935 907.814 82.9085 907.915C82.4754 908.421 82.0848 908.947 81.7406 909.492C81.4003 910.034 81.1026 910.595 80.8628 911.178C80.6076 911.789 80.4065 912.424 80.275 913.081C80.1397 913.738 80.0701 914.423 80.0701 915.131C80.0701 915.196 80.0469 915.266 80.0005 915.324L76.0483 920.131C76.0097 920.181 75.9942 920.239 76.0019 920.297C76.0058 920.355 76.0367 920.409 76.0831 920.452L76.0947 920.463C76.1141 920.479 76.1373 920.49 76.1566 920.498C76.1798 920.506 76.2069 920.51 76.2378 920.51L76.2842 920.513L119.506 920.513C119.572 920.513 119.634 920.486 119.676 920.444C119.719 920.401 119.746 920.343 119.746 920.274C119.746 920.235 119.738 920.2 119.723 920.169C119.707 920.138 119.688 920.111 119.661 920.088C117.909 918.464 116.219 916.739 114.456 915.134C114.436 915.115 114.413 915.1 114.39 915.088C114.363 915.076 114.332 915.073 114.301 915.073L103.705 915.073C103.555 915.073 103.423 914.957 103.408 914.802C103.338 914.071 103.207 913.367 103.029 912.694C102.847 912.006 102.611 911.352 102.333 910.734C102.309 910.691 102.298 910.645 102.298 910.591C102.298 910.424 102.433 910.293 102.596 910.293L112.638 910.293C112.704 910.293 112.766 910.266 112.808 910.223C112.851 910.181 112.878 910.119 112.878 910.053L112.878 905.602C112.878 905.536 112.851 905.475 112.808 905.432C112.766 905.389 112.708 905.362 112.638 905.362L97.5143 905.362C97.464 905.362 97.4137 905.351 97.3673 905.324C97.1044 905.177 96.8298 905.034 96.5436 904.902C96.2613 904.771 95.9752 904.655 95.6813 904.546C94.9311 904.272 94.1538 904.071 93.3611 903.955C92.5799 903.839 91.7833 903.8 90.9867 903.847L90.979 903.847C90.805 903.858 90.6387 903.874 90.4763 903.889C90.3177 903.905 90.1514 903.928 89.9735 903.955C89.8537 903.97 89.7338 903.916 89.6719 903.804C89.2233 903.007 88.8792 902.242 88.6355 901.503C88.3803 900.73 88.2295 899.983 88.1715 899.272C88.1174 898.56 88.156 897.88 88.2875 897.238C88.4229 896.573 88.6471 895.95 88.9565 895.385C89.262 894.829 89.6448 894.318 90.0934 893.866C90.5459 893.406 91.0679 892.999 91.6441 892.659C92.2474 892.3 92.9164 892.006 93.6318 891.785ZM91.1182 905.389C96.6442 905.057 101.184 909.226 101.756 914.705L81.7793 914.705C81.818 913.622 82.0538 912.613 82.4483 911.662C83.8984 908.174 87.313 905.618 91.1182 905.389ZM81.2998 916.109C91.9419 916.109 103.295 916.229 113.938 916.229L116.544 919.249L78.3338 919.249L81.2998 916.109Z" fill="white" fill-opacity="0.47"/>
<path d="M156.321 998.652C156.321 998.652 159.628 998.565 159.453 1004.83C159.279 1011.1 159.453 1020.32 159.453 1020.32H156.321V1009.53L146.923 1020.32H114.641C114.641 1020.32 116.381 1014.4 131.522 1014.49L156.321 998.652Z" fill="#1F0C07"/>
<path d="M156.321 998.652V990.56L143.791 985.774L145.705 998.652L130.304 1014.66H137.439C140.746 1014.66 143.965 1013.45 146.402 1011.18C149.621 1008.14 154.059 1003.53 156.321 998.652Z" fill="#E9B089"/>
<path d="M137.09 801.65C137.09 801.65 125.778 829.06 131.956 906.068C138.134 983.077 140.048 992.996 140.048 992.996L160.497 992.648L155.798 801.65H137.09Z" fill="#294286"/>
<path d="M205.136 998.652C205.136 998.652 201.83 998.565 202.004 1004.83C202.178 1011.1 202.004 1020.32 202.004 1020.32H205.136V1009.53L214.534 1020.32H246.817C246.817 1020.32 245.076 1014.4 229.936 1014.49L205.136 998.652Z" fill="#1F0C07"/>
<path d="M205.136 998.652L197.044 981.51L209.574 976.725L215.752 998.652L231.154 1014.66H224.019C220.712 1014.66 217.493 1013.45 215.056 1011.18C211.837 1008.14 207.399 1003.53 205.136 998.652Z" fill="#E9B089"/>
<path d="M169.025 801.65C169.025 801.65 175.029 817.748 185.645 855.338C197.218 896.235 219.668 992.735 219.668 992.735L197.74 993.866L137.265 816.442L143.095 801.65H169.025Z" fill="#294286"/>
<path d="M157.712 875.004L146.313 842.634" stroke="black" stroke-width="0.4574" stroke-miterlimit="10" stroke-linecap="round" stroke-linejoin="round"/>
<path d="M184.687 699.146C184.687 699.146 187.994 706.281 186.253 716.201C184.513 726.382 195.738 725.425 194.433 735.257C194.433 735.257 162.672 744.742 133.261 725.599C133.261 725.599 131.26 716.897 137.351 714.809C145.965 711.85 148.141 702.975 148.141 702.975L184.687 699.146Z" fill="black"/>
<path d="M185.91 708.031C187.226 698.365 179.839 689.377 169.41 687.957C158.982 686.538 149.461 693.223 148.145 702.89C146.829 712.557 154.216 721.544 164.645 722.964C175.073 724.384 184.594 717.698 185.91 708.031Z" fill="black"/>
<path d="M168.763 720.03L168.415 749.006L154.405 747.178L158.756 721.683L168.763 720.03Z" fill="#E9B089"/>
<path d="M156.233 736.476L167.11 728.47L158.409 723.51L156.233 736.476Z" fill="#D7896D"/>
<path d="M153.709 718.028C153.796 716.201 153.535 714.461 152.926 712.72C152.056 710.371 150.576 707.935 147.705 708.892C142.919 710.458 146.4 718.376 150.924 719.595C152.317 719.943 153.709 719.16 153.709 718.028Z" fill="#D7896D"/>
<path d="M171.809 692.272C168.764 690.967 165.37 690.271 162.063 690.532C157.539 690.88 151.535 692.881 149.707 700.799C146.749 714.026 147.358 722.814 153.188 727.339C157.278 730.472 161.802 730.82 168.067 728.209C170.417 727.252 173.897 722.988 174.855 720.552L177.552 713.678C177.552 713.678 186.515 698.537 171.809 692.272Z" fill="#E9B089"/>
<path d="M155.973 712.459L153.972 715.244L155.451 716.201" stroke="black" stroke-width="0.4498" stroke-miterlimit="10" stroke-linecap="round" stroke-linejoin="round"/>
<path d="M155.624 700.451C155.624 700.451 155.972 701.844 153.884 701.844C152.317 701.844 151.273 701.844 150.403 702.018C149.881 702.105 149.359 701.931 149.098 701.496C148.924 701.147 148.924 700.799 149.185 700.538C149.707 700.016 150.925 699.233 152.84 699.233C155.276 699.233 155.624 700.451 155.624 700.451Z" fill="black"/>
<path d="M161.542 700.887C161.542 700.887 160.672 702.105 163.543 702.714C165.719 703.236 168.242 704.193 169.46 704.628C170.156 704.889 170.94 704.889 171.375 704.541C171.723 704.28 171.81 703.932 171.462 703.584C170.853 702.888 168.242 701.148 165.632 700.539C162.325 699.755 161.542 700.887 161.542 700.887Z" fill="black"/>
<path d="M159.714 710.197C159.714 710.197 161.802 705.063 168.241 709.849C168.241 709.936 164.674 714.374 159.714 710.197Z" fill="white"/>
<path d="M161.454 709.501C161.106 710.719 161.802 711.937 163.02 712.285C164.238 712.634 165.37 711.85 165.718 710.632C166.066 709.414 165.37 708.196 164.151 707.848C162.933 707.5 161.715 708.283 161.454 709.501Z" fill="black"/>
<path d="M168.067 710.023C167.458 709.501 166.849 709.066 166.066 708.718C165.37 708.37 164.587 708.196 163.804 708.109C163.021 708.022 162.237 708.196 161.541 708.457C160.845 708.805 160.323 709.414 160.149 710.023C160.062 710.197 159.888 710.284 159.714 710.197C159.54 710.11 159.453 709.936 159.54 709.762C159.888 708.892 160.584 708.196 161.367 707.848C162.15 707.5 163.021 707.413 163.891 707.5C164.761 707.587 165.544 707.848 166.327 708.196C167.11 708.544 167.806 708.979 168.416 709.588C168.503 709.675 168.503 709.762 168.416 709.849C168.242 710.11 168.155 710.11 168.067 710.023Z" fill="black"/>
<path d="M154.755 709.501C154.755 709.501 153.362 703.932 149.099 707.064C149.099 707.064 150.665 712.372 154.755 709.501Z" fill="white"/>
<path d="M153.449 708.196C153.449 709.327 152.753 710.284 151.883 710.284C151.013 710.284 150.23 709.414 150.143 708.283C150.143 707.152 150.839 706.194 151.709 706.194C152.666 706.107 153.449 707.064 153.449 708.196Z" fill="black"/>
<path d="M149.011 706.978C149.359 706.542 149.794 706.194 150.404 706.02C150.665 705.933 150.926 705.933 151.274 705.933C151.535 705.933 151.796 705.933 152.144 706.107C152.492 706.194 152.84 706.368 153.188 706.542C153.536 706.716 153.797 706.978 154.058 707.239C154.319 707.5 154.493 707.848 154.667 708.109C154.841 708.457 155.015 708.805 155.102 709.153C155.102 709.327 155.015 709.414 154.928 709.501C154.754 709.501 154.667 709.414 154.58 709.327C154.406 708.718 154.145 708.109 153.71 707.587C153.536 707.326 153.275 707.065 153.014 706.891C152.753 706.716 152.405 706.542 152.144 706.455C151.709 706.281 151.187 706.281 150.752 706.368C150.317 706.542 149.881 706.804 149.533 707.152C149.446 707.239 149.359 707.239 149.359 707.152C148.924 707.152 148.924 707.065 149.011 706.978Z" fill="black"/>
<path d="M152.666 718.203L161.106 718.812C161.106 718.812 160.062 721.857 156.756 721.422C153.449 720.987 152.666 718.203 152.666 718.203Z" fill="white"/>
<path opacity="0.22" d="M166.153 704.889L158.234 712.634C158.234 712.634 159.54 716.723 162.759 716.81L170.765 709.327C170.678 709.24 169.546 705.237 166.153 704.889Z" fill="white"/>
<path opacity="0.22" d="M151.621 702.453L144.66 710.284C144.66 710.284 145.704 714.287 148.402 714.374L155.363 706.717C155.45 706.717 154.58 702.714 151.621 702.453Z" fill="white"/>
<path d="M158.148 709.849C157.539 713.33 159.888 716.636 163.456 717.245C166.936 717.854 170.243 715.505 170.852 711.937C171.461 708.457 169.112 705.15 165.544 704.541C162.063 703.932 158.757 706.281 158.148 709.849Z" stroke="#C0653E" stroke-width="0.7177" stroke-miterlimit="10"/>
<path d="M144.747 707.5C144.138 710.98 146.139 714.2 149.098 714.722C152.056 715.244 154.928 712.808 155.537 709.327C156.146 705.846 154.145 702.627 151.186 702.105C148.228 701.583 145.269 704.019 144.747 707.5Z" stroke="#C0653E" stroke-width="0.7177" stroke-miterlimit="10"/>
<path d="M158.148 709.849C158.148 709.849 156.929 708.892 155.45 709.414" stroke="#C0653E" stroke-width="0.7177" stroke-miterlimit="10"/>
<path d="M174.854 715.853L170.678 712.459" stroke="#C0653E" stroke-width="0.7177" stroke-miterlimit="10"/>
<path d="M174.68 716.462C174.68 715.244 171.2 705.411 176.334 693.577C176.334 693.577 181.032 693.055 181.641 701.582C182.599 715.418 174.68 716.462 174.68 716.462Z" fill="black"/>
<path d="M172.244 720.552C172.853 718.812 173.81 717.071 175.116 715.679C176.856 713.678 179.292 711.937 181.642 713.939C185.731 717.332 179.205 723.771 174.332 723.162C172.853 722.988 171.809 721.683 172.244 720.552Z" fill="#E9B089"/>
<path d="M179.901 717.332C176.595 715.679 174.158 719.334 174.158 719.334" stroke="black" stroke-width="0.4498" stroke-miterlimit="10" stroke-linecap="round" stroke-linejoin="round"/>
<path d="M177.813 694.621C177.813 694.621 171.374 700.886 148.141 697.145C148.141 697.145 152.752 688.356 164.848 687.834C176.769 687.399 177.813 694.621 177.813 694.621Z" fill="black"/>
<path d="M164.064 745.177C164.064 745.177 158.06 765.451 115.597 796.603L104.546 782.158L141.701 741.87L164.064 745.177Z" fill="#942314"/>
<path d="M82.0957 752.399L89.9271 748.396L101.5 765.277C98.7156 767.105 95.148 769.106 92.3635 770.933L82.0957 752.399Z" fill="#E9B089"/>
<path d="M91.2317 747.439L91.7538 745.612C92.4499 743.175 92.5369 740.565 92.0149 738.128L91.1447 733.778C90.9707 732.734 89.8395 732.124 88.8823 732.472C88.0122 732.821 87.4901 733.604 87.4901 734.474L87.403 739.26L80.3548 726.468C80.0068 725.772 79.0496 725.511 78.4405 725.946L78.0054 726.294C77.4833 726.642 77.3093 727.339 77.5703 727.948L82.5302 737.78L75.3079 727.252C74.8729 726.555 74.0027 726.381 73.3066 726.904L72.9585 727.165C72.4364 727.6 72.2624 728.296 72.6105 728.905L78.5275 738.564L72.4364 732.211C71.8273 731.602 70.8702 731.602 70.3481 732.298L70.261 732.472C69.913 732.908 69.913 733.604 70.261 734.039L76.0911 741.087L72.2624 738.128C71.5663 737.432 70.4351 737.693 70.087 738.651C69.913 739.086 70 739.608 70.3481 739.956L84.5315 755.967L88.3602 752.486C89.6654 751.007 90.7096 749.266 91.2317 747.439Z" fill="#E9B089"/>
<path d="M87.3157 739.173C87.3157 739.173 84.4442 741.522 84.7053 746.134" stroke="black" stroke-width="0.5672" stroke-miterlimit="10" stroke-linecap="round" stroke-linejoin="round"/>
<path d="M119.773 785.03L94.1905 751.529L84.0098 760.056L101.587 792.165C104.545 797.299 108.983 799.909 113.943 797.647C118.381 795.559 121.861 789.468 119.773 785.03Z" fill="#942314"/>
<path d="M111.681 774.414L117.163 780.766" stroke="black" stroke-width="0.4574" stroke-miterlimit="10" stroke-linecap="round" stroke-linejoin="round"/>
<path d="M142.137 747.439L159.54 759.622L158.496 819.836L134.48 815.746C134.48 815.833 123.081 764.668 142.137 747.439Z" fill="white"/>
<path d="M132.565 815.659L156.321 820.271L155.798 814.267L132.565 810.351V815.659Z" fill="black"/>
<path d="M168.329 758.316C168.329 758.316 139.614 767.975 141.006 750.311L154.58 739.869L163.63 745.003L168.329 748.919L173.115 756.837L168.329 758.316Z" fill="#E9B089"/>
<path d="M155.625 740.565C155.625 740.565 143.007 750.398 136.133 767.627C132.392 777.112 134.654 796.168 135.263 808.959C135.872 821.664 136.742 845.941 136.742 845.941L127.345 840.72C127.345 840.72 127.171 784.943 128.476 777.634C129.868 770.325 136.307 742.045 145.705 738.999C145.705 738.999 148.924 738.042 154.406 740.043L155.625 740.565Z" fill="#942314"/>
<path d="M127.866 787.118C127.866 787.118 126.822 769.367 132.565 760.405" stroke="black" stroke-width="0.4574" stroke-miterlimit="10" stroke-linecap="round" stroke-linejoin="round"/>
<path d="M173.897 748.832C173.897 748.832 169.634 745.177 163.542 749.876C157.451 754.575 149.707 771.369 149.707 790.773C149.707 810.177 155.45 847.159 155.45 847.159C155.45 847.159 176.508 855.251 191.213 844.809L169.024 807.48L179.727 777.634L173.897 748.832Z" fill="#942314"/>
<path d="M172.244 747.961C172.244 747.961 187.82 751.703 215.926 796.255L200.785 806.262L171.374 773.022L172.244 747.961Z" fill="#942314"/>
<path d="M178.248 780.766L171.374 773.022" stroke="black" stroke-width="0.4574" stroke-miterlimit="10" stroke-linecap="round" stroke-linejoin="round"/>
<path d="M153.275 803.303L163.369 801.041L163.021 798.778C162.934 797.995 163.369 797.125 164.065 796.777C164.848 796.429 165.718 796.603 166.24 797.299L173.028 806.784L178.162 814.093C172.244 817.051 166.676 816.529 165.109 815.224C164.848 815.224 157.278 815.833 157.278 815.833C156.495 815.92 155.799 815.485 155.625 814.702C155.538 814.18 155.625 813.31 157.278 812.962L155.625 813.31C154.841 813.397 154.058 812.875 153.971 812.092C153.797 811.396 154.406 810.612 155.451 810.264L154.232 810.438C153.362 810.612 152.492 809.916 152.492 808.959C152.405 808.176 153.014 807.393 153.797 807.219L155.625 806.784H153.623C152.666 806.871 151.883 806.175 151.796 805.13C151.796 804.26 152.492 803.477 153.275 803.303Z" fill="#E9B089"/>
<path d="M173.114 806.784L189.908 802.346L192.606 812.44L175.377 815.311L173.114 806.784Z" fill="#E9B089"/>
<path d="M205.397 792.948L175.985 803.042L182.25 816.355L210.617 810.003C215.925 808.785 218.884 803.129 216.97 798.082C215.055 793.47 209.921 791.208 205.397 792.948Z" fill="#942314"/>
<path d="M192.605 797.299L202.438 793.905" stroke="black" stroke-width="0.4574" stroke-miterlimit="10" stroke-linecap="round" stroke-linejoin="round"/>
<path d="M576.256 1006.74L577.213 958.452L594.877 961.758L591.309 1004.4L576.256 1006.74Z" fill="white"/>
<path d="M575.908 999.001C575.908 999.001 587.394 1005.18 592.267 996.216L624.376 1015.36L570.774 1015.01L575.908 999.001Z" fill="#101010"/>
<path d="M570.826 1014.97L570.794 1019.93L624.395 1020.28L624.427 1015.32L570.826 1014.97Z" fill="white"/>
<path d="M595.226 1005.61C595.4 1005.53 595.487 1005.44 595.574 1005.35C597.75 1002.48 599.925 1001.09 600.012 1001.09C600.447 1000.83 600.534 1000.22 600.273 999.871C600.012 999.436 599.403 999.349 598.968 999.61C598.881 999.697 596.444 1001.18 594.095 1004.31C593.747 1004.74 593.921 1005.27 594.269 1005.53C594.617 1005.7 594.965 1005.7 595.226 1005.61Z" fill="white"/>
<path d="M599.838 1007.88C600.012 1007.79 600.099 1007.7 600.186 1007.61C602.361 1004.74 604.536 1003.35 604.623 1003.35C605.058 1003.09 605.145 1002.48 604.884 1002.13C604.623 1001.7 604.014 1001.61 603.579 1001.87C603.492 1001.96 601.056 1003.44 598.706 1006.57C598.358 1007.01 598.532 1007.53 598.88 1007.79C599.141 1007.96 599.489 1008.05 599.838 1007.88Z" fill="white"/>
<path d="M604.45 1010.23C604.624 1010.14 604.711 1010.05 604.798 1009.96C606.973 1007.09 609.149 1005.7 609.236 1005.7C609.671 1005.44 609.758 1004.83 609.497 1004.48C609.236 1004.05 608.627 1003.96 608.192 1004.22C608.104 1004.31 605.668 1005.79 603.319 1008.92C602.971 1009.36 603.145 1009.88 603.493 1010.14C603.754 1010.31 604.102 1010.31 604.45 1010.23Z" fill="white"/>
<path d="M530.573 1005.44L537.621 957.755L554.763 963.237L545.801 1005.09L530.573 1005.44Z" fill="white"/>
<path d="M531.182 999C531.182 999 542.668 1005.18 547.541 996.216L579.649 1015.36L526.048 1015.01L531.182 999Z" fill="#101010"/>
<path d="M526.08 1015.04L526.048 1020L579.649 1020.34L579.681 1015.38L526.08 1015.04Z" fill="white"/>
<path d="M550.5 1005.61C550.674 1005.53 550.761 1005.44 550.848 1005.35C553.023 1002.48 555.198 1001.09 555.285 1001.09C555.721 1000.83 555.808 1000.22 555.547 999.87C555.285 999.435 554.676 999.348 554.241 999.609C554.154 999.696 551.718 1001.18 549.368 1004.31C549.02 1004.74 549.194 1005.27 549.542 1005.53C549.804 1005.7 550.152 1005.7 550.5 1005.61Z" fill="white"/>
<path d="M555.111 1007.88C555.285 1007.79 555.372 1007.7 555.459 1007.61C557.634 1004.74 559.81 1003.35 559.897 1003.35C560.332 1003.09 560.419 1002.48 560.158 1002.13C559.897 1001.7 559.288 1001.61 558.853 1001.87C558.766 1001.96 556.329 1003.44 553.98 1006.57C553.632 1007.01 553.806 1007.53 554.154 1007.79C554.415 1007.96 554.763 1008.05 555.111 1007.88Z" fill="white"/>
<path d="M559.636 1010.23C559.81 1010.14 559.897 1010.05 559.984 1009.96C562.16 1007.09 564.335 1005.7 564.422 1005.7C564.857 1005.44 564.944 1004.83 564.683 1004.48C564.422 1004.05 563.813 1003.96 563.378 1004.22C563.291 1004.31 560.855 1005.79 558.505 1008.92C558.157 1009.36 558.331 1009.88 558.679 1010.14C559.027 1010.31 559.375 1010.31 559.636 1010.23Z" fill="white"/>
<path d="M596.879 817.922C596.879 817.922 602.274 817.748 603.144 842.808C603.318 847.942 603.231 855.077 602.883 860.211L596.008 992.648H570.861L577.3 855.774L553.545 992.648L527.44 992.126L555.285 817.922L574.603 815.485L596.879 817.922Z" fill="black"/>
<path d="M577.301 855.861L588.178 853.337" stroke="#434141" stroke-width="0.675" stroke-miterlimit="10" stroke-linecap="round" stroke-linejoin="round"/>
<path d="M562.334 745.612C562.334 745.612 571.819 755.184 582.696 759.361C593.659 763.537 614.717 776.851 630.728 778.069L625.42 755.706L590.701 736.737L562.334 745.612Z" fill="#0A1D47"/>
<path d="M652.482 721.857L653.266 716.027C653.44 714.896 654.223 713.852 655.354 713.59L662.315 711.502C663.359 711.241 664.403 711.676 664.926 712.546C665.535 713.677 665.187 715.07 664.055 715.679L660.749 717.506C660.749 717.506 665.361 721.161 660.923 726.121L652.482 721.857Z" fill="#E9B089"/>
<path d="M655.44 713.59L664.49 701.234C665.099 700.364 666.317 700.277 667.1 700.973C667.71 701.495 667.884 702.365 667.449 703.062L661.793 714.113L655.44 713.59Z" fill="#E9B089"/>
<path d="M662.663 710.545L666.144 709.327C666.84 709.153 667.623 709.327 668.232 709.762L669.015 710.371C669.885 711.067 670.146 712.372 669.624 713.416L665.186 721.335L659.443 717.158L662.663 710.545Z" fill="#E9B089"/>
<path d="M669.015 711.676H670.32C670.93 711.676 671.539 711.937 671.974 712.372L673.018 713.416C673.453 713.852 673.714 714.461 673.714 715.07C673.714 715.592 673.54 716.114 673.279 716.462L667.623 724.032L662.663 720.378L669.015 711.676Z" fill="#E9B089"/>
<path d="M671.104 714.722H672.409C673.018 714.722 673.627 714.983 674.063 715.418L675.107 716.462C675.542 716.897 675.803 717.506 675.803 718.115C675.803 718.637 675.629 719.159 675.368 719.508L673.366 722.205C671.365 724.902 667.449 725.512 664.752 723.423L671.104 714.722Z" fill="#E9B089"/>
<path d="M670.669 723.771L667.971 726.73C665.448 729.514 661.097 729.775 658.312 727.252L652.482 721.944L657.007 716.201H662.663L667.623 719.595L670.669 723.771Z" fill="#E9B089"/>
<path d="M655.876 713.503L663.446 710.98C664.49 710.632 665.709 711.241 665.97 712.372C666.231 713.155 665.97 714.113 665.274 714.635L660.749 717.506C660.749 717.506 664.839 719.508 661.532 724.206" stroke="black" stroke-width="0.5672" stroke-miterlimit="10" stroke-linecap="round" stroke-linejoin="round"/>
<path d="M652.482 721.857L642.823 735.257L653.613 743.35L663.533 726.904L652.482 721.857Z" fill="#E9B089"/>
<path d="M621.069 759.186L646.303 726.121L662.053 738.303L640.299 772.848C635.861 778.504 629.509 779.896 624.375 775.806C619.764 771.978 615.239 763.624 621.069 759.186Z" fill="#0A1D47"/>
<path d="M550.5 746.83L570.514 732.212L580.695 732.299C580.695 732.299 590.875 733.952 598.272 744.568C605.668 755.184 604.189 840.546 604.189 840.546C604.189 840.546 596.444 839.85 596.357 827.581C596.357 827.581 593.747 844.288 579.65 845.941C565.554 847.681 542.669 843.243 542.669 843.243L558.332 802.172L545.714 766.67C543.452 759.622 545.366 751.964 550.5 746.83Z" fill="#0A1D47"/>
<path d="M590.701 736.824L596.705 747.439H593.66L597.054 751.79C597.054 751.79 599.142 764.93 594.008 780.853L579.563 734.822L580.695 732.299C580.695 732.299 584.61 733.082 587.656 734.909" fill="#FAFAFA"/>
<path d="M563.379 737.346C563.379 737.346 586.873 756.141 593.921 780.679C593.921 780.679 596.532 750.485 580.695 732.212L570.514 732.125L563.379 737.346Z" fill="white"/>
<path d="M564.423 741.783C564.423 741.783 587.83 751.877 586.873 735.692L579.738 721.944C579.738 721.944 563.727 726.904 562.77 727.165L558.593 732.821L557.375 736.65L564.423 741.783Z" fill="#E9B089"/>
<path d="M563.379 737.346L558.419 741L564.945 752.312L571.471 752.399L566.946 756.924C566.946 756.924 584.262 770.499 593.921 780.766C593.921 780.679 587.482 755.88 563.379 737.346Z" fill="#FAFAFA"/>
<path d="M602.796 768.845C602.796 768.845 602.448 761.101 600.795 755.01" stroke="black" stroke-width="0.5672" stroke-miterlimit="10" stroke-linecap="round" stroke-linejoin="round"/>
<path d="M557.896 741.436C557.896 741.436 547.89 744.481 542.495 754.836C537.1 765.191 520.654 789.816 517.608 805.566L540.406 802.868L562.508 770.673L557.896 741.436Z" fill="#0A1D47"/>
<path d="M552.414 785.378L562.508 770.586" stroke="black" stroke-width="0.5672" stroke-miterlimit="10" stroke-linecap="round" stroke-linejoin="round"/>
<path d="M611.585 794.428L574.516 779.548L570.774 788.424L606.973 802.52L611.585 794.428Z" fill="#C27F22"/>
<path d="M573.56 785.552L575.474 781.375L610.193 795.646L608.105 799.823L573.56 785.552Z" fill="white"/>
<path d="M608.278 797.212L586.959 848.29L550.413 832.888L571.036 781.897L608.278 797.212Z" fill="#D59934"/>
<path d="M608.279 797.212L611.585 794.428L590.441 845.419L586.96 848.29L608.279 797.212Z" fill="#C27F22"/>
<path d="M571.297 801.998L594.617 811.57L597.227 805.479L573.907 795.907L571.297 801.998Z" fill="white"/>
<path d="M554.329 811.222L580.173 825.144L577.301 835.238L550.152 825.84L554.329 811.222Z" fill="#E9B089"/>
<path d="M580.172 825.144C580.172 825.144 598.445 821.837 597.749 828.45C597.053 835.064 593.747 850.552 577.301 835.238L580.172 825.144Z" fill="#E9B089"/>
<path d="M579.563 825.927L582 823.23C583.392 821.663 585.307 820.619 587.308 820.184L591.049 819.314C591.92 819.14 592.877 819.575 593.312 820.358C593.747 821.228 593.486 822.36 592.616 822.969L587.134 826.536L579.563 825.927Z" fill="#E9B089"/>
<path d="M535.447 795.733L576.606 817.661L568.6 836.891L525.441 818.705C518.741 816.094 515.608 810.351 518.044 804.347C520.22 798.865 529.53 791.469 535.447 795.733Z" fill="#0A1D47"/>
<path d="M542.67 799.561L535.447 795.733" stroke="black" stroke-width="0.5672" stroke-miterlimit="10" stroke-linecap="round" stroke-linejoin="round"/>
<path d="M585.306 711.763C585.48 710.023 585.915 708.37 586.785 706.716C587.917 704.541 589.657 702.453 592.267 703.671C596.705 705.759 592.354 712.981 587.743 713.591C586.437 713.765 585.219 712.894 585.306 711.763Z" fill="#D7896D"/>
<path d="M593.399 694.273C592.529 703.671 584.436 714.374 574.256 714.374C564.075 714.374 557.462 706.455 555.025 697.232C552.328 686.964 563.988 679.916 574.169 680.09C580.608 680.177 594.356 684.005 593.399 694.273Z" fill="#744028"/>
<path d="M569.122 710.893L566.512 738.825L580.956 738.912L580.086 713.852L569.122 710.893Z" fill="#E9B089"/>
<path d="M580.608 728.383L571.123 719.247L580.086 715.592L580.608 728.383Z" fill="#D7896D"/>
<path d="M571.297 684.005C574.429 683.135 577.736 682.961 580.955 683.57C585.219 684.44 590.788 687.138 591.484 694.969C592.703 708.022 591.049 718.637 584.61 721.596C579.65 723.858 575.996 722.988 570.34 719.682C568.251 718.463 566.163 713.155 565.554 710.719L563.117 703.758C563.03 703.758 556.33 688.095 571.297 684.005Z" fill="#E9B089"/>
<path d="M583.566 703.323L585.655 707.935L584.089 709.153" stroke="black" stroke-width="0.4357" stroke-miterlimit="10" stroke-linecap="round" stroke-linejoin="round"/>
<path d="M585.742 693.664C585.742 693.664 585.22 695.578 587.221 695.926C588.788 696.188 589.745 696.362 590.615 696.797C591.137 697.058 591.659 696.797 591.92 696.275C592.181 695.839 592.181 695.317 591.92 694.882C591.485 694.012 590.441 692.707 588.614 692.359C586.264 692.011 585.742 693.664 585.742 693.664Z" fill="#744028"/>
<path d="M579.738 693.577C579.738 693.577 580.434 695.491 577.563 695.839C575.387 696.101 572.864 696.971 571.646 697.406C570.949 697.667 570.166 697.406 569.818 696.884C569.47 696.449 569.557 695.926 569.905 695.491C570.601 694.621 573.299 692.62 575.909 692.272C579.129 691.837 579.738 693.577 579.738 693.577Z" fill="#744028"/>
<path d="M580.347 702.714C580.347 702.714 579.042 697.58 572.168 701.321C572.168 701.321 574.865 706.716 580.347 702.714Z" fill="white"/>
<path d="M578.956 702.018C579.13 703.323 578.172 704.541 576.867 704.715C575.562 704.889 574.431 703.932 574.257 702.54C574.083 701.234 575.04 700.016 576.345 699.842C577.65 699.755 578.782 700.712 578.956 702.018Z" fill="black"/>
<path d="M572.082 701.235C572.691 700.712 573.474 700.364 574.257 700.103C575.04 699.842 575.823 699.668 576.693 699.755C577.477 699.755 578.347 699.929 579.043 700.451C579.739 700.887 580.348 701.583 580.522 702.54C580.522 702.714 580.435 702.888 580.261 702.888C580.087 702.888 579.913 702.801 579.913 702.627C579.826 702.018 579.304 701.322 578.782 700.887C578.173 700.451 577.389 700.277 576.693 700.19C575.91 700.19 575.127 700.277 574.431 700.451C573.648 700.625 572.952 700.974 572.343 701.409C572.256 701.496 572.169 701.409 572.169 701.409C571.995 701.322 571.995 701.235 572.082 701.235Z" fill="black"/>
<path d="M585.48 702.714C585.48 702.714 587.482 697.58 591.224 701.147C591.224 701.06 589.744 706.107 585.48 702.714Z" fill="white"/>
<path d="M586.785 701.669C586.611 702.888 587.221 704.019 588.178 704.193C589.135 704.367 590.092 703.497 590.266 702.279C590.44 701.06 589.831 699.929 588.874 699.755C587.917 699.581 586.96 700.451 586.785 701.669Z" fill="black"/>
<path d="M591.137 701.147C590.876 700.712 590.441 700.451 590.005 700.19C589.57 700.016 589.048 699.929 588.613 700.103C588.004 700.19 587.395 700.538 586.873 700.973C586.438 701.408 586.003 702.017 585.829 702.54C585.742 702.714 585.655 702.714 585.481 702.714C585.307 702.627 585.307 702.54 585.307 702.366C585.481 702.017 585.655 701.756 585.829 701.408C586.003 701.147 586.264 700.886 586.525 700.625C586.786 700.364 587.134 700.19 587.395 700.016C587.743 699.842 588.091 699.755 588.439 699.755C588.961 699.668 589.57 699.755 590.092 699.929C590.615 700.19 590.963 700.538 591.311 700.973C591.311 701.06 591.311 701.147 591.311 701.147C591.224 701.234 591.137 701.234 591.137 701.147Z" fill="black"/>
<path d="M578.606 711.502C578.606 711.502 583.305 714.026 586.612 710.98" stroke="black" stroke-width="0.4357" stroke-miterlimit="10" stroke-linecap="round" stroke-linejoin="round"/>
<path d="M565.641 707.5C565.641 707.5 571.906 687.573 562.596 687.051L557.549 696.971L560.246 705.237L565.641 707.5Z" fill="#744028"/>
<path d="M567.294 711.763C566.946 709.936 566.25 708.283 565.119 706.716C563.64 704.541 561.638 702.627 559.028 704.193C554.677 706.89 560.072 713.939 564.858 714.026C566.337 714.026 567.468 712.894 567.294 711.763Z" fill="#E9B089"/>
<path d="M560.246 707.674C563.64 706.542 565.467 710.371 565.467 710.371" stroke="black" stroke-width="0.4357" stroke-miterlimit="10" stroke-linecap="round" stroke-linejoin="round"/>
<path d="M563.988 687.573C563.988 687.573 587.134 693.577 595.053 682.613C595.053 682.613 580.434 674.434 567.904 681.134L563.988 687.573Z" fill="#744028"/>
<path d="M563.988 684.005C563.988 684.005 569.035 676.087 578.259 676C578.259 676 575.735 682.352 570.253 684.092C564.771 685.833 563.988 684.005 563.988 684.005Z" fill="#744028"/>
<path d="M561.116 687.051C561.116 687.051 561.377 681.83 565.815 679.307C565.815 679.307 566.337 683.048 564.162 685.398C561.986 687.66 561.116 687.051 561.116 687.051Z" fill="#744028"/>
<path d="M328.002 990.125H313.035V1010.57H328.002V990.125Z" fill="white"/>
<path d="M327.131 1005.18L321.214 1009.09L314.688 1007.01C314.166 1006.83 313.644 1006.83 313.122 1007.09C312.252 1007.44 311.729 1008.31 311.729 1009.18V1017.53H355.759C355.759 1017.53 355.672 1010.14 344.795 1011.97L329.394 1004.92C328.697 1004.66 327.827 1004.74 327.131 1005.18Z" fill="black"/>
<path d="M311.758 1020.39H322.635V1017.61H311.758V1020.39Z" fill="black"/>
<path d="M322.606 1017.62L328.436 1020.41H355.846V1017.62H322.606Z" fill="black"/>
<path d="M270.92 990.125H285.887L283.276 1010.57H268.31L270.92 990.125Z" fill="white"/>
<path d="M282.493 1005.18L276.575 1009.09L270.049 1007.01C269.527 1006.83 269.005 1006.83 268.483 1007.09C267.613 1007.44 267.091 1008.31 267.091 1009.18V1017.53H311.121C311.121 1017.53 311.034 1010.14 300.157 1011.97L284.755 1004.92C283.972 1004.66 283.102 1004.74 282.493 1005.18Z" fill="black"/>
<path d="M267.067 1020.39H277.944V1017.61H267.067V1020.39Z" fill="black"/>
<path d="M277.881 1017.62L283.711 1020.41H311.121V1017.62H277.881Z" fill="black"/>
<path d="M328.524 800.606C328.524 800.606 330.003 803.477 330.96 830.8C331.134 836.456 332.091 846.463 332.091 855.512L331.743 998.74H308.51L305.9 849.073L288.845 998.74L265.351 998.13L279.099 805.914L301.027 803.216L328.524 800.606Z" fill="#212E38"/>
<path d="M305.812 849.073L317.473 844.113" stroke="black" stroke-width="0.4574" stroke-miterlimit="10" stroke-linecap="round" stroke-linejoin="round"/>
<path d="M327.307 809.395L349.67 857.949L356.805 857.427C348.191 824.274 348.191 824.361 341.838 803.913C340.794 800.693 334.268 799.91 331.136 801.128C328.177 802.346 326.176 806.436 327.307 809.395Z" fill="#E9B089"/>
<path d="M349.06 853.598C349.06 853.598 347.233 860.212 350.365 866.216L349.756 872.829C349.669 873.873 350.365 874.743 351.322 875.004C352.367 875.265 353.498 874.569 353.759 873.438L354.803 869.609L355.151 870.914C355.76 873.003 355.586 875.265 354.716 877.354L352.28 883.184C352.019 883.88 351.235 883.706 351.671 884.315C352.541 885.359 354.194 885.185 354.89 883.967L359.937 877.528C361.59 874.743 361.851 871.349 360.807 868.391L354.368 851.423L349.06 853.598Z" fill="#E9B089"/>
<path d="M343.578 803.216L341.663 772.326C338.966 748.658 324.173 742.306 324.173 742.306L322.955 782.594L327.48 780.157L330.699 822.186L344.274 853.685L357.587 848.116L343.578 803.216Z" fill="white"/>
<path d="M300.853 736.65C294.588 737.172 288.41 738.564 282.493 740.826C280.84 741.436 279.186 742.219 277.707 743.002C273.53 745.177 274.749 749.963 275.271 754.749L277.707 820.184L328.872 818.966C331.221 818.879 332.962 816.965 332.875 814.615L330.873 762.145C330.699 752.922 329.046 743.959 322.955 741.784C316.081 739.347 307.64 736.65 303.899 736.389L300.853 736.65Z" fill="#FFCC00"/>
<path d="M319.822 740.653C319.822 740.653 310.077 736.824 303.898 736.302C303.898 736.302 295.458 736.65 289.628 738.477L310.86 766.409L319.822 740.653Z" fill="white"/>
<path d="M307.901 741.175L303.638 746.57L308.772 750.224L312.774 745.96L307.901 741.175Z" fill="#294286"/>
<path d="M307.641 747.962L305.117 758.926L310.773 766.409L312.775 760.753L309.381 747.962H307.641Z" fill="#294286"/>
<path d="M303.464 746.831L302.245 748.658L295.371 745.699" stroke="#E0E0E0" stroke-width="0.75" stroke-miterlimit="10" stroke-linecap="round" stroke-linejoin="round"/>
<path d="M312.774 745.96L314.341 747.44L317.995 744.655" stroke="#E0E0E0" stroke-width="0.75" stroke-miterlimit="10" stroke-linecap="round" stroke-linejoin="round"/>
<path d="M279.622 741.958C279.622 741.958 263.785 744.481 230.197 790.164L247.513 803.738L275.271 771.543C286.148 757.272 279.622 741.958 279.622 741.958Z" fill="white"/>
<path d="M269.442 757.272L307.032 770.934L303.9 780.07L267.44 766.409L269.442 757.272Z" fill="black"/>
<path d="M303.725 776.068L305.117 771.63L269.702 759.1L268.396 763.624L303.725 776.068Z" fill="white"/>
<path d="M270.051 761.536L251.777 813.832L289.281 826.798L307.989 775.023L270.051 761.536Z" fill="#212E38"/>
<path d="M270.05 761.536L269.441 757.272L251.168 809.394L251.777 813.832L270.05 761.536Z" fill="black"/>
<path d="M294.414 789.816L270.572 781.376L272.748 775.11L296.59 783.551L294.414 789.816Z" fill="white"/>
<path d="M257.084 794.254L284.668 804.261L283.276 814.615L255.083 809.307L257.084 794.254Z" fill="#E9B089"/>
<path d="M284.668 804.261C284.668 804.261 302.245 798.256 302.593 804.87C302.854 811.483 301.897 827.32 283.275 814.528L284.668 804.261Z" fill="#E9B089"/>
<path d="M284.146 805.131L286.235 802.172C287.453 800.432 289.106 799.127 291.021 798.343L294.675 796.951C295.545 796.603 296.503 796.951 297.025 797.647C297.634 798.518 297.46 799.649 296.677 800.258L291.804 804.609L284.146 805.131Z" fill="#E9B089"/>
<path d="M243.162 787.031L278.925 798.605L275.619 816.791L235.679 806.784C229.501 804.957 226.368 797.995 229.153 792.078C231.589 786.944 237.854 784.682 243.162 787.031Z" fill="white"/>
<path d="M257.171 791.643L247.513 788.511" stroke="#E0E0E0" stroke-width="0.75" stroke-miterlimit="10" stroke-linecap="round" stroke-linejoin="round"/>
<path d="M305.987 680.351C305.987 680.351 318.082 674.956 324.348 681.569C329.22 686.703 320.867 695.752 316.429 695.23C311.991 694.708 305.987 680.351 305.987 680.351Z" fill="white"/>
<path d="M316.168 711.328C316.342 709.588 316.778 707.761 317.648 706.194C318.779 703.932 320.519 701.757 323.217 702.975C327.828 705.063 323.391 712.546 318.779 713.156C317.3 713.417 316.081 712.459 316.168 711.328Z" fill="#D7896D"/>
<path d="M322.346 696.362C322.52 706.107 315.211 714.026 304.769 714.2C294.327 714.374 285.713 706.629 285.539 696.884C285.365 687.138 293.805 679.133 304.247 679.046C314.776 678.784 322.259 686.616 322.346 696.362Z" fill="white"/>
<path d="M299.461 710.632L297.373 736.998L307.902 741.174L311.905 738.129L310.773 713.504L299.461 710.632Z" fill="#E9B089"/>
<path d="M311.469 728.47L301.724 719.246L310.86 715.331L311.469 728.47Z" fill="#D7896D"/>
<path d="M301.375 682.961C304.595 682.004 307.988 681.83 311.208 682.439C315.646 683.309 321.302 686.007 322.172 694.012C323.564 707.412 322.085 718.289 315.472 721.422C310.425 723.858 306.683 722.988 300.766 719.682C298.591 718.463 296.415 713.068 295.806 710.545L293.196 703.41C293.109 703.323 286.061 687.399 301.375 682.961Z" fill="#E9B089"/>
<path d="M314.515 703.671L316.168 706.716L314.95 707.674" stroke="black" stroke-width="0.4473" stroke-miterlimit="10" stroke-linecap="round" stroke-linejoin="round"/>
<path d="M316.342 692.011C316.342 692.011 315.82 693.925 317.908 694.273C319.475 694.534 320.519 694.708 321.389 695.143C321.911 695.404 322.433 695.143 322.781 694.621C323.042 694.186 323.042 693.664 322.781 693.229C322.259 692.359 321.215 691.054 319.301 690.706C316.777 690.271 316.342 692.011 316.342 692.011Z" fill="white"/>
<path d="M310.164 691.924C310.164 691.924 310.861 693.838 307.989 694.273C305.814 694.621 303.203 695.491 301.898 696.014C301.202 696.275 300.419 696.101 299.984 695.578C299.636 695.143 299.636 694.621 299.984 694.186C300.68 693.316 303.377 691.228 306.075 690.793C309.555 690.184 310.164 691.924 310.164 691.924Z" fill="white"/>
<path d="M310.6 701.931C310.6 701.931 309.12 696.623 302.159 700.625C302.246 700.538 305.118 706.02 310.6 701.931Z" fill="white"/>
<path d="M309.208 701.147C309.382 702.54 308.425 703.758 307.119 703.932C305.814 704.106 304.596 703.149 304.422 701.757C304.248 700.364 305.205 699.146 306.51 698.972C307.815 698.885 309.034 699.842 309.208 701.147Z" fill="black"/>
<path d="M302.159 700.451C302.855 699.929 303.551 699.581 304.334 699.32C305.118 699.059 305.901 698.885 306.771 698.885C307.641 698.885 308.424 699.059 309.207 699.494C309.99 699.929 310.512 700.625 310.774 701.582C310.774 701.757 310.686 701.931 310.512 701.931C310.338 701.931 310.164 701.844 310.164 701.669C309.99 700.973 309.555 700.364 308.946 699.929C308.337 699.494 307.554 699.32 306.771 699.32C305.988 699.32 305.205 699.407 304.421 699.668C303.638 699.929 302.942 700.277 302.333 700.712C302.246 700.799 302.159 700.712 302.159 700.712C302.072 700.625 302.072 700.538 302.159 700.451Z" fill="black"/>
<path d="M316.169 702.018C316.169 702.018 318.17 696.71 322.086 700.277C322.086 700.277 320.607 705.498 316.169 702.018Z" fill="white"/>
<path d="M317.475 700.973C317.301 702.279 317.91 703.41 318.954 703.497C319.911 703.671 320.955 702.714 321.129 701.496C321.303 700.19 320.694 699.059 319.65 698.972C318.606 698.798 317.649 699.668 317.475 700.973Z" fill="black"/>
<path d="M321.911 700.364C321.65 699.929 321.215 699.581 320.78 699.407C320.345 699.233 319.823 699.146 319.388 699.32C319.04 699.407 318.779 699.494 318.431 699.668C318.17 699.842 317.908 700.016 317.647 700.277C317.212 700.712 316.777 701.321 316.516 701.931C316.429 702.105 316.342 702.105 316.168 702.105C315.994 702.018 315.994 701.931 315.994 701.757C316.168 701.408 316.342 701.06 316.516 700.799C316.69 700.538 316.951 700.19 317.212 700.016C317.473 699.755 317.821 699.581 318.17 699.407C318.518 699.233 318.866 699.146 319.214 699.059C319.475 698.972 319.823 698.972 320.084 698.972C320.345 698.972 320.606 699.059 320.867 699.233C321.389 699.494 321.824 699.842 322.085 700.277C322.085 700.364 322.085 700.451 322.085 700.451C322.085 700.451 321.998 700.451 321.911 700.364Z" fill="black"/>
<path d="M315.212 709.153C315.038 708.631 314.516 708.196 313.994 708.022C313.036 707.761 311.296 707.761 309.556 709.588C306.945 712.46 304.422 712.198 303.552 711.589C303.552 711.589 308.338 717.68 314.516 712.547C314.429 712.634 315.908 710.893 315.212 709.153Z" fill="white"/>
<path d="M314.429 710.545C314.081 708.979 315.473 707.674 316.952 707.935C317.736 708.022 318.693 708.457 319.65 709.501C322.086 712.112 323.566 711.937 324.349 711.328C324.349 711.328 320.781 716.897 315.125 712.199C315.212 712.199 314.69 711.502 314.429 710.545Z" fill="white"/>
<path opacity="0.22" d="M321.563 696.71L326.349 701.931C326.349 701.931 326.349 705.672 322.868 706.02L315.472 697.754C315.559 697.754 315.907 695.84 321.563 696.71Z" fill="white"/>
<path opacity="0.22" d="M305.987 696.71L311.643 702.627C311.643 702.627 311.643 706.455 307.293 706.02L299.113 697.319C299.113 697.319 300.854 696.623 305.987 696.71Z" fill="white"/>
<path d="M312.339 699.32C312.252 700.712 312.078 702.801 311.121 704.628C310.686 705.498 309.816 706.02 308.859 706.107H301.984C300.592 706.02 299.548 704.976 299.287 703.671C299.026 702.54 298.939 701.061 299.113 699.581C299.287 698.363 300.157 697.406 301.375 697.145C303.551 696.71 310.599 696.971 310.599 696.971C311.73 697.058 312.426 698.189 312.339 699.32Z" stroke="black" stroke-width="1.009" stroke-miterlimit="10" stroke-linecap="round" stroke-linejoin="round"/>
<path d="M302.333 696.449L297.808 696.71C297.547 696.71 297.373 696.971 297.373 697.232V698.102C297.373 698.276 297.46 698.363 297.547 698.45L299.026 699.494C299.113 699.407 299.896 696.71 302.333 696.449Z" fill="black"/>
<path d="M315.56 699.233C315.647 700.625 315.734 702.801 316.604 704.628C317.039 705.498 317.909 706.02 318.866 706.107H323.391C324.783 706.02 325.827 704.976 326.088 703.671C326.349 702.54 326.436 701.061 326.262 699.581C326.088 698.363 325.218 697.406 324 697.145C321.825 696.71 317.213 696.884 317.213 696.884C315.908 696.797 315.472 698.015 315.56 699.233Z" stroke="black" stroke-width="1.009" stroke-miterlimit="10" stroke-linecap="round" stroke-linejoin="round"/>
<path d="M323.13 696.449L327.655 696.71C327.916 696.71 328.09 696.971 328.09 697.232V698.102C328.09 698.276 328.003 698.363 327.916 698.45L326.436 699.494C326.349 699.407 325.566 696.71 323.13 696.449Z" fill="black"/>
<path d="M315.56 701.321C315.56 701.321 314.428 700.19 312.253 701.496" stroke="black" stroke-width="1.009" stroke-miterlimit="10" stroke-linecap="round" stroke-linejoin="round"/>
<path d="M293.37 703.932L299.113 698.276" stroke="black" stroke-width="1.009" stroke-miterlimit="10" stroke-linecap="round" stroke-linejoin="round"/>
<path d="M297.634 711.589C297.199 709.762 296.503 708.022 295.372 706.368C293.893 704.193 291.717 702.192 289.107 703.845C284.669 706.716 290.325 713.852 295.285 713.852C296.677 713.852 297.895 712.72 297.634 711.589Z" fill="#E9B089"/>
<path d="M290.325 707.499C293.806 706.281 295.72 710.197 295.72 710.197" stroke="black" stroke-width="0.4473" stroke-miterlimit="10" stroke-linecap="round" stroke-linejoin="round"/>
<path d="M311.208 682.439C311.208 682.439 306.684 681.134 304.943 685.746C302.507 692.098 295.285 694.882 289.106 692.968C289.106 692.968 290.499 684.005 299.809 681.308C308.946 678.697 311.208 682.439 311.208 682.439Z" fill="white"/>
<path d="M311.469 680.351C311.469 680.351 309.468 675.565 300.94 676.522C290.76 677.653 284.843 686.268 286.409 691.315C287.627 695.23 295.719 689.661 295.719 689.661L311.469 680.351Z" fill="white"/>
<path d="M399.18 1011.53L390.827 1016.14C389.956 1016.66 389.434 1017.8 389.695 1018.84C389.956 1019.71 390.653 1020.32 392.48 1020.32C396.657 1020.41 419.455 1017.36 419.455 1017.36V1019.71H428.069C428.069 1019.71 428.591 1007.53 425.981 1005.96L399.18 1011.53Z" fill="black"/>
<path d="M414.842 1003.96L399.18 1011.53C399.18 1011.53 405.097 1015.71 411.449 1012.92C417.888 1010.14 425.893 1005.96 425.893 1005.96L424.762 1002.83L414.842 1003.96Z" fill="#C67B5B"/>
<path d="M424.763 1002.74L425.894 967.762L413.886 968.545V1007.62L424.763 1002.74Z" fill="#C67B5B"/>
<path d="M503.599 1011.53L511.952 1016.14C512.823 1016.66 513.345 1017.8 513.084 1018.84C512.823 1019.71 512.127 1020.32 510.299 1020.32C506.123 1020.41 483.324 1017.36 483.324 1017.36V1019.8L474.884 1019.71C474.884 1019.71 474.188 1007.53 476.798 1005.96L503.599 1011.53Z" fill="black"/>
<path d="M487.85 1003.96L503.512 1011.53C503.512 1011.53 497.595 1015.71 491.243 1012.92C484.804 1010.14 476.799 1005.96 476.799 1005.96L477.93 1002.83L487.85 1003.96Z" fill="#C67B5B"/>
<path d="M478.016 1002.74L469.228 967.762L481.236 968.545L489.85 1008.4L478.016 1002.74Z" fill="#C67B5B"/>
<path d="M421.282 799.127C421.282 799.127 404.662 826.101 405.097 850.031C405.532 873.873 411.362 992.213 411.362 992.213H431.202L435.205 842.634L437.641 842.46L468.618 992.213L487.24 990.386L467.574 851.249C466.269 842.634 463.92 834.194 460.613 826.188C457.741 819.314 454.348 807.741 449.388 801.737L421.282 799.127Z" fill="#FAFAFA"/>
<path d="M435.379 842.721L446.517 842.025" stroke="black" stroke-width="0.4574" stroke-miterlimit="10" stroke-linecap="round" stroke-linejoin="round"/>
<path d="M393.524 771.804L378.731 793.732C373.597 801.824 385.866 810.09 391.435 802.346L416.496 768.932L393.524 771.804Z" fill="#C67B5B"/>
<path d="M414.929 746.134C405.619 743.089 391.435 767.018 385.866 775.719L408.316 790.512C412.493 783.638 440.164 756.054 414.929 746.134Z" fill="#1E2959"/>
<path d="M451.911 745.873C451.911 745.873 468.009 746.917 468.618 770.585L457.567 773.109L451.911 745.873Z" fill="#1E2959"/>
<path d="M412.58 745.786C430.592 742.48 440.512 742.48 453.999 746.308C469.314 750.659 456.349 791.904 452.781 807.48H417.018L405.01 760.927C406.576 757.272 406.924 746.134 412.58 745.786Z" fill="#1E2959"/>
<path d="M411.884 787.902L407.62 769.802" stroke="black" stroke-width="0.4443" stroke-miterlimit="10" stroke-linecap="round" stroke-linejoin="round"/>
<path d="M458.002 781.724L460.612 763.624" stroke="black" stroke-width="0.4443" stroke-miterlimit="10" stroke-linecap="round" stroke-linejoin="round"/>
<path d="M439.033 750.92L427.895 744.046L428.504 740.217H426.677C425.894 740.217 425.198 740.478 424.676 741.087L421.282 744.394L429.027 755.967C429.81 757.185 431.55 757.446 432.594 756.489L439.033 750.92Z" fill="white"/>
<path d="M442.427 740.13H443.819C444.776 740.13 445.646 740.652 446.255 741.435L448.605 744.916L447.561 754.923C447.474 755.967 446.255 756.489 445.472 755.793L439.12 750.92L442.688 744.916L442.427 740.13Z" fill="white"/>
<path d="M440.165 755.706C440.165 756.315 439.643 756.837 439.034 756.837C438.424 756.837 437.902 756.315 437.902 755.706C437.902 755.097 438.424 754.575 439.034 754.575C439.643 754.575 440.165 755.097 440.165 755.706Z" fill="white"/>
<path d="M440.425 760.057C440.425 760.666 439.903 761.188 439.294 761.188C438.685 761.188 438.163 760.666 438.163 760.057C438.163 759.448 438.685 758.926 439.294 758.926C439.903 759.013 440.425 759.448 440.425 760.057Z" fill="white"/>
<path d="M429.287 781.201C429.287 781.201 435.552 770.15 451.911 776.677L445.559 790.251L431.288 789.729L429.287 781.201Z" fill="#C67B5B"/>
<path d="M429.287 781.201L385.257 788.772L387.867 805.131L431.201 789.729L429.287 781.201Z" fill="#C67B5B"/>
<path d="M401.181 786.074L390.391 787.902" stroke="black" stroke-width="0.4443" stroke-miterlimit="10" stroke-linecap="round" stroke-linejoin="round"/>
<path d="M432.419 816.356L429.461 813.049L447.56 770.499C447.56 770.499 480.017 765.017 493.33 769.541L432.419 816.356Z" fill="white"/>
<path d="M493.331 769.628L486.282 770.586L465.225 811.831C465.225 811.831 471.316 812.005 474.013 806.697L493.331 769.628Z" fill="black"/>
<path d="M486.194 770.585L450.083 773.805L432.419 816.355L465.224 811.831L486.194 770.585Z" fill="#212E38"/>
<path d="M474.1 780.592L453.825 782.333L451.911 787.205L471.577 785.378L474.1 780.592Z" fill="white"/>
<path d="M493.33 769.628L489.066 750.05H484.889L476.797 768.584L493.33 769.628Z" fill="white"/>
<path d="M478.016 798.953C478.016 798.953 482.802 800.171 486.892 793.906C490.981 787.728 486.979 784.421 486.979 784.421L476.798 777.199C476.363 776.938 475.754 776.938 475.406 777.286C474.971 777.721 474.971 778.417 475.406 778.852L481.497 784.682L472.36 778.678C471.664 778.243 470.707 778.417 470.272 779.113C469.924 779.722 470.011 780.592 470.62 781.027L479.147 787.641L471.49 783.725C470.881 783.377 470.098 783.638 469.837 784.247C469.576 784.769 469.75 785.465 470.185 785.813L477.929 791.469L471.316 788.337C470.707 788.076 469.924 788.25 469.576 788.946C469.228 789.555 469.402 790.251 469.924 790.599L478.886 797.125L478.016 798.953Z" fill="#C67B5B"/>
<path d="M446.866 718.115C447.04 716.375 447.475 714.635 448.345 712.981C449.476 710.719 451.216 708.631 453.914 709.849C458.439 711.937 454.088 719.334 449.476 720.03C447.997 720.204 446.779 719.247 446.866 718.115Z" fill="#A4563A"/>
<path d="M453.318 719.917C453.972 719.761 454.377 719.104 454.221 718.45C454.066 717.795 453.409 717.391 452.755 717.546C452.1 717.702 451.695 718.358 451.851 719.013C452.007 719.668 452.663 720.072 453.318 719.917Z" fill="white"/>
<path d="M427.203 729.789C431.689 725.303 431.689 718.031 427.203 713.545C422.718 709.06 415.445 709.06 410.96 713.545C406.474 718.031 406.474 725.303 410.96 729.789C415.445 734.275 422.718 734.275 427.203 729.789Z" fill="black"/>
<path d="M421.892 692.011C421.892 692.011 418.498 690.183 414.93 695.23C411.363 700.364 411.885 710.98 419.194 712.894L421.892 692.011Z" fill="black"/>
<path d="M421.892 692.011C421.892 692.011 423.806 682.091 438.773 684.092C453.739 686.094 463.659 692.533 453.217 706.716L421.892 692.011Z" fill="black"/>
<path d="M453.043 704.019C453.217 713.678 445.995 721.596 435.553 721.77C425.198 721.944 416.584 714.2 416.497 704.541C416.323 694.882 424.676 686.964 435.031 686.79C445.473 686.616 452.869 694.36 453.043 704.019Z" fill="black"/>
<path d="M431.811 718.202L427.896 744.046L439.033 750.92L442.601 744.916L441.47 721.074L431.811 718.202Z" fill="#C67B5B"/>
<path d="M442.167 735.954L432.508 726.73L441.557 722.901L442.167 735.954Z" fill="#A4563A"/>
<path d="M432.16 690.706C435.292 689.748 438.686 689.574 441.992 690.183C446.343 691.054 451.999 693.751 452.869 701.757C454.262 715.07 452.782 725.077 446.169 728.209C441.122 730.559 437.468 729.775 431.551 726.469C429.375 725.251 427.2 720.639 426.591 718.115L423.98 710.98C423.98 710.98 416.932 695.143 432.16 690.706Z" fill="#C67B5B"/>
<path d="M445.299 714.2L447.126 717.593L445.56 718.898" stroke="black" stroke-width="0.4443" stroke-miterlimit="10" stroke-linecap="round" stroke-linejoin="round"/>
<path d="M447.039 702.627C447.039 702.627 446.517 703.932 448.606 704.193C450.172 704.367 451.129 704.454 451.999 704.715C452.521 704.889 453.043 704.715 453.392 704.367C453.653 704.106 453.653 703.671 453.392 703.41C452.869 702.801 451.825 701.931 449.998 701.669C447.475 701.408 447.039 702.627 447.039 702.627Z" fill="black"/>
<path d="M440.862 702.627C440.862 702.627 441.558 703.932 438.686 704.193C436.511 704.367 433.9 705.063 432.682 705.324C431.986 705.498 431.203 705.324 430.768 704.976C430.42 704.715 430.42 704.28 430.768 704.019C431.464 703.41 434.161 702.018 436.859 701.669C440.253 701.408 440.862 702.627 440.862 702.627Z" fill="black"/>
<path d="M441.644 712.372C441.644 712.372 440.164 707.152 433.29 711.067C433.29 711.067 436.162 715.853 441.644 712.372Z" fill="white"/>
<path d="M439.99 711.415C440.164 712.633 439.294 713.765 438.163 713.939C436.945 714.113 435.9 713.243 435.726 712.024C435.552 710.806 436.422 709.675 437.554 709.501C438.685 709.327 439.816 710.197 439.99 711.415Z" fill="black"/>
<path d="M433.204 710.893C433.9 710.371 434.596 710.023 435.379 709.762C436.162 709.501 436.945 709.327 437.815 709.327C438.686 709.327 439.469 709.501 440.252 709.936C440.948 710.371 441.557 711.067 441.818 712.024C441.818 712.198 441.731 712.372 441.557 712.372C441.383 712.372 441.209 712.285 441.209 712.111C441.035 711.415 440.6 710.806 439.991 710.371C439.382 709.936 438.599 709.762 437.815 709.762C437.032 709.762 436.249 709.849 435.553 710.11C434.77 710.371 434.074 710.632 433.465 711.154C433.378 711.241 433.291 711.154 433.291 711.154C433.117 711.067 433.117 710.98 433.204 710.893Z" fill="black"/>
<path d="M446.865 712.285C446.865 712.285 448.867 707.064 452.695 710.545C452.695 710.545 450.52 715.592 446.865 712.285Z" fill="white"/>
<path d="M448.257 711.067C448.083 712.198 448.692 713.156 449.563 713.33C450.433 713.504 451.303 712.633 451.477 711.589C451.651 710.458 451.042 709.501 450.172 709.327C449.301 709.153 448.431 710.023 448.257 711.067Z" fill="black"/>
<path d="M452.608 710.632C452.347 710.197 451.912 709.849 451.477 709.675C451.042 709.501 450.52 709.414 450.085 709.588C449.737 709.675 449.476 709.762 449.128 709.936C448.867 710.11 448.606 710.284 448.345 710.545C447.91 710.98 447.474 711.589 447.3 712.198C447.213 712.372 447.126 712.372 446.952 712.372C446.778 712.285 446.778 712.198 446.778 712.024C446.952 711.676 447.126 711.328 447.3 711.067C447.474 710.806 447.735 710.458 447.997 710.284C448.258 710.023 448.606 709.849 448.954 709.675C449.302 709.501 449.65 709.414 449.998 709.327C450.259 709.24 450.607 709.24 450.868 709.24C451.129 709.24 451.39 709.327 451.651 709.501C452.173 709.762 452.608 710.11 452.869 710.545C452.869 710.632 452.869 710.719 452.869 710.719C452.695 710.719 452.608 710.719 452.608 710.632Z" fill="black"/>
<path d="M446.866 721.77C446.866 721.77 446.344 723.771 443.994 723.684C440.862 723.51 439.557 720.987 439.557 720.987L446.866 721.77Z" fill="#BE5640"/>
<path d="M439.905 720.987C439.905 720.987 446.344 719.856 446.779 721.683C446.779 721.683 442.255 722.379 439.905 720.987Z" fill="#BE5640"/>
<path d="M447.214 721.509C447.214 721.509 443.821 723.162 439.383 720.726" stroke="black" stroke-width="0.4443" stroke-miterlimit="10" stroke-linecap="round" stroke-linejoin="round"/>
<path d="M426.417 714.896C426.417 714.896 433.552 699.494 423.719 694.534C423.719 694.534 420.587 691.402 419.02 699.755C416.497 713.156 426.417 714.896 426.417 714.896Z" fill="black"/>
<path d="M428.418 718.376C427.983 716.549 427.287 714.809 426.155 713.243C424.676 711.067 422.501 709.066 419.89 710.719C415.453 713.504 421.109 720.639 425.981 720.639C427.461 720.639 428.679 719.508 428.418 718.376Z" fill="#C67B5B"/>
<path d="M421.195 714.287C424.676 713.069 426.59 716.897 426.59 716.897" stroke="black" stroke-width="0.4443" stroke-miterlimit="10" stroke-linecap="round" stroke-linejoin="round"/>
<path d="M426.591 720.117C426.591 720.813 426.069 721.335 425.373 721.335C424.676 721.335 424.154 720.813 424.154 720.117C424.154 719.421 424.676 718.899 425.373 718.899C426.069 718.899 426.591 719.421 426.591 720.117Z" fill="white"/>
<path d="M424.938 695.143C424.938 695.143 433.639 698.711 441.035 695.143C448.432 691.576 452.782 698.363 452.782 698.363C452.782 698.363 450.172 687.573 437.903 688.443C425.547 689.226 424.938 695.143 424.938 695.143Z" fill="black"/>
</svg>
