<svg width="9" height="11" viewBox="0 0 9 11" fill="none" xmlns="http://www.w3.org/2000/svg">
<g clip-path="url(#clip0_240_4647)">
<path fill-rule="evenodd" clip-rule="evenodd" d="M8.72918 5.01624H7.89022V4.92001V3.32265C7.89022 2.40911 7.49906 1.57847 6.86968 0.976644V0.975838C6.24001 0.373918 5.3709 0 4.4146 0C3.45905 0 2.59012 0.373918 1.96045 0.975838L1.95951 0.976644C1.33013 1.57847 0.938975 2.40911 0.938975 3.32265V4.92001V5.01624H0.270726C0.121832 5.01624 -9.34601e-05 5.1328 -9.34601e-05 5.27504V10.7412C-9.34601e-05 10.8834 0.121832 11 0.270726 11H8.72918C8.87807 11 9 10.8834 9 10.7412V5.27504C9 5.1328 8.87807 5.01624 8.72918 5.01624ZM6.53986 5.01624H2.28961V4.92001V3.30421C2.28961 2.74561 2.52878 2.23742 2.91347 1.86923L2.91394 1.86959C3.29891 1.50131 3.83044 1.27259 4.4146 1.27259C4.99903 1.27259 5.53056 1.50122 5.916 1.86923C6.30079 2.23742 6.53986 2.74561 6.53986 3.30421V4.9201V5.01624ZM4.39746 8.00723L3.96847 9.89955L5.14437 9.9043L4.79929 7.98655C5.12058 7.88808 5.35348 7.60028 5.35348 7.26047C5.35348 6.83964 4.99669 6.49858 4.55628 6.49858C4.11634 6.49858 3.75927 6.83964 3.75927 7.26047C3.75927 7.62928 4.03346 7.93695 4.39746 8.00723Z" fill="#FF9F1C"/>
</g>
<defs>
<clipPath id="clip0_240_4647">
<rect width="9" height="11" fill="white" transform="matrix(-1 0 0 1 9 0)"/>
</clipPath>
</defs>
</svg>
