<svg width="24" height="24" viewBox="0 0 24 24" fill="none" xmlns="http://www.w3.org/2000/svg">
<rect width="24" height="24" rx="3" fill="#0A1D47"/>
<g clip-path="url(#clip0_404_38)">
<path d="M17.5781 10.4305C17.7312 10.4305 17.8559 10.5486 17.8559 10.6952C17.8559 10.7072 17.8538 10.7181 17.8527 10.7291C17.8538 10.74 17.8559 10.752 17.8559 10.763C17.8559 10.7859 17.8516 10.8089 17.8461 10.8319C17.9719 10.8428 18.0703 10.9413 18.0703 11.0638V12.07C18.0703 12.1991 17.9598 12.3041 17.8242 12.3041C17.8231 12.3041 17.8231 12.3041 17.822 12.3041C17.8133 12.4255 17.7072 12.5217 17.5781 12.5217C17.4491 12.5217 17.343 12.4255 17.3342 12.3041C17.3331 12.3041 17.3331 12.3041 17.332 12.3041C17.1964 12.3041 17.0859 12.1991 17.0859 12.07V11.0638C17.0859 10.9413 17.1844 10.8428 17.3102 10.8319C17.3047 10.8089 17.3003 10.7859 17.3003 10.763C17.3003 10.7509 17.3025 10.74 17.3036 10.7291C17.3025 10.7181 17.3003 10.7061 17.3003 10.6952C17.3003 10.5486 17.425 10.4305 17.5781 10.4305ZM17.5781 10.2664C17.3342 10.2664 17.1362 10.4589 17.1362 10.6952C17.1362 10.7017 17.1363 10.7083 17.1373 10.7149C17.0083 10.7816 16.9219 10.9128 16.9219 11.0649V12.0711C16.9219 12.2472 17.04 12.397 17.2041 12.4495C17.2686 12.5895 17.413 12.6869 17.5781 12.6869C17.7433 12.6869 17.8877 12.5895 17.9522 12.4495C18.1162 12.397 18.2344 12.2472 18.2344 12.0711V11.0649C18.2344 10.9139 18.1491 10.7816 18.0189 10.7149C18.0189 10.7083 18.02 10.7017 18.02 10.6952C18.02 10.4589 17.822 10.2664 17.5781 10.2664Z" fill="white"/>
<path d="M17.8242 10.8297C17.6886 10.8297 17.5781 10.9347 17.5781 11.0638V12.07C17.5781 12.1991 17.6886 12.3041 17.8242 12.3041C17.9598 12.3041 18.0703 12.1991 18.0703 12.07V11.0638C18.0703 10.9347 17.9598 10.8297 17.8242 10.8297Z" fill="white"/>
<path d="M17.332 10.8297C17.1964 10.8297 17.0859 10.9347 17.0859 11.0638V12.07C17.0859 12.1991 17.1964 12.3041 17.332 12.3041C17.4677 12.3041 17.5781 12.1991 17.5781 12.07V11.0638C17.5781 10.9347 17.4677 10.8297 17.332 10.8297Z" fill="white"/>
<path d="M17.5781 10.8297C17.4425 10.8297 17.332 10.9347 17.332 11.0638V12.2877C17.332 12.4167 17.4425 12.5217 17.5781 12.5217C17.7138 12.5217 17.8242 12.4167 17.8242 12.2877V11.0638C17.8242 10.9347 17.7138 10.8297 17.5781 10.8297Z" fill="white"/>
<path d="M17.5782 10.9828C17.745 10.9828 17.8801 10.8541 17.8801 10.6952C17.8801 10.5363 17.745 10.4075 17.5782 10.4075C17.4115 10.4075 17.2764 10.5363 17.2764 10.6952C17.2764 10.8541 17.4115 10.9828 17.5782 10.9828Z" fill="white"/>
<path d="M17.5781 10.6919C17.518 10.6919 17.4688 10.6427 17.4688 10.5825V6.42627C17.4688 6.36611 17.518 6.31689 17.5781 6.31689C17.6383 6.31689 17.6875 6.36611 17.6875 6.42627V10.5825C17.6875 10.6427 17.6383 10.6919 17.5781 10.6919Z" fill="white"/>
<path d="M11.9093 17.6033C11.4718 17.6033 11.1152 17.2511 11.1152 16.819V14.9619H12.8827V16.819C12.8827 17.2522 12.5262 17.6033 12.0887 17.6033H11.9093Z" fill="white"/>
<path d="M12.7743 15.0712V16.819C12.7743 17.1909 12.467 17.4939 12.0896 17.4939H11.9092C11.5318 17.4939 11.2245 17.1909 11.2245 16.819V15.0712H12H12.7743ZM12.9931 14.8525H12H11.0068V16.819C11.0068 17.3123 11.4115 17.7126 11.9103 17.7126H12.0907C12.5895 17.7126 12.9942 17.3123 12.9942 16.819V14.8525H12.9931Z" fill="white"/>
<path d="M6.47656 19.2734V18.2333C6.47656 16.2241 9.77422 15.7931 10.9281 15.7045L11.8698 16.9131C11.9005 16.9536 11.9486 16.9766 11.9989 16.9766C12.0492 16.9766 12.0973 16.9536 12.128 16.9131L13.0686 15.7067C15.1434 15.8773 17.5223 16.6353 17.5223 18.2322V19.2723H6.47656V19.2734Z" fill="white"/>
<path d="M10.8538 15.8751L11.7419 17.0148C11.8031 17.0936 11.8994 17.1406 12 17.1406C12.1006 17.1406 12.1969 17.0936 12.2592 17.0137L13.1452 15.8773C14.3209 15.9823 15.3709 16.2481 16.1147 16.6331C16.9405 17.0608 17.3594 17.5989 17.3594 18.2322V19.1093H6.64062V18.2333C6.64062 17.5628 7.05953 17.0115 7.88641 16.5937C8.62359 16.2208 9.64625 15.9736 10.8538 15.8751ZM11.0047 15.535C8.5525 15.7034 6.3125 16.5084 6.3125 18.2333V19.4375H17.6875V18.2333C17.6875 16.6036 15.4584 15.7198 12.9942 15.5372L12 16.8125L11.0047 15.535Z" fill="white"/>
<path d="M12.0001 15.4202C11.7485 15.4202 11.463 15.3655 11.1732 15.2638C9.93287 14.8252 8.48584 13.4766 8.48584 11.1196C8.48584 7.9783 10.3791 6.86377 12.0001 6.86377C13.621 6.86377 15.5143 7.9783 15.5143 11.1196C15.5143 13.4799 14.064 14.8274 12.8226 15.2649C12.5349 15.3666 12.2505 15.4202 12.0001 15.4202Z" fill="white"/>
<path d="M12.0001 6.97314C12.9199 6.97314 13.7566 7.32861 14.3571 7.97393C15.0429 8.71002 15.4049 9.7983 15.4049 11.1206C15.4049 13.4241 13.994 14.7377 12.7865 15.1631C12.5097 15.2605 12.2385 15.3119 12.0001 15.3119C11.7605 15.3119 11.4871 15.2594 11.2093 15.161C10.0029 14.7344 8.59521 13.4197 8.59521 11.1206C8.59521 9.7983 8.95725 8.71111 9.64303 7.97393C10.2435 7.32861 11.0802 6.97314 12.0001 6.97314ZM12.0001 6.75439C10.1188 6.75439 8.37646 8.1533 8.37646 11.1196C8.37646 13.5028 9.85193 14.9116 11.136 15.3666C11.4422 15.4749 11.7376 15.5296 12.0001 15.5296C12.2604 15.5296 12.5546 15.476 12.8587 15.3688C14.1449 14.916 15.6237 13.5061 15.6237 11.1206C15.6237 8.1533 13.8813 6.75439 12.0001 6.75439Z" fill="white"/>
<path d="M16.1441 9.66482C16.1441 9.66482 16.2556 5.77435 12.0086 5.77435C7.76158 5.77435 7.85564 9.66482 7.85564 9.66482C7.85564 9.66482 7.89173 14.6392 8.20564 15.2856C8.51954 15.932 8.99314 15.9101 8.99314 15.9101C8.99314 15.9101 8.77111 13.0073 8.74595 11.6401C8.73939 11.3208 8.64314 10.1384 9.31033 9.98967C11.756 9.4406 13.1395 8.14232 13.1395 8.14232C13.4994 8.92873 14.6249 9.69435 15.0285 9.98638C15.3599 10.2259 15.3139 11.2114 15.3074 11.6303L14.9738 15.9025C14.9738 15.9025 15.4856 15.9429 15.8105 15.2856C16.1342 14.6272 16.1441 9.66482 16.1441 9.66482Z" fill="white"/>
<path d="M12.4164 12.443C12.4055 12.4386 12.3935 12.4354 12.3814 12.4343H11.6169C11.6049 12.4354 11.5939 12.4386 11.5819 12.443C11.513 12.4715 11.4747 12.5425 11.5075 12.6191C11.5403 12.6957 11.6924 12.91 11.9986 12.91C12.3049 12.91 12.4569 12.6957 12.4897 12.6191C12.5236 12.5436 12.4864 12.4715 12.4164 12.443Z" fill="white"/>
<path d="M10.2226 11.9902C10.5168 11.9902 10.7553 11.7434 10.7553 11.4389C10.7553 11.1345 10.5168 10.8877 10.2226 10.8877C9.92842 10.8877 9.68994 11.1345 9.68994 11.4389C9.68994 11.7434 9.92842 11.9902 10.2226 11.9902Z" fill="white"/>
<path d="M13.7773 11.9902C14.0715 11.9902 14.3099 11.7434 14.3099 11.4389C14.3099 11.1345 14.0715 10.8877 13.7773 10.8877C13.4831 10.8877 13.2446 11.1345 13.2446 11.4389C13.2446 11.7434 13.4831 11.9902 13.7773 11.9902Z" fill="white"/>
<path d="M11.0133 10.4491C10.9116 10.3146 10.6775 10.1199 10.2225 10.1199C9.76753 10.1199 9.53238 10.3157 9.43175 10.4491C9.38691 10.5082 9.39785 10.5771 9.42957 10.6186C9.458 10.6569 9.54332 10.693 9.63738 10.6613C9.73144 10.6296 9.91519 10.5344 10.2225 10.5322C10.5299 10.5344 10.7136 10.6296 10.8077 10.6613C10.9018 10.693 10.9871 10.658 11.0155 10.6186C11.0472 10.5771 11.0582 10.5082 11.0133 10.4491Z" fill="white"/>
<path d="M14.568 10.4491C14.4663 10.3146 14.2322 10.1199 13.7772 10.1199C13.3222 10.1199 13.0871 10.3157 12.9864 10.4491C12.9416 10.5082 12.9525 10.5771 12.9843 10.6186C13.0127 10.6569 13.098 10.693 13.1921 10.6613C13.2861 10.6296 13.4699 10.5344 13.7772 10.5322C14.0846 10.5344 14.2683 10.6296 14.3624 10.6613C14.4564 10.693 14.5418 10.658 14.5702 10.6186C14.6019 10.5771 14.6128 10.5082 14.568 10.4491Z" fill="white"/>
<path d="M12.91 13.3278C12.5655 13.5324 11.4378 13.5324 11.0933 13.3278C10.8953 13.2108 10.6941 13.3902 10.7761 13.5696C10.8571 13.7457 11.4728 14.1558 12.0044 14.1558C12.536 14.1558 13.1441 13.7457 13.225 13.5696C13.3071 13.3902 13.1069 13.2097 12.91 13.3278Z" fill="white"/>
<path d="M17.6875 6.3125C14.3155 5.46484 12 5.4375 12 5.4375C12 5.4375 9.68453 5.46484 6.3125 6.3125V6.39672C6.3125 6.54219 6.40766 6.67016 6.54656 6.71063C6.95344 6.83203 7.80109 7.07594 8.35453 7.1875C8.35453 7.1875 8.23312 7.37453 8.13578 7.5725C8.13578 7.5725 9.22406 8.22 12 8.5C14.7759 8.22 15.9211 7.56594 15.9211 7.56594C15.8248 7.36687 15.7056 7.1875 15.7056 7.1875C16.1978 7.10656 17.0531 6.84406 17.46 6.715C17.5967 6.67125 17.6886 6.54547 17.6886 6.40219V6.3125H17.6875Z" fill="white"/>
<path d="M12 5.4375C12 5.4375 9.68453 5.46484 6.3125 6.3125C6.3125 6.3125 10.1855 7.37016 12 7.33844C13.8145 7.37016 17.6875 6.3125 17.6875 6.3125C14.3155 5.46484 12 5.4375 12 5.4375Z" fill="white"/>
<path d="M12 5.76562C12.1028 5.76781 14.1197 5.81266 17.0553 6.49734C16.6353 6.62641 16.025 6.8025 15.652 6.86375C15.5427 6.88234 15.4486 6.95453 15.4048 7.05625C15.36 7.15797 15.3709 7.27609 15.4322 7.36906C15.4322 7.36906 15.4442 7.38656 15.4617 7.415C14.9739 7.61297 13.8681 7.97828 12 8.16969C10.1417 7.97937 9.06547 7.61953 8.59297 7.42375C8.61484 7.38875 8.62906 7.36687 8.62906 7.36578C8.68813 7.275 8.69906 7.16016 8.65641 7.05953C8.61375 6.95891 8.52516 6.88562 8.41797 6.86484C7.99688 6.78062 7.38656 6.61219 6.96547 6.49078C9.88469 5.81375 11.8983 5.76781 12 5.76562ZM12 5.4375C12 5.4375 9.68453 5.46484 6.3125 6.3125V6.39672C6.3125 6.54219 6.40766 6.67016 6.54656 6.71063C6.95344 6.83203 7.80109 7.07594 8.35453 7.1875C8.35453 7.1875 8.23312 7.37453 8.13578 7.5725C8.13578 7.5725 9.22406 8.22 12 8.5C14.7759 8.22 15.9211 7.56594 15.9211 7.56594C15.8248 7.36687 15.7056 7.1875 15.7056 7.1875C16.1978 7.10656 17.0531 6.84406 17.46 6.715C17.5967 6.67125 17.6886 6.54547 17.6886 6.40219V6.3125C14.3155 5.46484 12 5.4375 12 5.4375Z" fill="white"/>
</g>
<defs>
<clipPath id="clip0_404_38">
<rect width="14" height="14" fill="white" transform="translate(5 5)"/>
</clipPath>
</defs>
</svg>
