<svg width="15" height="17" viewBox="0 0 15 17" fill="none" xmlns="http://www.w3.org/2000/svg">
<path d="M1.21395 0.10914L14.5954 7.80211C15.1349 8.11225 15.1349 8.88775 14.5954 9.19789L1.21395 16.8909C0.674532 17.201 0 16.8132 0 16.193V0.807027C0 0.186759 0.674185 -0.200994 1.21395 0.10914Z" fill="#FF9F1C"/>
<path d="M14.5953 7.8021L1.21382 0.109125C1.1331 0.0628977 1.04961 0.0366792 0.965767 0.0197754L13.9024 7.45712C14.4418 7.76726 14.4418 8.54276 13.9024 8.8529L0.52093 16.5459C0.400021 16.6152 0.272874 16.6452 0.147461 16.6497C0.37473 16.9733 0.826842 17.113 1.21382 16.8908L14.5953 9.19787C15.1347 8.88774 15.1347 8.11223 14.5953 7.8021Z" fill="#FF9F1C"/>
<path d="M1.21395 0.10914L14.5954 7.80211C15.1349 8.11225 15.1349 8.88775 14.5954 9.19789L1.21395 16.8909C0.674532 17.201 0 16.8132 0 16.193V0.807027C0 0.186759 0.674185 -0.200994 1.21395 0.10914Z" fill="#FF9F1C"/>
</svg>
