<?xml version="1.0" encoding="UTF-8"?>
<!DOCTYPE svg PUBLIC "-//W3C//DTD SVG 1.1//EN" "http://www.w3.org/Graphics/SVG/1.1/DTD/svg11.dtd">
<!-- Creator: CorelDRAW 2021 (64-Bit) -->
<svg xmlns="http://www.w3.org/2000/svg" xml:space="preserve" width="4.2334mm" height="4.2333mm" version="1.1" style="shape-rendering:geometricPrecision; text-rendering:geometricPrecision; image-rendering:optimizeQuality; fill-rule:evenodd; clip-rule:evenodd"
viewBox="0 0 19.38 19.38"
 xmlns:xlink="http://www.w3.org/1999/xlink"
 xmlns:xodm="http://www.corel.com/coreldraw/odm/2003">
 <defs>
  <style type="text/css">
   <![CDATA[
    .fil0 {fill:white}
   ]]>
  </style>
 </defs>
 <g id="Layer_x0020_1">
  <metadata id="CorelCorpID_0Corel-Layer"/>
  <g id="_2145669136496">
   <path class="fil0" d="M4.64 10.1c0.51,0 0.93,0.42 0.93,0.93l0 2.79 2.79 0c0.51,0 0.93,0.42 0.93,0.93 0,0.51 -0.42,0.93 -0.93,0.93l-2.79 0 0 2.79c0,0.51 -0.42,0.93 -0.93,0.93 -0.51,0 -0.93,-0.42 -0.93,-0.93l0 -2.79 -2.79 0c-0.51,0 -0.93,-0.42 -0.93,-0.93 0,-0.51 0.42,-0.93 0.93,-0.93l2.79 0 0 -2.79c0,-0.51 0.42,-0.93 0.93,-0.93z"/>
   <rect class="fil0" x="11.18" y="6.34" width="1.86" height="12.24" rx="0.93" ry="1.11"/>
   <rect class="fil0" transform="matrix(1.8581E-14 0.499469 -0.633256 1.194E-14 13.0404 6.34401)" width="3.72" height="20.59" rx="1.86" ry="1.86"/>
   <rect class="fil0" x="14.36" y="3.17" width="1.86" height="12.24" rx="0.93" ry="1.11"/>
   <rect class="fil0" transform="matrix(1.8581E-14 0.499469 -0.633256 1.194E-14 16.2123 3.17212)" width="3.72" height="20.59" rx="1.86" ry="1.86"/>
   <rect class="fil0" x="17.53" y="0" width="1.86" height="12.24" rx="0.93" ry="1.11"/>
   <rect class="fil0" transform="matrix(1.8581E-14 0.499469 -0.633256 1.194E-14 19.3842 0.000228946)" width="3.72" height="20.59" rx="1.86" ry="1.86"/>
  </g>
 </g>
</svg>
