<svg width="11" height="12" viewBox="0 0 11 12" fill="none" xmlns="http://www.w3.org/2000/svg">
<path d="M6.71152 6L10.8243 1.51288C10.9374 1.38936 10.9998 1.22457 11 1.04885C11 0.873032 10.9376 0.708046 10.8243 0.584721L10.4639 0.191622C10.3506 0.0678093 10.1995 0 10.0383 0C9.87729 0 9.72624 0.0678093 9.61293 0.191622L5.50018 4.67845L1.38725 0.191622C1.27412 0.0678093 1.12298 0 0.961829 0C0.800854 0 0.649715 0.0678093 0.536585 0.191622L0.176 0.584721C-0.0586667 0.840738 -0.0586667 1.25715 0.176 1.51288L4.28884 6L0.176 10.4869C0.0627805 10.6106 0.000447154 10.7754 0.000447154 10.9512C0.000447154 11.1269 0.0627805 11.2917 0.176 11.4153L0.536496 11.8084C0.649626 11.9321 0.800854 12 0.96174 12C1.12289 12 1.27403 11.9321 1.38716 11.8084L5.50009 7.32145L9.61284 11.8084C9.72615 11.9321 9.8772 12 10.0382 12C10.1992 12 10.3505 11.9321 10.4638 11.8084L10.8242 11.4153C10.9373 11.2918 10.9997 11.1269 10.9997 10.9512C10.9997 10.7754 10.9373 10.6106 10.8242 10.487L6.71152 6Z" fill="#0A1D47" fill-opacity="0.52"/>
</svg>
