<svg width="66" height="66" viewBox="0 0 66 66" fill="none" xmlns="http://www.w3.org/2000/svg">
<circle cx="33" cy="33" r="33" fill="#FFCC00" fill-opacity="0.27"/>
<path d="M16.2461 39.8881H49.7534V50.1864H16.2461V39.8881Z" fill="#838EB1"/>
<path d="M49.753 35.68V24.5815H16.2461V35.68H49.753Z" fill="#838EB1"/>
<path d="M19.9331 28.093H46.2147V35.6802H19.9331V28.093Z" fill="#CCD3DD"/>
<path d="M19.9331 43.4602H46.2147V50.1865H19.9331V43.4602Z" fill="#CCD3DD"/>
<path d="M25.7429 24.5815H18.2964V22.8402C18.2964 21.5173 19.412 20.4451 20.7881 20.4451H23.2512C24.6274 20.4451 25.7429 21.5174 25.7429 22.8402V24.5815Z" fill="#FFC135"/>
<path d="M36.7229 24.5815H29.2764V22.8402C29.2764 21.5173 30.3919 20.4451 31.768 20.4451H34.2312C35.6074 20.4451 36.723 21.5174 36.723 22.8402V24.5815H36.7229Z" fill="#FFC135"/>
<path d="M47.6174 24.5815H40.1709V22.8402C40.1709 21.5173 41.2865 20.4451 42.6626 20.4451H45.1257C46.5019 20.4451 47.6174 21.5174 47.6174 22.8402V24.5815Z" fill="#BEDAFF"/>
<path d="M31.5251 39.8879H24.0786V38.0752C24.0786 36.7523 25.1942 35.6801 26.5703 35.6801H29.0335C30.4096 35.6801 31.5251 36.7524 31.5251 38.0752V39.8879Z" fill="#BEDAFF"/>
<path d="M42.4192 39.8879H34.9727V38.0752C34.9727 36.7523 36.0882 35.6801 37.4643 35.6801H39.9275C41.3037 35.6801 42.4192 36.7524 42.4192 38.0752V39.8879Z" fill="#FFC135"/>
<path d="M22.0195 20.4451C20.8263 20.4451 19.8589 19.5153 19.8589 18.3682V17.7901C19.8589 16.6431 20.8262 15.7133 22.0195 15.7133C23.2127 15.7133 24.1801 16.6431 24.1801 17.7901V18.3682C24.1801 19.5153 23.2127 20.4451 22.0195 20.4451Z" fill="#FFDAD5"/>
<path d="M32.9999 20.4451C31.8067 20.4451 30.8394 19.5153 30.8394 18.3682V17.7901C30.8394 16.6431 31.8066 15.7133 32.9999 15.7133C34.1932 15.7133 35.1605 16.6431 35.1605 17.7901V18.3682C35.1605 19.5153 34.1932 20.4451 32.9999 20.4451Z" fill="#FFDAD5"/>
<path d="M43.9799 20.4451C42.7867 20.4451 41.8193 19.5153 41.8193 18.3682V17.7901C41.8193 16.6431 42.7866 15.7133 43.9799 15.7133C45.1731 15.7133 46.1405 16.6431 46.1405 17.7901V18.3682C46.1405 19.5153 45.1732 20.4451 43.9799 20.4451Z" fill="#FFDAD5"/>
<path d="M27.7817 35.6798C26.5885 35.6798 25.6211 34.75 25.6211 33.6029V33.0249C25.6211 31.8779 26.5884 30.948 27.7817 30.948C28.9749 30.948 29.9423 31.8778 29.9423 33.0249V33.6029C29.9423 34.75 28.975 35.6798 27.7817 35.6798Z" fill="#FFDAD5"/>
<path d="M38.7621 35.6798C37.5689 35.6798 36.6016 34.75 36.6016 33.6029V33.0249C36.6016 31.8779 37.5689 30.948 38.7621 30.948C39.9554 30.948 40.9227 31.8778 40.9227 33.0249V33.6029C40.9227 34.75 39.9554 35.6798 38.7621 35.6798Z" fill="#FFDAD5"/>
<path d="M38.7621 35.6798C37.5689 35.6798 36.6016 34.75 36.6016 33.6029V33.0249C36.6016 31.8779 37.5689 30.948 38.7621 30.948C39.9554 30.948 40.9227 31.8778 40.9227 33.0249V33.6029C40.9227 34.75 39.9554 35.6798 38.7621 35.6798Z" fill="#FFDAD5"/>
<path d="M23.3363 39.1748H14.7422C14.3324 39.1748 14 39.4942 14 39.8882C14 40.2821 14.3324 40.6016 14.7422 40.6016H15.5042V50.1866C15.5042 50.5805 15.8365 50.9 16.2464 50.9H29.8862C30.296 50.9 30.6283 50.5805 30.6283 50.1866C30.6283 49.7926 30.296 49.4731 29.8862 49.4731H20.6755V44.1737H45.4727V49.4731H36.4004C35.9906 49.4731 35.6582 49.7926 35.6582 50.1866C35.6582 50.5805 35.9906 50.9 36.4004 50.9H49.7536C50.1635 50.9 50.4958 50.5805 50.4958 50.1866V40.6016H51.2578C51.6676 40.6016 52 40.2821 52 39.8882C52 39.4942 51.6676 39.1748 51.2578 39.1748H43.1617V38.0753C43.1617 37.4559 42.9716 36.8787 42.6455 36.3935H49.7534C50.1632 36.3935 50.4956 36.0741 50.4956 35.6801V25.295H51.2578C51.6676 25.295 52 24.9756 52 24.5816C52 24.1877 51.6676 23.8682 51.2578 23.8682H48.3599V22.8403C48.3599 21.5452 47.5314 20.433 46.3574 19.9665C46.688 19.5134 46.8828 18.9624 46.8828 18.3683V17.7902C46.8828 16.2517 45.5807 15 43.9801 15C42.3796 15 41.0774 16.2517 41.0774 17.7902V18.3683C41.0774 18.9405 41.2578 19.4729 41.5664 19.9161C40.3215 20.3488 39.4291 21.4962 39.4291 22.8403V23.8683H37.4655V22.8403C37.4655 21.5209 36.6053 20.3914 35.3961 19.9411C35.7154 19.493 35.9027 18.9514 35.9027 18.3684V17.7903C35.9027 16.2518 34.6005 15.0001 33 15.0001C31.3995 15.0001 30.0973 16.2518 30.0973 17.7903V18.3684C30.0973 18.9515 30.2846 19.4931 30.604 19.9412C29.3948 20.3916 28.5348 21.5209 28.5348 22.8403V23.8683H26.4854V22.8403C26.4854 21.5209 25.6253 20.3915 24.4159 19.9411C24.7353 19.493 24.9226 18.9514 24.9226 18.3683V17.7902C24.9226 16.2517 23.6204 15 22.0199 15C20.4193 15 19.1172 16.2517 19.1172 17.7902V18.3683C19.1172 18.9513 19.3044 19.4929 19.6238 19.9411C18.4145 20.3915 17.5544 21.5209 17.5544 22.8403V23.8683H14.7422C14.3324 23.8683 14 24.1877 14 24.5817C14 24.9756 14.3324 25.2951 14.7422 25.2951H15.5042V35.6801C15.5042 36.0741 15.8365 36.3935 16.2464 36.3935H23.8527C23.5266 36.8787 23.3364 37.4559 23.3364 38.0753V39.1748H23.3363ZM45.4728 34.9667H41.293C41.5292 34.5632 41.6646 34.0982 41.6646 33.6031V33.025C41.6646 31.4865 40.3624 30.2348 38.7619 30.2348C37.1613 30.2348 35.8591 31.4865 35.8591 33.025V33.6031C35.8591 34.0982 35.9946 34.5632 36.2307 34.9667H30.3128C30.549 34.5632 30.6844 34.0982 30.6844 33.6031V33.025C30.6844 31.4865 29.3822 30.2348 27.7817 30.2348C26.1812 30.2348 24.879 31.4865 24.879 33.025V33.6031C24.879 34.0982 25.0144 34.5632 25.2506 34.9667H20.6755V28.8063H45.4727V34.9667H45.4728ZM40.1802 33.603C40.1802 34.3548 39.5439 34.9664 38.7619 34.9664C37.9798 34.9664 37.3435 34.3548 37.3435 33.603V33.0249C37.3435 32.2732 37.9798 31.6616 38.7619 31.6616C39.5439 31.6616 40.1802 32.2732 40.1802 33.0249V33.603ZM29.2 33.603C29.2 34.3548 28.5637 34.9664 27.7817 34.9664C26.9996 34.9664 26.3634 34.3548 26.3634 33.603V33.0249C26.3634 32.2732 26.9996 31.6616 27.7817 31.6616C28.5637 31.6616 29.2 32.2732 29.2 33.0249V33.603ZM26.5702 36.3935H29.0321H29.0334C29.9981 36.3935 30.7829 37.148 30.7829 38.0753V39.1745H24.8207V38.0753C24.8207 37.148 25.6055 36.3935 26.5702 36.3935ZM49.0114 49.4731H46.9571V43.4603C46.9571 43.0664 46.6247 42.7469 46.2149 42.7469H19.9333C19.5235 42.7469 19.1912 43.0664 19.1912 43.4603V49.4731H16.9886V40.6016H49.0115V49.4731H49.0114ZM32.2673 39.1748V38.0753C32.2673 37.4559 32.0772 36.8787 31.751 36.3935H34.7472C34.4211 36.8787 34.2309 37.4559 34.2309 38.0753V39.1748H32.2673ZM41.6774 38.0753V39.1745H35.7152V38.0753C35.7152 37.148 36.5 36.3935 37.4647 36.3935H37.466H39.9266H39.9279C40.8926 36.3935 41.6774 37.148 41.6774 38.0753ZM42.5618 17.7902C42.5618 17.0385 43.198 16.4269 43.9801 16.4269C44.7621 16.4269 45.3984 17.0385 45.3984 17.7902V18.3683C45.3984 19.1201 44.7621 19.7317 43.9801 19.7317C43.198 19.7317 42.5618 19.1201 42.5618 18.3683V17.7902ZM40.9134 22.8403C40.9134 21.913 41.6982 21.1586 42.6629 21.1586H45.1261C46.0908 21.1586 46.8756 21.913 46.8756 22.8403V23.8682H40.9134V22.8403ZM31.5815 17.7902C31.5815 17.0385 32.2178 16.4269 32.9999 16.4269C33.7819 16.4269 34.4182 17.0385 34.4182 17.7902V18.3683C34.4182 19.1201 33.7819 19.7317 32.9999 19.7317C32.2178 19.7317 31.5815 19.1201 31.5815 18.3683V17.7902ZM30.0189 22.8403C30.0189 21.913 30.8037 21.1586 31.7684 21.1586H34.2316C35.1963 21.1586 35.9811 21.913 35.9811 22.8403V23.8682H30.0189V22.8403ZM20.6012 17.7902C20.6012 17.0385 21.2375 16.4269 22.0196 16.4269C22.8016 16.4269 23.4379 17.0385 23.4379 17.7902V18.3683C23.4379 19.1201 22.8016 19.7317 22.0196 19.7317C21.2375 19.7317 20.6012 19.1201 20.6012 18.3683V17.7902ZM19.0386 22.8403C19.0386 21.913 19.8234 21.1586 20.788 21.1586H23.2512C24.2159 21.1586 25.0008 21.913 25.0008 22.8403V23.8682H19.0386V22.8403ZM16.9886 25.295H49.0112V34.9666H46.9571V28.0928C46.9571 27.6989 46.6248 27.3794 46.2149 27.3794H19.9333C19.5235 27.3794 19.1912 27.6989 19.1912 28.0928V34.9666H16.9886V25.295Z" fill="#1E2959"/>
<path d="M33.8147 49.7904C33.638 49.5381 33.3049 49.418 32.9995 49.4996C32.7001 49.5798 32.4813 49.8361 32.4574 50.134C32.4043 50.7957 33.2805 51.1539 33.7443 50.6682C33.9725 50.4293 34.0019 50.06 33.8147 49.7904Z" fill="#1E2959"/>
</svg>
