<svg width="217" height="121" viewBox="0 0 217 121" fill="none" xmlns="http://www.w3.org/2000/svg">
<path d="M143.273 54.083C132.069 3.63232 53.7561 -2.44044 16 0.829509V121H217C217 93.3528 154.476 104.534 143.273 54.083Z" fill="#F3D33E" fill-opacity="0.16"/>
<g clip-path="url(#clip0_407_41)">
<path d="M66.5072 69.9081C66.5072 69.9081 71.5232 81.1865 68.7644 112.88C66.0056 144.574 65.1848 148.645 65.1848 148.645L56.1104 148.518L58.2308 69.9081H66.5072Z" fill="black"/>
<path d="M52.4168 69.908C52.4168 69.908 49.7492 76.5224 45.0524 91.9984C39.9452 108.81 29.9816 148.518 29.9816 148.518L39.6716 148.984L66.416 75.9712L63.8624 69.8868H52.4168V69.908Z" fill="black"/>
<path d="M45.4856 27.7412C45.4856 27.7412 44.0264 30.6668 44.7788 34.7584C45.5312 38.956 40.5836 38.532 41.1764 42.6024C41.1764 42.6024 55.244 46.482 68.24 38.6168C68.24 38.6168 69.1292 35.034 66.416 34.1648C62.6084 32.9564 61.6508 29.31 61.6508 29.31L45.4856 27.7412Z" fill="black"/>
<path d="M44.9173 31.3906C44.333 27.3996 47.6019 23.6904 52.2185 23.106C56.8352 22.5216 61.0515 25.2832 61.6358 29.2743C62.2201 33.2653 58.9513 36.9745 54.3346 37.5589C49.7179 38.1433 45.5017 35.3817 44.9173 31.3906Z" fill="black"/>
<path d="M52.5079 36.306L52.6675 48.2628L58.8691 47.4996L56.9539 37.0056L52.5079 36.306Z" fill="#E9B089"/>
<path d="M58.0713 43.1113L53.2605 39.7829L57.0681 37.7477L58.0713 43.1113Z" fill="#D7896D"/>
<path d="M59.1655 35.5004C59.1427 34.7584 59.2567 34.0164 59.5303 33.2956C59.9179 32.3204 60.5791 31.3452 61.8103 31.7056C63.9535 32.3416 62.4031 35.6276 60.3739 36.1364C59.8039 36.2848 59.1883 35.9668 59.1655 35.5004Z" fill="#D7896D"/>
<path d="M51.1629 24.9216C52.5309 24.3916 54.0129 24.116 55.4949 24.2008C57.5013 24.328 60.1461 25.1548 60.9441 28.4196C62.2665 33.868 61.9701 37.472 59.4165 39.3376C57.6153 40.6308 55.6089 40.7792 52.8273 39.698C51.7785 39.2952 50.2509 37.5568 49.8177 36.5392L48.6093 33.6984C48.6321 33.6984 44.6421 27.4868 51.1629 24.9216Z" fill="#E9B089"/>
<path d="M58.1854 33.2109L59.0518 34.3769L58.3906 34.7585" stroke="black" stroke-width="0.7597" stroke-miterlimit="10" stroke-linecap="round" stroke-linejoin="round"/>
<path d="M58.3222 28.2925C58.3222 28.2925 58.1626 28.8649 59.0974 28.8649C59.8042 28.8649 60.2602 28.8437 60.6478 28.9285C60.8758 28.9709 61.1266 28.8861 61.2406 28.7165C61.3318 28.5893 61.309 28.4197 61.195 28.3137C60.9442 28.1017 60.4426 27.7837 59.5762 27.7837C58.459 27.7625 58.3222 28.2925 58.3222 28.2925Z" fill="black"/>
<path d="M55.7001 28.4409C55.7001 28.4409 56.0877 28.9497 54.8109 29.2041C53.8533 29.3949 52.7133 29.7977 52.1889 29.9885C51.8925 30.0945 51.5277 30.0733 51.3225 29.9461C51.1629 29.8401 51.1401 29.6917 51.2769 29.5433C51.5505 29.2677 52.6905 28.5257 53.8533 28.2925C55.3809 27.9745 55.7001 28.4409 55.7001 28.4409Z" fill="black"/>
<path d="M56.5449 32.2992C56.5449 32.2992 55.6101 30.2004 52.7601 32.172C52.7601 32.172 54.3105 33.9952 56.5449 32.2992Z" fill="white"/>
<path d="M55.7456 31.9812C55.8824 32.49 55.586 32.9776 55.0616 33.1048C54.5372 33.232 54.0128 32.9352 53.876 32.4264C53.7392 31.9176 54.0356 31.43 54.56 31.3028C55.0844 31.1968 55.6088 31.4936 55.7456 31.9812Z" fill="black"/>
<path d="M52.8046 32.2145C53.0554 32.0025 53.3518 31.8117 53.6938 31.6845C54.013 31.5573 54.355 31.4513 54.697 31.4301C55.039 31.4089 55.4038 31.4513 55.7002 31.5785C55.9966 31.7057 56.2474 31.9601 56.3386 32.2357V32.2569C56.3614 32.3205 56.4526 32.3629 56.521 32.3417C56.5894 32.3205 56.635 32.2357 56.6122 32.1721C56.4754 31.8117 56.1562 31.5361 55.8142 31.3877C55.4494 31.2393 55.0618 31.2181 54.697 31.2393C54.3094 31.2817 53.9674 31.3877 53.6254 31.5361C53.2834 31.6845 52.987 31.8753 52.7134 32.1085C52.6906 32.1297 52.6906 32.1721 52.7134 32.1933C52.7362 32.2357 52.7818 32.2357 52.8046 32.2145Z" fill="black"/>
<path d="M58.7112 32.0025C58.7112 32.0025 59.304 29.7341 61.2192 31.0061C61.2192 31.0061 60.5352 33.1685 58.7112 32.0025Z" fill="white"/>
<path d="M59.2799 31.4513C59.2571 31.9177 59.5763 32.3205 59.9867 32.3205C60.3971 32.3417 60.7163 31.9601 60.7391 31.4937C60.7619 31.0273 60.4427 30.6245 60.0323 30.6245C59.6447 30.6033 59.3027 30.9849 59.2799 31.4513Z" fill="black"/>
<path d="M61.2641 30.9637C61.1729 30.8789 61.1046 30.7941 60.9906 30.7305C60.8994 30.6669 60.7854 30.6033 60.6714 30.5821C60.5574 30.5397 60.4206 30.5397 60.3066 30.5397C60.1698 30.5397 60.0557 30.5609 59.9417 30.6033C59.7821 30.6457 59.6225 30.7093 59.4857 30.7941C59.3489 30.8789 59.2121 30.9849 59.0982 31.0909C58.9841 31.1969 58.893 31.3241 58.8246 31.4725C58.7562 31.5997 58.6877 31.7481 58.6421 31.8965C58.6193 31.9601 58.665 32.0237 58.7334 32.0237C58.8018 32.0449 58.8701 32.0025 58.8701 31.9389C58.8929 31.8117 58.9613 31.6845 59.0297 31.5573C59.0981 31.4301 59.1666 31.3241 59.2806 31.2181C59.3718 31.1121 59.4857 31.0273 59.5997 30.9425C59.7137 30.8577 59.8506 30.8153 59.9874 30.7729C60.0786 30.7305 60.1926 30.7093 60.3066 30.7093C60.4206 30.7093 60.5345 30.7093 60.6257 30.7517C60.7397 30.7729 60.8309 30.8153 60.9221 30.8789C61.0133 30.9425 61.1046 31.0061 61.173 31.0697C61.1958 31.0909 61.2413 31.0909 61.2641 31.0697C61.287 31.0061 61.287 30.9849 61.2641 30.9637Z" fill="black"/>
<path d="M59.6216 35.5641L55.9052 35.8185C55.9052 35.8185 56.3612 37.0693 57.8204 36.8997C59.2796 36.7301 59.6216 35.5641 59.6216 35.5641Z" fill="white"/>
<path opacity="0.22" d="M53.6709 30.0945L57.1821 33.2745C57.1821 33.2745 56.5893 34.9493 55.1985 34.9917L51.6645 31.9177C51.6645 31.8965 52.1661 30.2217 53.6709 30.0945Z" fill="white"/>
<path opacity="0.22" d="M60.0783 29.0769L63.1562 32.3205C63.1562 32.3205 62.7002 33.9741 61.4919 33.9953L58.4139 30.8577C58.4139 30.8365 58.8015 29.1829 60.0783 29.0769Z" fill="white"/>
<path d="M57.205 32.1296C57.4558 33.5712 56.4298 34.928 54.8794 35.1612C53.329 35.3944 51.8698 34.4404 51.619 32.9988C51.3682 31.5572 52.3942 30.2004 53.9446 29.9672C55.495 29.7128 56.9542 30.688 57.205 32.1296Z" stroke="#C0653E" stroke-width="1.2122" stroke-miterlimit="10"/>
<path d="M63.1556 31.1757C63.4064 32.6173 62.5628 33.9529 61.2404 34.1649C59.918 34.3769 58.664 33.3805 58.4132 31.9389C58.1624 30.4973 59.006 29.1617 60.3284 28.9497C61.628 28.7377 62.9048 29.7341 63.1556 31.1757Z" stroke="#C0653E" stroke-width="1.2122" stroke-miterlimit="10"/>
<path d="M57.205 32.1296C57.205 32.1296 57.7522 31.7268 58.3906 31.9388" stroke="#C0653E" stroke-width="1.2122" stroke-miterlimit="10"/>
<path d="M49.7948 34.6101L51.6416 33.2109" stroke="#C0653E" stroke-width="1.2122" stroke-miterlimit="10"/>
<path d="M49.886 34.8644C49.886 34.3556 51.4364 30.3064 49.1564 25.4304C49.1564 25.4304 47.0816 25.1972 46.808 28.7376C46.3976 34.4192 49.886 34.8644 49.886 34.8644Z" fill="black"/>
<path d="M50.9805 36.5392C50.7069 35.7972 50.2737 35.1188 49.7037 34.5252C48.9285 33.6984 47.8797 32.9988 46.8081 33.8044C44.984 35.2036 47.8797 37.8536 50.0685 37.5992C50.7069 37.5356 51.1629 36.9844 50.9805 36.5392Z" fill="#E9B089"/>
<path d="M47.5605 35.2036C49.0425 34.5252 50.0913 36.0304 50.0913 36.0304" stroke="black" stroke-width="0.7597" stroke-miterlimit="10" stroke-linecap="round" stroke-linejoin="round"/>
<path d="M48.5181 25.8545C48.5181 25.8545 51.3681 28.4409 61.6509 26.8933C61.6509 26.8933 59.5989 23.2681 54.2865 23.0773C48.9741 22.8865 48.5181 25.8545 48.5181 25.8545Z" fill="black"/>
<path d="M54.5602 46.6728C54.5602 46.6728 57.205 55.0044 76.015 67.8304L80.917 61.8944L64.4782 45.316L54.5602 46.6728Z" fill="#39505E"/>
<path d="M87.6656 46.27L87.62 44.3832C87.62 44.0017 87.848 43.6624 88.2128 43.4928L90.4472 42.4965C90.7664 42.3481 91.154 42.4329 91.382 42.7084C91.6556 43.0264 91.5872 43.4928 91.2452 43.726L90.2192 44.468C90.2192 44.468 91.9748 45.4008 90.7208 47.1604L87.6656 46.27Z" fill="#E9B089"/>
<path d="M88.2128 43.5141L90.6296 39.1681C90.7892 38.8713 91.1996 38.7865 91.496 38.9561C91.724 39.1045 91.8152 39.3589 91.7468 39.5921L90.4016 43.3657L88.2128 43.5141Z" fill="#E9B089"/>
<path d="M90.5159 42.1997L91.6331 41.6485C91.8611 41.5637 92.1347 41.5637 92.3627 41.6909L92.6591 41.8605C93.0011 42.0513 93.1607 42.4329 93.0239 42.7933L91.9295 45.5069L89.7635 44.4681L90.5159 42.1997Z" fill="#E9B089"/>
<path d="M92.7275 42.2421L93.1607 42.1785C93.3659 42.1573 93.5939 42.1997 93.7535 42.3057L94.1639 42.5813C94.3463 42.7085 94.4603 42.8781 94.5059 43.0901C94.5287 43.2597 94.5059 43.4081 94.4147 43.5565L92.8871 46.2277L91.0175 45.3161L92.7275 42.2421Z" fill="#E9B089"/>
<path d="M93.5937 43.09L94.0269 43.0264C94.2321 43.0052 94.4601 43.0476 94.6197 43.1536L95.0301 43.4292C95.2125 43.5564 95.3265 43.726 95.3721 43.938C95.3949 44.1076 95.3721 44.256 95.2809 44.4044L94.7337 45.3372C94.1865 46.2912 92.9097 46.6516 91.8837 46.164L93.5937 43.09Z" fill="#E9B089"/>
<path d="M93.9131 45.9732L93.1607 47.0332C92.4539 48.0508 90.9947 48.3264 89.9231 47.6692L87.6659 46.2912L88.8971 44.2348L90.8123 43.9592L92.6591 44.786L93.9131 45.9732Z" fill="#E9B089"/>
<path d="M88.3726 43.4505L90.8122 42.2845C91.1542 42.1361 91.5874 42.2633 91.747 42.5813C91.8838 42.8357 91.8382 43.1113 91.633 43.3233L90.2422 44.4681C90.2422 44.4681 91.747 44.8921 90.8578 46.5457" stroke="black" stroke-width="0.7435" stroke-miterlimit="10" stroke-linecap="round" stroke-linejoin="round"/>
<path d="M87.6659 46.27L85.0667 50.9552L89.1707 52.9692L91.6787 47.3088L87.6659 46.27Z" fill="#E9B089"/>
<path d="M74.191 63.0816L85.4998 49.3016L90.0142 52.7996L82.2394 66.0072C80.917 68.1272 78.9562 69.2084 76.7674 68.2544C74.8066 67.4064 73.279 64.9048 74.191 63.0816Z" fill="#39505E"/>
<path d="M77.7705 58.7145L75.3309 61.3433" stroke="black" stroke-width="0.7725" stroke-miterlimit="10" stroke-linecap="round" stroke-linejoin="round"/>
<path d="M77.2231 59.308C77.2231 59.308 76.4023 60.6436 77.2231 62.9332" stroke="black" stroke-width="0.7725" stroke-miterlimit="10" stroke-linecap="round" stroke-linejoin="round"/>
<path d="M64.2958 47.6268L56.5894 52.6512L57.0682 77.4128L67.693 75.738C67.693 75.738 72.709 54.7076 64.2958 47.6268Z" fill="#E9A234"/>
<path d="M65.0254 54.1776C65.0254 54.1776 62.6086 54.856 60.283 55.2164" stroke="black" stroke-width="0.7725" stroke-miterlimit="10" stroke-linecap="round" stroke-linejoin="round"/>
<path d="M66.7808 50.722C65.2304 52.9056 62.2664 54.856 56.612 54.3684L56.5892 52.6512L64.2956 47.6268C65.3216 48.4748 66.1424 49.5348 66.7808 50.722Z" fill="white"/>
<path d="M68.5137 75.6744L58.0257 77.5612L58.2765 75.102L68.5137 73.4696V75.6744Z" fill="black"/>
<path d="M52.7134 52.0788C52.7134 52.0788 65.4358 56.0432 64.8202 48.7928L58.8238 44.5104L54.8109 46.6304L52.7134 48.2628L50.6157 51.5276L52.7134 52.0788Z" fill="#E9B089"/>
<path d="M58.3448 44.7648C58.3448 44.7648 63.9308 48.7928 66.9632 55.8948C68.6276 59.8168 67.6016 67.6608 67.328 72.876C67.0544 78.1124 66.6896 88.1188 66.6896 88.1188L70.8392 85.9564C70.8392 85.9564 70.9304 62.9968 70.3376 59.9864C69.7448 56.976 66.872 45.3372 62.7224 44.0864C62.7224 44.0864 61.3088 43.7048 58.8464 44.5104L58.3448 44.7648Z" fill="#39505E"/>
<path d="M70.5886 63.9296C70.5886 63.9296 71.0446 56.6156 68.5138 52.948" stroke="black" stroke-width="0.7725" stroke-miterlimit="10" stroke-linecap="round" stroke-linejoin="round"/>
<path d="M50.2282 48.1781C50.2282 48.1781 52.0978 46.6729 54.811 48.6021C57.5242 50.5525 60.9214 57.4425 60.9214 65.4349C60.9214 73.4273 58.3678 88.6489 58.3678 88.6489C58.3678 88.6489 49.0426 91.9773 42.5446 87.6737L52.3486 72.3037L47.5834 60.0077L50.2282 48.1781Z" fill="#39505E"/>
<path d="M50.9576 47.7965C50.9576 47.7965 44.072 49.3229 31.6232 67.6821L38.3492 71.8161L51.3452 58.1421L50.9576 47.7965Z" fill="#39505E"/>
<path d="M48.3128 61.3433L51.3452 58.1421" stroke="black" stroke-width="0.7725" stroke-miterlimit="10" stroke-linecap="round" stroke-linejoin="round"/>
<path d="M59.3709 70.6077L54.9021 69.6749L55.0389 68.7421C55.0845 68.4029 54.9021 68.0637 54.5829 67.9365C54.2409 67.7881 53.8533 67.8729 53.6253 68.1485L50.6157 72.0281L48.3357 75.0173C50.9577 76.2469 53.4201 76.0349 54.1041 75.5049C54.1953 75.5049 57.5925 75.7593 57.5925 75.7593C57.9345 75.8017 58.2537 75.5897 58.3221 75.2717C58.3677 75.0385 58.3221 74.6993 57.5925 74.5509L58.2993 74.6993C58.6641 74.7629 58.9833 74.5297 59.0517 74.1905C59.1201 73.8937 58.8465 73.5757 58.4133 73.4485L58.9377 73.5121C59.3253 73.5757 59.6901 73.3001 59.7129 72.9185C59.7357 72.5793 59.4621 72.2825 59.1201 72.2189L58.3221 72.0493L59.2113 72.0281C59.6217 72.0705 59.9865 71.7525 60.0093 71.3497C60.0093 70.9893 59.7357 70.6713 59.3709 70.6077Z" fill="#E9B089"/>
<path d="M50.5928 72.0281L43.1828 70.1837L41.9516 74.3389L49.5896 75.5261L50.5928 72.0281Z" fill="#E9B089"/>
<path d="M36.3201 66.3041L49.3389 70.4381L46.5801 75.9076L34.0173 73.3001C31.6689 72.7913 30.3465 70.4805 31.2129 68.3817C32.0109 66.5373 34.2909 65.6045 36.3201 66.3041Z" fill="#39505E"/>
<path d="M41.9517 68.106L37.5969 66.728" stroke="black" stroke-width="0.7725" stroke-miterlimit="10" stroke-linecap="round" stroke-linejoin="round"/>
<path d="M55.5405 80.1265C55.5405 80.1265 50.0001 80.1689 46.3293 81.7589" stroke="black" stroke-width="0.7725" stroke-miterlimit="10" stroke-linecap="round" stroke-linejoin="round"/>
<path d="M79.7771 73.1092L79.0247 73.7664L97.0367 78.812C97.4699 78.9392 97.9259 78.706 98.0627 78.3244L98.4959 76.9464C98.6327 76.5436 98.3819 76.1408 97.9259 76.0136L79.9139 70.968L80.1647 71.9008L79.7771 73.1092Z" fill="#F3D33E"/>
<path d="M79.777 73.1092L79.0246 73.7452L86.3434 75.8016L87.2554 73.0032L79.9366 70.968L80.1874 71.8796L79.777 73.1092Z" fill="#EEC140"/>
<path d="M80.171 71.8947L86.1309 73.5632L85.7365 74.7812L79.7766 73.1126L80.171 71.8947Z" fill="white"/>
<path d="M95.8284 81.674L96.0792 82.6068L78.0672 77.5612C77.634 77.434 77.3832 77.0312 77.4972 76.6284L78.2496 74.3176C78.3864 73.9148 78.8424 73.7028 79.2756 73.83L97.2876 78.8756L96.5352 79.5328L95.8284 81.674Z" fill="#DE5931"/>
<path d="M95.8282 81.674L96.0562 82.5856L83.4478 79.0664L84.679 75.3352L97.2646 78.8544L96.5122 79.5116L95.8282 81.674Z" fill="#942314"/>
<path d="M85.2795 76.3514L96.5225 79.499L95.8257 81.6507L84.5827 78.5031L85.2795 76.3514Z" fill="white"/>
<path d="M85.7965 79.5964L86.9137 79.2148L87.5977 80.1052L88.1221 78.494L86.3209 77.9852L85.7965 79.5964Z" fill="#F3D33E"/>
<path d="M20.041 57.3157L34.747 53.7329C35.1802 53.6269 35.4538 53.2029 35.3398 52.8001L35.089 51.9097C34.975 51.5069 34.519 51.2525 34.0858 51.3585L19.3798 54.9413L18.0346 55.9377L16.7578 56.8705L18.3538 57.1037L20.041 57.3157Z" fill="#F3D33E"/>
<path d="M19.6991 56.1281L35.2031 52.3545L35.0663 51.9093C34.9523 51.5065 34.4963 51.2521 34.0631 51.3581L19.3571 54.9409L19.6991 56.1281Z" fill="#EEC140"/>
<path d="M20.041 57.3152L19.357 54.9408L18.0118 55.916L16.735 56.8488L18.331 57.0608L20.041 57.3152Z" fill="#F6E0B2"/>
<path d="M18.3311 57.0608L18.0119 55.916L16.735 56.8488L18.3311 57.0608Z" fill="#404251"/>
<path d="M33.2422 54.0933L34.747 53.7329C35.1802 53.6269 35.4538 53.2029 35.3398 52.8001L35.089 51.9097C34.975 51.5069 34.519 51.2525 34.0858 51.3585L32.581 51.7189L33.2422 54.0933Z" fill="#DE5931"/>
<path d="M32.5678 51.7289L33.2383 54.1077L32.334 54.328L31.6636 51.9492L32.5678 51.7289Z" fill="#404251"/>
<path d="M32.9003 52.9057L35.2031 52.3333L35.0663 51.8881C34.9523 51.4852 34.4963 51.2308 34.0631 51.3368L32.5583 51.6973L32.9003 52.9057Z" fill="#942314"/>
<path d="M92.7277 59.4987C91.9753 59.1383 91.1545 58.6931 90.2881 58.1843C90.3565 59.1383 90.3565 60.0287 90.3565 60.8131C92.4085 64.0355 94.0957 66.6855 96.1705 69.9079C97.1281 69.7807 97.9945 69.3143 98.5645 68.5935C96.4897 65.3711 94.7797 62.6999 92.7277 59.4987Z" fill="#6BBDE8"/>
<path d="M92.2261 59.5836C94.3237 62.8908 96.0793 65.6256 98.1997 68.9328" stroke="black" stroke-width="0.245" stroke-miterlimit="10"/>
<path d="M91.5191 60.1135C93.6167 63.4207 95.3723 66.1555 97.4927 69.4627" stroke="black" stroke-width="0.245" stroke-miterlimit="10"/>
<path d="M90.6983 60.4315C92.7959 63.7387 94.5515 66.4735 96.6719 69.7807" stroke="black" stroke-width="0.245" stroke-miterlimit="10"/>
<path d="M89.5357 57.0183C89.5357 57.0183 90.3565 57.4635 91.1317 57.8451C91.9069 58.2267 92.6137 58.5659 92.6821 58.6719C92.8417 58.9051 92.8417 59.3079 92.6821 59.4987C92.5681 59.6471 92.3629 59.6683 92.2261 59.5623C92.2717 59.7743 92.2033 59.9863 92.0437 60.0923C91.8841 60.1983 91.6789 60.1771 91.5193 60.0711C91.5421 60.2619 91.4737 60.4527 91.2913 60.5163C91.1089 60.5799 90.8809 60.5375 90.6985 60.4103C90.7213 60.5799 90.6073 60.7283 90.4021 60.7495C90.1285 60.7919 89.7637 60.6011 89.6041 60.3467C89.5129 60.2195 89.5585 59.4987 89.5585 58.6719C89.5813 57.9299 89.5585 57.0183 89.5357 57.0183Z" fill="#FFB864"/>
<path d="M90.5843 56.1492C90.4475 56.7216 88.8287 57.612 88.2131 57.4636C89.0567 58.778 88.6691 58.1632 89.5127 59.4776C90.4703 59.3504 91.3367 58.884 91.9067 58.1632C91.0403 56.8276 91.4279 57.4636 90.5843 56.1492Z" fill="#39505E"/>
<path d="M73.4385 77.3492C73.4385 77.6248 73.6665 77.8368 73.9629 77.8368C74.2593 77.8368 74.4873 77.6248 74.4873 77.3492C74.4873 77.0736 74.2593 76.8616 73.9629 76.8616C73.6665 76.8616 73.4385 77.0736 73.4385 77.3492Z" fill="#397880"/>
<path d="M96.7403 55.3436C96.7403 55.6192 96.9683 55.8312 97.2647 55.8312C97.5611 55.8312 97.7891 55.6192 97.7891 55.3436C97.7891 55.068 97.5611 54.856 97.2647 54.856C96.9911 54.856 96.7403 55.0892 96.7403 55.3436Z" fill="#397880"/>
<path d="M76.9273 53.0116C76.9273 53.2872 77.1553 53.4992 77.4517 53.4992C77.7481 53.4992 77.9761 53.2872 77.9761 53.0116C77.9761 52.736 77.7481 52.524 77.4517 52.524C77.1781 52.524 76.9273 52.736 76.9273 53.0116Z" fill="#397880"/>
<path d="M43.9356 47.224C43.6459 47.224 43.4112 47.0057 43.4112 46.7364C43.4112 46.4671 43.6459 46.2488 43.9356 46.2488C44.2252 46.2488 44.46 46.4671 44.46 46.7364C44.46 47.0057 44.2252 47.224 43.9356 47.224Z" fill="#397880"/>
<path d="M65.3448 22.314C65.3448 22.5896 65.5728 22.8016 65.8692 22.8016C66.1656 22.8016 66.3936 22.5896 66.3936 22.314C66.3936 22.0384 66.1656 21.8264 65.8692 21.8264C65.5728 21.8264 65.3448 22.0384 65.3448 22.314Z" fill="#397880"/>
<path d="M29.2066 59.1384C29.2066 59.414 29.4346 59.6259 29.731 59.6259C30.0274 59.6259 30.2554 59.414 30.2554 59.1384C30.2554 58.8628 30.0274 58.6508 29.731 58.6508C29.4346 58.6508 29.2066 58.8628 29.2066 59.1384Z" fill="#397880"/>
<path d="M19.7676 49.9164C19.7676 50.192 19.9956 50.404 20.292 50.404C20.5884 50.404 20.8164 50.192 20.8164 49.9164C20.8164 49.6408 20.5884 49.4288 20.292 49.4288C19.9956 49.4288 19.7676 49.6408 19.7676 49.9164Z" fill="white"/>
<path d="M14.8658 81.0591C14.8658 81.3347 15.0938 81.5467 15.3902 81.5467C15.6866 81.5467 15.9146 81.3347 15.9146 81.0591C15.9146 80.7835 15.6866 80.5715 15.3902 80.5715C15.0938 80.5715 14.8658 80.7835 14.8658 81.0591Z" fill="white"/>
<path d="M80.7803 29.3948C80.7803 29.6704 81.0083 29.8824 81.3047 29.8824C81.6011 29.8824 81.8291 29.6704 81.8291 29.3948C81.8291 29.1192 81.6011 28.9072 81.3047 28.9072C81.0083 28.9072 80.7803 29.1192 80.7803 29.3948Z" fill="white"/>
<path d="M100.183 73.3848C100.183 73.6604 100.411 73.8724 100.708 73.8724C101.004 73.8724 101.232 73.6604 101.232 73.3848C101.232 73.1092 101.004 72.8972 100.708 72.8972C100.411 72.8972 100.183 73.1092 100.183 73.3848Z" fill="white"/>
<path d="M46.4209 66.4948C46.4209 66.7704 46.6489 66.9824 46.9453 66.9824C47.2417 66.9824 47.4697 66.7704 47.4697 66.4948C47.4697 66.2192 47.2417 66.0072 46.9453 66.0072C46.6717 66.0072 46.4209 66.2192 46.4209 66.4948Z" fill="white"/>
<path d="M43.3882 21.3388C43.3882 21.6144 43.6162 21.8264 43.9126 21.8264C44.209 21.8264 44.437 21.6144 44.437 21.3388C44.437 21.0632 44.209 20.8512 43.9126 20.8512C43.6162 20.8512 43.3882 21.0632 43.3882 21.3388Z" fill="white"/>
<path d="M72.9141 34.0588C72.9141 34.3344 73.1421 34.5464 73.4385 34.5464C73.7349 34.5464 73.9629 34.3344 73.9629 34.0588C73.9629 33.7832 73.7349 33.5712 73.4385 33.5712C73.1421 33.5712 72.9141 33.8044 72.9141 34.0588Z" stroke="#397880" stroke-width="0.6624" stroke-miterlimit="10"/>
<path d="M86.8452 66.0071C86.8452 66.2827 87.0732 66.4947 87.3696 66.4947C87.666 66.4947 87.894 66.2827 87.894 66.0071C87.894 65.7315 87.666 65.5195 87.3696 65.5195C87.0732 65.5195 86.8452 65.7315 86.8452 66.0071Z" stroke="#397880" stroke-width="0.6624" stroke-miterlimit="10"/>
<path d="M33.4932 78.1972C33.4932 78.4728 33.7212 78.6848 34.0176 78.6848C34.314 78.6848 34.542 78.4728 34.542 78.1972C34.542 77.9216 34.314 77.7096 34.0176 77.7096C33.744 77.6884 33.4932 77.9216 33.4932 78.1972Z" stroke="#397880" stroke-width="0.6624" stroke-miterlimit="10"/>
<path d="M33.1509 30.37C33.1509 30.6456 33.3789 30.8576 33.6753 30.8576C33.9717 30.8576 34.1997 30.6456 34.1997 30.37C34.1997 30.0944 33.9717 29.8824 33.6753 29.8824C33.3789 29.8824 33.1509 30.0944 33.1509 30.37Z" stroke="#397880" stroke-width="0.6624" stroke-miterlimit="10"/>
</g>
<path d="M123.976 66.9846L123.84 65.7142L121.586 58.2612L122.911 57.1818L125.937 58.5204L127.002 68.3232C127.072 68.9808 126.893 69.4536 126.538 69.6428L125.36 70.6156L125.136 70.0047L124.799 68.8768C124.367 68.3486 124.047 67.6422 123.976 66.9846Z" fill="#5793CE"/>
<path d="M124.388 70.6895C125.22 71.0539 125.806 70.4771 125.691 69.401L124.626 59.5982L121.6 58.2596L122.665 68.0624C122.78 69.1385 123.54 70.3117 124.388 70.6895Z" fill="#5793CE"/>
<path d="M116.142 56.0556C114.597 55.3321 114.291 52.4811 115.46 49.6879C116.63 46.8946 118.83 45.2167 120.376 45.9402C121.922 46.6637 122.227 49.5146 121.058 52.3079C119.889 55.1012 117.688 56.7791 116.142 56.0556Z" fill="#EEC140"/>
<path d="M116.101 56.0371L127.628 61.3928L132.458 51.5932L120.457 45.9859L116.101 56.0371Z" fill="#EEC140"/>
<path d="M120.45 56.4026C120.176 53.8469 121.552 50.5549 123.523 49.0436C124.416 48.3584 125.288 48.1591 125.989 48.3862L126.004 48.3847C126.004 48.3847 126.018 48.3832 126.019 48.3981C126.05 48.41 126.08 48.4219 126.11 48.4338C130.32 50.0687 134.843 50.5817 139.282 49.9095L140.531 49.7302L132.249 69.2726L131.573 68.2113C129.109 64.3181 125.769 61.1235 121.856 58.8974C121.113 58.5537 120.588 57.6879 120.45 56.4026Z" fill="#D4ECFF"/>
<path d="M130.619 65.2295C130.094 60.3274 132.744 53.9964 136.528 51.1116C138.42 49.6692 140.231 49.3542 141.642 50.0192L141.657 50.0177C141.657 50.0177 141.657 50.0177 141.671 50.0162L142.946 50.6202L142.509 50.5764C143.465 51.4263 144.121 52.8375 144.327 54.7655C144.853 59.6677 142.202 65.9987 138.418 68.8835C136.925 70.011 135.488 70.4523 134.258 70.2667L134.475 70.5457L133.291 69.9923C133.291 69.9923 133.277 69.9938 133.276 69.9789L133.23 69.9536C131.861 69.2839 130.88 67.6657 130.619 65.2295Z" fill="#D4ECFF"/>
<path d="M131.532 65.676C131.006 60.7738 133.657 54.4428 137.44 51.558C139.305 50.1336 141.1 49.8052 142.507 50.4254L142.705 50.5251C142.767 50.5638 142.843 50.6011 142.905 50.6398L142.526 50.6048C143.482 51.4547 144.138 52.8659 144.345 54.7939C144.87 59.6961 142.219 66.0271 138.436 68.9118C136.942 70.0394 135.505 70.4806 134.275 70.295L134.475 70.5457C132.926 69.9408 131.809 68.2615 131.532 65.676Z" fill="white"/>
<path d="M134.478 70.5393C131.43 69.1127 130.829 63.4887 133.136 57.9779C135.442 52.467 139.783 49.1561 142.83 50.5827C145.878 52.0094 146.479 57.6333 144.173 63.1442C141.866 68.655 137.526 71.966 134.478 70.5393Z" fill="#5793CE"/>
<path d="M134.988 69.3195C132.311 68.0661 131.781 63.1287 133.806 58.2916C135.83 53.4545 139.642 50.5493 142.32 51.8027C144.998 53.0561 145.527 57.9934 143.503 62.8306C141.478 67.6677 137.666 70.5729 134.988 69.3195Z" fill="#173D7A"/>
<path d="M139.173 68.2584C142.49 65.726 144.821 60.185 144.36 55.8807C144.118 53.6239 143.154 52.1551 141.815 51.6334C143.313 52.0321 144.412 53.547 144.674 55.9831C145.135 60.2875 142.817 65.8269 139.486 68.3608C137.914 69.5573 136.391 69.8717 135.173 69.3976C136.331 69.7119 137.72 69.3664 139.173 68.2584Z" fill="white"/>
<path d="M139.432 58.8426L129.289 52.2804L126.559 58.8164L138.021 62.3499L139.432 58.8426Z" fill="#D4ECFF"/>
<path d="M137.92 62.3153C137.383 62.064 137.276 61.0747 137.682 60.1058C138.087 59.1368 138.852 58.5551 139.389 58.8065C139.926 59.0578 140.032 60.0471 139.627 61.016C139.221 61.985 138.457 62.5667 137.92 62.3153Z" fill="#5793CE"/>
<path d="M126.094 66.8483L126.148 66.8123C126.321 66.6728 126.445 66.3571 126.418 66.1031L126.216 64.2199C126.189 63.9658 126.018 63.8481 125.845 63.9875L125.792 64.0235C125.619 64.1629 125.495 64.4787 125.522 64.7327L125.724 66.6159C125.765 66.8684 125.92 66.9727 126.094 66.8483Z" fill="white"/>
<defs>
<clipPath id="clip0_407_41">
<rect width="114" height="106" fill="white" transform="matrix(-1 0 0 1 114 15)"/>
</clipPath>
</defs>
</svg>
