<svg width="66" height="66" viewBox="0 0 66 66" fill="none" xmlns="http://www.w3.org/2000/svg">
<circle cx="33" cy="33" r="33" fill="#FFCC00" fill-opacity="0.27"/>
<path d="M50.4305 31.1336C49.4946 30.3888 48.0988 30.4976 47.3056 31.382L42.229 36.3099H42.2343C41.9596 35.4187 41.0879 34.7676 40.056 34.7676H31.6481C30.5571 34.3171 29.351 34.0667 28.0834 34.0667C24.5711 34.0667 21.5338 35.6748 20.0835 38.7218L26.7948 45.028L26.8073 45.0187L27.963 43.9659C28.516 43.4613 29.2553 43.1795 30.0241 43.1795H39.9159C41.4562 43.1795 42.9358 42.612 44.0399 41.5972L50.6935 34.0845C51.4835 33.2018 51.366 31.8805 50.4305 31.1336Z" fill="#FED2A4"/>
<path d="M43.5216 22.7107C43.5216 26.5823 40.1987 29.7205 36.0994 29.7205C32.0002 29.7205 28.6772 26.5823 28.6772 22.7107C28.6772 18.8395 32.0002 15.7009 36.0994 15.7009C40.1987 15.7009 43.5216 18.8395 43.5216 22.7107Z" fill="#FFE781"/>
<path d="M26.6519 46.8546L23.0573 50.1992L14.7236 42.2683L18.2545 38.9237C18.8339 38.3765 19.7744 38.3762 20.3541 38.9237L26.6519 44.8716C27.2351 45.4224 27.2282 46.3104 26.6519 46.8546Z" fill="#E87288"/>
<path d="M31.4684 39.3493C31.7581 39.0751 31.7581 38.6314 31.4684 38.3572C31.1784 38.0839 30.7085 38.0839 30.4182 38.3572C30.1288 38.6314 30.1288 39.0751 30.4182 39.3493C30.7085 39.6226 31.1784 39.6226 31.4684 39.3493Z" fill="#1E2959"/>
<path d="M27.9536 22.7107C27.9536 26.9624 31.6161 30.4217 36.1179 30.4217C40.6197 30.4217 44.2822 26.9624 44.2822 22.7107C44.2822 18.459 40.6197 15 36.1179 15C31.6161 15 27.9536 18.459 27.9536 22.7107ZM42.7979 22.7107C42.7979 26.1895 39.8013 29.0196 36.1179 29.0196C32.4345 29.0196 29.4379 26.1895 29.4379 22.7107C29.4379 19.2322 32.4345 16.4021 36.1179 16.4021C39.8013 16.4021 42.7979 19.2322 42.7979 22.7107Z" fill="#1E2959"/>
<path d="M22.5491 50.6927C22.8367 50.9666 23.3051 50.9696 23.5966 50.6984L27.195 47.3503C27.8063 46.7729 27.9922 45.9181 27.7234 45.175L28.4974 44.47C28.9141 44.0899 29.4628 43.8803 30.0429 43.8803H39.9098C41.6603 43.8803 43.3148 43.2454 44.569 42.0926C44.6207 42.0452 44.1772 42.5385 51.3004 34.498C52.3569 33.3175 52.1988 31.5449 50.9478 30.546C49.7045 29.5564 47.8421 29.6986 46.7827 30.8588L42.403 35.1102C41.8499 34.4674 41.0066 34.0667 40.0954 34.0667H31.8189C30.6411 33.6013 29.3915 33.3658 28.1021 33.3658C24.5281 33.3658 21.4073 34.9248 19.7325 37.8478C19.0269 37.7215 18.2828 37.9231 17.7474 38.4287L14.2166 41.7733C13.9283 42.0463 13.9277 42.4881 14.2154 42.762L22.5491 50.6927ZM28.1018 34.7676C29.2387 34.7676 30.3378 34.9837 31.3693 35.4098C31.4633 35.4487 31.5645 35.4687 31.6669 35.4687H40.0954C40.9002 35.4687 41.5799 36.0886 41.5799 36.8705C41.5799 37.6437 40.9141 38.2726 40.0954 38.2726H34.0397C33.63 38.2726 33.2976 38.5865 33.2976 38.9735C33.2976 39.3608 33.63 39.6744 34.0397 39.6744H40.0954C41.7325 39.6744 43.0642 38.4167 43.0642 36.8705C43.0642 36.7473 43.0549 36.6251 43.0381 36.5041C47.2748 32.391 47.8722 31.813 47.8977 31.7843C48.4267 31.1946 49.3658 31.1198 49.9904 31.6172C50.6157 32.1165 50.6949 33.0028 50.1644 33.5958L43.5073 41.1121C42.5352 41.9935 41.2589 42.4785 39.9098 42.4785H30.0429C29.076 42.4785 28.1607 42.8278 27.4664 43.4613L26.8357 44.0362L21.021 38.5448C22.38 36.137 24.93 34.7676 28.1018 34.7676ZM18.7978 39.4194C19.0426 39.1882 19.4184 39.1466 19.7168 39.3208C19.8453 39.3947 19.4764 39.0776 26.1454 45.3673C26.4421 45.6475 26.4262 46.094 26.1495 46.3553L23.0818 49.2095L15.789 42.2693L18.7978 39.4194Z" fill="#1E2959"/>
<path d="M35.2087 18.5266V19.3264C34.3448 19.6156 33.7242 20.3949 33.7242 21.3089C33.7242 22.4641 34.7157 23.405 35.9375 23.4116C36.3151 23.4137 36.646 23.6772 36.6883 24.0317C36.7388 24.4543 36.3885 24.8136 35.9508 24.8136C35.6376 24.8136 35.2998 24.6298 34.9982 24.296C34.7618 24.0338 34.3561 23.953 34.0432 24.1294C33.6386 24.3576 33.5609 24.8596 33.8509 25.1856C34.2476 25.6312 34.7142 25.9418 35.2087 26.0985V26.8947C35.2087 27.2458 35.4726 27.56 35.8406 27.6101C36.2994 27.6723 36.693 27.3378 36.693 26.9166V26.0949C37.5569 25.8057 38.1775 25.0264 38.1775 24.1125C38.1775 22.9572 37.186 22.0166 35.9642 22.0098C35.5866 22.0076 35.2557 21.7441 35.2133 21.3897C35.1629 20.967 35.5132 20.6077 35.9508 20.6077C36.2078 20.6077 36.4789 20.7287 36.7359 20.9583C37.0024 21.1957 37.413 21.2431 37.7074 21.0369C38.0867 20.7715 38.1105 20.2631 37.786 19.9665C37.4093 19.6222 37.0323 19.4275 36.693 19.3212V18.505C36.693 18.0835 36.2994 17.749 35.8406 17.8115C35.4726 17.8613 35.2087 18.1755 35.2087 18.5266Z" fill="#1E2959"/>
</svg>
