<svg width="66" height="66" viewBox="0 0 66 66" fill="none" xmlns="http://www.w3.org/2000/svg">
<circle cx="33" cy="33" r="33" fill="#FFCC00" fill-opacity="0.27"/>
<path d="M43.0495 47.128H23.3294C22.4826 47.128 21.7962 46.5001 21.7962 45.7256V19.8281H19.2551C18.3273 19.8281 17.5752 20.516 17.5752 21.3647V48.8376C17.5752 49.6863 18.3273 50.3742 19.2551 50.3742H41.3697C42.2975 50.3742 43.0496 49.6863 43.0496 48.8376V47.128H43.0495Z" fill="#8AC9FE"/>
<path d="M21.7963 19.8281V45.7256C21.7963 46.5001 22.4827 47.128 23.3295 47.128H43.0496V48.8376C43.0496 49.1369 42.9557 49.416 42.7939 49.6522H21.943C21.0153 49.6522 20.2632 48.9643 20.2632 48.1156V46.9938L21.0298 20.6427L21.7963 19.8281Z" fill="#60B7FF"/>
<path d="M45.7374 44.6696H26.0173C25.1706 44.6696 24.4841 44.0417 24.4841 43.2672V17.9844H21.943C21.0153 17.9844 20.2632 18.6723 20.2632 19.5209V46.9938C20.2632 47.8424 21.0153 48.5304 21.943 48.5304H44.0576C44.9854 48.5304 45.7375 47.8424 45.7375 46.9938V44.6696H45.7374Z" fill="#FED402"/>
<path d="M24.4844 17.9844V43.2672C24.4844 44.0417 25.1708 44.6696 26.0176 44.6696H45.7377V46.9938C45.7377 47.1189 45.721 47.2403 45.6901 47.3567H24.631C23.7033 47.3567 22.9512 46.6688 22.9512 45.8201V44.5354L23.7178 42.5956V18.3472L24.4844 17.9844Z" fill="#FAC600"/>
<path d="M46.5923 46.0719H24.631C23.7033 46.0719 22.9512 45.384 22.9512 44.5353V17.0624C22.9512 16.2138 23.7033 15.5259 24.631 15.5259H41.62L48.2721 21.7505V44.5353C48.2722 45.384 47.5201 46.0719 46.5923 46.0719Z" fill="#EFEDEF"/>
<path d="M46.1256 19.647V44.5353C46.1256 45.384 45.3735 46.0719 44.4458 46.0719H46.7456C47.6734 46.0719 48.4254 45.384 48.4254 44.5353V21.7505L46.1256 19.647Z" fill="#D7D0D6"/>
<path d="M48.4255 21.7505H43.2997C42.3721 21.7505 41.6201 21.0627 41.6201 20.2142V15.5259L48.4255 21.7505Z" fill="#B5ADB6"/>
<path d="M28.0159 27.427H43.3598C43.6773 27.427 43.9347 27.1915 43.9347 26.9011C43.9347 26.6107 43.6773 26.3752 43.3598 26.3752H28.0159C27.6983 26.3752 27.4409 26.6107 27.4409 26.9011C27.4409 27.1915 27.6983 27.427 28.0159 27.427Z" fill="#1E2959"/>
<path d="M28.0159 31.3247H43.3598C43.6773 31.3247 43.9347 31.0893 43.9347 30.7988C43.9347 30.5084 43.6773 30.2729 43.3598 30.2729H28.0159C27.6983 30.2729 27.4409 30.5084 27.4409 30.7988C27.4409 31.0893 27.6983 31.3247 28.0159 31.3247Z" fill="#1E2959"/>
<path d="M28.0159 35.2224H43.3598C43.6773 35.2224 43.9347 34.987 43.9347 34.6965C43.9347 34.4061 43.6773 34.1707 43.3598 34.1707H28.0159C27.6983 34.1707 27.4409 34.4061 27.4409 34.6965C27.4409 34.987 27.6983 35.2224 28.0159 35.2224Z" fill="#1E2959"/>
<path d="M48.9989 21.7328C48.9939 21.601 48.9338 21.4721 48.8315 21.3786L42.0261 15.154C41.9197 15.0567 41.7699 15 41.6195 15H24.6305C23.3871 15 22.3757 15.9252 22.3757 17.0624V17.4584H21.9427C20.7801 17.4584 19.8204 18.2675 19.7006 19.3023H19.2549C18.0115 19.3023 17 20.2274 17 21.3647V39.042C17 39.3324 17.2574 39.5679 17.5749 39.5679C17.8925 39.5679 18.1499 39.3324 18.1499 39.042V21.3646C18.1499 20.8073 18.6456 20.3539 19.2549 20.3539H19.6878V46.9938C19.6878 48.131 20.6994 49.0562 21.9427 49.0562H36.5689C36.8865 49.0562 37.1439 48.8207 37.1439 48.5303C37.1439 48.2399 36.8865 48.0044 36.5689 48.0044H21.9427C21.3334 48.0044 20.8377 47.5511 20.8377 46.9938V19.5208C20.8377 18.9635 21.3334 18.5101 21.9427 18.5101H22.3757V21.3747C22.3757 21.6651 22.6331 21.9006 22.9506 21.9006C23.2682 21.9006 23.5256 21.6651 23.5256 21.3747V17.0624C23.5256 16.5051 24.0213 16.0518 24.6305 16.0518H41.0446V20.2142C41.0446 21.3513 42.0559 22.2763 43.2991 22.2763H47.85V44.5353C47.85 45.0926 47.3543 45.546 46.745 45.546H24.6305C24.0212 45.546 23.5256 45.0926 23.5256 44.5353V23.6666C23.5256 23.3761 23.2682 23.1407 22.9506 23.1407C22.6331 23.1407 22.3757 23.3761 22.3757 23.6666V44.5353C22.3757 45.6726 23.3872 46.5978 24.6305 46.5978H45.1622V46.9938C45.1622 47.5511 44.6665 48.0044 44.0572 48.0044H39.0746C38.757 48.0044 38.4996 48.2399 38.4996 48.5303C38.4996 48.8207 38.757 49.0562 39.0746 49.0562H42.4476C42.338 49.5087 41.8966 49.8482 41.3694 49.8482H19.2549C18.6456 49.8482 18.1499 49.3949 18.1499 48.8376V41.3338C18.1499 41.0433 17.8925 40.8079 17.5749 40.8079C17.2574 40.8079 17 41.0433 17 41.3338V48.8376C17 49.9748 18.0115 50.9 19.2549 50.9H41.3694C42.5321 50.9 43.4918 50.091 43.6115 49.0562H44.0573C45.3006 49.0562 46.3122 48.131 46.3122 46.9938V46.5978H46.7451C47.9885 46.5978 49 45.6726 49 44.5353V21.7505C48.9999 21.7446 48.9992 21.7387 48.9989 21.7328ZM43.2992 21.2246C42.6901 21.2246 42.1945 20.7713 42.1945 20.2142V16.7954L47.037 21.2246H43.2992Z" fill="#1E2959"/>
</svg>
