<svg width="24" height="24" viewBox="0 0 24 24" fill="none" xmlns="http://www.w3.org/2000/svg">
<rect width="24" height="24" rx="3" fill="#FFCC00"/>
<g clip-path="url(#clip0_404_39)">
<path d="M18.4167 6.75002H5.58333C5.42862 6.75002 5.28025 6.81148 5.17085 6.92087C5.06146 7.03027 5 7.17864 5 7.33335V17.8334C5 17.9881 5.06146 18.1364 5.17085 18.2458C5.28025 18.3552 5.42862 18.4167 5.58333 18.4167H18.4167C18.5714 18.4167 18.7197 18.3552 18.8291 18.2458C18.9385 18.1364 19 17.9881 19 17.8334V7.33335C19 7.17864 18.9385 7.03027 18.8291 6.92087C18.7197 6.81148 18.5714 6.75002 18.4167 6.75002ZM17.5 16.5H16.6667V16H13.75V16.5H6.5V8.5H17.5V16.5ZM11.0025 11.2475C11.0025 10.983 11.1076 10.7292 11.2947 10.5422C11.4817 10.3551 11.7354 10.25 12 10.25C12.5542 10.25 12.9975 10.6992 12.9975 11.2475C12.9975 11.8017 12.5542 12.2509 12 12.2509C11.4458 12.2509 11.0025 11.8017 11.0025 11.2475ZM8.33083 12.1692C8.33083 11.755 8.66917 11.4167 9.08333 11.4167C9.28291 11.4167 9.47431 11.496 9.61543 11.6371C9.75655 11.7782 9.83583 11.9696 9.83583 12.1692C9.83583 12.5834 9.4975 12.9159 9.08333 12.9159C8.66917 12.9159 8.33083 12.5834 8.33083 12.1692ZM14.1642 12.1692C14.1642 11.9696 14.2434 11.7782 14.3846 11.6371C14.5257 11.496 14.7171 11.4167 14.9167 11.4167C15.1162 11.4167 15.3076 11.496 15.4488 11.6371C15.5899 11.7782 15.6692 11.9696 15.6692 12.1692C15.6692 12.5834 15.3308 12.9159 14.9167 12.9159C14.5025 12.9159 14.1642 12.5834 14.1642 12.1692ZM16.6667 14.415V15.5833H14.5H12.9975H10.5H9.61543H7.33333V14.415C7.33333 13.8667 8.2375 13.4175 9.08333 13.4175C9.40417 13.4175 9.73083 13.4817 10.0167 13.5925C10.4542 13.19 11.2417 12.9159 12 12.9159C12.7583 12.9159 13.5458 13.19 13.9833 13.5925C14.2692 13.4817 14.5958 13.4175 14.9167 13.4175C15.7625 13.4175 16.6667 13.8667 16.6667 14.415Z" fill="white"/>
</g>
<defs>
<clipPath id="clip0_404_39">
<rect width="14" height="14" fill="white" transform="translate(5 5)"/>
</clipPath>
</defs>
</svg>
