<svg width="66" height="66" viewBox="0 0 66 66" fill="none" xmlns="http://www.w3.org/2000/svg">
<circle cx="33" cy="33" r="33" fill="#FFCC00" fill-opacity="0.27"/>
<path d="M35.099 36.8036C34.4724 36.8036 33.8601 36.7407 33.2676 36.6221V49.3722H36.7857V36.6504C36.2383 36.7509 35.6747 36.8036 35.099 36.8036Z" fill="#01D0FB"/>
<path d="M33.2676 36.6221V49.3722H34.6505V36.7925C34.1796 36.77 33.7179 36.7123 33.2676 36.6221Z" fill="#01C0FA"/>
<path d="M27.1465 49.3723H30.6646V39.1164C30.6646 38.9483 30.531 38.812 30.3663 38.812H27.4449C27.2801 38.812 27.1466 38.9483 27.1466 39.1164V49.3723H27.1465Z" fill="#FED402"/>
<path d="M28.797 38.812H27.4448C27.28 38.812 27.1465 38.9483 27.1465 39.1164V49.3723H28.4987V39.1164C28.4987 38.9483 28.6322 38.812 28.797 38.812Z" fill="#FAC600"/>
<path d="M21.0244 49.3723H24.5426V33.7245C24.5426 33.5564 24.4089 33.4202 24.2442 33.4202H21.3228C21.158 33.4202 21.0244 33.5565 21.0244 33.7245V49.3723Z" fill="#01D0FB"/>
<path d="M22.717 33.4202H21.3228C21.158 33.4202 21.0244 33.5565 21.0244 33.7245V49.3723H22.4187V33.7245C22.4187 33.5564 22.5523 33.4202 22.717 33.4202Z" fill="#01C0FA"/>
<path d="M14.9033 49.3725H18.4215V27.631C18.4215 27.4629 18.2878 27.3267 18.1231 27.3267H15.2018C15.0369 27.3267 14.9034 27.463 14.9034 27.631V49.3725H14.9033Z" fill="#05E39C"/>
<path d="M16.5744 27.3264H15.2017C15.0369 27.3264 14.9033 27.4627 14.9033 27.6308V49.3723H16.276V27.6309C16.276 27.4627 16.4096 27.3264 16.5744 27.3264Z" fill="#0ED290"/>
<path d="M45.5164 35.8456L42.6051 32.8755C42.0654 33.6109 41.4245 34.2648 40.7036 34.8154L43.6149 37.7855L45.5164 35.8456Z" fill="#A8D3D8"/>
<path d="M53.0244 43.8561L51.5192 45.3917C51.0386 45.8819 50.2596 45.8819 49.7791 45.3917L43.2618 38.7428C43.0677 38.5446 43.0677 38.2234 43.2618 38.0253L45.8039 35.4318C45.9982 35.2337 46.313 35.2337 46.5072 35.4318L53.0245 42.0807C53.5048 42.571 53.5048 43.3658 53.0244 43.8561Z" fill="#678D98"/>
<path d="M46.0246 38.7427C45.8305 38.5446 45.8305 38.2234 46.0246 38.0252L47.537 36.4823L46.5072 35.4318C46.3131 35.2337 45.9981 35.2337 45.804 35.4318L43.2619 38.0252C43.0676 38.2234 43.0676 38.5446 43.2619 38.7427L49.7791 45.3916C50.2597 45.8819 51.0387 45.8819 51.5192 45.3916L52.0305 44.87L46.0246 38.7427Z" fill="#537983"/>
<path d="M35.0972 17.5105C33.5884 17.5105 32.1624 17.8716 30.8969 18.5129V22.6073C30.8969 22.746 30.7868 22.8584 30.6508 22.8584H26.6308C25.9981 24.1528 25.6416 25.6124 25.6416 27.1571C25.6416 32.4847 29.875 36.8036 35.0971 36.8036C40.3192 36.8036 44.5526 32.4847 44.5526 27.1571C44.5526 21.8295 40.3193 17.5105 35.0972 17.5105Z" fill="#678D98"/>
<path d="M36.8262 17.6719C36.2656 17.5662 35.6878 17.5105 35.0972 17.5105C33.5884 17.5105 32.1625 17.8716 30.897 18.5129V21.4988C32.2933 19.5357 34.3968 18.13 36.8262 17.6719Z" fill="#537983"/>
<path d="M30.8858 32.7996C29.2195 31.502 28.1416 29.456 28.1416 27.1571C28.1416 25.5422 28.6741 24.0523 29.5682 22.8584H26.6308C25.9981 24.1528 25.6416 25.6124 25.6416 27.1571C25.6416 32.4847 29.875 36.8036 35.0971 36.8036C35.6876 36.8036 36.2655 36.7479 36.8261 36.6422C34.3901 36.1829 32.2819 34.771 30.8858 32.7996Z" fill="#537983"/>
<path d="M35.0977 20.061C33.5208 20.061 32.0654 20.6 30.8974 21.5057V22.6073C30.8974 22.746 30.7873 22.8584 30.6513 22.8584H29.5687C28.6747 24.0523 28.1421 25.5421 28.1421 27.1571C28.1421 31.0699 31.2623 34.2532 35.0977 34.2532C38.933 34.2532 42.0533 31.0699 42.0533 27.1571C42.0533 23.2444 38.933 20.061 35.0977 20.061Z" fill="#C8EFFE"/>
<path d="M30.9007 27.1571C30.9007 23.726 33.3002 20.8563 36.477 20.2016C36.031 20.1097 35.5699 20.061 35.0977 20.061C33.5208 20.061 32.0654 20.6 30.8974 21.5057V22.6073C30.8974 22.746 30.7873 22.8584 30.6513 22.8584H29.5687C28.6747 24.0523 28.1421 25.5421 28.1421 27.1571C28.1421 31.0699 31.2623 34.2532 35.0977 34.2532C35.5699 34.2532 36.031 34.2045 36.477 34.1126C33.3002 33.4578 30.9007 30.5881 30.9007 27.1571Z" fill="#99E6FC"/>
<path d="M35.0981 31.4256C37.409 31.4256 39.2822 29.5145 39.2822 27.157C39.2822 24.7995 37.409 22.8884 35.0981 22.8884C32.7873 22.8884 30.9141 24.7995 30.9141 27.157C30.9141 29.5145 32.7873 31.4256 35.0981 31.4256Z" fill="#FD5426"/>
<path d="M35.0981 27.1572H39.2822C39.2822 29.4989 37.3935 31.4259 35.0981 31.4259C32.8028 31.4259 30.9141 29.4989 30.9141 27.1572C30.9141 26.0265 31.3544 24.9409 32.1376 24.1409L35.0981 27.1572Z" fill="#01D0FB"/>
<path d="M32.2615 27.1572C32.2615 26.3563 32.4835 25.5785 32.8908 24.9082L32.1376 24.1409C31.3545 24.9409 30.9141 26.0265 30.9141 27.1572C30.9141 29.4989 32.8028 31.4259 35.0981 31.4259C35.3273 31.4259 35.5522 31.4059 35.7719 31.369C33.7921 31.036 32.2615 29.2651 32.2615 27.1572Z" fill="#01C0FA"/>
<path d="M30.6533 22.8581H15.1494C15.0135 22.8581 14.9033 22.7457 14.9033 22.6071V16.8785C14.9033 16.7398 15.0135 16.6274 15.1494 16.6274H30.6533C30.7892 16.6274 30.8994 16.7398 30.8994 16.8785V22.6071C30.8994 22.7457 30.7892 22.8581 30.6533 22.8581Z" fill="#FD5426"/>
<path d="M18.8919 22.6071V16.8785C18.8919 16.7398 19.0021 16.6274 19.138 16.6274H15.1494C15.0135 16.6274 14.9033 16.7398 14.9033 16.8785V22.6071C14.9033 22.7457 15.0135 22.8581 15.1494 22.8581H19.138C19.0021 22.8581 18.8919 22.7457 18.8919 22.6071Z" fill="#EF4424"/>
<path d="M53.4594 41.6371L52.3575 40.5128C52.1172 40.2678 51.7277 40.2677 51.4875 40.5128C51.2471 40.758 51.2471 41.1554 51.4874 41.4005L52.5894 42.5248C52.7055 42.6434 52.7695 42.801 52.7695 42.9686C52.7695 43.1362 52.7055 43.2938 52.5893 43.4124L51.0842 44.948C50.8443 45.1927 50.454 45.1927 50.2141 44.948L43.7802 38.3842L46.1556 35.9609L49.4572 39.3293C49.6975 39.5744 50.087 39.5744 50.3273 39.3293C50.5676 39.0842 50.5676 38.6868 50.3273 38.4417L46.9421 34.9882C46.7319 34.7738 46.4526 34.6558 46.1554 34.6558C45.9005 34.6558 45.6589 34.7433 45.4627 34.9034L43.4665 32.8669C44.5412 31.2329 45.169 29.2685 45.169 27.1572C45.169 21.492 40.6513 16.883 35.0983 16.883C33.8359 16.883 32.6277 17.1223 31.5133 17.5571V16.8787C31.5133 16.3942 31.1269 16 30.6519 16H15.148C14.6731 16 14.2867 16.3942 14.2867 16.8787V22.6074C14.2867 23.0919 14.6731 23.4861 15.148 23.4861H25.6936C25.2641 24.6268 25.0276 25.8641 25.0276 27.1572C25.0276 31.9617 28.2772 36.006 32.6516 37.1241V48.7448H31.2787V39.1163C31.2787 38.6024 30.8688 38.1843 30.365 38.1843H27.4436C26.9398 38.1843 26.5299 38.6024 26.5299 39.1163V48.7446H25.157V44.0468C25.157 43.7002 24.8816 43.4192 24.5418 43.4192C24.2019 43.4192 23.9265 43.7002 23.9265 44.0468V48.7446H21.6388V34.0477H23.9265V41.1177C23.9265 41.4644 24.2019 41.7454 24.5418 41.7454C24.8816 41.7454 25.157 41.4644 25.157 41.1177V33.7244C25.157 33.2105 24.7472 32.7924 24.2434 32.7924H21.322C20.8182 32.7924 20.4084 33.2105 20.4084 33.7244V48.7446H19.0355V27.6308C19.0355 27.1168 18.6257 26.6987 18.1218 26.6987H15.2004C14.6966 26.6987 14.2868 27.1168 14.2868 27.6308V48.7447H12.6152C12.2754 48.7447 12 49.0257 12 49.3723C12 49.719 12.2754 50 12.6152 50H39.0719C39.4117 50 39.6871 49.719 39.6871 49.3723C39.6871 49.0257 39.4117 48.7447 39.0719 48.7447H37.4003V37.1597C38.5937 36.8738 39.7062 36.3714 40.695 35.6945L42.6992 37.7391C42.3993 38.1812 42.4412 38.7935 42.8268 39.1869L49.344 45.8358C49.7038 46.2028 50.1764 46.3863 50.649 46.3863C51.1217 46.3863 51.5944 46.2028 51.9542 45.8358L53.4593 44.3002C53.808 43.9445 54 43.4716 54 42.9687C54 42.4655 53.808 41.9927 53.4594 41.6371ZM17.805 48.7446H15.5173V27.9541H17.805V48.7446ZM30.0483 48.7446H27.7605V39.4396H30.0483V48.7446ZM15.5173 22.2307V17.2553H30.2829V22.2308H15.5173V22.2307ZM36.1699 48.7446H33.8822V37.3561C34.281 37.4053 34.6867 37.4313 35.0984 37.4313C35.4604 37.4313 35.8176 37.4105 36.1699 37.3723V48.7446ZM35.0984 36.1759C30.2238 36.1759 26.2581 32.1301 26.2581 27.1571C26.2581 25.8504 26.5328 24.6082 27.025 23.486H28.4402C27.859 24.5786 27.5276 25.829 27.5276 27.1571C27.5276 31.416 30.9238 34.8809 35.0984 34.8809C38.6877 34.8809 41.8086 32.2767 42.5192 28.6888C42.5864 28.3491 42.371 28.0179 42.038 27.9493C41.7048 27.8807 41.3803 28.1005 41.313 28.4402C40.718 31.4448 38.1044 33.6255 35.0984 33.6255C31.6024 33.6255 28.7581 30.7238 28.7581 27.1571C28.7581 25.7942 29.1748 24.5297 29.8832 23.486H30.652C31.127 23.486 31.5133 23.0918 31.5133 22.6073V21.8274C32.5338 21.1103 33.7683 20.6886 35.0984 20.6886C38.053 20.6886 40.657 22.8256 41.2902 25.7699C41.3631 26.1085 41.6912 26.3226 42.023 26.2484C42.3549 26.1741 42.5649 25.8394 42.4922 25.5008C42.1281 23.8085 41.198 22.2697 39.8729 21.1678C38.5279 20.0493 36.8323 19.4333 35.0984 19.4333C33.8019 19.4333 32.5812 19.7687 31.5133 20.3572V18.9146C32.6098 18.4163 33.8227 18.1382 35.0984 18.1382C39.9729 18.1382 43.9386 22.1841 43.9386 27.1571C43.9386 32.1301 39.9729 36.1759 35.0984 36.1759ZM41.6818 34.9258C42.0498 34.6007 42.3945 34.249 42.7132 33.8736L44.5872 35.7855L43.5559 36.8377L41.6818 34.9258Z" fill="black"/>
<path d="M35.0981 22.2607C32.4518 22.2607 30.2988 24.4572 30.2988 27.157C30.2988 29.8568 32.4518 32.0533 35.0981 32.0533C37.7445 32.0533 39.8975 29.8568 39.8975 27.157C39.8975 24.4572 37.7445 22.2607 35.0981 22.2607ZM35.0981 30.798C33.1303 30.798 31.5293 29.1646 31.5293 27.157C31.5293 26.3803 31.7697 25.6602 32.1775 25.0684L34.6634 27.6012C34.7787 27.7186 34.9352 27.7847 35.0981 27.7847H38.6128C38.3203 29.4941 36.8562 30.798 35.0981 30.798ZM35.3528 26.5294L33.0471 24.1802C33.6279 23.7625 34.3352 23.5162 35.0981 23.5162C36.8562 23.5162 38.3203 24.82 38.6128 26.5294H35.3528V26.5294Z" fill="black"/>
<path d="M19.6535 19.1155H17.6089C17.269 19.1155 16.9937 19.3965 16.9937 19.7431C16.9937 20.0898 17.269 20.3708 17.6089 20.3708H19.6535C19.9934 20.3708 20.2688 20.0898 20.2688 19.7431C20.2688 19.3965 19.9933 19.1155 19.6535 19.1155Z" fill="black"/>
<path d="M28.1909 19.1155H21.5464C21.2065 19.1155 20.9312 19.3965 20.9312 19.7431C20.9312 20.0898 21.2065 20.3708 21.5464 20.3708H28.1909C28.5308 20.3708 28.8062 20.0898 28.8062 19.7431C28.8062 19.3965 28.5308 19.1155 28.1909 19.1155Z" fill="black"/>
</svg>
