<svg width="1184" height="694" viewBox="0 0 1184 694" fill="none" xmlns="http://www.w3.org/2000/svg">
<path d="M1562.53 -155.52C1555.62 -122.429 1504.59 -96.7001 1461.28 -74.0427C1417.96 -51.3852 1382.69 -31.8911 1341.2 -10.3675C1299.79 11.4488 1252.25 35.5872 1220.25 22.9965C1188.33 10.6984 1171.54 -38.5302 1133.13 -69.1952C1094.31 -100.062 1033.86 -112.364 1018.42 -141.178C1002.99 -169.992 1033.05 -214.822 1055.82 -256.379C1078.59 -297.937 1094.14 -335.928 1120.67 -370.332C1147.19 -404.737 1184.61 -435.846 1226.84 -445.607C1269 -455.661 1315.89 -444.66 1362.88 -434.627C1409.53 -424.504 1456.35 -415.057 1478.16 -387.687C1500.06 -360.025 1496.61 -314.348 1514.19 -271.321C1531.35 -228.495 1569.2 -188.226 1562.53 -155.52Z" fill="#FCCB0F"/>
<path d="M759.458 583.365C749.262 644.676 663.618 690.165 590.954 730.3C518.291 770.435 459.168 805.062 389.561 843.173C320.105 881.832 240.316 924.524 185.23 899.538C130.297 875.101 99.3561 782.591 32.4888 723.628C-35.0898 664.271 -138.595 638.46 -166.256 584.045C-193.917 529.631 -144.871 447.557 -108.094 371.231C-71.3178 294.905 -46.6596 224.876 -3.14575 162.055C40.3681 99.2337 102.586 43.0711 174.031 26.9083C245.324 10.1963 325.693 32.9351 406.167 53.8721C486.082 74.9635 566.253 94.8022 604.702 146.832C643.302 199.41 639.62 284.334 671.601 365.33C702.871 445.93 769.245 522.756 759.458 583.365Z" fill="#FCCB0F"/>
<circle cx="384" cy="95" r="8" fill="white" fill-opacity="0.48"/>
<circle cx="357" cy="623" r="8" fill="white" fill-opacity="0.48"/>
<circle cx="450" cy="281" r="4" fill="white" fill-opacity="0.48"/>
<circle cx="44" cy="641" r="4" fill="white" fill-opacity="0.48"/>
<circle cx="80.5" cy="353.5" r="10.5" fill="white" fill-opacity="0.48"/>
<circle cx="695.5" cy="557.5" r="10.5" fill="white" fill-opacity="0.48"/>
<circle cx="500.5" cy="548.5" r="5.5" fill="white" fill-opacity="0.48"/>
<circle cx="126.5" cy="76.5" r="5.5" fill="white" fill-opacity="0.48"/>
<path d="M240.923 28C243.108 28 244.964 30.8191 246.201 35.3744C246.631 36.9561 246.998 38.762 247.288 40.738C249.144 40.0033 250.892 39.4194 252.474 38.9979C257.033 37.7913 260.401 37.9924 261.496 39.8834C262.586 41.7744 261.074 44.7907 257.748 48.1357C256.596 49.2958 255.216 50.5178 253.646 51.7591C254.272 52.2541 254.871 52.749 255.436 53.2363C254.922 53.5959 254.5 54.0716 254.206 54.6284C253.557 54.0677 252.861 53.4992 252.126 52.9231C250.83 53.886 249.434 54.8527 247.949 55.8079C247.864 57.5751 247.725 59.2689 247.539 60.8737C249.485 61.6626 251.31 62.2813 252.949 62.7144C256.666 63.6966 259.268 63.7701 259.887 62.7028C260.216 62.1343 259.984 61.2411 259.291 60.1196C259.852 59.876 260.347 59.5048 260.742 59.0446C261.859 60.8737 262.172 62.463 261.499 63.627C260.405 65.518 257.041 65.7191 252.478 64.5126C250.896 64.0949 249.148 63.5071 247.288 62.7724C246.998 64.7485 246.631 66.5544 246.201 68.136C244.964 72.6914 243.108 75.5104 240.923 75.5104C238.738 75.5104 236.882 72.6914 235.644 68.136C235.215 66.5544 234.848 64.7485 234.558 62.7724C233.885 63.0392 233.228 63.2867 232.59 63.511C232.539 62.8652 232.334 62.2658 232.013 61.7438C232.756 61.4808 233.521 61.1908 234.31 60.8698C234.125 59.265 233.982 57.5674 233.9 55.8001C232.415 54.845 231.019 53.8782 229.724 52.9153C228.065 54.2069 226.615 55.4792 225.42 56.6818C222.705 59.4197 221.34 61.6394 221.959 62.7105C222.303 63.3061 223.262 63.5458 224.685 63.4723C224.674 63.5884 224.67 63.7082 224.67 63.8281C224.67 64.3347 224.766 64.8181 224.937 65.2628C222.667 65.3595 221.046 64.8413 220.35 63.6348C219.26 61.7438 220.772 58.7275 224.097 55.3825C225.254 54.2224 226.63 53.0004 228.2 51.7591C226.634 50.5178 225.254 49.2958 224.097 48.1357C220.772 44.7907 219.26 41.7744 220.35 39.8834C221.445 37.9924 224.809 37.7913 229.372 38.9979C230.954 39.4155 232.702 39.9994 234.562 40.738C234.666 40.0226 234.782 39.3304 234.906 38.6653C235.443 38.936 236.047 39.0868 236.689 39.0868L236.723 39.0868C236.58 39.8486 236.453 40.6491 236.337 41.4766C237.818 42.1147 239.357 42.8417 240.923 43.6499C242.493 42.8417 244.028 42.1147 245.509 41.4766C245.219 39.3923 244.844 37.5013 244.399 35.8656C243.394 32.1609 242.157 29.8678 240.923 29.8678C240.239 29.8678 239.55 30.5754 238.904 31.8361C238.406 31.4997 237.829 31.2715 237.203 31.1903C238.259 29.1562 239.523 28 240.923 28ZM257.427 53.8086C258.847 53.8086 259.999 54.961 259.999 56.3802C259.999 57.7994 258.847 58.9518 257.427 58.9518C256.008 58.9518 254.856 57.7994 254.856 56.3802C254.856 54.961 256.004 53.8086 257.427 53.8086ZM228.641 61.1753C230.06 61.1753 231.213 62.3277 231.213 63.7469C231.213 65.1661 230.06 66.3185 228.641 66.3185C227.222 66.3185 226.07 65.1661 226.07 63.7469C226.07 62.3277 227.222 61.1753 228.641 61.1753ZM236.685 32.5476C238.104 32.5476 239.256 33.7 239.256 35.1192C239.256 36.5384 238.104 37.6908 236.685 37.6908C235.265 37.6908 234.113 36.5384 234.113 35.1192C234.113 33.7 235.265 32.5476 236.685 32.5476ZM240.923 48.3406C242.81 48.3406 244.341 49.872 244.341 51.7591C244.341 53.6462 242.81 55.1775 240.923 55.1775C239.036 55.1775 237.505 53.6462 237.505 51.7591C237.505 49.872 239.036 48.3406 240.923 48.3406ZM229.72 50.5912C231.016 49.6283 232.412 48.6616 233.897 47.7064C233.982 45.9431 234.121 44.2454 234.306 42.6406C232.357 41.8517 230.536 41.233 228.896 40.796C225.18 39.8138 222.578 39.7403 221.959 40.8076C221.34 41.8788 222.705 44.0985 225.416 46.8247C226.611 48.0274 228.061 49.2996 229.72 50.5912ZM245.509 62.0454C244.028 61.4073 242.489 60.6765 240.923 59.8683C239.353 60.6765 237.818 61.4035 236.337 62.0454C236.627 64.1297 237.002 66.0207 237.447 67.6565C238.452 71.3611 239.689 73.6542 240.927 73.6542C242.16 73.6542 243.402 71.3611 244.403 67.6565C244.844 66.0207 245.219 64.1259 245.509 62.0454ZM238.916 58.801C238.406 58.5187 237.891 58.2286 237.377 57.9309C237.361 57.9231 237.342 57.9115 237.327 57.8999C236.82 57.606 236.321 57.3121 235.83 57.0144C235.9 58.0817 235.989 59.1181 236.097 60.1158C237.017 59.7136 237.961 59.2727 238.916 58.801ZM242.93 44.7172C243.444 44.9995 243.962 45.2934 244.485 45.5912C245.003 45.8889 245.513 46.1905 246.016 46.496C245.946 45.4326 245.857 44.3962 245.749 43.3985C244.829 43.8046 243.889 44.2454 242.93 44.7172ZM247.949 47.7064C249.434 48.6616 250.83 49.6283 252.126 50.5912C253.785 49.2996 255.235 48.0274 256.43 46.8247C259.137 44.0985 260.502 41.8788 259.887 40.8076C259.268 39.7403 256.666 39.8138 252.949 40.796C251.31 41.2291 249.485 41.8479 247.539 42.6406C247.725 44.2454 247.864 45.9392 247.949 47.7064ZM250.579 51.7591C249.767 51.1674 248.916 50.5719 248.027 49.9802C248.038 50.568 248.046 51.1597 248.046 51.7591C248.046 52.3585 248.038 52.954 248.027 53.5418C248.916 52.9501 249.767 52.3546 250.579 51.7591ZM246.128 48.7505C245.297 48.2285 244.434 47.7103 243.553 47.2037C242.671 46.6933 241.793 46.2099 240.923 45.7458C240.053 46.206 239.175 46.6933 238.293 47.2037L238.29 47.2037C237.408 47.7142 236.549 48.2285 235.718 48.7505C235.683 49.7366 235.664 50.7382 235.664 51.7591C235.664 52.78 235.683 53.7854 235.718 54.7676C236.542 55.282 237.388 55.7924 238.259 56.2951C238.262 56.2951 238.282 56.3067 238.282 56.3067L238.293 56.3145C239.179 56.8249 240.057 57.3121 240.927 57.7723C241.789 57.316 242.655 56.8365 243.529 56.3299C243.545 56.3222 243.56 56.3106 243.576 56.3029C244.45 55.7963 245.304 55.2858 246.128 54.7676C246.163 53.7854 246.182 52.78 246.182 51.7591C246.182 50.7382 246.163 49.7366 246.128 48.7505ZM238.912 44.7172C237.957 44.2454 237.013 43.8046 236.097 43.3985C235.989 44.4001 235.9 45.4326 235.83 46.4999C236.333 46.1944 236.843 45.8928 237.361 45.595C237.88 45.2934 238.398 44.9995 238.912 44.7172ZM231.267 51.7591C232.079 52.3546 232.93 52.9501 233.819 53.5418C233.808 52.954 233.8 52.3585 233.8 51.7591C233.8 51.1597 233.808 50.5642 233.819 49.9764C232.93 50.568 232.075 51.1636 231.267 51.7591ZM242.926 58.801C243.885 59.2727 244.825 59.7136 245.745 60.1196C245.853 59.1181 245.942 58.0856 246.012 57.0183C245.509 57.3237 244.999 57.6254 244.477 57.927L244.45 57.9425C243.943 58.2364 243.433 58.5225 242.926 58.801Z" fill="white" fill-opacity="0.47"/>
<path d="M218.923 341C221.108 341 222.964 343.819 224.201 348.374C224.631 349.956 224.998 351.762 225.288 353.738C227.144 353.003 228.892 352.419 230.474 351.998C235.033 350.791 238.401 350.992 239.496 352.883C240.586 354.774 239.074 357.791 235.748 361.136C234.596 362.296 233.216 363.518 231.646 364.759C232.272 365.254 232.871 365.749 233.436 366.236C232.922 366.596 232.5 367.072 232.206 367.628C231.557 367.068 230.861 366.499 230.126 365.923C228.83 366.886 227.434 367.853 225.949 368.808C225.864 370.575 225.725 372.269 225.539 373.874C227.485 374.663 229.31 375.281 230.949 375.714C234.666 376.697 237.268 376.77 237.887 375.703C238.216 375.134 237.984 374.241 237.291 373.12C237.852 372.876 238.347 372.505 238.742 372.045C239.859 373.874 240.172 375.463 239.499 376.627C238.405 378.518 235.041 378.719 230.478 377.513C228.896 377.095 227.148 376.507 225.288 375.772C224.998 377.748 224.631 379.554 224.201 381.136C222.964 385.691 221.108 388.51 218.923 388.51C216.738 388.51 214.882 385.691 213.644 381.136C213.215 379.554 212.848 377.748 212.558 375.772C211.885 376.039 211.228 376.287 210.59 376.511C210.539 375.865 210.334 375.266 210.013 374.744C210.756 374.481 211.521 374.191 212.31 373.87C212.125 372.265 211.982 370.567 211.9 368.8C210.415 367.845 209.019 366.878 207.724 365.915C206.065 367.207 204.615 368.479 203.42 369.682C200.705 372.42 199.34 374.639 199.959 375.711C200.303 376.306 201.262 376.546 202.685 376.472C202.674 376.588 202.67 376.708 202.67 376.828C202.67 377.335 202.766 377.818 202.937 378.263C200.667 378.359 199.046 377.841 198.35 376.635C197.26 374.744 198.772 371.727 202.097 368.382C203.254 367.222 204.63 366 206.2 364.759C204.634 363.518 203.254 362.296 202.097 361.136C198.772 357.791 197.26 354.774 198.35 352.883C199.445 350.992 202.809 350.791 207.372 351.998C208.954 352.415 210.702 352.999 212.562 353.738C212.666 353.023 212.782 352.33 212.906 351.665C213.443 351.936 214.047 352.087 214.689 352.087L214.723 352.087C214.58 352.849 214.453 353.649 214.337 354.477C215.818 355.115 217.357 355.842 218.923 356.65C220.493 355.842 222.028 355.115 223.509 354.477C223.219 352.392 222.844 350.501 222.399 348.866C221.394 345.161 220.157 342.868 218.923 342.868C218.239 342.868 217.55 343.575 216.904 344.836C216.406 344.5 215.829 344.272 215.203 344.19C216.259 342.156 217.523 341 218.923 341ZM235.427 366.809C236.847 366.809 237.999 367.961 237.999 369.38C237.999 370.799 236.847 371.952 235.427 371.952C234.008 371.952 232.856 370.799 232.856 369.38C232.856 367.961 234.004 366.809 235.427 366.809ZM206.641 374.175C208.06 374.175 209.213 375.328 209.213 376.747C209.213 378.166 208.06 379.318 206.641 379.318C205.222 379.318 204.07 378.166 204.07 376.747C204.07 375.328 205.222 374.175 206.641 374.175ZM214.685 345.548C216.104 345.548 217.256 346.7 217.256 348.119C217.256 349.538 216.104 350.691 214.685 350.691C213.265 350.691 212.113 349.538 212.113 348.119C212.113 346.7 213.265 345.548 214.685 345.548ZM218.923 361.341C220.81 361.341 222.341 362.872 222.341 364.759C222.341 366.646 220.81 368.178 218.923 368.178C217.036 368.178 215.505 366.646 215.505 364.759C215.505 362.872 217.036 361.341 218.923 361.341ZM207.72 363.591C209.016 362.628 210.412 361.662 211.897 360.706C211.982 358.943 212.121 357.245 212.306 355.641C210.357 354.852 208.536 354.233 206.896 353.796C203.18 352.814 200.578 352.74 199.959 353.808C199.34 354.879 200.705 357.098 203.416 359.825C204.611 361.027 206.061 362.3 207.72 363.591ZM223.509 375.045C222.028 374.407 220.489 373.676 218.923 372.868C217.353 373.676 215.818 374.403 214.337 375.045C214.627 377.13 215.002 379.021 215.447 380.656C216.452 384.361 217.689 386.654 218.927 386.654C220.16 386.654 221.402 384.361 222.403 380.656C222.844 379.021 223.219 377.126 223.509 375.045ZM216.916 371.801C216.406 371.519 215.891 371.229 215.377 370.931C215.361 370.923 215.342 370.912 215.327 370.9C214.82 370.606 214.321 370.312 213.83 370.014C213.9 371.082 213.989 372.118 214.097 373.116C215.017 372.714 215.961 372.273 216.916 371.801ZM220.93 357.717C221.444 357.999 221.962 358.293 222.485 358.591C223.003 358.889 223.513 359.191 224.016 359.496C223.946 358.433 223.857 357.396 223.749 356.399C222.829 356.805 221.889 357.245 220.93 357.717ZM225.949 360.706C227.434 361.662 228.83 362.628 230.126 363.591C231.785 362.3 233.235 361.027 234.43 359.825C237.137 357.098 238.502 354.879 237.887 353.808C237.268 352.74 234.666 352.814 230.949 353.796C229.31 354.229 227.485 354.848 225.539 355.641C225.725 357.245 225.864 358.939 225.949 360.706ZM228.579 364.759C227.767 364.167 226.916 363.572 226.027 362.98C226.038 363.568 226.046 364.16 226.046 364.759C226.046 365.358 226.038 365.954 226.027 366.542C226.916 365.95 227.767 365.355 228.579 364.759ZM224.128 361.751C223.297 361.228 222.434 360.71 221.553 360.204C220.671 359.693 219.793 359.21 218.923 358.746C218.053 359.206 217.175 359.693 216.293 360.204L216.29 360.204C215.408 360.714 214.549 361.228 213.718 361.751C213.683 362.737 213.664 363.738 213.664 364.759C213.664 365.78 213.683 366.785 213.718 367.768C214.542 368.282 215.388 368.792 216.259 369.295C216.262 369.295 216.282 369.307 216.282 369.307L216.293 369.314C217.179 369.825 218.057 370.312 218.927 370.772C219.789 370.316 220.655 369.837 221.529 369.33C221.545 369.322 221.56 369.311 221.576 369.303C222.45 368.796 223.304 368.286 224.128 367.768C224.163 366.785 224.182 365.78 224.182 364.759C224.182 363.738 224.163 362.737 224.128 361.751ZM216.912 357.717C215.957 357.245 215.013 356.805 214.097 356.399C213.989 357.4 213.9 358.433 213.83 359.5C214.333 359.194 214.843 358.893 215.361 358.595C215.88 358.293 216.398 357.999 216.912 357.717ZM209.267 364.759C210.079 365.355 210.93 365.95 211.819 366.542C211.808 365.954 211.8 365.358 211.8 364.759C211.8 364.16 211.808 363.564 211.819 362.976C210.93 363.568 210.075 364.164 209.267 364.759ZM220.926 371.801C221.885 372.273 222.825 372.714 223.745 373.12C223.853 372.118 223.942 371.086 224.012 370.018C223.509 370.324 222.999 370.625 222.477 370.927L222.45 370.942C221.943 371.236 221.433 371.523 220.926 371.801Z" fill="white" fill-opacity="0.47"/>
<path d="M94.2049 200.904L102.701 210.893C103.942 212.362 105.624 214.729 106.606 217.096C107.194 218.515 107.542 219.95 107.419 221.241C107.287 222.676 106.614 223.898 105.145 224.694C104.414 225.093 103.49 225.375 102.341 225.51C102.302 225.514 102.268 225.518 102.233 225.518L88.2342 225.518L74.2355 225.518C74.1775 225.518 74.1233 225.514 74.0653 225.503C72.9323 225.363 72.0235 225.085 71.3043 224.694C69.8116 223.886 69.1426 222.657 69.0188 221.206C68.9106 219.911 69.2779 218.461 69.8889 217.026C70.9408 214.574 72.7312 212.107 73.9919 210.615L82.1938 200.901L82.1938 189.079C82.1668 188.948 82.132 188.816 82.0972 188.688C82.0508 188.522 82.0005 188.36 81.9425 188.194C81.6486 187.347 81.1961 186.504 80.5813 185.695C80.2565 185.266 80.3454 184.655 80.7708 184.334C80.9487 184.203 81.1536 184.137 81.3586 184.137L84.603 184.137C83.8296 183.657 83.3153 182.803 83.3153 181.825C83.3153 180.324 84.5334 179.106 86.0338 179.106C87.5342 179.106 88.7523 180.324 88.7523 181.825C88.7523 182.803 88.238 183.657 87.4646 184.137L95.1059 184.137C95.6434 184.137 96.0804 184.574 96.0804 185.111C96.0804 185.374 95.976 185.614 95.8058 185.788C95.4152 186.233 95.0943 186.736 94.8352 187.289C94.5722 187.842 94.3673 188.449 94.2049 189.106L94.2049 200.904ZM90.5621 206.848L96.9582 206.848L92.5536 201.956C92.368 201.778 92.2559 201.531 92.2559 201.256L92.2559 188.998C92.2559 188.924 92.2636 188.847 92.2829 188.774C92.4763 187.958 92.7354 187.184 93.0757 186.465C93.1376 186.337 93.1994 186.214 93.2652 186.09L83.1335 186.09C83.3888 186.573 83.6053 187.068 83.7793 187.571C83.8489 187.776 83.9147 187.981 83.9688 188.186C84.0191 188.368 84.0616 188.545 84.1003 188.719C84.1274 188.808 84.139 188.901 84.139 188.998L84.139 201.26C84.139 201.481 84.0616 201.705 83.9069 201.887C80.415 206.082 73.8758 212.927 71.7992 217.792C70.3414 220.514 71.4241 224.01 74.3979 223.886L88.2342 223.886L102.186 223.886C103.049 223.778 103.718 223.581 104.22 223.306C105.825 222.645 105.705 218.534 105.056 217.838C104.932 217.54 104.797 217.247 104.654 216.949C104.599 216.96 104.538 216.968 104.483 216.968L95.0672 216.968C94.5761 216.968 94.1701 216.512 94.1701 215.955C94.1701 215.398 94.5722 214.942 95.0672 214.942L103.513 214.942C103.041 214.199 102.542 213.507 102.078 212.908C102.036 212.915 101.989 212.919 101.947 212.919L94.9087 212.919C92.1747 212.919 92.5343 210.893 94.1469 210.893L100.4 210.893L98.5978 208.778C98.4857 208.836 98.3581 208.871 98.2266 208.871L90.5621 208.871C89.3788 208.874 89.3788 206.848 90.5621 206.848ZM79.0693 187.942C80.1018 187.942 80.9371 188.781 80.9371 189.81C80.9371 190.842 80.0979 191.678 79.0693 191.678C78.0368 191.678 77.2015 190.842 77.2015 189.81C77.1976 188.781 78.0368 187.942 79.0693 187.942ZM77.623 178C79.4521 178 80.9371 179.485 80.9371 181.314C80.9371 183.143 79.4521 184.628 77.623 184.628C75.7939 184.628 74.309 183.143 74.309 181.314C74.309 179.485 75.7939 178 77.623 178Z" fill="white" fill-opacity="0.47"/>
<path d="M529.205 152.904L537.701 162.893C538.942 164.362 540.624 166.729 541.606 169.096C542.194 170.515 542.542 171.95 542.419 173.241C542.287 174.676 541.614 175.898 540.145 176.694C539.414 177.093 538.49 177.375 537.341 177.51C537.302 177.514 537.268 177.518 537.233 177.518L523.234 177.518L509.235 177.518C509.177 177.518 509.123 177.514 509.065 177.503C507.932 177.363 507.024 177.085 506.304 176.694C504.812 175.886 504.143 174.657 504.019 173.206C503.911 171.911 504.278 170.461 504.889 169.026C505.941 166.574 507.731 164.107 508.992 162.615L517.194 152.901L517.194 141.079C517.167 140.948 517.132 140.816 517.097 140.688C517.051 140.522 517 140.36 516.942 140.194C516.649 139.347 516.196 138.504 515.581 137.695C515.256 137.266 515.345 136.655 515.771 136.334C515.949 136.203 516.154 136.137 516.359 136.137L519.603 136.137C518.83 135.657 518.315 134.803 518.315 133.825C518.315 132.324 519.533 131.106 521.034 131.106C522.534 131.106 523.752 132.324 523.752 133.825C523.752 134.803 523.238 135.657 522.465 136.137L530.106 136.137C530.643 136.137 531.08 136.574 531.08 137.111C531.08 137.374 530.976 137.614 530.806 137.788C530.415 138.233 530.094 138.736 529.835 139.289C529.572 139.842 529.367 140.449 529.205 141.106L529.205 152.904ZM525.562 158.848L531.958 158.848L527.554 153.956C527.368 153.778 527.256 153.531 527.256 153.256L527.256 140.998C527.256 140.924 527.264 140.847 527.283 140.774C527.476 139.958 527.735 139.184 528.076 138.465C528.138 138.337 528.199 138.214 528.265 138.09L518.134 138.09C518.389 138.573 518.605 139.068 518.779 139.571C518.849 139.776 518.915 139.981 518.969 140.186C519.019 140.368 519.062 140.545 519.1 140.719C519.127 140.808 519.139 140.901 519.139 140.998L519.139 153.26C519.139 153.481 519.062 153.705 518.907 153.887C515.415 158.082 508.876 164.927 506.799 169.792C505.341 172.514 506.424 176.01 509.398 175.886L523.234 175.886L537.186 175.886C538.049 175.778 538.718 175.581 539.22 175.306C540.825 174.645 540.705 170.534 540.056 169.838C539.932 169.54 539.797 169.247 539.654 168.949C539.599 168.96 539.538 168.968 539.483 168.968L530.067 168.968C529.576 168.968 529.17 168.512 529.17 167.955C529.17 167.398 529.572 166.942 530.067 166.942L538.513 166.942C538.041 166.199 537.542 165.507 537.078 164.908C537.036 164.915 536.989 164.919 536.947 164.919L529.909 164.919C527.175 164.919 527.534 162.893 529.147 162.893L535.4 162.893L533.598 160.778C533.486 160.836 533.358 160.871 533.227 160.871L525.562 160.871C524.379 160.874 524.379 158.848 525.562 158.848ZM514.069 139.942C515.102 139.942 515.937 140.781 515.937 141.81C515.937 142.842 515.098 143.678 514.069 143.678C513.037 143.678 512.201 142.842 512.201 141.81C512.198 140.781 513.037 139.942 514.069 139.942ZM512.623 130C514.452 130 515.937 131.485 515.937 133.314C515.937 135.143 514.452 136.628 512.623 136.628C510.794 136.628 509.309 135.143 509.309 133.314C509.309 131.485 510.794 130 512.623 130Z" fill="white" fill-opacity="0.47"/>
<path d="M549.603 271.58L541.698 287.902L543.508 293.544L553.331 273.966C551.996 273.536 550.805 272.794 549.839 271.827C549.761 271.746 549.68 271.665 549.603 271.58ZM552.604 257.596L552.604 252.415C552.604 251.475 552.986 250.62 553.605 250.002C554.228 249.383 555.082 249 556.022 249C556.962 249 557.816 249.383 558.435 250.002C559.054 250.62 559.437 251.475 559.437 252.415L559.437 257.593C560.477 258.033 561.413 258.671 562.201 259.46C563.783 261.042 564.761 263.227 564.761 265.64C564.761 267.272 564.313 268.803 563.532 270.11L564.12 271.324L569.986 254.557C570.067 254.325 570.233 254.151 570.438 254.05C570.643 253.95 570.883 253.93 571.119 254.012L583.13 258.215C583.362 258.296 583.536 258.463 583.636 258.668C583.733 258.869 583.756 259.112 583.675 259.344L572.519 291.236C572.438 291.468 572.267 291.646 572.066 291.742C571.861 291.843 571.622 291.862 571.386 291.781L570.864 291.584L569.464 295.942C569.325 296.371 568.864 296.607 568.435 296.472C568.203 296.398 568.029 296.228 567.936 296.023L564.618 289.411L559.375 287.585L559.375 287.581L559.371 287.581C559.143 287.5 558.965 287.338 558.868 287.133C558.768 286.928 558.748 286.684 558.829 286.452L560.597 281.402L557.047 274.325C556.71 274.364 556.37 274.383 556.022 274.383C555.67 274.383 555.322 274.364 554.982 274.321L544.088 296.027C543.995 296.232 543.821 296.398 543.589 296.476C543.16 296.615 542.696 296.379 542.561 295.946L540.047 288.111C539.978 287.91 539.981 287.686 540.082 287.481L548.501 270.099C547.723 268.792 547.279 267.268 547.279 265.64C547.279 263.227 548.257 261.042 549.839 259.46C550.627 258.675 551.563 258.037 552.604 257.596ZM557.797 257.082L557.797 252.415C557.797 251.927 557.596 251.483 557.275 251.162C556.954 250.841 556.509 250.64 556.022 250.64C555.535 250.64 555.09 250.841 554.769 251.162C554.448 251.483 554.247 251.927 554.247 252.415L554.247 257.082C554.819 256.962 555.415 256.9 556.022 256.9C556.629 256.9 557.221 256.966 557.797 257.082ZM562.43 271.591C562.356 271.672 562.279 271.75 562.201 271.827C561.231 272.798 560.036 273.54 558.698 273.969L561.351 279.256L561.355 279.244L563.056 282.628L563.041 282.624L565.79 288.103L565.813 288.111L566.869 290.211L566.842 290.199L568.52 293.544L570.33 287.902L568.404 283.927L568.393 283.943L567.847 282.817L567.867 282.825L564.986 276.877L564.978 276.874L563.354 273.513L563.354 273.509L562.43 271.591ZM556.022 262.183C556.977 262.183 557.843 262.569 558.47 263.196C559.096 263.822 559.483 264.689 559.483 265.644C559.483 266.599 559.096 267.465 558.47 268.092C557.843 268.718 556.977 269.105 556.022 269.105C555.067 269.105 554.201 268.718 553.574 268.092C552.948 267.465 552.561 266.599 552.561 265.644C552.561 264.689 552.948 263.822 553.574 263.196C554.201 262.569 555.067 262.183 556.022 262.183ZM557.306 264.356C556.977 264.027 556.521 263.822 556.018 263.822C555.515 263.822 555.059 264.027 554.73 264.356C554.402 264.685 554.197 265.141 554.197 265.644C554.197 266.146 554.402 266.603 554.73 266.931C555.059 267.26 555.515 267.465 556.018 267.465C556.521 267.465 556.977 267.26 557.306 266.931C557.635 266.603 557.839 266.146 557.839 265.644C557.839 265.141 557.635 264.685 557.306 264.356ZM561.041 260.624C559.758 259.34 557.983 258.544 556.022 258.544C554.061 258.544 552.286 259.337 551.003 260.624C549.719 261.908 548.922 263.683 548.922 265.644C548.922 267.604 549.719 269.379 551.003 270.663C552.286 271.947 554.061 272.744 556.022 272.744C557.983 272.744 559.758 271.947 561.041 270.663C561.339 270.365 561.614 270.041 561.853 269.693C561.888 269.623 561.931 269.557 561.985 269.499C562.704 268.389 563.122 267.067 563.122 265.644C563.122 263.683 562.325 261.908 561.041 260.624ZM565.125 273.397L566.312 275.849L567.07 276.116C567.495 276.263 567.739 276.684 567.611 277.048C567.534 277.268 567.337 277.423 567.101 277.473L571.95 287.481C571.989 287.562 572.012 287.643 572.024 287.725L581.896 259.511L571.281 255.806L570.245 258.768L575.697 260.675C576.123 260.825 576.363 261.239 576.235 261.607C576.107 261.97 575.659 262.148 575.233 261.997L569.781 260.091L568.311 264.279L570.895 265.184C571.32 265.331 571.564 265.752 571.436 266.116C571.308 266.479 570.856 266.657 570.431 266.51L567.847 265.609L566.362 269.855L571.815 271.761C572.24 271.912 572.484 272.33 572.356 272.693C572.229 273.057 571.776 273.235 571.351 273.088L565.898 271.181L565.125 273.397ZM563.567 287.322L561.614 283.432C560.651 286.185 562.182 281.8 560.616 286.29L563.567 287.322Z" fill="white" fill-opacity="0.47"/>
<path d="M637.603 621.58L629.698 637.902L631.508 643.544L641.331 623.966C639.996 623.536 638.805 622.794 637.839 621.827C637.761 621.746 637.68 621.665 637.603 621.58ZM640.604 607.596L640.604 602.415C640.604 601.475 640.986 600.62 641.605 600.002C642.228 599.383 643.082 599 644.022 599C644.962 599 645.816 599.383 646.435 600.002C647.054 600.62 647.437 601.475 647.437 602.415L647.437 607.593C648.477 608.033 649.413 608.671 650.201 609.46C651.783 611.042 652.761 613.227 652.761 615.64C652.761 617.272 652.313 618.803 651.532 620.11L652.12 621.324L657.986 604.557C658.067 604.325 658.233 604.151 658.438 604.05C658.643 603.95 658.883 603.93 659.119 604.012L671.13 608.215C671.362 608.296 671.536 608.463 671.636 608.668C671.733 608.869 671.756 609.112 671.675 609.344L660.519 641.236C660.438 641.468 660.267 641.646 660.066 641.742C659.861 641.843 659.622 641.862 659.386 641.781L658.864 641.584L657.464 645.942C657.325 646.371 656.864 646.607 656.435 646.472C656.203 646.398 656.029 646.228 655.936 646.023L652.618 639.411L647.375 637.585L647.375 637.581L647.371 637.581C647.143 637.5 646.965 637.338 646.868 637.133C646.768 636.928 646.748 636.684 646.829 636.452L648.597 631.402L645.047 624.325C644.71 624.364 644.37 624.383 644.022 624.383C643.67 624.383 643.322 624.364 642.982 624.321L632.088 646.027C631.995 646.232 631.821 646.398 631.589 646.476C631.16 646.615 630.696 646.379 630.561 645.946L628.047 638.111C627.978 637.91 627.981 637.686 628.082 637.481L636.501 620.099C635.723 618.792 635.279 617.268 635.279 615.64C635.279 613.227 636.257 611.042 637.839 609.46C638.627 608.675 639.563 608.037 640.604 607.596ZM645.797 607.082L645.797 602.415C645.797 601.927 645.596 601.483 645.275 601.162C644.954 600.841 644.509 600.64 644.022 600.64C643.535 600.64 643.09 600.841 642.769 601.162C642.448 601.483 642.247 601.927 642.247 602.415L642.247 607.082C642.819 606.962 643.415 606.9 644.022 606.9C644.629 606.9 645.221 606.966 645.797 607.082ZM650.43 621.591C650.356 621.672 650.279 621.75 650.201 621.827C649.231 622.798 648.036 623.54 646.698 623.969L649.351 629.256L649.355 629.244L651.056 632.628L651.041 632.624L653.79 638.103L653.813 638.111L654.869 640.211L654.842 640.199L656.52 643.544L658.33 637.902L656.404 633.927L656.393 633.943L655.847 632.817L655.867 632.825L652.986 626.877L652.978 626.874L651.354 623.513L651.354 623.509L650.43 621.591ZM644.022 612.183C644.977 612.183 645.843 612.569 646.47 613.196C647.096 613.822 647.483 614.689 647.483 615.644C647.483 616.599 647.096 617.465 646.47 618.092C645.843 618.718 644.977 619.105 644.022 619.105C643.067 619.105 642.201 618.718 641.574 618.092C640.948 617.465 640.561 616.599 640.561 615.644C640.561 614.689 640.948 613.822 641.574 613.196C642.201 612.569 643.067 612.183 644.022 612.183ZM645.306 614.356C644.977 614.027 644.521 613.822 644.018 613.822C643.515 613.822 643.059 614.027 642.73 614.356C642.402 614.685 642.197 615.141 642.197 615.644C642.197 616.146 642.402 616.603 642.73 616.931C643.059 617.26 643.515 617.465 644.018 617.465C644.521 617.465 644.977 617.26 645.306 616.931C645.635 616.603 645.839 616.146 645.839 615.644C645.839 615.141 645.635 614.685 645.306 614.356ZM649.041 610.624C647.758 609.34 645.983 608.544 644.022 608.544C642.061 608.544 640.286 609.337 639.003 610.624C637.719 611.908 636.922 613.683 636.922 615.644C636.922 617.604 637.719 619.379 639.003 620.663C640.286 621.947 642.061 622.744 644.022 622.744C645.983 622.744 647.758 621.947 649.041 620.663C649.339 620.365 649.614 620.041 649.853 619.693C649.888 619.623 649.931 619.557 649.985 619.499C650.704 618.389 651.122 617.067 651.122 615.644C651.122 613.683 650.325 611.908 649.041 610.624ZM653.125 623.397L654.312 625.849L655.07 626.116C655.495 626.263 655.739 626.684 655.611 627.048C655.534 627.268 655.337 627.423 655.101 627.473L659.95 637.481C659.989 637.562 660.012 637.643 660.024 637.725L669.896 609.511L659.281 605.806L658.245 608.768L663.697 610.675C664.123 610.825 664.363 611.239 664.235 611.607C664.107 611.97 663.659 612.148 663.233 611.997L657.781 610.091L656.311 614.279L658.895 615.184C659.32 615.331 659.564 615.752 659.436 616.116C659.308 616.479 658.856 616.657 658.431 616.51L655.847 615.609L654.362 619.855L659.815 621.761C660.24 621.912 660.484 622.33 660.356 622.693C660.229 623.057 659.776 623.235 659.351 623.088L653.898 621.181L653.125 623.397ZM651.567 637.322L649.614 633.432C648.651 636.185 650.182 631.8 648.616 636.29L651.567 637.322Z" fill="white" fill-opacity="0.47"/>
<path d="M305.632 210.785C306.328 210.569 307.074 210.422 307.855 210.348C307.983 210.325 308.114 210.387 308.172 210.511L310.241 214.656C310.315 214.799 310.261 214.977 310.114 215.054L309.371 215.449C309.313 215.48 309.271 215.53 309.255 215.588C309.24 215.642 309.24 215.7 309.263 215.754C309.731 216.659 310.152 217.614 310.609 218.531C310.64 218.585 310.686 218.62 310.736 218.639C310.79 218.659 310.848 218.659 310.906 218.635C313.416 217.402 316.255 215.642 318.749 214.583C318.803 214.552 318.842 214.505 318.861 214.447C318.876 214.393 318.876 214.335 318.853 214.285L317.368 211.47C317.337 211.412 317.287 211.373 317.229 211.354C317.175 211.338 317.109 211.338 317.055 211.365L316.401 211.709C316.255 211.787 316.077 211.729 315.999 211.582L309.402 198.975C309.371 198.917 309.325 198.879 309.267 198.859C309.213 198.84 309.147 198.844 309.089 198.871L308.346 199.227C308.199 199.304 308.022 199.246 307.944 199.103L306.262 195.897C306.185 195.75 306.243 195.572 306.39 195.495L307.093 195.128C307.152 195.097 307.194 195.046 307.213 194.988C307.229 194.934 307.229 194.876 307.202 194.818L305.825 192.127C305.798 192.069 305.744 192.026 305.686 192.011C305.632 191.995 305.574 191.995 305.516 192.019C304.069 192.954 301.788 193.971 300.191 194.822C300.133 194.853 300.094 194.903 300.075 194.961C300.059 195.015 300.059 195.073 300.083 195.128C300.535 196.021 300.968 196.941 301.405 197.846C301.432 197.896 301.479 197.935 301.533 197.951C301.587 197.97 301.649 197.97 301.703 197.947L302.697 197.432C302.844 197.359 303.022 197.417 303.095 197.564L304.657 200.673C304.727 200.82 304.665 200.998 304.514 201.071L303.865 201.381C303.807 201.408 303.764 201.458 303.741 201.516C303.721 201.57 303.721 201.628 303.745 201.678L304.112 202.405C304.12 202.425 304.127 202.44 304.135 202.463C304.182 202.622 304.093 202.788 303.934 202.835C303.168 203.059 302.426 203.333 301.707 203.651C300.991 203.968 300.295 204.335 299.638 204.745C298.277 205.588 297.039 206.613 295.987 207.788C294.966 208.929 294.12 210.213 293.485 211.617L293.478 211.632C292.816 213.098 292.395 214.695 292.267 216.381C292.147 217.978 292.287 219.664 292.735 221.404C292.952 222.251 293.246 223.113 293.621 223.991C293.98 224.842 294.417 225.7 294.932 226.563C295.001 226.671 294.994 226.814 294.908 226.915C294.475 227.421 294.085 227.947 293.741 228.492C293.4 229.034 293.103 229.595 292.863 230.178C292.608 230.789 292.406 231.424 292.275 232.081C292.14 232.738 292.07 233.423 292.07 234.131C292.07 234.196 292.047 234.266 292 234.324L288.048 239.131C288.01 239.181 287.994 239.239 288.002 239.297C288.006 239.355 288.037 239.409 288.083 239.452L288.095 239.463C288.114 239.479 288.137 239.49 288.157 239.498C288.18 239.506 288.207 239.51 288.238 239.51L288.284 239.513L331.506 239.513C331.572 239.513 331.634 239.486 331.676 239.444C331.719 239.401 331.746 239.343 331.746 239.274C331.746 239.235 331.738 239.2 331.723 239.169C331.707 239.138 331.688 239.111 331.661 239.088C329.909 237.464 328.219 235.739 326.456 234.134C326.436 234.115 326.413 234.1 326.39 234.088C326.363 234.076 326.332 234.073 326.301 234.073L315.705 234.073C315.555 234.073 315.423 233.957 315.408 233.802C315.338 233.071 315.207 232.367 315.029 231.694C314.847 231.006 314.611 230.352 314.333 229.734C314.309 229.691 314.298 229.645 314.298 229.591C314.298 229.424 314.433 229.293 314.596 229.293L324.638 229.293C324.704 229.293 324.766 229.266 324.808 229.223C324.851 229.181 324.878 229.119 324.878 229.053L324.878 224.602C324.878 224.536 324.851 224.475 324.808 224.432C324.766 224.389 324.708 224.362 324.638 224.362L309.514 224.362C309.464 224.362 309.414 224.351 309.367 224.324C309.104 224.177 308.83 224.034 308.544 223.902C308.261 223.771 307.975 223.655 307.681 223.546C306.931 223.272 306.154 223.071 305.361 222.955C304.58 222.839 303.783 222.8 302.987 222.847L302.979 222.847C302.805 222.858 302.639 222.874 302.476 222.889C302.318 222.905 302.151 222.928 301.974 222.955C301.854 222.97 301.734 222.916 301.672 222.804C301.223 222.007 300.879 221.242 300.636 220.503C300.38 219.73 300.23 218.983 300.172 218.272C300.117 217.56 300.156 216.88 300.288 216.238C300.423 215.573 300.647 214.95 300.957 214.385C301.262 213.829 301.645 213.318 302.093 212.866C302.546 212.406 303.068 211.999 303.644 211.659C304.247 211.3 304.916 211.006 305.632 210.785ZM303.118 224.389C308.644 224.057 313.184 228.226 313.756 233.705L293.779 233.705C293.818 232.622 294.054 231.613 294.448 230.662C295.898 227.174 299.313 224.618 303.118 224.389ZM293.3 235.109C303.942 235.109 315.295 235.229 325.938 235.229L328.544 238.249L290.334 238.249L293.3 235.109Z" fill="white" fill-opacity="0.47"/>
<path d="M93.6318 565.785C94.3278 565.569 95.0742 565.422 95.8553 565.348C95.9829 565.325 96.1144 565.387 96.1724 565.511L98.2413 569.656C98.3147 569.799 98.2606 569.977 98.1137 570.054L97.3712 570.449C97.3132 570.48 97.2706 570.53 97.2552 570.588C97.2397 570.642 97.2397 570.7 97.2629 570.754C97.7308 571.659 98.1523 572.614 98.6086 573.531C98.6396 573.585 98.686 573.62 98.7362 573.639C98.7904 573.659 98.8484 573.659 98.9064 573.635C101.416 572.402 104.255 570.642 106.749 569.583C106.803 569.552 106.842 569.505 106.861 569.447C106.876 569.393 106.876 569.335 106.853 569.285L105.368 566.47C105.337 566.412 105.287 566.373 105.229 566.354C105.175 566.338 105.109 566.338 105.055 566.365L104.401 566.709C104.255 566.787 104.077 566.729 103.999 566.582L97.4021 553.975C97.3712 553.917 97.3248 553.879 97.2668 553.859C97.2126 553.84 97.1469 553.844 97.0889 553.871L96.3464 554.227C96.1995 554.304 96.0216 554.246 95.9442 554.103L94.2621 550.897C94.1847 550.75 94.2428 550.572 94.3897 550.495L95.0935 550.128C95.1515 550.097 95.194 550.046 95.2134 549.988C95.2288 549.934 95.2288 549.876 95.2018 549.818L93.8251 547.127C93.798 547.069 93.7439 547.026 93.6859 547.011C93.6318 546.995 93.5738 546.995 93.5157 547.019C92.0695 547.954 89.7879 548.971 88.1908 549.822C88.1328 549.853 88.0942 549.903 88.0748 549.961C88.0594 550.015 88.0594 550.073 88.0826 550.128C88.535 551.021 88.9681 551.941 89.4051 552.846C89.4322 552.896 89.4786 552.935 89.5327 552.951C89.5868 552.97 89.6487 552.97 89.7028 552.947L90.6967 552.432C90.8436 552.359 91.0215 552.417 91.095 552.564L92.6573 555.673C92.7269 555.82 92.665 555.998 92.5142 556.071L91.8645 556.381C91.8065 556.408 91.764 556.458 91.7408 556.516C91.7214 556.57 91.7214 556.628 91.7446 556.678L92.112 557.405C92.1197 557.425 92.1275 557.44 92.1352 557.463C92.1816 557.622 92.0927 557.788 91.9341 557.835C91.1685 558.059 90.426 558.333 89.7067 558.651C88.9913 558.968 88.2952 559.335 87.6379 559.745C86.2767 560.588 85.0392 561.613 83.9874 562.788C82.9665 563.929 82.1196 565.213 81.4854 566.617L81.4777 566.632C80.8164 568.098 80.3949 569.695 80.2673 571.381C80.1474 572.978 80.2866 574.664 80.7352 576.404C80.9517 577.251 81.2456 578.113 81.6207 578.991C81.9804 579.842 82.4173 580.7 82.9317 581.563C83.0013 581.671 82.9935 581.814 82.9085 581.915C82.4754 582.421 82.0848 582.947 81.7406 583.492C81.4003 584.034 81.1026 584.595 80.8628 585.178C80.6076 585.789 80.4065 586.424 80.275 587.081C80.1397 587.738 80.0701 588.423 80.0701 589.131C80.0701 589.196 80.0469 589.266 80.0005 589.324L76.0483 594.131C76.0097 594.181 75.9942 594.239 76.0019 594.297C76.0058 594.355 76.0367 594.409 76.0831 594.452L76.0947 594.463C76.1141 594.479 76.1373 594.49 76.1566 594.498C76.1798 594.506 76.2069 594.51 76.2378 594.51L76.2842 594.513L119.506 594.513C119.572 594.513 119.634 594.486 119.676 594.444C119.719 594.401 119.746 594.343 119.746 594.274C119.746 594.235 119.738 594.2 119.723 594.169C119.707 594.138 119.688 594.111 119.661 594.088C117.909 592.464 116.219 590.739 114.456 589.134C114.436 589.115 114.413 589.1 114.39 589.088C114.363 589.076 114.332 589.073 114.301 589.073L103.705 589.073C103.555 589.073 103.423 588.957 103.408 588.802C103.338 588.071 103.207 587.367 103.029 586.694C102.847 586.006 102.611 585.352 102.333 584.734C102.309 584.691 102.298 584.645 102.298 584.591C102.298 584.424 102.433 584.293 102.596 584.293L112.638 584.293C112.704 584.293 112.766 584.266 112.808 584.223C112.851 584.181 112.878 584.119 112.878 584.053L112.878 579.602C112.878 579.536 112.851 579.475 112.808 579.432C112.766 579.389 112.708 579.362 112.638 579.362L97.5143 579.362C97.464 579.362 97.4137 579.351 97.3673 579.324C97.1044 579.177 96.8298 579.034 96.5436 578.902C96.2613 578.771 95.9752 578.655 95.6813 578.546C94.9311 578.272 94.1538 578.071 93.3611 577.955C92.5799 577.839 91.7833 577.8 90.9867 577.847L90.979 577.847C90.805 577.858 90.6387 577.874 90.4763 577.889C90.3177 577.905 90.1514 577.928 89.9735 577.955C89.8537 577.97 89.7338 577.916 89.6719 577.804C89.2233 577.007 88.8792 576.242 88.6355 575.503C88.3803 574.73 88.2295 573.983 88.1715 573.272C88.1174 572.56 88.156 571.88 88.2875 571.238C88.4229 570.573 88.6471 569.95 88.9565 569.385C89.262 568.829 89.6448 568.318 90.0934 567.866C90.5459 567.406 91.0679 566.999 91.6441 566.659C92.2474 566.3 92.9164 566.006 93.6318 565.785ZM91.1182 579.389C96.6442 579.057 101.184 583.226 101.756 588.705L81.7793 588.705C81.818 587.622 82.0538 586.613 82.4483 585.662C83.8984 582.174 87.313 579.618 91.1182 579.389ZM81.2998 590.109C91.9419 590.109 103.295 590.229 113.938 590.229L116.544 593.249L78.3338 593.249L81.2998 590.109Z" fill="white" fill-opacity="0.47"/>
<path d="M156.321 672.652C156.321 672.652 159.628 672.565 159.453 678.83C159.279 685.096 159.453 694.319 159.453 694.319H156.321V683.529L146.923 694.319H114.641C114.641 694.319 116.381 688.402 131.522 688.489L156.321 672.652Z" fill="#1F0C07"/>
<path d="M156.321 672.652V664.56L143.791 659.774L145.705 672.652L130.304 688.663H137.439C140.746 688.663 143.965 687.445 146.402 685.183C149.621 682.137 154.059 677.525 156.321 672.652Z" fill="#E9B089"/>
<path d="M137.09 475.65C137.09 475.65 125.778 503.06 131.956 580.068C138.134 657.077 140.048 666.996 140.048 666.996L160.497 666.648L155.798 475.65H137.09Z" fill="#294286"/>
<path d="M205.136 672.652C205.136 672.652 201.83 672.565 202.004 678.83C202.178 685.096 202.004 694.319 202.004 694.319H205.136V683.529L214.534 694.319H246.817C246.817 694.319 245.076 688.402 229.936 688.489L205.136 672.652Z" fill="#1F0C07"/>
<path d="M205.136 672.652L197.044 655.51L209.574 650.725L215.752 672.652L231.154 688.663H224.019C220.712 688.663 217.493 687.445 215.056 685.183C211.837 682.137 207.399 677.525 205.136 672.652Z" fill="#E9B089"/>
<path d="M169.025 475.65C169.025 475.65 175.029 491.748 185.645 529.338C197.218 570.235 219.668 666.735 219.668 666.735L197.74 667.866L137.265 490.442L143.095 475.65H169.025V475.65Z" fill="#294286"/>
<path d="M157.712 549.004L146.313 516.634" stroke="black" stroke-width="0.4574" stroke-miterlimit="10" stroke-linecap="round" stroke-linejoin="round"/>
<path d="M184.687 373.146C184.687 373.146 187.994 380.281 186.253 390.201C184.513 400.382 195.738 399.425 194.433 409.257C194.433 409.257 162.672 418.742 133.261 399.599C133.261 399.599 131.26 390.897 137.351 388.809C145.965 385.85 148.141 376.975 148.141 376.975L184.687 373.146Z" fill="black"/>
<path d="M185.91 382.031C187.226 372.365 179.839 363.377 169.41 361.957C158.982 360.538 149.461 367.223 148.145 376.89C146.829 386.557 154.216 395.544 164.645 396.964C175.073 398.384 184.594 391.698 185.91 382.031Z" fill="black"/>
<path d="M168.763 394.03L168.415 423.006L154.405 421.178L158.756 395.683L168.763 394.03Z" fill="#E9B089"/>
<path d="M156.233 410.476L167.11 402.47L158.409 397.51L156.233 410.476Z" fill="#D7896D"/>
<path d="M153.709 392.028C153.796 390.201 153.535 388.461 152.926 386.72C152.056 384.371 150.576 381.935 147.705 382.892C142.919 384.458 146.4 392.376 150.924 393.595C152.317 393.943 153.709 393.16 153.709 392.028Z" fill="#D7896D"/>
<path d="M171.809 366.272C168.764 364.967 165.37 364.271 162.063 364.532C157.539 364.88 151.535 366.881 149.707 374.799C146.749 388.026 147.358 396.814 153.188 401.339C157.278 404.472 161.802 404.82 168.067 402.209C170.417 401.252 173.897 396.988 174.855 394.552L177.552 387.678C177.552 387.678 186.515 372.537 171.809 366.272Z" fill="#E9B089"/>
<path d="M155.973 386.459L153.972 389.244L155.451 390.201" stroke="black" stroke-width="0.4498" stroke-miterlimit="10" stroke-linecap="round" stroke-linejoin="round"/>
<path d="M155.624 374.451C155.624 374.451 155.972 375.844 153.884 375.844C152.317 375.844 151.273 375.844 150.403 376.018C149.881 376.105 149.359 375.931 149.098 375.496C148.924 375.147 148.924 374.799 149.185 374.538C149.707 374.016 150.925 373.233 152.84 373.233C155.276 373.233 155.624 374.451 155.624 374.451Z" fill="black"/>
<path d="M161.542 374.887C161.542 374.887 160.672 376.105 163.543 376.714C165.719 377.236 168.242 378.193 169.46 378.628C170.156 378.889 170.94 378.889 171.375 378.541C171.723 378.28 171.81 377.932 171.462 377.584C170.853 376.888 168.242 375.148 165.632 374.539C162.325 373.755 161.542 374.887 161.542 374.887Z" fill="black"/>
<path d="M159.714 384.197C159.714 384.197 161.802 379.063 168.241 383.849C168.241 383.936 164.674 388.374 159.714 384.197Z" fill="white"/>
<path d="M161.454 383.501C161.106 384.719 161.802 385.937 163.02 386.285C164.238 386.634 165.37 385.85 165.718 384.632C166.066 383.414 165.37 382.196 164.151 381.848C162.933 381.5 161.715 382.283 161.454 383.501Z" fill="black"/>
<path d="M168.067 384.023C167.458 383.501 166.849 383.066 166.066 382.718C165.37 382.37 164.587 382.196 163.804 382.109C163.021 382.022 162.237 382.196 161.541 382.457C160.845 382.805 160.323 383.414 160.149 384.023C160.062 384.197 159.888 384.284 159.714 384.197C159.54 384.11 159.453 383.936 159.54 383.762C159.888 382.892 160.584 382.196 161.367 381.848C162.15 381.5 163.021 381.413 163.891 381.5C164.761 381.587 165.544 381.848 166.327 382.196C167.11 382.544 167.806 382.979 168.416 383.588C168.503 383.675 168.503 383.762 168.416 383.849C168.242 384.11 168.155 384.11 168.067 384.023Z" fill="black"/>
<path d="M154.755 383.501C154.755 383.501 153.362 377.932 149.099 381.064C149.099 381.064 150.665 386.372 154.755 383.501Z" fill="white"/>
<path d="M153.449 382.196C153.449 383.327 152.753 384.284 151.883 384.284C151.013 384.284 150.23 383.414 150.143 382.283C150.143 381.152 150.839 380.194 151.709 380.194C152.666 380.107 153.449 381.064 153.449 382.196Z" fill="black"/>
<path d="M149.011 380.978C149.359 380.542 149.794 380.194 150.404 380.02C150.665 379.933 150.926 379.933 151.274 379.933C151.535 379.933 151.796 379.933 152.144 380.107C152.492 380.194 152.84 380.368 153.188 380.542C153.536 380.716 153.797 380.978 154.058 381.239C154.319 381.5 154.493 381.848 154.667 382.109C154.841 382.457 155.015 382.805 155.102 383.153C155.102 383.327 155.015 383.414 154.928 383.501C154.754 383.501 154.667 383.414 154.58 383.327C154.406 382.718 154.145 382.109 153.71 381.587C153.536 381.326 153.275 381.065 153.014 380.891C152.753 380.716 152.405 380.542 152.144 380.455C151.709 380.281 151.187 380.281 150.752 380.368C150.317 380.542 149.881 380.804 149.533 381.152C149.446 381.239 149.359 381.239 149.359 381.152C148.924 381.152 148.924 381.065 149.011 380.978Z" fill="black"/>
<path d="M152.666 392.203L161.106 392.812C161.106 392.812 160.062 395.857 156.756 395.422C153.449 394.987 152.666 392.203 152.666 392.203Z" fill="white"/>
<path opacity="0.22" d="M166.153 378.889L158.234 386.634C158.234 386.634 159.54 390.723 162.759 390.81L170.765 383.327C170.678 383.24 169.546 379.237 166.153 378.889Z" fill="white"/>
<path opacity="0.22" d="M151.621 376.453L144.66 384.284C144.66 384.284 145.704 388.287 148.402 388.374L155.363 380.717C155.45 380.717 154.58 376.714 151.621 376.453Z" fill="white"/>
<path d="M158.148 383.849C157.539 387.33 159.888 390.636 163.456 391.245C166.936 391.854 170.243 389.505 170.852 385.937C171.461 382.457 169.112 379.15 165.544 378.541C162.063 377.932 158.757 380.281 158.148 383.849Z" stroke="#C0653E" stroke-width="0.7177" stroke-miterlimit="10"/>
<path d="M144.747 381.5C144.138 384.98 146.139 388.2 149.098 388.722C152.056 389.244 154.928 386.808 155.537 383.327C156.146 379.846 154.145 376.627 151.186 376.105C148.228 375.583 145.269 378.019 144.747 381.5Z" stroke="#C0653E" stroke-width="0.7177" stroke-miterlimit="10"/>
<path d="M158.148 383.849C158.148 383.849 156.929 382.892 155.45 383.414" stroke="#C0653E" stroke-width="0.7177" stroke-miterlimit="10"/>
<path d="M174.854 389.853L170.678 386.459" stroke="#C0653E" stroke-width="0.7177" stroke-miterlimit="10"/>
<path d="M174.68 390.462C174.68 389.244 171.2 379.411 176.334 367.577C176.334 367.577 181.032 367.055 181.641 375.582C182.599 389.418 174.68 390.462 174.68 390.462Z" fill="black"/>
<path d="M172.244 394.552C172.853 392.812 173.81 391.071 175.116 389.679C176.856 387.678 179.292 385.937 181.642 387.939C185.731 391.332 179.205 397.771 174.332 397.162C172.853 396.988 171.809 395.683 172.244 394.552Z" fill="#E9B089"/>
<path d="M179.901 391.332C176.595 389.679 174.158 393.334 174.158 393.334" stroke="black" stroke-width="0.4498" stroke-miterlimit="10" stroke-linecap="round" stroke-linejoin="round"/>
<path d="M177.813 368.621C177.813 368.621 171.374 374.886 148.141 371.145C148.141 371.145 152.752 362.356 164.848 361.834C176.769 361.399 177.813 368.621 177.813 368.621Z" fill="black"/>
<path d="M164.064 419.177C164.064 419.177 158.06 439.451 115.597 470.603L104.546 456.158L141.701 415.87L164.064 419.177Z" fill="#942314"/>
<path d="M82.0957 426.399L89.9271 422.396L101.5 439.277C98.7156 441.105 95.148 443.106 92.3635 444.933L82.0957 426.399Z" fill="#E9B089"/>
<path d="M91.2317 421.439L91.7538 419.612C92.4499 417.175 92.5369 414.565 92.0149 412.128L91.1447 407.778C90.9707 406.734 89.8395 406.124 88.8823 406.472C88.0122 406.821 87.4901 407.604 87.4901 408.474L87.403 413.26L80.3548 400.468C80.0068 399.772 79.0496 399.511 78.4405 399.946L78.0054 400.294C77.4833 400.642 77.3093 401.339 77.5703 401.948L82.5302 411.78L75.3079 401.252C74.8729 400.555 74.0027 400.381 73.3066 400.904L72.9585 401.165C72.4364 401.6 72.2624 402.296 72.6105 402.905L78.5275 412.564L72.4364 406.211C71.8273 405.602 70.8702 405.602 70.3481 406.298L70.261 406.472C69.913 406.908 69.913 407.604 70.261 408.039L76.0911 415.087L72.2624 412.128C71.5663 411.432 70.4351 411.693 70.087 412.651C69.913 413.086 70 413.608 70.3481 413.956L84.5315 429.967L88.3602 426.486C89.6654 425.007 90.7096 423.266 91.2317 421.439Z" fill="#E9B089"/>
<path d="M87.3157 413.173C87.3157 413.173 84.4442 415.522 84.7053 420.134" stroke="black" stroke-width="0.5672" stroke-miterlimit="10" stroke-linecap="round" stroke-linejoin="round"/>
<path d="M119.773 459.03L94.1905 425.529L84.0098 434.056L101.587 466.165C104.545 471.299 108.983 473.909 113.943 471.647C118.381 469.559 121.861 463.468 119.773 459.03Z" fill="#942314"/>
<path d="M111.681 448.414L117.163 454.766" stroke="black" stroke-width="0.4574" stroke-miterlimit="10" stroke-linecap="round" stroke-linejoin="round"/>
<path d="M142.137 421.439L159.54 433.622L158.496 493.836L134.48 489.746C134.48 489.833 123.081 438.668 142.137 421.439Z" fill="white"/>
<path d="M132.565 489.659L156.321 494.271L155.798 488.267L132.565 484.351V489.659Z" fill="black"/>
<path d="M168.329 432.316C168.329 432.316 139.614 441.975 141.006 424.311L154.58 413.869L163.63 419.003L168.329 422.919L173.115 430.837L168.329 432.316Z" fill="#E9B089"/>
<path d="M155.625 414.565C155.625 414.565 143.007 424.398 136.133 441.627C132.392 451.112 134.654 470.168 135.263 482.959C135.872 495.664 136.742 519.941 136.742 519.941L127.345 514.72C127.345 514.72 127.171 458.943 128.476 451.634C129.868 444.325 136.307 416.045 145.705 412.999C145.705 412.999 148.924 412.042 154.406 414.043L155.625 414.565Z" fill="#942314"/>
<path d="M127.866 461.118C127.866 461.118 126.822 443.367 132.565 434.405" stroke="black" stroke-width="0.4574" stroke-miterlimit="10" stroke-linecap="round" stroke-linejoin="round"/>
<path d="M173.897 422.832C173.897 422.832 169.634 419.177 163.542 423.876C157.451 428.575 149.707 445.369 149.707 464.773C149.707 484.177 155.45 521.159 155.45 521.159C155.45 521.159 176.508 529.251 191.213 518.809L169.024 481.48L179.727 451.634L173.897 422.832Z" fill="#942314"/>
<path d="M172.244 421.961C172.244 421.961 187.82 425.703 215.926 470.255L200.785 480.262L171.374 447.022L172.244 421.961Z" fill="#942314"/>
<path d="M178.248 454.766L171.374 447.022" stroke="black" stroke-width="0.4574" stroke-miterlimit="10" stroke-linecap="round" stroke-linejoin="round"/>
<path d="M153.275 477.303L163.369 475.041L163.021 472.778C162.934 471.995 163.369 471.125 164.065 470.777C164.848 470.429 165.718 470.603 166.24 471.299L173.028 480.784L178.162 488.093C172.244 491.051 166.676 490.529 165.109 489.224C164.848 489.224 157.278 489.833 157.278 489.833C156.495 489.92 155.799 489.485 155.625 488.702C155.538 488.18 155.625 487.31 157.278 486.962L155.625 487.31C154.841 487.397 154.058 486.875 153.971 486.092C153.797 485.396 154.406 484.612 155.451 484.264L154.232 484.438C153.362 484.612 152.492 483.916 152.492 482.959C152.405 482.176 153.014 481.393 153.797 481.219L155.625 480.784H153.623C152.666 480.871 151.883 480.175 151.796 479.13C151.796 478.26 152.492 477.477 153.275 477.303Z" fill="#E9B089"/>
<path d="M173.114 480.784L189.908 476.346L192.606 486.44L175.377 489.311L173.114 480.784Z" fill="#E9B089"/>
<path d="M205.397 466.948L175.985 477.042L182.25 490.355L210.617 484.003C215.925 482.785 218.884 477.129 216.97 472.082C215.055 467.47 209.921 465.208 205.397 466.948Z" fill="#942314"/>
<path d="M192.605 471.299L202.438 467.905" stroke="black" stroke-width="0.4574" stroke-miterlimit="10" stroke-linecap="round" stroke-linejoin="round"/>
<path d="M576.256 680.745L577.213 632.452L594.877 635.758L591.309 678.396L576.256 680.745Z" fill="white"/>
<path d="M575.908 673.001C575.908 673.001 587.394 679.179 592.267 670.216L624.376 689.359L570.774 689.011L575.908 673.001Z" fill="#101010"/>
<path d="M570.826 688.971L570.794 693.931L624.395 694.275L624.427 689.316L570.826 688.971Z" fill="white"/>
<path d="M595.226 679.614C595.4 679.527 595.487 679.44 595.574 679.353C597.75 676.481 599.925 675.089 600.012 675.089C600.447 674.828 600.534 674.219 600.273 673.871C600.012 673.436 599.403 673.349 598.968 673.61C598.881 673.697 596.444 675.176 594.095 678.308C593.747 678.744 593.921 679.266 594.269 679.527C594.617 679.701 594.965 679.701 595.226 679.614Z" fill="white"/>
<path d="M599.838 681.876C600.012 681.789 600.099 681.702 600.186 681.615C602.361 678.743 604.536 677.351 604.623 677.351C605.058 677.09 605.145 676.481 604.884 676.133C604.623 675.698 604.014 675.611 603.579 675.872C603.492 675.959 601.056 677.438 598.706 680.571C598.358 681.006 598.532 681.528 598.88 681.789C599.141 681.963 599.489 682.05 599.838 681.876Z" fill="white"/>
<path d="M604.45 684.225C604.624 684.138 604.711 684.051 604.798 683.964C606.973 681.093 609.149 679.701 609.236 679.701C609.671 679.44 609.758 678.831 609.497 678.482C609.236 678.047 608.627 677.96 608.192 678.221C608.104 678.308 605.668 679.788 603.319 682.92C602.971 683.355 603.145 683.877 603.493 684.138C603.754 684.313 604.102 684.312 604.45 684.225Z" fill="white"/>
<path d="M530.573 679.44L537.621 631.755L554.763 637.237L545.801 679.092L530.573 679.44Z" fill="white"/>
<path d="M531.182 673C531.182 673 542.668 679.178 547.541 670.216L579.649 689.359L526.048 689.011L531.182 673Z" fill="#101010"/>
<path d="M526.08 689.04L526.048 694L579.649 694.344L579.681 689.385L526.08 689.04Z" fill="white"/>
<path d="M550.5 679.613C550.674 679.526 550.761 679.439 550.848 679.352C553.023 676.481 555.198 675.089 555.285 675.089C555.721 674.828 555.808 674.218 555.547 673.87C555.285 673.435 554.676 673.348 554.241 673.609C554.154 673.696 551.718 675.176 549.368 678.308C549.02 678.743 549.194 679.265 549.542 679.526C549.804 679.7 550.152 679.7 550.5 679.613Z" fill="white"/>
<path d="M555.111 681.876C555.285 681.789 555.372 681.702 555.459 681.615C557.634 678.743 559.81 677.351 559.897 677.351C560.332 677.09 560.419 676.481 560.158 676.133C559.897 675.698 559.288 675.611 558.853 675.872C558.766 675.959 556.329 677.438 553.98 680.571C553.632 681.006 553.806 681.528 554.154 681.789C554.415 681.963 554.763 682.05 555.111 681.876Z" fill="white"/>
<path d="M559.636 684.225C559.81 684.138 559.897 684.051 559.984 683.964C562.16 681.093 564.335 679.701 564.422 679.701C564.857 679.44 564.944 678.83 564.683 678.482C564.422 678.047 563.813 677.96 563.378 678.221C563.291 678.308 560.855 679.788 558.505 682.92C558.157 683.355 558.331 683.877 558.679 684.138C559.027 684.312 559.375 684.312 559.636 684.225Z" fill="white"/>
<path d="M596.879 491.922C596.879 491.922 602.274 491.748 603.144 516.808C603.318 521.942 603.231 529.077 602.883 534.211L596.008 666.648H570.861L577.3 529.774L553.545 666.648L527.44 666.126L555.285 491.922L574.603 489.485L596.879 491.922Z" fill="black"/>
<path d="M577.301 529.861L588.178 527.337" stroke="#434141" stroke-width="0.675" stroke-miterlimit="10" stroke-linecap="round" stroke-linejoin="round"/>
<path d="M562.334 419.612C562.334 419.612 571.819 429.184 582.696 433.361C593.659 437.537 614.717 450.851 630.728 452.069L625.42 429.706L590.701 410.737L562.334 419.612Z" fill="#0A1D47"/>
<path d="M652.482 395.857L653.266 390.027C653.44 388.896 654.223 387.852 655.354 387.59L662.315 385.502C663.359 385.241 664.403 385.676 664.926 386.546C665.535 387.677 665.187 389.07 664.055 389.679L660.749 391.506C660.749 391.506 665.361 395.161 660.923 400.121L652.482 395.857Z" fill="#E9B089"/>
<path d="M655.44 387.59L664.49 375.234C665.099 374.364 666.317 374.277 667.1 374.973C667.71 375.495 667.884 376.365 667.449 377.062L661.793 388.113L655.44 387.59Z" fill="#E9B089"/>
<path d="M662.663 384.545L666.144 383.327C666.84 383.153 667.623 383.327 668.232 383.762L669.015 384.371C669.885 385.067 670.146 386.372 669.624 387.416L665.186 395.335L659.443 391.158L662.663 384.545Z" fill="#E9B089"/>
<path d="M669.015 385.676H670.32C670.93 385.676 671.539 385.937 671.974 386.372L673.018 387.416C673.453 387.852 673.714 388.461 673.714 389.07C673.714 389.592 673.54 390.114 673.279 390.462L667.623 398.032L662.663 394.378L669.015 385.676Z" fill="#E9B089"/>
<path d="M671.104 388.722H672.409C673.018 388.722 673.627 388.983 674.063 389.418L675.107 390.462C675.542 390.897 675.803 391.506 675.803 392.115C675.803 392.637 675.629 393.159 675.368 393.508L673.366 396.205C671.365 398.902 667.449 399.512 664.752 397.423L671.104 388.722Z" fill="#E9B089"/>
<path d="M670.669 397.771L667.971 400.73C665.448 403.514 661.097 403.775 658.312 401.252L652.482 395.944L657.007 390.201H662.663L667.623 393.595L670.669 397.771Z" fill="#E9B089"/>
<path d="M655.876 387.503L663.446 384.98C664.49 384.632 665.709 385.241 665.97 386.372C666.231 387.155 665.97 388.113 665.274 388.635L660.749 391.506C660.749 391.506 664.839 393.508 661.532 398.206" stroke="black" stroke-width="0.5672" stroke-miterlimit="10" stroke-linecap="round" stroke-linejoin="round"/>
<path d="M652.482 395.857L642.823 409.257L653.613 417.35L663.533 400.904L652.482 395.857Z" fill="#E9B089"/>
<path d="M621.069 433.186L646.303 400.121L662.053 412.303L640.299 446.848C635.861 452.504 629.509 453.896 624.375 449.806C619.764 445.978 615.239 437.624 621.069 433.186Z" fill="#0A1D47"/>
<path d="M550.5 420.83L570.514 406.212L580.695 406.299C580.695 406.299 590.875 407.952 598.272 418.568C605.668 429.184 604.189 514.546 604.189 514.546C604.189 514.546 596.444 513.85 596.357 501.581C596.357 501.581 593.747 518.288 579.65 519.941C565.554 521.681 542.669 517.243 542.669 517.243L558.332 476.172L545.714 440.67C543.452 433.622 545.366 425.964 550.5 420.83Z" fill="#0A1D47"/>
<path d="M590.701 410.824L596.705 421.439H593.66L597.054 425.79C597.054 425.79 599.142 438.93 594.008 454.853L579.563 408.822L580.695 406.299C580.695 406.299 584.61 407.082 587.656 408.909" fill="#FAFAFA"/>
<path d="M563.379 411.346C563.379 411.346 586.873 430.141 593.921 454.679C593.921 454.679 596.532 424.485 580.695 406.212L570.514 406.125L563.379 411.346Z" fill="white"/>
<path d="M564.423 415.783C564.423 415.783 587.83 425.877 586.873 409.692L579.738 395.944C579.738 395.944 563.727 400.904 562.77 401.165L558.593 406.821L557.375 410.65L564.423 415.783Z" fill="#E9B089"/>
<path d="M563.379 411.346L558.419 415L564.945 426.312L571.471 426.399L566.946 430.924C566.946 430.924 584.262 444.499 593.921 454.766C593.921 454.679 587.482 429.88 563.379 411.346Z" fill="#FAFAFA"/>
<path d="M602.796 442.845C602.796 442.845 602.448 435.101 600.795 429.01" stroke="black" stroke-width="0.5672" stroke-miterlimit="10" stroke-linecap="round" stroke-linejoin="round"/>
<path d="M557.896 415.436C557.896 415.436 547.89 418.481 542.495 428.836C537.1 439.191 520.654 463.816 517.608 479.566L540.406 476.868L562.508 444.673L557.896 415.436Z" fill="#0A1D47"/>
<path d="M552.414 459.378L562.508 444.586" stroke="black" stroke-width="0.5672" stroke-miterlimit="10" stroke-linecap="round" stroke-linejoin="round"/>
<path d="M611.585 468.428L574.516 453.548L570.774 462.424L606.973 476.52L611.585 468.428Z" fill="#C27F22"/>
<path d="M573.56 459.552L575.474 455.375L610.193 469.646L608.105 473.823L573.56 459.552Z" fill="white"/>
<path d="M608.278 471.212L586.959 522.29L550.413 506.888L571.036 455.897L608.278 471.212Z" fill="#D59934"/>
<path d="M608.279 471.212L611.585 468.428L590.441 519.419L586.96 522.29L608.279 471.212Z" fill="#C27F22"/>
<path d="M571.297 475.998L594.617 485.57L597.227 479.479L573.907 469.907L571.297 475.998Z" fill="white"/>
<path d="M554.329 485.222L580.173 499.144L577.301 509.238L550.152 499.84L554.329 485.222Z" fill="#E9B089"/>
<path d="M580.172 499.144C580.172 499.144 598.445 495.837 597.749 502.45C597.053 509.064 593.747 524.552 577.301 509.238L580.172 499.144Z" fill="#E9B089"/>
<path d="M579.563 499.927L582 497.23C583.392 495.663 585.307 494.619 587.308 494.184L591.049 493.314C591.92 493.14 592.877 493.575 593.312 494.358C593.747 495.228 593.486 496.36 592.616 496.969L587.134 500.536L579.563 499.927Z" fill="#E9B089"/>
<path d="M535.447 469.733L576.606 491.661L568.6 510.891L525.441 492.705C518.741 490.094 515.608 484.351 518.044 478.347C520.22 472.865 529.53 465.469 535.447 469.733Z" fill="#0A1D47"/>
<path d="M542.67 473.561L535.447 469.733" stroke="black" stroke-width="0.5672" stroke-miterlimit="10" stroke-linecap="round" stroke-linejoin="round"/>
<path d="M585.306 385.763C585.48 384.023 585.915 382.37 586.785 380.716C587.917 378.541 589.657 376.453 592.267 377.671C596.705 379.759 592.354 386.981 587.743 387.591C586.437 387.765 585.219 386.894 585.306 385.763Z" fill="#D7896D"/>
<path d="M593.399 368.273C592.529 377.671 584.436 388.374 574.256 388.374C564.075 388.374 557.462 380.455 555.025 371.232C552.328 360.964 563.988 353.916 574.169 354.09C580.608 354.177 594.356 358.005 593.399 368.273Z" fill="#744028"/>
<path d="M569.122 384.893L566.512 412.825L580.956 412.912L580.086 387.852L569.122 384.893Z" fill="#E9B089"/>
<path d="M580.608 402.383L571.123 393.247L580.086 389.592L580.608 402.383Z" fill="#D7896D"/>
<path d="M571.297 358.005C574.429 357.135 577.736 356.961 580.955 357.57C585.219 358.44 590.788 361.138 591.484 368.969C592.703 382.022 591.049 392.637 584.61 395.596C579.65 397.858 575.996 396.988 570.34 393.682C568.251 392.463 566.163 387.155 565.554 384.719L563.117 377.758C563.03 377.758 556.33 362.095 571.297 358.005Z" fill="#E9B089"/>
<path d="M583.566 377.323L585.655 381.935L584.089 383.153" stroke="black" stroke-width="0.4357" stroke-miterlimit="10" stroke-linecap="round" stroke-linejoin="round"/>
<path d="M585.742 367.664C585.742 367.664 585.22 369.578 587.221 369.926C588.788 370.188 589.745 370.362 590.615 370.797C591.137 371.058 591.659 370.797 591.92 370.275C592.181 369.839 592.181 369.317 591.92 368.882C591.485 368.012 590.441 366.707 588.614 366.359C586.264 366.011 585.742 367.664 585.742 367.664Z" fill="#744028"/>
<path d="M579.738 367.577C579.738 367.577 580.434 369.491 577.563 369.839C575.387 370.101 572.864 370.971 571.646 371.406C570.949 371.667 570.166 371.406 569.818 370.884C569.47 370.449 569.557 369.926 569.905 369.491C570.601 368.621 573.299 366.62 575.909 366.272C579.129 365.837 579.738 367.577 579.738 367.577Z" fill="#744028"/>
<path d="M580.347 376.714C580.347 376.714 579.042 371.58 572.168 375.321C572.168 375.321 574.865 380.716 580.347 376.714Z" fill="white"/>
<path d="M578.956 376.018C579.13 377.323 578.172 378.541 576.867 378.715C575.562 378.889 574.431 377.932 574.257 376.54C574.083 375.234 575.04 374.016 576.345 373.842C577.65 373.755 578.782 374.712 578.956 376.018Z" fill="black"/>
<path d="M572.082 375.235C572.691 374.712 573.474 374.364 574.257 374.103C575.04 373.842 575.823 373.668 576.693 373.755C577.477 373.755 578.347 373.929 579.043 374.451C579.739 374.887 580.348 375.583 580.522 376.54C580.522 376.714 580.435 376.888 580.261 376.888C580.087 376.888 579.913 376.801 579.913 376.627C579.826 376.018 579.304 375.322 578.782 374.887C578.173 374.451 577.389 374.277 576.693 374.19C575.91 374.19 575.127 374.277 574.431 374.451C573.648 374.625 572.952 374.974 572.343 375.409C572.256 375.496 572.169 375.409 572.169 375.409C571.995 375.322 571.995 375.235 572.082 375.235Z" fill="black"/>
<path d="M585.48 376.714C585.48 376.714 587.482 371.58 591.224 375.147C591.224 375.06 589.744 380.107 585.48 376.714Z" fill="white"/>
<path d="M586.785 375.669C586.611 376.888 587.221 378.019 588.178 378.193C589.135 378.367 590.092 377.497 590.266 376.279C590.44 375.06 589.831 373.929 588.874 373.755C587.917 373.581 586.96 374.451 586.785 375.669Z" fill="black"/>
<path d="M591.137 375.147C590.876 374.712 590.441 374.451 590.005 374.19C589.57 374.016 589.048 373.929 588.613 374.103C588.004 374.19 587.395 374.538 586.873 374.973C586.438 375.408 586.003 376.017 585.829 376.54C585.742 376.714 585.655 376.714 585.481 376.714C585.307 376.627 585.307 376.54 585.307 376.366C585.481 376.017 585.655 375.756 585.829 375.408C586.003 375.147 586.264 374.886 586.525 374.625C586.786 374.364 587.134 374.19 587.395 374.016C587.743 373.842 588.091 373.755 588.439 373.755C588.961 373.668 589.57 373.755 590.092 373.929C590.615 374.19 590.963 374.538 591.311 374.973C591.311 375.06 591.311 375.147 591.311 375.147C591.224 375.234 591.137 375.234 591.137 375.147Z" fill="black"/>
<path d="M578.606 385.502C578.606 385.502 583.305 388.026 586.612 384.98" stroke="black" stroke-width="0.4357" stroke-miterlimit="10" stroke-linecap="round" stroke-linejoin="round"/>
<path d="M565.641 381.5C565.641 381.5 571.906 361.573 562.596 361.051L557.549 370.971L560.246 379.237L565.641 381.5Z" fill="#744028"/>
<path d="M567.294 385.763C566.946 383.936 566.25 382.283 565.119 380.716C563.64 378.541 561.638 376.627 559.028 378.193C554.677 380.89 560.072 387.939 564.858 388.026C566.337 388.026 567.468 386.894 567.294 385.763Z" fill="#E9B089"/>
<path d="M560.246 381.674C563.64 380.542 565.467 384.371 565.467 384.371" stroke="black" stroke-width="0.4357" stroke-miterlimit="10" stroke-linecap="round" stroke-linejoin="round"/>
<path d="M563.988 361.573C563.988 361.573 587.134 367.577 595.053 356.613C595.053 356.613 580.434 348.434 567.904 355.134L563.988 361.573Z" fill="#744028"/>
<path d="M563.988 358.005C563.988 358.005 569.035 350.087 578.259 350C578.259 350 575.735 356.352 570.253 358.092C564.771 359.833 563.988 358.005 563.988 358.005Z" fill="#744028"/>
<path d="M561.116 361.051C561.116 361.051 561.377 355.83 565.815 353.307C565.815 353.307 566.337 357.048 564.162 359.398C561.986 361.66 561.116 361.051 561.116 361.051Z" fill="#744028"/>
<path d="M328.002 664.125H313.035V684.574H328.002V664.125Z" fill="white"/>
<path d="M327.131 679.179L321.214 683.094L314.688 681.006C314.166 680.832 313.644 680.832 313.122 681.093C312.252 681.441 311.729 682.311 311.729 683.181V691.535H355.759C355.759 691.535 355.672 684.138 344.795 685.966L329.394 678.918C328.697 678.657 327.827 678.744 327.131 679.179Z" fill="black"/>
<path d="M311.758 694.393H322.635V691.608H311.758V694.393Z" fill="black"/>
<path d="M322.606 691.622L328.436 694.406H355.846V691.622H322.606Z" fill="black"/>
<path d="M270.92 664.125H285.887L283.276 684.574H268.31L270.92 664.125Z" fill="white"/>
<path d="M282.493 679.179L276.575 683.094L270.049 681.006C269.527 680.832 269.005 680.832 268.483 681.093C267.613 681.441 267.091 682.311 267.091 683.181V691.535H311.121C311.121 691.535 311.034 684.138 300.157 685.966L284.755 678.918C283.972 678.657 283.102 678.744 282.493 679.179Z" fill="black"/>
<path d="M267.067 694.393H277.944V691.608H267.067V694.393Z" fill="black"/>
<path d="M277.881 691.622L283.711 694.406H311.121V691.622H277.881Z" fill="black"/>
<path d="M328.524 474.606C328.524 474.606 330.003 477.477 330.96 504.8C331.134 510.456 332.091 520.463 332.091 529.512L331.743 672.74H308.51L305.9 523.073L288.845 672.74L265.351 672.13L279.099 479.914L301.027 477.216L328.524 474.606Z" fill="#212E38"/>
<path d="M305.812 523.073L317.473 518.113" stroke="black" stroke-width="0.4574" stroke-miterlimit="10" stroke-linecap="round" stroke-linejoin="round"/>
<path d="M327.307 483.395L349.67 531.949L356.805 531.427C348.191 498.274 348.191 498.361 341.838 477.913C340.794 474.693 334.268 473.91 331.136 475.128C328.177 476.346 326.176 480.436 327.307 483.395Z" fill="#E9B089"/>
<path d="M349.06 527.598C349.06 527.598 347.233 534.212 350.365 540.216L349.756 546.829C349.669 547.873 350.365 548.743 351.322 549.004C352.367 549.265 353.498 548.569 353.759 547.438L354.803 543.609L355.151 544.914C355.76 547.003 355.586 549.265 354.716 551.354L352.28 557.184C352.019 557.88 351.235 557.706 351.671 558.315C352.541 559.359 354.194 559.185 354.89 557.967L359.937 551.528C361.59 548.743 361.851 545.349 360.807 542.391L354.368 525.423L349.06 527.598Z" fill="#E9B089"/>
<path d="M343.578 477.216L341.663 446.326C338.966 422.658 324.173 416.306 324.173 416.306L322.955 456.594L327.48 454.157L330.699 496.186L344.274 527.685L357.587 522.116L343.578 477.216Z" fill="white"/>
<path d="M300.853 410.65C294.588 411.172 288.41 412.564 282.493 414.826C280.84 415.436 279.186 416.219 277.707 417.002C273.53 419.177 274.749 423.963 275.271 428.749L277.707 494.184L328.872 492.966C331.221 492.879 332.962 490.965 332.875 488.615L330.873 436.145C330.699 426.922 329.046 417.959 322.955 415.784C316.081 413.347 307.64 410.65 303.899 410.389L300.853 410.65Z" fill="#FFCC00"/>
<path d="M319.822 414.653C319.822 414.653 310.077 410.824 303.898 410.302C303.898 410.302 295.458 410.65 289.628 412.477L310.86 440.409L319.822 414.653Z" fill="white"/>
<path d="M307.901 415.175L303.638 420.57L308.772 424.224L312.774 419.96L307.901 415.175Z" fill="#294286"/>
<path d="M307.641 421.962L305.117 432.926L310.773 440.409L312.775 434.753L309.381 421.962H307.641Z" fill="#294286"/>
<path d="M303.464 420.831L302.245 422.658L295.371 419.699" stroke="#E0E0E0" stroke-width="0.75" stroke-miterlimit="10" stroke-linecap="round" stroke-linejoin="round"/>
<path d="M312.774 419.96L314.341 421.44L317.995 418.655" stroke="#E0E0E0" stroke-width="0.75" stroke-miterlimit="10" stroke-linecap="round" stroke-linejoin="round"/>
<path d="M279.622 415.958C279.622 415.958 263.785 418.481 230.197 464.164L247.513 477.738L275.271 445.543C286.148 431.272 279.622 415.958 279.622 415.958Z" fill="white"/>
<path d="M269.442 431.272L307.032 444.934L303.9 454.07L267.44 440.409L269.442 431.272Z" fill="black"/>
<path d="M303.725 450.068L305.117 445.63L269.702 433.1L268.396 437.624L303.725 450.068Z" fill="white"/>
<path d="M270.051 435.536L251.777 487.832L289.281 500.798L307.989 449.023L270.051 435.536Z" fill="#212E38"/>
<path d="M270.05 435.536L269.441 431.272L251.168 483.394L251.777 487.832L270.05 435.536Z" fill="black"/>
<path d="M294.414 463.816L270.572 455.376L272.748 449.11L296.59 457.551L294.414 463.816Z" fill="white"/>
<path d="M257.084 468.254L284.668 478.261L283.276 488.615L255.083 483.307L257.084 468.254Z" fill="#E9B089"/>
<path d="M284.668 478.261C284.668 478.261 302.245 472.256 302.593 478.87C302.854 485.483 301.897 501.32 283.275 488.528L284.668 478.261Z" fill="#E9B089"/>
<path d="M284.146 479.131L286.235 476.172C287.453 474.432 289.106 473.127 291.021 472.343L294.675 470.951C295.545 470.603 296.503 470.951 297.025 471.647C297.634 472.518 297.46 473.649 296.677 474.258L291.804 478.609L284.146 479.131Z" fill="#E9B089"/>
<path d="M243.162 461.031L278.925 472.605L275.619 490.791L235.679 480.784C229.501 478.957 226.368 471.995 229.153 466.078C231.589 460.944 237.854 458.682 243.162 461.031Z" fill="white"/>
<path d="M257.171 465.643L247.513 462.511" stroke="#E0E0E0" stroke-width="0.75" stroke-miterlimit="10" stroke-linecap="round" stroke-linejoin="round"/>
<path d="M305.987 354.351C305.987 354.351 318.082 348.956 324.348 355.569C329.22 360.703 320.867 369.752 316.429 369.23C311.991 368.708 305.987 354.351 305.987 354.351Z" fill="white"/>
<path d="M316.168 385.328C316.342 383.588 316.778 381.761 317.648 380.194C318.779 377.932 320.519 375.757 323.217 376.975C327.829 379.063 323.391 386.546 318.779 387.156C317.3 387.417 316.081 386.459 316.168 385.328Z" fill="#D7896D"/>
<path d="M322.346 370.362C322.52 380.107 315.211 388.026 304.769 388.2C294.327 388.374 285.713 380.629 285.539 370.884C285.365 361.138 293.805 353.133 304.247 353.046C314.776 352.784 322.259 360.616 322.346 370.362Z" fill="white"/>
<path d="M299.461 384.632L297.373 410.998L307.902 415.174L311.905 412.129L310.773 387.504L299.461 384.632Z" fill="#E9B089"/>
<path d="M311.469 402.47L301.724 393.246L310.86 389.331L311.469 402.47Z" fill="#D7896D"/>
<path d="M301.375 356.961C304.595 356.004 307.988 355.83 311.208 356.439C315.646 357.309 321.302 360.007 322.172 368.012C323.564 381.412 322.085 392.289 315.472 395.422C310.425 397.858 306.683 396.988 300.766 393.682C298.591 392.463 296.415 387.068 295.806 384.545L293.196 377.41C293.109 377.323 286.061 361.399 301.375 356.961Z" fill="#E9B089"/>
<path d="M314.515 377.671L316.168 380.716L314.95 381.674" stroke="black" stroke-width="0.4473" stroke-miterlimit="10" stroke-linecap="round" stroke-linejoin="round"/>
<path d="M316.342 366.011C316.342 366.011 315.82 367.925 317.908 368.273C319.475 368.534 320.519 368.708 321.389 369.143C321.911 369.404 322.433 369.143 322.781 368.621C323.042 368.186 323.042 367.664 322.781 367.229C322.259 366.359 321.215 365.054 319.301 364.706C316.777 364.271 316.342 366.011 316.342 366.011Z" fill="white"/>
<path d="M310.164 365.924C310.164 365.924 310.861 367.838 307.989 368.273C305.814 368.621 303.203 369.491 301.898 370.014C301.202 370.275 300.419 370.101 299.984 369.578C299.636 369.143 299.636 368.621 299.984 368.186C300.68 367.316 303.377 365.228 306.075 364.793C309.555 364.184 310.164 365.924 310.164 365.924Z" fill="white"/>
<path d="M310.6 375.931C310.6 375.931 309.12 370.623 302.159 374.625C302.246 374.538 305.118 380.02 310.6 375.931Z" fill="white"/>
<path d="M309.208 375.147C309.382 376.54 308.425 377.758 307.119 377.932C305.814 378.106 304.596 377.149 304.422 375.757C304.248 374.364 305.205 373.146 306.51 372.972C307.815 372.885 309.034 373.842 309.208 375.147Z" fill="black"/>
<path d="M302.159 374.451C302.855 373.929 303.551 373.581 304.334 373.32C305.118 373.059 305.901 372.885 306.771 372.885C307.641 372.885 308.424 373.059 309.207 373.494C309.99 373.929 310.512 374.625 310.774 375.582C310.774 375.757 310.686 375.931 310.512 375.931C310.338 375.931 310.164 375.844 310.164 375.669C309.99 374.973 309.555 374.364 308.946 373.929C308.337 373.494 307.554 373.32 306.771 373.32C305.988 373.32 305.205 373.407 304.421 373.668C303.638 373.929 302.942 374.277 302.333 374.712C302.246 374.799 302.159 374.712 302.159 374.712C302.072 374.625 302.072 374.538 302.159 374.451Z" fill="black"/>
<path d="M316.169 376.018C316.169 376.018 318.17 370.71 322.086 374.277C322.086 374.277 320.607 379.498 316.169 376.018Z" fill="white"/>
<path d="M317.475 374.973C317.301 376.279 317.91 377.41 318.954 377.497C319.911 377.671 320.955 376.714 321.129 375.496C321.303 374.19 320.694 373.059 319.65 372.972C318.606 372.798 317.649 373.668 317.475 374.973Z" fill="black"/>
<path d="M321.911 374.364C321.65 373.929 321.215 373.581 320.78 373.407C320.345 373.233 319.823 373.146 319.388 373.32C319.04 373.407 318.779 373.494 318.431 373.668C318.17 373.842 317.908 374.016 317.647 374.277C317.212 374.712 316.777 375.321 316.516 375.931C316.429 376.105 316.342 376.105 316.168 376.105C315.994 376.018 315.994 375.931 315.994 375.757C316.168 375.408 316.342 375.06 316.516 374.799C316.69 374.538 316.951 374.19 317.212 374.016C317.473 373.755 317.821 373.581 318.17 373.407C318.518 373.233 318.866 373.146 319.214 373.059C319.475 372.972 319.823 372.972 320.084 372.972C320.345 372.972 320.606 373.059 320.867 373.233C321.389 373.494 321.824 373.842 322.085 374.277C322.085 374.364 322.085 374.451 322.085 374.451C322.085 374.451 321.998 374.451 321.911 374.364Z" fill="black"/>
<path d="M315.212 383.153C315.038 382.631 314.516 382.196 313.994 382.022C313.036 381.761 311.296 381.761 309.556 383.588C306.945 386.46 304.422 386.198 303.552 385.589C303.552 385.589 308.338 391.68 314.516 386.547C314.429 386.634 315.908 384.893 315.212 383.153Z" fill="white"/>
<path d="M314.429 384.545C314.081 382.979 315.473 381.674 316.952 381.935C317.736 382.022 318.693 382.457 319.65 383.501C322.086 386.112 323.566 385.937 324.349 385.328C324.349 385.328 320.781 390.897 315.125 386.199C315.212 386.199 314.69 385.502 314.429 384.545Z" fill="white"/>
<path opacity="0.22" d="M321.563 370.71L326.349 375.931C326.349 375.931 326.349 379.672 322.868 380.02L315.472 371.754C315.559 371.754 315.907 369.84 321.563 370.71Z" fill="white"/>
<path opacity="0.22" d="M305.987 370.71L311.643 376.627C311.643 376.627 311.643 380.455 307.293 380.02L299.113 371.319C299.113 371.319 300.854 370.623 305.987 370.71Z" fill="white"/>
<path d="M312.339 373.32C312.252 374.712 312.078 376.801 311.121 378.628C310.686 379.498 309.816 380.02 308.859 380.107H301.984C300.592 380.02 299.548 378.976 299.287 377.671C299.026 376.54 298.939 375.061 299.113 373.581C299.287 372.363 300.157 371.406 301.375 371.145C303.551 370.71 310.599 370.971 310.599 370.971C311.73 371.058 312.426 372.189 312.339 373.32Z" stroke="black" stroke-width="1.009" stroke-miterlimit="10" stroke-linecap="round" stroke-linejoin="round"/>
<path d="M302.333 370.449L297.808 370.71C297.547 370.71 297.373 370.971 297.373 371.232V372.102C297.373 372.276 297.46 372.363 297.547 372.45L299.026 373.494C299.113 373.407 299.896 370.71 302.333 370.449Z" fill="black"/>
<path d="M315.56 373.233C315.647 374.625 315.734 376.801 316.604 378.628C317.039 379.498 317.909 380.02 318.866 380.107H323.391C324.783 380.02 325.827 378.976 326.088 377.671C326.349 376.54 326.436 375.061 326.262 373.581C326.088 372.363 325.218 371.406 324 371.145C321.825 370.71 317.213 370.884 317.213 370.884C315.908 370.797 315.472 372.015 315.56 373.233Z" stroke="black" stroke-width="1.009" stroke-miterlimit="10" stroke-linecap="round" stroke-linejoin="round"/>
<path d="M323.13 370.449L327.655 370.71C327.916 370.71 328.09 370.971 328.09 371.232V372.102C328.09 372.276 328.003 372.363 327.916 372.45L326.436 373.494C326.349 373.407 325.566 370.71 323.13 370.449Z" fill="black"/>
<path d="M315.56 375.321C315.56 375.321 314.428 374.19 312.253 375.496" stroke="black" stroke-width="1.009" stroke-miterlimit="10" stroke-linecap="round" stroke-linejoin="round"/>
<path d="M293.37 377.932L299.113 372.276" stroke="black" stroke-width="1.009" stroke-miterlimit="10" stroke-linecap="round" stroke-linejoin="round"/>
<path d="M297.634 385.589C297.199 383.762 296.503 382.022 295.372 380.368C293.893 378.193 291.717 376.192 289.107 377.845C284.669 380.716 290.325 387.852 295.285 387.852C296.677 387.852 297.895 386.72 297.634 385.589Z" fill="#E9B089"/>
<path d="M290.325 381.499C293.806 380.281 295.72 384.197 295.72 384.197" stroke="black" stroke-width="0.4473" stroke-miterlimit="10" stroke-linecap="round" stroke-linejoin="round"/>
<path d="M311.208 356.439C311.208 356.439 306.684 355.134 304.943 359.746C302.507 366.098 295.285 368.882 289.106 366.968C289.106 366.968 290.499 358.005 299.809 355.308C308.946 352.697 311.208 356.439 311.208 356.439Z" fill="white"/>
<path d="M311.469 354.351C311.469 354.351 309.468 349.565 300.94 350.522C290.76 351.653 284.843 360.268 286.409 365.315C287.627 369.23 295.719 363.661 295.719 363.661L311.469 354.351Z" fill="white"/>
<path d="M399.18 685.531L390.827 690.143C389.956 690.665 389.434 691.796 389.695 692.84C389.956 693.71 390.653 694.319 392.48 694.319C396.657 694.406 419.455 691.361 419.455 691.361V693.71H428.069C428.069 693.71 428.591 681.528 425.981 679.962L399.18 685.531Z" fill="black"/>
<path d="M414.842 677.961L399.18 685.531C399.18 685.531 405.097 689.708 411.449 686.923C417.888 684.139 425.893 679.962 425.893 679.962L424.762 676.829L414.842 677.961Z" fill="#C67B5B"/>
<path d="M424.763 676.742L425.894 641.762L413.886 642.545V681.615L424.763 676.742Z" fill="#C67B5B"/>
<path d="M503.599 685.531L511.952 690.143C512.823 690.665 513.345 691.796 513.084 692.84C512.823 693.71 512.127 694.319 510.299 694.319C506.123 694.406 483.324 691.361 483.324 691.361V693.797L474.884 693.71C474.884 693.71 474.188 681.528 476.798 679.962L503.599 685.531Z" fill="black"/>
<path d="M487.85 677.961L503.512 685.531C503.512 685.531 497.595 689.708 491.243 686.923C484.804 684.139 476.799 679.962 476.799 679.962L477.93 676.829L487.85 677.961Z" fill="#C67B5B"/>
<path d="M478.016 676.742L469.228 641.762L481.236 642.545L489.85 682.398L478.016 676.742Z" fill="#C67B5B"/>
<path d="M421.282 473.127C421.282 473.127 404.662 500.101 405.097 524.031C405.532 547.873 411.362 666.213 411.362 666.213H431.202L435.205 516.634L437.641 516.46L468.618 666.213L487.24 664.386L467.574 525.249C466.269 516.634 463.92 508.194 460.613 500.188C457.741 493.314 454.348 481.741 449.388 475.737L421.282 473.127Z" fill="#FAFAFA"/>
<path d="M435.379 516.721L446.517 516.025" stroke="black" stroke-width="0.4574" stroke-miterlimit="10" stroke-linecap="round" stroke-linejoin="round"/>
<path d="M393.524 445.804L378.731 467.732C373.597 475.824 385.866 484.09 391.435 476.346L416.496 442.932L393.524 445.804Z" fill="#C67B5B"/>
<path d="M414.929 420.134C405.619 417.089 391.435 441.018 385.866 449.719L408.316 464.512C412.493 457.638 440.164 430.054 414.929 420.134Z" fill="#1E2959"/>
<path d="M451.911 419.873C451.911 419.873 468.009 420.917 468.618 444.585L457.567 447.109L451.911 419.873Z" fill="#1E2959"/>
<path d="M412.58 419.786C430.592 416.48 440.512 416.48 453.999 420.308C469.314 424.659 456.349 465.904 452.781 481.48H417.018L405.01 434.927C406.576 431.272 406.924 420.134 412.58 419.786Z" fill="#1E2959"/>
<path d="M411.884 461.902L407.62 443.802" stroke="black" stroke-width="0.4443" stroke-miterlimit="10" stroke-linecap="round" stroke-linejoin="round"/>
<path d="M458.002 455.724L460.612 437.624" stroke="black" stroke-width="0.4443" stroke-miterlimit="10" stroke-linecap="round" stroke-linejoin="round"/>
<path d="M439.033 424.92L427.895 418.046L428.504 414.217H426.677C425.894 414.217 425.198 414.478 424.676 415.087L421.282 418.394L429.027 429.967C429.81 431.185 431.55 431.446 432.594 430.489L439.033 424.92Z" fill="white"/>
<path d="M442.427 414.13H443.819C444.776 414.13 445.646 414.652 446.255 415.435L448.605 418.916L447.561 428.923C447.474 429.967 446.255 430.489 445.472 429.793L439.12 424.92L442.688 418.916L442.427 414.13Z" fill="white"/>
<path d="M440.165 429.706C440.165 430.315 439.643 430.837 439.034 430.837C438.424 430.837 437.902 430.315 437.902 429.706C437.902 429.097 438.424 428.575 439.034 428.575C439.643 428.575 440.165 429.097 440.165 429.706Z" fill="white"/>
<path d="M440.425 434.057C440.425 434.666 439.903 435.188 439.294 435.188C438.685 435.188 438.163 434.666 438.163 434.057C438.163 433.448 438.685 432.926 439.294 432.926C439.903 433.013 440.425 433.448 440.425 434.057Z" fill="white"/>
<path d="M429.287 455.201C429.287 455.201 435.552 444.15 451.911 450.677L445.559 464.251L431.288 463.729L429.287 455.201Z" fill="#C67B5B"/>
<path d="M429.287 455.201L385.257 462.772L387.867 479.131L431.201 463.729L429.287 455.201Z" fill="#C67B5B"/>
<path d="M401.181 460.074L390.391 461.902" stroke="black" stroke-width="0.4443" stroke-miterlimit="10" stroke-linecap="round" stroke-linejoin="round"/>
<path d="M432.419 490.356L429.461 487.049L447.56 444.499C447.56 444.499 480.017 439.017 493.33 443.541L432.419 490.356Z" fill="white"/>
<path d="M493.331 443.628L486.282 444.586L465.225 485.831C465.225 485.831 471.316 486.005 474.013 480.697L493.331 443.628Z" fill="black"/>
<path d="M486.194 444.585L450.083 447.805L432.419 490.355L465.224 485.831L486.194 444.585Z" fill="#212E38"/>
<path d="M474.1 454.592L453.825 456.333L451.911 461.205L471.577 459.378L474.1 454.592Z" fill="white"/>
<path d="M493.33 443.628L489.066 424.05H484.889L476.797 442.584L493.33 443.628Z" fill="white"/>
<path d="M478.016 472.953C478.016 472.953 482.802 474.171 486.892 467.906C490.981 461.728 486.979 458.421 486.979 458.421L476.798 451.199C476.363 450.938 475.754 450.938 475.406 451.286C474.971 451.721 474.971 452.417 475.406 452.852L481.497 458.682L472.36 452.678C471.664 452.243 470.707 452.417 470.272 453.113C469.924 453.722 470.011 454.592 470.62 455.027L479.147 461.641L471.49 457.725C470.881 457.377 470.098 457.638 469.837 458.247C469.576 458.769 469.75 459.465 470.185 459.813L477.929 465.469L471.316 462.337C470.707 462.076 469.924 462.25 469.576 462.946C469.228 463.555 469.402 464.251 469.924 464.599L478.886 471.125L478.016 472.953Z" fill="#C67B5B"/>
<path d="M446.866 392.115C447.04 390.375 447.475 388.635 448.345 386.981C449.476 384.719 451.216 382.631 453.914 383.849C458.439 385.937 454.088 393.334 449.476 394.03C447.997 394.204 446.779 393.247 446.866 392.115Z" fill="#A4563A"/>
<path d="M453.318 393.917C453.972 393.761 454.377 393.104 454.221 392.45C454.066 391.795 453.409 391.391 452.755 391.546C452.1 391.702 451.695 392.358 451.851 393.013C452.007 393.668 452.663 394.072 453.318 393.917Z" fill="white"/>
<path d="M427.203 403.789C431.689 399.303 431.689 392.031 427.203 387.545C422.718 383.06 415.445 383.06 410.96 387.545C406.474 392.031 406.474 399.303 410.96 403.789C415.445 408.275 422.718 408.275 427.203 403.789Z" fill="black"/>
<path d="M421.892 366.011C421.892 366.011 418.498 364.183 414.93 369.23C411.363 374.364 411.885 384.98 419.194 386.894L421.892 366.011Z" fill="black"/>
<path d="M421.892 366.011C421.892 366.011 423.806 356.091 438.773 358.092C453.739 360.094 463.659 366.533 453.217 380.716L421.892 366.011Z" fill="black"/>
<path d="M453.043 378.019C453.217 387.678 445.995 395.596 435.553 395.77C425.198 395.944 416.584 388.2 416.497 378.541C416.323 368.882 424.676 360.964 435.031 360.79C445.473 360.616 452.869 368.36 453.043 378.019Z" fill="black"/>
<path d="M431.811 392.202L427.896 418.046L439.033 424.92L442.601 418.916L441.47 395.074L431.811 392.202Z" fill="#C67B5B"/>
<path d="M442.167 409.954L432.508 400.73L441.557 396.901L442.167 409.954Z" fill="#A4563A"/>
<path d="M432.16 364.706C435.292 363.748 438.686 363.574 441.992 364.183C446.343 365.054 451.999 367.751 452.869 375.757C454.262 389.07 452.782 399.077 446.169 402.209C441.122 404.559 437.468 403.775 431.551 400.469C429.375 399.251 427.2 394.639 426.591 392.115L423.98 384.98C423.98 384.98 416.932 369.143 432.16 364.706Z" fill="#C67B5B"/>
<path d="M445.299 388.2L447.126 391.593L445.56 392.898" stroke="black" stroke-width="0.4443" stroke-miterlimit="10" stroke-linecap="round" stroke-linejoin="round"/>
<path d="M447.039 376.627C447.039 376.627 446.517 377.932 448.606 378.193C450.172 378.367 451.129 378.454 451.999 378.715C452.521 378.889 453.043 378.715 453.392 378.367C453.653 378.106 453.653 377.671 453.392 377.41C452.869 376.801 451.825 375.931 449.998 375.669C447.475 375.408 447.039 376.627 447.039 376.627Z" fill="black"/>
<path d="M440.862 376.627C440.862 376.627 441.558 377.932 438.686 378.193C436.511 378.367 433.9 379.063 432.682 379.324C431.986 379.498 431.203 379.324 430.768 378.976C430.42 378.715 430.42 378.28 430.768 378.019C431.464 377.41 434.161 376.018 436.859 375.669C440.253 375.408 440.862 376.627 440.862 376.627Z" fill="black"/>
<path d="M441.644 386.372C441.644 386.372 440.164 381.152 433.29 385.067C433.29 385.067 436.162 389.853 441.644 386.372Z" fill="white"/>
<path d="M439.99 385.415C440.164 386.633 439.294 387.765 438.163 387.939C436.945 388.113 435.9 387.243 435.726 386.024C435.552 384.806 436.422 383.675 437.554 383.501C438.685 383.327 439.816 384.197 439.99 385.415Z" fill="black"/>
<path d="M433.204 384.893C433.9 384.371 434.596 384.023 435.379 383.762C436.162 383.501 436.945 383.327 437.815 383.327C438.686 383.327 439.469 383.501 440.252 383.936C440.948 384.371 441.557 385.067 441.818 386.024C441.818 386.198 441.731 386.372 441.557 386.372C441.383 386.372 441.209 386.285 441.209 386.111C441.035 385.415 440.6 384.806 439.991 384.371C439.382 383.936 438.599 383.762 437.815 383.762C437.032 383.762 436.249 383.849 435.553 384.11C434.77 384.371 434.074 384.632 433.465 385.154C433.378 385.241 433.291 385.154 433.291 385.154C433.117 385.067 433.117 384.98 433.204 384.893Z" fill="black"/>
<path d="M446.865 386.285C446.865 386.285 448.867 381.064 452.695 384.545C452.695 384.545 450.52 389.592 446.865 386.285Z" fill="white"/>
<path d="M448.257 385.067C448.083 386.198 448.692 387.156 449.563 387.33C450.433 387.504 451.303 386.633 451.477 385.589C451.651 384.458 451.042 383.501 450.172 383.327C449.301 383.153 448.431 384.023 448.257 385.067Z" fill="black"/>
<path d="M452.608 384.632C452.347 384.197 451.912 383.849 451.477 383.675C451.042 383.501 450.52 383.414 450.085 383.588C449.737 383.675 449.476 383.762 449.128 383.936C448.867 384.11 448.606 384.284 448.345 384.545C447.91 384.98 447.474 385.589 447.3 386.198C447.213 386.372 447.126 386.372 446.952 386.372C446.778 386.285 446.778 386.198 446.778 386.024C446.952 385.676 447.126 385.328 447.3 385.067C447.474 384.806 447.735 384.458 447.997 384.284C448.258 384.023 448.606 383.849 448.954 383.675C449.302 383.501 449.65 383.414 449.998 383.327C450.259 383.24 450.607 383.24 450.868 383.24C451.129 383.24 451.39 383.327 451.651 383.501C452.173 383.762 452.608 384.11 452.869 384.545C452.869 384.632 452.869 384.719 452.869 384.719C452.695 384.719 452.608 384.719 452.608 384.632Z" fill="black"/>
<path d="M446.866 395.77C446.866 395.77 446.344 397.771 443.994 397.684C440.862 397.51 439.557 394.987 439.557 394.987L446.866 395.77Z" fill="#BE5640"/>
<path d="M439.905 394.987C439.905 394.987 446.344 393.856 446.779 395.683C446.779 395.683 442.255 396.379 439.905 394.987Z" fill="#BE5640"/>
<path d="M447.214 395.509C447.214 395.509 443.821 397.162 439.383 394.726" stroke="black" stroke-width="0.4443" stroke-miterlimit="10" stroke-linecap="round" stroke-linejoin="round"/>
<path d="M426.417 388.896C426.417 388.896 433.552 373.494 423.719 368.534C423.719 368.534 420.587 365.402 419.02 373.755C416.497 387.156 426.417 388.896 426.417 388.896Z" fill="black"/>
<path d="M428.418 392.376C427.983 390.549 427.287 388.809 426.156 387.243C424.676 385.067 422.501 383.066 419.89 384.719C415.453 387.504 421.109 394.639 425.981 394.639C427.461 394.639 428.679 393.508 428.418 392.376Z" fill="#C67B5B"/>
<path d="M421.195 388.287C424.676 387.069 426.59 390.897 426.59 390.897" stroke="black" stroke-width="0.4443" stroke-miterlimit="10" stroke-linecap="round" stroke-linejoin="round"/>
<path d="M426.591 394.117C426.591 394.813 426.069 395.335 425.373 395.335C424.676 395.335 424.154 394.813 424.154 394.117C424.154 393.421 424.676 392.899 425.373 392.899C426.069 392.899 426.591 393.421 426.591 394.117Z" fill="white"/>
<path d="M424.938 369.143C424.938 369.143 433.639 372.711 441.035 369.143C448.432 365.576 452.782 372.363 452.782 372.363C452.782 372.363 450.172 361.573 437.903 362.443C425.547 363.226 424.938 369.143 424.938 369.143Z" fill="black"/>
</svg>
