<?xml version="1.0" encoding="UTF-8"?>
<!DOCTYPE svg PUBLIC "-//W3C//DTD SVG 1.1//EN" "http://www.w3.org/Graphics/SVG/1.1/DTD/svg11.dtd">
<!-- Creator: CorelDRAW 2021 (64-Bit) -->
<svg xmlns="http://www.w3.org/2000/svg" xml:space="preserve" width="2.0321mm" height="2.032mm" version="1.1" style="shape-rendering:geometricPrecision; text-rendering:geometricPrecision; image-rendering:optimizeQuality; fill-rule:evenodd; clip-rule:evenodd"
viewBox="0 0 134.07 134.07"
 xmlns:xlink="http://www.w3.org/1999/xlink"
 xmlns:xodm="http://www.corel.com/coreldraw/odm/2003">
 <defs>
  <style type="text/css">
   <![CDATA[
    .fil0 {fill:#FFC50C}
    .fil1 {fill:white}
   ]]>
  </style>
 </defs>
 <g id="Layer_x0020_1">
  <metadata id="CorelCorpID_0Corel-Layer"/>
  <path class="fil0" d="M24.02 0l86.02 0c13.27,0 24.03,10.75 24.03,24.02l-0.01 86.02c0.01,13.26 -10.75,24.02 -24.02,24.02l-86.03 0.01c-13.26,-0.01 -24.02,-10.76 -24.02,-24.03l-0.01 -86.01c0.01,-13.27 10.76,-24.02 24.03,-24.02z"/>
  <g id="_2613741944272">
   <path class="fil1" d="M58.21 77.17c0,-1.31 0.34,-2.67 0.75,-3.57 3.2,-7.02 12.65,-7.27 16.08,-0.13 1.62,3.37 0.67,7.3 -1.77,9.75 -5.66,5.65 -15.06,1.33 -15.06,-6.06zm-29.54 -58.18l76.72 0c4.95,0.05 9.69,4.81 9.69,9.76l0 56.31c0,3.13 -1.88,5.99 -3.62,7.46 -2.61,2.21 -5.09,2.49 -8.58,2.49 -7.38,0 -14.77,0 -22.14,0 -0.18,0.79 -0.98,2.14 -1.38,2.94l-6.92 13.73c-1.34,2.03 -3,3.17 -4.7,3.41l-1.4 0c-1.74,-0.25 -3.44,-1.43 -4.78,-3.52l-8.22 -16.56c-7.38,0 -14.76,0 -22.14,0 -2.08,0 -3.58,-0.03 -5.1,-0.53 -3.73,-1.25 -7.1,-4.98 -7.1,-9.41l0 -56.31c0,-4.95 4.74,-9.71 9.69,-9.76zm29.54 33.6l0 -12.38c0,-2.57 0.99,-4.85 2.3,-6.15 2.47,-2.45 3.86,-2.86 7.28,-2.86 2.33,0 4.19,1.3 5.67,2.77 1.39,1.37 2.39,3.54 2.39,6.24l0 12.38c0,7.97 -9.22,12.25 -15.06,6.43 -0.93,-0.93 -1.27,-1.44 -1.83,-2.67 -0.46,-1 -0.75,-2.3 -0.75,-3.75z"/>
  </g>
 </g>
</svg>
