<svg width="66" height="66" viewBox="0 0 66 66" fill="none" xmlns="http://www.w3.org/2000/svg">
<circle cx="33" cy="33" r="33" fill="#FFCC00" fill-opacity="0.27"/>
<path d="M35.0993 36.8036C34.4726 36.8036 33.8603 36.7407 33.2678 36.6221V49.3722H36.786V36.6504C36.2386 36.7509 35.6749 36.8036 35.0993 36.8036Z" fill="#01D0FB"/>
<path d="M33.2678 36.6221V49.3722H34.6507V36.7925C34.1798 36.77 33.7182 36.7123 33.2678 36.6221Z" fill="#01C0FA"/>
<path d="M27.1467 49.3723H30.6649V39.1164C30.6649 38.9483 30.5313 38.812 30.3665 38.812H27.4452C27.2804 38.812 27.1468 38.9483 27.1468 39.1164V49.3723H27.1467Z" fill="#FED402"/>
<path d="M28.7973 38.812H27.4451C27.2803 38.812 27.1467 38.9483 27.1467 39.1164V49.3723H28.4989V39.1164C28.4989 38.9483 28.6325 38.812 28.7973 38.812Z" fill="#FAC600"/>
<path d="M21.0247 49.3723H24.5428V33.7245C24.5428 33.5564 24.4092 33.4202 24.2445 33.4202H21.323C21.1582 33.4202 21.0247 33.5565 21.0247 33.7245V49.3723Z" fill="#01D0FB"/>
<path d="M22.7173 33.4202H21.323C21.1582 33.4202 21.0247 33.5565 21.0247 33.7245V49.3723H22.4189V33.7245C22.4189 33.5564 22.5526 33.4202 22.7173 33.4202Z" fill="#01C0FA"/>
<path d="M14.9036 49.3725H18.4217V27.631C18.4217 27.4629 18.2881 27.3267 18.1234 27.3267H15.202C15.0372 27.3267 14.9036 27.463 14.9036 27.631V49.3725H14.9036Z" fill="#05E39C"/>
<path d="M16.5746 27.3264H15.2019C15.0371 27.3264 14.9036 27.4627 14.9036 27.6308V49.3723H16.2763V27.6309C16.2763 27.4627 16.4098 27.3264 16.5746 27.3264Z" fill="#0ED290"/>
<path d="M45.5166 35.8456L42.6053 32.8755C42.0657 33.6109 41.4247 34.2648 40.7039 34.8154L43.6151 37.7855L45.5166 35.8456Z" fill="#A8D3D8"/>
<path d="M53.0246 43.8561L51.5194 45.3917C51.0389 45.8819 50.2598 45.8819 49.7793 45.3917L43.2621 38.7428C43.0679 38.5446 43.0679 38.2234 43.2621 38.0253L45.8041 35.4318C45.9984 35.2337 46.3132 35.2337 46.5075 35.4318L53.0247 42.0807C53.5051 42.571 53.5051 43.3658 53.0246 43.8561Z" fill="#678D98"/>
<path d="M46.0249 38.7427C45.8307 38.5446 45.8307 38.2234 46.0249 38.0252L47.5372 36.4823L46.5075 35.4318C46.3133 35.2337 45.9984 35.2337 45.8042 35.4318L43.2621 38.0252C43.0679 38.2234 43.0679 38.5446 43.2621 38.7427L49.7794 45.3916C50.2599 45.8819 51.039 45.8819 51.5195 45.3916L52.0308 44.87L46.0249 38.7427Z" fill="#537983"/>
<path d="M35.0974 17.5105C33.5886 17.5105 32.1627 17.8716 30.8972 18.5129V22.6073C30.8972 22.746 30.787 22.8584 30.6511 22.8584H26.6311C25.9984 24.1528 25.6418 25.6124 25.6418 27.1571C25.6418 32.4847 29.8752 36.8036 35.0973 36.8036C40.3195 36.8036 44.5528 32.4847 44.5528 27.1571C44.5528 21.8295 40.3195 17.5105 35.0974 17.5105Z" fill="#678D98"/>
<path d="M36.8262 17.6719C36.2656 17.5662 35.6878 17.5105 35.0972 17.5105C33.5884 17.5105 32.1625 17.8716 30.897 18.5129V21.4988C32.2933 19.5357 34.3968 18.13 36.8262 17.6719Z" fill="#537983"/>
<path d="M30.886 32.7996C29.2197 31.502 28.1418 29.456 28.1418 27.1571C28.1418 25.5422 28.6744 24.0523 29.5684 22.8584H26.6311C25.9984 24.1528 25.6418 25.6124 25.6418 27.1571C25.6418 32.4847 29.8752 36.8036 35.0973 36.8036C35.6879 36.8036 36.2657 36.7479 36.8263 36.6422C34.3903 36.1829 32.2822 34.771 30.886 32.7996Z" fill="#537983"/>
<path d="M35.0982 20.061C33.5213 20.061 32.0659 20.6 30.8979 21.5057V22.6073C30.8979 22.746 30.7878 22.8584 30.6518 22.8584H29.5692C28.6752 24.0523 28.1426 25.5421 28.1426 27.1571C28.1426 31.0699 31.2628 34.2532 35.0982 34.2532C38.9335 34.2532 42.0538 31.0699 42.0538 27.1571C42.0538 23.2444 38.9335 20.061 35.0982 20.061Z" fill="#C8EFFE"/>
<path d="M30.9012 27.1571C30.9012 23.726 33.3007 20.8563 36.4774 20.2016C36.0314 20.1097 35.5703 20.061 35.0982 20.061C33.5213 20.061 32.0659 20.6 30.8979 21.5057V22.6073C30.8979 22.746 30.7878 22.8584 30.6518 22.8584H29.5692C28.6752 24.0523 28.1426 25.5421 28.1426 27.1571C28.1426 31.0699 31.2628 34.2532 35.0982 34.2532C35.5703 34.2532 36.0314 34.2045 36.4774 34.1126C33.3007 33.4578 30.9012 30.5881 30.9012 27.1571Z" fill="#99E6FC"/>
<path d="M35.0984 31.4256C37.4092 31.4256 39.2825 29.5145 39.2825 27.157C39.2825 24.7995 37.4092 22.8884 35.0984 22.8884C32.7876 22.8884 30.9143 24.7995 30.9143 27.157C30.9143 29.5145 32.7876 31.4256 35.0984 31.4256Z" fill="#FD5426"/>
<path d="M35.0984 27.1572H39.2825C39.2825 29.4989 37.3937 31.4259 35.0984 31.4259C32.8031 31.4259 30.9143 29.4989 30.9143 27.1572C30.9143 26.0265 31.3547 24.9409 32.1379 24.1409L35.0984 27.1572Z" fill="#01D0FB"/>
<path d="M32.2618 27.1572C32.2618 26.3563 32.4837 25.5785 32.891 24.9082L32.1379 24.1409C31.3547 24.9409 30.9143 26.0265 30.9143 27.1572C30.9143 29.4989 32.8031 31.4259 35.0984 31.4259C35.3276 31.4259 35.5524 31.4059 35.7721 31.369C33.7924 31.036 32.2618 29.2651 32.2618 27.1572Z" fill="#01C0FA"/>
<path d="M30.6536 22.8581H15.1497C15.0137 22.8581 14.9036 22.7457 14.9036 22.6071V16.8785C14.9036 16.7398 15.0137 16.6274 15.1497 16.6274H30.6536C30.7895 16.6274 30.8997 16.7398 30.8997 16.8785V22.6071C30.8997 22.7457 30.7895 22.8581 30.6536 22.8581Z" fill="#FD5426"/>
<path d="M18.8922 22.6071V16.8785C18.8922 16.7398 19.0023 16.6274 19.1383 16.6274H15.1497C15.0137 16.6274 14.9036 16.7398 14.9036 16.8785V22.6071C14.9036 22.7457 15.0137 22.8581 15.1497 22.8581H19.1383C19.0023 22.8581 18.8922 22.7457 18.8922 22.6071Z" fill="#EF4424"/>
<path d="M53.4594 41.6371L52.3575 40.5128C52.1172 40.2678 51.7277 40.2677 51.4875 40.5128C51.2471 40.758 51.2471 41.1554 51.4874 41.4005L52.5894 42.5248C52.7055 42.6434 52.7695 42.801 52.7695 42.9686C52.7695 43.1362 52.7055 43.2938 52.5893 43.4124L51.0842 44.948C50.8443 45.1927 50.454 45.1927 50.2141 44.948L43.7802 38.3842L46.1556 35.9609L49.4572 39.3293C49.6975 39.5744 50.087 39.5744 50.3273 39.3293C50.5676 39.0842 50.5676 38.6868 50.3273 38.4417L46.9421 34.9882C46.7319 34.7738 46.4526 34.6558 46.1554 34.6558C45.9005 34.6558 45.6589 34.7433 45.4627 34.9034L43.4665 32.8669C44.5412 31.2329 45.169 29.2685 45.169 27.1572C45.169 21.492 40.6513 16.883 35.0983 16.883C33.8359 16.883 32.6277 17.1223 31.5133 17.5571V16.8787C31.5133 16.3942 31.1269 16 30.6519 16H15.148C14.6731 16 14.2867 16.3942 14.2867 16.8787V22.6074C14.2867 23.0919 14.6731 23.4861 15.148 23.4861H25.6936C25.2641 24.6268 25.0276 25.8641 25.0276 27.1572C25.0276 31.9617 28.2772 36.006 32.6516 37.1241V48.7448H31.2787V39.1163C31.2787 38.6024 30.8688 38.1843 30.365 38.1843H27.4436C26.9398 38.1843 26.5299 38.6024 26.5299 39.1163V48.7446H25.157V44.0468C25.157 43.7002 24.8816 43.4192 24.5418 43.4192C24.2019 43.4192 23.9265 43.7002 23.9265 44.0468V48.7446H21.6388V34.0477H23.9265V41.1177C23.9265 41.4644 24.2019 41.7454 24.5418 41.7454C24.8816 41.7454 25.157 41.4644 25.157 41.1177V33.7244C25.157 33.2105 24.7472 32.7924 24.2434 32.7924H21.322C20.8182 32.7924 20.4084 33.2105 20.4084 33.7244V48.7446H19.0355V27.6308C19.0355 27.1168 18.6257 26.6987 18.1218 26.6987H15.2004C14.6966 26.6987 14.2868 27.1168 14.2868 27.6308V48.7447H12.6152C12.2754 48.7447 12 49.0257 12 49.3723C12 49.719 12.2754 50 12.6152 50H39.0719C39.4117 50 39.6871 49.719 39.6871 49.3723C39.6871 49.0257 39.4117 48.7447 39.0719 48.7447H37.4003V37.1597C38.5937 36.8738 39.7062 36.3714 40.695 35.6945L42.6992 37.7391C42.3993 38.1812 42.4412 38.7935 42.8268 39.1869L49.344 45.8358C49.7038 46.2028 50.1764 46.3863 50.649 46.3863C51.1217 46.3863 51.5944 46.2028 51.9542 45.8358L53.4593 44.3002C53.808 43.9445 54 43.4716 54 42.9687C54 42.4655 53.808 41.9927 53.4594 41.6371ZM17.805 48.7446H15.5173V27.9541H17.805V48.7446ZM30.0483 48.7446H27.7605V39.4396H30.0483V48.7446ZM15.5173 22.2307V17.2553H30.2829V22.2308H15.5173V22.2307ZM36.1699 48.7446H33.8822V37.3561C34.281 37.4053 34.6867 37.4313 35.0984 37.4313C35.4604 37.4313 35.8176 37.4105 36.1699 37.3723V48.7446ZM35.0984 36.1759C30.2238 36.1759 26.2581 32.1301 26.2581 27.1571C26.2581 25.8504 26.5328 24.6082 27.025 23.486H28.4402C27.859 24.5786 27.5276 25.829 27.5276 27.1571C27.5276 31.416 30.9238 34.8809 35.0984 34.8809C38.6877 34.8809 41.8086 32.2767 42.5192 28.6888C42.5864 28.3491 42.371 28.0179 42.038 27.9493C41.7048 27.8807 41.3803 28.1005 41.313 28.4402C40.718 31.4448 38.1044 33.6255 35.0984 33.6255C31.6024 33.6255 28.7581 30.7238 28.7581 27.1571C28.7581 25.7942 29.1748 24.5297 29.8832 23.486H30.652C31.127 23.486 31.5133 23.0918 31.5133 22.6073V21.8274C32.5338 21.1103 33.7683 20.6886 35.0984 20.6886C38.053 20.6886 40.657 22.8256 41.2902 25.7699C41.3631 26.1085 41.6912 26.3226 42.023 26.2484C42.3549 26.1741 42.5649 25.8394 42.4922 25.5008C42.1281 23.8085 41.198 22.2697 39.8729 21.1678C38.5279 20.0493 36.8323 19.4333 35.0984 19.4333C33.8019 19.4333 32.5812 19.7687 31.5133 20.3572V18.9146C32.6098 18.4163 33.8227 18.1382 35.0984 18.1382C39.9729 18.1382 43.9386 22.1841 43.9386 27.1571C43.9386 32.1301 39.9729 36.1759 35.0984 36.1759ZM41.6818 34.9258C42.0498 34.6007 42.3945 34.249 42.7132 33.8736L44.5872 35.7855L43.5559 36.8377L41.6818 34.9258Z" fill="black"/>
<path d="M35.0979 22.2607C32.4516 22.2607 30.2986 24.4572 30.2986 27.157C30.2986 29.8568 32.4516 32.0533 35.0979 32.0533C37.7442 32.0533 39.8972 29.8568 39.8972 27.157C39.8972 24.4572 37.7442 22.2607 35.0979 22.2607ZM35.0979 30.798C33.1301 30.798 31.5291 29.1646 31.5291 27.157C31.5291 26.3803 31.7695 25.6602 32.1773 25.0684L34.6631 27.6012C34.7785 27.7186 34.9349 27.7847 35.0979 27.7847H38.6125C38.3201 29.4941 36.8559 30.798 35.0979 30.798ZM35.3525 26.5294L33.0469 24.1802C33.6277 23.7625 34.3349 23.5162 35.0979 23.5162C36.8559 23.5162 38.3201 24.82 38.6125 26.5294H35.3525V26.5294Z" fill="black"/>
<path d="M19.6533 19.1155H17.6086C17.2688 19.1155 16.9934 19.3965 16.9934 19.7431C16.9934 20.0898 17.2688 20.3708 17.6086 20.3708H19.6533C19.9931 20.3708 20.2685 20.0898 20.2685 19.7431C20.2685 19.3965 19.993 19.1155 19.6533 19.1155Z" fill="black"/>
<path d="M28.1907 19.1155H21.5461C21.2063 19.1155 20.9309 19.3965 20.9309 19.7431C20.9309 20.0898 21.2063 20.3708 21.5461 20.3708H28.1907C28.5305 20.3708 28.8059 20.0898 28.8059 19.7431C28.8059 19.3965 28.5305 19.1155 28.1907 19.1155Z" fill="black"/>
</svg>
