<svg width="40" height="40" viewBox="0 0 40 40" fill="none" xmlns="http://www.w3.org/2000/svg">
<circle cx="20" cy="20" r="20" fill="#1E2959"/>
<path d="M18.1195 20.375H14.2112C14.2112 17 16.2956 15.875 17.7287 15.2C18.2498 14.975 18.6407 14.75 18.9012 14.525C19.5526 13.9625 19.2921 13.175 19.1618 12.95C18.7709 12.1625 17.859 11.375 16.1654 11.375C13.4295 11.375 12.9084 13.5125 12.9084 13.9625L9 13.5125C9.26056 11.6 11.2147 8 16.1654 8C19.1618 8 21.7674 9.4625 22.8096 11.6C23.7216 13.5125 23.3307 15.5375 21.7674 16.8875C21.116 17.45 20.3343 17.7875 19.6829 18.125C18.5104 18.6875 18.1195 19.25 18.1195 20.375Z" fill="white"/>
<path d="M18.7709 23.75C18.7709 24.9931 17.6049 26 16.1653 26C14.7257 26 13.5597 24.9931 13.5597 23.75C13.5597 22.5069 14.7257 21.5 16.1653 21.5C17.6049 21.5 18.7709 22.5069 18.7709 23.75Z" fill="white"/>
<circle cx="26" cy="23" r="8.5" fill="#1E2959" stroke="white"/>
<path fill-rule="evenodd" clip-rule="evenodd" d="M26 18C26.5523 18 27 18.4477 27 19V22H30C30.5523 22 31 22.4477 31 23C31 23.5523 30.5523 24 30 24H27V27C27 27.5523 26.5523 28 26 28C25.4477 28 25 27.5523 25 27V24H22C21.4477 24 21 23.5523 21 23C21 22.4477 21.4477 22 22 22H25V19C25 18.4477 25.4477 18 26 18Z" fill="white"/>
</svg>
