<svg width="24" height="24" viewBox="0 0 24 24" fill="none" xmlns="http://www.w3.org/2000/svg">
<rect width="24" height="24" rx="3" fill="#FFCC00"/>
<path d="M17.7 5.56H18V5H7.50001C6.66001 5 6 5.61601 6 6.39999V17.32C6 18.272 6.77998 19 7.8 19H8.39999V7.24H7.50001C7.02001 7.24 6.6 6.84799 6.6 6.39999C6.6 5.95199 7.02001 5.55997 7.50001 5.55997H16.5C16.5 5.55997 16.2 5.95199 16.2 6.39999C16.2 6.84799 16.5 7.24 16.5 7.24H9.00002V19H18V7.24H17.7C17.22 7.24 16.8 6.84799 16.8 6.39999C16.8 5.95199 17.22 5.56 17.7 5.56Z" fill="white"/>
</svg>
