<svg width="66" height="66" viewBox="0 0 66 66" fill="none" xmlns="http://www.w3.org/2000/svg">
<circle cx="33" cy="33" r="33" fill="#FFCC00" fill-opacity="0.27"/>
<path fill-rule="evenodd" clip-rule="evenodd" d="M14.5566 24.2037L31.9071 25.3962L51.4434 24.2037V16.945V16.9251C51.4307 16.154 50.7596 15.5259 49.9391 15.5259H16.0588C15.2404 15.5259 14.5672 16.154 14.5566 16.9251V16.945V24.2037Z" fill="#375E7D"/>
<path fill-rule="evenodd" clip-rule="evenodd" d="M49.9391 44.5625C50.7596 44.5625 51.4307 43.9343 51.4433 43.1632V43.1434V24.1619H14.5566V43.1434V43.1632C14.5672 43.9343 15.2404 44.5625 16.0588 44.5625H49.9391Z" fill="#EFF6FF"/>
<path fill-rule="evenodd" clip-rule="evenodd" d="M18.9494 21.2104H28.5934C29.3887 21.2104 30.0409 20.5962 30.0409 19.8429C30.0409 19.0916 29.3887 18.4775 28.5934 18.4775H18.9494C18.1541 18.4775 17.502 19.0916 17.502 19.8429C17.502 20.5962 18.1541 21.2104 18.9494 21.2104Z" fill="#EFF6FF"/>
<path fill-rule="evenodd" clip-rule="evenodd" d="M24.173 30.3314H21.7915C21.5559 30.3314 21.3623 30.5142 21.3623 30.7368V44.5625V49.9667C21.3623 50.1913 21.5559 50.3741 21.7915 50.3741H37.2632C37.4989 50.3741 37.6924 50.1913 37.6924 49.9667V47.7187L24.173 30.3314Z" fill="#375E7D"/>
<path fill-rule="evenodd" clip-rule="evenodd" d="M34.3135 19.8429C34.3135 20.5982 34.9614 21.2104 35.7609 21.2104C36.5583 21.2104 37.2063 20.5982 37.2063 19.8429C37.2063 19.0897 36.5583 18.4775 35.7609 18.4775C34.9614 18.4775 34.3135 19.0896 34.3135 19.8429Z" fill="#EB5468"/>
<path fill-rule="evenodd" clip-rule="evenodd" d="M39.9585 19.8429C39.9585 20.5982 40.6064 21.2104 41.406 21.2104C42.2033 21.2104 42.8513 20.5982 42.8513 19.8429C42.8513 19.0897 42.2034 18.4775 41.406 18.4775C40.6064 18.4775 39.9585 19.0896 39.9585 19.8429Z" fill="#FFD772"/>
<path fill-rule="evenodd" clip-rule="evenodd" d="M45.603 19.8429C45.603 20.5982 46.251 21.2104 47.0505 21.2104C47.8478 21.2104 48.4959 20.5982 48.4959 19.8429C48.4959 19.0897 47.8479 18.4775 47.0505 18.4775C46.251 18.4775 45.603 19.0896 45.603 19.8429Z" fill="#3BC3A4"/>
<path fill-rule="evenodd" clip-rule="evenodd" d="M41.3789 15.5259C43.2156 17.9408 44.5642 20.8943 45.2331 24.1619H51.4437V16.945V16.9251C51.4311 16.154 50.76 15.5259 49.9395 15.5259H41.3789ZM47.0509 21.2103C46.2514 21.2103 45.6034 20.5982 45.6034 19.8429C45.6034 19.0897 46.2514 18.4775 47.0509 18.4775C47.8482 18.4775 48.4962 19.0897 48.4962 19.8429C48.4962 20.5982 47.8482 21.2103 47.0509 21.2103Z" fill="#2B4D66"/>
<path fill-rule="evenodd" clip-rule="evenodd" d="M51.4434 24.1619H45.2328C45.4663 25.3028 45.6178 26.4814 45.681 27.6899C45.9881 27.6402 46.3163 27.7197 46.5646 27.9323L47.099 28.3895L47.6354 28.8486C48.0625 29.2144 48.0962 29.8464 47.707 30.2519L46.3227 31.6929L45.418 32.635C44.7553 36.8188 42.9923 40.5396 40.5034 43.3599V44.5625H49.9392C50.7597 44.5625 51.4308 43.9343 51.4434 43.1632V43.1434V24.1619Z" fill="#D9EEFF"/>
<path fill-rule="evenodd" clip-rule="evenodd" d="M37.6927 47.7187H28.8251C27.9751 48.8059 26.9884 49.7083 25.9028 50.3741H37.2636C37.4992 50.3741 37.6928 50.1912 37.6928 49.9666V47.7187H37.6927Z" fill="#2B4D66"/>
<path fill-rule="evenodd" clip-rule="evenodd" d="M24.1733 30.3313V47.3629C24.1733 47.5596 24.3417 47.7186 24.5479 47.7186H37.6927H40.1289C40.3351 47.7186 40.5034 47.5576 40.5034 47.3629V44.5624C40.5034 34.4416 40.5034 43.0697 40.5034 28.0297C40.5034 27.8349 40.3351 27.6758 40.1289 27.6758H24.5479C24.3417 27.6758 24.1733 27.8349 24.1733 28.0297V30.3313Z" fill="#3BC3A4"/>
<path fill-rule="evenodd" clip-rule="evenodd" d="M32.8325 47.7186H37.6924H40.1286C40.3348 47.7186 40.5032 47.5576 40.5032 47.3629V44.5624V28.0297C40.5032 27.8349 40.3348 27.6758 40.1286 27.6758H33.0745C37.1306 33.2014 37.1096 42.2528 32.8325 47.7186Z" fill="#00A887"/>
<path fill-rule="evenodd" clip-rule="evenodd" d="M25.7471 18.4775C26.5423 18.4775 27.1945 19.0916 27.1945 19.8429C27.1945 20.5962 26.5423 21.2104 25.7471 21.2104H28.5936C29.3889 21.2104 30.041 20.5962 30.041 19.8429C30.041 19.0916 29.3889 18.4775 28.5936 18.4775H25.7471Z" fill="#D9EEFF"/>
<path fill-rule="evenodd" clip-rule="evenodd" d="M43.6929 29.4448L44.6228 31.0766L46.3227 31.6927L47.707 30.2517C48.0962 29.8462 48.0625 29.2142 47.6355 28.8484L47.099 28.3893L46.5646 27.9321C46.1354 27.5645 45.4685 27.5962 45.0793 27.9997L43.6929 29.4448Z" fill="#EB5468"/>
<path fill-rule="evenodd" clip-rule="evenodd" d="M36.9858 36.7114L35.4353 40.2772C35.3637 40.4421 35.3511 40.5435 35.3974 40.5832C35.4416 40.621 35.5468 40.5991 35.7151 40.5156L39.3189 38.7109C39.481 38.6294 39.624 38.5578 39.7692 38.4585L39.4367 36.445L37.2066 36.2662C37.1162 36.4113 37.0553 36.5524 36.9858 36.7114Z" fill="#FED1A3"/>
<path fill-rule="evenodd" clip-rule="evenodd" d="M37.2065 36.2662L39.769 38.4585C39.8805 38.383 39.9899 38.2916 40.1078 38.1683L40.5033 37.7569L46.3225 31.6928L43.6927 29.4448L40.5033 32.7661L37.48 35.9164C37.3602 36.0417 37.276 36.155 37.2065 36.2662Z" fill="#FFD772"/>
<path fill-rule="evenodd" clip-rule="evenodd" d="M45.2539 30.7806L46.3227 31.6929L47.7071 30.2519C48.0963 29.8464 48.0626 29.2143 47.6355 28.8486L47.099 28.3895L46.5646 27.9323C46.552 27.9224 46.5415 27.9125 46.5289 27.9025L46.5667 27.9344C46.9959 28.3021 47.0275 28.9321 46.6403 29.3376L45.2539 30.7806Z" fill="#E5384F"/>
<path fill-rule="evenodd" clip-rule="evenodd" d="M38.7025 37.5443C38.5574 37.6457 38.4122 37.7172 38.2523 37.7967L36.0307 38.9098L35.4353 40.2773C35.3637 40.4423 35.3511 40.5436 35.3974 40.5833C35.4416 40.6211 35.5468 40.5992 35.7151 40.5157L39.3189 38.711C39.481 38.6295 39.624 38.5579 39.7692 38.4586L38.7025 37.5443Z" fill="#FFBC85"/>
<path fill-rule="evenodd" clip-rule="evenodd" d="M38.7021 37.5443L39.7688 38.4586C39.8803 38.383 39.9897 38.2916 40.1075 38.1683L40.503 37.7569L45.4176 32.6349L46.3223 31.6928L45.2535 30.7805L39.4364 36.8426L39.0409 37.256C38.921 37.3793 38.8115 37.4707 38.7021 37.5443Z" fill="#FBBA58"/>
<path fill-rule="evenodd" clip-rule="evenodd" d="M27.5202 33.2433H35.6642C35.8683 33.2433 36.0366 33.0843 36.0366 32.8915V30.8383C36.0366 30.6455 35.8682 30.4885 35.6642 30.4885H27.5202C27.3161 30.4885 27.1499 30.6455 27.1499 30.8383V32.8915C27.15 33.0843 27.3162 33.2433 27.5202 33.2433Z" fill="#EFF6FF"/>
<path fill-rule="evenodd" clip-rule="evenodd" d="M35.6645 30.4885H32.8979C33.2725 31.3531 33.5817 32.2754 33.8131 33.2433H35.6645C35.8686 33.2433 36.0369 33.0843 36.0369 32.8915V30.8383C36.0369 30.6455 35.8686 30.4885 35.6645 30.4885Z" fill="#D9EEFF"/>
<path d="M47.0505 21.7363C48.1544 21.7363 49.0525 20.8869 49.0525 19.8429C49.0525 18.8 48.1544 17.9515 47.0505 17.9515C45.9454 17.9515 45.0464 18.8 45.0464 19.8429C45.0464 20.8869 45.9454 21.7363 47.0505 21.7363ZM47.0505 19.0034C47.5406 19.0034 47.9392 19.38 47.9392 19.8429C47.9392 20.307 47.5406 20.6846 47.0505 20.6846C46.5593 20.6846 46.1597 20.307 46.1597 19.8429C46.1597 19.38 46.5592 19.0034 47.0505 19.0034Z" fill="black"/>
<path d="M41.406 21.7363C42.5099 21.7363 43.408 20.8869 43.408 19.8429C43.408 18.8 42.5099 17.9515 41.406 17.9515C40.3009 17.9515 39.4019 18.8 39.4019 19.8429C39.4019 20.8869 40.3009 21.7363 41.406 21.7363ZM41.406 19.0034C41.896 19.0034 42.2947 19.38 42.2947 19.8429C42.2947 20.307 41.896 20.6846 41.406 20.6846C40.9148 20.6846 40.5152 20.307 40.5152 19.8429C40.5152 19.38 40.9148 19.0034 41.406 19.0034Z" fill="black"/>
<path d="M35.7614 21.7363C36.8653 21.7363 37.7635 20.8869 37.7635 19.8429C37.7635 18.8 36.8653 17.9515 35.7614 17.9515C34.6564 17.9515 33.7573 18.8 33.7573 19.8429C33.7573 20.8869 34.6564 21.7363 35.7614 21.7363ZM35.7614 19.0034C36.2515 19.0034 36.6502 19.38 36.6502 19.8429C36.6502 20.307 36.2515 20.6846 35.7614 20.6846C35.2702 20.6846 34.8706 20.307 34.8706 19.8429C34.8706 19.38 35.2702 19.0034 35.7614 19.0034Z" fill="black"/>
<path d="M28.5935 17.9516H18.9494C17.8443 17.9516 16.9453 18.8001 16.9453 19.8429C16.9453 20.887 17.8443 21.7363 18.9494 21.7363H28.5935C29.6986 21.7363 30.5976 20.887 30.5976 19.8429C30.5976 18.8 29.6986 17.9516 28.5935 17.9516ZM28.5935 20.6845H18.9494C18.4582 20.6845 18.0586 20.3069 18.0586 19.8429C18.0586 19.3799 18.4582 19.0033 18.9494 19.0033H28.5935C29.0847 19.0033 29.4843 19.3799 29.4843 19.8429C29.4843 20.307 29.0847 20.6845 28.5935 20.6845Z" fill="black"/>
<path d="M49.9391 15H16.0588C14.9235 15 14 15.8725 14 16.945V43.1433C14 44.2158 14.9235 45.0883 16.0588 45.0883H20.8059V49.9666C20.8059 50.4813 21.2482 50.9 21.7918 50.9H37.2634C37.807 50.9 38.2493 50.4813 38.2493 49.9666V48.2445H40.1288C40.6422 48.2445 41.0599 47.849 41.0599 47.3629V45.0883H49.939C51.0755 45.0883 52 44.2158 52 43.1433V16.945C52 15.8725 51.0755 15 49.9391 15V15ZM39.9467 47.1928H24.7299V28.2018H39.9467V32.564L37.0671 35.5639C36.7299 35.9165 36.6005 36.2139 36.4752 36.5014L34.9201 40.0778C34.7512 40.4675 34.7856 40.7683 35.0225 40.9721C35.0231 40.9726 35.0236 40.9731 35.0241 40.9736C35.1433 41.0753 35.2838 41.1262 35.4451 41.1262C35.6026 41.1262 35.7798 41.0776 35.9757 40.9805L39.5809 39.175L39.5938 39.1685C39.7093 39.1104 39.8263 39.0512 39.9466 38.9792V47.1928H39.9467ZM46.2844 30.951L44.4792 29.4079L45.4907 28.3542C45.5885 28.2527 45.7231 28.2011 45.8582 28.2011C45.9771 28.2011 46.0963 28.241 46.1909 28.3222L47.2615 29.2382C47.3581 29.3209 47.4147 29.4354 47.4212 29.561C47.4278 29.6868 47.3827 29.8067 47.2946 29.8986L46.2844 30.951ZM43.7313 30.187L45.5365 31.7301L39.7634 37.7443L37.959 36.2004L43.7313 30.187ZM37.4006 37.1416L38.8271 38.3621L36.325 39.6151L37.4006 37.1416ZM49.9391 44.0365H41.06V37.9593L48.1193 30.6051C48.4073 30.3052 48.5543 29.9161 48.5333 29.5096C48.5123 29.1035 48.3261 28.7303 48.0091 28.4589L46.9385 27.5428C46.2828 26.9811 45.2642 27.0273 44.6669 27.6467L41.06 31.4042V28.0297C41.06 27.5447 40.6423 27.15 40.1289 27.15H24.5478C24.0344 27.15 23.6166 27.5447 23.6166 28.0297V29.8055H21.7918C21.2482 29.8055 20.8059 30.2233 20.8059 30.7368V36.7154C20.8059 37.0059 21.0551 37.2413 21.3626 37.2413C21.67 37.2413 21.9192 37.0059 21.9192 36.7154V30.8572H23.6166V47.3629C23.6166 47.8491 24.0344 48.2445 24.5478 48.2445H37.136V49.8482H21.9192V39.1443C21.9192 38.8538 21.67 38.6184 21.3626 38.6184C21.0551 38.6184 20.8059 38.8538 20.8059 39.1443V44.0365H16.0588C15.5375 44.0365 15.1133 43.6358 15.1133 43.1433V24.6878H31.7135C32.021 24.6878 32.2702 24.4524 32.2702 24.1619C32.2702 23.8714 32.021 23.6361 31.7135 23.6361H15.1133V16.945C15.1133 16.4525 15.5375 16.0518 16.0588 16.0518H49.939C50.4616 16.0518 50.8867 16.4525 50.8867 16.945V23.6361H34.2844C33.9769 23.6361 33.7277 23.8714 33.7277 24.1619C33.7277 24.4524 33.9769 24.6878 34.2844 24.6878H50.8867V43.1433C50.8867 43.6358 50.4616 44.0365 49.9391 44.0365Z" fill="black"/>
<path d="M33.4661 44.3804H27.1504C26.8429 44.3804 26.5938 44.6158 26.5938 44.9063C26.5938 45.1968 26.8429 45.4322 27.1504 45.4322H33.4661C33.7736 45.4322 34.0228 45.1968 34.0228 44.9063C34.0228 44.6158 33.7736 44.3804 33.4661 44.3804Z" fill="black"/>
<path d="M37.5263 44.3804H35.8579C35.5504 44.3804 35.3013 44.6158 35.3013 44.9063C35.3013 45.1968 35.5504 45.4322 35.8579 45.4322H37.5263C37.8338 45.4322 38.083 45.1968 38.083 44.9063C38.083 44.6158 37.8338 44.3804 37.5263 44.3804Z" fill="black"/>
<path d="M27.1504 42.4706H33.1337C33.4412 42.4706 33.6904 42.2353 33.6904 41.9448C33.6904 41.6543 33.4412 41.4189 33.1337 41.4189H27.1504C26.8429 41.4189 26.5938 41.6543 26.5938 41.9448C26.5938 42.2353 26.8429 42.4706 27.1504 42.4706Z" fill="black"/>
<path d="M27.1504 39.5112H33.1337C33.4412 39.5112 33.6904 39.2758 33.6904 38.9853C33.6904 38.6948 33.4412 38.4594 33.1337 38.4594H27.1504C26.8429 38.4594 26.5938 38.6948 26.5938 38.9853C26.5938 39.2758 26.8429 39.5112 27.1504 39.5112Z" fill="black"/>
<path d="M33.7817 35.4979H30.708C30.4005 35.4979 30.1514 35.7333 30.1514 36.0238C30.1514 36.3143 30.4005 36.5497 30.708 36.5497H33.7817C34.0892 36.5497 34.3384 36.3143 34.3384 36.0238C34.3384 35.7333 34.0892 35.4979 33.7817 35.4979Z" fill="black"/>
<path d="M27.1504 36.5497H28.3581C28.6655 36.5497 28.9147 36.3143 28.9147 36.0238C28.9147 35.7333 28.6655 35.4979 28.3581 35.4979H27.1504C26.8429 35.4979 26.5938 35.7333 26.5938 36.0238C26.5938 36.3143 26.8429 36.5497 27.1504 36.5497Z" fill="black"/>
<path d="M27.5207 33.769H35.6646C36.1768 33.769 36.5937 33.3753 36.5937 32.8914V30.8382C36.5937 30.3553 36.1769 29.9625 35.6646 29.9625H27.5207C27.0095 29.9625 26.5938 30.3554 26.5938 30.8382V32.8914C26.5938 33.3753 27.0095 33.769 27.5207 33.769ZM27.7071 31.0143H35.4804V32.7173H27.7071V31.0143Z" fill="black"/>
</svg>
