<svg width="66" height="66" viewBox="0 0 66 66" fill="none" xmlns="http://www.w3.org/2000/svg">
<circle cx="33" cy="33" r="33" fill="#FFCC00" fill-opacity="0.27"/>
<path d="M37.829 49.7035L36.1665 45.5151H29.8332L28.1707 49.7035H26.0332V50.9001H39.9665V49.7035H37.829Z" fill="#E0E0DE"/>
<path d="M17.8004 21.5815C16.7511 21.5815 15.9004 22.3853 15.9004 23.3765V41.9249H50.1004V23.3765C50.1004 22.3853 49.2497 21.5815 48.2004 21.5815H17.8004Z" fill="#348FD9"/>
<path d="M15.9004 41.925V43.72C15.9004 44.7113 16.7511 45.515 17.8004 45.515H48.2004C49.2497 45.515 50.1004 44.7113 50.1004 43.72V41.925H15.9004Z" fill="#E0E0DE"/>
<path d="M33.2821 41.925H16.252C16.0241 42.2873 15.9026 42.7004 15.9004 43.1217V43.72C15.9004 44.7113 16.7511 45.515 17.8004 45.515H33.6337V43.1217C33.6316 42.7004 33.51 42.2873 33.2821 41.925Z" fill="#D6D6D4"/>
<path d="M45.6669 16.7949H20.3336C19.2843 16.7949 18.4336 17.5986 18.4336 18.5899V41.9249H47.5669V18.5899C47.5669 17.5986 46.7162 16.7949 45.6669 16.7949Z" fill="#60D1E0"/>
<path d="M45.6668 16.7949H42.5001C41.1011 16.7949 39.9668 17.8665 39.9668 19.1883V22.7783C39.9668 24.1 41.1011 25.1716 42.5001 25.1716H43.1335L42.5001 28.7616L47.5668 25.1716V18.5899C47.5668 17.5986 46.7161 16.7949 45.6668 16.7949Z" fill="#5AC6D4"/>
<path d="M18.4336 40.7283H47.5669V41.9249H18.4336V40.7283Z" fill="#5AC6D4"/>
<path d="M20.3335 18.5901H21.6002V19.7868H20.3335V18.5901Z" fill="#3A9CC9"/>
<path d="M22.8667 18.5901H24.1334V19.7868H22.8667V18.5901Z" fill="#3A9CC9"/>
<path d="M25.4004 18.5901H26.6671V19.7868H25.4004V18.5901Z" fill="#3A9CC9"/>
<path d="M20.3335 20.9834H45.6668V22.1801H20.3335V20.9834Z" fill="#3A9CC9"/>
<path d="M20.9668 23.9751H45.0335V40.7284H20.9668V23.9751Z" fill="#7EB457"/>
<path d="M29.2002 23.9751H33.0002C34.3992 23.9751 35.5335 25.0467 35.5335 26.3684H31.7335C30.3345 26.3684 29.2002 25.2968 29.2002 23.9751Z" fill="#803F37"/>
<path d="M31.7335 26.3683C31.2875 26.3663 30.8503 26.2515 30.4668 26.0361V28.7616C30.4668 30.0834 31.6011 31.155 33.0001 31.155C34.3992 31.155 35.5335 30.0834 35.5335 28.7616V26.3683H31.7335Z" fill="#FEC093"/>
<path d="M34.2667 26.3684V28.7617C34.2645 29.8506 33.4831 30.8001 32.3667 31.0706C33.125 31.2676 33.937 31.1162 34.5596 30.6625C35.1821 30.2085 35.5426 29.5047 35.5334 28.7617V26.3684H34.2667Z" fill="#FEB784"/>
<path d="M36.1665 31.155H29.8331C28.4341 31.155 27.2998 32.2267 27.2998 33.5484V40.7284H38.6998V33.5484C38.6998 32.2267 37.5655 31.155 36.1665 31.155Z" fill="#348FD9"/>
<path d="M27.2998 40.322V40.7284H38.6998V33.5484C38.6983 32.9565 38.4629 32.3862 38.0399 31.9497C34.9542 36.9941 29.9986 39.5825 27.2998 40.322Z" fill="#3086CD"/>
<path d="M29.2002 34.1467H30.4669V40.7284H29.2002V34.1467Z" fill="#2A71AD"/>
<path d="M35.5332 34.1467H36.7999V40.7284H35.5332V34.1467Z" fill="#2A71AD"/>
<path d="M36.8794 47.3101L36.1669 45.5151H29.8336L29.1211 47.3101H36.8794Z" fill="#D6D6D4"/>
<path d="M17.1666 39.5317H19.7L24.7666 35.9417L24.1333 39.5317H29.8333C31.2323 39.5317 32.3666 40.6033 32.3666 41.925V45.515C32.3666 46.8367 31.2323 47.9083 29.8333 47.9083H17.1666C15.7676 47.9083 14.6333 46.8367 14.6333 45.515V41.925C14.6333 40.6033 15.7676 39.5317 17.1666 39.5317Z" fill="#FFB531"/>
<path d="M17.1665 41.925H25.3998V43.1217H17.1665V41.925Z" fill="#E8770C"/>
<path d="M26.6665 41.925H29.8332V43.1217H26.6665V41.925Z" fill="#E8770C"/>
<path d="M17.1665 44.3184H29.8332V45.515H17.1665V44.3184Z" fill="#E8770C"/>
<path d="M48.8331 40.7282V21.5815H47.5664V41.9249H50.0997V40.7282H48.8331Z" fill="#3086CD"/>
<path d="M48.8335 21.6919V25.1718H50.1002V23.3768C50.0986 22.6183 49.5911 21.9429 48.8335 21.6919Z" fill="#3086CD"/>
<path d="M39.9668 22.7782C39.969 23.1995 40.0905 23.6126 40.3184 23.9749H45.0335V26.9665L47.5668 25.1715V21.5815H39.9668V22.7782Z" fill="#5AC6D4"/>
<path d="M48.8331 25.1715V21.6917C48.6302 21.6207 48.4159 21.5836 48.1997 21.5815H47.5664V25.1715H48.8331Z" fill="#3086CD"/>
<path d="M40.3184 23.9751C40.7668 24.7137 41.5986 25.17 42.5001 25.1718H43.1334L42.5001 28.7618L45.0334 26.9668V23.9751H40.3184Z" fill="#69A340"/>
<path d="M48.8335 23.9751H46.3002L41.2335 27.5651L41.8669 23.9751H41.2335C39.8345 23.9751 38.7002 22.9034 38.7002 21.5817V17.9917C38.7002 16.67 39.8345 15.5984 41.2335 15.5984H48.8335C50.2326 15.5984 51.3669 16.67 51.3669 17.9917V21.5817C51.3669 22.9034 50.2326 23.9751 48.8335 23.9751Z" fill="#E94F4F"/>
<path d="M40.5996 17.9917H43.1329V19.1884H40.5996V17.9917Z" fill="#CF3A3A"/>
<path d="M44.4004 17.9917H49.4671V19.1884H44.4004V17.9917Z" fill="#CF3A3A"/>
<path d="M40.5996 20.385H49.4663V21.5817H40.5996V20.385Z" fill="#CF3A3A"/>
<path d="M34.2665 42.5234H49.4665V43.72C49.4665 44.3809 48.8994 44.9167 48.1999 44.9167H34.2665V46.1134H35.7277L37.1527 49.7034H26.0332V50.9H39.9665V49.7034H38.5054L37.0804 46.1134H48.1999C49.5989 46.1134 50.7332 45.0417 50.7332 43.72V25.77H49.4665V41.3267H34.2665V42.5234Z" fill="black"/>
<path d="M46.9336 25.77H48.2003V40.13H46.9336V25.77Z" fill="black"/>
<path d="M36.7999 16.1968H20.3333C18.9342 16.1968 17.7999 17.2684 17.7999 18.5901V20.9834C16.4009 20.9834 15.2666 22.0551 15.2666 23.3768V37.7368H16.5333V23.3768C16.5333 22.7159 17.1004 22.1801 17.7999 22.1801V37.7368H19.0666V18.5901C19.0666 17.9293 19.6338 17.3934 20.3333 17.3934H36.7999V16.1968Z" fill="black"/>
<path d="M20.3335 18.5901H21.6002V19.7868H20.3335V18.5901Z" fill="black"/>
<path d="M22.8667 18.5901H24.1334V19.7868H22.8667V18.5901Z" fill="black"/>
<path d="M25.4004 18.5901H26.6671V19.7868H25.4004V18.5901Z" fill="black"/>
<path d="M20.3335 20.9834H36.8002V22.1801H20.3335V20.9834Z" fill="black"/>
<path d="M35.5332 34.1467H36.7999V40.1301H35.5332V34.1467Z" fill="black"/>
<path d="M20.3335 23.975V36.54H21.6002V24.5734H27.3002V23.3767H20.9668C20.6171 23.3767 20.3335 23.6446 20.3335 23.975Z" fill="black"/>
<path d="M45.6663 39.5316V26.9666H44.3996V38.9332H40.5996V40.1299H45.0329C45.3827 40.1299 45.6663 39.862 45.6663 39.5316Z" fill="black"/>
<path d="M48.8336 15H41.2336C39.4854 15.002 38.0691 16.3401 38.0669 17.9917V21.5817C38.0678 23.192 39.4161 24.5134 41.1194 24.5733L40.6092 27.468C40.5674 27.709 40.6847 27.9495 40.9058 28.0763C41.1266 28.2028 41.4067 28.1899 41.6136 28.0436L46.5111 24.5733H48.8336C50.5817 24.5713 51.9981 23.2332 52.0002 21.5817V17.9917C51.9981 16.3401 50.5817 15.002 48.8336 15ZM50.7336 21.5817C50.7336 22.5729 49.8828 23.3767 48.8336 23.3767H46.3002C46.1632 23.3767 46.0299 23.4187 45.9202 23.4965L42.1202 26.189L42.494 24.072C42.524 23.8982 42.4718 23.7208 42.3512 23.587C42.2303 23.4529 42.0531 23.3761 41.8669 23.3767H41.2336C40.1843 23.3767 39.3336 22.5729 39.3336 21.5817V17.9917C39.3336 17.0004 40.1843 16.1967 41.2336 16.1967H48.8336C49.8828 16.1967 50.7336 17.0004 50.7336 17.9917V21.5817Z" fill="black"/>
<path d="M40.5996 17.9917H43.1329V19.1884H40.5996V17.9917Z" fill="black"/>
<path d="M44.4004 17.9917H49.4671V19.1884H44.4004V17.9917Z" fill="black"/>
<path d="M40.5996 20.385H49.4663V21.5817H40.5996V20.385Z" fill="black"/>
<path d="M17.1667 48.5067H29.8333C31.5815 48.5047 32.9978 47.1666 33 45.515V41.925C32.9981 40.504 31.9402 39.2796 30.4667 38.9933V34.1467H29.2V38.9334H27.9333V33.5484C27.9333 32.5571 28.7841 31.7534 29.8333 31.7534H36.1667C37.2159 31.7534 38.0667 32.5571 38.0667 33.5484V40.13H39.3333V33.5484C39.3312 31.8968 37.9148 30.5588 36.1667 30.5567H35.5169C35.936 30.0419 36.1642 29.4112 36.1667 28.7617V26.3684C36.1645 24.7168 34.7482 23.3788 33 23.3767H29.2C28.8502 23.3767 28.5667 23.6446 28.5667 23.975C28.5694 24.9117 29.0389 25.7925 29.8333 26.3529V28.7617C29.8358 29.4112 30.064 30.0419 30.4831 30.5567H29.8333C28.0852 30.5588 26.6688 31.8968 26.6667 33.5484V38.9334H24.8814L25.3879 36.0405C25.4294 35.8003 25.3125 35.5604 25.0929 35.4337C24.873 35.3069 24.5938 35.3185 24.3866 35.4632L19.4891 38.9334H17.1667C15.4185 38.9354 14.0022 40.2735 14 41.925V45.515C14.0022 47.1666 15.4185 48.5047 17.1667 48.5067ZM33 24.5734C33.805 24.5743 34.5224 25.0534 34.7918 25.77H31.7333C31.5741 25.77 31.4151 25.7499 31.2614 25.7102L31.2438 25.7061C31.0833 25.6628 30.9293 25.6009 30.7852 25.5211C30.7756 25.5165 30.7657 25.5147 30.7561 25.5097C30.3782 25.2959 30.0906 24.9649 29.9416 24.5734H33ZM31.1 28.7617V26.9068C31.3084 26.9468 31.5206 26.967 31.7333 26.9667H34.9V28.7617C34.9 29.753 34.0493 30.5567 33 30.5567C31.9507 30.5567 31.1 29.753 31.1 28.7617ZM15.2667 41.925C15.2667 40.9338 16.1174 40.13 17.1667 40.13H19.7C19.837 40.13 19.9703 40.088 20.0801 40.0103L23.8801 37.3178L23.5062 39.4347C23.4762 39.6085 23.5285 39.7859 23.6491 39.9197C23.77 40.0538 23.9472 40.1306 24.1333 40.13H29.8333C30.8826 40.13 31.7333 40.9338 31.7333 41.925V45.515C31.7333 46.5063 30.8826 47.31 29.8333 47.31H17.1667C16.1174 47.31 15.2667 46.5063 15.2667 45.515V41.925Z" fill="black"/>
<path d="M17.1665 41.925H25.3998V43.1217H17.1665V41.925Z" fill="black"/>
<path d="M26.6665 41.925H29.8332V43.1217H26.6665V41.925Z" fill="black"/>
<path d="M17.1665 44.3184H29.8332V45.515H17.1665V44.3184Z" fill="black"/>
</svg>
