<svg width="66" height="66" viewBox="0 0 66 66" fill="none" xmlns="http://www.w3.org/2000/svg">
<circle cx="33" cy="33" r="33" fill="#FFCC00" fill-opacity="0.27"/>
<path d="M27.7509 15.5566H42.535C44.5381 15.5566 46.1619 17.1804 46.1619 19.1835V31.6848C46.1619 33.6878 44.5381 35.3117 42.535 35.3117H41.7168L41.9806 37.673C42.1005 38.7465 40.9198 39.4777 40.0122 38.8919L34.4649 35.3117H27.7509C25.7479 35.3117 24.124 33.6878 24.124 31.6848V19.1835C24.1241 17.1804 25.7479 15.5566 27.7509 15.5566Z" fill="#0573CE"/>
<path d="M29.8629 35.3117H27.7508C25.7476 35.3117 24.124 33.6876 24.124 31.6849V19.1832C24.124 17.1805 25.7476 15.5564 27.7508 15.5564H29.8629C27.8597 15.5564 26.2361 17.1805 26.2361 19.1832V31.685C26.2361 33.6876 27.8596 35.3117 29.8629 35.3117Z" fill="#0067C5"/>
<path d="M32.9676 22.1782H18.1835C16.1805 22.1782 14.5566 23.802 14.5566 25.8051V38.3064C14.5566 40.3094 16.1805 41.9333 18.1835 41.9333H19.0018L18.738 44.2946C18.6181 45.3681 19.7988 46.0992 20.7063 45.5135L26.2536 41.9333H32.9676C34.9707 41.9333 36.5945 40.3094 36.5945 38.3064V25.8051C36.5945 23.802 34.9707 22.1782 32.9676 22.1782Z" fill="#FFD15B"/>
<path d="M20.9449 45.3592L20.7063 45.5133C19.7985 46.0992 18.6181 45.3682 18.7382 44.2943L19.0018 41.9329H18.1835C16.1802 41.9329 14.5566 40.3094 14.5566 38.3061V25.805C14.5566 23.8018 16.1802 22.1782 18.1835 22.1782H20.0077C18.0045 22.1782 16.3808 23.8018 16.3808 25.805V38.3062C16.3808 40.3094 18.0044 41.933 20.0077 41.933H20.826L20.5619 44.2944C20.5137 44.7257 20.6758 45.1019 20.9449 45.3592Z" fill="#FFC344"/>
<path d="M22.9234 35.863C22.1972 35.863 21.6084 35.2742 21.6084 34.548V33.9902C21.6084 32.6922 22.4257 31.5312 23.6423 31.1011C24.5573 30.7775 25.147 29.8726 25.0761 28.9004C24.9985 27.836 24.1366 26.9806 23.0714 26.9109C21.9447 26.8364 20.9408 27.6502 20.7857 28.7619C20.7718 28.8613 20.7648 28.9632 20.7648 29.0647C20.7648 29.7909 20.1761 30.3797 19.4498 30.3797C18.7235 30.3797 18.1348 29.7909 18.1348 29.0647C18.1348 28.842 18.1503 28.6179 18.1809 28.3985C18.5254 25.9294 20.7491 24.1228 23.2432 24.2865C25.611 24.4415 27.5266 26.3429 27.6992 28.7092C27.8559 30.8599 26.5482 32.863 24.519 33.5805C24.3512 33.6398 24.2384 33.8044 24.2384 33.99V34.5478C24.2384 35.2742 23.6496 35.863 22.9234 35.863Z" fill="#0573CE"/>
<path d="M22.9234 39.7758C22.1971 39.7758 21.6084 39.1871 21.6084 38.4608V38.4499C21.6084 37.7236 22.1971 37.1349 22.9234 37.1349C23.6497 37.1349 24.2384 37.7236 24.2384 38.4499V38.4608C24.2384 39.1871 23.6496 39.7758 22.9234 39.7758Z" fill="#0573CE"/>
<path d="M33.0308 26.7997H47.8149C49.8179 26.7997 51.4418 28.4236 51.4418 30.4266V42.9279C51.4418 44.931 49.8179 46.5548 47.8149 46.5548H46.9967L47.2604 48.9161C47.3803 49.9897 46.1997 50.7208 45.2921 50.135L39.7447 46.5548H33.0307C31.0276 46.5548 29.4038 44.931 29.4038 42.9279V30.4266C29.4039 28.4236 31.0277 26.7997 33.0308 26.7997Z" fill="#FE9738"/>
<path d="M35.1427 46.5547H33.0306C31.0274 46.5547 29.4038 44.9306 29.4038 42.9279V30.4262C29.4038 28.4235 31.0273 26.7994 33.0306 26.7994H35.1427C33.1395 26.7994 31.5159 28.4235 31.5159 30.4262V42.928C31.516 44.9306 33.1395 46.5547 35.1427 46.5547Z" fill="#FE7D43"/>
<path d="M40.4229 40.15C39.6967 40.15 39.1079 39.5612 39.1079 38.8349V38.2771C39.1079 36.9792 39.9252 35.8182 41.1418 35.388C42.0569 35.0644 42.6465 34.1595 42.5756 33.1875C42.498 32.123 41.6361 31.2677 40.5709 31.1979C39.4442 31.1235 38.4403 31.9372 38.2852 33.049C38.2713 33.1484 38.2643 33.2503 38.2643 33.3517C38.2643 34.078 37.6756 34.6667 36.9493 34.6667C36.223 34.6667 35.6343 34.078 35.6343 33.3517C35.6343 33.1291 35.6498 32.9049 35.6804 32.6856C36.0249 30.2164 38.2486 28.4099 40.7427 28.5735C43.1105 28.7286 45.0261 30.6299 45.1987 32.9962C45.3554 35.1469 44.0477 37.15 42.0186 37.8676C41.8507 37.9269 41.7379 38.0915 41.7379 38.2771V38.8349C41.7379 39.5612 41.1491 40.15 40.4229 40.15Z" fill="#F9F7F8"/>
<path d="M40.4229 44.0626C39.6967 44.0626 39.1079 43.4738 39.1079 42.7476V42.7366C39.1079 42.0104 39.6967 41.4216 40.4229 41.4216C41.1492 41.4216 41.7379 42.0104 41.7379 42.7366V42.7476C41.7379 43.4738 41.1491 44.0626 40.4229 44.0626Z" fill="#F9F7F8"/>
<path d="M24.7945 34.0726C27.0079 33.2449 28.4264 31.037 28.2538 28.669C28.0612 26.0272 25.9225 23.9044 23.2791 23.7314C20.4957 23.5489 18.0138 25.5651 17.6291 28.3219C17.5949 28.5669 17.5776 28.8169 17.5776 29.065C17.5776 30.097 18.4172 30.9366 19.4493 30.9366C20.4812 30.9366 21.3208 30.097 21.3208 29.065C21.3208 28.9891 21.326 28.9131 21.3364 28.8391C21.4515 28.0142 22.1966 27.411 23.0345 27.4665C23.8241 27.5183 24.4629 28.1522 24.5205 28.9411C24.5732 29.6638 24.1355 30.3363 23.4562 30.5765C22.0177 31.085 21.0513 32.457 21.0513 33.9903V34.5481C21.0513 35.5802 21.8909 36.4198 22.9229 36.4198C23.9549 36.4198 24.7945 35.5802 24.7945 34.5481V34.0726ZM23.6813 33.9903V34.5481C23.6813 34.9663 23.3411 35.3065 22.9229 35.3065C22.5047 35.3065 22.1645 34.9663 22.1645 34.5481V33.9903C22.1645 32.9278 22.8327 31.9776 23.8274 31.626C24.9782 31.219 25.7198 30.0817 25.6307 28.8602C25.5331 27.5201 24.4482 26.4435 23.1076 26.3557C23.0473 26.3517 22.9875 26.3498 22.928 26.3498C21.5861 26.3498 20.4208 27.345 20.2338 28.6852C20.2164 28.81 20.2075 28.9378 20.2075 29.065C20.2075 29.4832 19.8673 29.8234 19.4492 29.8234C19.031 29.8234 18.6908 29.4832 18.6908 29.065C18.6908 28.8682 18.7045 28.6699 18.7316 28.4757C19.0361 26.2936 21.0013 24.6975 23.2063 24.8422C25.2984 24.9792 26.991 26.6592 27.1434 28.7499C27.282 30.6512 26.1263 32.422 24.3329 33.0561C23.9432 33.1938 23.6813 33.5692 23.6813 33.9903Z" fill="#0A1D47"/>
<path d="M22.9229 36.5785C21.8909 36.5785 21.0513 37.4181 21.0513 38.4501V38.461C21.0513 39.4931 21.8909 40.3327 22.9229 40.3327C23.9549 40.3327 24.7945 39.4931 24.7945 38.461V38.4501C24.7945 37.4181 23.9549 36.5785 22.9229 36.5785ZM23.6813 38.461C23.6813 38.8792 23.3411 39.2194 22.9229 39.2194C22.5047 39.2194 22.1645 38.8792 22.1645 38.461V38.45C22.1645 38.0318 22.5047 37.6916 22.9229 37.6916C23.3411 37.6916 23.6813 38.0318 23.6813 38.45V38.461Z" fill="#0A1D47"/>
<path d="M47.8146 26.2435H46.7185V19.1835C46.7185 16.8767 44.8418 15 42.535 15H27.7506C25.4437 15 23.5671 16.8767 23.5671 19.1835V21.6214H21.3065C20.9991 21.6214 20.7499 21.8706 20.7499 22.178C20.7499 22.4854 20.9991 22.7346 21.3065 22.7346H32.9679C34.6609 22.7346 36.0382 24.1119 36.0382 25.8049V26.2435H33.0302C30.7234 26.2435 28.8467 28.1203 28.8467 30.427V41.3767H26.2537C26.1466 41.3767 26.0418 41.4076 25.9518 41.4656L20.4043 45.0458C20.1631 45.2013 19.8735 45.204 19.6294 45.0528C19.3856 44.9018 19.2592 44.6416 19.2911 44.3566L19.5546 41.9951C19.5721 41.8377 19.5218 41.6803 19.4162 41.5623C19.3107 41.4443 19.1597 41.3768 19.0014 41.3768H18.1835C16.4905 41.3768 15.1132 39.9994 15.1132 38.3065V25.805C15.1132 24.112 16.4906 22.7347 18.1835 22.7347H18.7089C19.0163 22.7347 19.2656 22.4855 19.2656 22.1781C19.2656 21.8707 19.0163 21.6215 18.7089 21.6215H18.1835C15.8767 21.6215 14 23.4981 14 25.805V38.3065C14 40.6133 15.8768 42.49 18.1835 42.49H18.3792L18.1847 44.233C18.105 44.945 18.4338 45.6217 19.043 45.9992C19.3428 46.185 19.6772 46.2777 20.0115 46.2777C20.3567 46.2777 20.7017 46.1787 21.0078 45.9812L26.4176 42.49H28.8467V42.9279C28.8467 45.2347 30.7234 47.1114 33.0302 47.1114H39.5804L41.4219 48.2997C41.6801 48.4664 42.0247 48.3921 42.1913 48.1339C42.358 47.8756 42.2837 47.531 42.0255 47.3644L40.0462 46.0872C39.9562 46.0291 39.8514 45.9982 39.7444 45.9982H33.0302C31.3372 45.9982 29.9599 44.6209 29.9599 42.928V30.4272C29.9599 28.7342 31.3372 27.3569 33.0302 27.3569H47.8146C49.5075 27.3569 50.8848 28.7342 50.8848 30.4272V42.928C50.8848 44.621 49.5075 45.9982 47.8146 45.9982H46.9967C46.8383 45.9982 46.6875 46.0657 46.5818 46.1837C46.4763 46.3018 46.4259 46.4592 46.4435 46.6166L46.707 48.9784C46.7389 49.2634 46.6123 49.5238 46.3683 49.6749C46.1244 49.826 45.8349 49.8231 45.5938 49.6674L44.1926 48.7628C43.9344 48.5961 43.5899 48.6701 43.4231 48.9285C43.2563 49.1867 43.3306 49.5313 43.5888 49.698L44.9899 50.6026C45.2961 50.8004 45.6412 50.8995 45.9866 50.8995C46.3205 50.8995 46.6547 50.8069 46.9543 50.6214C47.5639 50.2439 47.8931 49.5669 47.8133 48.8547L47.6188 47.1115H47.8145C50.1213 47.1115 51.998 45.2348 51.998 42.928V30.4272C51.9981 28.1203 50.1214 26.2435 47.8146 26.2435ZM32.9679 21.6214H24.6803V19.1835C24.6803 17.4905 26.0576 16.1132 27.7506 16.1132H42.535C44.228 16.1132 45.6052 17.4905 45.6052 19.1835V26.2435H37.1514V25.8049C37.1514 23.4982 35.2747 21.6214 32.9679 21.6214Z" fill="#0A1D47"/>
<path d="M45.7533 32.9556C45.5607 30.3138 43.422 28.1911 40.7787 28.0179C37.9951 27.8354 35.5134 29.8516 35.1287 32.6084C35.0945 32.8533 35.0771 33.1034 35.0771 33.3516C35.0771 34.3836 35.9167 35.2232 36.9488 35.2232C37.9808 35.2232 38.8204 34.3836 38.8204 33.3516C38.8204 33.2757 38.8256 33.1997 38.8359 33.1257C38.951 32.3007 39.6967 31.6977 40.534 31.7531C41.3237 31.8048 41.9625 32.4388 42.02 33.2277C42.0727 33.9503 41.635 34.6229 40.9557 34.863C39.5173 35.3716 38.5508 36.7436 38.5508 38.2769V38.8347C38.5508 39.8667 39.3904 40.7063 40.4224 40.7063C41.4544 40.7063 42.294 39.8667 42.294 38.8347V38.3592C44.5074 37.5315 45.926 35.3236 45.7533 32.9556ZM41.8324 37.3426C41.4427 37.4804 41.1808 37.8559 41.1808 38.2769V38.8347C41.1808 39.2529 40.8406 39.5931 40.4225 39.5931C40.0043 39.5931 39.6641 39.2529 39.6641 38.8347V38.2769C39.6641 37.2144 40.3323 36.2643 41.3269 35.9126C42.4777 35.5056 43.2194 34.3682 43.1302 33.1467C43.0326 31.8067 41.9477 30.7301 40.6071 30.6423C40.5469 30.6383 40.4871 30.6363 40.4275 30.6363C39.0857 30.6363 37.9204 31.6315 37.7334 32.9719C37.716 33.0967 37.7072 33.2244 37.7072 33.3515C37.7072 33.7697 37.367 34.1099 36.9488 34.1099C36.5306 34.1099 36.1904 33.7697 36.1904 33.3515C36.1904 33.1546 36.2041 32.9564 36.2312 32.7622C36.5357 30.58 38.5014 28.984 40.7058 29.1286C42.798 29.2656 44.4906 30.9456 44.643 33.0364C44.7817 34.9378 43.6258 36.7085 41.8324 37.3426Z" fill="#0A1D47"/>
<path d="M40.4229 40.8651C39.3909 40.8651 38.5513 41.7046 38.5513 42.7367V42.7476C38.5513 43.7796 39.3909 44.6192 40.4229 44.6192C41.4549 44.6192 42.2945 43.7796 42.2945 42.7476V42.7367C42.2945 41.7046 41.4549 40.8651 40.4229 40.8651ZM41.1812 42.7476C41.1812 43.1658 40.841 43.506 40.4229 43.506C40.0047 43.506 39.6645 43.1658 39.6645 42.7476V42.7367C39.6645 42.3185 40.0047 41.9783 40.4229 41.9783C40.841 41.9783 41.1812 42.3185 41.1812 42.7367V42.7476Z" fill="#0A1D47"/>
</svg>
