<?xml version="1.0" encoding="UTF-8"?>
<!DOCTYPE svg PUBLIC "-//W3C//DTD SVG 1.1//EN" "http://www.w3.org/Graphics/SVG/1.1/DTD/svg11.dtd">
<!-- Creator: CorelDRAW 2021 (64-Bit) -->
<svg xmlns="http://www.w3.org/2000/svg" xml:space="preserve" width="2.0321mm" height="2.032mm" version="1.1" style="shape-rendering:geometricPrecision; text-rendering:geometricPrecision; image-rendering:optimizeQuality; fill-rule:evenodd; clip-rule:evenodd"
viewBox="0 0 233.96 233.95"
 xmlns:xlink="http://www.w3.org/1999/xlink"
 xmlns:xodm="http://www.corel.com/coreldraw/odm/2003">
 <defs>
  <style type="text/css">
   <![CDATA[
    .fil0 {fill:#0A405C}
    .fil1 {fill:white}
   ]]>
  </style>
 </defs>
 <g id="Layer_x0020_1">
  <metadata id="CorelCorpID_0Corel-Layer"/>
  <path class="fil0" d="M41.92 0l150.11 0c23.16,0 41.93,18.77 41.93,41.92l-0.01 150.11c0.01,23.14 -18.76,41.91 -41.91,41.91l-150.12 0.01c-23.14,-0.01 -41.91,-18.78 -41.91,-41.93l-0.01 -150.1c0.01,-23.15 18.78,-41.92 41.93,-41.92z"/>
  <g id="_2613741944608">
   <path class="fil1" d="M101.58 134.66c0,-2.29 0.59,-4.66 1.31,-6.23 5.58,-12.25 22.08,-12.69 28.06,-0.22 2.82,5.88 1.17,12.75 -3.09,17.02 -9.88,9.87 -26.28,2.31 -26.28,-10.57zm-51.55 -101.52l133.88 0c8.63,0.09 16.9,8.39 16.9,17.03l0 98.25c0,5.46 -3.28,10.45 -6.31,13.01 -4.56,3.86 -8.89,4.34 -14.98,4.34 -12.88,0 -25.77,0 -38.64,0 -0.32,1.37 -1.7,3.73 -2.41,5.13l-12.08 23.96c-2.34,3.55 -5.24,5.53 -8.21,5.95l-2.44 0c-3.04,-0.44 -6.01,-2.49 -8.35,-6.15l-14.35 -28.9c-12.87,0 -25.76,0 -38.64,0 -3.64,0 -6.24,-0.05 -8.9,-0.92 -6.52,-2.18 -12.39,-8.69 -12.39,-16.43l0 -98.25c0,-8.63 8.27,-16.94 16.9,-17.03zm51.55 58.63l0 -21.61c0,-4.49 1.73,-8.46 4.01,-10.73 4.31,-4.27 6.74,-5 12.7,-5 4.06,0 7.31,2.27 9.9,4.84 2.43,2.39 4.18,6.17 4.18,10.89l0 21.61c0,13.91 -16.08,21.37 -26.28,11.21 -1.62,-1.62 -2.21,-2.51 -3.19,-4.66 -0.79,-1.74 -1.31,-4.01 -1.31,-6.55z"/>
  </g>
 </g>
</svg>
