<?xml version="1.0" encoding="UTF-8"?>
<!DOCTYPE svg PUBLIC "-//W3C//DTD SVG 1.1//EN" "http://www.w3.org/Graphics/SVG/1.1/DTD/svg11.dtd">
<!-- Creator: CorelDRAW 2021 (64-Bit) -->
<svg xmlns="http://www.w3.org/2000/svg" xml:space="preserve" width="2.032mm" height="2.032mm" version="1.1" style="shape-rendering:geometricPrecision; text-rendering:geometricPrecision; image-rendering:optimizeQuality; fill-rule:evenodd; clip-rule:evenodd"
viewBox="0 0 27.56 27.56"
 xmlns:xlink="http://www.w3.org/1999/xlink"
 xmlns:xodm="http://www.corel.com/coreldraw/odm/2003">
 <defs>
  <style type="text/css">
   <![CDATA[
    .fil0 {fill:#0A405C}
    .fil1 {fill:white}
   ]]>
  </style>
 </defs>
 <g id="Layer_x0020_1">
  <metadata id="CorelCorpID_0Corel-Layer"/>
  <rect class="fil0" width="27.56" height="27.56" rx="4.94" ry="4.94"/>
  <g id="_2914454212464">
   <path class="fil1" d="M11.44 14.77c-0.98,-0.51 -4.36,-1.77 -5.3,-2.05l0.02 -0.76c-1.03,0.3 -2.8,1.84 -2.7,3.02 1.54,0.68 8.71,3.75 9.07,3.72 0.41,-0.24 0.98,-1.53 1.35,-2.01 0.39,0.54 0.73,1.36 1.1,1.84 0.28,0.37 8.96,-3.24 9.24,-3.64 0,-1.1 -2.13,-3.05 -3.11,-3.48l0.05 0.77c0.25,0.16 0.43,0.2 0.57,0.44 -1.7,0.62 -3.47,1.31 -5.15,1.99 -3.72,1.5 -2.11,1.11 -5.13,0.16z"/>
   <path class="fil1" d="M13.48 22.52l-0.02 -3.98c-0.37,0.79 -0.82,0.99 -1.66,0.65 -2.31,-0.94 -4.68,-1.93 -6.97,-2.91 0.01,0.84 -0.1,4.35 0.07,4.87 0.2,0.18 8.1,3.28 8.58,3.36l-0 -1.99z"/>
   <path class="fil1" d="M15.74 19.22c-1.08,0.45 -1.04,-0.14 -1.56,-0.63 -0.1,1.27 0.01,3.75 -0.02,5.27 -0.02,0.86 -0.02,0.59 0.18,0.65 0.32,-0.33 8.19,-3.02 8.41,-3.38 0.17,-0.56 0.05,-3.98 0.06,-4.85l-0.25 0.01c-0.42,0.41 -5.47,2.36 -6.83,2.93z"/>
   <path class="fil1" d="M13.05 9.69c0.05,-0.24 0.12,-0.31 0.36,-0.37 1.53,0.01 3.06,0.01 4.59,0.01 0.38,0 0.81,-0.05 1.14,0.07 0.19,0.33 0.15,1.93 0.08,2.33 -0.35,0.45 -5.76,0.26 -6.15,0.07 -0.02,-0.71 -0.02,-1.39 -0.02,-2.1zm-1.46 -2.18l0 2.45 -0 0.34 0 2 0 0.35 0.01 1.44c0.27,0.12 2.08,0.85 2.24,0.86 0.2,0.01 1.91,-0.7 2.24,-0.83 0.79,-0.31 3.9,-1.4 4.38,-1.75l-0 -4.7c-1.5,-0.01 -7.9,0.23 -8.82,-0.22l-0.05 0.06z"/>
   <path class="fil1" d="M10.52 11.7l-1.13 0.01c-0.28,-0.04 -0.42,-0.15 -0.37,-0.46 0.13,-0.16 0.25,-0.2 0.45,-0.2l1.04 0 -0.01 -1.15 -0.86 0.02c-0.22,-0.2 -0.19,-0.13 -0.23,-0.41 0.29,-0.34 0.64,-0.22 1.1,-0.22l-0.02 -1.11 -0.69 0 -0.72 -0.05c-0.08,-0.12 -0.14,-0.12 -0.13,-0.3 0.05,-0.51 1.19,-0.31 1.52,-0.31l-0.05 -1.99c-0.16,-0.33 -2.97,-0.04 -3.62,0.02l0.01 6.69 2.48 0.98 0.11 -0.16c0.04,-0.06 -0.15,-0.28 1.09,-0.26l0 -1.11z"/>
   <path class="fil1" d="M13.08 5.99c-0.24,-0.46 4.89,-0.32 5.42,-0.13 0.11,0.3 0.13,0.28 -0.09,0.52 -0.83,0.23 -5.46,0.38 -5.33,-0.39zm7.17 1.03c-0.27,-0.89 -0.32,-0.84 0.02,-1.75 -1.87,-0.09 -5,-0.01 -7.1,-0.01 -0.65,0 -1.59,-0.1 -1.6,0.82 -0.01,0.92 0.73,0.94 1.43,0.94l7.25 0z"/>
  </g>
 </g>
</svg>
