<?xml version="1.0" encoding="UTF-8"?>
<!DOCTYPE svg PUBLIC "-//W3C//DTD SVG 1.1//EN" "http://www.w3.org/Graphics/SVG/1.1/DTD/svg11.dtd">
<!-- Creator: CorelDRAW 2021 (64-Bit) -->
<svg xmlns="http://www.w3.org/2000/svg" xml:space="preserve" width="2.032mm" height="2.032mm" version="1.1" style="shape-rendering:geometricPrecision; text-rendering:geometricPrecision; image-rendering:optimizeQuality; fill-rule:evenodd; clip-rule:evenodd"
viewBox="0 0 42.28 42.28"
 xmlns:xlink="http://www.w3.org/1999/xlink"
 xmlns:xodm="http://www.corel.com/coreldraw/odm/2003">
 <defs>
  <style type="text/css">
   <![CDATA[
    .fil0 {fill:#FFC50C}
    .fil1 {fill:white}
   ]]>
  </style>
 </defs>
 <g id="Layer_x0020_1">
  <metadata id="CorelCorpID_0Corel-Layer"/>
  <rect class="fil0" width="42.28" height="42.28" rx="7.58" ry="7.58"/>
  <g id="_2914489954176">
   <path class="fil1" d="M18.29 22.65c-1.5,-0.79 -6.68,-2.72 -8.13,-3.14l0.04 -1.17c-1.58,0.46 -4.29,2.82 -4.14,4.64 2.37,1.04 13.36,5.75 13.91,5.7 0.63,-0.37 1.51,-2.35 2.08,-3.08 0.59,0.82 1.12,2.09 1.68,2.83 0.43,0.57 13.74,-4.97 14.18,-5.58 0.01,-1.69 -3.27,-4.68 -4.77,-5.33l0.07 1.18c0.38,0.25 0.66,0.31 0.87,0.67 -2.61,0.95 -5.32,2 -7.9,3.05 -5.71,2.31 -3.24,1.7 -7.88,0.24z"/>
   <path class="fil1" d="M21.42 34.54l-0.03 -6.1c-0.57,1.21 -1.26,1.52 -2.54,1 -3.54,-1.44 -7.17,-2.96 -10.69,-4.47 0.01,1.29 -0.15,6.67 0.11,7.47 0.31,0.27 12.43,5.04 13.16,5.15l-0 -3.06z"/>
   <path class="fil1" d="M24.89 29.49c-1.65,0.69 -1.59,-0.21 -2.39,-0.97 -0.15,1.95 0.02,5.75 -0.03,8.09 -0.02,1.32 -0.04,0.91 0.27,1 0.48,-0.51 12.57,-4.63 12.91,-5.18 0.25,-0.86 0.08,-6.11 0.1,-7.44l-0.38 0.01c-0.64,0.62 -8.39,3.62 -10.48,4.5z"/>
   <path class="fil1" d="M20.78 14.87c0.07,-0.37 0.18,-0.48 0.56,-0.57 2.35,0.01 4.7,0.01 7.05,0.01 0.58,0 1.24,-0.07 1.76,0.11 0.29,0.51 0.24,2.96 0.12,3.57 -0.54,0.68 -8.83,0.4 -9.44,0.1 -0.03,-1.08 -0.04,-2.13 -0.04,-3.22zm-2.24 -3.34l0.01 3.76 -0 0.52 0 3.07 0 0.54 0.02 2.21c0.42,0.18 3.2,1.3 3.43,1.31 0.31,0.01 2.93,-1.08 3.44,-1.28 1.22,-0.48 5.98,-2.15 6.72,-2.68l-0 -7.21c-2.3,-0.02 -12.12,0.35 -13.54,-0.34l-0.08 0.09z"/>
   <path class="fil1" d="M16.89 17.95l-1.73 0.01c-0.44,-0.06 -0.64,-0.23 -0.57,-0.7 0.2,-0.24 0.39,-0.3 0.7,-0.3l1.6 0 -0.01 -1.77 -1.33 0.03c-0.34,-0.31 -0.29,-0.2 -0.35,-0.62 0.44,-0.52 0.98,-0.34 1.69,-0.33l-0.02 -1.7 -1.07 0 -1.1 -0.07c-0.13,-0.18 -0.22,-0.18 -0.19,-0.45 0.07,-0.78 1.82,-0.47 2.33,-0.48l-0.08 -3.06c-0.25,-0.51 -4.56,-0.05 -5.55,0.03l0.02 10.27 3.81 1.5 0.17 -0.25c0.06,-0.09 -0.23,-0.43 1.67,-0.41l0 -1.7z"/>
   <path class="fil1" d="M20.81 9.2c-0.37,-0.7 7.5,-0.49 8.32,-0.2 0.16,0.46 0.2,0.43 -0.14,0.79 -1.27,0.35 -8.38,0.58 -8.18,-0.6zm10.99 1.58c-0.42,-1.36 -0.5,-1.29 0.03,-2.68 -2.87,-0.14 -7.67,-0.02 -10.89,-0.01 -1,0 -2.44,-0.16 -2.46,1.26 -0.02,1.41 1.12,1.44 2.2,1.44l11.12 0z"/>
  </g>
 </g>
</svg>
