<svg width="27" height="30" viewBox="0 0 27 30" fill="none" xmlns="http://www.w3.org/2000/svg">
<path d="M16.4737 15L26.5687 3.7822C26.8463 3.4734 26.9996 3.06142 27 2.62212C27 2.18258 26.8468 1.77012 26.5687 1.4618L25.684 0.479056C25.4059 0.169523 25.0351 0 24.6394 0C24.2442 0 23.8735 0.169523 23.5954 0.479056L13.5004 11.6961L3.40507 0.479056C3.12739 0.169523 2.75641 0 2.36085 0C1.96573 0 1.59476 0.169523 1.31707 0.479056L0.432 1.4618C-0.144 2.10184 -0.144 3.14289 0.432 3.7822L10.5271 15L0.432 26.2173C0.154098 26.5266 0.00109756 26.9386 0.00109756 27.3779C0.00109756 27.8172 0.154098 28.2292 0.432 28.5382L1.31685 29.5209C1.59454 29.8302 1.96573 30 2.36063 30C2.7562 30 3.12717 29.8302 3.40485 29.5209L13.5002 18.3036L23.5951 29.5209C23.8733 29.8302 24.244 30 24.6391 30H24.6396C25.0349 30 25.4057 29.8302 25.6838 29.5209L26.5684 28.5382C26.8461 28.2294 26.9993 27.8172 26.9993 27.3779C26.9993 26.9386 26.8461 26.5266 26.5684 26.2176L16.4737 15Z" fill="#1E2959"/>
</svg>
