<svg width="720" height="594" viewBox="0 0 720 594" fill="none" xmlns="http://www.w3.org/2000/svg">
<path d="M813.534 236.48C806.616 269.571 755.59 295.3 712.276 317.957C668.961 340.615 633.688 360.109 592.2 381.632C550.793 403.449 503.251 427.587 471.252 414.996C439.333 402.698 422.544 353.47 384.132 322.805C345.308 291.938 284.861 279.636 269.424 250.822C253.988 222.008 284.055 177.178 306.823 135.621C329.591 94.0633 345.141 56.0719 371.665 21.6677C398.19 -12.7365 435.607 -43.8462 477.844 -53.6074C519.999 -63.6613 566.894 -52.6596 613.877 -42.6273C660.529 -32.5036 707.351 -23.0567 729.165 4.31292C751.059 31.9752 747.612 77.6516 765.187 120.679C782.349 163.505 820.201 203.774 813.534 236.48Z" fill="#FCCB0F"/>
<path d="M10.4575 975.365C0.262181 1036.68 -85.3822 1082.17 -158.046 1122.3C-230.709 1162.44 -289.832 1197.06 -359.439 1235.17C-428.895 1273.83 -508.684 1316.52 -563.77 1291.54C-618.703 1267.1 -649.644 1174.59 -716.511 1115.63C-784.09 1056.27 -887.595 1030.46 -915.256 976.045C-942.917 921.631 -893.871 839.557 -857.094 763.231C-820.318 686.905 -795.66 616.876 -752.146 554.055C-708.632 491.234 -646.414 435.071 -574.969 418.908C-503.676 402.196 -423.307 424.935 -342.833 445.872C-262.918 466.963 -182.747 486.802 -144.298 538.832C-105.698 591.41 -109.38 676.334 -77.3987 757.33C-46.1288 837.93 20.2446 914.756 10.4575 975.365Z" fill="#FCCB0F"/>
</svg>
