<svg width="66" height="66" viewBox="0 0 66 66" fill="none" xmlns="http://www.w3.org/2000/svg">
<circle cx="33" cy="33" r="33" fill="#FFCC00" fill-opacity="0.27"/>
<path d="M22.6541 40.4581H20.2549V43.8579H21.9043L22.6541 40.4581Z" fill="#DF75A5"/>
<path d="M16.6562 40.4581H20.255V48.1077H16.6562V40.4581Z" fill="#407093"/>
<path d="M20.2546 48.1077H16.6559C16.3247 48.1077 16.0562 48.3614 16.0562 48.6743V49.8077C16.0562 50.1206 16.3247 50.3743 16.6559 50.3743H20.2546C20.5859 50.3743 20.8544 50.1206 20.8544 49.8077V48.6743C20.8544 48.3614 20.5859 48.1077 20.2546 48.1077Z" fill="#FFE07D"/>
<path d="M20.2543 48.1077H18.9048C19.236 48.1077 19.5045 48.3614 19.5045 48.6743V49.8077C19.5045 50.1206 19.236 50.3743 18.9048 50.3743H20.2543C20.5855 50.3743 20.8541 50.1206 20.8541 49.8077V48.6743C20.8541 48.3614 20.5855 48.1077 20.2543 48.1077Z" fill="#FFD064"/>
<path d="M36.1488 27.0003H34.0496C33.6355 27.0003 33.2998 27.3174 33.2998 27.7086V43.9995C33.2998 44.3907 33.6355 44.7078 34.0496 44.7078H36.1488C36.5629 44.7078 36.8986 44.3907 36.8986 43.9995V27.7086C36.8985 27.3174 36.5629 27.0003 36.1488 27.0003Z" fill="#FFE07D"/>
<path d="M36.1492 27.0003H34.6069C35.021 27.0003 35.3567 27.3174 35.3567 27.7086V43.9995C35.3567 44.3907 35.021 44.7078 34.6069 44.7078H36.1492C36.5633 44.7078 36.899 44.3907 36.899 43.9995V27.7086C36.8989 27.3174 36.5633 27.0003 36.1492 27.0003Z" fill="#FFD064"/>
<path d="M19.0547 31.9585V40.458L33.2996 43.2913V28.417L19.0547 31.9585Z" fill="#ECF4FF"/>
<path d="M19.055 31.9585H15.3064C14.8923 31.9585 14.5566 32.2756 14.5566 32.6668V39.7498C14.5566 40.141 14.8923 40.4581 15.3064 40.4581H19.055V31.9585Z" fill="#FFE07D"/>
<path d="M17.6572 31.9585H19.0549V40.4581H17.6572V31.9585Z" fill="#FFD064"/>
<path d="M36.8989 40.4582L38.2458 40.0605C38.8718 39.8757 39.2981 39.328 39.2981 38.7084V33.7083C39.2981 33.0887 38.8718 32.541 38.2458 32.3562L36.8989 31.9586V40.4582Z" fill="#2B4D66"/>
<path d="M50.1505 15.5259H30.2438C29.5299 15.5259 28.9512 16.0727 28.9512 16.747V23.0973C28.9512 23.7717 29.5299 24.3185 30.2438 24.3185H41.6966V27.8503L45.4608 24.3185H50.1505C50.8644 24.3185 51.4431 23.7717 51.4431 23.0973V16.747C51.4431 16.0727 50.8644 15.5259 50.1505 15.5259Z" fill="#DF75A5"/>
<path d="M50.1506 15.5259H48.6641C49.378 15.5259 49.9567 16.0727 49.9567 16.7471V23.0974C49.9567 23.7718 49.378 24.3186 48.6641 24.3186H50.1506C50.8645 24.3186 51.4433 23.7718 51.4433 23.0974V16.7471C51.4433 16.0727 50.8645 15.5259 50.1506 15.5259Z" fill="#DD5790"/>
<path d="M38.4116 31.8541L37.4554 31.5718V27.7087C37.4554 27.0283 36.8694 26.4747 36.1491 26.4747H34.0494C33.3292 26.4747 32.7432 27.0283 32.7432 27.7087V28.0115L18.9822 31.4327H15.3063C14.586 31.4327 14 31.9863 14 32.6667V39.75C14 40.4304 14.586 40.984 15.3063 40.984H16.0989V47.7173C15.7419 47.9034 15.4994 48.2624 15.4994 48.6742V49.8075C15.4994 50.4099 16.0182 50.9 16.6558 50.9H20.2546C20.8923 50.9 21.411 50.4099 21.411 49.8075V48.6742C21.411 48.2622 21.1683 47.9031 20.811 47.717V44.384H21.9042C22.1679 44.384 22.3954 44.2092 22.4492 43.9653L22.9337 41.7668L32.7432 43.7178V43.9997C32.7432 44.6802 33.3292 45.2339 34.0494 45.2339H36.1491C36.8694 45.2339 37.4554 44.6802 37.4554 43.9997V40.8444L38.4116 40.5622C39.2746 40.3074 39.8544 39.5623 39.8544 38.7081V33.708C39.8544 32.8539 39.2746 32.1089 38.4116 31.8541ZM18.9982 40.984L19.6978 41.1232V47.5813H17.2122V40.984H18.9982V40.984ZM20.2978 49.8075C20.2978 49.83 20.2784 49.8483 20.2546 49.8483H16.6558C16.6321 49.8483 16.6127 49.83 16.6127 49.8075V48.6742C16.6127 48.6518 16.6321 48.6335 16.6558 48.6335H20.2546C20.2783 48.6335 20.2977 48.6518 20.2977 48.6742V49.8075H20.2978ZM21.4516 43.3323H20.8111V41.3446L21.8444 41.5501L21.4516 43.3323ZM36.1491 44.1821H34.0495C33.9431 44.1821 33.8565 44.1003 33.8565 43.9997V32.1717C33.8565 31.8812 33.6074 31.6458 33.2999 31.6458C32.9924 31.6458 32.7432 31.8812 32.7432 32.1717V42.643L20.3675 40.1816C20.3669 40.1815 20.3663 40.1814 20.3658 40.1813L19.6117 40.0313V39.3706C19.6117 39.0802 19.3625 38.8448 19.055 38.8448C18.7476 38.8448 18.4984 39.0802 18.4984 39.3706V39.9323H16.6556H15.3063C15.1998 39.9323 15.1133 39.8505 15.1133 39.75V32.6667C15.1133 32.5662 15.1998 32.4844 15.3063 32.4844H18.4984V36.9165C18.4984 37.207 18.7476 37.4424 19.055 37.4424C19.3625 37.4424 19.6117 37.207 19.6117 36.9165V32.3638L32.7432 29.0991V29.7177C32.7432 30.0082 32.9924 30.2435 33.2999 30.2435C33.6074 30.2435 33.8565 30.0082 33.8565 29.7177V27.7088C33.8565 27.6083 33.9431 27.5265 34.0495 27.5265H36.1491C36.2556 27.5265 36.3422 27.6083 36.3422 27.7088V31.9525V31.9635V43.9998C36.3421 44.1003 36.2555 44.1821 36.1491 44.1821ZM38.7412 38.7082C38.7412 39.0999 38.4753 39.4416 38.0796 39.5584L37.4555 39.7427V32.6737L38.0796 32.8579C38.4753 32.9748 38.7412 33.3164 38.7412 33.7081V38.7082Z" fill="#1E2959"/>
<path d="M33.5637 17.2714C32.0165 17.2714 30.7578 18.4606 30.7578 19.9223C30.7578 21.3839 32.0165 22.5731 33.5637 22.5731C34.1455 22.5731 34.6865 22.4048 35.1352 22.1172L35.4366 22.4019C35.5454 22.5046 35.6879 22.5559 35.8303 22.5559C35.9727 22.5559 36.1152 22.5046 36.224 22.4019C36.4413 22.1965 36.4413 21.8635 36.224 21.6582L35.915 21.3663C36.2021 20.9505 36.3697 20.4547 36.3697 19.9223C36.3695 18.4605 35.1107 17.2714 33.5637 17.2714ZM33.5637 21.5212C32.6304 21.5212 31.8711 20.8039 31.8711 19.9222C31.8711 19.0405 32.6304 18.3231 33.5637 18.3231C34.497 18.3231 35.2563 19.0404 35.2563 19.9222C35.2563 20.1624 35.1996 20.3903 35.0987 20.595L34.7848 20.2985C34.5673 20.0932 34.2149 20.0932 33.9975 20.2985C33.7802 20.5039 33.7802 20.8368 33.9975 21.0422L34.3237 21.3503C34.0949 21.4594 33.8369 21.5212 33.5637 21.5212Z" fill="#1E2959"/>
<path d="M44.3633 22.0471V17.7973C44.3633 17.5068 44.1141 17.2714 43.8066 17.2714C43.4992 17.2714 43.25 17.5068 43.25 17.7973V22.0471C43.25 22.3376 43.4992 22.573 43.8066 22.573C44.1141 22.573 44.3633 22.3375 44.3633 22.0471Z" fill="#1E2959"/>
<path d="M45.5898 22.2977C45.6871 22.4673 45.8749 22.573 46.0792 22.573H49.0801C49.3876 22.573 49.6368 22.3376 49.6368 22.0471C49.6368 21.7566 49.3876 21.5212 49.0801 21.5212H47.1063L49.4767 18.0844C49.5882 17.9227 49.597 17.7163 49.4997 17.5467C49.4023 17.377 49.2145 17.2714 49.0103 17.2714H46.1715C45.864 17.2714 45.6149 17.5067 45.6149 17.7972C45.6149 18.0877 45.864 18.3231 46.1715 18.3231H47.9832L45.6127 21.76C45.5012 21.9217 45.4924 22.128 45.5898 22.2977Z" fill="#1E2959"/>
<path d="M38.2402 17.2714C37.9327 17.2714 37.6836 17.5068 37.6836 17.7973V20.7216C37.6836 21.3609 38.0075 21.8807 38.6462 22.2662C38.9824 22.4692 39.3621 22.5724 39.7745 22.573H39.7775C40.1327 22.573 40.4661 22.5001 40.7686 22.3561C41.7225 21.9023 41.9227 21.2152 41.9227 20.7186V17.7973C41.9227 17.5068 41.6735 17.2714 41.366 17.2714C41.0585 17.2714 40.8094 17.5068 40.8094 17.7973V20.7186C40.8094 20.9238 40.7479 21.1885 40.2679 21.4168C40.1202 21.4871 39.9598 21.5212 39.7778 21.5212C39.7772 21.5212 39.7766 21.5212 39.776 21.5212C39.5763 21.521 39.4029 21.4747 39.2458 21.3799C38.8732 21.1551 38.797 20.9541 38.797 20.7215V17.7973C38.7969 17.5068 38.5477 17.2714 38.2402 17.2714Z" fill="#1E2959"/>
<path d="M50.1503 15H30.2441C29.2242 15 28.3945 15.7838 28.3945 16.7473V23.0972C28.3945 24.0607 29.2242 24.8445 30.2441 24.8445H37.3772C37.6847 24.8445 37.9339 24.6092 37.9339 24.3187C37.9339 24.0282 37.6847 23.7928 37.3772 23.7928H30.2441C29.8381 23.7928 29.5078 23.4808 29.5078 23.0972V16.7473C29.5078 16.3638 29.8381 16.0518 30.2441 16.0518H50.1503C50.5563 16.0518 50.8866 16.3638 50.8866 16.7473V23.0972C50.8866 23.4808 50.5563 23.7928 50.1503 23.7928H45.4612C45.3142 23.7928 45.1732 23.8477 45.0689 23.9456L42.2534 26.5871V24.3186C42.2534 24.0281 42.0042 23.7927 41.6967 23.7927H39.9749C39.6674 23.7927 39.4183 24.0281 39.4183 24.3186C39.4183 24.6091 39.6674 24.8445 39.9749 24.8445H41.1401V27.8503C41.1401 28.0626 41.2752 28.2542 41.4828 28.3358C41.5519 28.363 41.6246 28.3762 41.6966 28.3762C41.8408 28.3762 41.9826 28.3233 42.089 28.2234L45.6906 24.8445H50.1502C51.1701 24.8445 51.9998 24.0606 51.9998 23.0971V16.7473C51.9999 15.7838 51.1702 15 50.1503 15Z" fill="#1E2959"/>
</svg>
