<svg width="66" height="66" viewBox="0 0 66 66" fill="none" xmlns="http://www.w3.org/2000/svg">
<circle cx="33" cy="33" r="33" fill="#FFCC00" fill-opacity="0.27"/>
<path d="M44.4799 50.3742H21.4978C20.6558 50.3742 19.9731 49.7293 19.9731 48.9337V20.3209C19.9731 19.5253 20.6557 18.8804 21.4978 18.8804H44.4799C45.3219 18.8804 46.0046 19.5253 46.0046 20.3209V48.9337C46.0046 49.7293 45.3219 50.3742 44.4799 50.3742Z" fill="#7776D0"/>
<path d="M22.8594 18.8804H43.1186V47.6049H22.8594V18.8804Z" fill="#FFF5B5"/>
<path d="M40.1499 18.8804H43.1187V47.6049H40.1499V18.8804Z" fill="#FFEF8F"/>
<path d="M27.7778 17.8441V19.2909C27.7778 20.0658 28.4428 20.6941 29.2631 20.6941H36.7141C37.5344 20.6941 38.1994 20.0658 38.1994 19.2909C38.1994 18.8064 38.1994 18.3219 38.1994 17.8375C38.1994 17.3304 37.9096 16.8629 37.4422 16.6138C34.6951 15.1496 31.2917 15.1713 28.5416 16.617C28.0703 16.8648 27.7778 17.3345 27.7778 17.8441Z" fill="#FFD54D"/>
<path d="M38.7716 27.8079C39.4846 27.8079 40.0627 27.2627 40.0627 26.5902C40.0627 25.9176 39.4846 25.3724 38.7716 25.3724C38.0585 25.3724 37.4805 25.9176 37.4805 26.5902C37.4805 27.2627 38.0585 27.8079 38.7716 27.8079Z" fill="#A6F5CF"/>
<path d="M38.7716 33.0109C39.4846 33.0109 40.0627 32.4657 40.0627 31.7932C40.0627 31.1206 39.4846 30.5754 38.7716 30.5754C38.0585 30.5754 37.4805 31.1206 37.4805 31.7932C37.4805 32.4657 38.0585 33.0109 38.7716 33.0109Z" fill="#FF8CCC"/>
<path d="M38.7716 38.2138C39.4846 38.2138 40.0627 37.6686 40.0627 36.996C40.0627 36.3235 39.4846 35.7783 38.7716 35.7783C38.0585 35.7783 37.4805 36.3235 37.4805 36.996C37.4805 37.6686 38.0585 38.2138 38.7716 38.2138Z" fill="#A6F5CF"/>
<path d="M38.7716 43.4168C39.4846 43.4168 40.0627 42.8716 40.0627 42.199C40.0627 41.5265 39.4846 40.9813 38.7716 40.9813C38.0585 40.9813 37.4805 41.5265 37.4805 42.199C37.4805 42.8716 38.0585 43.4168 38.7716 43.4168Z" fill="#A6F5CF"/>
<path d="M48.3296 45.2996H51.4431L49.8864 48.9558L48.3296 45.2996Z" fill="#7776D0"/>
<path d="M48.3296 25.8866H51.4431V45.2995H48.3296V25.8866Z" fill="#FFD54D"/>
<path d="M51.4431 26.6895H48.3296V23.9273C48.3296 23.115 49.0266 22.4565 49.8863 22.4565C50.7461 22.4565 51.4431 23.115 51.4431 23.9273V26.6895H51.4431Z" fill="#FF8CCC"/>
<path d="M21.1833 45.7463C24.8432 45.7463 27.8101 42.9373 27.8101 39.4721C27.8101 36.007 24.8432 33.198 21.1833 33.198C17.5235 33.198 14.5566 36.007 14.5566 39.4721C14.5566 42.9373 17.5235 45.7463 21.1833 45.7463Z" fill="#A6F5CF"/>
<path d="M21.1836 33.1981C20.6733 33.1981 20.1764 33.2527 19.6992 33.3562C22.6444 33.9943 24.8415 36.4904 24.8415 39.4723C24.8415 42.4542 22.6444 44.9503 19.6992 45.5884C20.1764 45.6917 20.6733 45.7464 21.1836 45.7464C24.8434 45.7464 27.8103 42.9374 27.8103 39.4723C27.8102 36.0072 24.8434 33.1981 21.1836 33.1981Z" fill="#8AEDBD"/>
<path d="M44.4798 18.3543H38.7562V17.8373C38.7562 17.142 38.3576 16.4977 37.7158 16.1555C34.8241 14.6142 31.2051 14.6148 28.2713 16.1573C27.6237 16.4977 27.2214 17.1439 27.2214 17.844V18.3543H21.4977C20.3501 18.3543 19.4164 19.2364 19.4164 20.3207V23.7865C19.4164 24.077 19.6656 24.3124 19.9731 24.3124C20.2805 24.3124 20.5297 24.077 20.5297 23.7865V20.3207C20.5297 19.8164 20.964 19.4061 21.4977 19.4061H22.3025V32.7544C21.7213 32.6679 21.1153 32.6496 20.5297 32.6999V26.6895C20.5297 26.399 20.2805 26.1636 19.9731 26.1636C19.6656 26.1636 19.4164 26.399 19.4164 26.6895V32.8801C16.307 33.6272 14 36.2993 14 39.472C14 42.6446 16.307 45.3167 19.4164 46.0639V48.9336C19.4164 50.0179 20.3501 50.9 21.4977 50.9H44.4798C45.6275 50.9 46.5612 50.0179 46.5612 48.9336V20.3207C46.5612 19.2365 45.6275 18.3543 44.4798 18.3543ZM28.3347 17.844C28.3347 17.5254 28.5178 17.2313 28.8125 17.0764C30.1129 16.3928 31.5648 16.0509 33.0114 16.0509C34.4544 16.0509 35.8921 16.3911 37.1688 17.0717C37.4613 17.2276 37.643 17.5209 37.643 17.8373V19.2908C37.643 19.7746 37.2264 20.1681 36.7143 20.1681H29.2633C28.7513 20.1681 28.3347 19.7746 28.3347 19.2908V17.844ZM23.4158 19.4061H27.2251C27.2885 20.4163 28.1784 21.2198 29.2633 21.2198H36.7143C37.7993 21.2198 38.6891 20.4163 38.7526 19.4061H42.5618V47.079H23.4158V45.9359C25.1646 45.3933 26.6197 44.2311 27.4901 42.7248H34.6251C35.3448 42.7248 35.3448 41.673 34.6251 41.673H27.9804C28.2307 40.9824 28.3666 40.2419 28.3666 39.4719C28.3666 38.7945 28.2613 38.1398 28.0656 37.5218H34.6251C35.3448 37.5218 35.3448 36.47 34.6251 36.47H27.6281C26.7785 34.8421 25.2606 33.5803 23.4158 33.008V19.4061ZM15.1133 39.472C15.1133 36.3024 17.8363 33.7237 21.1834 33.7237C24.5304 33.7237 27.2534 36.3024 27.2534 39.472C27.2534 42.6416 24.5304 45.2203 21.1834 45.2203C17.8363 45.2203 15.1133 42.6416 15.1133 39.472ZM45.4479 48.9336C45.4479 49.4379 45.0136 49.8482 44.4798 49.8482H21.4977C20.964 49.8482 20.5297 49.4379 20.5297 48.9336V46.2441C21.1154 46.2943 21.7214 46.276 22.3025 46.1896V47.6049C22.3025 47.8955 22.5517 48.1309 22.8591 48.1309H43.1184C43.4258 48.1309 43.675 47.8955 43.675 47.6049V19.4061H44.4798C45.0136 19.4061 45.4478 19.8165 45.4478 20.3207V48.9336H45.4479Z" fill="#1E2959"/>
<path d="M31.0894 18.8451H34.8885C35.196 18.8451 35.4452 18.6098 35.4452 18.3192C35.4452 18.0287 35.196 17.7933 34.8885 17.7933H31.0894C30.7819 17.7933 30.5327 18.0287 30.5327 18.3192C30.5327 18.6098 30.7819 18.8451 31.0894 18.8451Z" fill="#1E2959"/>
<path d="M25.9143 27.116H34.6253C35.345 27.116 35.345 26.0642 34.6253 26.0642H25.9143C25.1946 26.0642 25.1946 27.116 25.9143 27.116Z" fill="#1E2959"/>
<path d="M38.7726 28.3336C39.7914 28.3336 40.6203 27.5515 40.6203 26.5901C40.6203 25.6286 39.7914 24.8464 38.7726 24.8464C37.7537 24.8464 36.9248 25.6286 36.9248 26.5901C36.9248 27.5515 37.7537 28.3336 38.7726 28.3336ZM38.7726 25.8982C39.1776 25.8982 39.507 26.2085 39.507 26.59C39.507 26.9714 39.1776 27.2817 38.7726 27.2817C38.3675 27.2817 38.0381 26.9714 38.0381 26.59C38.0381 26.2085 38.3675 25.8982 38.7726 25.8982Z" fill="#1E2959"/>
<path d="M35.1819 31.793C35.1819 31.5025 34.9327 31.2671 34.6253 31.2671H25.9143C25.1946 31.2671 25.1946 32.3189 25.9143 32.3189H34.6253C34.9327 32.3189 35.1819 32.0834 35.1819 31.793Z" fill="#1E2959"/>
<path d="M38.7726 33.5366C39.7914 33.5366 40.6203 32.7544 40.6203 31.793C40.6203 30.8316 39.7914 30.0494 38.7726 30.0494C37.7537 30.0494 36.9248 30.8316 36.9248 31.793C36.9248 32.7544 37.7537 33.5366 38.7726 33.5366ZM38.7726 31.1013C39.1776 31.1013 39.507 31.4116 39.507 31.793C39.507 32.1745 39.1776 32.4848 38.7726 32.4848C38.3675 32.4848 38.0381 32.1745 38.0381 31.793C38.0381 31.4115 38.3675 31.1013 38.7726 31.1013Z" fill="#1E2959"/>
<path d="M38.7726 38.7395C39.7914 38.7395 40.6203 37.9574 40.6203 36.9959C40.6203 36.0345 39.7914 35.2523 38.7726 35.2523C37.7537 35.2523 36.9248 36.0345 36.9248 36.9959C36.9248 37.9574 37.7537 38.7395 38.7726 38.7395ZM38.7726 36.3041C39.1776 36.3041 39.507 36.6145 39.507 36.9959C39.507 37.3773 39.1776 37.6877 38.7726 37.6877C38.3675 37.6877 38.0381 37.3773 38.0381 36.9959C38.0381 36.6145 38.3675 36.3041 38.7726 36.3041Z" fill="#1E2959"/>
<path d="M38.7726 43.9426C39.7914 43.9426 40.6203 43.1604 40.6203 42.199C40.6203 41.2375 39.7914 40.4553 38.7726 40.4553C37.7537 40.4553 36.9248 41.2375 36.9248 42.199C36.9248 43.1604 37.7537 43.9426 38.7726 43.9426ZM38.7726 41.5071C39.1776 41.5071 39.507 41.8174 39.507 42.1989C39.507 42.5803 39.1776 42.8907 38.7726 42.8907C38.3675 42.8907 38.0381 42.5803 38.0381 42.1989C38.0381 41.8174 38.3675 41.5071 38.7726 41.5071Z" fill="#1E2959"/>
<path d="M49.8868 21.9305C48.7215 21.9305 47.7734 22.8263 47.7734 23.9273V39.0971C47.7734 39.7771 48.8867 39.7771 48.8867 39.0971V27.2154H50.887V44.7736H48.8867V41.8995C48.8867 41.2196 47.7734 41.2196 47.7734 41.8995V45.2996C47.7734 45.3699 47.7893 45.4427 47.8182 45.5065L49.3704 49.152C49.5538 49.5828 50.2198 49.5828 50.4032 49.152L51.9554 45.5065C51.9814 45.4492 52.0002 45.3641 52.0002 45.2996V23.9273C52.0003 22.8263 51.0522 21.9305 49.8868 21.9305ZM49.8869 22.9824C50.4383 22.9824 50.887 23.4062 50.887 23.9273V26.1635H48.8867V23.9273C48.8867 23.4062 49.3354 22.9824 49.8869 22.9824ZM49.8869 47.5466L49.154 45.8255H50.6197L49.8869 47.5466Z" fill="#1E2959"/>
<path d="M18.3721 38.6044C18.3721 38.3197 18.6163 38.0881 18.9163 38.0881C19.2164 38.0881 19.4606 38.3198 19.4606 38.6044C19.4606 39.2844 20.5738 39.2844 20.5738 38.6044C20.5738 37.7397 19.8303 37.0363 18.9163 37.0363C18.0024 37.0363 17.2588 37.7397 17.2588 38.6044C17.2588 39.2844 18.3721 39.2844 18.3721 38.6044Z" fill="#1E2959"/>
<path d="M22.2559 39.1303C22.5633 39.1303 22.8125 38.895 22.8125 38.6044C22.8125 38.3197 23.0567 38.0881 23.3567 38.0881C23.6568 38.0881 23.901 38.3198 23.901 38.6044C23.901 39.2844 25.0143 39.2844 25.0143 38.6044C25.0143 37.7397 24.2707 37.0363 23.3567 37.0363C22.4427 37.0363 21.6992 37.7397 21.6992 38.6044C21.6992 38.8949 21.9484 39.1303 22.2559 39.1303Z" fill="#1E2959"/>
<path d="M24.0173 41.8569C24.5257 41.3756 23.7376 40.6326 23.2292 41.1139C22.6822 41.6318 21.9557 41.9171 21.1835 41.9171C20.4114 41.9171 19.6848 41.6318 19.1378 41.1139C18.6294 40.6327 17.8414 41.3756 18.3498 41.8569C19.1072 42.574 20.1136 42.9689 21.1836 42.9689C22.2536 42.9689 23.2599 42.574 24.0173 41.8569Z" fill="#1E2959"/>
</svg>
