<svg width="66" height="66" viewBox="0 0 66 66" fill="none" xmlns="http://www.w3.org/2000/svg">
<circle cx="33" cy="33" r="33" fill="#FFCC00" fill-opacity="0.27"/>
<path d="M28.6963 41.8713H37.3031V48.8681H28.6963V41.8713Z" fill="#B0BCD1"/>
<path d="M35.5967 41.8713H37.3037V48.8681H35.5967V41.8713Z" fill="#93A4C2"/>
<path d="M14.5566 40.4019C14.5566 41.7738 15.6576 42.8859 17.0157 42.8859H48.984C50.3422 42.8859 51.4431 41.7738 51.4431 40.4019V18.0461C51.4431 16.6743 50.3422 15.5623 48.984 15.5623H17.0157C15.6576 15.5623 14.5567 16.6743 14.5567 18.0461V40.4019H14.5566Z" fill="#393E46"/>
<path d="M17.0156 39.1598V18.4962C17.0156 18.2478 17.215 18.0464 17.4609 18.0464H48.5389C48.7848 18.0464 48.9842 18.2478 48.9842 18.4962V39.1598" fill="#5893D4"/>
<path d="M51.4431 40.4019V39.1597H14.5566V40.4019C14.5566 41.7737 15.6576 42.8858 17.0157 42.8858H48.984C50.3422 42.8858 51.4431 41.7737 51.4431 40.4019Z" fill="#D3D6DB"/>
<path d="M48.9844 15.5623H47.2773C48.6354 15.5623 49.7364 16.6743 49.7364 18.0462V40.402C49.7364 41.7738 48.6354 42.8859 47.2773 42.8859H48.9844C50.3424 42.8859 51.4434 41.7739 51.4434 40.402V18.0462C51.4434 16.6743 50.3424 15.5623 48.9844 15.5623Z" fill="#222831"/>
<path d="M49.7364 40.4019C49.7364 41.7737 48.6354 42.8858 47.2773 42.8858H48.9844C50.3424 42.8858 51.4434 41.7737 51.4434 40.4019V39.1597H49.7364V40.4019Z" fill="#B0BCD1"/>
<path d="M48.5391 18.0464H46.832C47.078 18.0464 47.2773 18.2478 47.2773 18.4962V39.1598H48.9844V18.4962C48.9844 18.2478 48.7851 18.0464 48.5391 18.0464Z" fill="#4876C7"/>
<path d="M41.1615 47.8538H24.8384C24.5924 47.8538 24.3931 48.0551 24.3931 48.3036V49.8878C24.3931 50.1363 24.5924 50.3376 24.8384 50.3376H41.1615C41.4075 50.3376 41.6068 50.1363 41.6068 49.8878V48.3036C41.6068 48.0552 41.4074 47.8538 41.1615 47.8538Z" fill="#D3D6DB"/>
<path d="M41.1616 47.8538H39.4546C39.7006 47.8538 39.8999 48.0551 39.8999 48.3036V49.8878C39.8999 50.1363 39.7006 50.3376 39.4546 50.3376H41.1616C41.4076 50.3376 41.6069 50.1363 41.6069 49.8878V48.3036C41.6069 48.0552 41.4076 47.8538 41.1616 47.8538Z" fill="#B0BCD1"/>
<path d="M44.702 36.6759H21.2983C20.9704 36.6759 20.7046 36.4073 20.7046 36.0761V32.3078C20.7046 31.9765 20.9704 31.708 21.2983 31.708H44.702C45.0299 31.708 45.2957 31.9765 45.2957 32.3078V36.0761C45.2957 36.4073 45.0299 36.6759 44.702 36.6759Z" fill="#EEF2F5"/>
<path d="M43.2817 26.7402H44.8502C45.0962 26.7402 45.2955 26.9416 45.2955 27.19V28.7744C45.2955 29.0228 45.0962 29.2242 44.8502 29.2242H43.2817C43.0358 29.2242 42.8364 29.0228 42.8364 28.7744V27.19C42.8364 26.9416 43.0359 26.7402 43.2817 26.7402Z" fill="#85EF47"/>
<path d="M38.5543 29.2241H27.4463C27.1184 29.2241 26.8525 28.9555 26.8525 28.6243V21.13C26.8525 20.7988 27.1184 20.5303 27.4463 20.5303H38.5543C38.8822 20.5303 39.1481 20.7988 39.1481 21.13V28.6243C39.1481 28.9555 38.8822 29.2241 38.5543 29.2241Z" fill="#FF5959"/>
<path d="M38.5537 20.5303H36.8467C37.1746 20.5303 37.4404 20.7988 37.4404 21.13V28.6243C37.4404 28.9555 37.1746 29.2241 36.8467 29.2241H38.5537C38.8816 29.2241 39.1475 28.9555 39.1475 28.6243V21.13C39.1475 20.7987 38.8816 20.5303 38.5537 20.5303Z" fill="#E64040"/>
<path d="M31.7705 23.7421V26.0125C31.7705 26.3468 32.1189 26.5643 32.4149 26.4148L34.6626 25.2796C34.9908 25.1139 34.9908 24.6408 34.6626 24.475L32.4149 23.3398C32.1189 23.1903 31.7705 23.4077 31.7705 23.7421Z" fill="#EEF2F5"/>
<path d="M44.7021 31.708H42.9951C43.323 31.708 43.5889 31.9765 43.5889 32.3078V36.0762C43.5889 36.4074 43.323 36.6759 42.9951 36.6759H44.7021C45.03 36.6759 45.2959 36.4074 45.2959 36.0762V32.3078C45.2959 31.9765 45.03 31.708 44.7021 31.708Z" fill="#D3E6F5"/>
<path d="M52 39.1597C52 39.1587 51.9999 39.1578 51.9999 39.1568V18.0462C51.9999 16.3665 50.6471 15 48.9842 15H17.0158C15.3529 15 14.0001 16.3665 14.0001 18.0462V20.6479C14.0001 20.9585 14.2494 21.2102 14.5568 21.2102C14.8642 21.2102 15.1134 20.9585 15.1134 20.6479V18.0462C15.1134 16.9866 15.9668 16.1245 17.0158 16.1245H48.9842C50.0332 16.1245 50.8866 16.9866 50.8866 18.0462V38.5975H49.5409V18.0463C49.5409 17.7357 49.2917 17.4841 48.9843 17.4841H17.0157C16.7083 17.4841 16.4591 17.7357 16.4591 18.0463V38.5975H15.1134V22.897C15.1134 22.5864 14.8642 22.3347 14.5568 22.3347C14.2494 22.3347 14.0001 22.5864 14.0001 22.897V39.1575C14.0001 39.1583 14 39.159 14 39.1597C14 39.1605 14.0001 39.1611 14.0001 39.1619V40.4019C14.0001 42.0816 15.353 43.4481 17.0158 43.4481H28.1399V47.2916H24.3931C24.0857 47.2916 23.8365 47.5433 23.8365 47.8539V50.3377C23.8365 50.6483 24.0857 50.9 24.3931 50.9H41.6069C41.9143 50.9 42.1636 50.6483 42.1636 50.3377V47.8539C42.1636 47.5433 41.9143 47.2916 41.6069 47.2916H37.8601V43.4481H48.9842C50.6471 43.4481 51.9999 42.0816 51.9999 40.4019V39.1626C51.9999 39.1617 52 39.1607 52 39.1597ZM17.5724 18.6086H48.4276V38.5975H17.5724V18.6086ZM41.0503 49.7755H24.9498V48.4161H41.0503V49.7755ZM33.6729 47.2916H32.3271V45.9318H33.6729V47.2916ZM36.7468 47.2916H34.7861V45.3696C34.7861 45.059 34.5369 44.8073 34.2295 44.8073H31.7704C31.463 44.8073 31.2138 45.059 31.2138 45.3696V47.2916H29.2532V43.4481H36.7468V47.2916ZM48.9842 42.3236H37.3049C37.3044 42.3236 37.3039 42.3235 37.3035 42.3235C37.3031 42.3235 37.3025 42.3236 37.3021 42.3236H28.698C28.6975 42.3236 28.697 42.3235 28.6966 42.3235C28.6961 42.3235 28.6956 42.3236 28.6952 42.3236H17.0158C15.9668 42.3236 15.1134 41.4615 15.1134 40.4019V39.722H50.8866V40.4019C50.8866 41.4615 50.0332 42.3236 48.9842 42.3236Z" fill="black"/>
<path d="M44.702 31.1458H21.2983C20.664 31.1458 20.1479 31.667 20.1479 32.3078V36.0761C20.1479 36.7169 20.664 37.2381 21.2983 37.2381H44.702C45.3363 37.2381 45.8524 36.7169 45.8524 36.0761V32.3077C45.8524 31.667 45.3362 31.1458 44.702 31.1458ZM44.7391 36.0761C44.7391 36.0967 44.7224 36.1136 44.702 36.1136H21.2983C21.2779 36.1136 21.2612 36.0967 21.2612 36.0761V32.3077C21.2612 32.2871 21.2779 32.2702 21.2983 32.2702H44.702C44.7224 32.2702 44.7391 32.2871 44.7391 32.3077V36.0761Z" fill="black"/>
<path d="M27.4463 29.7863H38.5543C39.1887 29.7863 39.7047 29.2651 39.7047 28.6243V21.13C39.7047 20.4893 39.1887 19.968 38.5543 19.968H27.4463C26.8119 19.968 26.2959 20.4893 26.2959 21.13V28.6243C26.2959 29.2651 26.8119 29.7863 27.4463 29.7863ZM27.4092 21.13C27.4092 21.1094 27.4258 21.0925 27.4463 21.0925H38.5543C38.5748 21.0925 38.5914 21.1094 38.5914 21.13V28.6243C38.5914 28.6449 38.5748 28.6618 38.5543 28.6618H27.4463C27.4258 28.6618 27.4092 28.6449 27.4092 28.6243V21.13Z" fill="black"/>
<path d="M33 33.6296H23.1636C22.8562 33.6296 22.6069 33.8813 22.6069 34.1919C22.6069 34.5025 22.8562 34.7542 23.1636 34.7542H33C33.3074 34.7542 33.5566 34.5025 33.5566 34.1919C33.5566 33.8813 33.3074 33.6296 33 33.6296Z" fill="black"/>
<path d="M45.2955 26.178H42.8364C42.529 26.178 42.2798 26.4296 42.2798 26.7402V29.2242C42.2798 29.5348 42.529 29.7864 42.8364 29.7864H45.2955C45.6029 29.7864 45.8522 29.5348 45.8522 29.2242V26.7402C45.8522 26.4296 45.6029 26.178 45.2955 26.178ZM44.7389 28.6619H43.3931V27.3025H44.7389V28.6619Z" fill="black"/>
<path d="M31.4779 27.2185C31.5673 27.2742 31.6688 27.3024 31.7705 27.3024C31.8556 27.3024 31.9408 27.2827 32.0194 27.2431L35.7081 25.38C35.8967 25.2848 36.0158 25.0901 36.0158 24.8771C36.0158 24.6641 35.8967 24.4695 35.7081 24.3742L32.0194 22.5113C31.8468 22.4241 31.6419 22.4335 31.4779 22.5359C31.3138 22.6383 31.2139 22.8192 31.2139 23.0142V26.7401C31.2139 26.9351 31.3137 27.1161 31.4779 27.2185ZM32.3271 23.924L34.2145 24.8772L32.3271 25.8304V23.924Z" fill="black"/>
</svg>
