<svg width="128" height="128" viewBox="0 0 128 128" fill="none" xmlns="http://www.w3.org/2000/svg">
<g filter="url(#filter0_d_234_2219)">
<circle cx="64" cy="48" r="24" fill="white"/>
<circle cx="64" cy="48" r="23.5" stroke="white"/>
</g>
<g clip-path="url(#clip0_234_2219)">
<path fill-rule="evenodd" clip-rule="evenodd" d="M75.9999 40.3657C75.1181 40.7673 74.1686 41.0388 73.1726 41.1601C74.1896 40.5361 74.9701 39.5465 75.3378 38.3679C74.3855 38.9457 73.3333 39.3661 72.209 39.5915C71.3131 38.6107 70.0325 37.9981 68.6154 37.9981C65.8979 37.9981 63.6933 40.2588 63.6933 43.0469C63.6933 43.4427 63.7355 43.8269 63.8201 44.1969C59.7281 43.9857 56.1007 41.9778 53.6705 38.9197C53.2466 39.668 53.0041 40.5361 53.0041 41.4607C53.0041 43.2115 53.8734 44.7571 55.1947 45.6629C54.389 45.6384 53.6281 45.4087 52.9633 45.0331V45.0952C52.9633 47.5422 54.6607 49.5834 56.9146 50.0457C56.5019 50.1642 56.0666 50.2235 55.6171 50.2235C55.3003 50.2235 54.9903 50.1931 54.6901 50.1339C55.3169 52.139 57.1342 53.5994 59.2895 53.6384C57.6046 54.9935 55.4804 55.8009 53.1744 55.8009C52.7771 55.8009 52.3841 55.7778 51.9995 55.7315C54.1788 57.1615 56.768 57.998 59.5473 57.998C68.6053 57.998 73.5568 50.3056 73.5568 43.6332C73.5568 43.4137 73.5524 43.1941 73.544 42.9789C74.5066 42.2667 75.3419 41.3784 75.9999 40.3657Z" fill="#00AAEC"/>
</g>
<defs>
<filter id="filter0_d_234_2219" x="0" y="0" width="128" height="128" filterUnits="userSpaceOnUse" color-interpolation-filters="sRGB">
<feFlood flood-opacity="0" result="BackgroundImageFix"/>
<feColorMatrix in="SourceAlpha" type="matrix" values="0 0 0 0 0 0 0 0 0 0 0 0 0 0 0 0 0 0 127 0" result="hardAlpha"/>
<feOffset dy="16"/>
<feGaussianBlur stdDeviation="20"/>
<feComposite in2="hardAlpha" operator="out"/>
<feColorMatrix type="matrix" values="0 0 0 0 0.117647 0 0 0 0 0.160784 0 0 0 0 0.34902 0 0 0 0.2 0"/>
<feBlend mode="normal" in2="BackgroundImageFix" result="effect1_dropShadow_234_2219"/>
<feBlend mode="normal" in="SourceGraphic" in2="effect1_dropShadow_234_2219" result="shape"/>
</filter>
<clipPath id="clip0_234_2219">
<rect width="24" height="24" fill="white" transform="translate(52 36)"/>
</clipPath>
</defs>
</svg>
